%TF.GenerationSoftware,KiCad,Pcbnew,10.0.5*%
%TF.CreationDate,2026-09-16T10:46:57+05:30*%
%TF.ProjectId,ACIR_PCB,41434952-5f50-4434-922e-6b696361645f,rev?*%
%TF.SameCoordinates,Original*%
%TF.FileFunction,Soldermask,Top*%
%TF.FilePolarity,Negative*%
%FSLAX46Y46*%
G04 Gerber Fmt 4.6, Leading zero omitted, Abs format (unit mm)*
G04 Created by KiCad (PCBNEW 10.0.5) date 2026-09-16 10:46:57*
%MOMM*%
%LPD*%
G01*
G04 APERTURE LIST*
%ADD10C,3.000000*%
%ADD11C,2.000000*%
%ADD12C,3.450000*%
%ADD13C,2.400000*%
%ADD14C,2.800000*%
%ADD15O,4.500000X3.200000*%
%ADD16C,3.500000*%
%ADD17R,7.770000X7.350000*%
%ADD18C,3.200000*%
G04 APERTURE END LIST*
D10*
X69770000Y-222000000D02*
G75*
G02*
X66770000Y-222000000I-1500000J0D01*
G01*
X66770000Y-222000000D02*
G75*
G02*
X69770000Y-222000000I1500000J0D01*
G01*
X75880000Y-139280000D02*
G75*
G02*
X72880000Y-139280000I-1500000J0D01*
G01*
X72880000Y-139280000D02*
G75*
G02*
X75880000Y-139280000I1500000J0D01*
G01*
X75880000Y-163030000D02*
G75*
G02*
X72880000Y-163030000I-1500000J0D01*
G01*
X72880000Y-163030000D02*
G75*
G02*
X75880000Y-163030000I1500000J0D01*
G01*
X75880000Y-186780000D02*
G75*
G02*
X72880000Y-186780000I-1500000J0D01*
G01*
X72880000Y-186780000D02*
G75*
G02*
X75880000Y-186780000I1500000J0D01*
G01*
X75880000Y-210530000D02*
G75*
G02*
X72880000Y-210530000I-1500000J0D01*
G01*
X72880000Y-210530000D02*
G75*
G02*
X75880000Y-210530000I1500000J0D01*
G01*
X146720000Y-87250000D02*
G75*
G02*
X143720000Y-87250000I-1500000J0D01*
G01*
X143720000Y-87250000D02*
G75*
G02*
X146720000Y-87250000I1500000J0D01*
G01*
X180240000Y-139280000D02*
G75*
G02*
X177240000Y-139280000I-1500000J0D01*
G01*
X177240000Y-139280000D02*
G75*
G02*
X180240000Y-139280000I1500000J0D01*
G01*
X180240000Y-163030000D02*
G75*
G02*
X177240000Y-163030000I-1500000J0D01*
G01*
X177240000Y-163030000D02*
G75*
G02*
X180240000Y-163030000I1500000J0D01*
G01*
X180240000Y-186780000D02*
G75*
G02*
X177240000Y-186780000I-1500000J0D01*
G01*
X177240000Y-186780000D02*
G75*
G02*
X180240000Y-186780000I1500000J0D01*
G01*
X180240000Y-210530000D02*
G75*
G02*
X177240000Y-210530000I-1500000J0D01*
G01*
X177240000Y-210530000D02*
G75*
G02*
X180240000Y-210530000I1500000J0D01*
G01*
X186360000Y-222000000D02*
G75*
G02*
X183360000Y-222000000I-1500000J0D01*
G01*
X183360000Y-222000000D02*
G75*
G02*
X186360000Y-222000000I1500000J0D01*
G01*
X217500000Y-139280000D02*
G75*
G02*
X214500000Y-139280000I-1500000J0D01*
G01*
X214500000Y-139280000D02*
G75*
G02*
X217500000Y-139280000I1500000J0D01*
G01*
X217500000Y-163030000D02*
G75*
G02*
X214500000Y-163030000I-1500000J0D01*
G01*
X214500000Y-163030000D02*
G75*
G02*
X217500000Y-163030000I1500000J0D01*
G01*
X217500000Y-186780000D02*
G75*
G02*
X214500000Y-186780000I-1500000J0D01*
G01*
X214500000Y-186780000D02*
G75*
G02*
X217500000Y-186780000I1500000J0D01*
G01*
X217500000Y-210530000D02*
G75*
G02*
X214500000Y-210530000I-1500000J0D01*
G01*
X214500000Y-210530000D02*
G75*
G02*
X217500000Y-210530000I1500000J0D01*
G01*
X251080000Y-87250000D02*
G75*
G02*
X248080000Y-87250000I-1500000J0D01*
G01*
X248080000Y-87250000D02*
G75*
G02*
X251080000Y-87250000I1500000J0D01*
G01*
X321860000Y-139280000D02*
G75*
G02*
X318860000Y-139280000I-1500000J0D01*
G01*
X318860000Y-139280000D02*
G75*
G02*
X321860000Y-139280000I1500000J0D01*
G01*
X321860000Y-163030000D02*
G75*
G02*
X318860000Y-163030000I-1500000J0D01*
G01*
X318860000Y-163030000D02*
G75*
G02*
X321860000Y-163030000I1500000J0D01*
G01*
X321860000Y-186780000D02*
G75*
G02*
X318860000Y-186780000I-1500000J0D01*
G01*
X318860000Y-186780000D02*
G75*
G02*
X321860000Y-186780000I1500000J0D01*
G01*
X321860000Y-210530000D02*
G75*
G02*
X318860000Y-210530000I-1500000J0D01*
G01*
X318860000Y-210530000D02*
G75*
G02*
X321860000Y-210530000I1500000J0D01*
G01*
D11*
%TO.C,J7*%
X216000000Y-139280000D03*
%TD*%
D12*
%TO.C,BT1*%
X169800000Y-95250000D03*
X225000000Y-79250000D03*
D13*
X233240000Y-95250000D03*
D14*
X218680000Y-84710000D03*
X218680000Y-89790000D03*
D15*
X225750000Y-87250000D03*
D16*
X233510000Y-87250000D03*
D17*
X237030000Y-87250000D03*
X157770000Y-87250000D03*
D16*
X161290000Y-87250000D03*
D15*
X169050000Y-87250000D03*
D14*
X176120000Y-84710000D03*
X176120000Y-89790000D03*
%TD*%
D11*
%TO.C,J17*%
X74380000Y-210530000D03*
%TD*%
D12*
%TO.C,BT8*%
X98960000Y-194780000D03*
X154160000Y-178780000D03*
D13*
X162400000Y-194780000D03*
D14*
X147840000Y-184240000D03*
X147840000Y-189320000D03*
D15*
X154910000Y-186780000D03*
D16*
X162670000Y-186780000D03*
D17*
X166190000Y-186780000D03*
X86930000Y-186780000D03*
D16*
X90450000Y-186780000D03*
D15*
X98210000Y-186780000D03*
D14*
X105280000Y-184240000D03*
X105280000Y-189320000D03*
%TD*%
D18*
%TO.C,H5*%
X197400000Y-244900000D03*
%TD*%
D11*
%TO.C,J14*%
X178740000Y-186780000D03*
%TD*%
%TO.C,J9*%
X216000000Y-186780000D03*
%TD*%
%TO.C,J19*%
X320360000Y-186780000D03*
%TD*%
D18*
%TO.C,H6*%
X197400000Y-44900000D03*
%TD*%
D11*
%TO.C,J13*%
X74380000Y-163030000D03*
%TD*%
D12*
%TO.C,BT4*%
X240580000Y-194780000D03*
X295780000Y-178780000D03*
D13*
X304020000Y-194780000D03*
D14*
X289460000Y-184240000D03*
X289460000Y-189320000D03*
D15*
X296530000Y-186780000D03*
D16*
X304290000Y-186780000D03*
D17*
X307810000Y-186780000D03*
X228550000Y-186780000D03*
D16*
X232070000Y-186780000D03*
D15*
X239830000Y-186780000D03*
D14*
X246900000Y-184240000D03*
X246900000Y-189320000D03*
%TD*%
D12*
%TO.C,BT7*%
X98960000Y-171030000D03*
X154160000Y-155030000D03*
D13*
X162400000Y-171030000D03*
D14*
X147840000Y-160490000D03*
X147840000Y-165570000D03*
D15*
X154910000Y-163030000D03*
D16*
X162670000Y-163030000D03*
D17*
X166190000Y-163030000D03*
X86930000Y-163030000D03*
D16*
X90450000Y-163030000D03*
D15*
X98210000Y-163030000D03*
D14*
X105280000Y-160490000D03*
X105280000Y-165570000D03*
%TD*%
D11*
%TO.C,J5*%
X184860000Y-222000000D03*
%TD*%
D18*
%TO.C,H8*%
X53900000Y-144900000D03*
%TD*%
D11*
%TO.C,J18*%
X216000000Y-163030000D03*
%TD*%
%TO.C,J3*%
X320360000Y-139280000D03*
%TD*%
%TO.C,J1*%
X249580000Y-87250000D03*
%TD*%
D12*
%TO.C,BT9*%
X98960000Y-218530000D03*
X154160000Y-202530000D03*
D13*
X162400000Y-218530000D03*
D14*
X147840000Y-207990000D03*
X147840000Y-213070000D03*
D15*
X154910000Y-210530000D03*
D16*
X162670000Y-210530000D03*
D17*
X166190000Y-210530000D03*
X86930000Y-210530000D03*
D16*
X90450000Y-210530000D03*
D15*
X98210000Y-210530000D03*
D14*
X105280000Y-207990000D03*
X105280000Y-213070000D03*
%TD*%
D11*
%TO.C,J16*%
X178740000Y-210530000D03*
%TD*%
D12*
%TO.C,BT2*%
X240580000Y-147280000D03*
X295780000Y-131280000D03*
D13*
X304020000Y-147280000D03*
D14*
X289460000Y-136740000D03*
X289460000Y-141820000D03*
D15*
X296530000Y-139280000D03*
D16*
X304290000Y-139280000D03*
D17*
X307810000Y-139280000D03*
X228550000Y-139280000D03*
D16*
X232070000Y-139280000D03*
D15*
X239830000Y-139280000D03*
D14*
X246900000Y-136740000D03*
X246900000Y-141820000D03*
%TD*%
D11*
%TO.C,J15*%
X74380000Y-186780000D03*
%TD*%
D18*
%TO.C,H7*%
X340900000Y-144900000D03*
%TD*%
D12*
%TO.C,BT5*%
X295780000Y-202530000D03*
X240580000Y-218530000D03*
D13*
X232340000Y-202530000D03*
D14*
X246900000Y-213070000D03*
X246900000Y-207990000D03*
D15*
X239830000Y-210530000D03*
D16*
X232070000Y-210530000D03*
D17*
X228550000Y-210530000D03*
X307810000Y-210530000D03*
D16*
X304290000Y-210530000D03*
D15*
X296530000Y-210530000D03*
D14*
X289460000Y-213070000D03*
X289460000Y-207990000D03*
%TD*%
D18*
%TO.C,H2*%
X340900000Y-44900000D03*
%TD*%
D11*
%TO.C,J2*%
X145220000Y-87250000D03*
%TD*%
D12*
%TO.C,BT3*%
X295780000Y-155030000D03*
X240580000Y-171030000D03*
D13*
X232340000Y-155030000D03*
D14*
X246900000Y-165570000D03*
X246900000Y-160490000D03*
D15*
X239830000Y-163030000D03*
D16*
X232070000Y-163030000D03*
D17*
X228550000Y-163030000D03*
X307810000Y-163030000D03*
D16*
X304290000Y-163030000D03*
D15*
X296530000Y-163030000D03*
D14*
X289460000Y-165570000D03*
X289460000Y-160490000D03*
%TD*%
D11*
%TO.C,J8*%
X320360000Y-163030000D03*
%TD*%
D18*
%TO.C,H1*%
X53900000Y-44900000D03*
%TD*%
D11*
%TO.C,J20*%
X216000000Y-210530000D03*
%TD*%
D12*
%TO.C,BT6*%
X98960000Y-147280000D03*
X154160000Y-131280000D03*
D13*
X162400000Y-147280000D03*
D14*
X147840000Y-136740000D03*
X147840000Y-141820000D03*
D15*
X154910000Y-139280000D03*
D16*
X162670000Y-139280000D03*
D17*
X166190000Y-139280000D03*
X86930000Y-139280000D03*
D16*
X90450000Y-139280000D03*
D15*
X98210000Y-139280000D03*
D14*
X105280000Y-136740000D03*
X105280000Y-141820000D03*
%TD*%
D11*
%TO.C,J6*%
X68270000Y-222000000D03*
%TD*%
%TO.C,J10*%
X178740000Y-139280000D03*
%TD*%
D18*
%TO.C,H4*%
X53900000Y-244900000D03*
%TD*%
D11*
%TO.C,J12*%
X178740000Y-163030000D03*
%TD*%
D18*
%TO.C,H3*%
X340900000Y-244900000D03*
%TD*%
D11*
%TO.C,J11*%
X74380000Y-139280000D03*
%TD*%
%TO.C,J4*%
X320360000Y-210530000D03*
%TD*%
M02*
