M48
; DRILL file KiCad 10.0.5 date 2026-09-16T11:08:29
; FORMAT={-:-/ absolute / metric / decimal}
; #@! TF.CreationDate,2026-09-16T11:08:29+05:30
; #@! TF.GenerationSoftware,Kicad,Pcbnew,10.0.5
; #@! TF.FileFunction,MixedPlating,1,2
FMAT,2
METRIC
; #@! TA.AperFunction,Plated,PTH,ViaDrill
T1C0.400
; #@! TA.AperFunction,Plated,PTH,ComponentDrill
T2C1.830
; #@! TA.AperFunction,Plated,PTH,ComponentDrill
T3C2.000
; #@! TA.AperFunction,Plated,PTH,ComponentDrill
T4C2.500
; #@! TA.AperFunction,NonPlated,NPTH,ComponentDrill
T5C2.400
; #@! TA.AperFunction,NonPlated,NPTH,ComponentDrill
T6C3.200
; #@! TA.AperFunction,NonPlated,NPTH,ComponentDrill
T7C3.450
%
G90
G05
T1
X68.27Y-222.0
X71.067Y-219.25
X71.067Y-224.75
X71.63Y-135.6
X71.63Y-136.851
X71.63Y-141.858
X71.63Y-143.109
X71.63Y-144.361
X71.63Y-145.612
X71.63Y-146.864
X71.63Y-148.115
X71.63Y-149.367
X71.63Y-150.618
X71.63Y-151.87
X71.63Y-153.121
X71.63Y-154.373
X71.63Y-155.624
X71.63Y-156.876
X71.63Y-158.127
X71.63Y-159.379
X71.63Y-160.63
X71.63Y-165.636
X71.63Y-166.888
X71.63Y-168.139
X71.63Y-169.391
X71.63Y-170.642
X71.63Y-171.894
X71.63Y-173.145
X71.63Y-174.397
X71.63Y-175.648
X71.63Y-176.9
X71.63Y-178.151
X71.63Y-179.403
X71.63Y-180.654
X71.63Y-181.906
X71.63Y-183.158
X71.63Y-184.409
X71.63Y-189.415
X71.63Y-190.667
X71.63Y-191.918
X71.63Y-193.17
X71.63Y-194.421
X71.63Y-195.673
X71.63Y-196.924
X71.63Y-198.176
X71.63Y-199.427
X71.63Y-200.679
X71.63Y-201.93
X71.63Y-203.182
X71.63Y-204.433
X71.63Y-205.685
X71.63Y-206.936
X71.63Y-208.188
X71.63Y-213.194
X71.63Y-214.445
X71.63Y-215.697
X71.63Y-216.948
X71.63Y-218.2
X72.466Y-219.25
X72.466Y-220.35
X72.466Y-221.45
X72.466Y-222.55
X72.466Y-223.65
X72.466Y-224.75
X72.73Y-135.6
X72.73Y-143.109
X72.73Y-144.361
X72.73Y-145.612
X72.73Y-146.864
X72.73Y-148.115
X72.73Y-149.367
X72.73Y-150.618
X72.73Y-151.87
X72.73Y-153.121
X72.73Y-154.373
X72.73Y-155.624
X72.73Y-156.876
X72.73Y-158.127
X72.73Y-159.379
X72.73Y-166.888
X72.73Y-168.139
X72.73Y-169.391
X72.73Y-170.642
X72.73Y-171.894
X72.73Y-173.145
X72.73Y-174.397
X72.73Y-175.648
X72.73Y-176.9
X72.73Y-178.151
X72.73Y-179.403
X72.73Y-180.654
X72.73Y-181.906
X72.73Y-183.158
X72.73Y-190.667
X72.73Y-191.918
X72.73Y-193.17
X72.73Y-194.421
X72.73Y-195.673
X72.73Y-196.924
X72.73Y-198.176
X72.73Y-199.427
X72.73Y-200.679
X72.73Y-201.93
X72.73Y-203.182
X72.73Y-204.433
X72.73Y-205.685
X72.73Y-206.936
X72.73Y-214.445
X72.73Y-215.697
X72.73Y-216.948
X72.73Y-218.2
X73.83Y-135.6
X73.83Y-143.109
X73.83Y-144.361
X73.83Y-145.612
X73.83Y-146.864
X73.83Y-148.115
X73.83Y-149.367
X73.83Y-150.618
X73.83Y-151.87
X73.83Y-153.121
X73.83Y-154.373
X73.83Y-155.624
X73.83Y-156.876
X73.83Y-158.127
X73.83Y-159.379
X73.83Y-166.888
X73.83Y-168.139
X73.83Y-169.391
X73.83Y-170.642
X73.83Y-171.894
X73.83Y-173.145
X73.83Y-174.397
X73.83Y-175.648
X73.83Y-176.9
X73.83Y-178.151
X73.83Y-179.403
X73.83Y-180.654
X73.83Y-181.906
X73.83Y-183.158
X73.83Y-190.667
X73.83Y-191.918
X73.83Y-193.17
X73.83Y-194.421
X73.83Y-195.673
X73.83Y-196.924
X73.83Y-198.176
X73.83Y-199.427
X73.83Y-200.679
X73.83Y-201.93
X73.83Y-203.182
X73.83Y-204.433
X73.83Y-205.685
X73.83Y-206.936
X73.83Y-214.445
X73.83Y-215.697
X73.83Y-216.948
X73.83Y-218.2
X73.864Y-219.25
X73.864Y-220.35
X73.864Y-221.45
X73.864Y-222.55
X73.864Y-223.65
X73.864Y-224.75
X74.38Y-139.28
X74.38Y-163.03
X74.38Y-186.78
X74.38Y-210.53
X74.93Y-135.6
X74.93Y-143.109
X74.93Y-144.361
X74.93Y-145.612
X74.93Y-146.864
X74.93Y-148.115
X74.93Y-149.367
X74.93Y-150.618
X74.93Y-151.87
X74.93Y-153.121
X74.93Y-154.373
X74.93Y-155.624
X74.93Y-156.876
X74.93Y-158.127
X74.93Y-159.379
X74.93Y-166.888
X74.93Y-168.139
X74.93Y-169.391
X74.93Y-170.642
X74.93Y-171.894
X74.93Y-173.145
X74.93Y-174.397
X74.93Y-175.648
X74.93Y-176.9
X74.93Y-178.151
X74.93Y-179.403
X74.93Y-180.654
X74.93Y-181.906
X74.93Y-183.158
X74.93Y-190.667
X74.93Y-191.918
X74.93Y-193.17
X74.93Y-194.421
X74.93Y-195.673
X74.93Y-196.924
X74.93Y-198.176
X74.93Y-199.427
X74.93Y-200.679
X74.93Y-201.93
X74.93Y-203.182
X74.93Y-204.433
X74.93Y-205.685
X74.93Y-206.936
X74.93Y-214.445
X74.93Y-215.697
X74.93Y-216.948
X74.93Y-218.2
X75.263Y-221.45
X75.263Y-222.55
X75.263Y-223.65
X75.263Y-224.75
X76.03Y-135.6
X76.03Y-143.109
X76.03Y-144.361
X76.03Y-145.612
X76.03Y-146.864
X76.03Y-148.115
X76.03Y-149.367
X76.03Y-150.618
X76.03Y-151.87
X76.03Y-153.121
X76.03Y-154.373
X76.03Y-155.624
X76.03Y-156.876
X76.03Y-158.127
X76.03Y-159.379
X76.03Y-166.888
X76.03Y-168.139
X76.03Y-169.391
X76.03Y-170.642
X76.03Y-171.894
X76.03Y-173.145
X76.03Y-174.397
X76.03Y-175.648
X76.03Y-176.9
X76.03Y-178.151
X76.03Y-179.403
X76.03Y-180.654
X76.03Y-181.906
X76.03Y-183.158
X76.03Y-190.667
X76.03Y-191.918
X76.03Y-193.17
X76.03Y-194.421
X76.03Y-195.673
X76.03Y-196.924
X76.03Y-198.176
X76.03Y-199.427
X76.03Y-200.679
X76.03Y-201.93
X76.03Y-203.182
X76.03Y-204.433
X76.03Y-205.685
X76.03Y-206.936
X76.03Y-214.445
X76.03Y-215.697
X76.03Y-216.948
X76.03Y-218.2
X76.218Y-136.53
X76.218Y-142.03
X76.218Y-160.28
X76.218Y-165.78
X76.218Y-184.03
X76.218Y-189.53
X76.218Y-207.78
X76.218Y-213.28
X76.661Y-221.45
X76.661Y-222.55
X76.661Y-223.65
X76.661Y-224.75
X77.13Y-135.6
X77.13Y-143.109
X77.13Y-144.361
X77.13Y-145.612
X77.13Y-146.864
X77.13Y-148.115
X77.13Y-149.367
X77.13Y-150.618
X77.13Y-151.87
X77.13Y-153.121
X77.13Y-154.373
X77.13Y-155.624
X77.13Y-156.876
X77.13Y-158.127
X77.13Y-159.379
X77.13Y-166.888
X77.13Y-168.139
X77.13Y-169.391
X77.13Y-170.642
X77.13Y-171.894
X77.13Y-173.145
X77.13Y-174.397
X77.13Y-175.648
X77.13Y-176.9
X77.13Y-178.151
X77.13Y-179.403
X77.13Y-180.654
X77.13Y-181.906
X77.13Y-183.158
X77.13Y-190.667
X77.13Y-191.918
X77.13Y-193.17
X77.13Y-194.421
X77.13Y-195.673
X77.13Y-196.924
X77.13Y-198.176
X77.13Y-199.427
X77.13Y-200.679
X77.13Y-201.93
X77.13Y-203.182
X77.13Y-204.433
X77.13Y-205.685
X77.13Y-206.936
X77.13Y-214.445
X77.13Y-215.697
X77.13Y-216.948
X77.13Y-218.2
X77.455Y-136.53
X77.455Y-137.63
X77.455Y-140.93
X77.455Y-142.03
X77.455Y-160.28
X77.455Y-161.38
X77.455Y-164.68
X77.455Y-165.78
X77.455Y-184.03
X77.455Y-185.13
X77.455Y-188.43
X77.455Y-189.53
X77.455Y-207.78
X77.455Y-208.88
X77.455Y-212.18
X77.455Y-213.28
X78.692Y-136.53
X78.692Y-137.63
X78.692Y-138.73
X78.692Y-139.83
X78.692Y-140.93
X78.692Y-142.03
X78.692Y-160.28
X78.692Y-161.38
X78.692Y-162.48
X78.692Y-163.58
X78.692Y-164.68
X78.692Y-165.78
X78.692Y-184.03
X78.692Y-185.13
X78.692Y-186.23
X78.692Y-187.33
X78.692Y-188.43
X78.692Y-189.53
X78.692Y-207.78
X78.692Y-208.88
X78.692Y-209.98
X78.692Y-211.08
X78.692Y-212.18
X78.692Y-213.28
X79.93Y-136.53
X79.93Y-137.63
X79.93Y-138.73
X79.93Y-139.83
X79.93Y-140.93
X79.93Y-142.03
X79.93Y-160.28
X79.93Y-161.38
X79.93Y-162.48
X79.93Y-163.58
X79.93Y-164.68
X79.93Y-165.78
X79.93Y-184.03
X79.93Y-185.13
X79.93Y-186.23
X79.93Y-187.33
X79.93Y-188.43
X79.93Y-189.53
X79.93Y-207.78
X79.93Y-208.88
X79.93Y-209.98
X79.93Y-211.08
X79.93Y-212.18
X79.93Y-213.28
X81.167Y-136.53
X81.167Y-137.63
X81.167Y-138.73
X81.167Y-139.83
X81.167Y-140.93
X81.167Y-142.03
X81.167Y-160.28
X81.167Y-161.38
X81.167Y-162.48
X81.167Y-163.58
X81.167Y-164.68
X81.167Y-165.78
X81.167Y-184.03
X81.167Y-185.13
X81.167Y-186.23
X81.167Y-187.33
X81.167Y-188.43
X81.167Y-189.53
X81.167Y-207.78
X81.167Y-208.88
X81.167Y-209.98
X81.167Y-211.08
X81.167Y-212.18
X81.167Y-213.28
X82.405Y-136.53
X82.405Y-137.63
X82.405Y-138.73
X82.405Y-139.83
X82.405Y-140.93
X82.405Y-142.03
X82.405Y-160.28
X82.405Y-161.38
X82.405Y-162.48
X82.405Y-163.58
X82.405Y-164.68
X82.405Y-165.78
X82.405Y-184.03
X82.405Y-185.13
X82.405Y-186.23
X82.405Y-187.33
X82.405Y-188.43
X82.405Y-189.53
X82.405Y-207.78
X82.405Y-208.88
X82.405Y-209.98
X82.405Y-211.08
X82.405Y-212.18
X82.405Y-213.28
X83.642Y-136.53
X83.642Y-137.63
X83.642Y-138.73
X83.642Y-139.83
X83.642Y-140.93
X83.642Y-142.03
X83.642Y-160.28
X83.642Y-161.38
X83.642Y-162.48
X83.642Y-163.58
X83.642Y-164.68
X83.642Y-165.78
X83.642Y-184.03
X83.642Y-185.13
X83.642Y-186.23
X83.642Y-187.33
X83.642Y-188.43
X83.642Y-189.53
X83.642Y-207.78
X83.642Y-208.88
X83.642Y-209.98
X83.642Y-211.08
X83.642Y-212.18
X83.642Y-213.28
X84.88Y-136.53
X84.88Y-137.63
X84.88Y-138.73
X84.88Y-139.83
X84.88Y-140.93
X84.88Y-142.03
X84.88Y-160.28
X84.88Y-161.38
X84.88Y-162.48
X84.88Y-163.58
X84.88Y-164.68
X84.88Y-165.78
X84.88Y-184.03
X84.88Y-185.13
X84.88Y-186.23
X84.88Y-187.33
X84.88Y-188.43
X84.88Y-189.53
X84.88Y-207.78
X84.88Y-208.88
X84.88Y-209.98
X84.88Y-211.08
X84.88Y-212.18
X84.88Y-213.28
X86.117Y-136.53
X86.117Y-137.63
X86.117Y-138.73
X86.117Y-139.83
X86.117Y-140.93
X86.117Y-142.03
X86.117Y-160.28
X86.117Y-161.38
X86.117Y-162.48
X86.117Y-163.58
X86.117Y-164.68
X86.117Y-165.78
X86.117Y-184.03
X86.117Y-185.13
X86.117Y-186.23
X86.117Y-187.33
X86.117Y-188.43
X86.117Y-189.53
X86.117Y-207.78
X86.117Y-208.88
X86.117Y-209.98
X86.117Y-211.08
X86.117Y-212.18
X86.117Y-213.28
X87.355Y-136.53
X87.355Y-137.63
X87.355Y-138.73
X87.355Y-139.83
X87.355Y-140.93
X87.355Y-142.03
X87.355Y-160.28
X87.355Y-161.38
X87.355Y-162.48
X87.355Y-163.58
X87.355Y-164.68
X87.355Y-165.78
X87.355Y-184.03
X87.355Y-185.13
X87.355Y-186.23
X87.355Y-187.33
X87.355Y-188.43
X87.355Y-189.53
X87.355Y-207.78
X87.355Y-208.88
X87.355Y-209.98
X87.355Y-211.08
X87.355Y-212.18
X87.355Y-213.28
X88.593Y-136.53
X88.593Y-137.63
X88.593Y-138.73
X88.593Y-139.83
X88.593Y-140.93
X88.593Y-142.03
X88.593Y-160.28
X88.593Y-161.38
X88.593Y-162.48
X88.593Y-163.58
X88.593Y-164.68
X88.593Y-165.78
X88.593Y-184.03
X88.593Y-185.13
X88.593Y-186.23
X88.593Y-187.33
X88.593Y-188.43
X88.593Y-189.53
X88.593Y-207.78
X88.593Y-208.88
X88.593Y-209.98
X88.593Y-211.08
X88.593Y-212.18
X88.593Y-213.28
X89.83Y-136.53
X89.83Y-137.63
X89.83Y-140.93
X89.83Y-142.03
X89.83Y-160.28
X89.83Y-161.38
X89.83Y-164.68
X89.83Y-165.78
X89.83Y-184.03
X89.83Y-185.13
X89.83Y-188.43
X89.83Y-189.53
X89.83Y-207.78
X89.83Y-208.88
X89.83Y-212.18
X89.83Y-213.28
X91.067Y-136.53
X91.067Y-137.63
X91.067Y-140.93
X91.067Y-142.03
X91.067Y-160.28
X91.067Y-161.38
X91.067Y-164.68
X91.067Y-165.78
X91.067Y-184.03
X91.067Y-185.13
X91.067Y-188.43
X91.067Y-189.53
X91.067Y-207.78
X91.067Y-208.88
X91.067Y-212.18
X91.067Y-213.28
X92.305Y-136.53
X92.305Y-137.63
X92.305Y-138.73
X92.305Y-139.83
X92.305Y-140.93
X92.305Y-142.03
X92.305Y-160.28
X92.305Y-161.38
X92.305Y-162.48
X92.305Y-163.58
X92.305Y-164.68
X92.305Y-165.78
X92.305Y-184.03
X92.305Y-185.13
X92.305Y-186.23
X92.305Y-187.33
X92.305Y-188.43
X92.305Y-189.53
X92.305Y-207.78
X92.305Y-208.88
X92.305Y-209.98
X92.305Y-211.08
X92.305Y-212.18
X92.305Y-213.28
X93.542Y-136.53
X93.542Y-137.63
X93.542Y-138.73
X93.542Y-139.83
X93.542Y-140.93
X93.542Y-142.03
X93.542Y-160.28
X93.542Y-161.38
X93.542Y-162.48
X93.542Y-163.58
X93.542Y-164.68
X93.542Y-165.78
X93.542Y-184.03
X93.542Y-185.13
X93.542Y-186.23
X93.542Y-187.33
X93.542Y-188.43
X93.542Y-189.53
X93.542Y-207.78
X93.542Y-208.88
X93.542Y-209.98
X93.542Y-211.08
X93.542Y-212.18
X93.542Y-213.28
X94.78Y-136.53
X94.78Y-137.63
X94.78Y-138.73
X94.78Y-139.83
X94.78Y-140.93
X94.78Y-142.03
X94.78Y-160.28
X94.78Y-161.38
X94.78Y-162.48
X94.78Y-163.58
X94.78Y-164.68
X94.78Y-165.78
X94.78Y-184.03
X94.78Y-185.13
X94.78Y-186.23
X94.78Y-187.33
X94.78Y-188.43
X94.78Y-189.53
X94.78Y-207.78
X94.78Y-208.88
X94.78Y-209.98
X94.78Y-211.08
X94.78Y-212.18
X94.78Y-213.28
X96.017Y-136.53
X96.017Y-137.63
X96.017Y-138.73
X96.017Y-139.83
X96.017Y-140.93
X96.017Y-142.03
X96.017Y-160.28
X96.017Y-161.38
X96.017Y-162.48
X96.017Y-163.58
X96.017Y-164.68
X96.017Y-165.78
X96.017Y-184.03
X96.017Y-185.13
X96.017Y-186.23
X96.017Y-187.33
X96.017Y-188.43
X96.017Y-189.53
X96.017Y-207.78
X96.017Y-208.88
X96.017Y-209.98
X96.017Y-211.08
X96.017Y-212.18
X96.017Y-213.28
X97.255Y-136.53
X97.255Y-142.03
X97.255Y-160.28
X97.255Y-165.78
X97.255Y-184.03
X97.255Y-189.53
X97.255Y-207.78
X97.255Y-213.28
X98.492Y-136.53
X98.492Y-142.03
X98.492Y-160.28
X98.492Y-165.78
X98.492Y-184.03
X98.492Y-189.53
X98.492Y-207.78
X98.492Y-213.28
X99.73Y-136.53
X99.73Y-137.63
X99.73Y-140.93
X99.73Y-142.03
X99.73Y-160.28
X99.73Y-161.38
X99.73Y-164.68
X99.73Y-165.78
X99.73Y-184.03
X99.73Y-185.13
X99.73Y-188.43
X99.73Y-189.53
X99.73Y-207.78
X99.73Y-208.88
X99.73Y-212.18
X99.73Y-213.28
X100.968Y-136.53
X100.968Y-137.63
X100.968Y-138.73
X100.968Y-139.83
X100.968Y-140.93
X100.968Y-142.03
X100.968Y-160.28
X100.968Y-161.38
X100.968Y-162.48
X100.968Y-163.58
X100.968Y-164.68
X100.968Y-165.78
X100.968Y-184.03
X100.968Y-185.13
X100.968Y-186.23
X100.968Y-187.33
X100.968Y-188.43
X100.968Y-189.53
X100.968Y-207.78
X100.968Y-208.88
X100.968Y-209.98
X100.968Y-211.08
X100.968Y-212.18
X100.968Y-213.28
X102.205Y-136.53
X102.205Y-137.63
X102.205Y-138.73
X102.205Y-139.83
X102.205Y-140.93
X102.205Y-142.03
X102.205Y-160.28
X102.205Y-161.38
X102.205Y-162.48
X102.205Y-163.58
X102.205Y-164.68
X102.205Y-165.78
X102.205Y-184.03
X102.205Y-185.13
X102.205Y-186.23
X102.205Y-187.33
X102.205Y-188.43
X102.205Y-189.53
X102.205Y-207.78
X102.205Y-208.88
X102.205Y-209.98
X102.205Y-211.08
X102.205Y-212.18
X102.205Y-213.28
X103.442Y-136.53
X103.442Y-137.63
X103.442Y-138.73
X103.442Y-139.83
X103.442Y-140.93
X103.442Y-142.03
X103.442Y-160.28
X103.442Y-161.38
X103.442Y-162.48
X103.442Y-163.58
X103.442Y-164.68
X103.442Y-165.78
X103.442Y-184.03
X103.442Y-185.13
X103.442Y-186.23
X103.442Y-187.33
X103.442Y-188.43
X103.442Y-189.53
X103.442Y-207.78
X103.442Y-208.88
X103.442Y-209.98
X103.442Y-211.08
X103.442Y-212.18
X103.442Y-213.28
X104.68Y-138.73
X104.68Y-139.83
X104.68Y-162.48
X104.68Y-163.58
X104.68Y-186.23
X104.68Y-187.33
X104.68Y-209.98
X104.68Y-211.08
X145.22Y-87.25
X147.058Y-84.5
X147.058Y-90.0
X148.295Y-84.5
X148.295Y-85.6
X148.295Y-88.9
X148.295Y-90.0
X148.44Y-138.73
X148.44Y-139.83
X148.44Y-162.48
X148.44Y-163.58
X148.44Y-186.23
X148.44Y-187.33
X148.44Y-209.98
X148.44Y-211.08
X149.532Y-84.5
X149.532Y-85.6
X149.532Y-86.7
X149.532Y-87.8
X149.532Y-88.9
X149.532Y-90.0
X149.677Y-136.53
X149.677Y-137.63
X149.677Y-138.73
X149.677Y-139.83
X149.677Y-140.93
X149.677Y-142.03
X149.677Y-160.28
X149.677Y-161.38
X149.677Y-162.48
X149.677Y-163.58
X149.677Y-164.68
X149.677Y-165.78
X149.677Y-184.03
X149.677Y-185.13
X149.677Y-186.23
X149.677Y-187.33
X149.677Y-188.43
X149.677Y-189.53
X149.677Y-207.78
X149.677Y-208.88
X149.677Y-209.98
X149.677Y-211.08
X149.677Y-212.18
X149.677Y-213.28
X150.77Y-84.5
X150.77Y-85.6
X150.77Y-86.7
X150.77Y-87.8
X150.77Y-88.9
X150.77Y-90.0
X150.915Y-136.53
X150.915Y-137.63
X150.915Y-138.73
X150.915Y-139.83
X150.915Y-140.93
X150.915Y-142.03
X150.915Y-160.28
X150.915Y-161.38
X150.915Y-162.48
X150.915Y-163.58
X150.915Y-164.68
X150.915Y-165.78
X150.915Y-184.03
X150.915Y-185.13
X150.915Y-186.23
X150.915Y-187.33
X150.915Y-188.43
X150.915Y-189.53
X150.915Y-207.78
X150.915Y-208.88
X150.915Y-209.98
X150.915Y-211.08
X150.915Y-212.18
X150.915Y-213.28
X152.007Y-84.5
X152.007Y-85.6
X152.007Y-86.7
X152.007Y-87.8
X152.007Y-88.9
X152.007Y-90.0
X152.153Y-136.53
X152.153Y-137.63
X152.153Y-138.73
X152.153Y-139.83
X152.153Y-140.93
X152.153Y-142.03
X152.153Y-160.28
X152.153Y-161.38
X152.153Y-162.48
X152.153Y-163.58
X152.153Y-164.68
X152.153Y-165.78
X152.153Y-184.03
X152.153Y-185.13
X152.153Y-186.23
X152.153Y-187.33
X152.153Y-188.43
X152.153Y-189.53
X152.153Y-207.78
X152.153Y-208.88
X152.153Y-209.98
X152.153Y-211.08
X152.153Y-212.18
X152.153Y-213.28
X153.245Y-84.5
X153.245Y-85.6
X153.245Y-86.7
X153.245Y-87.8
X153.245Y-88.9
X153.245Y-90.0
X153.39Y-136.53
X153.39Y-137.63
X153.39Y-140.93
X153.39Y-142.03
X153.39Y-160.28
X153.39Y-161.38
X153.39Y-164.68
X153.39Y-165.78
X153.39Y-184.03
X153.39Y-185.13
X153.39Y-188.43
X153.39Y-189.53
X153.39Y-207.78
X153.39Y-208.88
X153.39Y-212.18
X153.39Y-213.28
X154.482Y-84.5
X154.482Y-85.6
X154.482Y-86.7
X154.482Y-87.8
X154.482Y-88.9
X154.482Y-90.0
X154.627Y-136.53
X154.627Y-142.03
X154.627Y-160.28
X154.627Y-165.78
X154.627Y-184.03
X154.627Y-189.53
X154.627Y-207.78
X154.627Y-213.28
X155.72Y-84.5
X155.72Y-85.6
X155.72Y-86.7
X155.72Y-87.8
X155.72Y-88.9
X155.72Y-90.0
X155.865Y-136.53
X155.865Y-142.03
X155.865Y-160.28
X155.865Y-165.78
X155.865Y-184.03
X155.865Y-189.53
X155.865Y-207.78
X155.865Y-213.28
X156.957Y-84.5
X156.957Y-85.6
X156.957Y-86.7
X156.957Y-87.8
X156.957Y-88.9
X156.957Y-90.0
X157.102Y-136.53
X157.102Y-137.63
X157.102Y-138.73
X157.102Y-139.83
X157.102Y-140.93
X157.102Y-142.03
X157.102Y-160.28
X157.102Y-161.38
X157.102Y-162.48
X157.102Y-163.58
X157.102Y-164.68
X157.102Y-165.78
X157.102Y-184.03
X157.102Y-185.13
X157.102Y-186.23
X157.102Y-187.33
X157.102Y-188.43
X157.102Y-189.53
X157.102Y-207.78
X157.102Y-208.88
X157.102Y-209.98
X157.102Y-211.08
X157.102Y-212.18
X157.102Y-213.28
X158.195Y-84.5
X158.195Y-85.6
X158.195Y-86.7
X158.195Y-87.8
X158.195Y-88.9
X158.195Y-90.0
X158.34Y-136.53
X158.34Y-137.63
X158.34Y-138.73
X158.34Y-139.83
X158.34Y-140.93
X158.34Y-142.03
X158.34Y-160.28
X158.34Y-161.38
X158.34Y-162.48
X158.34Y-163.58
X158.34Y-164.68
X158.34Y-165.78
X158.34Y-184.03
X158.34Y-185.13
X158.34Y-186.23
X158.34Y-187.33
X158.34Y-188.43
X158.34Y-189.53
X158.34Y-207.78
X158.34Y-208.88
X158.34Y-209.98
X158.34Y-211.08
X158.34Y-212.18
X158.34Y-213.28
X159.433Y-84.5
X159.433Y-85.6
X159.433Y-86.7
X159.433Y-87.8
X159.433Y-88.9
X159.433Y-90.0
X159.577Y-136.53
X159.577Y-137.63
X159.577Y-138.73
X159.577Y-139.83
X159.577Y-140.93
X159.577Y-142.03
X159.577Y-160.28
X159.577Y-161.38
X159.577Y-162.48
X159.577Y-163.58
X159.577Y-164.68
X159.577Y-165.78
X159.577Y-184.03
X159.577Y-185.13
X159.577Y-186.23
X159.577Y-187.33
X159.577Y-188.43
X159.577Y-189.53
X159.577Y-207.78
X159.577Y-208.88
X159.577Y-209.98
X159.577Y-211.08
X159.577Y-212.18
X159.577Y-213.28
X160.67Y-84.5
X160.67Y-85.6
X160.67Y-88.9
X160.67Y-90.0
X160.815Y-136.53
X160.815Y-137.63
X160.815Y-138.73
X160.815Y-139.83
X160.815Y-140.93
X160.815Y-142.03
X160.815Y-160.28
X160.815Y-161.38
X160.815Y-162.48
X160.815Y-163.58
X160.815Y-164.68
X160.815Y-165.78
X160.815Y-184.03
X160.815Y-185.13
X160.815Y-186.23
X160.815Y-187.33
X160.815Y-188.43
X160.815Y-189.53
X160.815Y-207.78
X160.815Y-208.88
X160.815Y-209.98
X160.815Y-211.08
X160.815Y-212.18
X160.815Y-213.28
X161.907Y-84.5
X161.907Y-85.6
X161.907Y-88.9
X161.907Y-90.0
X162.052Y-136.53
X162.052Y-137.63
X162.052Y-140.93
X162.052Y-142.03
X162.052Y-160.28
X162.052Y-161.38
X162.052Y-164.68
X162.052Y-165.78
X162.052Y-184.03
X162.052Y-185.13
X162.052Y-188.43
X162.052Y-189.53
X162.052Y-207.78
X162.052Y-208.88
X162.052Y-212.18
X162.052Y-213.28
X163.145Y-84.5
X163.145Y-85.6
X163.145Y-86.7
X163.145Y-87.8
X163.145Y-88.9
X163.145Y-90.0
X163.29Y-136.53
X163.29Y-137.63
X163.29Y-140.93
X163.29Y-142.03
X163.29Y-160.28
X163.29Y-161.38
X163.29Y-164.68
X163.29Y-165.78
X163.29Y-184.03
X163.29Y-185.13
X163.29Y-188.43
X163.29Y-189.53
X163.29Y-207.78
X163.29Y-208.88
X163.29Y-212.18
X163.29Y-213.28
X164.382Y-84.5
X164.382Y-85.6
X164.382Y-86.7
X164.382Y-87.8
X164.382Y-88.9
X164.382Y-90.0
X164.528Y-136.53
X164.528Y-137.63
X164.528Y-138.73
X164.528Y-139.83
X164.528Y-140.93
X164.528Y-142.03
X164.528Y-160.28
X164.528Y-161.38
X164.528Y-162.48
X164.528Y-163.58
X164.528Y-164.68
X164.528Y-165.78
X164.528Y-184.03
X164.528Y-185.13
X164.528Y-186.23
X164.528Y-187.33
X164.528Y-188.43
X164.528Y-189.53
X164.528Y-207.78
X164.528Y-208.88
X164.528Y-209.98
X164.528Y-211.08
X164.528Y-212.18
X164.528Y-213.28
X165.62Y-84.5
X165.62Y-85.6
X165.62Y-86.7
X165.62Y-87.8
X165.62Y-88.9
X165.62Y-90.0
X165.765Y-136.53
X165.765Y-137.63
X165.765Y-138.73
X165.765Y-139.83
X165.765Y-140.93
X165.765Y-142.03
X165.765Y-160.28
X165.765Y-161.38
X165.765Y-162.48
X165.765Y-163.58
X165.765Y-164.68
X165.765Y-165.78
X165.765Y-184.03
X165.765Y-185.13
X165.765Y-186.23
X165.765Y-187.33
X165.765Y-188.43
X165.765Y-189.53
X165.765Y-207.78
X165.765Y-208.88
X165.765Y-209.98
X165.765Y-211.08
X165.765Y-212.18
X165.765Y-213.28
X166.857Y-84.5
X166.857Y-85.6
X166.857Y-86.7
X166.857Y-87.8
X166.857Y-88.9
X166.857Y-90.0
X167.002Y-136.53
X167.002Y-137.63
X167.002Y-138.73
X167.002Y-139.83
X167.002Y-140.93
X167.002Y-142.03
X167.002Y-160.28
X167.002Y-161.38
X167.002Y-162.48
X167.002Y-163.58
X167.002Y-164.68
X167.002Y-165.78
X167.002Y-184.03
X167.002Y-185.13
X167.002Y-186.23
X167.002Y-187.33
X167.002Y-188.43
X167.002Y-189.53
X167.002Y-207.78
X167.002Y-208.88
X167.002Y-209.98
X167.002Y-211.08
X167.002Y-212.18
X167.002Y-213.28
X168.095Y-84.5
X168.095Y-90.0
X168.24Y-136.53
X168.24Y-137.63
X168.24Y-138.73
X168.24Y-139.83
X168.24Y-140.93
X168.24Y-142.03
X168.24Y-160.28
X168.24Y-161.38
X168.24Y-162.48
X168.24Y-163.58
X168.24Y-164.68
X168.24Y-165.78
X168.24Y-184.03
X168.24Y-185.13
X168.24Y-186.23
X168.24Y-187.33
X168.24Y-188.43
X168.24Y-189.53
X168.24Y-207.78
X168.24Y-208.88
X168.24Y-209.98
X168.24Y-211.08
X168.24Y-212.18
X168.24Y-213.28
X169.332Y-84.5
X169.332Y-90.0
X169.477Y-136.53
X169.477Y-137.63
X169.477Y-138.73
X169.477Y-139.83
X169.477Y-140.93
X169.477Y-142.03
X169.477Y-160.28
X169.477Y-161.38
X169.477Y-162.48
X169.477Y-163.58
X169.477Y-164.68
X169.477Y-165.78
X169.477Y-184.03
X169.477Y-185.13
X169.477Y-186.23
X169.477Y-187.33
X169.477Y-188.43
X169.477Y-189.53
X169.477Y-207.78
X169.477Y-208.88
X169.477Y-209.98
X169.477Y-211.08
X169.477Y-212.18
X169.477Y-213.28
X170.57Y-84.5
X170.57Y-85.6
X170.57Y-88.9
X170.57Y-90.0
X170.715Y-136.53
X170.715Y-137.63
X170.715Y-138.73
X170.715Y-139.83
X170.715Y-140.93
X170.715Y-142.03
X170.715Y-160.28
X170.715Y-161.38
X170.715Y-162.48
X170.715Y-163.58
X170.715Y-164.68
X170.715Y-165.78
X170.715Y-184.03
X170.715Y-185.13
X170.715Y-186.23
X170.715Y-187.33
X170.715Y-188.43
X170.715Y-189.53
X170.715Y-207.78
X170.715Y-208.88
X170.715Y-209.98
X170.715Y-211.08
X170.715Y-212.18
X170.715Y-213.28
X171.808Y-84.5
X171.808Y-85.6
X171.808Y-86.7
X171.808Y-87.8
X171.808Y-88.9
X171.808Y-90.0
X171.952Y-136.53
X171.952Y-137.63
X171.952Y-138.73
X171.952Y-139.83
X171.952Y-140.93
X171.952Y-142.03
X171.952Y-160.28
X171.952Y-161.38
X171.952Y-162.48
X171.952Y-163.58
X171.952Y-164.68
X171.952Y-165.78
X171.952Y-184.03
X171.952Y-185.13
X171.952Y-186.23
X171.952Y-187.33
X171.952Y-188.43
X171.952Y-189.53
X171.952Y-207.78
X171.952Y-208.88
X171.952Y-209.98
X171.952Y-211.08
X171.952Y-212.18
X171.952Y-213.28
X173.045Y-84.5
X173.045Y-85.6
X173.045Y-86.7
X173.045Y-87.8
X173.045Y-88.9
X173.045Y-90.0
X173.19Y-136.53
X173.19Y-137.63
X173.19Y-138.73
X173.19Y-139.83
X173.19Y-140.93
X173.19Y-142.03
X173.19Y-160.28
X173.19Y-161.38
X173.19Y-162.48
X173.19Y-163.58
X173.19Y-164.68
X173.19Y-165.78
X173.19Y-184.03
X173.19Y-185.13
X173.19Y-186.23
X173.19Y-187.33
X173.19Y-188.43
X173.19Y-189.53
X173.19Y-207.78
X173.19Y-208.88
X173.19Y-209.98
X173.19Y-211.08
X173.19Y-212.18
X173.19Y-213.28
X174.282Y-84.5
X174.282Y-85.6
X174.282Y-86.7
X174.282Y-87.8
X174.282Y-88.9
X174.282Y-90.0
X174.427Y-136.53
X174.427Y-137.63
X174.427Y-138.73
X174.427Y-139.83
X174.427Y-140.93
X174.427Y-142.03
X174.427Y-160.28
X174.427Y-161.38
X174.427Y-162.48
X174.427Y-163.58
X174.427Y-164.68
X174.427Y-165.78
X174.427Y-184.03
X174.427Y-185.13
X174.427Y-186.23
X174.427Y-187.33
X174.427Y-188.43
X174.427Y-189.53
X174.427Y-207.78
X174.427Y-208.88
X174.427Y-209.98
X174.427Y-211.08
X174.427Y-212.18
X174.427Y-213.28
X175.52Y-86.7
X175.52Y-87.8
X175.665Y-136.53
X175.665Y-137.63
X175.665Y-140.93
X175.665Y-142.03
X175.665Y-160.28
X175.665Y-161.38
X175.665Y-164.68
X175.665Y-165.78
X175.665Y-184.03
X175.665Y-185.13
X175.665Y-188.43
X175.665Y-189.53
X175.665Y-207.78
X175.665Y-208.88
X175.665Y-212.18
X175.665Y-213.28
X175.99Y-135.6
X175.99Y-143.109
X175.99Y-144.361
X175.99Y-145.612
X175.99Y-146.864
X175.99Y-148.115
X175.99Y-149.367
X175.99Y-150.618
X175.99Y-151.87
X175.99Y-153.121
X175.99Y-154.373
X175.99Y-155.624
X175.99Y-156.876
X175.99Y-158.127
X175.99Y-159.379
X175.99Y-166.888
X175.99Y-168.139
X175.99Y-169.391
X175.99Y-170.642
X175.99Y-171.894
X175.99Y-173.145
X175.99Y-174.397
X175.99Y-175.648
X175.99Y-176.9
X175.99Y-178.151
X175.99Y-179.403
X175.99Y-180.654
X175.99Y-181.906
X175.99Y-183.158
X175.99Y-190.667
X175.99Y-191.918
X175.99Y-193.17
X175.99Y-194.421
X175.99Y-195.673
X175.99Y-196.924
X175.99Y-198.176
X175.99Y-199.427
X175.99Y-200.679
X175.99Y-201.93
X175.99Y-203.182
X175.99Y-204.433
X175.99Y-205.685
X175.99Y-206.936
X175.99Y-214.445
X175.99Y-215.697
X175.99Y-216.948
X175.99Y-218.2
X176.46Y-221.45
X176.46Y-222.55
X176.46Y-223.65
X176.46Y-224.75
X176.903Y-136.53
X176.903Y-142.03
X176.903Y-160.28
X176.903Y-165.78
X176.903Y-184.03
X176.903Y-189.53
X176.903Y-207.78
X176.903Y-213.28
X177.09Y-135.6
X177.09Y-143.109
X177.09Y-144.361
X177.09Y-145.612
X177.09Y-146.864
X177.09Y-148.115
X177.09Y-149.367
X177.09Y-150.618
X177.09Y-151.87
X177.09Y-153.121
X177.09Y-154.373
X177.09Y-155.624
X177.09Y-156.876
X177.09Y-158.127
X177.09Y-159.379
X177.09Y-166.888
X177.09Y-168.139
X177.09Y-169.391
X177.09Y-170.642
X177.09Y-171.894
X177.09Y-173.145
X177.09Y-174.397
X177.09Y-175.648
X177.09Y-176.9
X177.09Y-178.151
X177.09Y-179.403
X177.09Y-180.654
X177.09Y-181.906
X177.09Y-183.158
X177.09Y-190.667
X177.09Y-191.918
X177.09Y-193.17
X177.09Y-194.421
X177.09Y-195.673
X177.09Y-196.924
X177.09Y-198.176
X177.09Y-199.427
X177.09Y-200.679
X177.09Y-201.93
X177.09Y-203.182
X177.09Y-204.433
X177.09Y-205.685
X177.09Y-206.936
X177.09Y-214.445
X177.09Y-215.697
X177.09Y-216.948
X177.09Y-218.2
X177.86Y-221.45
X177.86Y-222.55
X177.86Y-223.65
X177.86Y-224.75
X178.19Y-135.6
X178.19Y-143.109
X178.19Y-144.361
X178.19Y-145.612
X178.19Y-146.864
X178.19Y-148.115
X178.19Y-149.367
X178.19Y-150.618
X178.19Y-151.87
X178.19Y-153.121
X178.19Y-154.373
X178.19Y-155.624
X178.19Y-156.876
X178.19Y-158.127
X178.19Y-159.379
X178.19Y-166.888
X178.19Y-168.139
X178.19Y-169.391
X178.19Y-170.642
X178.19Y-171.894
X178.19Y-173.145
X178.19Y-174.397
X178.19Y-175.648
X178.19Y-176.9
X178.19Y-178.151
X178.19Y-179.403
X178.19Y-180.654
X178.19Y-181.906
X178.19Y-183.158
X178.19Y-190.667
X178.19Y-191.918
X178.19Y-193.17
X178.19Y-194.421
X178.19Y-195.673
X178.19Y-196.924
X178.19Y-198.176
X178.19Y-199.427
X178.19Y-200.679
X178.19Y-201.93
X178.19Y-203.182
X178.19Y-204.433
X178.19Y-205.685
X178.19Y-206.936
X178.19Y-214.445
X178.19Y-215.697
X178.19Y-216.948
X178.19Y-218.2
X178.74Y-139.28
X178.74Y-163.03
X178.74Y-186.78
X178.74Y-210.53
X179.26Y-219.25
X179.26Y-220.35
X179.26Y-221.45
X179.26Y-222.55
X179.26Y-223.65
X179.26Y-224.75
X179.29Y-135.6
X179.29Y-143.109
X179.29Y-144.361
X179.29Y-145.612
X179.29Y-146.864
X179.29Y-148.115
X179.29Y-149.367
X179.29Y-150.618
X179.29Y-151.87
X179.29Y-153.121
X179.29Y-154.373
X179.29Y-155.624
X179.29Y-156.876
X179.29Y-158.127
X179.29Y-159.379
X179.29Y-166.888
X179.29Y-168.139
X179.29Y-169.391
X179.29Y-170.642
X179.29Y-171.894
X179.29Y-173.145
X179.29Y-174.397
X179.29Y-175.648
X179.29Y-176.9
X179.29Y-178.151
X179.29Y-179.403
X179.29Y-180.654
X179.29Y-181.906
X179.29Y-183.158
X179.29Y-190.667
X179.29Y-191.918
X179.29Y-193.17
X179.29Y-194.421
X179.29Y-195.673
X179.29Y-196.924
X179.29Y-198.176
X179.29Y-199.427
X179.29Y-200.679
X179.29Y-201.93
X179.29Y-203.182
X179.29Y-204.433
X179.29Y-205.685
X179.29Y-206.936
X179.29Y-214.445
X179.29Y-215.697
X179.29Y-216.948
X179.29Y-218.2
X180.39Y-135.6
X180.39Y-143.109
X180.39Y-144.361
X180.39Y-145.612
X180.39Y-146.864
X180.39Y-148.115
X180.39Y-149.367
X180.39Y-150.618
X180.39Y-151.87
X180.39Y-153.121
X180.39Y-154.373
X180.39Y-155.624
X180.39Y-156.876
X180.39Y-158.127
X180.39Y-159.379
X180.39Y-166.888
X180.39Y-168.139
X180.39Y-169.391
X180.39Y-170.642
X180.39Y-171.894
X180.39Y-173.145
X180.39Y-174.397
X180.39Y-175.648
X180.39Y-176.9
X180.39Y-178.151
X180.39Y-179.403
X180.39Y-180.654
X180.39Y-181.906
X180.39Y-183.158
X180.39Y-190.667
X180.39Y-191.918
X180.39Y-193.17
X180.39Y-194.421
X180.39Y-195.673
X180.39Y-196.924
X180.39Y-198.176
X180.39Y-199.427
X180.39Y-200.679
X180.39Y-201.93
X180.39Y-203.182
X180.39Y-204.433
X180.39Y-205.685
X180.39Y-206.936
X180.39Y-214.445
X180.39Y-215.697
X180.39Y-216.948
X180.39Y-218.2
X180.66Y-219.25
X180.66Y-220.35
X180.66Y-221.45
X180.66Y-222.55
X180.66Y-223.65
X180.66Y-224.75
X181.49Y-135.6
X181.49Y-136.851
X181.49Y-141.858
X181.49Y-143.109
X181.49Y-144.361
X181.49Y-145.612
X181.49Y-146.864
X181.49Y-148.115
X181.49Y-149.367
X181.49Y-150.618
X181.49Y-151.87
X181.49Y-153.121
X181.49Y-154.373
X181.49Y-155.624
X181.49Y-156.876
X181.49Y-158.127
X181.49Y-159.379
X181.49Y-160.63
X181.49Y-165.636
X181.49Y-166.888
X181.49Y-168.139
X181.49Y-169.391
X181.49Y-170.642
X181.49Y-171.894
X181.49Y-173.145
X181.49Y-174.397
X181.49Y-175.648
X181.49Y-176.9
X181.49Y-178.151
X181.49Y-179.403
X181.49Y-180.654
X181.49Y-181.906
X181.49Y-183.158
X181.49Y-184.409
X181.49Y-189.415
X181.49Y-190.667
X181.49Y-191.918
X181.49Y-193.17
X181.49Y-194.421
X181.49Y-195.673
X181.49Y-196.924
X181.49Y-198.176
X181.49Y-199.427
X181.49Y-200.679
X181.49Y-201.93
X181.49Y-203.182
X181.49Y-204.433
X181.49Y-205.685
X181.49Y-206.936
X181.49Y-208.188
X181.49Y-213.194
X181.49Y-214.445
X181.49Y-215.697
X181.49Y-216.948
X181.49Y-218.2
X182.06Y-219.25
X182.06Y-224.75
X184.86Y-222.0
X213.25Y-135.6
X213.25Y-136.833
X213.25Y-141.766
X213.25Y-142.999
X213.25Y-144.232
X213.25Y-145.466
X213.25Y-146.699
X213.25Y-147.932
X213.25Y-149.165
X213.25Y-150.398
X213.25Y-151.632
X213.25Y-152.865
X213.25Y-154.098
X213.25Y-155.331
X213.25Y-156.564
X213.25Y-157.798
X213.25Y-159.031
X213.25Y-160.264
X213.25Y-165.197
X213.25Y-166.43
X213.25Y-183.38
X213.25Y-184.613
X213.25Y-189.544
X213.25Y-190.777
X213.25Y-192.01
X213.25Y-193.242
X213.25Y-194.475
X213.25Y-195.708
X213.25Y-196.941
X213.25Y-198.174
X213.25Y-199.406
X213.25Y-200.639
X213.25Y-201.872
X213.25Y-203.105
X213.25Y-204.338
X213.25Y-205.57
X213.25Y-206.803
X213.25Y-208.036
X213.25Y-212.967
X213.25Y-214.2
X214.35Y-135.6
X214.35Y-142.999
X214.35Y-144.232
X214.35Y-145.466
X214.35Y-146.699
X214.35Y-147.932
X214.35Y-149.165
X214.35Y-150.398
X214.35Y-151.632
X214.35Y-152.865
X214.35Y-154.098
X214.35Y-155.331
X214.35Y-156.564
X214.35Y-157.798
X214.35Y-159.031
X214.35Y-160.264
X214.35Y-166.43
X214.35Y-183.38
X214.35Y-189.544
X214.35Y-190.777
X214.35Y-192.01
X214.35Y-193.242
X214.35Y-194.475
X214.35Y-195.708
X214.35Y-196.941
X214.35Y-198.174
X214.35Y-199.406
X214.35Y-200.639
X214.35Y-201.872
X214.35Y-203.105
X214.35Y-204.338
X214.35Y-205.57
X214.35Y-206.803
X214.35Y-214.2
X215.45Y-135.6
X215.45Y-142.999
X215.45Y-144.232
X215.45Y-145.466
X215.45Y-146.699
X215.45Y-147.932
X215.45Y-149.165
X215.45Y-150.398
X215.45Y-151.632
X215.45Y-152.865
X215.45Y-154.098
X215.45Y-155.331
X215.45Y-156.564
X215.45Y-157.798
X215.45Y-159.031
X215.45Y-166.43
X215.45Y-183.38
X215.45Y-190.777
X215.45Y-192.01
X215.45Y-193.242
X215.45Y-194.475
X215.45Y-195.708
X215.45Y-196.941
X215.45Y-198.174
X215.45Y-199.406
X215.45Y-200.639
X215.45Y-201.872
X215.45Y-203.105
X215.45Y-204.338
X215.45Y-205.57
X215.45Y-206.803
X215.45Y-214.2
X216.0Y-139.28
X216.0Y-163.03
X216.0Y-186.78
X216.0Y-210.53
X216.55Y-135.6
X216.55Y-142.999
X216.55Y-144.232
X216.55Y-145.466
X216.55Y-146.699
X216.55Y-147.932
X216.55Y-149.165
X216.55Y-150.398
X216.55Y-151.632
X216.55Y-152.865
X216.55Y-154.098
X216.55Y-155.331
X216.55Y-156.564
X216.55Y-157.798
X216.55Y-159.031
X216.55Y-166.43
X216.55Y-183.38
X216.55Y-190.777
X216.55Y-192.01
X216.55Y-193.242
X216.55Y-194.475
X216.55Y-195.708
X216.55Y-196.941
X216.55Y-198.174
X216.55Y-199.406
X216.55Y-200.639
X216.55Y-201.872
X216.55Y-203.105
X216.55Y-204.338
X216.55Y-205.57
X216.55Y-206.803
X216.55Y-214.2
X217.65Y-135.6
X217.65Y-142.999
X217.65Y-144.232
X217.65Y-145.466
X217.65Y-146.699
X217.65Y-147.932
X217.65Y-149.165
X217.65Y-150.398
X217.65Y-151.632
X217.65Y-152.865
X217.65Y-154.098
X217.65Y-155.331
X217.65Y-156.564
X217.65Y-157.798
X217.65Y-159.031
X217.65Y-190.777
X217.65Y-192.01
X217.65Y-193.242
X217.65Y-194.475
X217.65Y-195.708
X217.65Y-196.941
X217.65Y-198.174
X217.65Y-199.406
X217.65Y-200.639
X217.65Y-201.872
X217.65Y-203.105
X217.65Y-204.338
X217.65Y-205.57
X217.65Y-206.803
X217.65Y-214.2
X217.837Y-136.53
X217.837Y-142.03
X217.837Y-160.28
X217.837Y-165.78
X217.837Y-184.03
X217.837Y-189.53
X217.837Y-207.78
X217.837Y-213.28
X218.75Y-135.6
X218.75Y-142.999
X218.75Y-144.232
X218.75Y-145.466
X218.75Y-146.699
X218.75Y-147.932
X218.75Y-149.165
X218.75Y-150.398
X218.75Y-151.632
X218.75Y-152.865
X218.75Y-154.098
X218.75Y-155.331
X218.75Y-156.564
X218.75Y-157.798
X218.75Y-159.031
X218.75Y-190.777
X218.75Y-192.01
X218.75Y-193.242
X218.75Y-194.475
X218.75Y-195.708
X218.75Y-196.941
X218.75Y-198.174
X218.75Y-199.406
X218.75Y-200.639
X218.75Y-201.872
X218.75Y-203.105
X218.75Y-204.338
X218.75Y-205.57
X218.75Y-206.803
X218.75Y-214.2
X219.075Y-136.53
X219.075Y-137.63
X219.075Y-140.93
X219.075Y-142.03
X219.075Y-160.28
X219.075Y-161.38
X219.075Y-164.68
X219.075Y-165.78
X219.075Y-184.03
X219.075Y-185.13
X219.075Y-188.43
X219.075Y-189.53
X219.075Y-207.78
X219.075Y-208.88
X219.075Y-212.18
X219.075Y-213.28
X219.28Y-86.7
X219.28Y-87.8
X220.312Y-136.53
X220.312Y-137.63
X220.312Y-138.73
X220.312Y-139.83
X220.312Y-140.93
X220.312Y-142.03
X220.312Y-160.28
X220.312Y-161.38
X220.312Y-162.48
X220.312Y-163.58
X220.312Y-164.68
X220.312Y-165.78
X220.312Y-184.03
X220.312Y-185.13
X220.312Y-186.23
X220.312Y-187.33
X220.312Y-188.43
X220.312Y-189.53
X220.312Y-207.78
X220.312Y-208.88
X220.312Y-209.98
X220.312Y-211.08
X220.312Y-212.18
X220.312Y-213.28
X220.517Y-84.5
X220.517Y-85.6
X220.517Y-86.7
X220.517Y-87.8
X220.517Y-88.9
X220.517Y-90.0
X221.55Y-136.53
X221.55Y-137.63
X221.55Y-138.73
X221.55Y-139.83
X221.55Y-140.93
X221.55Y-142.03
X221.55Y-160.28
X221.55Y-161.38
X221.55Y-162.48
X221.55Y-163.58
X221.55Y-164.68
X221.55Y-165.78
X221.55Y-184.03
X221.55Y-185.13
X221.55Y-186.23
X221.55Y-187.33
X221.55Y-188.43
X221.55Y-189.53
X221.55Y-207.78
X221.55Y-208.88
X221.55Y-209.98
X221.55Y-211.08
X221.55Y-212.18
X221.55Y-213.28
X221.755Y-84.5
X221.755Y-85.6
X221.755Y-86.7
X221.755Y-87.8
X221.755Y-88.9
X221.755Y-90.0
X222.787Y-136.53
X222.787Y-137.63
X222.787Y-138.73
X222.787Y-139.83
X222.787Y-140.93
X222.787Y-142.03
X222.787Y-160.28
X222.787Y-161.38
X222.787Y-162.48
X222.787Y-163.58
X222.787Y-164.68
X222.787Y-165.78
X222.787Y-184.03
X222.787Y-185.13
X222.787Y-186.23
X222.787Y-187.33
X222.787Y-188.43
X222.787Y-189.53
X222.787Y-207.78
X222.787Y-208.88
X222.787Y-209.98
X222.787Y-211.08
X222.787Y-212.18
X222.787Y-213.28
X222.992Y-84.5
X222.992Y-85.6
X222.992Y-86.7
X222.992Y-87.8
X222.992Y-88.9
X222.992Y-90.0
X224.025Y-136.53
X224.025Y-137.63
X224.025Y-138.73
X224.025Y-139.83
X224.025Y-140.93
X224.025Y-142.03
X224.025Y-160.28
X224.025Y-161.38
X224.025Y-162.48
X224.025Y-163.58
X224.025Y-164.68
X224.025Y-165.78
X224.025Y-184.03
X224.025Y-185.13
X224.025Y-186.23
X224.025Y-187.33
X224.025Y-188.43
X224.025Y-189.53
X224.025Y-207.78
X224.025Y-208.88
X224.025Y-209.98
X224.025Y-211.08
X224.025Y-212.18
X224.025Y-213.28
X224.23Y-84.5
X224.23Y-85.6
X224.23Y-88.9
X224.23Y-90.0
X225.262Y-136.53
X225.262Y-137.63
X225.262Y-138.73
X225.262Y-139.83
X225.262Y-140.93
X225.262Y-142.03
X225.262Y-160.28
X225.262Y-161.38
X225.262Y-162.48
X225.262Y-163.58
X225.262Y-164.68
X225.262Y-165.78
X225.262Y-184.03
X225.262Y-185.13
X225.262Y-186.23
X225.262Y-187.33
X225.262Y-188.43
X225.262Y-189.53
X225.262Y-207.78
X225.262Y-208.88
X225.262Y-209.98
X225.262Y-211.08
X225.262Y-212.18
X225.262Y-213.28
X225.468Y-84.5
X225.468Y-90.0
X226.5Y-136.53
X226.5Y-137.63
X226.5Y-138.73
X226.5Y-139.83
X226.5Y-140.93
X226.5Y-142.03
X226.5Y-160.28
X226.5Y-161.38
X226.5Y-162.48
X226.5Y-163.58
X226.5Y-164.68
X226.5Y-165.78
X226.5Y-184.03
X226.5Y-185.13
X226.5Y-186.23
X226.5Y-187.33
X226.5Y-188.43
X226.5Y-189.53
X226.5Y-207.78
X226.5Y-208.88
X226.5Y-209.98
X226.5Y-211.08
X226.5Y-212.18
X226.5Y-213.28
X226.705Y-84.5
X226.705Y-90.0
X227.737Y-136.53
X227.737Y-137.63
X227.737Y-138.73
X227.737Y-139.83
X227.737Y-140.93
X227.737Y-142.03
X227.737Y-160.28
X227.737Y-161.38
X227.737Y-162.48
X227.737Y-163.58
X227.737Y-164.68
X227.737Y-165.78
X227.737Y-184.03
X227.737Y-185.13
X227.737Y-186.23
X227.737Y-187.33
X227.737Y-188.43
X227.737Y-189.53
X227.737Y-207.78
X227.737Y-208.88
X227.737Y-209.98
X227.737Y-211.08
X227.737Y-212.18
X227.737Y-213.28
X227.942Y-84.5
X227.942Y-85.6
X227.942Y-86.7
X227.942Y-87.8
X227.942Y-88.9
X227.942Y-90.0
X228.975Y-136.53
X228.975Y-137.63
X228.975Y-138.73
X228.975Y-139.83
X228.975Y-140.93
X228.975Y-142.03
X228.975Y-160.28
X228.975Y-161.38
X228.975Y-162.48
X228.975Y-163.58
X228.975Y-164.68
X228.975Y-165.78
X228.975Y-184.03
X228.975Y-185.13
X228.975Y-186.23
X228.975Y-187.33
X228.975Y-188.43
X228.975Y-189.53
X228.975Y-207.78
X228.975Y-208.88
X228.975Y-209.98
X228.975Y-211.08
X228.975Y-212.18
X228.975Y-213.28
X229.18Y-84.5
X229.18Y-85.6
X229.18Y-86.7
X229.18Y-87.8
X229.18Y-88.9
X229.18Y-90.0
X230.212Y-136.53
X230.212Y-137.63
X230.212Y-138.73
X230.212Y-139.83
X230.212Y-140.93
X230.212Y-142.03
X230.212Y-160.28
X230.212Y-161.38
X230.212Y-162.48
X230.212Y-163.58
X230.212Y-164.68
X230.212Y-165.78
X230.212Y-184.03
X230.212Y-185.13
X230.212Y-186.23
X230.212Y-187.33
X230.212Y-188.43
X230.212Y-189.53
X230.212Y-207.78
X230.212Y-208.88
X230.212Y-209.98
X230.212Y-211.08
X230.212Y-212.18
X230.212Y-213.28
X230.417Y-84.5
X230.417Y-85.6
X230.417Y-86.7
X230.417Y-87.8
X230.417Y-88.9
X230.417Y-90.0
X231.45Y-136.53
X231.45Y-137.63
X231.45Y-140.93
X231.45Y-142.03
X231.45Y-160.28
X231.45Y-161.38
X231.45Y-164.68
X231.45Y-165.78
X231.45Y-184.03
X231.45Y-185.13
X231.45Y-188.43
X231.45Y-189.53
X231.45Y-207.78
X231.45Y-208.88
X231.45Y-212.18
X231.45Y-213.28
X231.655Y-84.5
X231.655Y-85.6
X231.655Y-86.7
X231.655Y-87.8
X231.655Y-88.9
X231.655Y-90.0
X232.688Y-136.53
X232.688Y-137.63
X232.688Y-140.93
X232.688Y-142.03
X232.688Y-160.28
X232.688Y-161.38
X232.688Y-164.68
X232.688Y-165.78
X232.688Y-184.03
X232.688Y-185.13
X232.688Y-188.43
X232.688Y-189.53
X232.688Y-207.78
X232.688Y-208.88
X232.688Y-212.18
X232.688Y-213.28
X232.892Y-84.5
X232.892Y-85.6
X232.892Y-88.9
X232.892Y-90.0
X233.925Y-136.53
X233.925Y-137.63
X233.925Y-138.73
X233.925Y-139.83
X233.925Y-140.93
X233.925Y-142.03
X233.925Y-160.28
X233.925Y-161.38
X233.925Y-162.48
X233.925Y-163.58
X233.925Y-164.68
X233.925Y-165.78
X233.925Y-184.03
X233.925Y-185.13
X233.925Y-186.23
X233.925Y-187.33
X233.925Y-188.43
X233.925Y-189.53
X233.925Y-207.78
X233.925Y-208.88
X233.925Y-209.98
X233.925Y-211.08
X233.925Y-212.18
X233.925Y-213.28
X234.13Y-84.5
X234.13Y-85.6
X234.13Y-88.9
X234.13Y-90.0
X235.162Y-136.53
X235.162Y-137.63
X235.162Y-138.73
X235.162Y-139.83
X235.162Y-140.93
X235.162Y-142.03
X235.162Y-160.28
X235.162Y-161.38
X235.162Y-162.48
X235.162Y-163.58
X235.162Y-164.68
X235.162Y-165.78
X235.162Y-184.03
X235.162Y-185.13
X235.162Y-186.23
X235.162Y-187.33
X235.162Y-188.43
X235.162Y-189.53
X235.162Y-207.78
X235.162Y-208.88
X235.162Y-209.98
X235.162Y-211.08
X235.162Y-212.18
X235.162Y-213.28
X235.367Y-84.5
X235.367Y-85.6
X235.367Y-86.7
X235.367Y-87.8
X235.367Y-88.9
X235.367Y-90.0
X236.4Y-136.53
X236.4Y-137.63
X236.4Y-138.73
X236.4Y-139.83
X236.4Y-140.93
X236.4Y-142.03
X236.4Y-160.28
X236.4Y-161.38
X236.4Y-162.48
X236.4Y-163.58
X236.4Y-164.68
X236.4Y-165.78
X236.4Y-184.03
X236.4Y-185.13
X236.4Y-186.23
X236.4Y-187.33
X236.4Y-188.43
X236.4Y-189.53
X236.4Y-207.78
X236.4Y-208.88
X236.4Y-209.98
X236.4Y-211.08
X236.4Y-212.18
X236.4Y-213.28
X236.605Y-84.5
X236.605Y-85.6
X236.605Y-86.7
X236.605Y-87.8
X236.605Y-88.9
X236.605Y-90.0
X237.637Y-136.53
X237.637Y-137.63
X237.637Y-138.73
X237.637Y-139.83
X237.637Y-140.93
X237.637Y-142.03
X237.637Y-160.28
X237.637Y-161.38
X237.637Y-162.48
X237.637Y-163.58
X237.637Y-164.68
X237.637Y-165.78
X237.637Y-184.03
X237.637Y-185.13
X237.637Y-186.23
X237.637Y-187.33
X237.637Y-188.43
X237.637Y-189.53
X237.637Y-207.78
X237.637Y-208.88
X237.637Y-209.98
X237.637Y-211.08
X237.637Y-212.18
X237.637Y-213.28
X237.843Y-84.5
X237.843Y-85.6
X237.843Y-86.7
X237.843Y-87.8
X237.843Y-88.9
X237.843Y-90.0
X238.875Y-136.53
X238.875Y-142.03
X238.875Y-160.28
X238.875Y-165.78
X238.875Y-184.03
X238.875Y-189.53
X238.875Y-207.78
X238.875Y-213.28
X239.08Y-84.5
X239.08Y-85.6
X239.08Y-86.7
X239.08Y-87.8
X239.08Y-88.9
X239.08Y-90.0
X240.112Y-136.53
X240.112Y-142.03
X240.112Y-160.28
X240.112Y-165.78
X240.112Y-184.03
X240.112Y-189.53
X240.112Y-207.78
X240.112Y-213.28
X240.317Y-84.5
X240.317Y-85.6
X240.317Y-86.7
X240.317Y-87.8
X240.317Y-88.9
X240.317Y-90.0
X241.35Y-136.53
X241.35Y-137.63
X241.35Y-140.93
X241.35Y-142.03
X241.35Y-160.28
X241.35Y-161.38
X241.35Y-164.68
X241.35Y-165.78
X241.35Y-184.03
X241.35Y-185.13
X241.35Y-188.43
X241.35Y-189.53
X241.35Y-207.78
X241.35Y-208.88
X241.35Y-212.18
X241.35Y-213.28
X241.555Y-84.5
X241.555Y-85.6
X241.555Y-86.7
X241.555Y-87.8
X241.555Y-88.9
X241.555Y-90.0
X242.587Y-136.53
X242.587Y-137.63
X242.587Y-138.73
X242.587Y-139.83
X242.587Y-140.93
X242.587Y-142.03
X242.587Y-160.28
X242.587Y-161.38
X242.587Y-162.48
X242.587Y-163.58
X242.587Y-164.68
X242.587Y-165.78
X242.587Y-184.03
X242.587Y-185.13
X242.587Y-186.23
X242.587Y-187.33
X242.587Y-188.43
X242.587Y-189.53
X242.587Y-207.78
X242.587Y-208.88
X242.587Y-209.98
X242.587Y-211.08
X242.587Y-212.18
X242.587Y-213.28
X242.792Y-84.5
X242.792Y-85.6
X242.792Y-86.7
X242.792Y-87.8
X242.792Y-88.9
X242.792Y-90.0
X243.825Y-136.53
X243.825Y-137.63
X243.825Y-138.73
X243.825Y-139.83
X243.825Y-140.93
X243.825Y-142.03
X243.825Y-160.28
X243.825Y-161.38
X243.825Y-162.48
X243.825Y-163.58
X243.825Y-164.68
X243.825Y-165.78
X243.825Y-184.03
X243.825Y-185.13
X243.825Y-186.23
X243.825Y-187.33
X243.825Y-188.43
X243.825Y-189.53
X243.825Y-207.78
X243.825Y-208.88
X243.825Y-209.98
X243.825Y-211.08
X243.825Y-212.18
X243.825Y-213.28
X244.03Y-84.5
X244.03Y-85.6
X244.03Y-86.7
X244.03Y-87.8
X244.03Y-88.9
X244.03Y-90.0
X245.062Y-136.53
X245.062Y-137.63
X245.062Y-138.73
X245.062Y-139.83
X245.062Y-140.93
X245.062Y-142.03
X245.062Y-160.28
X245.062Y-161.38
X245.062Y-162.48
X245.062Y-163.58
X245.062Y-164.68
X245.062Y-165.78
X245.062Y-184.03
X245.062Y-185.13
X245.062Y-186.23
X245.062Y-187.33
X245.062Y-188.43
X245.062Y-189.53
X245.062Y-207.78
X245.062Y-208.88
X245.062Y-209.98
X245.062Y-211.08
X245.062Y-212.18
X245.062Y-213.28
X245.267Y-84.5
X245.267Y-85.6
X245.267Y-86.7
X245.267Y-87.8
X245.267Y-88.9
X245.267Y-90.0
X246.3Y-138.73
X246.3Y-139.83
X246.3Y-162.48
X246.3Y-163.58
X246.3Y-186.23
X246.3Y-187.33
X246.3Y-209.98
X246.3Y-211.08
X246.505Y-84.5
X246.505Y-85.6
X246.505Y-88.9
X246.505Y-90.0
X247.742Y-84.5
X247.742Y-90.0
X249.58Y-87.25
X290.06Y-138.73
X290.06Y-139.83
X290.06Y-162.48
X290.06Y-163.58
X290.06Y-186.23
X290.06Y-187.33
X290.06Y-209.98
X290.06Y-211.08
X291.298Y-136.53
X291.298Y-137.63
X291.298Y-138.73
X291.298Y-139.83
X291.298Y-140.93
X291.298Y-142.03
X291.298Y-160.28
X291.298Y-161.38
X291.298Y-162.48
X291.298Y-163.58
X291.298Y-164.68
X291.298Y-165.78
X291.298Y-184.03
X291.298Y-185.13
X291.298Y-186.23
X291.298Y-187.33
X291.298Y-188.43
X291.298Y-189.53
X291.298Y-207.78
X291.298Y-208.88
X291.298Y-209.98
X291.298Y-211.08
X291.298Y-212.18
X291.298Y-213.28
X292.535Y-136.53
X292.535Y-137.63
X292.535Y-138.73
X292.535Y-139.83
X292.535Y-140.93
X292.535Y-142.03
X292.535Y-160.28
X292.535Y-161.38
X292.535Y-162.48
X292.535Y-163.58
X292.535Y-164.68
X292.535Y-165.78
X292.535Y-184.03
X292.535Y-185.13
X292.535Y-186.23
X292.535Y-187.33
X292.535Y-188.43
X292.535Y-189.53
X292.535Y-207.78
X292.535Y-208.88
X292.535Y-209.98
X292.535Y-211.08
X292.535Y-212.18
X292.535Y-213.28
X293.772Y-136.53
X293.772Y-137.63
X293.772Y-138.73
X293.772Y-139.83
X293.772Y-140.93
X293.772Y-142.03
X293.772Y-160.28
X293.772Y-161.38
X293.772Y-162.48
X293.772Y-163.58
X293.772Y-164.68
X293.772Y-165.78
X293.772Y-184.03
X293.772Y-185.13
X293.772Y-186.23
X293.772Y-187.33
X293.772Y-188.43
X293.772Y-189.53
X293.772Y-207.78
X293.772Y-208.88
X293.772Y-209.98
X293.772Y-211.08
X293.772Y-212.18
X293.772Y-213.28
X295.01Y-136.53
X295.01Y-137.63
X295.01Y-140.93
X295.01Y-142.03
X295.01Y-160.28
X295.01Y-161.38
X295.01Y-164.68
X295.01Y-165.78
X295.01Y-184.03
X295.01Y-185.13
X295.01Y-188.43
X295.01Y-189.53
X295.01Y-207.78
X295.01Y-208.88
X295.01Y-212.18
X295.01Y-213.28
X296.248Y-136.53
X296.248Y-142.03
X296.248Y-160.28
X296.248Y-165.78
X296.248Y-184.03
X296.248Y-189.53
X296.248Y-207.78
X296.248Y-213.28
X297.485Y-136.53
X297.485Y-142.03
X297.485Y-160.28
X297.485Y-165.78
X297.485Y-184.03
X297.485Y-189.53
X297.485Y-207.78
X297.485Y-213.28
X298.722Y-136.53
X298.722Y-137.63
X298.722Y-138.73
X298.722Y-139.83
X298.722Y-140.93
X298.722Y-142.03
X298.722Y-160.28
X298.722Y-161.38
X298.722Y-162.48
X298.722Y-163.58
X298.722Y-164.68
X298.722Y-165.78
X298.722Y-184.03
X298.722Y-185.13
X298.722Y-186.23
X298.722Y-187.33
X298.722Y-188.43
X298.722Y-189.53
X298.722Y-207.78
X298.722Y-208.88
X298.722Y-209.98
X298.722Y-211.08
X298.722Y-212.18
X298.722Y-213.28
X299.96Y-136.53
X299.96Y-137.63
X299.96Y-138.73
X299.96Y-139.83
X299.96Y-140.93
X299.96Y-142.03
X299.96Y-160.28
X299.96Y-161.38
X299.96Y-162.48
X299.96Y-163.58
X299.96Y-164.68
X299.96Y-165.78
X299.96Y-184.03
X299.96Y-185.13
X299.96Y-186.23
X299.96Y-187.33
X299.96Y-188.43
X299.96Y-189.53
X299.96Y-207.78
X299.96Y-208.88
X299.96Y-209.98
X299.96Y-211.08
X299.96Y-212.18
X299.96Y-213.28
X301.197Y-136.53
X301.197Y-137.63
X301.197Y-138.73
X301.197Y-139.83
X301.197Y-140.93
X301.197Y-142.03
X301.197Y-160.28
X301.197Y-161.38
X301.197Y-162.48
X301.197Y-163.58
X301.197Y-164.68
X301.197Y-165.78
X301.197Y-184.03
X301.197Y-185.13
X301.197Y-186.23
X301.197Y-187.33
X301.197Y-188.43
X301.197Y-189.53
X301.197Y-207.78
X301.197Y-208.88
X301.197Y-209.98
X301.197Y-211.08
X301.197Y-212.18
X301.197Y-213.28
X302.435Y-136.53
X302.435Y-137.63
X302.435Y-138.73
X302.435Y-139.83
X302.435Y-140.93
X302.435Y-142.03
X302.435Y-160.28
X302.435Y-161.38
X302.435Y-162.48
X302.435Y-163.58
X302.435Y-164.68
X302.435Y-165.78
X302.435Y-184.03
X302.435Y-185.13
X302.435Y-186.23
X302.435Y-187.33
X302.435Y-188.43
X302.435Y-189.53
X302.435Y-207.78
X302.435Y-208.88
X302.435Y-209.98
X302.435Y-211.08
X302.435Y-212.18
X302.435Y-213.28
X303.673Y-136.53
X303.673Y-137.63
X303.673Y-140.93
X303.673Y-142.03
X303.673Y-160.28
X303.673Y-161.38
X303.673Y-164.68
X303.673Y-165.78
X303.673Y-184.03
X303.673Y-185.13
X303.673Y-188.43
X303.673Y-189.53
X303.673Y-207.78
X303.673Y-208.88
X303.673Y-212.18
X303.673Y-213.28
X304.91Y-136.53
X304.91Y-137.63
X304.91Y-140.93
X304.91Y-142.03
X304.91Y-160.28
X304.91Y-161.38
X304.91Y-164.68
X304.91Y-165.78
X304.91Y-184.03
X304.91Y-185.13
X304.91Y-188.43
X304.91Y-189.53
X304.91Y-207.78
X304.91Y-208.88
X304.91Y-212.18
X304.91Y-213.28
X306.147Y-136.53
X306.147Y-137.63
X306.147Y-138.73
X306.147Y-139.83
X306.147Y-140.93
X306.147Y-142.03
X306.147Y-160.28
X306.147Y-161.38
X306.147Y-162.48
X306.147Y-163.58
X306.147Y-164.68
X306.147Y-165.78
X306.147Y-184.03
X306.147Y-185.13
X306.147Y-186.23
X306.147Y-187.33
X306.147Y-188.43
X306.147Y-189.53
X306.147Y-207.78
X306.147Y-208.88
X306.147Y-209.98
X306.147Y-211.08
X306.147Y-212.18
X306.147Y-213.28
X307.385Y-136.53
X307.385Y-137.63
X307.385Y-138.73
X307.385Y-139.83
X307.385Y-140.93
X307.385Y-142.03
X307.385Y-160.28
X307.385Y-161.38
X307.385Y-162.48
X307.385Y-163.58
X307.385Y-164.68
X307.385Y-165.78
X307.385Y-184.03
X307.385Y-185.13
X307.385Y-186.23
X307.385Y-187.33
X307.385Y-188.43
X307.385Y-189.53
X307.385Y-207.78
X307.385Y-208.88
X307.385Y-209.98
X307.385Y-211.08
X307.385Y-212.18
X307.385Y-213.28
X308.623Y-136.53
X308.623Y-137.63
X308.623Y-138.73
X308.623Y-139.83
X308.623Y-140.93
X308.623Y-142.03
X308.623Y-160.28
X308.623Y-161.38
X308.623Y-162.48
X308.623Y-163.58
X308.623Y-164.68
X308.623Y-165.78
X308.623Y-184.03
X308.623Y-185.13
X308.623Y-186.23
X308.623Y-187.33
X308.623Y-188.43
X308.623Y-189.53
X308.623Y-207.78
X308.623Y-208.88
X308.623Y-209.98
X308.623Y-211.08
X308.623Y-212.18
X308.623Y-213.28
X309.86Y-136.53
X309.86Y-137.63
X309.86Y-138.73
X309.86Y-139.83
X309.86Y-140.93
X309.86Y-142.03
X309.86Y-160.28
X309.86Y-161.38
X309.86Y-162.48
X309.86Y-163.58
X309.86Y-164.68
X309.86Y-165.78
X309.86Y-184.03
X309.86Y-185.13
X309.86Y-186.23
X309.86Y-187.33
X309.86Y-188.43
X309.86Y-189.53
X309.86Y-207.78
X309.86Y-208.88
X309.86Y-209.98
X309.86Y-211.08
X309.86Y-212.18
X309.86Y-213.28
X311.097Y-136.53
X311.097Y-137.63
X311.097Y-138.73
X311.097Y-139.83
X311.097Y-140.93
X311.097Y-142.03
X311.097Y-160.28
X311.097Y-161.38
X311.097Y-162.48
X311.097Y-163.58
X311.097Y-164.68
X311.097Y-165.78
X311.097Y-184.03
X311.097Y-185.13
X311.097Y-186.23
X311.097Y-187.33
X311.097Y-188.43
X311.097Y-189.53
X311.097Y-207.78
X311.097Y-208.88
X311.097Y-209.98
X311.097Y-211.08
X311.097Y-212.18
X311.097Y-213.28
X312.335Y-136.53
X312.335Y-137.63
X312.335Y-138.73
X312.335Y-139.83
X312.335Y-140.93
X312.335Y-142.03
X312.335Y-160.28
X312.335Y-161.38
X312.335Y-162.48
X312.335Y-163.58
X312.335Y-164.68
X312.335Y-165.78
X312.335Y-184.03
X312.335Y-185.13
X312.335Y-186.23
X312.335Y-187.33
X312.335Y-188.43
X312.335Y-189.53
X312.335Y-207.78
X312.335Y-208.88
X312.335Y-209.98
X312.335Y-211.08
X312.335Y-212.18
X312.335Y-213.28
X313.572Y-136.53
X313.572Y-137.63
X313.572Y-138.73
X313.572Y-139.83
X313.572Y-140.93
X313.572Y-142.03
X313.572Y-160.28
X313.572Y-161.38
X313.572Y-162.48
X313.572Y-163.58
X313.572Y-164.68
X313.572Y-165.78
X313.572Y-184.03
X313.572Y-185.13
X313.572Y-186.23
X313.572Y-187.33
X313.572Y-188.43
X313.572Y-189.53
X313.572Y-207.78
X313.572Y-208.88
X313.572Y-209.98
X313.572Y-211.08
X313.572Y-212.18
X313.572Y-213.28
X314.81Y-136.53
X314.81Y-137.63
X314.81Y-138.73
X314.81Y-139.83
X314.81Y-140.93
X314.81Y-142.03
X314.81Y-160.28
X314.81Y-161.38
X314.81Y-162.48
X314.81Y-163.58
X314.81Y-164.68
X314.81Y-165.78
X314.81Y-184.03
X314.81Y-185.13
X314.81Y-186.23
X314.81Y-187.33
X314.81Y-188.43
X314.81Y-189.53
X314.81Y-207.78
X314.81Y-208.88
X314.81Y-209.98
X314.81Y-211.08
X314.81Y-212.18
X314.81Y-213.28
X316.048Y-136.53
X316.048Y-137.63
X316.048Y-138.73
X316.048Y-139.83
X316.048Y-140.93
X316.048Y-142.03
X316.048Y-160.28
X316.048Y-161.38
X316.048Y-162.48
X316.048Y-163.58
X316.048Y-164.68
X316.048Y-165.78
X316.048Y-184.03
X316.048Y-185.13
X316.048Y-186.23
X316.048Y-187.33
X316.048Y-188.43
X316.048Y-189.53
X316.048Y-207.78
X316.048Y-208.88
X316.048Y-209.98
X316.048Y-211.08
X316.048Y-212.18
X316.048Y-213.28
X317.285Y-136.53
X317.285Y-137.63
X317.285Y-140.93
X317.285Y-142.03
X317.285Y-160.28
X317.285Y-161.38
X317.285Y-164.68
X317.285Y-165.78
X317.285Y-184.03
X317.285Y-185.13
X317.285Y-188.43
X317.285Y-189.53
X317.285Y-207.78
X317.285Y-208.88
X317.285Y-212.18
X317.285Y-213.28
X317.61Y-167.267
X317.61Y-168.54
X317.61Y-169.813
X317.61Y-171.086
X317.61Y-172.359
X317.61Y-173.632
X317.61Y-174.905
X317.61Y-176.178
X317.61Y-177.451
X317.61Y-178.724
X317.61Y-179.997
X317.61Y-181.27
X317.61Y-182.542
X318.522Y-136.53
X318.522Y-142.03
X318.522Y-160.28
X318.522Y-165.78
X318.522Y-184.03
X318.522Y-189.53
X318.522Y-207.78
X318.522Y-213.28
X318.71Y-167.267
X318.71Y-168.54
X318.71Y-169.813
X318.71Y-171.086
X318.71Y-172.359
X318.71Y-173.632
X318.71Y-174.905
X318.71Y-176.178
X318.71Y-177.451
X318.71Y-178.724
X318.71Y-179.997
X318.71Y-181.27
X318.71Y-182.542
X319.81Y-159.63
X319.81Y-167.267
X319.81Y-168.54
X319.81Y-169.813
X319.81Y-171.086
X319.81Y-172.359
X319.81Y-173.632
X319.81Y-174.905
X319.81Y-176.178
X319.81Y-177.451
X319.81Y-178.724
X319.81Y-179.997
X319.81Y-181.27
X319.81Y-182.542
X319.81Y-190.18
X320.36Y-139.28
X320.36Y-163.03
X320.36Y-186.78
X320.36Y-210.53
X320.91Y-159.63
X320.91Y-167.267
X320.91Y-168.54
X320.91Y-169.813
X320.91Y-171.086
X320.91Y-172.359
X320.91Y-173.632
X320.91Y-174.905
X320.91Y-176.178
X320.91Y-177.451
X320.91Y-178.724
X320.91Y-179.997
X320.91Y-181.27
X320.91Y-182.542
X320.91Y-190.18
X322.01Y-159.63
X322.01Y-165.995
X322.01Y-167.267
X322.01Y-168.54
X322.01Y-169.813
X322.01Y-171.086
X322.01Y-172.359
X322.01Y-173.632
X322.01Y-174.905
X322.01Y-176.178
X322.01Y-177.451
X322.01Y-178.724
X322.01Y-179.997
X322.01Y-181.27
X322.01Y-182.542
X322.01Y-183.815
X322.01Y-190.18
X323.11Y-159.63
X323.11Y-160.903
X323.11Y-164.722
X323.11Y-165.995
X323.11Y-167.267
X323.11Y-168.54
X323.11Y-169.813
X323.11Y-171.086
X323.11Y-172.359
X323.11Y-173.632
X323.11Y-174.905
X323.11Y-176.178
X323.11Y-177.451
X323.11Y-178.724
X323.11Y-179.997
X323.11Y-181.27
X323.11Y-182.542
X323.11Y-183.815
X323.11Y-185.088
X323.11Y-188.907
X323.11Y-190.18
T2
X105.28Y-136.74
X105.28Y-141.82
X105.28Y-160.49
X105.28Y-165.57
X105.28Y-184.24
X105.28Y-189.32
X105.28Y-207.99
X105.28Y-213.07
X147.84Y-136.74
X147.84Y-141.82
X147.84Y-160.49
X147.84Y-165.57
X147.84Y-184.24
X147.84Y-189.32
X147.84Y-207.99
X147.84Y-213.07
X176.12Y-84.71
X176.12Y-89.79
X218.68Y-84.71
X218.68Y-89.79
X246.9Y-136.74
X246.9Y-141.82
X246.9Y-160.49
X246.9Y-165.57
X246.9Y-184.24
X246.9Y-189.32
X246.9Y-207.99
X246.9Y-213.07
X289.46Y-136.74
X289.46Y-141.82
X289.46Y-160.49
X289.46Y-165.57
X289.46Y-184.24
X289.46Y-189.32
X289.46Y-207.99
X289.46Y-213.07
T4
X90.45Y-139.28
X90.45Y-163.03
X90.45Y-186.78
X90.45Y-210.53
X161.29Y-87.25
X162.67Y-139.28
X162.67Y-163.03
X162.67Y-186.78
X162.67Y-210.53
X232.07Y-139.28
X232.07Y-163.03
X232.07Y-186.78
X232.07Y-210.53
X233.51Y-87.25
X304.29Y-139.28
X304.29Y-163.03
X304.29Y-186.78
X304.29Y-210.53
T5
X162.4Y-147.28
X162.4Y-171.03
X162.4Y-194.78
X162.4Y-218.53
X232.34Y-155.03
X232.34Y-202.53
X233.24Y-95.25
X304.02Y-147.28
X304.02Y-194.78
T6
X53.9Y-44.9
X53.9Y-144.9
X53.9Y-244.9
X197.4Y-44.9
X197.4Y-244.9
X340.9Y-44.9
X340.9Y-144.9
X340.9Y-244.9
T7
X98.96Y-147.28
X98.96Y-171.03
X98.96Y-194.78
X98.96Y-218.53
X154.16Y-131.28
X154.16Y-155.03
X154.16Y-178.78
X154.16Y-202.53
X169.8Y-95.25
X225.0Y-79.25
X240.58Y-147.28
X240.58Y-171.03
X240.58Y-194.78
X240.58Y-218.53
X295.78Y-131.28
X295.78Y-155.03
X295.78Y-178.78
X295.78Y-202.53
T3
X97.66Y-139.28G85X98.76Y-139.28
G05
X97.66Y-163.03G85X98.76Y-163.03
G05
X97.66Y-186.78G85X98.76Y-186.78
G05
X97.66Y-210.53G85X98.76Y-210.53
G05
X154.36Y-139.28G85X155.46Y-139.28
G05
X154.36Y-163.03G85X155.46Y-163.03
G05
X154.36Y-186.78G85X155.46Y-186.78
G05
X154.36Y-210.53G85X155.46Y-210.53
G05
X168.5Y-87.25G85X169.6Y-87.25
G05
X225.2Y-87.25G85X226.3Y-87.25
G05
X239.28Y-139.28G85X240.38Y-139.28
G05
X240.38Y-163.03G85X239.28Y-163.03
G05
X239.28Y-186.78G85X240.38Y-186.78
G05
X240.38Y-210.53G85X239.28Y-210.53
G05
X295.98Y-139.28G85X297.08Y-139.28
G05
X297.08Y-163.03G85X295.98Y-163.03
G05
X295.98Y-186.78G85X297.08Y-186.78
G05
X297.08Y-210.53G85X295.98Y-210.53
G05
M30
