%TF.GenerationSoftware,KiCad,Pcbnew,10.0.5*%
%TF.CreationDate,2026-09-14T19:52:50+05:30*%
%TF.ProjectId,ACIR_PCB,41434952-5f50-4434-922e-6b696361645f,rev?*%
%TF.SameCoordinates,Original*%
%TF.FileFunction,AssemblyDrawing,Top*%
%FSLAX46Y46*%
G04 Gerber Fmt 4.6, Leading zero omitted, Abs format (unit mm)*
G04 Created by KiCad (PCBNEW 10.0.5) date 2026-09-14 19:52:50*
%MOMM*%
%LPD*%
G01*
G04 APERTURE LIST*
%ADD10C,0.254000*%
%ADD11C,0.100000*%
%ADD12C,0.150000*%
%ADD13C,0.300000*%
%ADD14C,0.120000*%
%ADD15C,0.400000*%
%ADD16C,0.000000*%
G04 APERTURE END LIST*
D10*
X196402143Y-87159080D02*
X196583571Y-87219556D01*
X196583571Y-87219556D02*
X196644048Y-87280032D01*
X196644048Y-87280032D02*
X196704524Y-87400984D01*
X196704524Y-87400984D02*
X196704524Y-87582413D01*
X196704524Y-87582413D02*
X196644048Y-87703365D01*
X196644048Y-87703365D02*
X196583571Y-87763842D01*
X196583571Y-87763842D02*
X196462619Y-87824318D01*
X196462619Y-87824318D02*
X195978809Y-87824318D01*
X195978809Y-87824318D02*
X195978809Y-86554318D01*
X195978809Y-86554318D02*
X196402143Y-86554318D01*
X196402143Y-86554318D02*
X196523095Y-86614794D01*
X196523095Y-86614794D02*
X196583571Y-86675270D01*
X196583571Y-86675270D02*
X196644048Y-86796222D01*
X196644048Y-86796222D02*
X196644048Y-86917175D01*
X196644048Y-86917175D02*
X196583571Y-87038127D01*
X196583571Y-87038127D02*
X196523095Y-87098603D01*
X196523095Y-87098603D02*
X196402143Y-87159080D01*
X196402143Y-87159080D02*
X195978809Y-87159080D01*
X197067381Y-86554318D02*
X197793095Y-86554318D01*
X197430238Y-87824318D02*
X197430238Y-86554318D01*
X198881667Y-87824318D02*
X198155952Y-87824318D01*
X198518809Y-87824318D02*
X198518809Y-86554318D01*
X198518809Y-86554318D02*
X198397857Y-86735746D01*
X198397857Y-86735746D02*
X198276905Y-86856699D01*
X198276905Y-86856699D02*
X198155952Y-86917175D01*
D11*
X144127419Y-90853333D02*
X144127419Y-90281905D01*
X145127419Y-90567619D02*
X144127419Y-90567619D01*
X145079800Y-89567619D02*
X145127419Y-89662857D01*
X145127419Y-89662857D02*
X145127419Y-89853333D01*
X145127419Y-89853333D02*
X145079800Y-89948571D01*
X145079800Y-89948571D02*
X144984561Y-89996190D01*
X144984561Y-89996190D02*
X144603609Y-89996190D01*
X144603609Y-89996190D02*
X144508371Y-89948571D01*
X144508371Y-89948571D02*
X144460752Y-89853333D01*
X144460752Y-89853333D02*
X144460752Y-89662857D01*
X144460752Y-89662857D02*
X144508371Y-89567619D01*
X144508371Y-89567619D02*
X144603609Y-89520000D01*
X144603609Y-89520000D02*
X144698847Y-89520000D01*
X144698847Y-89520000D02*
X144794085Y-89996190D01*
X145079800Y-89139047D02*
X145127419Y-89043809D01*
X145127419Y-89043809D02*
X145127419Y-88853333D01*
X145127419Y-88853333D02*
X145079800Y-88758095D01*
X145079800Y-88758095D02*
X144984561Y-88710476D01*
X144984561Y-88710476D02*
X144936942Y-88710476D01*
X144936942Y-88710476D02*
X144841704Y-88758095D01*
X144841704Y-88758095D02*
X144794085Y-88853333D01*
X144794085Y-88853333D02*
X144794085Y-88996190D01*
X144794085Y-88996190D02*
X144746466Y-89091428D01*
X144746466Y-89091428D02*
X144651228Y-89139047D01*
X144651228Y-89139047D02*
X144603609Y-89139047D01*
X144603609Y-89139047D02*
X144508371Y-89091428D01*
X144508371Y-89091428D02*
X144460752Y-88996190D01*
X144460752Y-88996190D02*
X144460752Y-88853333D01*
X144460752Y-88853333D02*
X144508371Y-88758095D01*
X144460752Y-88424761D02*
X144460752Y-88043809D01*
X144127419Y-88281904D02*
X144984561Y-88281904D01*
X144984561Y-88281904D02*
X145079800Y-88234285D01*
X145079800Y-88234285D02*
X145127419Y-88139047D01*
X145127419Y-88139047D02*
X145127419Y-88043809D01*
X145127419Y-87710475D02*
X144127419Y-87710475D01*
X144127419Y-87710475D02*
X144127419Y-87329523D01*
X144127419Y-87329523D02*
X144175038Y-87234285D01*
X144175038Y-87234285D02*
X144222657Y-87186666D01*
X144222657Y-87186666D02*
X144317895Y-87139047D01*
X144317895Y-87139047D02*
X144460752Y-87139047D01*
X144460752Y-87139047D02*
X144555990Y-87186666D01*
X144555990Y-87186666D02*
X144603609Y-87234285D01*
X144603609Y-87234285D02*
X144651228Y-87329523D01*
X144651228Y-87329523D02*
X144651228Y-87710475D01*
X145127419Y-86567618D02*
X145079800Y-86662856D01*
X145079800Y-86662856D02*
X145032180Y-86710475D01*
X145032180Y-86710475D02*
X144936942Y-86758094D01*
X144936942Y-86758094D02*
X144651228Y-86758094D01*
X144651228Y-86758094D02*
X144555990Y-86710475D01*
X144555990Y-86710475D02*
X144508371Y-86662856D01*
X144508371Y-86662856D02*
X144460752Y-86567618D01*
X144460752Y-86567618D02*
X144460752Y-86424761D01*
X144460752Y-86424761D02*
X144508371Y-86329523D01*
X144508371Y-86329523D02*
X144555990Y-86281904D01*
X144555990Y-86281904D02*
X144651228Y-86234285D01*
X144651228Y-86234285D02*
X144936942Y-86234285D01*
X144936942Y-86234285D02*
X145032180Y-86281904D01*
X145032180Y-86281904D02*
X145079800Y-86329523D01*
X145079800Y-86329523D02*
X145127419Y-86424761D01*
X145127419Y-86424761D02*
X145127419Y-86567618D01*
X145127419Y-85805713D02*
X144460752Y-85805713D01*
X144127419Y-85805713D02*
X144175038Y-85853332D01*
X144175038Y-85853332D02*
X144222657Y-85805713D01*
X144222657Y-85805713D02*
X144175038Y-85758094D01*
X144175038Y-85758094D02*
X144127419Y-85805713D01*
X144127419Y-85805713D02*
X144222657Y-85805713D01*
X144460752Y-85329523D02*
X145127419Y-85329523D01*
X144555990Y-85329523D02*
X144508371Y-85281904D01*
X144508371Y-85281904D02*
X144460752Y-85186666D01*
X144460752Y-85186666D02*
X144460752Y-85043809D01*
X144460752Y-85043809D02*
X144508371Y-84948571D01*
X144508371Y-84948571D02*
X144603609Y-84900952D01*
X144603609Y-84900952D02*
X145127419Y-84900952D01*
X144460752Y-84567618D02*
X144460752Y-84186666D01*
X144127419Y-84424761D02*
X144984561Y-84424761D01*
X144984561Y-84424761D02*
X145079800Y-84377142D01*
X145079800Y-84377142D02*
X145127419Y-84281904D01*
X145127419Y-84281904D02*
X145127419Y-84186666D01*
X148527419Y-87753333D02*
X149241704Y-87753333D01*
X149241704Y-87753333D02*
X149384561Y-87800952D01*
X149384561Y-87800952D02*
X149479800Y-87896190D01*
X149479800Y-87896190D02*
X149527419Y-88039047D01*
X149527419Y-88039047D02*
X149527419Y-88134285D01*
X148622657Y-87324761D02*
X148575038Y-87277142D01*
X148575038Y-87277142D02*
X148527419Y-87181904D01*
X148527419Y-87181904D02*
X148527419Y-86943809D01*
X148527419Y-86943809D02*
X148575038Y-86848571D01*
X148575038Y-86848571D02*
X148622657Y-86800952D01*
X148622657Y-86800952D02*
X148717895Y-86753333D01*
X148717895Y-86753333D02*
X148813133Y-86753333D01*
X148813133Y-86753333D02*
X148955990Y-86800952D01*
X148955990Y-86800952D02*
X149527419Y-87372380D01*
X149527419Y-87372380D02*
X149527419Y-86753333D01*
D10*
X125562143Y-186689080D02*
X125743571Y-186749556D01*
X125743571Y-186749556D02*
X125804048Y-186810032D01*
X125804048Y-186810032D02*
X125864524Y-186930984D01*
X125864524Y-186930984D02*
X125864524Y-187112413D01*
X125864524Y-187112413D02*
X125804048Y-187233365D01*
X125804048Y-187233365D02*
X125743571Y-187293842D01*
X125743571Y-187293842D02*
X125622619Y-187354318D01*
X125622619Y-187354318D02*
X125138809Y-187354318D01*
X125138809Y-187354318D02*
X125138809Y-186084318D01*
X125138809Y-186084318D02*
X125562143Y-186084318D01*
X125562143Y-186084318D02*
X125683095Y-186144794D01*
X125683095Y-186144794D02*
X125743571Y-186205270D01*
X125743571Y-186205270D02*
X125804048Y-186326222D01*
X125804048Y-186326222D02*
X125804048Y-186447175D01*
X125804048Y-186447175D02*
X125743571Y-186568127D01*
X125743571Y-186568127D02*
X125683095Y-186628603D01*
X125683095Y-186628603D02*
X125562143Y-186689080D01*
X125562143Y-186689080D02*
X125138809Y-186689080D01*
X126227381Y-186084318D02*
X126953095Y-186084318D01*
X126590238Y-187354318D02*
X126590238Y-186084318D01*
X127557857Y-186628603D02*
X127436905Y-186568127D01*
X127436905Y-186568127D02*
X127376428Y-186507651D01*
X127376428Y-186507651D02*
X127315952Y-186386699D01*
X127315952Y-186386699D02*
X127315952Y-186326222D01*
X127315952Y-186326222D02*
X127376428Y-186205270D01*
X127376428Y-186205270D02*
X127436905Y-186144794D01*
X127436905Y-186144794D02*
X127557857Y-186084318D01*
X127557857Y-186084318D02*
X127799762Y-186084318D01*
X127799762Y-186084318D02*
X127920714Y-186144794D01*
X127920714Y-186144794D02*
X127981190Y-186205270D01*
X127981190Y-186205270D02*
X128041667Y-186326222D01*
X128041667Y-186326222D02*
X128041667Y-186386699D01*
X128041667Y-186386699D02*
X127981190Y-186507651D01*
X127981190Y-186507651D02*
X127920714Y-186568127D01*
X127920714Y-186568127D02*
X127799762Y-186628603D01*
X127799762Y-186628603D02*
X127557857Y-186628603D01*
X127557857Y-186628603D02*
X127436905Y-186689080D01*
X127436905Y-186689080D02*
X127376428Y-186749556D01*
X127376428Y-186749556D02*
X127315952Y-186870508D01*
X127315952Y-186870508D02*
X127315952Y-187112413D01*
X127315952Y-187112413D02*
X127376428Y-187233365D01*
X127376428Y-187233365D02*
X127436905Y-187293842D01*
X127436905Y-187293842D02*
X127557857Y-187354318D01*
X127557857Y-187354318D02*
X127799762Y-187354318D01*
X127799762Y-187354318D02*
X127920714Y-187293842D01*
X127920714Y-187293842D02*
X127981190Y-187233365D01*
X127981190Y-187233365D02*
X128041667Y-187112413D01*
X128041667Y-187112413D02*
X128041667Y-186870508D01*
X128041667Y-186870508D02*
X127981190Y-186749556D01*
X127981190Y-186749556D02*
X127920714Y-186689080D01*
X127920714Y-186689080D02*
X127799762Y-186628603D01*
D11*
X196638095Y-245357419D02*
X196638095Y-244357419D01*
X196638095Y-244833609D02*
X197209523Y-244833609D01*
X197209523Y-245357419D02*
X197209523Y-244357419D01*
X198161904Y-244357419D02*
X197685714Y-244357419D01*
X197685714Y-244357419D02*
X197638095Y-244833609D01*
X197638095Y-244833609D02*
X197685714Y-244785990D01*
X197685714Y-244785990D02*
X197780952Y-244738371D01*
X197780952Y-244738371D02*
X198019047Y-244738371D01*
X198019047Y-244738371D02*
X198114285Y-244785990D01*
X198114285Y-244785990D02*
X198161904Y-244833609D01*
X198161904Y-244833609D02*
X198209523Y-244928847D01*
X198209523Y-244928847D02*
X198209523Y-245166942D01*
X198209523Y-245166942D02*
X198161904Y-245262180D01*
X198161904Y-245262180D02*
X198114285Y-245309800D01*
X198114285Y-245309800D02*
X198019047Y-245357419D01*
X198019047Y-245357419D02*
X197780952Y-245357419D01*
X197780952Y-245357419D02*
X197685714Y-245309800D01*
X197685714Y-245309800D02*
X197638095Y-245262180D01*
X196638095Y-45357419D02*
X196638095Y-44357419D01*
X196638095Y-44833609D02*
X197209523Y-44833609D01*
X197209523Y-45357419D02*
X197209523Y-44357419D01*
X198114285Y-44357419D02*
X197923809Y-44357419D01*
X197923809Y-44357419D02*
X197828571Y-44405038D01*
X197828571Y-44405038D02*
X197780952Y-44452657D01*
X197780952Y-44452657D02*
X197685714Y-44595514D01*
X197685714Y-44595514D02*
X197638095Y-44785990D01*
X197638095Y-44785990D02*
X197638095Y-45166942D01*
X197638095Y-45166942D02*
X197685714Y-45262180D01*
X197685714Y-45262180D02*
X197733333Y-45309800D01*
X197733333Y-45309800D02*
X197828571Y-45357419D01*
X197828571Y-45357419D02*
X198019047Y-45357419D01*
X198019047Y-45357419D02*
X198114285Y-45309800D01*
X198114285Y-45309800D02*
X198161904Y-45262180D01*
X198161904Y-45262180D02*
X198209523Y-45166942D01*
X198209523Y-45166942D02*
X198209523Y-44928847D01*
X198209523Y-44928847D02*
X198161904Y-44833609D01*
X198161904Y-44833609D02*
X198114285Y-44785990D01*
X198114285Y-44785990D02*
X198019047Y-44738371D01*
X198019047Y-44738371D02*
X197828571Y-44738371D01*
X197828571Y-44738371D02*
X197733333Y-44785990D01*
X197733333Y-44785990D02*
X197685714Y-44833609D01*
X197685714Y-44833609D02*
X197638095Y-44928847D01*
X179426666Y-221727419D02*
X179998094Y-221727419D01*
X179712380Y-222727419D02*
X179712380Y-221727419D01*
X180712380Y-222679800D02*
X180617142Y-222727419D01*
X180617142Y-222727419D02*
X180426666Y-222727419D01*
X180426666Y-222727419D02*
X180331428Y-222679800D01*
X180331428Y-222679800D02*
X180283809Y-222584561D01*
X180283809Y-222584561D02*
X180283809Y-222203609D01*
X180283809Y-222203609D02*
X180331428Y-222108371D01*
X180331428Y-222108371D02*
X180426666Y-222060752D01*
X180426666Y-222060752D02*
X180617142Y-222060752D01*
X180617142Y-222060752D02*
X180712380Y-222108371D01*
X180712380Y-222108371D02*
X180759999Y-222203609D01*
X180759999Y-222203609D02*
X180759999Y-222298847D01*
X180759999Y-222298847D02*
X180283809Y-222394085D01*
X181140952Y-222679800D02*
X181236190Y-222727419D01*
X181236190Y-222727419D02*
X181426666Y-222727419D01*
X181426666Y-222727419D02*
X181521904Y-222679800D01*
X181521904Y-222679800D02*
X181569523Y-222584561D01*
X181569523Y-222584561D02*
X181569523Y-222536942D01*
X181569523Y-222536942D02*
X181521904Y-222441704D01*
X181521904Y-222441704D02*
X181426666Y-222394085D01*
X181426666Y-222394085D02*
X181283809Y-222394085D01*
X181283809Y-222394085D02*
X181188571Y-222346466D01*
X181188571Y-222346466D02*
X181140952Y-222251228D01*
X181140952Y-222251228D02*
X181140952Y-222203609D01*
X181140952Y-222203609D02*
X181188571Y-222108371D01*
X181188571Y-222108371D02*
X181283809Y-222060752D01*
X181283809Y-222060752D02*
X181426666Y-222060752D01*
X181426666Y-222060752D02*
X181521904Y-222108371D01*
X181855238Y-222060752D02*
X182236190Y-222060752D01*
X181998095Y-221727419D02*
X181998095Y-222584561D01*
X181998095Y-222584561D02*
X182045714Y-222679800D01*
X182045714Y-222679800D02*
X182140952Y-222727419D01*
X182140952Y-222727419D02*
X182236190Y-222727419D01*
X182569524Y-222727419D02*
X182569524Y-221727419D01*
X182569524Y-221727419D02*
X182950476Y-221727419D01*
X182950476Y-221727419D02*
X183045714Y-221775038D01*
X183045714Y-221775038D02*
X183093333Y-221822657D01*
X183093333Y-221822657D02*
X183140952Y-221917895D01*
X183140952Y-221917895D02*
X183140952Y-222060752D01*
X183140952Y-222060752D02*
X183093333Y-222155990D01*
X183093333Y-222155990D02*
X183045714Y-222203609D01*
X183045714Y-222203609D02*
X182950476Y-222251228D01*
X182950476Y-222251228D02*
X182569524Y-222251228D01*
X183712381Y-222727419D02*
X183617143Y-222679800D01*
X183617143Y-222679800D02*
X183569524Y-222632180D01*
X183569524Y-222632180D02*
X183521905Y-222536942D01*
X183521905Y-222536942D02*
X183521905Y-222251228D01*
X183521905Y-222251228D02*
X183569524Y-222155990D01*
X183569524Y-222155990D02*
X183617143Y-222108371D01*
X183617143Y-222108371D02*
X183712381Y-222060752D01*
X183712381Y-222060752D02*
X183855238Y-222060752D01*
X183855238Y-222060752D02*
X183950476Y-222108371D01*
X183950476Y-222108371D02*
X183998095Y-222155990D01*
X183998095Y-222155990D02*
X184045714Y-222251228D01*
X184045714Y-222251228D02*
X184045714Y-222536942D01*
X184045714Y-222536942D02*
X183998095Y-222632180D01*
X183998095Y-222632180D02*
X183950476Y-222679800D01*
X183950476Y-222679800D02*
X183855238Y-222727419D01*
X183855238Y-222727419D02*
X183712381Y-222727419D01*
X184474286Y-222727419D02*
X184474286Y-222060752D01*
X184474286Y-221727419D02*
X184426667Y-221775038D01*
X184426667Y-221775038D02*
X184474286Y-221822657D01*
X184474286Y-221822657D02*
X184521905Y-221775038D01*
X184521905Y-221775038D02*
X184474286Y-221727419D01*
X184474286Y-221727419D02*
X184474286Y-221822657D01*
X184950476Y-222060752D02*
X184950476Y-222727419D01*
X184950476Y-222155990D02*
X184998095Y-222108371D01*
X184998095Y-222108371D02*
X185093333Y-222060752D01*
X185093333Y-222060752D02*
X185236190Y-222060752D01*
X185236190Y-222060752D02*
X185331428Y-222108371D01*
X185331428Y-222108371D02*
X185379047Y-222203609D01*
X185379047Y-222203609D02*
X185379047Y-222727419D01*
X185712381Y-222060752D02*
X186093333Y-222060752D01*
X185855238Y-221727419D02*
X185855238Y-222584561D01*
X185855238Y-222584561D02*
X185902857Y-222679800D01*
X185902857Y-222679800D02*
X185998095Y-222727419D01*
X185998095Y-222727419D02*
X186093333Y-222727419D01*
X186826666Y-221627419D02*
X186826666Y-222341704D01*
X186826666Y-222341704D02*
X186779047Y-222484561D01*
X186779047Y-222484561D02*
X186683809Y-222579800D01*
X186683809Y-222579800D02*
X186540952Y-222627419D01*
X186540952Y-222627419D02*
X186445714Y-222627419D01*
X187779047Y-221627419D02*
X187302857Y-221627419D01*
X187302857Y-221627419D02*
X187255238Y-222103609D01*
X187255238Y-222103609D02*
X187302857Y-222055990D01*
X187302857Y-222055990D02*
X187398095Y-222008371D01*
X187398095Y-222008371D02*
X187636190Y-222008371D01*
X187636190Y-222008371D02*
X187731428Y-222055990D01*
X187731428Y-222055990D02*
X187779047Y-222103609D01*
X187779047Y-222103609D02*
X187826666Y-222198847D01*
X187826666Y-222198847D02*
X187826666Y-222436942D01*
X187826666Y-222436942D02*
X187779047Y-222532180D01*
X187779047Y-222532180D02*
X187731428Y-222579800D01*
X187731428Y-222579800D02*
X187636190Y-222627419D01*
X187636190Y-222627419D02*
X187398095Y-222627419D01*
X187398095Y-222627419D02*
X187302857Y-222579800D01*
X187302857Y-222579800D02*
X187255238Y-222532180D01*
D10*
X267182143Y-186689080D02*
X267363571Y-186749556D01*
X267363571Y-186749556D02*
X267424048Y-186810032D01*
X267424048Y-186810032D02*
X267484524Y-186930984D01*
X267484524Y-186930984D02*
X267484524Y-187112413D01*
X267484524Y-187112413D02*
X267424048Y-187233365D01*
X267424048Y-187233365D02*
X267363571Y-187293842D01*
X267363571Y-187293842D02*
X267242619Y-187354318D01*
X267242619Y-187354318D02*
X266758809Y-187354318D01*
X266758809Y-187354318D02*
X266758809Y-186084318D01*
X266758809Y-186084318D02*
X267182143Y-186084318D01*
X267182143Y-186084318D02*
X267303095Y-186144794D01*
X267303095Y-186144794D02*
X267363571Y-186205270D01*
X267363571Y-186205270D02*
X267424048Y-186326222D01*
X267424048Y-186326222D02*
X267424048Y-186447175D01*
X267424048Y-186447175D02*
X267363571Y-186568127D01*
X267363571Y-186568127D02*
X267303095Y-186628603D01*
X267303095Y-186628603D02*
X267182143Y-186689080D01*
X267182143Y-186689080D02*
X266758809Y-186689080D01*
X267847381Y-186084318D02*
X268573095Y-186084318D01*
X268210238Y-187354318D02*
X268210238Y-186084318D01*
X269540714Y-186507651D02*
X269540714Y-187354318D01*
X269238333Y-186023842D02*
X268935952Y-186930984D01*
X268935952Y-186930984D02*
X269722143Y-186930984D01*
D12*
X72626666Y-139004819D02*
X73198094Y-139004819D01*
X72912380Y-140004819D02*
X72912380Y-139004819D01*
X73912380Y-139957200D02*
X73817142Y-140004819D01*
X73817142Y-140004819D02*
X73626666Y-140004819D01*
X73626666Y-140004819D02*
X73531428Y-139957200D01*
X73531428Y-139957200D02*
X73483809Y-139861961D01*
X73483809Y-139861961D02*
X73483809Y-139481009D01*
X73483809Y-139481009D02*
X73531428Y-139385771D01*
X73531428Y-139385771D02*
X73626666Y-139338152D01*
X73626666Y-139338152D02*
X73817142Y-139338152D01*
X73817142Y-139338152D02*
X73912380Y-139385771D01*
X73912380Y-139385771D02*
X73959999Y-139481009D01*
X73959999Y-139481009D02*
X73959999Y-139576247D01*
X73959999Y-139576247D02*
X73483809Y-139671485D01*
X74340952Y-139957200D02*
X74436190Y-140004819D01*
X74436190Y-140004819D02*
X74626666Y-140004819D01*
X74626666Y-140004819D02*
X74721904Y-139957200D01*
X74721904Y-139957200D02*
X74769523Y-139861961D01*
X74769523Y-139861961D02*
X74769523Y-139814342D01*
X74769523Y-139814342D02*
X74721904Y-139719104D01*
X74721904Y-139719104D02*
X74626666Y-139671485D01*
X74626666Y-139671485D02*
X74483809Y-139671485D01*
X74483809Y-139671485D02*
X74388571Y-139623866D01*
X74388571Y-139623866D02*
X74340952Y-139528628D01*
X74340952Y-139528628D02*
X74340952Y-139481009D01*
X74340952Y-139481009D02*
X74388571Y-139385771D01*
X74388571Y-139385771D02*
X74483809Y-139338152D01*
X74483809Y-139338152D02*
X74626666Y-139338152D01*
X74626666Y-139338152D02*
X74721904Y-139385771D01*
X75055238Y-139338152D02*
X75436190Y-139338152D01*
X75198095Y-139004819D02*
X75198095Y-139861961D01*
X75198095Y-139861961D02*
X75245714Y-139957200D01*
X75245714Y-139957200D02*
X75340952Y-140004819D01*
X75340952Y-140004819D02*
X75436190Y-140004819D01*
X75769524Y-140004819D02*
X75769524Y-139004819D01*
X75769524Y-139004819D02*
X76150476Y-139004819D01*
X76150476Y-139004819D02*
X76245714Y-139052438D01*
X76245714Y-139052438D02*
X76293333Y-139100057D01*
X76293333Y-139100057D02*
X76340952Y-139195295D01*
X76340952Y-139195295D02*
X76340952Y-139338152D01*
X76340952Y-139338152D02*
X76293333Y-139433390D01*
X76293333Y-139433390D02*
X76245714Y-139481009D01*
X76245714Y-139481009D02*
X76150476Y-139528628D01*
X76150476Y-139528628D02*
X75769524Y-139528628D01*
X76912381Y-140004819D02*
X76817143Y-139957200D01*
X76817143Y-139957200D02*
X76769524Y-139909580D01*
X76769524Y-139909580D02*
X76721905Y-139814342D01*
X76721905Y-139814342D02*
X76721905Y-139528628D01*
X76721905Y-139528628D02*
X76769524Y-139433390D01*
X76769524Y-139433390D02*
X76817143Y-139385771D01*
X76817143Y-139385771D02*
X76912381Y-139338152D01*
X76912381Y-139338152D02*
X77055238Y-139338152D01*
X77055238Y-139338152D02*
X77150476Y-139385771D01*
X77150476Y-139385771D02*
X77198095Y-139433390D01*
X77198095Y-139433390D02*
X77245714Y-139528628D01*
X77245714Y-139528628D02*
X77245714Y-139814342D01*
X77245714Y-139814342D02*
X77198095Y-139909580D01*
X77198095Y-139909580D02*
X77150476Y-139957200D01*
X77150476Y-139957200D02*
X77055238Y-140004819D01*
X77055238Y-140004819D02*
X76912381Y-140004819D01*
X77674286Y-140004819D02*
X77674286Y-139338152D01*
X77674286Y-139004819D02*
X77626667Y-139052438D01*
X77626667Y-139052438D02*
X77674286Y-139100057D01*
X77674286Y-139100057D02*
X77721905Y-139052438D01*
X77721905Y-139052438D02*
X77674286Y-139004819D01*
X77674286Y-139004819D02*
X77674286Y-139100057D01*
X78150476Y-139338152D02*
X78150476Y-140004819D01*
X78150476Y-139433390D02*
X78198095Y-139385771D01*
X78198095Y-139385771D02*
X78293333Y-139338152D01*
X78293333Y-139338152D02*
X78436190Y-139338152D01*
X78436190Y-139338152D02*
X78531428Y-139385771D01*
X78531428Y-139385771D02*
X78579047Y-139481009D01*
X78579047Y-139481009D02*
X78579047Y-140004819D01*
X78912381Y-139338152D02*
X79293333Y-139338152D01*
X79055238Y-139004819D02*
X79055238Y-139861961D01*
X79055238Y-139861961D02*
X79102857Y-139957200D01*
X79102857Y-139957200D02*
X79198095Y-140004819D01*
X79198095Y-140004819D02*
X79293333Y-140004819D01*
X79550476Y-138904819D02*
X79550476Y-139619104D01*
X79550476Y-139619104D02*
X79502857Y-139761961D01*
X79502857Y-139761961D02*
X79407619Y-139857200D01*
X79407619Y-139857200D02*
X79264762Y-139904819D01*
X79264762Y-139904819D02*
X79169524Y-139904819D01*
X80550476Y-139904819D02*
X79979048Y-139904819D01*
X80264762Y-139904819D02*
X80264762Y-138904819D01*
X80264762Y-138904819D02*
X80169524Y-139047676D01*
X80169524Y-139047676D02*
X80074286Y-139142914D01*
X80074286Y-139142914D02*
X79979048Y-139190533D01*
X81502857Y-139904819D02*
X80931429Y-139904819D01*
X81217143Y-139904819D02*
X81217143Y-138904819D01*
X81217143Y-138904819D02*
X81121905Y-139047676D01*
X81121905Y-139047676D02*
X81026667Y-139142914D01*
X81026667Y-139142914D02*
X80931429Y-139190533D01*
D10*
X125562143Y-162939080D02*
X125743571Y-162999556D01*
X125743571Y-162999556D02*
X125804048Y-163060032D01*
X125804048Y-163060032D02*
X125864524Y-163180984D01*
X125864524Y-163180984D02*
X125864524Y-163362413D01*
X125864524Y-163362413D02*
X125804048Y-163483365D01*
X125804048Y-163483365D02*
X125743571Y-163543842D01*
X125743571Y-163543842D02*
X125622619Y-163604318D01*
X125622619Y-163604318D02*
X125138809Y-163604318D01*
X125138809Y-163604318D02*
X125138809Y-162334318D01*
X125138809Y-162334318D02*
X125562143Y-162334318D01*
X125562143Y-162334318D02*
X125683095Y-162394794D01*
X125683095Y-162394794D02*
X125743571Y-162455270D01*
X125743571Y-162455270D02*
X125804048Y-162576222D01*
X125804048Y-162576222D02*
X125804048Y-162697175D01*
X125804048Y-162697175D02*
X125743571Y-162818127D01*
X125743571Y-162818127D02*
X125683095Y-162878603D01*
X125683095Y-162878603D02*
X125562143Y-162939080D01*
X125562143Y-162939080D02*
X125138809Y-162939080D01*
X126227381Y-162334318D02*
X126953095Y-162334318D01*
X126590238Y-163604318D02*
X126590238Y-162334318D01*
X127255476Y-162334318D02*
X128102143Y-162334318D01*
X128102143Y-162334318D02*
X127557857Y-163604318D01*
D12*
X72626666Y-186504819D02*
X73198094Y-186504819D01*
X72912380Y-187504819D02*
X72912380Y-186504819D01*
X73912380Y-187457200D02*
X73817142Y-187504819D01*
X73817142Y-187504819D02*
X73626666Y-187504819D01*
X73626666Y-187504819D02*
X73531428Y-187457200D01*
X73531428Y-187457200D02*
X73483809Y-187361961D01*
X73483809Y-187361961D02*
X73483809Y-186981009D01*
X73483809Y-186981009D02*
X73531428Y-186885771D01*
X73531428Y-186885771D02*
X73626666Y-186838152D01*
X73626666Y-186838152D02*
X73817142Y-186838152D01*
X73817142Y-186838152D02*
X73912380Y-186885771D01*
X73912380Y-186885771D02*
X73959999Y-186981009D01*
X73959999Y-186981009D02*
X73959999Y-187076247D01*
X73959999Y-187076247D02*
X73483809Y-187171485D01*
X74340952Y-187457200D02*
X74436190Y-187504819D01*
X74436190Y-187504819D02*
X74626666Y-187504819D01*
X74626666Y-187504819D02*
X74721904Y-187457200D01*
X74721904Y-187457200D02*
X74769523Y-187361961D01*
X74769523Y-187361961D02*
X74769523Y-187314342D01*
X74769523Y-187314342D02*
X74721904Y-187219104D01*
X74721904Y-187219104D02*
X74626666Y-187171485D01*
X74626666Y-187171485D02*
X74483809Y-187171485D01*
X74483809Y-187171485D02*
X74388571Y-187123866D01*
X74388571Y-187123866D02*
X74340952Y-187028628D01*
X74340952Y-187028628D02*
X74340952Y-186981009D01*
X74340952Y-186981009D02*
X74388571Y-186885771D01*
X74388571Y-186885771D02*
X74483809Y-186838152D01*
X74483809Y-186838152D02*
X74626666Y-186838152D01*
X74626666Y-186838152D02*
X74721904Y-186885771D01*
X75055238Y-186838152D02*
X75436190Y-186838152D01*
X75198095Y-186504819D02*
X75198095Y-187361961D01*
X75198095Y-187361961D02*
X75245714Y-187457200D01*
X75245714Y-187457200D02*
X75340952Y-187504819D01*
X75340952Y-187504819D02*
X75436190Y-187504819D01*
X75769524Y-187504819D02*
X75769524Y-186504819D01*
X75769524Y-186504819D02*
X76150476Y-186504819D01*
X76150476Y-186504819D02*
X76245714Y-186552438D01*
X76245714Y-186552438D02*
X76293333Y-186600057D01*
X76293333Y-186600057D02*
X76340952Y-186695295D01*
X76340952Y-186695295D02*
X76340952Y-186838152D01*
X76340952Y-186838152D02*
X76293333Y-186933390D01*
X76293333Y-186933390D02*
X76245714Y-186981009D01*
X76245714Y-186981009D02*
X76150476Y-187028628D01*
X76150476Y-187028628D02*
X75769524Y-187028628D01*
X76912381Y-187504819D02*
X76817143Y-187457200D01*
X76817143Y-187457200D02*
X76769524Y-187409580D01*
X76769524Y-187409580D02*
X76721905Y-187314342D01*
X76721905Y-187314342D02*
X76721905Y-187028628D01*
X76721905Y-187028628D02*
X76769524Y-186933390D01*
X76769524Y-186933390D02*
X76817143Y-186885771D01*
X76817143Y-186885771D02*
X76912381Y-186838152D01*
X76912381Y-186838152D02*
X77055238Y-186838152D01*
X77055238Y-186838152D02*
X77150476Y-186885771D01*
X77150476Y-186885771D02*
X77198095Y-186933390D01*
X77198095Y-186933390D02*
X77245714Y-187028628D01*
X77245714Y-187028628D02*
X77245714Y-187314342D01*
X77245714Y-187314342D02*
X77198095Y-187409580D01*
X77198095Y-187409580D02*
X77150476Y-187457200D01*
X77150476Y-187457200D02*
X77055238Y-187504819D01*
X77055238Y-187504819D02*
X76912381Y-187504819D01*
X77674286Y-187504819D02*
X77674286Y-186838152D01*
X77674286Y-186504819D02*
X77626667Y-186552438D01*
X77626667Y-186552438D02*
X77674286Y-186600057D01*
X77674286Y-186600057D02*
X77721905Y-186552438D01*
X77721905Y-186552438D02*
X77674286Y-186504819D01*
X77674286Y-186504819D02*
X77674286Y-186600057D01*
X78150476Y-186838152D02*
X78150476Y-187504819D01*
X78150476Y-186933390D02*
X78198095Y-186885771D01*
X78198095Y-186885771D02*
X78293333Y-186838152D01*
X78293333Y-186838152D02*
X78436190Y-186838152D01*
X78436190Y-186838152D02*
X78531428Y-186885771D01*
X78531428Y-186885771D02*
X78579047Y-186981009D01*
X78579047Y-186981009D02*
X78579047Y-187504819D01*
X78912381Y-186838152D02*
X79293333Y-186838152D01*
X79055238Y-186504819D02*
X79055238Y-187361961D01*
X79055238Y-187361961D02*
X79102857Y-187457200D01*
X79102857Y-187457200D02*
X79198095Y-187504819D01*
X79198095Y-187504819D02*
X79293333Y-187504819D01*
X79550476Y-186404819D02*
X79550476Y-187119104D01*
X79550476Y-187119104D02*
X79502857Y-187261961D01*
X79502857Y-187261961D02*
X79407619Y-187357200D01*
X79407619Y-187357200D02*
X79264762Y-187404819D01*
X79264762Y-187404819D02*
X79169524Y-187404819D01*
X80550476Y-187404819D02*
X79979048Y-187404819D01*
X80264762Y-187404819D02*
X80264762Y-186404819D01*
X80264762Y-186404819D02*
X80169524Y-186547676D01*
X80169524Y-186547676D02*
X80074286Y-186642914D01*
X80074286Y-186642914D02*
X79979048Y-186690533D01*
X81455238Y-186404819D02*
X80979048Y-186404819D01*
X80979048Y-186404819D02*
X80931429Y-186881009D01*
X80931429Y-186881009D02*
X80979048Y-186833390D01*
X80979048Y-186833390D02*
X81074286Y-186785771D01*
X81074286Y-186785771D02*
X81312381Y-186785771D01*
X81312381Y-186785771D02*
X81407619Y-186833390D01*
X81407619Y-186833390D02*
X81455238Y-186881009D01*
X81455238Y-186881009D02*
X81502857Y-186976247D01*
X81502857Y-186976247D02*
X81502857Y-187214342D01*
X81502857Y-187214342D02*
X81455238Y-187309580D01*
X81455238Y-187309580D02*
X81407619Y-187357200D01*
X81407619Y-187357200D02*
X81312381Y-187404819D01*
X81312381Y-187404819D02*
X81074286Y-187404819D01*
X81074286Y-187404819D02*
X80979048Y-187357200D01*
X80979048Y-187357200D02*
X80931429Y-187309580D01*
D11*
X53138095Y-145357419D02*
X53138095Y-144357419D01*
X53138095Y-144833609D02*
X53709523Y-144833609D01*
X53709523Y-145357419D02*
X53709523Y-144357419D01*
X54328571Y-144785990D02*
X54233333Y-144738371D01*
X54233333Y-144738371D02*
X54185714Y-144690752D01*
X54185714Y-144690752D02*
X54138095Y-144595514D01*
X54138095Y-144595514D02*
X54138095Y-144547895D01*
X54138095Y-144547895D02*
X54185714Y-144452657D01*
X54185714Y-144452657D02*
X54233333Y-144405038D01*
X54233333Y-144405038D02*
X54328571Y-144357419D01*
X54328571Y-144357419D02*
X54519047Y-144357419D01*
X54519047Y-144357419D02*
X54614285Y-144405038D01*
X54614285Y-144405038D02*
X54661904Y-144452657D01*
X54661904Y-144452657D02*
X54709523Y-144547895D01*
X54709523Y-144547895D02*
X54709523Y-144595514D01*
X54709523Y-144595514D02*
X54661904Y-144690752D01*
X54661904Y-144690752D02*
X54614285Y-144738371D01*
X54614285Y-144738371D02*
X54519047Y-144785990D01*
X54519047Y-144785990D02*
X54328571Y-144785990D01*
X54328571Y-144785990D02*
X54233333Y-144833609D01*
X54233333Y-144833609D02*
X54185714Y-144881228D01*
X54185714Y-144881228D02*
X54138095Y-144976466D01*
X54138095Y-144976466D02*
X54138095Y-145166942D01*
X54138095Y-145166942D02*
X54185714Y-145262180D01*
X54185714Y-145262180D02*
X54233333Y-145309800D01*
X54233333Y-145309800D02*
X54328571Y-145357419D01*
X54328571Y-145357419D02*
X54519047Y-145357419D01*
X54519047Y-145357419D02*
X54614285Y-145309800D01*
X54614285Y-145309800D02*
X54661904Y-145262180D01*
X54661904Y-145262180D02*
X54709523Y-145166942D01*
X54709523Y-145166942D02*
X54709523Y-144976466D01*
X54709523Y-144976466D02*
X54661904Y-144881228D01*
X54661904Y-144881228D02*
X54614285Y-144833609D01*
X54614285Y-144833609D02*
X54519047Y-144785990D01*
D12*
X169626666Y-139004819D02*
X170198094Y-139004819D01*
X169912380Y-140004819D02*
X169912380Y-139004819D01*
X170912380Y-139957200D02*
X170817142Y-140004819D01*
X170817142Y-140004819D02*
X170626666Y-140004819D01*
X170626666Y-140004819D02*
X170531428Y-139957200D01*
X170531428Y-139957200D02*
X170483809Y-139861961D01*
X170483809Y-139861961D02*
X170483809Y-139481009D01*
X170483809Y-139481009D02*
X170531428Y-139385771D01*
X170531428Y-139385771D02*
X170626666Y-139338152D01*
X170626666Y-139338152D02*
X170817142Y-139338152D01*
X170817142Y-139338152D02*
X170912380Y-139385771D01*
X170912380Y-139385771D02*
X170959999Y-139481009D01*
X170959999Y-139481009D02*
X170959999Y-139576247D01*
X170959999Y-139576247D02*
X170483809Y-139671485D01*
X171340952Y-139957200D02*
X171436190Y-140004819D01*
X171436190Y-140004819D02*
X171626666Y-140004819D01*
X171626666Y-140004819D02*
X171721904Y-139957200D01*
X171721904Y-139957200D02*
X171769523Y-139861961D01*
X171769523Y-139861961D02*
X171769523Y-139814342D01*
X171769523Y-139814342D02*
X171721904Y-139719104D01*
X171721904Y-139719104D02*
X171626666Y-139671485D01*
X171626666Y-139671485D02*
X171483809Y-139671485D01*
X171483809Y-139671485D02*
X171388571Y-139623866D01*
X171388571Y-139623866D02*
X171340952Y-139528628D01*
X171340952Y-139528628D02*
X171340952Y-139481009D01*
X171340952Y-139481009D02*
X171388571Y-139385771D01*
X171388571Y-139385771D02*
X171483809Y-139338152D01*
X171483809Y-139338152D02*
X171626666Y-139338152D01*
X171626666Y-139338152D02*
X171721904Y-139385771D01*
X172055238Y-139338152D02*
X172436190Y-139338152D01*
X172198095Y-139004819D02*
X172198095Y-139861961D01*
X172198095Y-139861961D02*
X172245714Y-139957200D01*
X172245714Y-139957200D02*
X172340952Y-140004819D01*
X172340952Y-140004819D02*
X172436190Y-140004819D01*
X172769524Y-140004819D02*
X172769524Y-139004819D01*
X172769524Y-139004819D02*
X173150476Y-139004819D01*
X173150476Y-139004819D02*
X173245714Y-139052438D01*
X173245714Y-139052438D02*
X173293333Y-139100057D01*
X173293333Y-139100057D02*
X173340952Y-139195295D01*
X173340952Y-139195295D02*
X173340952Y-139338152D01*
X173340952Y-139338152D02*
X173293333Y-139433390D01*
X173293333Y-139433390D02*
X173245714Y-139481009D01*
X173245714Y-139481009D02*
X173150476Y-139528628D01*
X173150476Y-139528628D02*
X172769524Y-139528628D01*
X173912381Y-140004819D02*
X173817143Y-139957200D01*
X173817143Y-139957200D02*
X173769524Y-139909580D01*
X173769524Y-139909580D02*
X173721905Y-139814342D01*
X173721905Y-139814342D02*
X173721905Y-139528628D01*
X173721905Y-139528628D02*
X173769524Y-139433390D01*
X173769524Y-139433390D02*
X173817143Y-139385771D01*
X173817143Y-139385771D02*
X173912381Y-139338152D01*
X173912381Y-139338152D02*
X174055238Y-139338152D01*
X174055238Y-139338152D02*
X174150476Y-139385771D01*
X174150476Y-139385771D02*
X174198095Y-139433390D01*
X174198095Y-139433390D02*
X174245714Y-139528628D01*
X174245714Y-139528628D02*
X174245714Y-139814342D01*
X174245714Y-139814342D02*
X174198095Y-139909580D01*
X174198095Y-139909580D02*
X174150476Y-139957200D01*
X174150476Y-139957200D02*
X174055238Y-140004819D01*
X174055238Y-140004819D02*
X173912381Y-140004819D01*
X174674286Y-140004819D02*
X174674286Y-139338152D01*
X174674286Y-139004819D02*
X174626667Y-139052438D01*
X174626667Y-139052438D02*
X174674286Y-139100057D01*
X174674286Y-139100057D02*
X174721905Y-139052438D01*
X174721905Y-139052438D02*
X174674286Y-139004819D01*
X174674286Y-139004819D02*
X174674286Y-139100057D01*
X175150476Y-139338152D02*
X175150476Y-140004819D01*
X175150476Y-139433390D02*
X175198095Y-139385771D01*
X175198095Y-139385771D02*
X175293333Y-139338152D01*
X175293333Y-139338152D02*
X175436190Y-139338152D01*
X175436190Y-139338152D02*
X175531428Y-139385771D01*
X175531428Y-139385771D02*
X175579047Y-139481009D01*
X175579047Y-139481009D02*
X175579047Y-140004819D01*
X175912381Y-139338152D02*
X176293333Y-139338152D01*
X176055238Y-139004819D02*
X176055238Y-139861961D01*
X176055238Y-139861961D02*
X176102857Y-139957200D01*
X176102857Y-139957200D02*
X176198095Y-140004819D01*
X176198095Y-140004819D02*
X176293333Y-140004819D01*
X176550476Y-138904819D02*
X176550476Y-139619104D01*
X176550476Y-139619104D02*
X176502857Y-139761961D01*
X176502857Y-139761961D02*
X176407619Y-139857200D01*
X176407619Y-139857200D02*
X176264762Y-139904819D01*
X176264762Y-139904819D02*
X176169524Y-139904819D01*
X177550476Y-139904819D02*
X176979048Y-139904819D01*
X177264762Y-139904819D02*
X177264762Y-138904819D01*
X177264762Y-138904819D02*
X177169524Y-139047676D01*
X177169524Y-139047676D02*
X177074286Y-139142914D01*
X177074286Y-139142914D02*
X176979048Y-139190533D01*
X178169524Y-138904819D02*
X178264762Y-138904819D01*
X178264762Y-138904819D02*
X178360000Y-138952438D01*
X178360000Y-138952438D02*
X178407619Y-139000057D01*
X178407619Y-139000057D02*
X178455238Y-139095295D01*
X178455238Y-139095295D02*
X178502857Y-139285771D01*
X178502857Y-139285771D02*
X178502857Y-139523866D01*
X178502857Y-139523866D02*
X178455238Y-139714342D01*
X178455238Y-139714342D02*
X178407619Y-139809580D01*
X178407619Y-139809580D02*
X178360000Y-139857200D01*
X178360000Y-139857200D02*
X178264762Y-139904819D01*
X178264762Y-139904819D02*
X178169524Y-139904819D01*
X178169524Y-139904819D02*
X178074286Y-139857200D01*
X178074286Y-139857200D02*
X178026667Y-139809580D01*
X178026667Y-139809580D02*
X177979048Y-139714342D01*
X177979048Y-139714342D02*
X177931429Y-139523866D01*
X177931429Y-139523866D02*
X177931429Y-139285771D01*
X177931429Y-139285771D02*
X177979048Y-139095295D01*
X177979048Y-139095295D02*
X178026667Y-139000057D01*
X178026667Y-139000057D02*
X178074286Y-138952438D01*
X178074286Y-138952438D02*
X178169524Y-138904819D01*
D10*
X125562143Y-210439080D02*
X125743571Y-210499556D01*
X125743571Y-210499556D02*
X125804048Y-210560032D01*
X125804048Y-210560032D02*
X125864524Y-210680984D01*
X125864524Y-210680984D02*
X125864524Y-210862413D01*
X125864524Y-210862413D02*
X125804048Y-210983365D01*
X125804048Y-210983365D02*
X125743571Y-211043842D01*
X125743571Y-211043842D02*
X125622619Y-211104318D01*
X125622619Y-211104318D02*
X125138809Y-211104318D01*
X125138809Y-211104318D02*
X125138809Y-209834318D01*
X125138809Y-209834318D02*
X125562143Y-209834318D01*
X125562143Y-209834318D02*
X125683095Y-209894794D01*
X125683095Y-209894794D02*
X125743571Y-209955270D01*
X125743571Y-209955270D02*
X125804048Y-210076222D01*
X125804048Y-210076222D02*
X125804048Y-210197175D01*
X125804048Y-210197175D02*
X125743571Y-210318127D01*
X125743571Y-210318127D02*
X125683095Y-210378603D01*
X125683095Y-210378603D02*
X125562143Y-210439080D01*
X125562143Y-210439080D02*
X125138809Y-210439080D01*
X126227381Y-209834318D02*
X126953095Y-209834318D01*
X126590238Y-211104318D02*
X126590238Y-209834318D01*
X127436905Y-211104318D02*
X127678809Y-211104318D01*
X127678809Y-211104318D02*
X127799762Y-211043842D01*
X127799762Y-211043842D02*
X127860238Y-210983365D01*
X127860238Y-210983365D02*
X127981190Y-210801937D01*
X127981190Y-210801937D02*
X128041667Y-210560032D01*
X128041667Y-210560032D02*
X128041667Y-210076222D01*
X128041667Y-210076222D02*
X127981190Y-209955270D01*
X127981190Y-209955270D02*
X127920714Y-209894794D01*
X127920714Y-209894794D02*
X127799762Y-209834318D01*
X127799762Y-209834318D02*
X127557857Y-209834318D01*
X127557857Y-209834318D02*
X127436905Y-209894794D01*
X127436905Y-209894794D02*
X127376428Y-209955270D01*
X127376428Y-209955270D02*
X127315952Y-210076222D01*
X127315952Y-210076222D02*
X127315952Y-210378603D01*
X127315952Y-210378603D02*
X127376428Y-210499556D01*
X127376428Y-210499556D02*
X127436905Y-210560032D01*
X127436905Y-210560032D02*
X127557857Y-210620508D01*
X127557857Y-210620508D02*
X127799762Y-210620508D01*
X127799762Y-210620508D02*
X127920714Y-210560032D01*
X127920714Y-210560032D02*
X127981190Y-210499556D01*
X127981190Y-210499556D02*
X128041667Y-210378603D01*
X267182143Y-139189080D02*
X267363571Y-139249556D01*
X267363571Y-139249556D02*
X267424048Y-139310032D01*
X267424048Y-139310032D02*
X267484524Y-139430984D01*
X267484524Y-139430984D02*
X267484524Y-139612413D01*
X267484524Y-139612413D02*
X267424048Y-139733365D01*
X267424048Y-139733365D02*
X267363571Y-139793842D01*
X267363571Y-139793842D02*
X267242619Y-139854318D01*
X267242619Y-139854318D02*
X266758809Y-139854318D01*
X266758809Y-139854318D02*
X266758809Y-138584318D01*
X266758809Y-138584318D02*
X267182143Y-138584318D01*
X267182143Y-138584318D02*
X267303095Y-138644794D01*
X267303095Y-138644794D02*
X267363571Y-138705270D01*
X267363571Y-138705270D02*
X267424048Y-138826222D01*
X267424048Y-138826222D02*
X267424048Y-138947175D01*
X267424048Y-138947175D02*
X267363571Y-139068127D01*
X267363571Y-139068127D02*
X267303095Y-139128603D01*
X267303095Y-139128603D02*
X267182143Y-139189080D01*
X267182143Y-139189080D02*
X266758809Y-139189080D01*
X267847381Y-138584318D02*
X268573095Y-138584318D01*
X268210238Y-139854318D02*
X268210238Y-138584318D01*
X268935952Y-138705270D02*
X268996428Y-138644794D01*
X268996428Y-138644794D02*
X269117381Y-138584318D01*
X269117381Y-138584318D02*
X269419762Y-138584318D01*
X269419762Y-138584318D02*
X269540714Y-138644794D01*
X269540714Y-138644794D02*
X269601190Y-138705270D01*
X269601190Y-138705270D02*
X269661667Y-138826222D01*
X269661667Y-138826222D02*
X269661667Y-138947175D01*
X269661667Y-138947175D02*
X269601190Y-139128603D01*
X269601190Y-139128603D02*
X268875476Y-139854318D01*
X268875476Y-139854318D02*
X269661667Y-139854318D01*
D11*
X62836666Y-221727419D02*
X63408094Y-221727419D01*
X63122380Y-222727419D02*
X63122380Y-221727419D01*
X64122380Y-222679800D02*
X64027142Y-222727419D01*
X64027142Y-222727419D02*
X63836666Y-222727419D01*
X63836666Y-222727419D02*
X63741428Y-222679800D01*
X63741428Y-222679800D02*
X63693809Y-222584561D01*
X63693809Y-222584561D02*
X63693809Y-222203609D01*
X63693809Y-222203609D02*
X63741428Y-222108371D01*
X63741428Y-222108371D02*
X63836666Y-222060752D01*
X63836666Y-222060752D02*
X64027142Y-222060752D01*
X64027142Y-222060752D02*
X64122380Y-222108371D01*
X64122380Y-222108371D02*
X64169999Y-222203609D01*
X64169999Y-222203609D02*
X64169999Y-222298847D01*
X64169999Y-222298847D02*
X63693809Y-222394085D01*
X64550952Y-222679800D02*
X64646190Y-222727419D01*
X64646190Y-222727419D02*
X64836666Y-222727419D01*
X64836666Y-222727419D02*
X64931904Y-222679800D01*
X64931904Y-222679800D02*
X64979523Y-222584561D01*
X64979523Y-222584561D02*
X64979523Y-222536942D01*
X64979523Y-222536942D02*
X64931904Y-222441704D01*
X64931904Y-222441704D02*
X64836666Y-222394085D01*
X64836666Y-222394085D02*
X64693809Y-222394085D01*
X64693809Y-222394085D02*
X64598571Y-222346466D01*
X64598571Y-222346466D02*
X64550952Y-222251228D01*
X64550952Y-222251228D02*
X64550952Y-222203609D01*
X64550952Y-222203609D02*
X64598571Y-222108371D01*
X64598571Y-222108371D02*
X64693809Y-222060752D01*
X64693809Y-222060752D02*
X64836666Y-222060752D01*
X64836666Y-222060752D02*
X64931904Y-222108371D01*
X65265238Y-222060752D02*
X65646190Y-222060752D01*
X65408095Y-221727419D02*
X65408095Y-222584561D01*
X65408095Y-222584561D02*
X65455714Y-222679800D01*
X65455714Y-222679800D02*
X65550952Y-222727419D01*
X65550952Y-222727419D02*
X65646190Y-222727419D01*
X65979524Y-222727419D02*
X65979524Y-221727419D01*
X65979524Y-221727419D02*
X66360476Y-221727419D01*
X66360476Y-221727419D02*
X66455714Y-221775038D01*
X66455714Y-221775038D02*
X66503333Y-221822657D01*
X66503333Y-221822657D02*
X66550952Y-221917895D01*
X66550952Y-221917895D02*
X66550952Y-222060752D01*
X66550952Y-222060752D02*
X66503333Y-222155990D01*
X66503333Y-222155990D02*
X66455714Y-222203609D01*
X66455714Y-222203609D02*
X66360476Y-222251228D01*
X66360476Y-222251228D02*
X65979524Y-222251228D01*
X67122381Y-222727419D02*
X67027143Y-222679800D01*
X67027143Y-222679800D02*
X66979524Y-222632180D01*
X66979524Y-222632180D02*
X66931905Y-222536942D01*
X66931905Y-222536942D02*
X66931905Y-222251228D01*
X66931905Y-222251228D02*
X66979524Y-222155990D01*
X66979524Y-222155990D02*
X67027143Y-222108371D01*
X67027143Y-222108371D02*
X67122381Y-222060752D01*
X67122381Y-222060752D02*
X67265238Y-222060752D01*
X67265238Y-222060752D02*
X67360476Y-222108371D01*
X67360476Y-222108371D02*
X67408095Y-222155990D01*
X67408095Y-222155990D02*
X67455714Y-222251228D01*
X67455714Y-222251228D02*
X67455714Y-222536942D01*
X67455714Y-222536942D02*
X67408095Y-222632180D01*
X67408095Y-222632180D02*
X67360476Y-222679800D01*
X67360476Y-222679800D02*
X67265238Y-222727419D01*
X67265238Y-222727419D02*
X67122381Y-222727419D01*
X67884286Y-222727419D02*
X67884286Y-222060752D01*
X67884286Y-221727419D02*
X67836667Y-221775038D01*
X67836667Y-221775038D02*
X67884286Y-221822657D01*
X67884286Y-221822657D02*
X67931905Y-221775038D01*
X67931905Y-221775038D02*
X67884286Y-221727419D01*
X67884286Y-221727419D02*
X67884286Y-221822657D01*
X68360476Y-222060752D02*
X68360476Y-222727419D01*
X68360476Y-222155990D02*
X68408095Y-222108371D01*
X68408095Y-222108371D02*
X68503333Y-222060752D01*
X68503333Y-222060752D02*
X68646190Y-222060752D01*
X68646190Y-222060752D02*
X68741428Y-222108371D01*
X68741428Y-222108371D02*
X68789047Y-222203609D01*
X68789047Y-222203609D02*
X68789047Y-222727419D01*
X69122381Y-222060752D02*
X69503333Y-222060752D01*
X69265238Y-221727419D02*
X69265238Y-222584561D01*
X69265238Y-222584561D02*
X69312857Y-222679800D01*
X69312857Y-222679800D02*
X69408095Y-222727419D01*
X69408095Y-222727419D02*
X69503333Y-222727419D01*
X70236666Y-221627419D02*
X70236666Y-222341704D01*
X70236666Y-222341704D02*
X70189047Y-222484561D01*
X70189047Y-222484561D02*
X70093809Y-222579800D01*
X70093809Y-222579800D02*
X69950952Y-222627419D01*
X69950952Y-222627419D02*
X69855714Y-222627419D01*
X71141428Y-221627419D02*
X70950952Y-221627419D01*
X70950952Y-221627419D02*
X70855714Y-221675038D01*
X70855714Y-221675038D02*
X70808095Y-221722657D01*
X70808095Y-221722657D02*
X70712857Y-221865514D01*
X70712857Y-221865514D02*
X70665238Y-222055990D01*
X70665238Y-222055990D02*
X70665238Y-222436942D01*
X70665238Y-222436942D02*
X70712857Y-222532180D01*
X70712857Y-222532180D02*
X70760476Y-222579800D01*
X70760476Y-222579800D02*
X70855714Y-222627419D01*
X70855714Y-222627419D02*
X71046190Y-222627419D01*
X71046190Y-222627419D02*
X71141428Y-222579800D01*
X71141428Y-222579800D02*
X71189047Y-222532180D01*
X71189047Y-222532180D02*
X71236666Y-222436942D01*
X71236666Y-222436942D02*
X71236666Y-222198847D01*
X71236666Y-222198847D02*
X71189047Y-222103609D01*
X71189047Y-222103609D02*
X71141428Y-222055990D01*
X71141428Y-222055990D02*
X71046190Y-222008371D01*
X71046190Y-222008371D02*
X70855714Y-222008371D01*
X70855714Y-222008371D02*
X70760476Y-222055990D01*
X70760476Y-222055990D02*
X70712857Y-222103609D01*
X70712857Y-222103609D02*
X70665238Y-222198847D01*
X340138095Y-145357419D02*
X340138095Y-144357419D01*
X340138095Y-144833609D02*
X340709523Y-144833609D01*
X340709523Y-145357419D02*
X340709523Y-144357419D01*
X341090476Y-144357419D02*
X341757142Y-144357419D01*
X341757142Y-144357419D02*
X341328571Y-145357419D01*
D13*
X303578572Y-88274757D02*
X303435715Y-88203328D01*
X303435715Y-88203328D02*
X303221429Y-88203328D01*
X303221429Y-88203328D02*
X303007143Y-88274757D01*
X303007143Y-88274757D02*
X302864286Y-88417614D01*
X302864286Y-88417614D02*
X302792857Y-88560471D01*
X302792857Y-88560471D02*
X302721429Y-88846185D01*
X302721429Y-88846185D02*
X302721429Y-89060471D01*
X302721429Y-89060471D02*
X302792857Y-89346185D01*
X302792857Y-89346185D02*
X302864286Y-89489042D01*
X302864286Y-89489042D02*
X303007143Y-89631900D01*
X303007143Y-89631900D02*
X303221429Y-89703328D01*
X303221429Y-89703328D02*
X303364286Y-89703328D01*
X303364286Y-89703328D02*
X303578572Y-89631900D01*
X303578572Y-89631900D02*
X303650000Y-89560471D01*
X303650000Y-89560471D02*
X303650000Y-89060471D01*
X303650000Y-89060471D02*
X303364286Y-89060471D01*
X304507143Y-88203328D02*
X304507143Y-88560471D01*
X304150000Y-88417614D02*
X304507143Y-88560471D01*
X304507143Y-88560471D02*
X304864286Y-88417614D01*
X304292857Y-88846185D02*
X304507143Y-88560471D01*
X304507143Y-88560471D02*
X304721429Y-88846185D01*
X305650000Y-88203328D02*
X305650000Y-88560471D01*
X305292857Y-88417614D02*
X305650000Y-88560471D01*
X305650000Y-88560471D02*
X306007143Y-88417614D01*
X305435714Y-88846185D02*
X305650000Y-88560471D01*
X305650000Y-88560471D02*
X305864286Y-88846185D01*
X306792857Y-88203328D02*
X306792857Y-88560471D01*
X306435714Y-88417614D02*
X306792857Y-88560471D01*
X306792857Y-88560471D02*
X307150000Y-88417614D01*
X306578571Y-88846185D02*
X306792857Y-88560471D01*
X306792857Y-88560471D02*
X307007143Y-88846185D01*
D11*
X245387419Y-90853333D02*
X245387419Y-90281905D01*
X246387419Y-90567619D02*
X245387419Y-90567619D01*
X246339800Y-89567619D02*
X246387419Y-89662857D01*
X246387419Y-89662857D02*
X246387419Y-89853333D01*
X246387419Y-89853333D02*
X246339800Y-89948571D01*
X246339800Y-89948571D02*
X246244561Y-89996190D01*
X246244561Y-89996190D02*
X245863609Y-89996190D01*
X245863609Y-89996190D02*
X245768371Y-89948571D01*
X245768371Y-89948571D02*
X245720752Y-89853333D01*
X245720752Y-89853333D02*
X245720752Y-89662857D01*
X245720752Y-89662857D02*
X245768371Y-89567619D01*
X245768371Y-89567619D02*
X245863609Y-89520000D01*
X245863609Y-89520000D02*
X245958847Y-89520000D01*
X245958847Y-89520000D02*
X246054085Y-89996190D01*
X246339800Y-89139047D02*
X246387419Y-89043809D01*
X246387419Y-89043809D02*
X246387419Y-88853333D01*
X246387419Y-88853333D02*
X246339800Y-88758095D01*
X246339800Y-88758095D02*
X246244561Y-88710476D01*
X246244561Y-88710476D02*
X246196942Y-88710476D01*
X246196942Y-88710476D02*
X246101704Y-88758095D01*
X246101704Y-88758095D02*
X246054085Y-88853333D01*
X246054085Y-88853333D02*
X246054085Y-88996190D01*
X246054085Y-88996190D02*
X246006466Y-89091428D01*
X246006466Y-89091428D02*
X245911228Y-89139047D01*
X245911228Y-89139047D02*
X245863609Y-89139047D01*
X245863609Y-89139047D02*
X245768371Y-89091428D01*
X245768371Y-89091428D02*
X245720752Y-88996190D01*
X245720752Y-88996190D02*
X245720752Y-88853333D01*
X245720752Y-88853333D02*
X245768371Y-88758095D01*
X245720752Y-88424761D02*
X245720752Y-88043809D01*
X245387419Y-88281904D02*
X246244561Y-88281904D01*
X246244561Y-88281904D02*
X246339800Y-88234285D01*
X246339800Y-88234285D02*
X246387419Y-88139047D01*
X246387419Y-88139047D02*
X246387419Y-88043809D01*
X246387419Y-87710475D02*
X245387419Y-87710475D01*
X245387419Y-87710475D02*
X245387419Y-87329523D01*
X245387419Y-87329523D02*
X245435038Y-87234285D01*
X245435038Y-87234285D02*
X245482657Y-87186666D01*
X245482657Y-87186666D02*
X245577895Y-87139047D01*
X245577895Y-87139047D02*
X245720752Y-87139047D01*
X245720752Y-87139047D02*
X245815990Y-87186666D01*
X245815990Y-87186666D02*
X245863609Y-87234285D01*
X245863609Y-87234285D02*
X245911228Y-87329523D01*
X245911228Y-87329523D02*
X245911228Y-87710475D01*
X246387419Y-86567618D02*
X246339800Y-86662856D01*
X246339800Y-86662856D02*
X246292180Y-86710475D01*
X246292180Y-86710475D02*
X246196942Y-86758094D01*
X246196942Y-86758094D02*
X245911228Y-86758094D01*
X245911228Y-86758094D02*
X245815990Y-86710475D01*
X245815990Y-86710475D02*
X245768371Y-86662856D01*
X245768371Y-86662856D02*
X245720752Y-86567618D01*
X245720752Y-86567618D02*
X245720752Y-86424761D01*
X245720752Y-86424761D02*
X245768371Y-86329523D01*
X245768371Y-86329523D02*
X245815990Y-86281904D01*
X245815990Y-86281904D02*
X245911228Y-86234285D01*
X245911228Y-86234285D02*
X246196942Y-86234285D01*
X246196942Y-86234285D02*
X246292180Y-86281904D01*
X246292180Y-86281904D02*
X246339800Y-86329523D01*
X246339800Y-86329523D02*
X246387419Y-86424761D01*
X246387419Y-86424761D02*
X246387419Y-86567618D01*
X246387419Y-85805713D02*
X245720752Y-85805713D01*
X245387419Y-85805713D02*
X245435038Y-85853332D01*
X245435038Y-85853332D02*
X245482657Y-85805713D01*
X245482657Y-85805713D02*
X245435038Y-85758094D01*
X245435038Y-85758094D02*
X245387419Y-85805713D01*
X245387419Y-85805713D02*
X245482657Y-85805713D01*
X245720752Y-85329523D02*
X246387419Y-85329523D01*
X245815990Y-85329523D02*
X245768371Y-85281904D01*
X245768371Y-85281904D02*
X245720752Y-85186666D01*
X245720752Y-85186666D02*
X245720752Y-85043809D01*
X245720752Y-85043809D02*
X245768371Y-84948571D01*
X245768371Y-84948571D02*
X245863609Y-84900952D01*
X245863609Y-84900952D02*
X246387419Y-84900952D01*
X245720752Y-84567618D02*
X245720752Y-84186666D01*
X245387419Y-84424761D02*
X246244561Y-84424761D01*
X246244561Y-84424761D02*
X246339800Y-84377142D01*
X246339800Y-84377142D02*
X246387419Y-84281904D01*
X246387419Y-84281904D02*
X246387419Y-84186666D01*
X249787419Y-87753333D02*
X250501704Y-87753333D01*
X250501704Y-87753333D02*
X250644561Y-87800952D01*
X250644561Y-87800952D02*
X250739800Y-87896190D01*
X250739800Y-87896190D02*
X250787419Y-88039047D01*
X250787419Y-88039047D02*
X250787419Y-88134285D01*
X250787419Y-86753333D02*
X250787419Y-87324761D01*
X250787419Y-87039047D02*
X249787419Y-87039047D01*
X249787419Y-87039047D02*
X249930276Y-87134285D01*
X249930276Y-87134285D02*
X250025514Y-87229523D01*
X250025514Y-87229523D02*
X250073133Y-87324761D01*
D12*
X169626666Y-186504819D02*
X170198094Y-186504819D01*
X169912380Y-187504819D02*
X169912380Y-186504819D01*
X170912380Y-187457200D02*
X170817142Y-187504819D01*
X170817142Y-187504819D02*
X170626666Y-187504819D01*
X170626666Y-187504819D02*
X170531428Y-187457200D01*
X170531428Y-187457200D02*
X170483809Y-187361961D01*
X170483809Y-187361961D02*
X170483809Y-186981009D01*
X170483809Y-186981009D02*
X170531428Y-186885771D01*
X170531428Y-186885771D02*
X170626666Y-186838152D01*
X170626666Y-186838152D02*
X170817142Y-186838152D01*
X170817142Y-186838152D02*
X170912380Y-186885771D01*
X170912380Y-186885771D02*
X170959999Y-186981009D01*
X170959999Y-186981009D02*
X170959999Y-187076247D01*
X170959999Y-187076247D02*
X170483809Y-187171485D01*
X171340952Y-187457200D02*
X171436190Y-187504819D01*
X171436190Y-187504819D02*
X171626666Y-187504819D01*
X171626666Y-187504819D02*
X171721904Y-187457200D01*
X171721904Y-187457200D02*
X171769523Y-187361961D01*
X171769523Y-187361961D02*
X171769523Y-187314342D01*
X171769523Y-187314342D02*
X171721904Y-187219104D01*
X171721904Y-187219104D02*
X171626666Y-187171485D01*
X171626666Y-187171485D02*
X171483809Y-187171485D01*
X171483809Y-187171485D02*
X171388571Y-187123866D01*
X171388571Y-187123866D02*
X171340952Y-187028628D01*
X171340952Y-187028628D02*
X171340952Y-186981009D01*
X171340952Y-186981009D02*
X171388571Y-186885771D01*
X171388571Y-186885771D02*
X171483809Y-186838152D01*
X171483809Y-186838152D02*
X171626666Y-186838152D01*
X171626666Y-186838152D02*
X171721904Y-186885771D01*
X172055238Y-186838152D02*
X172436190Y-186838152D01*
X172198095Y-186504819D02*
X172198095Y-187361961D01*
X172198095Y-187361961D02*
X172245714Y-187457200D01*
X172245714Y-187457200D02*
X172340952Y-187504819D01*
X172340952Y-187504819D02*
X172436190Y-187504819D01*
X172769524Y-187504819D02*
X172769524Y-186504819D01*
X172769524Y-186504819D02*
X173150476Y-186504819D01*
X173150476Y-186504819D02*
X173245714Y-186552438D01*
X173245714Y-186552438D02*
X173293333Y-186600057D01*
X173293333Y-186600057D02*
X173340952Y-186695295D01*
X173340952Y-186695295D02*
X173340952Y-186838152D01*
X173340952Y-186838152D02*
X173293333Y-186933390D01*
X173293333Y-186933390D02*
X173245714Y-186981009D01*
X173245714Y-186981009D02*
X173150476Y-187028628D01*
X173150476Y-187028628D02*
X172769524Y-187028628D01*
X173912381Y-187504819D02*
X173817143Y-187457200D01*
X173817143Y-187457200D02*
X173769524Y-187409580D01*
X173769524Y-187409580D02*
X173721905Y-187314342D01*
X173721905Y-187314342D02*
X173721905Y-187028628D01*
X173721905Y-187028628D02*
X173769524Y-186933390D01*
X173769524Y-186933390D02*
X173817143Y-186885771D01*
X173817143Y-186885771D02*
X173912381Y-186838152D01*
X173912381Y-186838152D02*
X174055238Y-186838152D01*
X174055238Y-186838152D02*
X174150476Y-186885771D01*
X174150476Y-186885771D02*
X174198095Y-186933390D01*
X174198095Y-186933390D02*
X174245714Y-187028628D01*
X174245714Y-187028628D02*
X174245714Y-187314342D01*
X174245714Y-187314342D02*
X174198095Y-187409580D01*
X174198095Y-187409580D02*
X174150476Y-187457200D01*
X174150476Y-187457200D02*
X174055238Y-187504819D01*
X174055238Y-187504819D02*
X173912381Y-187504819D01*
X174674286Y-187504819D02*
X174674286Y-186838152D01*
X174674286Y-186504819D02*
X174626667Y-186552438D01*
X174626667Y-186552438D02*
X174674286Y-186600057D01*
X174674286Y-186600057D02*
X174721905Y-186552438D01*
X174721905Y-186552438D02*
X174674286Y-186504819D01*
X174674286Y-186504819D02*
X174674286Y-186600057D01*
X175150476Y-186838152D02*
X175150476Y-187504819D01*
X175150476Y-186933390D02*
X175198095Y-186885771D01*
X175198095Y-186885771D02*
X175293333Y-186838152D01*
X175293333Y-186838152D02*
X175436190Y-186838152D01*
X175436190Y-186838152D02*
X175531428Y-186885771D01*
X175531428Y-186885771D02*
X175579047Y-186981009D01*
X175579047Y-186981009D02*
X175579047Y-187504819D01*
X175912381Y-186838152D02*
X176293333Y-186838152D01*
X176055238Y-186504819D02*
X176055238Y-187361961D01*
X176055238Y-187361961D02*
X176102857Y-187457200D01*
X176102857Y-187457200D02*
X176198095Y-187504819D01*
X176198095Y-187504819D02*
X176293333Y-187504819D01*
X176550476Y-186404819D02*
X176550476Y-187119104D01*
X176550476Y-187119104D02*
X176502857Y-187261961D01*
X176502857Y-187261961D02*
X176407619Y-187357200D01*
X176407619Y-187357200D02*
X176264762Y-187404819D01*
X176264762Y-187404819D02*
X176169524Y-187404819D01*
X177550476Y-187404819D02*
X176979048Y-187404819D01*
X177264762Y-187404819D02*
X177264762Y-186404819D01*
X177264762Y-186404819D02*
X177169524Y-186547676D01*
X177169524Y-186547676D02*
X177074286Y-186642914D01*
X177074286Y-186642914D02*
X176979048Y-186690533D01*
X178407619Y-186738152D02*
X178407619Y-187404819D01*
X178169524Y-186357200D02*
X177931429Y-187071485D01*
X177931429Y-187071485D02*
X178550476Y-187071485D01*
D10*
X267182143Y-210439080D02*
X267363571Y-210499556D01*
X267363571Y-210499556D02*
X267424048Y-210560032D01*
X267424048Y-210560032D02*
X267484524Y-210680984D01*
X267484524Y-210680984D02*
X267484524Y-210862413D01*
X267484524Y-210862413D02*
X267424048Y-210983365D01*
X267424048Y-210983365D02*
X267363571Y-211043842D01*
X267363571Y-211043842D02*
X267242619Y-211104318D01*
X267242619Y-211104318D02*
X266758809Y-211104318D01*
X266758809Y-211104318D02*
X266758809Y-209834318D01*
X266758809Y-209834318D02*
X267182143Y-209834318D01*
X267182143Y-209834318D02*
X267303095Y-209894794D01*
X267303095Y-209894794D02*
X267363571Y-209955270D01*
X267363571Y-209955270D02*
X267424048Y-210076222D01*
X267424048Y-210076222D02*
X267424048Y-210197175D01*
X267424048Y-210197175D02*
X267363571Y-210318127D01*
X267363571Y-210318127D02*
X267303095Y-210378603D01*
X267303095Y-210378603D02*
X267182143Y-210439080D01*
X267182143Y-210439080D02*
X266758809Y-210439080D01*
X267847381Y-209834318D02*
X268573095Y-209834318D01*
X268210238Y-211104318D02*
X268210238Y-209834318D01*
X269601190Y-209834318D02*
X268996428Y-209834318D01*
X268996428Y-209834318D02*
X268935952Y-210439080D01*
X268935952Y-210439080D02*
X268996428Y-210378603D01*
X268996428Y-210378603D02*
X269117381Y-210318127D01*
X269117381Y-210318127D02*
X269419762Y-210318127D01*
X269419762Y-210318127D02*
X269540714Y-210378603D01*
X269540714Y-210378603D02*
X269601190Y-210439080D01*
X269601190Y-210439080D02*
X269661667Y-210560032D01*
X269661667Y-210560032D02*
X269661667Y-210862413D01*
X269661667Y-210862413D02*
X269601190Y-210983365D01*
X269601190Y-210983365D02*
X269540714Y-211043842D01*
X269540714Y-211043842D02*
X269419762Y-211104318D01*
X269419762Y-211104318D02*
X269117381Y-211104318D01*
X269117381Y-211104318D02*
X268996428Y-211043842D01*
X268996428Y-211043842D02*
X268935952Y-210983365D01*
D11*
X340138095Y-45357419D02*
X340138095Y-44357419D01*
X340138095Y-44833609D02*
X340709523Y-44833609D01*
X340709523Y-45357419D02*
X340709523Y-44357419D01*
X341138095Y-44452657D02*
X341185714Y-44405038D01*
X341185714Y-44405038D02*
X341280952Y-44357419D01*
X341280952Y-44357419D02*
X341519047Y-44357419D01*
X341519047Y-44357419D02*
X341614285Y-44405038D01*
X341614285Y-44405038D02*
X341661904Y-44452657D01*
X341661904Y-44452657D02*
X341709523Y-44547895D01*
X341709523Y-44547895D02*
X341709523Y-44643133D01*
X341709523Y-44643133D02*
X341661904Y-44785990D01*
X341661904Y-44785990D02*
X341090476Y-45357419D01*
X341090476Y-45357419D02*
X341709523Y-45357419D01*
D10*
X267182143Y-162939080D02*
X267363571Y-162999556D01*
X267363571Y-162999556D02*
X267424048Y-163060032D01*
X267424048Y-163060032D02*
X267484524Y-163180984D01*
X267484524Y-163180984D02*
X267484524Y-163362413D01*
X267484524Y-163362413D02*
X267424048Y-163483365D01*
X267424048Y-163483365D02*
X267363571Y-163543842D01*
X267363571Y-163543842D02*
X267242619Y-163604318D01*
X267242619Y-163604318D02*
X266758809Y-163604318D01*
X266758809Y-163604318D02*
X266758809Y-162334318D01*
X266758809Y-162334318D02*
X267182143Y-162334318D01*
X267182143Y-162334318D02*
X267303095Y-162394794D01*
X267303095Y-162394794D02*
X267363571Y-162455270D01*
X267363571Y-162455270D02*
X267424048Y-162576222D01*
X267424048Y-162576222D02*
X267424048Y-162697175D01*
X267424048Y-162697175D02*
X267363571Y-162818127D01*
X267363571Y-162818127D02*
X267303095Y-162878603D01*
X267303095Y-162878603D02*
X267182143Y-162939080D01*
X267182143Y-162939080D02*
X266758809Y-162939080D01*
X267847381Y-162334318D02*
X268573095Y-162334318D01*
X268210238Y-163604318D02*
X268210238Y-162334318D01*
X268875476Y-162334318D02*
X269661667Y-162334318D01*
X269661667Y-162334318D02*
X269238333Y-162818127D01*
X269238333Y-162818127D02*
X269419762Y-162818127D01*
X269419762Y-162818127D02*
X269540714Y-162878603D01*
X269540714Y-162878603D02*
X269601190Y-162939080D01*
X269601190Y-162939080D02*
X269661667Y-163060032D01*
X269661667Y-163060032D02*
X269661667Y-163362413D01*
X269661667Y-163362413D02*
X269601190Y-163483365D01*
X269601190Y-163483365D02*
X269540714Y-163543842D01*
X269540714Y-163543842D02*
X269419762Y-163604318D01*
X269419762Y-163604318D02*
X269056905Y-163604318D01*
X269056905Y-163604318D02*
X268935952Y-163543842D01*
X268935952Y-163543842D02*
X268875476Y-163483365D01*
D11*
X53138095Y-45357419D02*
X53138095Y-44357419D01*
X53138095Y-44833609D02*
X53709523Y-44833609D01*
X53709523Y-45357419D02*
X53709523Y-44357419D01*
X54709523Y-45357419D02*
X54138095Y-45357419D01*
X54423809Y-45357419D02*
X54423809Y-44357419D01*
X54423809Y-44357419D02*
X54328571Y-44500276D01*
X54328571Y-44500276D02*
X54233333Y-44595514D01*
X54233333Y-44595514D02*
X54138095Y-44643133D01*
D12*
X72626666Y-162754819D02*
X73198094Y-162754819D01*
X72912380Y-163754819D02*
X72912380Y-162754819D01*
X73912380Y-163707200D02*
X73817142Y-163754819D01*
X73817142Y-163754819D02*
X73626666Y-163754819D01*
X73626666Y-163754819D02*
X73531428Y-163707200D01*
X73531428Y-163707200D02*
X73483809Y-163611961D01*
X73483809Y-163611961D02*
X73483809Y-163231009D01*
X73483809Y-163231009D02*
X73531428Y-163135771D01*
X73531428Y-163135771D02*
X73626666Y-163088152D01*
X73626666Y-163088152D02*
X73817142Y-163088152D01*
X73817142Y-163088152D02*
X73912380Y-163135771D01*
X73912380Y-163135771D02*
X73959999Y-163231009D01*
X73959999Y-163231009D02*
X73959999Y-163326247D01*
X73959999Y-163326247D02*
X73483809Y-163421485D01*
X74340952Y-163707200D02*
X74436190Y-163754819D01*
X74436190Y-163754819D02*
X74626666Y-163754819D01*
X74626666Y-163754819D02*
X74721904Y-163707200D01*
X74721904Y-163707200D02*
X74769523Y-163611961D01*
X74769523Y-163611961D02*
X74769523Y-163564342D01*
X74769523Y-163564342D02*
X74721904Y-163469104D01*
X74721904Y-163469104D02*
X74626666Y-163421485D01*
X74626666Y-163421485D02*
X74483809Y-163421485D01*
X74483809Y-163421485D02*
X74388571Y-163373866D01*
X74388571Y-163373866D02*
X74340952Y-163278628D01*
X74340952Y-163278628D02*
X74340952Y-163231009D01*
X74340952Y-163231009D02*
X74388571Y-163135771D01*
X74388571Y-163135771D02*
X74483809Y-163088152D01*
X74483809Y-163088152D02*
X74626666Y-163088152D01*
X74626666Y-163088152D02*
X74721904Y-163135771D01*
X75055238Y-163088152D02*
X75436190Y-163088152D01*
X75198095Y-162754819D02*
X75198095Y-163611961D01*
X75198095Y-163611961D02*
X75245714Y-163707200D01*
X75245714Y-163707200D02*
X75340952Y-163754819D01*
X75340952Y-163754819D02*
X75436190Y-163754819D01*
X75769524Y-163754819D02*
X75769524Y-162754819D01*
X75769524Y-162754819D02*
X76150476Y-162754819D01*
X76150476Y-162754819D02*
X76245714Y-162802438D01*
X76245714Y-162802438D02*
X76293333Y-162850057D01*
X76293333Y-162850057D02*
X76340952Y-162945295D01*
X76340952Y-162945295D02*
X76340952Y-163088152D01*
X76340952Y-163088152D02*
X76293333Y-163183390D01*
X76293333Y-163183390D02*
X76245714Y-163231009D01*
X76245714Y-163231009D02*
X76150476Y-163278628D01*
X76150476Y-163278628D02*
X75769524Y-163278628D01*
X76912381Y-163754819D02*
X76817143Y-163707200D01*
X76817143Y-163707200D02*
X76769524Y-163659580D01*
X76769524Y-163659580D02*
X76721905Y-163564342D01*
X76721905Y-163564342D02*
X76721905Y-163278628D01*
X76721905Y-163278628D02*
X76769524Y-163183390D01*
X76769524Y-163183390D02*
X76817143Y-163135771D01*
X76817143Y-163135771D02*
X76912381Y-163088152D01*
X76912381Y-163088152D02*
X77055238Y-163088152D01*
X77055238Y-163088152D02*
X77150476Y-163135771D01*
X77150476Y-163135771D02*
X77198095Y-163183390D01*
X77198095Y-163183390D02*
X77245714Y-163278628D01*
X77245714Y-163278628D02*
X77245714Y-163564342D01*
X77245714Y-163564342D02*
X77198095Y-163659580D01*
X77198095Y-163659580D02*
X77150476Y-163707200D01*
X77150476Y-163707200D02*
X77055238Y-163754819D01*
X77055238Y-163754819D02*
X76912381Y-163754819D01*
X77674286Y-163754819D02*
X77674286Y-163088152D01*
X77674286Y-162754819D02*
X77626667Y-162802438D01*
X77626667Y-162802438D02*
X77674286Y-162850057D01*
X77674286Y-162850057D02*
X77721905Y-162802438D01*
X77721905Y-162802438D02*
X77674286Y-162754819D01*
X77674286Y-162754819D02*
X77674286Y-162850057D01*
X78150476Y-163088152D02*
X78150476Y-163754819D01*
X78150476Y-163183390D02*
X78198095Y-163135771D01*
X78198095Y-163135771D02*
X78293333Y-163088152D01*
X78293333Y-163088152D02*
X78436190Y-163088152D01*
X78436190Y-163088152D02*
X78531428Y-163135771D01*
X78531428Y-163135771D02*
X78579047Y-163231009D01*
X78579047Y-163231009D02*
X78579047Y-163754819D01*
X78912381Y-163088152D02*
X79293333Y-163088152D01*
X79055238Y-162754819D02*
X79055238Y-163611961D01*
X79055238Y-163611961D02*
X79102857Y-163707200D01*
X79102857Y-163707200D02*
X79198095Y-163754819D01*
X79198095Y-163754819D02*
X79293333Y-163754819D01*
X79550476Y-162654819D02*
X79550476Y-163369104D01*
X79550476Y-163369104D02*
X79502857Y-163511961D01*
X79502857Y-163511961D02*
X79407619Y-163607200D01*
X79407619Y-163607200D02*
X79264762Y-163654819D01*
X79264762Y-163654819D02*
X79169524Y-163654819D01*
X80550476Y-163654819D02*
X79979048Y-163654819D01*
X80264762Y-163654819D02*
X80264762Y-162654819D01*
X80264762Y-162654819D02*
X80169524Y-162797676D01*
X80169524Y-162797676D02*
X80074286Y-162892914D01*
X80074286Y-162892914D02*
X79979048Y-162940533D01*
X80883810Y-162654819D02*
X81502857Y-162654819D01*
X81502857Y-162654819D02*
X81169524Y-163035771D01*
X81169524Y-163035771D02*
X81312381Y-163035771D01*
X81312381Y-163035771D02*
X81407619Y-163083390D01*
X81407619Y-163083390D02*
X81455238Y-163131009D01*
X81455238Y-163131009D02*
X81502857Y-163226247D01*
X81502857Y-163226247D02*
X81502857Y-163464342D01*
X81502857Y-163464342D02*
X81455238Y-163559580D01*
X81455238Y-163559580D02*
X81407619Y-163607200D01*
X81407619Y-163607200D02*
X81312381Y-163654819D01*
X81312381Y-163654819D02*
X81026667Y-163654819D01*
X81026667Y-163654819D02*
X80931429Y-163607200D01*
X80931429Y-163607200D02*
X80883810Y-163559580D01*
D10*
X125562143Y-139189080D02*
X125743571Y-139249556D01*
X125743571Y-139249556D02*
X125804048Y-139310032D01*
X125804048Y-139310032D02*
X125864524Y-139430984D01*
X125864524Y-139430984D02*
X125864524Y-139612413D01*
X125864524Y-139612413D02*
X125804048Y-139733365D01*
X125804048Y-139733365D02*
X125743571Y-139793842D01*
X125743571Y-139793842D02*
X125622619Y-139854318D01*
X125622619Y-139854318D02*
X125138809Y-139854318D01*
X125138809Y-139854318D02*
X125138809Y-138584318D01*
X125138809Y-138584318D02*
X125562143Y-138584318D01*
X125562143Y-138584318D02*
X125683095Y-138644794D01*
X125683095Y-138644794D02*
X125743571Y-138705270D01*
X125743571Y-138705270D02*
X125804048Y-138826222D01*
X125804048Y-138826222D02*
X125804048Y-138947175D01*
X125804048Y-138947175D02*
X125743571Y-139068127D01*
X125743571Y-139068127D02*
X125683095Y-139128603D01*
X125683095Y-139128603D02*
X125562143Y-139189080D01*
X125562143Y-139189080D02*
X125138809Y-139189080D01*
X126227381Y-138584318D02*
X126953095Y-138584318D01*
X126590238Y-139854318D02*
X126590238Y-138584318D01*
X127920714Y-138584318D02*
X127678809Y-138584318D01*
X127678809Y-138584318D02*
X127557857Y-138644794D01*
X127557857Y-138644794D02*
X127497381Y-138705270D01*
X127497381Y-138705270D02*
X127376428Y-138886699D01*
X127376428Y-138886699D02*
X127315952Y-139128603D01*
X127315952Y-139128603D02*
X127315952Y-139612413D01*
X127315952Y-139612413D02*
X127376428Y-139733365D01*
X127376428Y-139733365D02*
X127436905Y-139793842D01*
X127436905Y-139793842D02*
X127557857Y-139854318D01*
X127557857Y-139854318D02*
X127799762Y-139854318D01*
X127799762Y-139854318D02*
X127920714Y-139793842D01*
X127920714Y-139793842D02*
X127981190Y-139733365D01*
X127981190Y-139733365D02*
X128041667Y-139612413D01*
X128041667Y-139612413D02*
X128041667Y-139310032D01*
X128041667Y-139310032D02*
X127981190Y-139189080D01*
X127981190Y-139189080D02*
X127920714Y-139128603D01*
X127920714Y-139128603D02*
X127799762Y-139068127D01*
X127799762Y-139068127D02*
X127557857Y-139068127D01*
X127557857Y-139068127D02*
X127436905Y-139128603D01*
X127436905Y-139128603D02*
X127376428Y-139189080D01*
X127376428Y-139189080D02*
X127315952Y-139310032D01*
D11*
X53138095Y-245357419D02*
X53138095Y-244357419D01*
X53138095Y-244833609D02*
X53709523Y-244833609D01*
X53709523Y-245357419D02*
X53709523Y-244357419D01*
X54614285Y-244690752D02*
X54614285Y-245357419D01*
X54376190Y-244309800D02*
X54138095Y-245024085D01*
X54138095Y-245024085D02*
X54757142Y-245024085D01*
D12*
X169626666Y-162754819D02*
X170198094Y-162754819D01*
X169912380Y-163754819D02*
X169912380Y-162754819D01*
X170912380Y-163707200D02*
X170817142Y-163754819D01*
X170817142Y-163754819D02*
X170626666Y-163754819D01*
X170626666Y-163754819D02*
X170531428Y-163707200D01*
X170531428Y-163707200D02*
X170483809Y-163611961D01*
X170483809Y-163611961D02*
X170483809Y-163231009D01*
X170483809Y-163231009D02*
X170531428Y-163135771D01*
X170531428Y-163135771D02*
X170626666Y-163088152D01*
X170626666Y-163088152D02*
X170817142Y-163088152D01*
X170817142Y-163088152D02*
X170912380Y-163135771D01*
X170912380Y-163135771D02*
X170959999Y-163231009D01*
X170959999Y-163231009D02*
X170959999Y-163326247D01*
X170959999Y-163326247D02*
X170483809Y-163421485D01*
X171340952Y-163707200D02*
X171436190Y-163754819D01*
X171436190Y-163754819D02*
X171626666Y-163754819D01*
X171626666Y-163754819D02*
X171721904Y-163707200D01*
X171721904Y-163707200D02*
X171769523Y-163611961D01*
X171769523Y-163611961D02*
X171769523Y-163564342D01*
X171769523Y-163564342D02*
X171721904Y-163469104D01*
X171721904Y-163469104D02*
X171626666Y-163421485D01*
X171626666Y-163421485D02*
X171483809Y-163421485D01*
X171483809Y-163421485D02*
X171388571Y-163373866D01*
X171388571Y-163373866D02*
X171340952Y-163278628D01*
X171340952Y-163278628D02*
X171340952Y-163231009D01*
X171340952Y-163231009D02*
X171388571Y-163135771D01*
X171388571Y-163135771D02*
X171483809Y-163088152D01*
X171483809Y-163088152D02*
X171626666Y-163088152D01*
X171626666Y-163088152D02*
X171721904Y-163135771D01*
X172055238Y-163088152D02*
X172436190Y-163088152D01*
X172198095Y-162754819D02*
X172198095Y-163611961D01*
X172198095Y-163611961D02*
X172245714Y-163707200D01*
X172245714Y-163707200D02*
X172340952Y-163754819D01*
X172340952Y-163754819D02*
X172436190Y-163754819D01*
X172769524Y-163754819D02*
X172769524Y-162754819D01*
X172769524Y-162754819D02*
X173150476Y-162754819D01*
X173150476Y-162754819D02*
X173245714Y-162802438D01*
X173245714Y-162802438D02*
X173293333Y-162850057D01*
X173293333Y-162850057D02*
X173340952Y-162945295D01*
X173340952Y-162945295D02*
X173340952Y-163088152D01*
X173340952Y-163088152D02*
X173293333Y-163183390D01*
X173293333Y-163183390D02*
X173245714Y-163231009D01*
X173245714Y-163231009D02*
X173150476Y-163278628D01*
X173150476Y-163278628D02*
X172769524Y-163278628D01*
X173912381Y-163754819D02*
X173817143Y-163707200D01*
X173817143Y-163707200D02*
X173769524Y-163659580D01*
X173769524Y-163659580D02*
X173721905Y-163564342D01*
X173721905Y-163564342D02*
X173721905Y-163278628D01*
X173721905Y-163278628D02*
X173769524Y-163183390D01*
X173769524Y-163183390D02*
X173817143Y-163135771D01*
X173817143Y-163135771D02*
X173912381Y-163088152D01*
X173912381Y-163088152D02*
X174055238Y-163088152D01*
X174055238Y-163088152D02*
X174150476Y-163135771D01*
X174150476Y-163135771D02*
X174198095Y-163183390D01*
X174198095Y-163183390D02*
X174245714Y-163278628D01*
X174245714Y-163278628D02*
X174245714Y-163564342D01*
X174245714Y-163564342D02*
X174198095Y-163659580D01*
X174198095Y-163659580D02*
X174150476Y-163707200D01*
X174150476Y-163707200D02*
X174055238Y-163754819D01*
X174055238Y-163754819D02*
X173912381Y-163754819D01*
X174674286Y-163754819D02*
X174674286Y-163088152D01*
X174674286Y-162754819D02*
X174626667Y-162802438D01*
X174626667Y-162802438D02*
X174674286Y-162850057D01*
X174674286Y-162850057D02*
X174721905Y-162802438D01*
X174721905Y-162802438D02*
X174674286Y-162754819D01*
X174674286Y-162754819D02*
X174674286Y-162850057D01*
X175150476Y-163088152D02*
X175150476Y-163754819D01*
X175150476Y-163183390D02*
X175198095Y-163135771D01*
X175198095Y-163135771D02*
X175293333Y-163088152D01*
X175293333Y-163088152D02*
X175436190Y-163088152D01*
X175436190Y-163088152D02*
X175531428Y-163135771D01*
X175531428Y-163135771D02*
X175579047Y-163231009D01*
X175579047Y-163231009D02*
X175579047Y-163754819D01*
X175912381Y-163088152D02*
X176293333Y-163088152D01*
X176055238Y-162754819D02*
X176055238Y-163611961D01*
X176055238Y-163611961D02*
X176102857Y-163707200D01*
X176102857Y-163707200D02*
X176198095Y-163754819D01*
X176198095Y-163754819D02*
X176293333Y-163754819D01*
X176550476Y-162654819D02*
X176550476Y-163369104D01*
X176550476Y-163369104D02*
X176502857Y-163511961D01*
X176502857Y-163511961D02*
X176407619Y-163607200D01*
X176407619Y-163607200D02*
X176264762Y-163654819D01*
X176264762Y-163654819D02*
X176169524Y-163654819D01*
X177550476Y-163654819D02*
X176979048Y-163654819D01*
X177264762Y-163654819D02*
X177264762Y-162654819D01*
X177264762Y-162654819D02*
X177169524Y-162797676D01*
X177169524Y-162797676D02*
X177074286Y-162892914D01*
X177074286Y-162892914D02*
X176979048Y-162940533D01*
X177931429Y-162750057D02*
X177979048Y-162702438D01*
X177979048Y-162702438D02*
X178074286Y-162654819D01*
X178074286Y-162654819D02*
X178312381Y-162654819D01*
X178312381Y-162654819D02*
X178407619Y-162702438D01*
X178407619Y-162702438D02*
X178455238Y-162750057D01*
X178455238Y-162750057D02*
X178502857Y-162845295D01*
X178502857Y-162845295D02*
X178502857Y-162940533D01*
X178502857Y-162940533D02*
X178455238Y-163083390D01*
X178455238Y-163083390D02*
X177883810Y-163654819D01*
X177883810Y-163654819D02*
X178502857Y-163654819D01*
D11*
X340138095Y-245357419D02*
X340138095Y-244357419D01*
X340138095Y-244833609D02*
X340709523Y-244833609D01*
X340709523Y-245357419D02*
X340709523Y-244357419D01*
X341090476Y-244357419D02*
X341709523Y-244357419D01*
X341709523Y-244357419D02*
X341376190Y-244738371D01*
X341376190Y-244738371D02*
X341519047Y-244738371D01*
X341519047Y-244738371D02*
X341614285Y-244785990D01*
X341614285Y-244785990D02*
X341661904Y-244833609D01*
X341661904Y-244833609D02*
X341709523Y-244928847D01*
X341709523Y-244928847D02*
X341709523Y-245166942D01*
X341709523Y-245166942D02*
X341661904Y-245262180D01*
X341661904Y-245262180D02*
X341614285Y-245309800D01*
X341614285Y-245309800D02*
X341519047Y-245357419D01*
X341519047Y-245357419D02*
X341233333Y-245357419D01*
X341233333Y-245357419D02*
X341138095Y-245309800D01*
X341138095Y-245309800D02*
X341090476Y-245262180D01*
D12*
X169626666Y-210254819D02*
X170198094Y-210254819D01*
X169912380Y-211254819D02*
X169912380Y-210254819D01*
X170912380Y-211207200D02*
X170817142Y-211254819D01*
X170817142Y-211254819D02*
X170626666Y-211254819D01*
X170626666Y-211254819D02*
X170531428Y-211207200D01*
X170531428Y-211207200D02*
X170483809Y-211111961D01*
X170483809Y-211111961D02*
X170483809Y-210731009D01*
X170483809Y-210731009D02*
X170531428Y-210635771D01*
X170531428Y-210635771D02*
X170626666Y-210588152D01*
X170626666Y-210588152D02*
X170817142Y-210588152D01*
X170817142Y-210588152D02*
X170912380Y-210635771D01*
X170912380Y-210635771D02*
X170959999Y-210731009D01*
X170959999Y-210731009D02*
X170959999Y-210826247D01*
X170959999Y-210826247D02*
X170483809Y-210921485D01*
X171340952Y-211207200D02*
X171436190Y-211254819D01*
X171436190Y-211254819D02*
X171626666Y-211254819D01*
X171626666Y-211254819D02*
X171721904Y-211207200D01*
X171721904Y-211207200D02*
X171769523Y-211111961D01*
X171769523Y-211111961D02*
X171769523Y-211064342D01*
X171769523Y-211064342D02*
X171721904Y-210969104D01*
X171721904Y-210969104D02*
X171626666Y-210921485D01*
X171626666Y-210921485D02*
X171483809Y-210921485D01*
X171483809Y-210921485D02*
X171388571Y-210873866D01*
X171388571Y-210873866D02*
X171340952Y-210778628D01*
X171340952Y-210778628D02*
X171340952Y-210731009D01*
X171340952Y-210731009D02*
X171388571Y-210635771D01*
X171388571Y-210635771D02*
X171483809Y-210588152D01*
X171483809Y-210588152D02*
X171626666Y-210588152D01*
X171626666Y-210588152D02*
X171721904Y-210635771D01*
X172055238Y-210588152D02*
X172436190Y-210588152D01*
X172198095Y-210254819D02*
X172198095Y-211111961D01*
X172198095Y-211111961D02*
X172245714Y-211207200D01*
X172245714Y-211207200D02*
X172340952Y-211254819D01*
X172340952Y-211254819D02*
X172436190Y-211254819D01*
X172769524Y-211254819D02*
X172769524Y-210254819D01*
X172769524Y-210254819D02*
X173150476Y-210254819D01*
X173150476Y-210254819D02*
X173245714Y-210302438D01*
X173245714Y-210302438D02*
X173293333Y-210350057D01*
X173293333Y-210350057D02*
X173340952Y-210445295D01*
X173340952Y-210445295D02*
X173340952Y-210588152D01*
X173340952Y-210588152D02*
X173293333Y-210683390D01*
X173293333Y-210683390D02*
X173245714Y-210731009D01*
X173245714Y-210731009D02*
X173150476Y-210778628D01*
X173150476Y-210778628D02*
X172769524Y-210778628D01*
X173912381Y-211254819D02*
X173817143Y-211207200D01*
X173817143Y-211207200D02*
X173769524Y-211159580D01*
X173769524Y-211159580D02*
X173721905Y-211064342D01*
X173721905Y-211064342D02*
X173721905Y-210778628D01*
X173721905Y-210778628D02*
X173769524Y-210683390D01*
X173769524Y-210683390D02*
X173817143Y-210635771D01*
X173817143Y-210635771D02*
X173912381Y-210588152D01*
X173912381Y-210588152D02*
X174055238Y-210588152D01*
X174055238Y-210588152D02*
X174150476Y-210635771D01*
X174150476Y-210635771D02*
X174198095Y-210683390D01*
X174198095Y-210683390D02*
X174245714Y-210778628D01*
X174245714Y-210778628D02*
X174245714Y-211064342D01*
X174245714Y-211064342D02*
X174198095Y-211159580D01*
X174198095Y-211159580D02*
X174150476Y-211207200D01*
X174150476Y-211207200D02*
X174055238Y-211254819D01*
X174055238Y-211254819D02*
X173912381Y-211254819D01*
X174674286Y-211254819D02*
X174674286Y-210588152D01*
X174674286Y-210254819D02*
X174626667Y-210302438D01*
X174626667Y-210302438D02*
X174674286Y-210350057D01*
X174674286Y-210350057D02*
X174721905Y-210302438D01*
X174721905Y-210302438D02*
X174674286Y-210254819D01*
X174674286Y-210254819D02*
X174674286Y-210350057D01*
X175150476Y-210588152D02*
X175150476Y-211254819D01*
X175150476Y-210683390D02*
X175198095Y-210635771D01*
X175198095Y-210635771D02*
X175293333Y-210588152D01*
X175293333Y-210588152D02*
X175436190Y-210588152D01*
X175436190Y-210588152D02*
X175531428Y-210635771D01*
X175531428Y-210635771D02*
X175579047Y-210731009D01*
X175579047Y-210731009D02*
X175579047Y-211254819D01*
X175912381Y-210588152D02*
X176293333Y-210588152D01*
X176055238Y-210254819D02*
X176055238Y-211111961D01*
X176055238Y-211111961D02*
X176102857Y-211207200D01*
X176102857Y-211207200D02*
X176198095Y-211254819D01*
X176198095Y-211254819D02*
X176293333Y-211254819D01*
X176550476Y-210154819D02*
X176550476Y-210869104D01*
X176550476Y-210869104D02*
X176502857Y-211011961D01*
X176502857Y-211011961D02*
X176407619Y-211107200D01*
X176407619Y-211107200D02*
X176264762Y-211154819D01*
X176264762Y-211154819D02*
X176169524Y-211154819D01*
X177550476Y-211154819D02*
X176979048Y-211154819D01*
X177264762Y-211154819D02*
X177264762Y-210154819D01*
X177264762Y-210154819D02*
X177169524Y-210297676D01*
X177169524Y-210297676D02*
X177074286Y-210392914D01*
X177074286Y-210392914D02*
X176979048Y-210440533D01*
X178407619Y-210154819D02*
X178217143Y-210154819D01*
X178217143Y-210154819D02*
X178121905Y-210202438D01*
X178121905Y-210202438D02*
X178074286Y-210250057D01*
X178074286Y-210250057D02*
X177979048Y-210392914D01*
X177979048Y-210392914D02*
X177931429Y-210583390D01*
X177931429Y-210583390D02*
X177931429Y-210964342D01*
X177931429Y-210964342D02*
X177979048Y-211059580D01*
X177979048Y-211059580D02*
X178026667Y-211107200D01*
X178026667Y-211107200D02*
X178121905Y-211154819D01*
X178121905Y-211154819D02*
X178312381Y-211154819D01*
X178312381Y-211154819D02*
X178407619Y-211107200D01*
X178407619Y-211107200D02*
X178455238Y-211059580D01*
X178455238Y-211059580D02*
X178502857Y-210964342D01*
X178502857Y-210964342D02*
X178502857Y-210726247D01*
X178502857Y-210726247D02*
X178455238Y-210631009D01*
X178455238Y-210631009D02*
X178407619Y-210583390D01*
X178407619Y-210583390D02*
X178312381Y-210535771D01*
X178312381Y-210535771D02*
X178121905Y-210535771D01*
X178121905Y-210535771D02*
X178026667Y-210583390D01*
X178026667Y-210583390D02*
X177979048Y-210631009D01*
X177979048Y-210631009D02*
X177931429Y-210726247D01*
X72626666Y-210254819D02*
X73198094Y-210254819D01*
X72912380Y-211254819D02*
X72912380Y-210254819D01*
X73912380Y-211207200D02*
X73817142Y-211254819D01*
X73817142Y-211254819D02*
X73626666Y-211254819D01*
X73626666Y-211254819D02*
X73531428Y-211207200D01*
X73531428Y-211207200D02*
X73483809Y-211111961D01*
X73483809Y-211111961D02*
X73483809Y-210731009D01*
X73483809Y-210731009D02*
X73531428Y-210635771D01*
X73531428Y-210635771D02*
X73626666Y-210588152D01*
X73626666Y-210588152D02*
X73817142Y-210588152D01*
X73817142Y-210588152D02*
X73912380Y-210635771D01*
X73912380Y-210635771D02*
X73959999Y-210731009D01*
X73959999Y-210731009D02*
X73959999Y-210826247D01*
X73959999Y-210826247D02*
X73483809Y-210921485D01*
X74340952Y-211207200D02*
X74436190Y-211254819D01*
X74436190Y-211254819D02*
X74626666Y-211254819D01*
X74626666Y-211254819D02*
X74721904Y-211207200D01*
X74721904Y-211207200D02*
X74769523Y-211111961D01*
X74769523Y-211111961D02*
X74769523Y-211064342D01*
X74769523Y-211064342D02*
X74721904Y-210969104D01*
X74721904Y-210969104D02*
X74626666Y-210921485D01*
X74626666Y-210921485D02*
X74483809Y-210921485D01*
X74483809Y-210921485D02*
X74388571Y-210873866D01*
X74388571Y-210873866D02*
X74340952Y-210778628D01*
X74340952Y-210778628D02*
X74340952Y-210731009D01*
X74340952Y-210731009D02*
X74388571Y-210635771D01*
X74388571Y-210635771D02*
X74483809Y-210588152D01*
X74483809Y-210588152D02*
X74626666Y-210588152D01*
X74626666Y-210588152D02*
X74721904Y-210635771D01*
X75055238Y-210588152D02*
X75436190Y-210588152D01*
X75198095Y-210254819D02*
X75198095Y-211111961D01*
X75198095Y-211111961D02*
X75245714Y-211207200D01*
X75245714Y-211207200D02*
X75340952Y-211254819D01*
X75340952Y-211254819D02*
X75436190Y-211254819D01*
X75769524Y-211254819D02*
X75769524Y-210254819D01*
X75769524Y-210254819D02*
X76150476Y-210254819D01*
X76150476Y-210254819D02*
X76245714Y-210302438D01*
X76245714Y-210302438D02*
X76293333Y-210350057D01*
X76293333Y-210350057D02*
X76340952Y-210445295D01*
X76340952Y-210445295D02*
X76340952Y-210588152D01*
X76340952Y-210588152D02*
X76293333Y-210683390D01*
X76293333Y-210683390D02*
X76245714Y-210731009D01*
X76245714Y-210731009D02*
X76150476Y-210778628D01*
X76150476Y-210778628D02*
X75769524Y-210778628D01*
X76912381Y-211254819D02*
X76817143Y-211207200D01*
X76817143Y-211207200D02*
X76769524Y-211159580D01*
X76769524Y-211159580D02*
X76721905Y-211064342D01*
X76721905Y-211064342D02*
X76721905Y-210778628D01*
X76721905Y-210778628D02*
X76769524Y-210683390D01*
X76769524Y-210683390D02*
X76817143Y-210635771D01*
X76817143Y-210635771D02*
X76912381Y-210588152D01*
X76912381Y-210588152D02*
X77055238Y-210588152D01*
X77055238Y-210588152D02*
X77150476Y-210635771D01*
X77150476Y-210635771D02*
X77198095Y-210683390D01*
X77198095Y-210683390D02*
X77245714Y-210778628D01*
X77245714Y-210778628D02*
X77245714Y-211064342D01*
X77245714Y-211064342D02*
X77198095Y-211159580D01*
X77198095Y-211159580D02*
X77150476Y-211207200D01*
X77150476Y-211207200D02*
X77055238Y-211254819D01*
X77055238Y-211254819D02*
X76912381Y-211254819D01*
X77674286Y-211254819D02*
X77674286Y-210588152D01*
X77674286Y-210254819D02*
X77626667Y-210302438D01*
X77626667Y-210302438D02*
X77674286Y-210350057D01*
X77674286Y-210350057D02*
X77721905Y-210302438D01*
X77721905Y-210302438D02*
X77674286Y-210254819D01*
X77674286Y-210254819D02*
X77674286Y-210350057D01*
X78150476Y-210588152D02*
X78150476Y-211254819D01*
X78150476Y-210683390D02*
X78198095Y-210635771D01*
X78198095Y-210635771D02*
X78293333Y-210588152D01*
X78293333Y-210588152D02*
X78436190Y-210588152D01*
X78436190Y-210588152D02*
X78531428Y-210635771D01*
X78531428Y-210635771D02*
X78579047Y-210731009D01*
X78579047Y-210731009D02*
X78579047Y-211254819D01*
X78912381Y-210588152D02*
X79293333Y-210588152D01*
X79055238Y-210254819D02*
X79055238Y-211111961D01*
X79055238Y-211111961D02*
X79102857Y-211207200D01*
X79102857Y-211207200D02*
X79198095Y-211254819D01*
X79198095Y-211254819D02*
X79293333Y-211254819D01*
X79550476Y-210154819D02*
X79550476Y-210869104D01*
X79550476Y-210869104D02*
X79502857Y-211011961D01*
X79502857Y-211011961D02*
X79407619Y-211107200D01*
X79407619Y-211107200D02*
X79264762Y-211154819D01*
X79264762Y-211154819D02*
X79169524Y-211154819D01*
X80550476Y-211154819D02*
X79979048Y-211154819D01*
X80264762Y-211154819D02*
X80264762Y-210154819D01*
X80264762Y-210154819D02*
X80169524Y-210297676D01*
X80169524Y-210297676D02*
X80074286Y-210392914D01*
X80074286Y-210392914D02*
X79979048Y-210440533D01*
X80883810Y-210154819D02*
X81550476Y-210154819D01*
X81550476Y-210154819D02*
X81121905Y-211154819D01*
X210566666Y-139004819D02*
X211138094Y-139004819D01*
X210852380Y-140004819D02*
X210852380Y-139004819D01*
X211852380Y-139957200D02*
X211757142Y-140004819D01*
X211757142Y-140004819D02*
X211566666Y-140004819D01*
X211566666Y-140004819D02*
X211471428Y-139957200D01*
X211471428Y-139957200D02*
X211423809Y-139861961D01*
X211423809Y-139861961D02*
X211423809Y-139481009D01*
X211423809Y-139481009D02*
X211471428Y-139385771D01*
X211471428Y-139385771D02*
X211566666Y-139338152D01*
X211566666Y-139338152D02*
X211757142Y-139338152D01*
X211757142Y-139338152D02*
X211852380Y-139385771D01*
X211852380Y-139385771D02*
X211899999Y-139481009D01*
X211899999Y-139481009D02*
X211899999Y-139576247D01*
X211899999Y-139576247D02*
X211423809Y-139671485D01*
X212280952Y-139957200D02*
X212376190Y-140004819D01*
X212376190Y-140004819D02*
X212566666Y-140004819D01*
X212566666Y-140004819D02*
X212661904Y-139957200D01*
X212661904Y-139957200D02*
X212709523Y-139861961D01*
X212709523Y-139861961D02*
X212709523Y-139814342D01*
X212709523Y-139814342D02*
X212661904Y-139719104D01*
X212661904Y-139719104D02*
X212566666Y-139671485D01*
X212566666Y-139671485D02*
X212423809Y-139671485D01*
X212423809Y-139671485D02*
X212328571Y-139623866D01*
X212328571Y-139623866D02*
X212280952Y-139528628D01*
X212280952Y-139528628D02*
X212280952Y-139481009D01*
X212280952Y-139481009D02*
X212328571Y-139385771D01*
X212328571Y-139385771D02*
X212423809Y-139338152D01*
X212423809Y-139338152D02*
X212566666Y-139338152D01*
X212566666Y-139338152D02*
X212661904Y-139385771D01*
X212995238Y-139338152D02*
X213376190Y-139338152D01*
X213138095Y-139004819D02*
X213138095Y-139861961D01*
X213138095Y-139861961D02*
X213185714Y-139957200D01*
X213185714Y-139957200D02*
X213280952Y-140004819D01*
X213280952Y-140004819D02*
X213376190Y-140004819D01*
X213709524Y-140004819D02*
X213709524Y-139004819D01*
X213709524Y-139004819D02*
X214090476Y-139004819D01*
X214090476Y-139004819D02*
X214185714Y-139052438D01*
X214185714Y-139052438D02*
X214233333Y-139100057D01*
X214233333Y-139100057D02*
X214280952Y-139195295D01*
X214280952Y-139195295D02*
X214280952Y-139338152D01*
X214280952Y-139338152D02*
X214233333Y-139433390D01*
X214233333Y-139433390D02*
X214185714Y-139481009D01*
X214185714Y-139481009D02*
X214090476Y-139528628D01*
X214090476Y-139528628D02*
X213709524Y-139528628D01*
X214852381Y-140004819D02*
X214757143Y-139957200D01*
X214757143Y-139957200D02*
X214709524Y-139909580D01*
X214709524Y-139909580D02*
X214661905Y-139814342D01*
X214661905Y-139814342D02*
X214661905Y-139528628D01*
X214661905Y-139528628D02*
X214709524Y-139433390D01*
X214709524Y-139433390D02*
X214757143Y-139385771D01*
X214757143Y-139385771D02*
X214852381Y-139338152D01*
X214852381Y-139338152D02*
X214995238Y-139338152D01*
X214995238Y-139338152D02*
X215090476Y-139385771D01*
X215090476Y-139385771D02*
X215138095Y-139433390D01*
X215138095Y-139433390D02*
X215185714Y-139528628D01*
X215185714Y-139528628D02*
X215185714Y-139814342D01*
X215185714Y-139814342D02*
X215138095Y-139909580D01*
X215138095Y-139909580D02*
X215090476Y-139957200D01*
X215090476Y-139957200D02*
X214995238Y-140004819D01*
X214995238Y-140004819D02*
X214852381Y-140004819D01*
X215614286Y-140004819D02*
X215614286Y-139338152D01*
X215614286Y-139004819D02*
X215566667Y-139052438D01*
X215566667Y-139052438D02*
X215614286Y-139100057D01*
X215614286Y-139100057D02*
X215661905Y-139052438D01*
X215661905Y-139052438D02*
X215614286Y-139004819D01*
X215614286Y-139004819D02*
X215614286Y-139100057D01*
X216090476Y-139338152D02*
X216090476Y-140004819D01*
X216090476Y-139433390D02*
X216138095Y-139385771D01*
X216138095Y-139385771D02*
X216233333Y-139338152D01*
X216233333Y-139338152D02*
X216376190Y-139338152D01*
X216376190Y-139338152D02*
X216471428Y-139385771D01*
X216471428Y-139385771D02*
X216519047Y-139481009D01*
X216519047Y-139481009D02*
X216519047Y-140004819D01*
X216852381Y-139338152D02*
X217233333Y-139338152D01*
X216995238Y-139004819D02*
X216995238Y-139861961D01*
X216995238Y-139861961D02*
X217042857Y-139957200D01*
X217042857Y-139957200D02*
X217138095Y-140004819D01*
X217138095Y-140004819D02*
X217233333Y-140004819D01*
X217966666Y-138904819D02*
X217966666Y-139619104D01*
X217966666Y-139619104D02*
X217919047Y-139761961D01*
X217919047Y-139761961D02*
X217823809Y-139857200D01*
X217823809Y-139857200D02*
X217680952Y-139904819D01*
X217680952Y-139904819D02*
X217585714Y-139904819D01*
X218347619Y-138904819D02*
X219014285Y-138904819D01*
X219014285Y-138904819D02*
X218585714Y-139904819D01*
X314926666Y-139004819D02*
X315498094Y-139004819D01*
X315212380Y-140004819D02*
X315212380Y-139004819D01*
X316212380Y-139957200D02*
X316117142Y-140004819D01*
X316117142Y-140004819D02*
X315926666Y-140004819D01*
X315926666Y-140004819D02*
X315831428Y-139957200D01*
X315831428Y-139957200D02*
X315783809Y-139861961D01*
X315783809Y-139861961D02*
X315783809Y-139481009D01*
X315783809Y-139481009D02*
X315831428Y-139385771D01*
X315831428Y-139385771D02*
X315926666Y-139338152D01*
X315926666Y-139338152D02*
X316117142Y-139338152D01*
X316117142Y-139338152D02*
X316212380Y-139385771D01*
X316212380Y-139385771D02*
X316259999Y-139481009D01*
X316259999Y-139481009D02*
X316259999Y-139576247D01*
X316259999Y-139576247D02*
X315783809Y-139671485D01*
X316640952Y-139957200D02*
X316736190Y-140004819D01*
X316736190Y-140004819D02*
X316926666Y-140004819D01*
X316926666Y-140004819D02*
X317021904Y-139957200D01*
X317021904Y-139957200D02*
X317069523Y-139861961D01*
X317069523Y-139861961D02*
X317069523Y-139814342D01*
X317069523Y-139814342D02*
X317021904Y-139719104D01*
X317021904Y-139719104D02*
X316926666Y-139671485D01*
X316926666Y-139671485D02*
X316783809Y-139671485D01*
X316783809Y-139671485D02*
X316688571Y-139623866D01*
X316688571Y-139623866D02*
X316640952Y-139528628D01*
X316640952Y-139528628D02*
X316640952Y-139481009D01*
X316640952Y-139481009D02*
X316688571Y-139385771D01*
X316688571Y-139385771D02*
X316783809Y-139338152D01*
X316783809Y-139338152D02*
X316926666Y-139338152D01*
X316926666Y-139338152D02*
X317021904Y-139385771D01*
X317355238Y-139338152D02*
X317736190Y-139338152D01*
X317498095Y-139004819D02*
X317498095Y-139861961D01*
X317498095Y-139861961D02*
X317545714Y-139957200D01*
X317545714Y-139957200D02*
X317640952Y-140004819D01*
X317640952Y-140004819D02*
X317736190Y-140004819D01*
X318069524Y-140004819D02*
X318069524Y-139004819D01*
X318069524Y-139004819D02*
X318450476Y-139004819D01*
X318450476Y-139004819D02*
X318545714Y-139052438D01*
X318545714Y-139052438D02*
X318593333Y-139100057D01*
X318593333Y-139100057D02*
X318640952Y-139195295D01*
X318640952Y-139195295D02*
X318640952Y-139338152D01*
X318640952Y-139338152D02*
X318593333Y-139433390D01*
X318593333Y-139433390D02*
X318545714Y-139481009D01*
X318545714Y-139481009D02*
X318450476Y-139528628D01*
X318450476Y-139528628D02*
X318069524Y-139528628D01*
X319212381Y-140004819D02*
X319117143Y-139957200D01*
X319117143Y-139957200D02*
X319069524Y-139909580D01*
X319069524Y-139909580D02*
X319021905Y-139814342D01*
X319021905Y-139814342D02*
X319021905Y-139528628D01*
X319021905Y-139528628D02*
X319069524Y-139433390D01*
X319069524Y-139433390D02*
X319117143Y-139385771D01*
X319117143Y-139385771D02*
X319212381Y-139338152D01*
X319212381Y-139338152D02*
X319355238Y-139338152D01*
X319355238Y-139338152D02*
X319450476Y-139385771D01*
X319450476Y-139385771D02*
X319498095Y-139433390D01*
X319498095Y-139433390D02*
X319545714Y-139528628D01*
X319545714Y-139528628D02*
X319545714Y-139814342D01*
X319545714Y-139814342D02*
X319498095Y-139909580D01*
X319498095Y-139909580D02*
X319450476Y-139957200D01*
X319450476Y-139957200D02*
X319355238Y-140004819D01*
X319355238Y-140004819D02*
X319212381Y-140004819D01*
X319974286Y-140004819D02*
X319974286Y-139338152D01*
X319974286Y-139004819D02*
X319926667Y-139052438D01*
X319926667Y-139052438D02*
X319974286Y-139100057D01*
X319974286Y-139100057D02*
X320021905Y-139052438D01*
X320021905Y-139052438D02*
X319974286Y-139004819D01*
X319974286Y-139004819D02*
X319974286Y-139100057D01*
X320450476Y-139338152D02*
X320450476Y-140004819D01*
X320450476Y-139433390D02*
X320498095Y-139385771D01*
X320498095Y-139385771D02*
X320593333Y-139338152D01*
X320593333Y-139338152D02*
X320736190Y-139338152D01*
X320736190Y-139338152D02*
X320831428Y-139385771D01*
X320831428Y-139385771D02*
X320879047Y-139481009D01*
X320879047Y-139481009D02*
X320879047Y-140004819D01*
X321212381Y-139338152D02*
X321593333Y-139338152D01*
X321355238Y-139004819D02*
X321355238Y-139861961D01*
X321355238Y-139861961D02*
X321402857Y-139957200D01*
X321402857Y-139957200D02*
X321498095Y-140004819D01*
X321498095Y-140004819D02*
X321593333Y-140004819D01*
X322326666Y-138904819D02*
X322326666Y-139619104D01*
X322326666Y-139619104D02*
X322279047Y-139761961D01*
X322279047Y-139761961D02*
X322183809Y-139857200D01*
X322183809Y-139857200D02*
X322040952Y-139904819D01*
X322040952Y-139904819D02*
X321945714Y-139904819D01*
X322707619Y-138904819D02*
X323326666Y-138904819D01*
X323326666Y-138904819D02*
X322993333Y-139285771D01*
X322993333Y-139285771D02*
X323136190Y-139285771D01*
X323136190Y-139285771D02*
X323231428Y-139333390D01*
X323231428Y-139333390D02*
X323279047Y-139381009D01*
X323279047Y-139381009D02*
X323326666Y-139476247D01*
X323326666Y-139476247D02*
X323326666Y-139714342D01*
X323326666Y-139714342D02*
X323279047Y-139809580D01*
X323279047Y-139809580D02*
X323231428Y-139857200D01*
X323231428Y-139857200D02*
X323136190Y-139904819D01*
X323136190Y-139904819D02*
X322850476Y-139904819D01*
X322850476Y-139904819D02*
X322755238Y-139857200D01*
X322755238Y-139857200D02*
X322707619Y-139809580D01*
X210566666Y-162754819D02*
X211138094Y-162754819D01*
X210852380Y-163754819D02*
X210852380Y-162754819D01*
X211852380Y-163707200D02*
X211757142Y-163754819D01*
X211757142Y-163754819D02*
X211566666Y-163754819D01*
X211566666Y-163754819D02*
X211471428Y-163707200D01*
X211471428Y-163707200D02*
X211423809Y-163611961D01*
X211423809Y-163611961D02*
X211423809Y-163231009D01*
X211423809Y-163231009D02*
X211471428Y-163135771D01*
X211471428Y-163135771D02*
X211566666Y-163088152D01*
X211566666Y-163088152D02*
X211757142Y-163088152D01*
X211757142Y-163088152D02*
X211852380Y-163135771D01*
X211852380Y-163135771D02*
X211899999Y-163231009D01*
X211899999Y-163231009D02*
X211899999Y-163326247D01*
X211899999Y-163326247D02*
X211423809Y-163421485D01*
X212280952Y-163707200D02*
X212376190Y-163754819D01*
X212376190Y-163754819D02*
X212566666Y-163754819D01*
X212566666Y-163754819D02*
X212661904Y-163707200D01*
X212661904Y-163707200D02*
X212709523Y-163611961D01*
X212709523Y-163611961D02*
X212709523Y-163564342D01*
X212709523Y-163564342D02*
X212661904Y-163469104D01*
X212661904Y-163469104D02*
X212566666Y-163421485D01*
X212566666Y-163421485D02*
X212423809Y-163421485D01*
X212423809Y-163421485D02*
X212328571Y-163373866D01*
X212328571Y-163373866D02*
X212280952Y-163278628D01*
X212280952Y-163278628D02*
X212280952Y-163231009D01*
X212280952Y-163231009D02*
X212328571Y-163135771D01*
X212328571Y-163135771D02*
X212423809Y-163088152D01*
X212423809Y-163088152D02*
X212566666Y-163088152D01*
X212566666Y-163088152D02*
X212661904Y-163135771D01*
X212995238Y-163088152D02*
X213376190Y-163088152D01*
X213138095Y-162754819D02*
X213138095Y-163611961D01*
X213138095Y-163611961D02*
X213185714Y-163707200D01*
X213185714Y-163707200D02*
X213280952Y-163754819D01*
X213280952Y-163754819D02*
X213376190Y-163754819D01*
X213709524Y-163754819D02*
X213709524Y-162754819D01*
X213709524Y-162754819D02*
X214090476Y-162754819D01*
X214090476Y-162754819D02*
X214185714Y-162802438D01*
X214185714Y-162802438D02*
X214233333Y-162850057D01*
X214233333Y-162850057D02*
X214280952Y-162945295D01*
X214280952Y-162945295D02*
X214280952Y-163088152D01*
X214280952Y-163088152D02*
X214233333Y-163183390D01*
X214233333Y-163183390D02*
X214185714Y-163231009D01*
X214185714Y-163231009D02*
X214090476Y-163278628D01*
X214090476Y-163278628D02*
X213709524Y-163278628D01*
X214852381Y-163754819D02*
X214757143Y-163707200D01*
X214757143Y-163707200D02*
X214709524Y-163659580D01*
X214709524Y-163659580D02*
X214661905Y-163564342D01*
X214661905Y-163564342D02*
X214661905Y-163278628D01*
X214661905Y-163278628D02*
X214709524Y-163183390D01*
X214709524Y-163183390D02*
X214757143Y-163135771D01*
X214757143Y-163135771D02*
X214852381Y-163088152D01*
X214852381Y-163088152D02*
X214995238Y-163088152D01*
X214995238Y-163088152D02*
X215090476Y-163135771D01*
X215090476Y-163135771D02*
X215138095Y-163183390D01*
X215138095Y-163183390D02*
X215185714Y-163278628D01*
X215185714Y-163278628D02*
X215185714Y-163564342D01*
X215185714Y-163564342D02*
X215138095Y-163659580D01*
X215138095Y-163659580D02*
X215090476Y-163707200D01*
X215090476Y-163707200D02*
X214995238Y-163754819D01*
X214995238Y-163754819D02*
X214852381Y-163754819D01*
X215614286Y-163754819D02*
X215614286Y-163088152D01*
X215614286Y-162754819D02*
X215566667Y-162802438D01*
X215566667Y-162802438D02*
X215614286Y-162850057D01*
X215614286Y-162850057D02*
X215661905Y-162802438D01*
X215661905Y-162802438D02*
X215614286Y-162754819D01*
X215614286Y-162754819D02*
X215614286Y-162850057D01*
X216090476Y-163088152D02*
X216090476Y-163754819D01*
X216090476Y-163183390D02*
X216138095Y-163135771D01*
X216138095Y-163135771D02*
X216233333Y-163088152D01*
X216233333Y-163088152D02*
X216376190Y-163088152D01*
X216376190Y-163088152D02*
X216471428Y-163135771D01*
X216471428Y-163135771D02*
X216519047Y-163231009D01*
X216519047Y-163231009D02*
X216519047Y-163754819D01*
X216852381Y-163088152D02*
X217233333Y-163088152D01*
X216995238Y-162754819D02*
X216995238Y-163611961D01*
X216995238Y-163611961D02*
X217042857Y-163707200D01*
X217042857Y-163707200D02*
X217138095Y-163754819D01*
X217138095Y-163754819D02*
X217233333Y-163754819D01*
X217490476Y-162654819D02*
X217490476Y-163369104D01*
X217490476Y-163369104D02*
X217442857Y-163511961D01*
X217442857Y-163511961D02*
X217347619Y-163607200D01*
X217347619Y-163607200D02*
X217204762Y-163654819D01*
X217204762Y-163654819D02*
X217109524Y-163654819D01*
X218490476Y-163654819D02*
X217919048Y-163654819D01*
X218204762Y-163654819D02*
X218204762Y-162654819D01*
X218204762Y-162654819D02*
X218109524Y-162797676D01*
X218109524Y-162797676D02*
X218014286Y-162892914D01*
X218014286Y-162892914D02*
X217919048Y-162940533D01*
X219061905Y-163083390D02*
X218966667Y-163035771D01*
X218966667Y-163035771D02*
X218919048Y-162988152D01*
X218919048Y-162988152D02*
X218871429Y-162892914D01*
X218871429Y-162892914D02*
X218871429Y-162845295D01*
X218871429Y-162845295D02*
X218919048Y-162750057D01*
X218919048Y-162750057D02*
X218966667Y-162702438D01*
X218966667Y-162702438D02*
X219061905Y-162654819D01*
X219061905Y-162654819D02*
X219252381Y-162654819D01*
X219252381Y-162654819D02*
X219347619Y-162702438D01*
X219347619Y-162702438D02*
X219395238Y-162750057D01*
X219395238Y-162750057D02*
X219442857Y-162845295D01*
X219442857Y-162845295D02*
X219442857Y-162892914D01*
X219442857Y-162892914D02*
X219395238Y-162988152D01*
X219395238Y-162988152D02*
X219347619Y-163035771D01*
X219347619Y-163035771D02*
X219252381Y-163083390D01*
X219252381Y-163083390D02*
X219061905Y-163083390D01*
X219061905Y-163083390D02*
X218966667Y-163131009D01*
X218966667Y-163131009D02*
X218919048Y-163178628D01*
X218919048Y-163178628D02*
X218871429Y-163273866D01*
X218871429Y-163273866D02*
X218871429Y-163464342D01*
X218871429Y-163464342D02*
X218919048Y-163559580D01*
X218919048Y-163559580D02*
X218966667Y-163607200D01*
X218966667Y-163607200D02*
X219061905Y-163654819D01*
X219061905Y-163654819D02*
X219252381Y-163654819D01*
X219252381Y-163654819D02*
X219347619Y-163607200D01*
X219347619Y-163607200D02*
X219395238Y-163559580D01*
X219395238Y-163559580D02*
X219442857Y-163464342D01*
X219442857Y-163464342D02*
X219442857Y-163273866D01*
X219442857Y-163273866D02*
X219395238Y-163178628D01*
X219395238Y-163178628D02*
X219347619Y-163131009D01*
X219347619Y-163131009D02*
X219252381Y-163083390D01*
X314926666Y-162754819D02*
X315498094Y-162754819D01*
X315212380Y-163754819D02*
X315212380Y-162754819D01*
X316212380Y-163707200D02*
X316117142Y-163754819D01*
X316117142Y-163754819D02*
X315926666Y-163754819D01*
X315926666Y-163754819D02*
X315831428Y-163707200D01*
X315831428Y-163707200D02*
X315783809Y-163611961D01*
X315783809Y-163611961D02*
X315783809Y-163231009D01*
X315783809Y-163231009D02*
X315831428Y-163135771D01*
X315831428Y-163135771D02*
X315926666Y-163088152D01*
X315926666Y-163088152D02*
X316117142Y-163088152D01*
X316117142Y-163088152D02*
X316212380Y-163135771D01*
X316212380Y-163135771D02*
X316259999Y-163231009D01*
X316259999Y-163231009D02*
X316259999Y-163326247D01*
X316259999Y-163326247D02*
X315783809Y-163421485D01*
X316640952Y-163707200D02*
X316736190Y-163754819D01*
X316736190Y-163754819D02*
X316926666Y-163754819D01*
X316926666Y-163754819D02*
X317021904Y-163707200D01*
X317021904Y-163707200D02*
X317069523Y-163611961D01*
X317069523Y-163611961D02*
X317069523Y-163564342D01*
X317069523Y-163564342D02*
X317021904Y-163469104D01*
X317021904Y-163469104D02*
X316926666Y-163421485D01*
X316926666Y-163421485D02*
X316783809Y-163421485D01*
X316783809Y-163421485D02*
X316688571Y-163373866D01*
X316688571Y-163373866D02*
X316640952Y-163278628D01*
X316640952Y-163278628D02*
X316640952Y-163231009D01*
X316640952Y-163231009D02*
X316688571Y-163135771D01*
X316688571Y-163135771D02*
X316783809Y-163088152D01*
X316783809Y-163088152D02*
X316926666Y-163088152D01*
X316926666Y-163088152D02*
X317021904Y-163135771D01*
X317355238Y-163088152D02*
X317736190Y-163088152D01*
X317498095Y-162754819D02*
X317498095Y-163611961D01*
X317498095Y-163611961D02*
X317545714Y-163707200D01*
X317545714Y-163707200D02*
X317640952Y-163754819D01*
X317640952Y-163754819D02*
X317736190Y-163754819D01*
X318069524Y-163754819D02*
X318069524Y-162754819D01*
X318069524Y-162754819D02*
X318450476Y-162754819D01*
X318450476Y-162754819D02*
X318545714Y-162802438D01*
X318545714Y-162802438D02*
X318593333Y-162850057D01*
X318593333Y-162850057D02*
X318640952Y-162945295D01*
X318640952Y-162945295D02*
X318640952Y-163088152D01*
X318640952Y-163088152D02*
X318593333Y-163183390D01*
X318593333Y-163183390D02*
X318545714Y-163231009D01*
X318545714Y-163231009D02*
X318450476Y-163278628D01*
X318450476Y-163278628D02*
X318069524Y-163278628D01*
X319212381Y-163754819D02*
X319117143Y-163707200D01*
X319117143Y-163707200D02*
X319069524Y-163659580D01*
X319069524Y-163659580D02*
X319021905Y-163564342D01*
X319021905Y-163564342D02*
X319021905Y-163278628D01*
X319021905Y-163278628D02*
X319069524Y-163183390D01*
X319069524Y-163183390D02*
X319117143Y-163135771D01*
X319117143Y-163135771D02*
X319212381Y-163088152D01*
X319212381Y-163088152D02*
X319355238Y-163088152D01*
X319355238Y-163088152D02*
X319450476Y-163135771D01*
X319450476Y-163135771D02*
X319498095Y-163183390D01*
X319498095Y-163183390D02*
X319545714Y-163278628D01*
X319545714Y-163278628D02*
X319545714Y-163564342D01*
X319545714Y-163564342D02*
X319498095Y-163659580D01*
X319498095Y-163659580D02*
X319450476Y-163707200D01*
X319450476Y-163707200D02*
X319355238Y-163754819D01*
X319355238Y-163754819D02*
X319212381Y-163754819D01*
X319974286Y-163754819D02*
X319974286Y-163088152D01*
X319974286Y-162754819D02*
X319926667Y-162802438D01*
X319926667Y-162802438D02*
X319974286Y-162850057D01*
X319974286Y-162850057D02*
X320021905Y-162802438D01*
X320021905Y-162802438D02*
X319974286Y-162754819D01*
X319974286Y-162754819D02*
X319974286Y-162850057D01*
X320450476Y-163088152D02*
X320450476Y-163754819D01*
X320450476Y-163183390D02*
X320498095Y-163135771D01*
X320498095Y-163135771D02*
X320593333Y-163088152D01*
X320593333Y-163088152D02*
X320736190Y-163088152D01*
X320736190Y-163088152D02*
X320831428Y-163135771D01*
X320831428Y-163135771D02*
X320879047Y-163231009D01*
X320879047Y-163231009D02*
X320879047Y-163754819D01*
X321212381Y-163088152D02*
X321593333Y-163088152D01*
X321355238Y-162754819D02*
X321355238Y-163611961D01*
X321355238Y-163611961D02*
X321402857Y-163707200D01*
X321402857Y-163707200D02*
X321498095Y-163754819D01*
X321498095Y-163754819D02*
X321593333Y-163754819D01*
X322326666Y-162654819D02*
X322326666Y-163369104D01*
X322326666Y-163369104D02*
X322279047Y-163511961D01*
X322279047Y-163511961D02*
X322183809Y-163607200D01*
X322183809Y-163607200D02*
X322040952Y-163654819D01*
X322040952Y-163654819D02*
X321945714Y-163654819D01*
X322945714Y-163083390D02*
X322850476Y-163035771D01*
X322850476Y-163035771D02*
X322802857Y-162988152D01*
X322802857Y-162988152D02*
X322755238Y-162892914D01*
X322755238Y-162892914D02*
X322755238Y-162845295D01*
X322755238Y-162845295D02*
X322802857Y-162750057D01*
X322802857Y-162750057D02*
X322850476Y-162702438D01*
X322850476Y-162702438D02*
X322945714Y-162654819D01*
X322945714Y-162654819D02*
X323136190Y-162654819D01*
X323136190Y-162654819D02*
X323231428Y-162702438D01*
X323231428Y-162702438D02*
X323279047Y-162750057D01*
X323279047Y-162750057D02*
X323326666Y-162845295D01*
X323326666Y-162845295D02*
X323326666Y-162892914D01*
X323326666Y-162892914D02*
X323279047Y-162988152D01*
X323279047Y-162988152D02*
X323231428Y-163035771D01*
X323231428Y-163035771D02*
X323136190Y-163083390D01*
X323136190Y-163083390D02*
X322945714Y-163083390D01*
X322945714Y-163083390D02*
X322850476Y-163131009D01*
X322850476Y-163131009D02*
X322802857Y-163178628D01*
X322802857Y-163178628D02*
X322755238Y-163273866D01*
X322755238Y-163273866D02*
X322755238Y-163464342D01*
X322755238Y-163464342D02*
X322802857Y-163559580D01*
X322802857Y-163559580D02*
X322850476Y-163607200D01*
X322850476Y-163607200D02*
X322945714Y-163654819D01*
X322945714Y-163654819D02*
X323136190Y-163654819D01*
X323136190Y-163654819D02*
X323231428Y-163607200D01*
X323231428Y-163607200D02*
X323279047Y-163559580D01*
X323279047Y-163559580D02*
X323326666Y-163464342D01*
X323326666Y-163464342D02*
X323326666Y-163273866D01*
X323326666Y-163273866D02*
X323279047Y-163178628D01*
X323279047Y-163178628D02*
X323231428Y-163131009D01*
X323231428Y-163131009D02*
X323136190Y-163083390D01*
X210566666Y-186504819D02*
X211138094Y-186504819D01*
X210852380Y-187504819D02*
X210852380Y-186504819D01*
X211852380Y-187457200D02*
X211757142Y-187504819D01*
X211757142Y-187504819D02*
X211566666Y-187504819D01*
X211566666Y-187504819D02*
X211471428Y-187457200D01*
X211471428Y-187457200D02*
X211423809Y-187361961D01*
X211423809Y-187361961D02*
X211423809Y-186981009D01*
X211423809Y-186981009D02*
X211471428Y-186885771D01*
X211471428Y-186885771D02*
X211566666Y-186838152D01*
X211566666Y-186838152D02*
X211757142Y-186838152D01*
X211757142Y-186838152D02*
X211852380Y-186885771D01*
X211852380Y-186885771D02*
X211899999Y-186981009D01*
X211899999Y-186981009D02*
X211899999Y-187076247D01*
X211899999Y-187076247D02*
X211423809Y-187171485D01*
X212280952Y-187457200D02*
X212376190Y-187504819D01*
X212376190Y-187504819D02*
X212566666Y-187504819D01*
X212566666Y-187504819D02*
X212661904Y-187457200D01*
X212661904Y-187457200D02*
X212709523Y-187361961D01*
X212709523Y-187361961D02*
X212709523Y-187314342D01*
X212709523Y-187314342D02*
X212661904Y-187219104D01*
X212661904Y-187219104D02*
X212566666Y-187171485D01*
X212566666Y-187171485D02*
X212423809Y-187171485D01*
X212423809Y-187171485D02*
X212328571Y-187123866D01*
X212328571Y-187123866D02*
X212280952Y-187028628D01*
X212280952Y-187028628D02*
X212280952Y-186981009D01*
X212280952Y-186981009D02*
X212328571Y-186885771D01*
X212328571Y-186885771D02*
X212423809Y-186838152D01*
X212423809Y-186838152D02*
X212566666Y-186838152D01*
X212566666Y-186838152D02*
X212661904Y-186885771D01*
X212995238Y-186838152D02*
X213376190Y-186838152D01*
X213138095Y-186504819D02*
X213138095Y-187361961D01*
X213138095Y-187361961D02*
X213185714Y-187457200D01*
X213185714Y-187457200D02*
X213280952Y-187504819D01*
X213280952Y-187504819D02*
X213376190Y-187504819D01*
X213709524Y-187504819D02*
X213709524Y-186504819D01*
X213709524Y-186504819D02*
X214090476Y-186504819D01*
X214090476Y-186504819D02*
X214185714Y-186552438D01*
X214185714Y-186552438D02*
X214233333Y-186600057D01*
X214233333Y-186600057D02*
X214280952Y-186695295D01*
X214280952Y-186695295D02*
X214280952Y-186838152D01*
X214280952Y-186838152D02*
X214233333Y-186933390D01*
X214233333Y-186933390D02*
X214185714Y-186981009D01*
X214185714Y-186981009D02*
X214090476Y-187028628D01*
X214090476Y-187028628D02*
X213709524Y-187028628D01*
X214852381Y-187504819D02*
X214757143Y-187457200D01*
X214757143Y-187457200D02*
X214709524Y-187409580D01*
X214709524Y-187409580D02*
X214661905Y-187314342D01*
X214661905Y-187314342D02*
X214661905Y-187028628D01*
X214661905Y-187028628D02*
X214709524Y-186933390D01*
X214709524Y-186933390D02*
X214757143Y-186885771D01*
X214757143Y-186885771D02*
X214852381Y-186838152D01*
X214852381Y-186838152D02*
X214995238Y-186838152D01*
X214995238Y-186838152D02*
X215090476Y-186885771D01*
X215090476Y-186885771D02*
X215138095Y-186933390D01*
X215138095Y-186933390D02*
X215185714Y-187028628D01*
X215185714Y-187028628D02*
X215185714Y-187314342D01*
X215185714Y-187314342D02*
X215138095Y-187409580D01*
X215138095Y-187409580D02*
X215090476Y-187457200D01*
X215090476Y-187457200D02*
X214995238Y-187504819D01*
X214995238Y-187504819D02*
X214852381Y-187504819D01*
X215614286Y-187504819D02*
X215614286Y-186838152D01*
X215614286Y-186504819D02*
X215566667Y-186552438D01*
X215566667Y-186552438D02*
X215614286Y-186600057D01*
X215614286Y-186600057D02*
X215661905Y-186552438D01*
X215661905Y-186552438D02*
X215614286Y-186504819D01*
X215614286Y-186504819D02*
X215614286Y-186600057D01*
X216090476Y-186838152D02*
X216090476Y-187504819D01*
X216090476Y-186933390D02*
X216138095Y-186885771D01*
X216138095Y-186885771D02*
X216233333Y-186838152D01*
X216233333Y-186838152D02*
X216376190Y-186838152D01*
X216376190Y-186838152D02*
X216471428Y-186885771D01*
X216471428Y-186885771D02*
X216519047Y-186981009D01*
X216519047Y-186981009D02*
X216519047Y-187504819D01*
X216852381Y-186838152D02*
X217233333Y-186838152D01*
X216995238Y-186504819D02*
X216995238Y-187361961D01*
X216995238Y-187361961D02*
X217042857Y-187457200D01*
X217042857Y-187457200D02*
X217138095Y-187504819D01*
X217138095Y-187504819D02*
X217233333Y-187504819D01*
X217966666Y-186404819D02*
X217966666Y-187119104D01*
X217966666Y-187119104D02*
X217919047Y-187261961D01*
X217919047Y-187261961D02*
X217823809Y-187357200D01*
X217823809Y-187357200D02*
X217680952Y-187404819D01*
X217680952Y-187404819D02*
X217585714Y-187404819D01*
X218490476Y-187404819D02*
X218680952Y-187404819D01*
X218680952Y-187404819D02*
X218776190Y-187357200D01*
X218776190Y-187357200D02*
X218823809Y-187309580D01*
X218823809Y-187309580D02*
X218919047Y-187166723D01*
X218919047Y-187166723D02*
X218966666Y-186976247D01*
X218966666Y-186976247D02*
X218966666Y-186595295D01*
X218966666Y-186595295D02*
X218919047Y-186500057D01*
X218919047Y-186500057D02*
X218871428Y-186452438D01*
X218871428Y-186452438D02*
X218776190Y-186404819D01*
X218776190Y-186404819D02*
X218585714Y-186404819D01*
X218585714Y-186404819D02*
X218490476Y-186452438D01*
X218490476Y-186452438D02*
X218442857Y-186500057D01*
X218442857Y-186500057D02*
X218395238Y-186595295D01*
X218395238Y-186595295D02*
X218395238Y-186833390D01*
X218395238Y-186833390D02*
X218442857Y-186928628D01*
X218442857Y-186928628D02*
X218490476Y-186976247D01*
X218490476Y-186976247D02*
X218585714Y-187023866D01*
X218585714Y-187023866D02*
X218776190Y-187023866D01*
X218776190Y-187023866D02*
X218871428Y-186976247D01*
X218871428Y-186976247D02*
X218919047Y-186928628D01*
X218919047Y-186928628D02*
X218966666Y-186833390D01*
X314926666Y-186504819D02*
X315498094Y-186504819D01*
X315212380Y-187504819D02*
X315212380Y-186504819D01*
X316212380Y-187457200D02*
X316117142Y-187504819D01*
X316117142Y-187504819D02*
X315926666Y-187504819D01*
X315926666Y-187504819D02*
X315831428Y-187457200D01*
X315831428Y-187457200D02*
X315783809Y-187361961D01*
X315783809Y-187361961D02*
X315783809Y-186981009D01*
X315783809Y-186981009D02*
X315831428Y-186885771D01*
X315831428Y-186885771D02*
X315926666Y-186838152D01*
X315926666Y-186838152D02*
X316117142Y-186838152D01*
X316117142Y-186838152D02*
X316212380Y-186885771D01*
X316212380Y-186885771D02*
X316259999Y-186981009D01*
X316259999Y-186981009D02*
X316259999Y-187076247D01*
X316259999Y-187076247D02*
X315783809Y-187171485D01*
X316640952Y-187457200D02*
X316736190Y-187504819D01*
X316736190Y-187504819D02*
X316926666Y-187504819D01*
X316926666Y-187504819D02*
X317021904Y-187457200D01*
X317021904Y-187457200D02*
X317069523Y-187361961D01*
X317069523Y-187361961D02*
X317069523Y-187314342D01*
X317069523Y-187314342D02*
X317021904Y-187219104D01*
X317021904Y-187219104D02*
X316926666Y-187171485D01*
X316926666Y-187171485D02*
X316783809Y-187171485D01*
X316783809Y-187171485D02*
X316688571Y-187123866D01*
X316688571Y-187123866D02*
X316640952Y-187028628D01*
X316640952Y-187028628D02*
X316640952Y-186981009D01*
X316640952Y-186981009D02*
X316688571Y-186885771D01*
X316688571Y-186885771D02*
X316783809Y-186838152D01*
X316783809Y-186838152D02*
X316926666Y-186838152D01*
X316926666Y-186838152D02*
X317021904Y-186885771D01*
X317355238Y-186838152D02*
X317736190Y-186838152D01*
X317498095Y-186504819D02*
X317498095Y-187361961D01*
X317498095Y-187361961D02*
X317545714Y-187457200D01*
X317545714Y-187457200D02*
X317640952Y-187504819D01*
X317640952Y-187504819D02*
X317736190Y-187504819D01*
X318069524Y-187504819D02*
X318069524Y-186504819D01*
X318069524Y-186504819D02*
X318450476Y-186504819D01*
X318450476Y-186504819D02*
X318545714Y-186552438D01*
X318545714Y-186552438D02*
X318593333Y-186600057D01*
X318593333Y-186600057D02*
X318640952Y-186695295D01*
X318640952Y-186695295D02*
X318640952Y-186838152D01*
X318640952Y-186838152D02*
X318593333Y-186933390D01*
X318593333Y-186933390D02*
X318545714Y-186981009D01*
X318545714Y-186981009D02*
X318450476Y-187028628D01*
X318450476Y-187028628D02*
X318069524Y-187028628D01*
X319212381Y-187504819D02*
X319117143Y-187457200D01*
X319117143Y-187457200D02*
X319069524Y-187409580D01*
X319069524Y-187409580D02*
X319021905Y-187314342D01*
X319021905Y-187314342D02*
X319021905Y-187028628D01*
X319021905Y-187028628D02*
X319069524Y-186933390D01*
X319069524Y-186933390D02*
X319117143Y-186885771D01*
X319117143Y-186885771D02*
X319212381Y-186838152D01*
X319212381Y-186838152D02*
X319355238Y-186838152D01*
X319355238Y-186838152D02*
X319450476Y-186885771D01*
X319450476Y-186885771D02*
X319498095Y-186933390D01*
X319498095Y-186933390D02*
X319545714Y-187028628D01*
X319545714Y-187028628D02*
X319545714Y-187314342D01*
X319545714Y-187314342D02*
X319498095Y-187409580D01*
X319498095Y-187409580D02*
X319450476Y-187457200D01*
X319450476Y-187457200D02*
X319355238Y-187504819D01*
X319355238Y-187504819D02*
X319212381Y-187504819D01*
X319974286Y-187504819D02*
X319974286Y-186838152D01*
X319974286Y-186504819D02*
X319926667Y-186552438D01*
X319926667Y-186552438D02*
X319974286Y-186600057D01*
X319974286Y-186600057D02*
X320021905Y-186552438D01*
X320021905Y-186552438D02*
X319974286Y-186504819D01*
X319974286Y-186504819D02*
X319974286Y-186600057D01*
X320450476Y-186838152D02*
X320450476Y-187504819D01*
X320450476Y-186933390D02*
X320498095Y-186885771D01*
X320498095Y-186885771D02*
X320593333Y-186838152D01*
X320593333Y-186838152D02*
X320736190Y-186838152D01*
X320736190Y-186838152D02*
X320831428Y-186885771D01*
X320831428Y-186885771D02*
X320879047Y-186981009D01*
X320879047Y-186981009D02*
X320879047Y-187504819D01*
X321212381Y-186838152D02*
X321593333Y-186838152D01*
X321355238Y-186504819D02*
X321355238Y-187361961D01*
X321355238Y-187361961D02*
X321402857Y-187457200D01*
X321402857Y-187457200D02*
X321498095Y-187504819D01*
X321498095Y-187504819D02*
X321593333Y-187504819D01*
X321850476Y-186404819D02*
X321850476Y-187119104D01*
X321850476Y-187119104D02*
X321802857Y-187261961D01*
X321802857Y-187261961D02*
X321707619Y-187357200D01*
X321707619Y-187357200D02*
X321564762Y-187404819D01*
X321564762Y-187404819D02*
X321469524Y-187404819D01*
X322850476Y-187404819D02*
X322279048Y-187404819D01*
X322564762Y-187404819D02*
X322564762Y-186404819D01*
X322564762Y-186404819D02*
X322469524Y-186547676D01*
X322469524Y-186547676D02*
X322374286Y-186642914D01*
X322374286Y-186642914D02*
X322279048Y-186690533D01*
X323326667Y-187404819D02*
X323517143Y-187404819D01*
X323517143Y-187404819D02*
X323612381Y-187357200D01*
X323612381Y-187357200D02*
X323660000Y-187309580D01*
X323660000Y-187309580D02*
X323755238Y-187166723D01*
X323755238Y-187166723D02*
X323802857Y-186976247D01*
X323802857Y-186976247D02*
X323802857Y-186595295D01*
X323802857Y-186595295D02*
X323755238Y-186500057D01*
X323755238Y-186500057D02*
X323707619Y-186452438D01*
X323707619Y-186452438D02*
X323612381Y-186404819D01*
X323612381Y-186404819D02*
X323421905Y-186404819D01*
X323421905Y-186404819D02*
X323326667Y-186452438D01*
X323326667Y-186452438D02*
X323279048Y-186500057D01*
X323279048Y-186500057D02*
X323231429Y-186595295D01*
X323231429Y-186595295D02*
X323231429Y-186833390D01*
X323231429Y-186833390D02*
X323279048Y-186928628D01*
X323279048Y-186928628D02*
X323326667Y-186976247D01*
X323326667Y-186976247D02*
X323421905Y-187023866D01*
X323421905Y-187023866D02*
X323612381Y-187023866D01*
X323612381Y-187023866D02*
X323707619Y-186976247D01*
X323707619Y-186976247D02*
X323755238Y-186928628D01*
X323755238Y-186928628D02*
X323802857Y-186833390D01*
X210566666Y-210254819D02*
X211138094Y-210254819D01*
X210852380Y-211254819D02*
X210852380Y-210254819D01*
X211852380Y-211207200D02*
X211757142Y-211254819D01*
X211757142Y-211254819D02*
X211566666Y-211254819D01*
X211566666Y-211254819D02*
X211471428Y-211207200D01*
X211471428Y-211207200D02*
X211423809Y-211111961D01*
X211423809Y-211111961D02*
X211423809Y-210731009D01*
X211423809Y-210731009D02*
X211471428Y-210635771D01*
X211471428Y-210635771D02*
X211566666Y-210588152D01*
X211566666Y-210588152D02*
X211757142Y-210588152D01*
X211757142Y-210588152D02*
X211852380Y-210635771D01*
X211852380Y-210635771D02*
X211899999Y-210731009D01*
X211899999Y-210731009D02*
X211899999Y-210826247D01*
X211899999Y-210826247D02*
X211423809Y-210921485D01*
X212280952Y-211207200D02*
X212376190Y-211254819D01*
X212376190Y-211254819D02*
X212566666Y-211254819D01*
X212566666Y-211254819D02*
X212661904Y-211207200D01*
X212661904Y-211207200D02*
X212709523Y-211111961D01*
X212709523Y-211111961D02*
X212709523Y-211064342D01*
X212709523Y-211064342D02*
X212661904Y-210969104D01*
X212661904Y-210969104D02*
X212566666Y-210921485D01*
X212566666Y-210921485D02*
X212423809Y-210921485D01*
X212423809Y-210921485D02*
X212328571Y-210873866D01*
X212328571Y-210873866D02*
X212280952Y-210778628D01*
X212280952Y-210778628D02*
X212280952Y-210731009D01*
X212280952Y-210731009D02*
X212328571Y-210635771D01*
X212328571Y-210635771D02*
X212423809Y-210588152D01*
X212423809Y-210588152D02*
X212566666Y-210588152D01*
X212566666Y-210588152D02*
X212661904Y-210635771D01*
X212995238Y-210588152D02*
X213376190Y-210588152D01*
X213138095Y-210254819D02*
X213138095Y-211111961D01*
X213138095Y-211111961D02*
X213185714Y-211207200D01*
X213185714Y-211207200D02*
X213280952Y-211254819D01*
X213280952Y-211254819D02*
X213376190Y-211254819D01*
X213709524Y-211254819D02*
X213709524Y-210254819D01*
X213709524Y-210254819D02*
X214090476Y-210254819D01*
X214090476Y-210254819D02*
X214185714Y-210302438D01*
X214185714Y-210302438D02*
X214233333Y-210350057D01*
X214233333Y-210350057D02*
X214280952Y-210445295D01*
X214280952Y-210445295D02*
X214280952Y-210588152D01*
X214280952Y-210588152D02*
X214233333Y-210683390D01*
X214233333Y-210683390D02*
X214185714Y-210731009D01*
X214185714Y-210731009D02*
X214090476Y-210778628D01*
X214090476Y-210778628D02*
X213709524Y-210778628D01*
X214852381Y-211254819D02*
X214757143Y-211207200D01*
X214757143Y-211207200D02*
X214709524Y-211159580D01*
X214709524Y-211159580D02*
X214661905Y-211064342D01*
X214661905Y-211064342D02*
X214661905Y-210778628D01*
X214661905Y-210778628D02*
X214709524Y-210683390D01*
X214709524Y-210683390D02*
X214757143Y-210635771D01*
X214757143Y-210635771D02*
X214852381Y-210588152D01*
X214852381Y-210588152D02*
X214995238Y-210588152D01*
X214995238Y-210588152D02*
X215090476Y-210635771D01*
X215090476Y-210635771D02*
X215138095Y-210683390D01*
X215138095Y-210683390D02*
X215185714Y-210778628D01*
X215185714Y-210778628D02*
X215185714Y-211064342D01*
X215185714Y-211064342D02*
X215138095Y-211159580D01*
X215138095Y-211159580D02*
X215090476Y-211207200D01*
X215090476Y-211207200D02*
X214995238Y-211254819D01*
X214995238Y-211254819D02*
X214852381Y-211254819D01*
X215614286Y-211254819D02*
X215614286Y-210588152D01*
X215614286Y-210254819D02*
X215566667Y-210302438D01*
X215566667Y-210302438D02*
X215614286Y-210350057D01*
X215614286Y-210350057D02*
X215661905Y-210302438D01*
X215661905Y-210302438D02*
X215614286Y-210254819D01*
X215614286Y-210254819D02*
X215614286Y-210350057D01*
X216090476Y-210588152D02*
X216090476Y-211254819D01*
X216090476Y-210683390D02*
X216138095Y-210635771D01*
X216138095Y-210635771D02*
X216233333Y-210588152D01*
X216233333Y-210588152D02*
X216376190Y-210588152D01*
X216376190Y-210588152D02*
X216471428Y-210635771D01*
X216471428Y-210635771D02*
X216519047Y-210731009D01*
X216519047Y-210731009D02*
X216519047Y-211254819D01*
X216852381Y-210588152D02*
X217233333Y-210588152D01*
X216995238Y-210254819D02*
X216995238Y-211111961D01*
X216995238Y-211111961D02*
X217042857Y-211207200D01*
X217042857Y-211207200D02*
X217138095Y-211254819D01*
X217138095Y-211254819D02*
X217233333Y-211254819D01*
X217490476Y-210154819D02*
X217490476Y-210869104D01*
X217490476Y-210869104D02*
X217442857Y-211011961D01*
X217442857Y-211011961D02*
X217347619Y-211107200D01*
X217347619Y-211107200D02*
X217204762Y-211154819D01*
X217204762Y-211154819D02*
X217109524Y-211154819D01*
X217919048Y-210250057D02*
X217966667Y-210202438D01*
X217966667Y-210202438D02*
X218061905Y-210154819D01*
X218061905Y-210154819D02*
X218300000Y-210154819D01*
X218300000Y-210154819D02*
X218395238Y-210202438D01*
X218395238Y-210202438D02*
X218442857Y-210250057D01*
X218442857Y-210250057D02*
X218490476Y-210345295D01*
X218490476Y-210345295D02*
X218490476Y-210440533D01*
X218490476Y-210440533D02*
X218442857Y-210583390D01*
X218442857Y-210583390D02*
X217871429Y-211154819D01*
X217871429Y-211154819D02*
X218490476Y-211154819D01*
X219109524Y-210154819D02*
X219204762Y-210154819D01*
X219204762Y-210154819D02*
X219300000Y-210202438D01*
X219300000Y-210202438D02*
X219347619Y-210250057D01*
X219347619Y-210250057D02*
X219395238Y-210345295D01*
X219395238Y-210345295D02*
X219442857Y-210535771D01*
X219442857Y-210535771D02*
X219442857Y-210773866D01*
X219442857Y-210773866D02*
X219395238Y-210964342D01*
X219395238Y-210964342D02*
X219347619Y-211059580D01*
X219347619Y-211059580D02*
X219300000Y-211107200D01*
X219300000Y-211107200D02*
X219204762Y-211154819D01*
X219204762Y-211154819D02*
X219109524Y-211154819D01*
X219109524Y-211154819D02*
X219014286Y-211107200D01*
X219014286Y-211107200D02*
X218966667Y-211059580D01*
X218966667Y-211059580D02*
X218919048Y-210964342D01*
X218919048Y-210964342D02*
X218871429Y-210773866D01*
X218871429Y-210773866D02*
X218871429Y-210535771D01*
X218871429Y-210535771D02*
X218919048Y-210345295D01*
X218919048Y-210345295D02*
X218966667Y-210250057D01*
X218966667Y-210250057D02*
X219014286Y-210202438D01*
X219014286Y-210202438D02*
X219109524Y-210154819D01*
X314926666Y-210254819D02*
X315498094Y-210254819D01*
X315212380Y-211254819D02*
X315212380Y-210254819D01*
X316212380Y-211207200D02*
X316117142Y-211254819D01*
X316117142Y-211254819D02*
X315926666Y-211254819D01*
X315926666Y-211254819D02*
X315831428Y-211207200D01*
X315831428Y-211207200D02*
X315783809Y-211111961D01*
X315783809Y-211111961D02*
X315783809Y-210731009D01*
X315783809Y-210731009D02*
X315831428Y-210635771D01*
X315831428Y-210635771D02*
X315926666Y-210588152D01*
X315926666Y-210588152D02*
X316117142Y-210588152D01*
X316117142Y-210588152D02*
X316212380Y-210635771D01*
X316212380Y-210635771D02*
X316259999Y-210731009D01*
X316259999Y-210731009D02*
X316259999Y-210826247D01*
X316259999Y-210826247D02*
X315783809Y-210921485D01*
X316640952Y-211207200D02*
X316736190Y-211254819D01*
X316736190Y-211254819D02*
X316926666Y-211254819D01*
X316926666Y-211254819D02*
X317021904Y-211207200D01*
X317021904Y-211207200D02*
X317069523Y-211111961D01*
X317069523Y-211111961D02*
X317069523Y-211064342D01*
X317069523Y-211064342D02*
X317021904Y-210969104D01*
X317021904Y-210969104D02*
X316926666Y-210921485D01*
X316926666Y-210921485D02*
X316783809Y-210921485D01*
X316783809Y-210921485D02*
X316688571Y-210873866D01*
X316688571Y-210873866D02*
X316640952Y-210778628D01*
X316640952Y-210778628D02*
X316640952Y-210731009D01*
X316640952Y-210731009D02*
X316688571Y-210635771D01*
X316688571Y-210635771D02*
X316783809Y-210588152D01*
X316783809Y-210588152D02*
X316926666Y-210588152D01*
X316926666Y-210588152D02*
X317021904Y-210635771D01*
X317355238Y-210588152D02*
X317736190Y-210588152D01*
X317498095Y-210254819D02*
X317498095Y-211111961D01*
X317498095Y-211111961D02*
X317545714Y-211207200D01*
X317545714Y-211207200D02*
X317640952Y-211254819D01*
X317640952Y-211254819D02*
X317736190Y-211254819D01*
X318069524Y-211254819D02*
X318069524Y-210254819D01*
X318069524Y-210254819D02*
X318450476Y-210254819D01*
X318450476Y-210254819D02*
X318545714Y-210302438D01*
X318545714Y-210302438D02*
X318593333Y-210350057D01*
X318593333Y-210350057D02*
X318640952Y-210445295D01*
X318640952Y-210445295D02*
X318640952Y-210588152D01*
X318640952Y-210588152D02*
X318593333Y-210683390D01*
X318593333Y-210683390D02*
X318545714Y-210731009D01*
X318545714Y-210731009D02*
X318450476Y-210778628D01*
X318450476Y-210778628D02*
X318069524Y-210778628D01*
X319212381Y-211254819D02*
X319117143Y-211207200D01*
X319117143Y-211207200D02*
X319069524Y-211159580D01*
X319069524Y-211159580D02*
X319021905Y-211064342D01*
X319021905Y-211064342D02*
X319021905Y-210778628D01*
X319021905Y-210778628D02*
X319069524Y-210683390D01*
X319069524Y-210683390D02*
X319117143Y-210635771D01*
X319117143Y-210635771D02*
X319212381Y-210588152D01*
X319212381Y-210588152D02*
X319355238Y-210588152D01*
X319355238Y-210588152D02*
X319450476Y-210635771D01*
X319450476Y-210635771D02*
X319498095Y-210683390D01*
X319498095Y-210683390D02*
X319545714Y-210778628D01*
X319545714Y-210778628D02*
X319545714Y-211064342D01*
X319545714Y-211064342D02*
X319498095Y-211159580D01*
X319498095Y-211159580D02*
X319450476Y-211207200D01*
X319450476Y-211207200D02*
X319355238Y-211254819D01*
X319355238Y-211254819D02*
X319212381Y-211254819D01*
X319974286Y-211254819D02*
X319974286Y-210588152D01*
X319974286Y-210254819D02*
X319926667Y-210302438D01*
X319926667Y-210302438D02*
X319974286Y-210350057D01*
X319974286Y-210350057D02*
X320021905Y-210302438D01*
X320021905Y-210302438D02*
X319974286Y-210254819D01*
X319974286Y-210254819D02*
X319974286Y-210350057D01*
X320450476Y-210588152D02*
X320450476Y-211254819D01*
X320450476Y-210683390D02*
X320498095Y-210635771D01*
X320498095Y-210635771D02*
X320593333Y-210588152D01*
X320593333Y-210588152D02*
X320736190Y-210588152D01*
X320736190Y-210588152D02*
X320831428Y-210635771D01*
X320831428Y-210635771D02*
X320879047Y-210731009D01*
X320879047Y-210731009D02*
X320879047Y-211254819D01*
X321212381Y-210588152D02*
X321593333Y-210588152D01*
X321355238Y-210254819D02*
X321355238Y-211111961D01*
X321355238Y-211111961D02*
X321402857Y-211207200D01*
X321402857Y-211207200D02*
X321498095Y-211254819D01*
X321498095Y-211254819D02*
X321593333Y-211254819D01*
X322326666Y-210154819D02*
X322326666Y-210869104D01*
X322326666Y-210869104D02*
X322279047Y-211011961D01*
X322279047Y-211011961D02*
X322183809Y-211107200D01*
X322183809Y-211107200D02*
X322040952Y-211154819D01*
X322040952Y-211154819D02*
X321945714Y-211154819D01*
X323231428Y-210488152D02*
X323231428Y-211154819D01*
X322993333Y-210107200D02*
X322755238Y-210821485D01*
X322755238Y-210821485D02*
X323374285Y-210821485D01*
%TO.C,BT1*%
D11*
X158875000Y-76925000D02*
X233240000Y-76925000D01*
X158875000Y-97575000D02*
X158875000Y-76925000D01*
X233240000Y-76925000D02*
X233240000Y-97575000D01*
X233240000Y-97575000D02*
X158875000Y-97575000D01*
%TO.C,J2*%
D14*
X146770000Y-85980000D02*
X146770000Y-88520000D01*
%TO.C,BT8*%
D11*
X88035000Y-176455000D02*
X162400000Y-176455000D01*
X88035000Y-197105000D02*
X88035000Y-176455000D01*
X162400000Y-176455000D02*
X162400000Y-197105000D01*
X162400000Y-197105000D02*
X88035000Y-197105000D01*
%TO.C,J5*%
D14*
X184860000Y-220730000D02*
X184860000Y-223270000D01*
%TO.C,BT4*%
D11*
X229655000Y-176455000D02*
X304020000Y-176455000D01*
X229655000Y-197105000D02*
X229655000Y-176455000D01*
X304020000Y-176455000D02*
X304020000Y-197105000D01*
X304020000Y-197105000D02*
X229655000Y-197105000D01*
%TO.C,J11*%
D14*
X78060000Y-138010000D02*
X78060000Y-140550000D01*
%TO.C,BT7*%
D11*
X88035000Y-152705000D02*
X162400000Y-152705000D01*
X88035000Y-173355000D02*
X88035000Y-152705000D01*
X162400000Y-152705000D02*
X162400000Y-173355000D01*
X162400000Y-173355000D02*
X88035000Y-173355000D01*
%TO.C,J15*%
D14*
X78060000Y-185510000D02*
X78060000Y-188050000D01*
%TO.C,J10*%
X175060000Y-138010000D02*
X175060000Y-140550000D01*
%TO.C,BT9*%
D11*
X88035000Y-200205000D02*
X162400000Y-200205000D01*
X88035000Y-220855000D02*
X88035000Y-200205000D01*
X162400000Y-200205000D02*
X162400000Y-220855000D01*
X162400000Y-220855000D02*
X88035000Y-220855000D01*
%TO.C,G\u002A\u002A\u002A*%
D15*
X64987827Y-52847680D02*
X74387827Y-52847680D01*
X74387827Y-62147680D01*
X64987827Y-62147680D01*
X64987827Y-52847680D01*
%TO.C,BT2*%
D11*
X229655000Y-128955000D02*
X304020000Y-128955000D01*
X229655000Y-149605000D02*
X229655000Y-128955000D01*
X304020000Y-128955000D02*
X304020000Y-149605000D01*
X304020000Y-149605000D02*
X229655000Y-149605000D01*
%TO.C,J6*%
D14*
X68270000Y-220730000D02*
X68270000Y-223270000D01*
D16*
%TO.C,G\u002A\u002A\u002A*%
G36*
X293265211Y-94774476D02*
G01*
X293314035Y-94966520D01*
X293209002Y-95214773D01*
X293016959Y-95263596D01*
X292768706Y-95158564D01*
X292719883Y-94966520D01*
X292824915Y-94718267D01*
X293016959Y-94669444D01*
X293265211Y-94774476D01*
G37*
%TO.C,J1*%
D14*
X248030000Y-85980000D02*
X248030000Y-88520000D01*
%TO.C,J14*%
X175060000Y-185510000D02*
X175060000Y-188050000D01*
%TO.C,BT5*%
D11*
X232340000Y-200205000D02*
X306705000Y-200205000D01*
X232340000Y-220855000D02*
X232340000Y-200205000D01*
X306705000Y-200205000D02*
X306705000Y-220855000D01*
X306705000Y-220855000D02*
X232340000Y-220855000D01*
%TO.C,BT3*%
X232340000Y-152705000D02*
X306705000Y-152705000D01*
X232340000Y-173355000D02*
X232340000Y-152705000D01*
X306705000Y-152705000D02*
X306705000Y-173355000D01*
X306705000Y-173355000D02*
X232340000Y-173355000D01*
%TO.C,J13*%
D14*
X78060000Y-161760000D02*
X78060000Y-164300000D01*
%TO.C,BT6*%
D11*
X88035000Y-128955000D02*
X162400000Y-128955000D01*
X88035000Y-149605000D02*
X88035000Y-128955000D01*
X162400000Y-128955000D02*
X162400000Y-149605000D01*
X162400000Y-149605000D02*
X88035000Y-149605000D01*
%TO.C,J12*%
D14*
X175060000Y-161760000D02*
X175060000Y-164300000D01*
%TO.C,J16*%
X175060000Y-209260000D02*
X175060000Y-211800000D01*
%TO.C,J17*%
X78060000Y-209260000D02*
X78060000Y-211800000D01*
%TO.C,J7*%
X216000000Y-138010000D02*
X216000000Y-140550000D01*
%TO.C,J3*%
X320360000Y-138010000D02*
X320360000Y-140550000D01*
%TO.C,J18*%
X216000000Y-161760000D02*
X216000000Y-164300000D01*
%TO.C,J8*%
X320360000Y-161760000D02*
X320360000Y-164300000D01*
%TO.C,J9*%
X216000000Y-185510000D02*
X216000000Y-188050000D01*
%TO.C,J19*%
X320360000Y-185510000D02*
X320360000Y-188050000D01*
%TO.C,J20*%
X216000000Y-209260000D02*
X216000000Y-211800000D01*
%TO.C,J4*%
X320360000Y-209260000D02*
X320360000Y-211800000D01*
%TD*%
M02*
