M48
; DRILL file KiCad 10.0.5 date 2026-09-14T20:04:38
; FORMAT={-:-/ absolute / metric / decimal}
; #@! TF.CreationDate,2026-09-14T20:04:38+05:30
; #@! TF.GenerationSoftware,Kicad,Pcbnew,10.0.5
; #@! TF.FileFunction,MixedPlating,1,2
FMAT,2
METRIC
; #@! TA.AperFunction,Plated,PTH,ViaDrill
T1C0.400
; #@! TA.AperFunction,Plated,PTH,ComponentDrill
T2C1.300
; #@! TA.AperFunction,Plated,PTH,ComponentDrill
T3C1.830
; #@! TA.AperFunction,Plated,PTH,ComponentDrill
T4C2.000
; #@! TA.AperFunction,Plated,PTH,ComponentDrill
T5C2.500
; #@! TA.AperFunction,NonPlated,NPTH,ComponentDrill
T6C2.400
; #@! TA.AperFunction,NonPlated,NPTH,ComponentDrill
T7C3.200
; #@! TA.AperFunction,NonPlated,NPTH,ComponentDrill
T8C3.450
%
G90
G05
T1
X71.067Y-219.25
X71.067Y-224.75
X72.466Y-219.25
X72.466Y-220.35
X72.466Y-221.45
X72.466Y-222.55
X72.466Y-223.65
X72.466Y-224.75
X73.864Y-219.25
X73.864Y-220.35
X73.864Y-221.45
X73.864Y-222.55
X73.864Y-223.65
X73.864Y-224.75
X75.263Y-221.45
X75.263Y-222.55
X75.263Y-223.65
X75.263Y-224.75
X75.31Y-136.475
X75.31Y-142.373
X75.31Y-143.847
X75.31Y-145.322
X75.31Y-146.797
X75.31Y-148.271
X75.31Y-149.746
X75.31Y-151.22
X75.31Y-152.695
X75.31Y-154.169
X75.31Y-155.644
X75.31Y-157.119
X75.31Y-158.593
X75.31Y-160.068
X75.31Y-165.966
X75.31Y-167.441
X75.31Y-168.915
X75.31Y-170.39
X75.31Y-171.864
X75.31Y-173.339
X75.31Y-174.814
X75.31Y-176.288
X75.31Y-177.763
X75.31Y-179.237
X75.31Y-180.712
X75.31Y-182.186
X75.31Y-183.661
X75.31Y-189.559
X75.31Y-191.034
X75.31Y-192.508
X75.31Y-193.983
X75.31Y-195.458
X75.31Y-196.932
X75.31Y-198.407
X75.31Y-199.881
X75.31Y-201.356
X75.31Y-202.831
X75.31Y-204.305
X75.31Y-205.78
X75.31Y-207.254
X75.31Y-213.153
X75.31Y-214.627
X75.31Y-216.102
X75.31Y-217.576
X75.31Y-219.051
X75.31Y-220.525
X76.41Y-145.322
X76.41Y-146.797
X76.41Y-148.271
X76.41Y-149.746
X76.41Y-151.22
X76.41Y-152.695
X76.41Y-154.169
X76.41Y-155.644
X76.41Y-157.119
X76.41Y-158.593
X76.41Y-168.915
X76.41Y-170.39
X76.41Y-171.864
X76.41Y-173.339
X76.41Y-174.814
X76.41Y-176.288
X76.41Y-177.763
X76.41Y-179.237
X76.41Y-180.712
X76.41Y-182.186
X76.41Y-192.508
X76.41Y-193.983
X76.41Y-195.458
X76.41Y-196.932
X76.41Y-198.407
X76.41Y-199.881
X76.41Y-201.356
X76.41Y-202.831
X76.41Y-204.305
X76.41Y-205.78
X76.41Y-216.102
X76.41Y-217.576
X76.41Y-219.051
X76.41Y-220.525
X76.661Y-221.45
X76.661Y-222.55
X76.661Y-223.65
X76.661Y-224.75
X77.51Y-145.322
X77.51Y-146.797
X77.51Y-148.271
X77.51Y-149.746
X77.51Y-151.22
X77.51Y-152.695
X77.51Y-154.169
X77.51Y-155.644
X77.51Y-157.119
X77.51Y-158.593
X77.51Y-168.915
X77.51Y-170.39
X77.51Y-171.864
X77.51Y-173.339
X77.51Y-174.814
X77.51Y-176.288
X77.51Y-177.763
X77.51Y-179.237
X77.51Y-180.712
X77.51Y-182.186
X77.51Y-193.983
X77.51Y-195.458
X77.51Y-196.932
X77.51Y-198.407
X77.51Y-199.881
X77.51Y-201.356
X77.51Y-202.831
X77.51Y-204.305
X77.51Y-205.78
X77.51Y-217.576
X77.51Y-219.051
X77.51Y-220.525
X78.61Y-145.322
X78.61Y-146.797
X78.61Y-148.271
X78.61Y-149.746
X78.61Y-151.22
X78.61Y-152.695
X78.61Y-154.169
X78.61Y-155.644
X78.61Y-157.119
X78.61Y-158.593
X78.61Y-168.915
X78.61Y-170.39
X78.61Y-171.864
X78.61Y-173.339
X78.61Y-174.814
X78.61Y-176.288
X78.61Y-177.763
X78.61Y-179.237
X78.61Y-180.712
X78.61Y-182.186
X78.61Y-193.983
X78.61Y-195.458
X78.61Y-196.932
X78.61Y-198.407
X78.61Y-199.881
X78.61Y-201.356
X78.61Y-202.831
X78.61Y-204.305
X78.61Y-205.78
X78.61Y-217.576
X78.61Y-219.051
X78.61Y-220.525
X79.71Y-145.322
X79.71Y-146.797
X79.71Y-148.271
X79.71Y-149.746
X79.71Y-151.22
X79.71Y-152.695
X79.71Y-154.169
X79.71Y-155.644
X79.71Y-157.119
X79.71Y-158.593
X79.71Y-168.915
X79.71Y-170.39
X79.71Y-171.864
X79.71Y-173.339
X79.71Y-174.814
X79.71Y-176.288
X79.71Y-177.763
X79.71Y-179.237
X79.71Y-180.712
X79.71Y-182.186
X79.71Y-192.508
X79.71Y-193.983
X79.71Y-195.458
X79.71Y-196.932
X79.71Y-198.407
X79.71Y-199.881
X79.71Y-201.356
X79.71Y-202.831
X79.71Y-204.305
X79.71Y-205.78
X79.71Y-216.102
X79.71Y-217.576
X79.71Y-219.051
X79.71Y-220.525
X80.81Y-136.475
X80.81Y-142.373
X80.81Y-143.847
X80.81Y-145.322
X80.81Y-146.797
X80.81Y-148.271
X80.81Y-149.746
X80.81Y-151.22
X80.81Y-152.695
X80.81Y-154.169
X80.81Y-155.644
X80.81Y-157.119
X80.81Y-158.593
X80.81Y-160.068
X80.81Y-165.966
X80.81Y-167.441
X80.81Y-168.915
X80.81Y-170.39
X80.81Y-171.864
X80.81Y-173.339
X80.81Y-174.814
X80.81Y-176.288
X80.81Y-177.763
X80.81Y-179.237
X80.81Y-180.712
X80.81Y-182.186
X80.81Y-183.661
X80.81Y-189.559
X80.81Y-191.034
X80.81Y-192.508
X80.81Y-193.983
X80.81Y-195.458
X80.81Y-196.932
X80.81Y-198.407
X80.81Y-199.881
X80.81Y-201.356
X80.81Y-202.831
X80.81Y-204.305
X80.81Y-205.78
X80.81Y-207.254
X80.81Y-213.153
X80.81Y-214.627
X80.81Y-216.102
X80.81Y-217.576
X80.81Y-219.051
X80.81Y-220.525
X82.9Y-136.53
X82.9Y-137.63
X82.9Y-138.73
X82.9Y-139.83
X82.9Y-140.93
X82.9Y-142.03
X82.9Y-160.28
X82.9Y-161.38
X82.9Y-162.48
X82.9Y-163.58
X82.9Y-164.68
X82.9Y-165.78
X82.9Y-184.03
X82.9Y-185.13
X82.9Y-186.23
X82.9Y-187.33
X82.9Y-188.43
X82.9Y-189.53
X82.9Y-207.78
X82.9Y-208.88
X82.9Y-209.98
X82.9Y-211.08
X82.9Y-212.18
X82.9Y-213.28
X84.3Y-136.53
X84.3Y-137.63
X84.3Y-138.73
X84.3Y-139.83
X84.3Y-140.93
X84.3Y-142.03
X84.3Y-160.28
X84.3Y-161.38
X84.3Y-162.48
X84.3Y-163.58
X84.3Y-164.68
X84.3Y-165.78
X84.3Y-184.03
X84.3Y-185.13
X84.3Y-186.23
X84.3Y-187.33
X84.3Y-188.43
X84.3Y-189.53
X84.3Y-207.78
X84.3Y-208.88
X84.3Y-209.98
X84.3Y-211.08
X84.3Y-212.18
X84.3Y-213.28
X85.7Y-136.53
X85.7Y-137.63
X85.7Y-138.73
X85.7Y-139.83
X85.7Y-140.93
X85.7Y-142.03
X85.7Y-160.28
X85.7Y-161.38
X85.7Y-162.48
X85.7Y-163.58
X85.7Y-164.68
X85.7Y-165.78
X85.7Y-184.03
X85.7Y-185.13
X85.7Y-186.23
X85.7Y-187.33
X85.7Y-188.43
X85.7Y-189.53
X85.7Y-207.78
X85.7Y-208.88
X85.7Y-209.98
X85.7Y-211.08
X85.7Y-212.18
X85.7Y-213.28
X87.1Y-136.53
X87.1Y-137.63
X87.1Y-138.73
X87.1Y-139.83
X87.1Y-140.93
X87.1Y-142.03
X87.1Y-160.28
X87.1Y-161.38
X87.1Y-162.48
X87.1Y-163.58
X87.1Y-164.68
X87.1Y-165.78
X87.1Y-184.03
X87.1Y-185.13
X87.1Y-186.23
X87.1Y-187.33
X87.1Y-188.43
X87.1Y-189.53
X87.1Y-207.78
X87.1Y-208.88
X87.1Y-209.98
X87.1Y-211.08
X87.1Y-212.18
X87.1Y-213.28
X88.5Y-136.53
X88.5Y-137.63
X88.5Y-140.93
X88.5Y-142.03
X88.5Y-160.28
X88.5Y-161.38
X88.5Y-164.68
X88.5Y-165.78
X88.5Y-184.03
X88.5Y-185.13
X88.5Y-188.43
X88.5Y-189.53
X88.5Y-207.78
X88.5Y-208.88
X88.5Y-212.18
X88.5Y-213.28
X89.9Y-136.53
X89.9Y-142.03
X89.9Y-160.28
X89.9Y-165.78
X89.9Y-184.03
X89.9Y-189.53
X89.9Y-207.78
X89.9Y-213.28
X91.3Y-136.53
X91.3Y-142.03
X91.3Y-160.28
X91.3Y-165.78
X91.3Y-184.03
X91.3Y-189.53
X91.3Y-207.78
X91.3Y-213.28
X92.7Y-136.53
X92.7Y-137.63
X92.7Y-140.93
X92.7Y-142.03
X92.7Y-160.28
X92.7Y-161.38
X92.7Y-164.68
X92.7Y-165.78
X92.7Y-184.03
X92.7Y-185.13
X92.7Y-188.43
X92.7Y-189.53
X92.7Y-207.78
X92.7Y-208.88
X92.7Y-212.18
X92.7Y-213.28
X94.1Y-136.53
X94.1Y-137.63
X94.1Y-138.73
X94.1Y-139.83
X94.1Y-140.93
X94.1Y-142.03
X94.1Y-160.28
X94.1Y-161.38
X94.1Y-162.48
X94.1Y-163.58
X94.1Y-164.68
X94.1Y-165.78
X94.1Y-184.03
X94.1Y-185.13
X94.1Y-186.23
X94.1Y-187.33
X94.1Y-188.43
X94.1Y-189.53
X94.1Y-207.78
X94.1Y-208.88
X94.1Y-209.98
X94.1Y-211.08
X94.1Y-212.18
X94.1Y-213.28
X95.5Y-136.53
X95.5Y-137.63
X95.5Y-140.93
X95.5Y-142.03
X95.5Y-160.28
X95.5Y-161.38
X95.5Y-164.68
X95.5Y-165.78
X95.5Y-184.03
X95.5Y-185.13
X95.5Y-188.43
X95.5Y-189.53
X95.5Y-207.78
X95.5Y-208.88
X95.5Y-212.18
X95.5Y-213.28
X96.9Y-136.53
X96.9Y-142.03
X96.9Y-160.28
X96.9Y-165.78
X96.9Y-184.03
X96.9Y-189.53
X96.9Y-207.78
X96.9Y-213.28
X99.7Y-136.53
X99.7Y-142.03
X99.7Y-160.28
X99.7Y-165.78
X99.7Y-184.03
X99.7Y-189.53
X99.7Y-207.78
X99.7Y-213.28
X101.1Y-136.53
X101.1Y-137.63
X101.1Y-140.93
X101.1Y-142.03
X101.1Y-160.28
X101.1Y-161.38
X101.1Y-164.68
X101.1Y-165.78
X101.1Y-184.03
X101.1Y-185.13
X101.1Y-188.43
X101.1Y-189.53
X101.1Y-207.78
X101.1Y-208.88
X101.1Y-212.18
X101.1Y-213.28
X151.438Y-84.5
X151.438Y-85.6
X151.438Y-86.7
X151.438Y-87.8
X151.438Y-88.9
X151.438Y-90.0
X151.9Y-136.53
X151.9Y-137.63
X151.9Y-138.73
X151.9Y-139.83
X151.9Y-140.93
X151.9Y-142.03
X151.9Y-160.28
X151.9Y-161.38
X151.9Y-162.48
X151.9Y-163.58
X151.9Y-164.68
X151.9Y-165.78
X151.9Y-184.03
X151.9Y-185.13
X151.9Y-186.23
X151.9Y-187.33
X151.9Y-188.43
X151.9Y-189.53
X151.9Y-207.78
X151.9Y-208.88
X151.9Y-209.98
X151.9Y-211.08
X151.9Y-212.18
X151.9Y-213.28
X152.875Y-84.5
X152.875Y-85.6
X152.875Y-86.7
X152.875Y-87.8
X152.875Y-88.9
X152.875Y-90.0
X153.3Y-136.53
X153.3Y-142.03
X153.3Y-160.28
X153.3Y-165.78
X153.3Y-184.03
X153.3Y-189.53
X153.3Y-207.78
X153.3Y-213.28
X154.312Y-84.5
X154.312Y-85.6
X154.312Y-86.7
X154.312Y-87.8
X154.312Y-88.9
X154.312Y-90.0
X155.75Y-84.5
X155.75Y-85.6
X155.75Y-86.7
X155.75Y-87.8
X155.75Y-88.9
X155.75Y-90.0
X156.1Y-136.53
X156.1Y-142.03
X156.1Y-160.28
X156.1Y-165.78
X156.1Y-184.03
X156.1Y-189.53
X156.1Y-207.78
X156.1Y-213.28
X157.188Y-84.5
X157.188Y-85.6
X157.188Y-86.7
X157.188Y-87.8
X157.188Y-88.9
X157.188Y-90.0
X157.5Y-136.53
X157.5Y-137.63
X157.5Y-140.93
X157.5Y-142.03
X157.5Y-160.28
X157.5Y-161.38
X157.5Y-164.68
X157.5Y-165.78
X157.5Y-184.03
X157.5Y-185.13
X157.5Y-188.43
X157.5Y-189.53
X157.5Y-207.78
X157.5Y-208.88
X157.5Y-212.18
X157.5Y-213.28
X158.625Y-84.5
X158.625Y-85.6
X158.625Y-86.7
X158.625Y-87.8
X158.625Y-88.9
X158.625Y-90.0
X158.9Y-136.53
X158.9Y-137.63
X158.9Y-138.73
X158.9Y-139.83
X158.9Y-140.93
X158.9Y-142.03
X158.9Y-160.28
X158.9Y-161.38
X158.9Y-162.48
X158.9Y-163.58
X158.9Y-164.68
X158.9Y-165.78
X158.9Y-184.03
X158.9Y-185.13
X158.9Y-186.23
X158.9Y-187.33
X158.9Y-188.43
X158.9Y-189.53
X158.9Y-207.78
X158.9Y-208.88
X158.9Y-209.98
X158.9Y-211.08
X158.9Y-212.18
X158.9Y-213.28
X160.062Y-84.5
X160.062Y-90.0
X160.3Y-136.53
X160.3Y-137.63
X160.3Y-140.93
X160.3Y-142.03
X160.3Y-160.28
X160.3Y-161.38
X160.3Y-164.68
X160.3Y-165.78
X160.3Y-184.03
X160.3Y-185.13
X160.3Y-188.43
X160.3Y-189.53
X160.3Y-207.78
X160.3Y-208.88
X160.3Y-212.18
X160.3Y-213.28
X161.5Y-84.5
X161.5Y-90.0
X161.7Y-136.53
X161.7Y-142.03
X161.7Y-160.28
X161.7Y-165.78
X161.7Y-184.03
X161.7Y-189.53
X161.7Y-207.78
X161.7Y-213.28
X162.938Y-84.5
X162.938Y-90.0
X163.1Y-136.53
X163.1Y-142.03
X163.1Y-160.28
X163.1Y-165.78
X163.1Y-184.03
X163.1Y-189.53
X163.1Y-207.78
X163.1Y-213.28
X164.375Y-84.5
X164.375Y-85.6
X164.375Y-86.7
X164.375Y-87.8
X164.375Y-88.9
X164.375Y-90.0
X164.5Y-136.53
X164.5Y-137.63
X164.5Y-140.93
X164.5Y-142.03
X164.5Y-160.28
X164.5Y-161.38
X164.5Y-164.68
X164.5Y-165.78
X164.5Y-184.03
X164.5Y-185.13
X164.5Y-188.43
X164.5Y-189.53
X164.5Y-207.78
X164.5Y-208.88
X164.5Y-212.18
X164.5Y-213.28
X165.812Y-84.5
X165.812Y-85.6
X165.812Y-86.7
X165.812Y-87.8
X165.812Y-88.9
X165.812Y-90.0
X165.9Y-136.53
X165.9Y-137.63
X165.9Y-138.73
X165.9Y-139.83
X165.9Y-140.93
X165.9Y-142.03
X165.9Y-160.28
X165.9Y-161.38
X165.9Y-162.48
X165.9Y-163.58
X165.9Y-164.68
X165.9Y-165.78
X165.9Y-184.03
X165.9Y-185.13
X165.9Y-186.23
X165.9Y-187.33
X165.9Y-188.43
X165.9Y-189.53
X165.9Y-207.78
X165.9Y-208.88
X165.9Y-209.98
X165.9Y-211.08
X165.9Y-212.18
X165.9Y-213.28
X167.25Y-84.5
X167.25Y-90.0
X167.3Y-136.53
X167.3Y-137.63
X167.3Y-138.73
X167.3Y-139.83
X167.3Y-140.93
X167.3Y-142.03
X167.3Y-160.28
X167.3Y-161.38
X167.3Y-162.48
X167.3Y-163.58
X167.3Y-164.68
X167.3Y-165.78
X167.3Y-184.03
X167.3Y-185.13
X167.3Y-186.23
X167.3Y-187.33
X167.3Y-188.43
X167.3Y-189.53
X167.3Y-207.78
X167.3Y-208.88
X167.3Y-209.98
X167.3Y-211.08
X167.3Y-212.18
X167.3Y-213.28
X168.7Y-136.53
X168.7Y-137.63
X168.7Y-138.73
X168.7Y-139.83
X168.7Y-140.93
X168.7Y-142.03
X168.7Y-160.28
X168.7Y-161.38
X168.7Y-162.48
X168.7Y-163.58
X168.7Y-164.68
X168.7Y-165.78
X168.7Y-184.03
X168.7Y-185.13
X168.7Y-186.23
X168.7Y-187.33
X168.7Y-188.43
X168.7Y-189.53
X168.7Y-207.78
X168.7Y-208.88
X168.7Y-209.98
X168.7Y-211.08
X168.7Y-212.18
X168.7Y-213.28
X170.1Y-136.53
X170.1Y-137.63
X170.1Y-138.73
X170.1Y-139.83
X170.1Y-140.93
X170.1Y-142.03
X170.1Y-160.28
X170.1Y-161.38
X170.1Y-162.48
X170.1Y-163.58
X170.1Y-164.68
X170.1Y-165.78
X170.1Y-184.03
X170.1Y-185.13
X170.1Y-186.23
X170.1Y-187.33
X170.1Y-188.43
X170.1Y-189.53
X170.1Y-207.78
X170.1Y-208.88
X170.1Y-209.98
X170.1Y-211.08
X170.1Y-212.18
X170.1Y-213.28
X170.125Y-84.5
X170.125Y-90.0
X171.562Y-84.5
X171.562Y-85.6
X171.562Y-88.9
X171.562Y-90.0
X172.31Y-136.475
X172.31Y-142.373
X172.31Y-143.847
X172.31Y-145.322
X172.31Y-146.797
X172.31Y-148.271
X172.31Y-149.746
X172.31Y-151.22
X172.31Y-152.695
X172.31Y-154.169
X172.31Y-155.644
X172.31Y-157.119
X172.31Y-158.593
X172.31Y-160.068
X172.31Y-165.966
X172.31Y-167.441
X172.31Y-168.915
X172.31Y-170.39
X172.31Y-171.864
X172.31Y-173.339
X172.31Y-174.814
X172.31Y-176.288
X172.31Y-177.763
X172.31Y-179.237
X172.31Y-180.712
X172.31Y-182.186
X172.31Y-183.661
X172.31Y-189.559
X172.31Y-191.034
X172.31Y-192.508
X172.31Y-193.983
X172.31Y-195.458
X172.31Y-196.932
X172.31Y-198.407
X172.31Y-199.881
X172.31Y-201.356
X172.31Y-202.831
X172.31Y-204.305
X172.31Y-205.78
X172.31Y-207.254
X172.31Y-213.153
X172.31Y-214.627
X172.31Y-216.102
X172.31Y-217.576
X172.31Y-219.051
X172.31Y-220.525
X173.41Y-145.322
X173.41Y-146.797
X173.41Y-148.271
X173.41Y-149.746
X173.41Y-151.22
X173.41Y-152.695
X173.41Y-154.169
X173.41Y-155.644
X173.41Y-157.119
X173.41Y-158.593
X173.41Y-168.915
X173.41Y-170.39
X173.41Y-171.864
X173.41Y-173.339
X173.41Y-174.814
X173.41Y-176.288
X173.41Y-177.763
X173.41Y-179.237
X173.41Y-180.712
X173.41Y-182.186
X173.41Y-192.508
X173.41Y-193.983
X173.41Y-195.458
X173.41Y-196.932
X173.41Y-198.407
X173.41Y-199.881
X173.41Y-201.356
X173.41Y-202.831
X173.41Y-204.305
X173.41Y-205.78
X173.41Y-216.102
X173.41Y-217.576
X173.41Y-219.051
X173.41Y-220.525
X174.51Y-145.322
X174.51Y-146.797
X174.51Y-148.271
X174.51Y-149.746
X174.51Y-151.22
X174.51Y-152.695
X174.51Y-154.169
X174.51Y-155.644
X174.51Y-157.119
X174.51Y-158.593
X174.51Y-168.915
X174.51Y-170.39
X174.51Y-171.864
X174.51Y-173.339
X174.51Y-174.814
X174.51Y-176.288
X174.51Y-177.763
X174.51Y-179.237
X174.51Y-180.712
X174.51Y-182.186
X174.51Y-193.983
X174.51Y-195.458
X174.51Y-196.932
X174.51Y-198.407
X174.51Y-199.881
X174.51Y-201.356
X174.51Y-202.831
X174.51Y-204.305
X174.51Y-205.78
X174.51Y-217.576
X174.51Y-219.051
X174.51Y-220.525
X175.61Y-145.322
X175.61Y-146.797
X175.61Y-148.271
X175.61Y-149.746
X175.61Y-151.22
X175.61Y-152.695
X175.61Y-154.169
X175.61Y-155.644
X175.61Y-157.119
X175.61Y-158.593
X175.61Y-168.915
X175.61Y-170.39
X175.61Y-171.864
X175.61Y-173.339
X175.61Y-174.814
X175.61Y-176.288
X175.61Y-177.763
X175.61Y-179.237
X175.61Y-180.712
X175.61Y-182.186
X175.61Y-193.983
X175.61Y-195.458
X175.61Y-196.932
X175.61Y-198.407
X175.61Y-199.881
X175.61Y-201.356
X175.61Y-202.831
X175.61Y-204.305
X175.61Y-205.78
X175.61Y-217.576
X175.61Y-219.051
X175.61Y-220.525
X176.46Y-221.45
X176.46Y-222.55
X176.46Y-223.65
X176.46Y-224.75
X176.71Y-145.322
X176.71Y-146.797
X176.71Y-148.271
X176.71Y-149.746
X176.71Y-151.22
X176.71Y-152.695
X176.71Y-154.169
X176.71Y-155.644
X176.71Y-157.119
X176.71Y-158.593
X176.71Y-168.915
X176.71Y-170.39
X176.71Y-171.864
X176.71Y-173.339
X176.71Y-174.814
X176.71Y-176.288
X176.71Y-177.763
X176.71Y-179.237
X176.71Y-180.712
X176.71Y-182.186
X176.71Y-192.508
X176.71Y-193.983
X176.71Y-195.458
X176.71Y-196.932
X176.71Y-198.407
X176.71Y-199.881
X176.71Y-201.356
X176.71Y-202.831
X176.71Y-204.305
X176.71Y-205.78
X176.71Y-216.102
X176.71Y-217.576
X176.71Y-219.051
X176.71Y-220.525
X177.81Y-136.475
X177.81Y-142.373
X177.81Y-143.847
X177.81Y-145.322
X177.81Y-146.797
X177.81Y-148.271
X177.81Y-149.746
X177.81Y-151.22
X177.81Y-152.695
X177.81Y-154.169
X177.81Y-155.644
X177.81Y-157.119
X177.81Y-158.593
X177.81Y-160.068
X177.81Y-165.966
X177.81Y-167.441
X177.81Y-168.915
X177.81Y-170.39
X177.81Y-171.864
X177.81Y-173.339
X177.81Y-174.814
X177.81Y-176.288
X177.81Y-177.763
X177.81Y-179.237
X177.81Y-180.712
X177.81Y-182.186
X177.81Y-183.661
X177.81Y-189.559
X177.81Y-191.034
X177.81Y-192.508
X177.81Y-193.983
X177.81Y-195.458
X177.81Y-196.932
X177.81Y-198.407
X177.81Y-199.881
X177.81Y-201.356
X177.81Y-202.831
X177.81Y-204.305
X177.81Y-205.78
X177.81Y-207.254
X177.81Y-213.153
X177.81Y-214.627
X177.81Y-216.102
X177.81Y-217.576
X177.81Y-219.051
X177.81Y-220.525
X177.86Y-221.45
X177.86Y-222.55
X177.86Y-223.65
X177.86Y-224.75
X179.26Y-219.25
X179.26Y-220.35
X179.26Y-221.45
X179.26Y-222.55
X179.26Y-223.65
X179.26Y-224.75
X180.66Y-219.25
X180.66Y-220.35
X180.66Y-221.45
X180.66Y-222.55
X180.66Y-223.65
X180.66Y-224.75
X182.06Y-219.25
X182.06Y-224.75
X213.25Y-136.456
X213.25Y-142.28
X213.25Y-143.735
X213.25Y-145.191
X213.25Y-146.647
X213.25Y-148.103
X213.25Y-149.559
X213.25Y-151.015
X213.25Y-152.471
X213.25Y-153.927
X213.25Y-155.383
X213.25Y-156.839
X213.25Y-158.295
X213.25Y-159.75
X213.25Y-190.057
X213.25Y-191.513
X213.25Y-192.968
X213.25Y-194.424
X213.25Y-195.879
X213.25Y-197.335
X213.25Y-198.79
X213.25Y-200.245
X213.25Y-201.701
X213.25Y-203.156
X213.25Y-204.612
X213.25Y-206.067
X213.25Y-207.523
X213.25Y-213.345
X214.35Y-145.191
X214.35Y-146.647
X214.35Y-148.103
X214.35Y-149.559
X214.35Y-151.015
X214.35Y-152.471
X214.35Y-153.927
X214.35Y-155.383
X214.35Y-156.839
X214.35Y-158.295
X214.35Y-192.968
X214.35Y-194.424
X214.35Y-195.879
X214.35Y-197.335
X214.35Y-198.79
X214.35Y-200.245
X214.35Y-201.701
X214.35Y-203.156
X214.35Y-204.612
X214.35Y-206.067
X215.45Y-145.191
X215.45Y-146.647
X215.45Y-148.103
X215.45Y-149.559
X215.45Y-151.015
X215.45Y-152.471
X215.45Y-153.927
X215.45Y-155.383
X215.45Y-156.839
X215.45Y-158.295
X215.45Y-192.968
X215.45Y-194.424
X215.45Y-195.879
X215.45Y-197.335
X215.45Y-198.79
X215.45Y-200.245
X215.45Y-201.701
X215.45Y-203.156
X215.45Y-204.612
X215.45Y-206.067
X216.55Y-145.191
X216.55Y-146.647
X216.55Y-148.103
X216.55Y-149.559
X216.55Y-151.015
X216.55Y-152.471
X216.55Y-153.927
X216.55Y-155.383
X216.55Y-156.839
X216.55Y-158.295
X216.55Y-192.968
X216.55Y-194.424
X216.55Y-195.879
X216.55Y-197.335
X216.55Y-198.79
X216.55Y-200.245
X216.55Y-201.701
X216.55Y-203.156
X216.55Y-204.612
X216.55Y-206.067
X217.65Y-145.191
X217.65Y-146.647
X217.65Y-148.103
X217.65Y-149.559
X217.65Y-151.015
X217.65Y-152.471
X217.65Y-153.927
X217.65Y-155.383
X217.65Y-156.839
X217.65Y-158.295
X217.65Y-192.968
X217.65Y-194.424
X217.65Y-195.879
X217.65Y-197.335
X217.65Y-198.79
X217.65Y-200.245
X217.65Y-201.701
X217.65Y-203.156
X217.65Y-204.612
X217.65Y-206.067
X218.75Y-136.456
X218.75Y-142.28
X218.75Y-143.735
X218.75Y-145.191
X218.75Y-146.647
X218.75Y-148.103
X218.75Y-149.559
X218.75Y-151.015
X218.75Y-152.471
X218.75Y-153.927
X218.75Y-155.383
X218.75Y-156.839
X218.75Y-158.295
X218.75Y-159.75
X218.75Y-190.057
X218.75Y-191.513
X218.75Y-192.968
X218.75Y-194.424
X218.75Y-195.879
X218.75Y-197.335
X218.75Y-198.79
X218.75Y-200.245
X218.75Y-201.701
X218.75Y-203.156
X218.75Y-204.612
X218.75Y-206.067
X218.75Y-207.523
X218.75Y-213.345
X220.912Y-136.53
X220.912Y-137.63
X220.912Y-138.73
X220.912Y-139.83
X220.912Y-140.93
X220.912Y-142.03
X220.912Y-160.28
X220.912Y-161.38
X220.912Y-162.48
X220.912Y-163.58
X220.912Y-164.68
X220.912Y-165.78
X220.912Y-184.03
X220.912Y-185.13
X220.912Y-186.23
X220.912Y-187.33
X220.912Y-188.43
X220.912Y-189.53
X220.912Y-207.78
X220.912Y-208.88
X220.912Y-209.98
X220.912Y-211.08
X220.912Y-212.18
X220.912Y-213.28
X222.324Y-136.53
X222.324Y-137.63
X222.324Y-138.73
X222.324Y-139.83
X222.324Y-140.93
X222.324Y-142.03
X222.324Y-160.28
X222.324Y-161.38
X222.324Y-162.48
X222.324Y-163.58
X222.324Y-164.68
X222.324Y-165.78
X222.324Y-184.03
X222.324Y-185.13
X222.324Y-186.23
X222.324Y-187.33
X222.324Y-188.43
X222.324Y-189.53
X222.324Y-207.78
X222.324Y-208.88
X222.324Y-209.98
X222.324Y-211.08
X222.324Y-212.18
X222.324Y-213.28
X222.438Y-84.5
X222.438Y-85.6
X222.438Y-86.7
X222.438Y-87.8
X222.438Y-88.9
X222.438Y-90.0
X223.735Y-136.53
X223.735Y-137.63
X223.735Y-138.73
X223.735Y-139.83
X223.735Y-140.93
X223.735Y-142.03
X223.735Y-160.28
X223.735Y-161.38
X223.735Y-162.48
X223.735Y-163.58
X223.735Y-164.68
X223.735Y-165.78
X223.735Y-184.03
X223.735Y-185.13
X223.735Y-186.23
X223.735Y-187.33
X223.735Y-188.43
X223.735Y-189.53
X223.735Y-207.78
X223.735Y-208.88
X223.735Y-209.98
X223.735Y-211.08
X223.735Y-212.18
X223.735Y-213.28
X223.875Y-84.5
X223.875Y-90.0
X225.147Y-136.53
X225.147Y-137.63
X225.147Y-138.73
X225.147Y-139.83
X225.147Y-140.93
X225.147Y-142.03
X225.147Y-160.28
X225.147Y-161.38
X225.147Y-162.48
X225.147Y-163.58
X225.147Y-164.68
X225.147Y-165.78
X225.147Y-184.03
X225.147Y-185.13
X225.147Y-186.23
X225.147Y-187.33
X225.147Y-188.43
X225.147Y-189.53
X225.147Y-207.78
X225.147Y-208.88
X225.147Y-209.98
X225.147Y-211.08
X225.147Y-212.18
X225.147Y-213.28
X226.559Y-136.53
X226.559Y-137.63
X226.559Y-138.73
X226.559Y-139.83
X226.559Y-140.93
X226.559Y-142.03
X226.559Y-160.28
X226.559Y-161.38
X226.559Y-162.48
X226.559Y-163.58
X226.559Y-164.68
X226.559Y-165.78
X226.559Y-184.03
X226.559Y-185.13
X226.559Y-186.23
X226.559Y-187.33
X226.559Y-188.43
X226.559Y-189.53
X226.559Y-207.78
X226.559Y-208.88
X226.559Y-209.98
X226.559Y-211.08
X226.559Y-212.18
X226.559Y-213.28
X227.971Y-136.53
X227.971Y-137.63
X227.971Y-138.73
X227.971Y-139.83
X227.971Y-140.93
X227.971Y-142.03
X227.971Y-160.28
X227.971Y-161.38
X227.971Y-162.48
X227.971Y-163.58
X227.971Y-164.68
X227.971Y-165.78
X227.971Y-184.03
X227.971Y-185.13
X227.971Y-186.23
X227.971Y-187.33
X227.971Y-188.43
X227.971Y-189.53
X227.971Y-207.78
X227.971Y-208.88
X227.971Y-209.98
X227.971Y-211.08
X227.971Y-212.18
X227.971Y-213.28
X228.188Y-84.5
X228.188Y-90.0
X229.382Y-136.53
X229.382Y-137.63
X229.382Y-138.73
X229.382Y-139.83
X229.382Y-140.93
X229.382Y-142.03
X229.382Y-160.28
X229.382Y-161.38
X229.382Y-162.48
X229.382Y-163.58
X229.382Y-164.68
X229.382Y-165.78
X229.382Y-184.03
X229.382Y-185.13
X229.382Y-186.23
X229.382Y-187.33
X229.382Y-188.43
X229.382Y-189.53
X229.382Y-207.78
X229.382Y-208.88
X229.382Y-209.98
X229.382Y-211.08
X229.382Y-212.18
X229.382Y-213.28
X229.625Y-84.5
X229.625Y-85.6
X229.625Y-86.7
X229.625Y-87.8
X229.625Y-88.9
X229.625Y-90.0
X230.794Y-136.53
X230.794Y-142.03
X230.794Y-160.28
X230.794Y-165.78
X230.794Y-184.03
X230.794Y-189.53
X230.794Y-207.78
X230.794Y-213.28
X231.062Y-84.5
X231.062Y-85.6
X231.062Y-86.7
X231.062Y-87.8
X231.062Y-88.9
X231.062Y-90.0
X232.206Y-136.53
X232.206Y-142.03
X232.206Y-160.28
X232.206Y-165.78
X232.206Y-184.03
X232.206Y-189.53
X232.206Y-207.78
X232.206Y-213.28
X232.5Y-84.5
X232.5Y-90.0
X233.618Y-136.53
X233.618Y-142.03
X233.618Y-160.28
X233.618Y-165.78
X233.618Y-184.03
X233.618Y-189.53
X233.618Y-207.78
X233.618Y-213.28
X233.938Y-84.5
X233.938Y-90.0
X235.029Y-136.53
X235.029Y-137.63
X235.029Y-138.73
X235.029Y-139.83
X235.029Y-140.93
X235.029Y-142.03
X235.029Y-160.28
X235.029Y-161.38
X235.029Y-162.48
X235.029Y-163.58
X235.029Y-164.68
X235.029Y-165.78
X235.029Y-184.03
X235.029Y-185.13
X235.029Y-186.23
X235.029Y-187.33
X235.029Y-188.43
X235.029Y-189.53
X235.029Y-207.78
X235.029Y-208.88
X235.029Y-209.98
X235.029Y-211.08
X235.029Y-212.18
X235.029Y-213.28
X235.375Y-84.5
X235.375Y-85.6
X235.375Y-88.9
X235.375Y-90.0
X236.441Y-136.53
X236.441Y-137.63
X236.441Y-138.73
X236.441Y-139.83
X236.441Y-140.93
X236.441Y-142.03
X236.441Y-160.28
X236.441Y-161.38
X236.441Y-162.48
X236.441Y-163.58
X236.441Y-164.68
X236.441Y-165.78
X236.441Y-184.03
X236.441Y-185.13
X236.441Y-186.23
X236.441Y-187.33
X236.441Y-188.43
X236.441Y-189.53
X236.441Y-207.78
X236.441Y-208.88
X236.441Y-209.98
X236.441Y-211.08
X236.441Y-212.18
X236.441Y-213.28
X236.812Y-84.5
X236.812Y-85.6
X236.812Y-86.7
X236.812Y-87.8
X236.812Y-88.9
X236.812Y-90.0
X237.853Y-136.53
X237.853Y-142.03
X237.853Y-160.28
X237.853Y-165.78
X237.853Y-184.03
X237.853Y-189.53
X237.853Y-207.78
X237.853Y-213.28
X238.25Y-84.5
X238.25Y-85.6
X238.25Y-86.7
X238.25Y-87.8
X238.25Y-88.9
X238.25Y-90.0
X239.688Y-84.5
X239.688Y-85.6
X239.688Y-86.7
X239.688Y-87.8
X239.688Y-88.9
X239.688Y-90.0
X241.125Y-84.5
X241.125Y-85.6
X241.125Y-86.7
X241.125Y-87.8
X241.125Y-88.9
X241.125Y-90.0
X242.088Y-136.53
X242.088Y-142.03
X242.088Y-160.28
X242.088Y-165.78
X242.088Y-184.03
X242.088Y-189.53
X242.088Y-207.78
X242.088Y-213.28
X242.562Y-84.5
X242.562Y-85.6
X242.562Y-86.7
X242.562Y-87.8
X242.562Y-88.9
X242.562Y-90.0
X293.912Y-136.53
X293.912Y-137.63
X293.912Y-140.93
X293.912Y-142.03
X293.912Y-160.28
X293.912Y-161.38
X293.912Y-164.68
X293.912Y-165.78
X293.912Y-184.03
X293.912Y-185.13
X293.912Y-188.43
X293.912Y-189.53
X293.912Y-207.78
X293.912Y-208.88
X293.912Y-212.18
X293.912Y-213.28
X295.324Y-136.53
X295.324Y-142.03
X295.324Y-160.28
X295.324Y-165.78
X295.324Y-184.03
X295.324Y-189.53
X295.324Y-207.78
X295.324Y-213.28
X298.147Y-136.53
X298.147Y-142.03
X298.147Y-160.28
X298.147Y-165.78
X298.147Y-184.03
X298.147Y-189.53
X298.147Y-207.78
X298.147Y-213.28
X299.559Y-136.53
X299.559Y-137.63
X299.559Y-138.73
X299.559Y-139.83
X299.559Y-140.93
X299.559Y-142.03
X299.559Y-160.28
X299.559Y-161.38
X299.559Y-162.48
X299.559Y-163.58
X299.559Y-164.68
X299.559Y-165.78
X299.559Y-184.03
X299.559Y-185.13
X299.559Y-186.23
X299.559Y-187.33
X299.559Y-188.43
X299.559Y-189.53
X299.559Y-207.78
X299.559Y-208.88
X299.559Y-209.98
X299.559Y-211.08
X299.559Y-212.18
X299.559Y-213.28
X300.971Y-136.53
X300.971Y-137.63
X300.971Y-138.73
X300.971Y-139.83
X300.971Y-140.93
X300.971Y-142.03
X300.971Y-160.28
X300.971Y-161.38
X300.971Y-162.48
X300.971Y-163.58
X300.971Y-164.68
X300.971Y-165.78
X300.971Y-184.03
X300.971Y-185.13
X300.971Y-186.23
X300.971Y-187.33
X300.971Y-188.43
X300.971Y-189.53
X300.971Y-207.78
X300.971Y-208.88
X300.971Y-209.98
X300.971Y-211.08
X300.971Y-212.18
X300.971Y-213.28
X302.382Y-136.53
X302.382Y-137.63
X302.382Y-140.93
X302.382Y-142.03
X302.382Y-160.28
X302.382Y-161.38
X302.382Y-164.68
X302.382Y-165.78
X302.382Y-184.03
X302.382Y-185.13
X302.382Y-188.43
X302.382Y-189.53
X302.382Y-207.78
X302.382Y-208.88
X302.382Y-212.18
X302.382Y-213.28
X303.794Y-136.53
X303.794Y-142.03
X303.794Y-160.28
X303.794Y-165.78
X303.794Y-184.03
X303.794Y-189.53
X303.794Y-207.78
X303.794Y-213.28
X305.206Y-136.53
X305.206Y-142.03
X305.206Y-160.28
X305.206Y-165.78
X305.206Y-184.03
X305.206Y-189.53
X305.206Y-207.78
X305.206Y-213.28
X306.618Y-136.53
X306.618Y-137.63
X306.618Y-140.93
X306.618Y-142.03
X306.618Y-160.28
X306.618Y-161.38
X306.618Y-164.68
X306.618Y-165.78
X306.618Y-184.03
X306.618Y-185.13
X306.618Y-188.43
X306.618Y-189.53
X306.618Y-207.78
X306.618Y-208.88
X306.618Y-212.18
X306.618Y-213.28
X308.029Y-136.53
X308.029Y-137.63
X308.029Y-138.73
X308.029Y-139.83
X308.029Y-140.93
X308.029Y-142.03
X308.029Y-160.28
X308.029Y-161.38
X308.029Y-162.48
X308.029Y-163.58
X308.029Y-164.68
X308.029Y-165.78
X308.029Y-184.03
X308.029Y-185.13
X308.029Y-186.23
X308.029Y-187.33
X308.029Y-188.43
X308.029Y-189.53
X308.029Y-207.78
X308.029Y-208.88
X308.029Y-209.98
X308.029Y-211.08
X308.029Y-212.18
X308.029Y-213.28
X309.441Y-136.53
X309.441Y-137.63
X309.441Y-138.73
X309.441Y-139.83
X309.441Y-140.93
X309.441Y-142.03
X309.441Y-160.28
X309.441Y-161.38
X309.441Y-162.48
X309.441Y-163.58
X309.441Y-164.68
X309.441Y-165.78
X309.441Y-184.03
X309.441Y-185.13
X309.441Y-186.23
X309.441Y-187.33
X309.441Y-188.43
X309.441Y-189.53
X309.441Y-207.78
X309.441Y-208.88
X309.441Y-209.98
X309.441Y-211.08
X309.441Y-212.18
X309.441Y-213.28
X310.853Y-136.53
X310.853Y-137.63
X310.853Y-138.73
X310.853Y-139.83
X310.853Y-140.93
X310.853Y-142.03
X310.853Y-160.28
X310.853Y-161.38
X310.853Y-162.48
X310.853Y-163.58
X310.853Y-164.68
X310.853Y-165.78
X310.853Y-184.03
X310.853Y-185.13
X310.853Y-186.23
X310.853Y-187.33
X310.853Y-188.43
X310.853Y-189.53
X310.853Y-207.78
X310.853Y-208.88
X310.853Y-209.98
X310.853Y-211.08
X310.853Y-212.18
X310.853Y-213.28
X312.265Y-136.53
X312.265Y-137.63
X312.265Y-138.73
X312.265Y-139.83
X312.265Y-140.93
X312.265Y-142.03
X312.265Y-160.28
X312.265Y-161.38
X312.265Y-162.48
X312.265Y-163.58
X312.265Y-164.68
X312.265Y-165.78
X312.265Y-184.03
X312.265Y-185.13
X312.265Y-186.23
X312.265Y-187.33
X312.265Y-188.43
X312.265Y-189.53
X312.265Y-207.78
X312.265Y-208.88
X312.265Y-209.98
X312.265Y-211.08
X312.265Y-212.18
X312.265Y-213.28
X313.676Y-136.53
X313.676Y-137.63
X313.676Y-138.73
X313.676Y-139.83
X313.676Y-140.93
X313.676Y-142.03
X313.676Y-160.28
X313.676Y-161.38
X313.676Y-162.48
X313.676Y-163.58
X313.676Y-164.68
X313.676Y-165.78
X313.676Y-184.03
X313.676Y-185.13
X313.676Y-186.23
X313.676Y-187.33
X313.676Y-188.43
X313.676Y-189.53
X313.676Y-207.78
X313.676Y-208.88
X313.676Y-209.98
X313.676Y-211.08
X313.676Y-212.18
X313.676Y-213.28
X315.088Y-136.53
X315.088Y-137.63
X315.088Y-138.73
X315.088Y-139.83
X315.088Y-140.93
X315.088Y-142.03
X315.088Y-160.28
X315.088Y-161.38
X315.088Y-162.48
X315.088Y-163.58
X315.088Y-164.68
X315.088Y-165.78
X315.088Y-184.03
X315.088Y-185.13
X315.088Y-186.23
X315.088Y-187.33
X315.088Y-188.43
X315.088Y-189.53
X315.088Y-207.78
X315.088Y-208.88
X315.088Y-209.98
X315.088Y-211.08
X315.088Y-212.18
X315.088Y-213.28
X317.61Y-136.613
X317.61Y-141.947
X317.61Y-166.246
X317.61Y-167.689
X317.61Y-169.132
X317.61Y-170.575
X317.61Y-172.019
X317.61Y-173.462
X317.61Y-174.905
X317.61Y-176.348
X317.61Y-177.791
X317.61Y-179.235
X317.61Y-180.678
X317.61Y-182.121
X317.61Y-183.564
X317.61Y-207.863
X317.61Y-213.197
X318.71Y-169.132
X318.71Y-170.575
X318.71Y-172.019
X318.71Y-173.462
X318.71Y-174.905
X318.71Y-176.348
X318.71Y-177.791
X318.71Y-179.235
X318.71Y-180.678
X318.71Y-182.121
X319.81Y-169.132
X319.81Y-170.575
X319.81Y-172.019
X319.81Y-173.462
X319.81Y-174.905
X319.81Y-176.348
X319.81Y-177.791
X319.81Y-179.235
X319.81Y-180.678
X319.81Y-182.121
X320.91Y-169.132
X320.91Y-170.575
X320.91Y-172.019
X320.91Y-173.462
X320.91Y-174.905
X320.91Y-176.348
X320.91Y-177.791
X320.91Y-179.235
X320.91Y-180.678
X320.91Y-182.121
X322.01Y-169.132
X322.01Y-170.575
X322.01Y-172.019
X322.01Y-173.462
X322.01Y-174.905
X322.01Y-176.348
X322.01Y-177.791
X322.01Y-179.235
X322.01Y-180.678
X322.01Y-182.121
X323.11Y-136.613
X323.11Y-141.947
X323.11Y-166.246
X323.11Y-167.689
X323.11Y-169.132
X323.11Y-170.575
X323.11Y-172.019
X323.11Y-173.462
X323.11Y-174.905
X323.11Y-176.348
X323.11Y-177.791
X323.11Y-179.235
X323.11Y-180.678
X323.11Y-182.121
X323.11Y-183.564
X323.11Y-207.863
X323.11Y-213.197
T2
X68.27Y-220.73
X68.27Y-223.27
X78.06Y-138.01
X78.06Y-140.55
X78.06Y-161.76
X78.06Y-164.3
X78.06Y-185.51
X78.06Y-188.05
X78.06Y-209.26
X78.06Y-211.8
X146.77Y-85.98
X146.77Y-88.52
X175.06Y-138.01
X175.06Y-140.55
X175.06Y-161.76
X175.06Y-164.3
X175.06Y-185.51
X175.06Y-188.05
X175.06Y-209.26
X175.06Y-211.8
X184.86Y-220.73
X184.86Y-223.27
X216.0Y-138.01
X216.0Y-140.55
X216.0Y-161.76
X216.0Y-164.3
X216.0Y-185.51
X216.0Y-188.05
X216.0Y-209.26
X216.0Y-211.8
X248.03Y-85.98
X248.03Y-88.52
X320.36Y-138.01
X320.36Y-140.55
X320.36Y-161.76
X320.36Y-164.3
X320.36Y-185.51
X320.36Y-188.05
X320.36Y-209.26
X320.36Y-211.8
T3
X105.28Y-136.74
X105.28Y-141.82
X105.28Y-160.49
X105.28Y-165.57
X105.28Y-184.24
X105.28Y-189.32
X105.28Y-207.99
X105.28Y-213.07
X147.84Y-136.74
X147.84Y-141.82
X147.84Y-160.49
X147.84Y-165.57
X147.84Y-184.24
X147.84Y-189.32
X147.84Y-207.99
X147.84Y-213.07
X176.12Y-84.71
X176.12Y-89.79
X218.68Y-84.71
X218.68Y-89.79
X246.9Y-136.74
X246.9Y-141.82
X246.9Y-160.49
X246.9Y-165.57
X246.9Y-184.24
X246.9Y-189.32
X246.9Y-207.99
X246.9Y-213.07
X289.46Y-136.74
X289.46Y-141.82
X289.46Y-160.49
X289.46Y-165.57
X289.46Y-184.24
X289.46Y-189.32
X289.46Y-207.99
X289.46Y-213.07
T5
X90.45Y-139.28
X90.45Y-163.03
X90.45Y-186.78
X90.45Y-210.53
X161.29Y-87.25
X162.67Y-139.28
X162.67Y-163.03
X162.67Y-186.78
X162.67Y-210.53
X232.07Y-139.28
X232.07Y-163.03
X232.07Y-186.78
X232.07Y-210.53
X233.51Y-87.25
X304.29Y-139.28
X304.29Y-163.03
X304.29Y-186.78
X304.29Y-210.53
T6
X162.4Y-147.28
X162.4Y-171.03
X162.4Y-194.78
X162.4Y-218.53
X232.34Y-155.03
X232.34Y-202.53
X233.24Y-95.25
X304.02Y-147.28
X304.02Y-194.78
T7
X53.9Y-44.9
X53.9Y-144.9
X53.9Y-244.9
X197.4Y-44.9
X197.4Y-244.9
X340.9Y-44.9
X340.9Y-144.9
X340.9Y-244.9
T8
X98.96Y-147.28
X98.96Y-171.03
X98.96Y-194.78
X98.96Y-218.53
X154.16Y-131.28
X154.16Y-155.03
X154.16Y-178.78
X154.16Y-202.53
X169.8Y-95.25
X225.0Y-79.25
X240.58Y-147.28
X240.58Y-171.03
X240.58Y-194.78
X240.58Y-218.53
X295.78Y-131.28
X295.78Y-155.03
X295.78Y-178.78
X295.78Y-202.53
T4
X97.66Y-139.28G85X98.76Y-139.28
G05
X97.66Y-163.03G85X98.76Y-163.03
G05
X97.66Y-186.78G85X98.76Y-186.78
G05
X97.66Y-210.53G85X98.76Y-210.53
G05
X154.36Y-139.28G85X155.46Y-139.28
G05
X154.36Y-163.03G85X155.46Y-163.03
G05
X154.36Y-186.78G85X155.46Y-186.78
G05
X154.36Y-210.53G85X155.46Y-210.53
G05
X168.5Y-87.25G85X169.6Y-87.25
G05
X225.2Y-87.25G85X226.3Y-87.25
G05
X239.28Y-139.28G85X240.38Y-139.28
G05
X240.38Y-163.03G85X239.28Y-163.03
G05
X239.28Y-186.78G85X240.38Y-186.78
G05
X240.38Y-210.53G85X239.28Y-210.53
G05
X295.98Y-139.28G85X297.08Y-139.28
G05
X297.08Y-163.03G85X295.98Y-163.03
G05
X295.98Y-186.78G85X297.08Y-186.78
G05
X297.08Y-210.53G85X295.98Y-210.53
G05
M30
