M48
; DRILL file KiCad 10.0.5 date 2026-09-18T08:26:43
; FORMAT={-:-/ absolute / metric / decimal}
; #@! TF.CreationDate,2026-09-18T08:26:43+05:30
; #@! TF.GenerationSoftware,Kicad,Pcbnew,10.0.5
; #@! TF.FileFunction,MixedPlating,1,2
FMAT,2
METRIC
; #@! TA.AperFunction,Plated,PTH,ViaDrill
T1C0.400
; #@! TA.AperFunction,Plated,PTH,ComponentDrill
T2C1.830
; #@! TA.AperFunction,Plated,PTH,ComponentDrill
T3C2.000
; #@! TA.AperFunction,NonPlated,NPTH,ComponentDrill
T4C2.400
; #@! TA.AperFunction,NonPlated,NPTH,ComponentDrill
T5C3.200
; #@! TA.AperFunction,NonPlated,NPTH,ComponentDrill
T6C3.450
%
G90
G05
T1
X71.067Y-219.25
X71.067Y-224.75
X71.63Y-135.6
X71.63Y-136.851
X71.63Y-141.858
X71.63Y-143.109
X71.63Y-144.361
X71.63Y-145.612
X71.63Y-146.864
X71.63Y-148.115
X71.63Y-149.367
X71.63Y-150.618
X71.63Y-151.87
X71.63Y-153.121
X71.63Y-154.373
X71.63Y-155.624
X71.63Y-156.876
X71.63Y-158.127
X71.63Y-159.379
X71.63Y-160.63
X71.63Y-165.636
X71.63Y-166.888
X71.63Y-168.139
X71.63Y-169.391
X71.63Y-170.642
X71.63Y-171.894
X71.63Y-173.145
X71.63Y-174.397
X71.63Y-175.648
X71.63Y-176.9
X71.63Y-178.151
X71.63Y-179.403
X71.63Y-180.654
X71.63Y-181.906
X71.63Y-183.158
X71.63Y-184.409
X71.63Y-189.415
X71.63Y-190.667
X71.63Y-191.918
X71.63Y-193.17
X71.63Y-194.421
X71.63Y-195.673
X71.63Y-196.924
X71.63Y-198.176
X71.63Y-199.427
X71.63Y-200.679
X71.63Y-201.93
X71.63Y-203.182
X71.63Y-204.433
X71.63Y-205.685
X71.63Y-206.936
X71.63Y-208.188
X71.63Y-213.194
X71.63Y-214.445
X71.63Y-215.697
X71.63Y-216.948
X71.63Y-218.2
X72.466Y-219.25
X72.466Y-220.35
X72.466Y-221.45
X72.466Y-222.55
X72.466Y-223.65
X72.466Y-224.75
X72.73Y-135.6
X72.73Y-143.109
X72.73Y-144.361
X72.73Y-145.612
X72.73Y-146.864
X72.73Y-148.115
X72.73Y-149.367
X72.73Y-150.618
X72.73Y-151.87
X72.73Y-153.121
X72.73Y-154.373
X72.73Y-155.624
X72.73Y-156.876
X72.73Y-158.127
X72.73Y-159.379
X72.73Y-166.888
X72.73Y-168.139
X72.73Y-169.391
X72.73Y-170.642
X72.73Y-171.894
X72.73Y-173.145
X72.73Y-174.397
X72.73Y-175.648
X72.73Y-176.9
X72.73Y-178.151
X72.73Y-179.403
X72.73Y-180.654
X72.73Y-181.906
X72.73Y-183.158
X72.73Y-190.667
X72.73Y-191.918
X72.73Y-193.17
X72.73Y-194.421
X72.73Y-195.673
X72.73Y-196.924
X72.73Y-198.176
X72.73Y-199.427
X72.73Y-200.679
X72.73Y-201.93
X72.73Y-203.182
X72.73Y-204.433
X72.73Y-205.685
X72.73Y-206.936
X72.73Y-214.445
X72.73Y-215.697
X72.73Y-216.948
X72.73Y-218.2
X73.83Y-135.6
X73.83Y-143.109
X73.83Y-144.361
X73.83Y-145.612
X73.83Y-146.864
X73.83Y-148.115
X73.83Y-149.367
X73.83Y-150.618
X73.83Y-151.87
X73.83Y-153.121
X73.83Y-154.373
X73.83Y-155.624
X73.83Y-156.876
X73.83Y-158.127
X73.83Y-159.379
X73.83Y-166.888
X73.83Y-168.139
X73.83Y-169.391
X73.83Y-170.642
X73.83Y-171.894
X73.83Y-173.145
X73.83Y-174.397
X73.83Y-175.648
X73.83Y-176.9
X73.83Y-178.151
X73.83Y-179.403
X73.83Y-180.654
X73.83Y-181.906
X73.83Y-183.158
X73.83Y-190.667
X73.83Y-191.918
X73.83Y-193.17
X73.83Y-194.421
X73.83Y-195.673
X73.83Y-196.924
X73.83Y-198.176
X73.83Y-199.427
X73.83Y-200.679
X73.83Y-201.93
X73.83Y-203.182
X73.83Y-204.433
X73.83Y-205.685
X73.83Y-206.936
X73.83Y-214.445
X73.83Y-215.697
X73.83Y-216.948
X73.83Y-218.2
X73.864Y-219.25
X73.864Y-220.35
X73.864Y-221.45
X73.864Y-222.55
X73.864Y-223.65
X73.864Y-224.75
X74.93Y-135.6
X74.93Y-143.109
X74.93Y-144.361
X74.93Y-145.612
X74.93Y-146.864
X74.93Y-148.115
X74.93Y-149.367
X74.93Y-150.618
X74.93Y-151.87
X74.93Y-153.121
X74.93Y-154.373
X74.93Y-155.624
X74.93Y-156.876
X74.93Y-158.127
X74.93Y-159.379
X74.93Y-166.888
X74.93Y-168.139
X74.93Y-169.391
X74.93Y-170.642
X74.93Y-171.894
X74.93Y-173.145
X74.93Y-174.397
X74.93Y-175.648
X74.93Y-176.9
X74.93Y-178.151
X74.93Y-179.403
X74.93Y-180.654
X74.93Y-181.906
X74.93Y-183.158
X74.93Y-190.667
X74.93Y-191.918
X74.93Y-193.17
X74.93Y-194.421
X74.93Y-195.673
X74.93Y-196.924
X74.93Y-198.176
X74.93Y-199.427
X74.93Y-200.679
X74.93Y-201.93
X74.93Y-203.182
X74.93Y-204.433
X74.93Y-205.685
X74.93Y-206.936
X74.93Y-214.445
X74.93Y-215.697
X74.93Y-216.948
X74.93Y-218.2
X75.263Y-221.45
X75.263Y-222.55
X75.263Y-223.65
X75.263Y-224.75
X76.03Y-135.6
X76.03Y-143.109
X76.03Y-144.361
X76.03Y-145.612
X76.03Y-146.864
X76.03Y-148.115
X76.03Y-149.367
X76.03Y-150.618
X76.03Y-151.87
X76.03Y-153.121
X76.03Y-154.373
X76.03Y-155.624
X76.03Y-156.876
X76.03Y-158.127
X76.03Y-159.379
X76.03Y-166.888
X76.03Y-168.139
X76.03Y-169.391
X76.03Y-170.642
X76.03Y-171.894
X76.03Y-173.145
X76.03Y-174.397
X76.03Y-175.648
X76.03Y-176.9
X76.03Y-178.151
X76.03Y-179.403
X76.03Y-180.654
X76.03Y-181.906
X76.03Y-183.158
X76.03Y-190.667
X76.03Y-191.918
X76.03Y-193.17
X76.03Y-194.421
X76.03Y-195.673
X76.03Y-196.924
X76.03Y-198.176
X76.03Y-199.427
X76.03Y-200.679
X76.03Y-201.93
X76.03Y-203.182
X76.03Y-204.433
X76.03Y-205.685
X76.03Y-206.936
X76.03Y-214.445
X76.03Y-215.697
X76.03Y-216.948
X76.03Y-218.2
X76.661Y-221.45
X76.661Y-222.55
X76.661Y-223.65
X76.661Y-224.75
X77.13Y-135.6
X77.13Y-143.109
X77.13Y-144.361
X77.13Y-145.612
X77.13Y-146.864
X77.13Y-148.115
X77.13Y-149.367
X77.13Y-150.618
X77.13Y-151.87
X77.13Y-153.121
X77.13Y-154.373
X77.13Y-155.624
X77.13Y-156.876
X77.13Y-158.127
X77.13Y-159.379
X77.13Y-166.888
X77.13Y-168.139
X77.13Y-169.391
X77.13Y-170.642
X77.13Y-171.894
X77.13Y-173.145
X77.13Y-174.397
X77.13Y-175.648
X77.13Y-176.9
X77.13Y-178.151
X77.13Y-179.403
X77.13Y-180.654
X77.13Y-181.906
X77.13Y-183.158
X77.13Y-190.667
X77.13Y-191.918
X77.13Y-193.17
X77.13Y-194.421
X77.13Y-195.673
X77.13Y-196.924
X77.13Y-198.176
X77.13Y-199.427
X77.13Y-200.679
X77.13Y-201.93
X77.13Y-203.182
X77.13Y-204.433
X77.13Y-205.685
X77.13Y-206.936
X77.13Y-214.445
X77.13Y-215.697
X77.13Y-216.948
X77.13Y-218.2
X77.455Y-136.53
X77.455Y-142.03
X77.455Y-160.28
X77.455Y-165.78
X77.455Y-184.03
X77.455Y-189.53
X77.455Y-207.78
X77.455Y-213.28
X78.692Y-136.53
X78.692Y-137.63
X78.692Y-138.73
X78.692Y-139.83
X78.692Y-140.93
X78.692Y-142.03
X78.692Y-160.28
X78.692Y-161.38
X78.692Y-162.48
X78.692Y-163.58
X78.692Y-164.68
X78.692Y-165.78
X78.692Y-184.03
X78.692Y-185.13
X78.692Y-186.23
X78.692Y-187.33
X78.692Y-188.43
X78.692Y-189.53
X78.692Y-207.78
X78.692Y-208.88
X78.692Y-209.98
X78.692Y-211.08
X78.692Y-212.18
X78.692Y-213.28
X79.93Y-136.53
X79.93Y-137.63
X79.93Y-138.73
X79.93Y-139.83
X79.93Y-140.93
X79.93Y-142.03
X79.93Y-160.28
X79.93Y-161.38
X79.93Y-162.48
X79.93Y-163.58
X79.93Y-164.68
X79.93Y-165.78
X79.93Y-184.03
X79.93Y-185.13
X79.93Y-186.23
X79.93Y-187.33
X79.93Y-188.43
X79.93Y-189.53
X79.93Y-207.78
X79.93Y-208.88
X79.93Y-209.98
X79.93Y-211.08
X79.93Y-212.18
X79.93Y-213.28
X81.167Y-136.53
X81.167Y-137.63
X81.167Y-138.73
X81.167Y-139.83
X81.167Y-140.93
X81.167Y-142.03
X81.167Y-160.28
X81.167Y-161.38
X81.167Y-162.48
X81.167Y-163.58
X81.167Y-164.68
X81.167Y-165.78
X81.167Y-184.03
X81.167Y-185.13
X81.167Y-186.23
X81.167Y-187.33
X81.167Y-188.43
X81.167Y-189.53
X81.167Y-207.78
X81.167Y-208.88
X81.167Y-209.98
X81.167Y-211.08
X81.167Y-212.18
X81.167Y-213.28
X82.405Y-136.53
X82.405Y-137.63
X82.405Y-138.73
X82.405Y-139.83
X82.405Y-140.93
X82.405Y-142.03
X82.405Y-160.28
X82.405Y-161.38
X82.405Y-162.48
X82.405Y-163.58
X82.405Y-164.68
X82.405Y-165.78
X82.405Y-184.03
X82.405Y-185.13
X82.405Y-186.23
X82.405Y-187.33
X82.405Y-188.43
X82.405Y-189.53
X82.405Y-207.78
X82.405Y-208.88
X82.405Y-209.98
X82.405Y-211.08
X82.405Y-212.18
X82.405Y-213.28
X148.295Y-84.5
X148.295Y-90.0
X149.532Y-84.5
X149.532Y-85.6
X149.532Y-86.7
X149.532Y-87.8
X149.532Y-88.9
X149.532Y-90.0
X150.77Y-84.5
X150.77Y-85.6
X150.77Y-86.7
X150.77Y-87.8
X150.77Y-88.9
X150.77Y-90.0
X152.007Y-84.5
X152.007Y-85.6
X152.007Y-86.7
X152.007Y-87.8
X152.007Y-88.9
X152.007Y-90.0
X153.245Y-84.5
X153.245Y-85.6
X153.245Y-86.7
X153.245Y-87.8
X153.245Y-88.9
X153.245Y-90.0
X170.715Y-136.53
X170.715Y-137.63
X170.715Y-138.73
X170.715Y-139.83
X170.715Y-140.93
X170.715Y-142.03
X170.715Y-160.28
X170.715Y-161.38
X170.715Y-162.48
X170.715Y-163.58
X170.715Y-164.68
X170.715Y-165.78
X170.715Y-184.03
X170.715Y-185.13
X170.715Y-186.23
X170.715Y-187.33
X170.715Y-188.43
X170.715Y-189.53
X170.715Y-207.78
X170.715Y-208.88
X170.715Y-209.98
X170.715Y-211.08
X170.715Y-212.18
X170.715Y-213.28
X171.952Y-136.53
X171.952Y-137.63
X171.952Y-138.73
X171.952Y-139.83
X171.952Y-140.93
X171.952Y-142.03
X171.952Y-160.28
X171.952Y-161.38
X171.952Y-162.48
X171.952Y-163.58
X171.952Y-164.68
X171.952Y-165.78
X171.952Y-184.03
X171.952Y-185.13
X171.952Y-186.23
X171.952Y-187.33
X171.952Y-188.43
X171.952Y-189.53
X171.952Y-207.78
X171.952Y-208.88
X171.952Y-209.98
X171.952Y-211.08
X171.952Y-212.18
X171.952Y-213.28
X173.19Y-136.53
X173.19Y-137.63
X173.19Y-138.73
X173.19Y-139.83
X173.19Y-140.93
X173.19Y-142.03
X173.19Y-160.28
X173.19Y-161.38
X173.19Y-162.48
X173.19Y-163.58
X173.19Y-164.68
X173.19Y-165.78
X173.19Y-184.03
X173.19Y-185.13
X173.19Y-186.23
X173.19Y-187.33
X173.19Y-188.43
X173.19Y-189.53
X173.19Y-207.78
X173.19Y-208.88
X173.19Y-209.98
X173.19Y-211.08
X173.19Y-212.18
X173.19Y-213.28
X174.427Y-136.53
X174.427Y-137.63
X174.427Y-138.73
X174.427Y-139.83
X174.427Y-140.93
X174.427Y-142.03
X174.427Y-160.28
X174.427Y-161.38
X174.427Y-162.48
X174.427Y-163.58
X174.427Y-164.68
X174.427Y-165.78
X174.427Y-184.03
X174.427Y-185.13
X174.427Y-186.23
X174.427Y-187.33
X174.427Y-188.43
X174.427Y-189.53
X174.427Y-207.78
X174.427Y-208.88
X174.427Y-209.98
X174.427Y-211.08
X174.427Y-212.18
X174.427Y-213.28
X175.665Y-136.53
X175.665Y-142.03
X175.665Y-160.28
X175.665Y-165.78
X175.665Y-184.03
X175.665Y-189.53
X175.665Y-207.78
X175.665Y-213.28
X175.99Y-135.6
X175.99Y-143.109
X175.99Y-144.361
X175.99Y-145.612
X175.99Y-146.864
X175.99Y-148.115
X175.99Y-149.367
X175.99Y-150.618
X175.99Y-151.87
X175.99Y-153.121
X175.99Y-154.373
X175.99Y-155.624
X175.99Y-156.876
X175.99Y-158.127
X175.99Y-159.379
X175.99Y-166.888
X175.99Y-168.139
X175.99Y-169.391
X175.99Y-170.642
X175.99Y-171.894
X175.99Y-173.145
X175.99Y-174.397
X175.99Y-175.648
X175.99Y-176.9
X175.99Y-178.151
X175.99Y-179.403
X175.99Y-180.654
X175.99Y-181.906
X175.99Y-183.158
X175.99Y-190.667
X175.99Y-191.918
X175.99Y-193.17
X175.99Y-194.421
X175.99Y-195.673
X175.99Y-196.924
X175.99Y-198.176
X175.99Y-199.427
X175.99Y-200.679
X175.99Y-201.93
X175.99Y-203.182
X175.99Y-204.433
X175.99Y-205.685
X175.99Y-206.936
X175.99Y-214.445
X175.99Y-215.697
X175.99Y-216.948
X175.99Y-218.2
X176.46Y-221.45
X176.46Y-222.55
X176.46Y-223.65
X176.46Y-224.75
X177.09Y-135.6
X177.09Y-143.109
X177.09Y-144.361
X177.09Y-145.612
X177.09Y-146.864
X177.09Y-148.115
X177.09Y-149.367
X177.09Y-150.618
X177.09Y-151.87
X177.09Y-153.121
X177.09Y-154.373
X177.09Y-155.624
X177.09Y-156.876
X177.09Y-158.127
X177.09Y-159.379
X177.09Y-166.888
X177.09Y-168.139
X177.09Y-169.391
X177.09Y-170.642
X177.09Y-171.894
X177.09Y-173.145
X177.09Y-174.397
X177.09Y-175.648
X177.09Y-176.9
X177.09Y-178.151
X177.09Y-179.403
X177.09Y-180.654
X177.09Y-181.906
X177.09Y-183.158
X177.09Y-190.667
X177.09Y-191.918
X177.09Y-193.17
X177.09Y-194.421
X177.09Y-195.673
X177.09Y-196.924
X177.09Y-198.176
X177.09Y-199.427
X177.09Y-200.679
X177.09Y-201.93
X177.09Y-203.182
X177.09Y-204.433
X177.09Y-205.685
X177.09Y-206.936
X177.09Y-214.445
X177.09Y-215.697
X177.09Y-216.948
X177.09Y-218.2
X177.86Y-221.45
X177.86Y-222.55
X177.86Y-223.65
X177.86Y-224.75
X178.19Y-135.6
X178.19Y-143.109
X178.19Y-144.361
X178.19Y-145.612
X178.19Y-146.864
X178.19Y-148.115
X178.19Y-149.367
X178.19Y-150.618
X178.19Y-151.87
X178.19Y-153.121
X178.19Y-154.373
X178.19Y-155.624
X178.19Y-156.876
X178.19Y-158.127
X178.19Y-159.379
X178.19Y-166.888
X178.19Y-168.139
X178.19Y-169.391
X178.19Y-170.642
X178.19Y-171.894
X178.19Y-173.145
X178.19Y-174.397
X178.19Y-175.648
X178.19Y-176.9
X178.19Y-178.151
X178.19Y-179.403
X178.19Y-180.654
X178.19Y-181.906
X178.19Y-183.158
X178.19Y-190.667
X178.19Y-191.918
X178.19Y-193.17
X178.19Y-194.421
X178.19Y-195.673
X178.19Y-196.924
X178.19Y-198.176
X178.19Y-199.427
X178.19Y-200.679
X178.19Y-201.93
X178.19Y-203.182
X178.19Y-204.433
X178.19Y-205.685
X178.19Y-206.936
X178.19Y-214.445
X178.19Y-215.697
X178.19Y-216.948
X178.19Y-218.2
X179.26Y-219.25
X179.26Y-220.35
X179.26Y-221.45
X179.26Y-222.55
X179.26Y-223.65
X179.26Y-224.75
X179.29Y-135.6
X179.29Y-143.109
X179.29Y-144.361
X179.29Y-145.612
X179.29Y-146.864
X179.29Y-148.115
X179.29Y-149.367
X179.29Y-150.618
X179.29Y-151.87
X179.29Y-153.121
X179.29Y-154.373
X179.29Y-155.624
X179.29Y-156.876
X179.29Y-158.127
X179.29Y-159.379
X179.29Y-166.888
X179.29Y-168.139
X179.29Y-169.391
X179.29Y-170.642
X179.29Y-171.894
X179.29Y-173.145
X179.29Y-174.397
X179.29Y-175.648
X179.29Y-176.9
X179.29Y-178.151
X179.29Y-179.403
X179.29Y-180.654
X179.29Y-181.906
X179.29Y-183.158
X179.29Y-190.667
X179.29Y-191.918
X179.29Y-193.17
X179.29Y-194.421
X179.29Y-195.673
X179.29Y-196.924
X179.29Y-198.176
X179.29Y-199.427
X179.29Y-200.679
X179.29Y-201.93
X179.29Y-203.182
X179.29Y-204.433
X179.29Y-205.685
X179.29Y-206.936
X179.29Y-214.445
X179.29Y-215.697
X179.29Y-216.948
X179.29Y-218.2
X180.39Y-135.6
X180.39Y-143.109
X180.39Y-144.361
X180.39Y-145.612
X180.39Y-146.864
X180.39Y-148.115
X180.39Y-149.367
X180.39Y-150.618
X180.39Y-151.87
X180.39Y-153.121
X180.39Y-154.373
X180.39Y-155.624
X180.39Y-156.876
X180.39Y-158.127
X180.39Y-159.379
X180.39Y-166.888
X180.39Y-168.139
X180.39Y-169.391
X180.39Y-170.642
X180.39Y-171.894
X180.39Y-173.145
X180.39Y-174.397
X180.39Y-175.648
X180.39Y-176.9
X180.39Y-178.151
X180.39Y-179.403
X180.39Y-180.654
X180.39Y-181.906
X180.39Y-183.158
X180.39Y-190.667
X180.39Y-191.918
X180.39Y-193.17
X180.39Y-194.421
X180.39Y-195.673
X180.39Y-196.924
X180.39Y-198.176
X180.39Y-199.427
X180.39Y-200.679
X180.39Y-201.93
X180.39Y-203.182
X180.39Y-204.433
X180.39Y-205.685
X180.39Y-206.936
X180.39Y-214.445
X180.39Y-215.697
X180.39Y-216.948
X180.39Y-218.2
X180.66Y-219.25
X180.66Y-220.35
X180.66Y-221.45
X180.66Y-222.55
X180.66Y-223.65
X180.66Y-224.75
X181.49Y-135.6
X181.49Y-136.851
X181.49Y-141.858
X181.49Y-143.109
X181.49Y-144.361
X181.49Y-145.612
X181.49Y-146.864
X181.49Y-148.115
X181.49Y-149.367
X181.49Y-150.618
X181.49Y-151.87
X181.49Y-153.121
X181.49Y-154.373
X181.49Y-155.624
X181.49Y-156.876
X181.49Y-158.127
X181.49Y-159.379
X181.49Y-160.63
X181.49Y-165.636
X181.49Y-166.888
X181.49Y-168.139
X181.49Y-169.391
X181.49Y-170.642
X181.49Y-171.894
X181.49Y-173.145
X181.49Y-174.397
X181.49Y-175.648
X181.49Y-176.9
X181.49Y-178.151
X181.49Y-179.403
X181.49Y-180.654
X181.49Y-181.906
X181.49Y-183.158
X181.49Y-184.409
X181.49Y-189.415
X181.49Y-190.667
X181.49Y-191.918
X181.49Y-193.17
X181.49Y-194.421
X181.49Y-195.673
X181.49Y-196.924
X181.49Y-198.176
X181.49Y-199.427
X181.49Y-200.679
X181.49Y-201.93
X181.49Y-203.182
X181.49Y-204.433
X181.49Y-205.685
X181.49Y-206.936
X181.49Y-208.188
X181.49Y-213.194
X181.49Y-214.445
X181.49Y-215.697
X181.49Y-216.948
X181.49Y-218.2
X182.06Y-219.25
X182.06Y-224.75
X213.25Y-135.6
X213.25Y-136.833
X213.25Y-141.766
X213.25Y-142.999
X213.25Y-144.232
X213.25Y-145.466
X213.25Y-146.699
X213.25Y-147.932
X213.25Y-149.165
X213.25Y-150.398
X213.25Y-151.632
X213.25Y-152.865
X213.25Y-154.098
X213.25Y-155.331
X213.25Y-156.564
X213.25Y-157.798
X213.25Y-159.031
X213.25Y-160.264
X213.25Y-165.197
X213.25Y-166.43
X213.25Y-183.38
X213.25Y-184.613
X213.25Y-189.544
X213.25Y-190.777
X213.25Y-192.01
X213.25Y-193.242
X213.25Y-194.475
X213.25Y-195.708
X213.25Y-196.941
X213.25Y-198.174
X213.25Y-199.406
X213.25Y-200.639
X213.25Y-201.872
X213.25Y-203.105
X213.25Y-204.338
X213.25Y-205.57
X213.25Y-206.803
X213.25Y-208.036
X213.25Y-212.967
X213.25Y-214.2
X214.35Y-135.6
X214.35Y-142.999
X214.35Y-144.232
X214.35Y-145.466
X214.35Y-146.699
X214.35Y-147.932
X214.35Y-149.165
X214.35Y-150.398
X214.35Y-151.632
X214.35Y-152.865
X214.35Y-154.098
X214.35Y-155.331
X214.35Y-156.564
X214.35Y-157.798
X214.35Y-159.031
X214.35Y-166.43
X214.35Y-183.38
X214.35Y-190.777
X214.35Y-192.01
X214.35Y-193.242
X214.35Y-194.475
X214.35Y-195.708
X214.35Y-196.941
X214.35Y-198.174
X214.35Y-199.406
X214.35Y-200.639
X214.35Y-201.872
X214.35Y-203.105
X214.35Y-204.338
X214.35Y-205.57
X214.35Y-206.803
X214.35Y-214.2
X215.45Y-135.6
X215.45Y-142.999
X215.45Y-144.232
X215.45Y-145.466
X215.45Y-146.699
X215.45Y-147.932
X215.45Y-149.165
X215.45Y-150.398
X215.45Y-151.632
X215.45Y-152.865
X215.45Y-154.098
X215.45Y-155.331
X215.45Y-156.564
X215.45Y-157.798
X215.45Y-159.031
X215.45Y-190.777
X215.45Y-192.01
X215.45Y-193.242
X215.45Y-194.475
X215.45Y-195.708
X215.45Y-196.941
X215.45Y-198.174
X215.45Y-199.406
X215.45Y-200.639
X215.45Y-201.872
X215.45Y-203.105
X215.45Y-204.338
X215.45Y-205.57
X215.45Y-206.803
X215.45Y-214.2
X216.55Y-135.6
X216.55Y-142.999
X216.55Y-144.232
X216.55Y-145.466
X216.55Y-146.699
X216.55Y-147.932
X216.55Y-149.165
X216.55Y-150.398
X216.55Y-151.632
X216.55Y-152.865
X216.55Y-154.098
X216.55Y-155.331
X216.55Y-156.564
X216.55Y-157.798
X216.55Y-159.031
X216.55Y-190.777
X216.55Y-192.01
X216.55Y-193.242
X216.55Y-194.475
X216.55Y-195.708
X216.55Y-196.941
X216.55Y-198.174
X216.55Y-199.406
X216.55Y-200.639
X216.55Y-201.872
X216.55Y-203.105
X216.55Y-204.338
X216.55Y-205.57
X216.55Y-206.803
X216.55Y-214.2
X217.65Y-135.6
X217.65Y-142.999
X217.65Y-144.232
X217.65Y-145.466
X217.65Y-146.699
X217.65Y-147.932
X217.65Y-149.165
X217.65Y-150.398
X217.65Y-151.632
X217.65Y-152.865
X217.65Y-154.098
X217.65Y-155.331
X217.65Y-156.564
X217.65Y-157.798
X217.65Y-159.031
X217.65Y-190.777
X217.65Y-192.01
X217.65Y-193.242
X217.65Y-194.475
X217.65Y-195.708
X217.65Y-196.941
X217.65Y-198.174
X217.65Y-199.406
X217.65Y-200.639
X217.65Y-201.872
X217.65Y-203.105
X217.65Y-204.338
X217.65Y-205.57
X217.65Y-206.803
X217.65Y-214.2
X218.75Y-135.6
X218.75Y-142.999
X218.75Y-144.232
X218.75Y-145.466
X218.75Y-146.699
X218.75Y-147.932
X218.75Y-149.165
X218.75Y-150.398
X218.75Y-151.632
X218.75Y-152.865
X218.75Y-154.098
X218.75Y-155.331
X218.75Y-156.564
X218.75Y-157.798
X218.75Y-159.031
X218.75Y-190.777
X218.75Y-192.01
X218.75Y-193.242
X218.75Y-194.475
X218.75Y-195.708
X218.75Y-196.941
X218.75Y-198.174
X218.75Y-199.406
X218.75Y-200.639
X218.75Y-201.872
X218.75Y-203.105
X218.75Y-204.338
X218.75Y-205.57
X218.75Y-206.803
X218.75Y-214.2
X219.075Y-136.53
X219.075Y-142.03
X219.075Y-160.28
X219.075Y-165.78
X219.075Y-184.03
X219.075Y-189.53
X219.075Y-207.78
X219.075Y-213.28
X220.312Y-136.53
X220.312Y-137.63
X220.312Y-138.73
X220.312Y-139.83
X220.312Y-140.93
X220.312Y-142.03
X220.312Y-160.28
X220.312Y-161.38
X220.312Y-162.48
X220.312Y-163.58
X220.312Y-164.68
X220.312Y-165.78
X220.312Y-184.03
X220.312Y-185.13
X220.312Y-186.23
X220.312Y-187.33
X220.312Y-188.43
X220.312Y-189.53
X220.312Y-207.78
X220.312Y-208.88
X220.312Y-209.98
X220.312Y-211.08
X220.312Y-212.18
X220.312Y-213.28
X221.55Y-136.53
X221.55Y-137.63
X221.55Y-138.73
X221.55Y-139.83
X221.55Y-140.93
X221.55Y-142.03
X221.55Y-160.28
X221.55Y-161.38
X221.55Y-162.48
X221.55Y-163.58
X221.55Y-164.68
X221.55Y-165.78
X221.55Y-184.03
X221.55Y-185.13
X221.55Y-186.23
X221.55Y-187.33
X221.55Y-188.43
X221.55Y-189.53
X221.55Y-207.78
X221.55Y-208.88
X221.55Y-209.98
X221.55Y-211.08
X221.55Y-212.18
X221.55Y-213.28
X222.787Y-136.53
X222.787Y-137.63
X222.787Y-138.73
X222.787Y-139.83
X222.787Y-140.93
X222.787Y-142.03
X222.787Y-160.28
X222.787Y-161.38
X222.787Y-162.48
X222.787Y-163.58
X222.787Y-164.68
X222.787Y-165.78
X222.787Y-184.03
X222.787Y-185.13
X222.787Y-186.23
X222.787Y-187.33
X222.787Y-188.43
X222.787Y-189.53
X222.787Y-207.78
X222.787Y-208.88
X222.787Y-209.98
X222.787Y-211.08
X222.787Y-212.18
X222.787Y-213.28
X241.555Y-84.5
X241.555Y-85.6
X241.555Y-86.7
X241.555Y-87.8
X241.555Y-88.9
X241.555Y-90.0
X242.792Y-84.5
X242.792Y-85.6
X242.792Y-86.7
X242.792Y-87.8
X242.792Y-88.9
X242.792Y-90.0
X244.03Y-84.5
X244.03Y-85.6
X244.03Y-86.7
X244.03Y-87.8
X244.03Y-88.9
X244.03Y-90.0
X245.267Y-84.5
X245.267Y-85.6
X245.267Y-86.7
X245.267Y-87.8
X245.267Y-88.9
X245.267Y-90.0
X246.505Y-84.5
X246.505Y-90.0
X312.335Y-136.53
X312.335Y-137.63
X312.335Y-138.73
X312.335Y-139.83
X312.335Y-140.93
X312.335Y-142.03
X312.335Y-160.28
X312.335Y-161.38
X312.335Y-162.48
X312.335Y-163.58
X312.335Y-164.68
X312.335Y-165.78
X312.335Y-184.03
X312.335Y-185.13
X312.335Y-186.23
X312.335Y-187.33
X312.335Y-188.43
X312.335Y-189.53
X312.335Y-207.78
X312.335Y-208.88
X312.335Y-209.98
X312.335Y-211.08
X312.335Y-212.18
X312.335Y-213.28
X313.572Y-136.53
X313.572Y-137.63
X313.572Y-138.73
X313.572Y-139.83
X313.572Y-140.93
X313.572Y-142.03
X313.572Y-160.28
X313.572Y-161.38
X313.572Y-162.48
X313.572Y-163.58
X313.572Y-164.68
X313.572Y-165.78
X313.572Y-184.03
X313.572Y-185.13
X313.572Y-186.23
X313.572Y-187.33
X313.572Y-188.43
X313.572Y-189.53
X313.572Y-207.78
X313.572Y-208.88
X313.572Y-209.98
X313.572Y-211.08
X313.572Y-212.18
X313.572Y-213.28
X314.81Y-136.53
X314.81Y-137.63
X314.81Y-138.73
X314.81Y-139.83
X314.81Y-140.93
X314.81Y-142.03
X314.81Y-160.28
X314.81Y-161.38
X314.81Y-162.48
X314.81Y-163.58
X314.81Y-164.68
X314.81Y-165.78
X314.81Y-184.03
X314.81Y-185.13
X314.81Y-186.23
X314.81Y-187.33
X314.81Y-188.43
X314.81Y-189.53
X314.81Y-207.78
X314.81Y-208.88
X314.81Y-209.98
X314.81Y-211.08
X314.81Y-212.18
X314.81Y-213.28
X316.048Y-136.53
X316.048Y-137.63
X316.048Y-138.73
X316.048Y-139.83
X316.048Y-140.93
X316.048Y-142.03
X316.048Y-160.28
X316.048Y-161.38
X316.048Y-162.48
X316.048Y-163.58
X316.048Y-164.68
X316.048Y-165.78
X316.048Y-184.03
X316.048Y-185.13
X316.048Y-186.23
X316.048Y-187.33
X316.048Y-188.43
X316.048Y-189.53
X316.048Y-207.78
X316.048Y-208.88
X316.048Y-209.98
X316.048Y-211.08
X316.048Y-212.18
X316.048Y-213.28
X317.285Y-136.53
X317.285Y-142.03
X317.285Y-160.28
X317.285Y-165.78
X317.285Y-184.03
X317.285Y-189.53
X317.285Y-207.78
X317.285Y-213.28
X317.61Y-167.267
X317.61Y-168.54
X317.61Y-169.813
X317.61Y-171.086
X317.61Y-172.359
X317.61Y-173.632
X317.61Y-174.905
X317.61Y-176.178
X317.61Y-177.451
X317.61Y-178.724
X317.61Y-179.997
X317.61Y-181.27
X317.61Y-182.542
X318.71Y-167.267
X318.71Y-168.54
X318.71Y-169.813
X318.71Y-171.086
X318.71Y-172.359
X318.71Y-173.632
X318.71Y-174.905
X318.71Y-176.178
X318.71Y-177.451
X318.71Y-178.724
X318.71Y-179.997
X318.71Y-181.27
X318.71Y-182.542
X319.81Y-167.267
X319.81Y-168.54
X319.81Y-169.813
X319.81Y-171.086
X319.81Y-172.359
X319.81Y-173.632
X319.81Y-174.905
X319.81Y-176.178
X319.81Y-177.451
X319.81Y-178.724
X319.81Y-179.997
X319.81Y-181.27
X319.81Y-182.542
X320.91Y-167.267
X320.91Y-168.54
X320.91Y-169.813
X320.91Y-171.086
X320.91Y-172.359
X320.91Y-173.632
X320.91Y-174.905
X320.91Y-176.178
X320.91Y-177.451
X320.91Y-178.724
X320.91Y-179.997
X320.91Y-181.27
X320.91Y-182.542
X322.01Y-159.63
X322.01Y-167.267
X322.01Y-168.54
X322.01Y-169.813
X322.01Y-171.086
X322.01Y-172.359
X322.01Y-173.632
X322.01Y-174.905
X322.01Y-176.178
X322.01Y-177.451
X322.01Y-178.724
X322.01Y-179.997
X322.01Y-181.27
X322.01Y-182.542
X322.01Y-190.18
X323.11Y-159.63
X323.11Y-165.995
X323.11Y-167.267
X323.11Y-168.54
X323.11Y-169.813
X323.11Y-171.086
X323.11Y-172.359
X323.11Y-173.632
X323.11Y-174.905
X323.11Y-176.178
X323.11Y-177.451
X323.11Y-178.724
X323.11Y-179.997
X323.11Y-181.27
X323.11Y-182.542
X323.11Y-183.815
X323.11Y-190.18
T2
X105.28Y-136.74
X105.28Y-141.82
X105.28Y-160.49
X105.28Y-165.57
X105.28Y-184.24
X105.28Y-189.32
X105.28Y-207.99
X105.28Y-213.07
X147.84Y-136.74
X147.84Y-141.82
X147.84Y-160.49
X147.84Y-165.57
X147.84Y-184.24
X147.84Y-189.32
X147.84Y-207.99
X147.84Y-213.07
X176.12Y-84.71
X176.12Y-89.79
X218.68Y-84.71
X218.68Y-89.79
X246.9Y-136.74
X246.9Y-141.82
X246.9Y-160.49
X246.9Y-165.57
X246.9Y-184.24
X246.9Y-189.32
X246.9Y-207.99
X246.9Y-213.07
X289.46Y-136.74
X289.46Y-141.82
X289.46Y-160.49
X289.46Y-165.57
X289.46Y-184.24
X289.46Y-189.32
X289.46Y-207.99
X289.46Y-213.07
T4
X162.4Y-147.28
X162.4Y-171.03
X162.4Y-194.78
X162.4Y-218.53
X232.34Y-155.03
X232.34Y-202.53
X233.24Y-95.25
X304.02Y-147.28
X304.02Y-194.78
T5
X53.9Y-44.9
X53.9Y-144.9
X53.9Y-244.9
X197.4Y-44.9
X197.4Y-244.9
X340.9Y-44.9
X340.9Y-144.9
X340.9Y-244.9
T6
X98.96Y-147.28
X98.96Y-171.03
X98.96Y-194.78
X98.96Y-218.53
X154.16Y-131.28
X154.16Y-155.03
X154.16Y-178.78
X154.16Y-202.53
X169.8Y-95.25
X225.0Y-79.25
X240.58Y-147.28
X240.58Y-171.03
X240.58Y-194.78
X240.58Y-218.53
X295.78Y-131.28
X295.78Y-155.03
X295.78Y-178.78
X295.78Y-202.53
T3
X97.66Y-139.28G85X98.76Y-139.28
G05
X97.66Y-163.03G85X98.76Y-163.03
G05
X97.66Y-186.78G85X98.76Y-186.78
G05
X97.66Y-210.53G85X98.76Y-210.53
G05
X154.36Y-139.28G85X155.46Y-139.28
G05
X154.36Y-163.03G85X155.46Y-163.03
G05
X154.36Y-186.78G85X155.46Y-186.78
G05
X154.36Y-210.53G85X155.46Y-210.53
G05
X168.5Y-87.25G85X169.6Y-87.25
G05
X225.2Y-87.25G85X226.3Y-87.25
G05
X239.28Y-139.28G85X240.38Y-139.28
G05
X240.38Y-163.03G85X239.28Y-163.03
G05
X239.28Y-186.78G85X240.38Y-186.78
G05
X240.38Y-210.53G85X239.28Y-210.53
G05
X295.98Y-139.28G85X297.08Y-139.28
G05
X297.08Y-163.03G85X295.98Y-163.03
G05
X295.98Y-186.78G85X297.08Y-186.78
G05
X297.08Y-210.53G85X295.98Y-210.53
G05
M30
