%TF.GenerationSoftware,KiCad,Pcbnew,10.0.5*%
%TF.CreationDate,2026-09-18T08:26:41+05:30*%
%TF.ProjectId,ACIR-Learning-Kit-1-PCB,41434952-2d4c-4656-9172-6e696e672d4b,v2.0*%
%TF.SameCoordinates,Original*%
%TF.FileFunction,Soldermask,Top*%
%TF.FilePolarity,Negative*%
%FSLAX46Y46*%
G04 Gerber Fmt 4.6, Leading zero omitted, Abs format (unit mm)*
G04 Created by KiCad (PCBNEW 10.0.5) date 2026-09-18 08:26:41*
%MOMM*%
%LPD*%
G01*
G04 APERTURE LIST*
%ADD10C,6.000000*%
%ADD11C,3.450000*%
%ADD12C,2.400000*%
%ADD13C,2.800000*%
%ADD14O,4.500000X3.200000*%
%ADD15R,7.770000X7.350000*%
%ADD16C,3.200000*%
G04 APERTURE END LIST*
D10*
%TO.C,J7*%
X216000000Y-139280000D03*
%TD*%
D11*
%TO.C,BT1*%
X169800000Y-95250000D03*
X225000000Y-79250000D03*
D12*
X233240000Y-95250000D03*
D13*
X218680000Y-84710000D03*
X218680000Y-89790000D03*
D14*
X225750000Y-87250000D03*
D15*
X237030000Y-87250000D03*
X157770000Y-87250000D03*
D14*
X169050000Y-87250000D03*
D13*
X176120000Y-84710000D03*
X176120000Y-89790000D03*
%TD*%
D10*
%TO.C,J17*%
X74380000Y-210530000D03*
%TD*%
D11*
%TO.C,BT8*%
X98960000Y-194780000D03*
X154160000Y-178780000D03*
D12*
X162400000Y-194780000D03*
D13*
X147840000Y-184240000D03*
X147840000Y-189320000D03*
D14*
X154910000Y-186780000D03*
D15*
X166190000Y-186780000D03*
X86930000Y-186780000D03*
D14*
X98210000Y-186780000D03*
D13*
X105280000Y-184240000D03*
X105280000Y-189320000D03*
%TD*%
D16*
%TO.C,H5*%
X197400000Y-244900000D03*
%TD*%
D10*
%TO.C,J14*%
X178740000Y-186780000D03*
%TD*%
%TO.C,J9*%
X216000000Y-186780000D03*
%TD*%
%TO.C,J19*%
X320360000Y-186780000D03*
%TD*%
D16*
%TO.C,H6*%
X197400000Y-44900000D03*
%TD*%
D10*
%TO.C,J13*%
X74380000Y-163030000D03*
%TD*%
D11*
%TO.C,BT4*%
X240580000Y-194780000D03*
X295780000Y-178780000D03*
D12*
X304020000Y-194780000D03*
D13*
X289460000Y-184240000D03*
X289460000Y-189320000D03*
D14*
X296530000Y-186780000D03*
D15*
X307810000Y-186780000D03*
X228550000Y-186780000D03*
D14*
X239830000Y-186780000D03*
D13*
X246900000Y-184240000D03*
X246900000Y-189320000D03*
%TD*%
D11*
%TO.C,BT7*%
X98960000Y-171030000D03*
X154160000Y-155030000D03*
D12*
X162400000Y-171030000D03*
D13*
X147840000Y-160490000D03*
X147840000Y-165570000D03*
D14*
X154910000Y-163030000D03*
D15*
X166190000Y-163030000D03*
X86930000Y-163030000D03*
D14*
X98210000Y-163030000D03*
D13*
X105280000Y-160490000D03*
X105280000Y-165570000D03*
%TD*%
D10*
%TO.C,J5*%
X184860000Y-222000000D03*
%TD*%
D16*
%TO.C,H8*%
X53900000Y-144900000D03*
%TD*%
D10*
%TO.C,J18*%
X216000000Y-163030000D03*
%TD*%
%TO.C,J3*%
X320360000Y-139280000D03*
%TD*%
%TO.C,J1*%
X249580000Y-87250000D03*
%TD*%
D11*
%TO.C,BT9*%
X98960000Y-218530000D03*
X154160000Y-202530000D03*
D12*
X162400000Y-218530000D03*
D13*
X147840000Y-207990000D03*
X147840000Y-213070000D03*
D14*
X154910000Y-210530000D03*
D15*
X166190000Y-210530000D03*
X86930000Y-210530000D03*
D14*
X98210000Y-210530000D03*
D13*
X105280000Y-207990000D03*
X105280000Y-213070000D03*
%TD*%
D10*
%TO.C,J16*%
X178740000Y-210530000D03*
%TD*%
D11*
%TO.C,BT2*%
X240580000Y-147280000D03*
X295780000Y-131280000D03*
D12*
X304020000Y-147280000D03*
D13*
X289460000Y-136740000D03*
X289460000Y-141820000D03*
D14*
X296530000Y-139280000D03*
D15*
X307810000Y-139280000D03*
X228550000Y-139280000D03*
D14*
X239830000Y-139280000D03*
D13*
X246900000Y-136740000D03*
X246900000Y-141820000D03*
%TD*%
D10*
%TO.C,J15*%
X74380000Y-186780000D03*
%TD*%
D16*
%TO.C,H7*%
X340900000Y-144900000D03*
%TD*%
D11*
%TO.C,BT5*%
X295780000Y-202530000D03*
X240580000Y-218530000D03*
D12*
X232340000Y-202530000D03*
D13*
X246900000Y-213070000D03*
X246900000Y-207990000D03*
D14*
X239830000Y-210530000D03*
D15*
X228550000Y-210530000D03*
X307810000Y-210530000D03*
D14*
X296530000Y-210530000D03*
D13*
X289460000Y-213070000D03*
X289460000Y-207990000D03*
%TD*%
D16*
%TO.C,H2*%
X340900000Y-44900000D03*
%TD*%
D10*
%TO.C,J2*%
X145220000Y-87250000D03*
%TD*%
D11*
%TO.C,BT3*%
X295780000Y-155030000D03*
X240580000Y-171030000D03*
D12*
X232340000Y-155030000D03*
D13*
X246900000Y-165570000D03*
X246900000Y-160490000D03*
D14*
X239830000Y-163030000D03*
D15*
X228550000Y-163030000D03*
X307810000Y-163030000D03*
D14*
X296530000Y-163030000D03*
D13*
X289460000Y-165570000D03*
X289460000Y-160490000D03*
%TD*%
D10*
%TO.C,J8*%
X320360000Y-163030000D03*
%TD*%
D16*
%TO.C,H1*%
X53900000Y-44900000D03*
%TD*%
D10*
%TO.C,J20*%
X216000000Y-210530000D03*
%TD*%
D11*
%TO.C,BT6*%
X98960000Y-147280000D03*
X154160000Y-131280000D03*
D12*
X162400000Y-147280000D03*
D13*
X147840000Y-136740000D03*
X147840000Y-141820000D03*
D14*
X154910000Y-139280000D03*
D15*
X166190000Y-139280000D03*
X86930000Y-139280000D03*
D14*
X98210000Y-139280000D03*
D13*
X105280000Y-136740000D03*
X105280000Y-141820000D03*
%TD*%
D10*
%TO.C,J6*%
X68270000Y-222000000D03*
%TD*%
%TO.C,J10*%
X178740000Y-139280000D03*
%TD*%
D16*
%TO.C,H4*%
X53900000Y-244900000D03*
%TD*%
D10*
%TO.C,J12*%
X178740000Y-163030000D03*
%TD*%
D16*
%TO.C,H3*%
X340900000Y-244900000D03*
%TD*%
D10*
%TO.C,J11*%
X74380000Y-139280000D03*
%TD*%
%TO.C,J4*%
X320360000Y-210530000D03*
%TD*%
M02*
