%TF.GenerationSoftware,KiCad,Pcbnew,10.0.5*%
%TF.CreationDate,2026-09-18T08:26:41+05:30*%
%TF.ProjectId,ACIR-Learning-Kit-1-PCB,41434952-2d4c-4656-9172-6e696e672d4b,v2.0*%
%TF.SameCoordinates,Original*%
%TF.FileFunction,Legend,Bot*%
%TF.FilePolarity,Positive*%
%FSLAX46Y46*%
G04 Gerber Fmt 4.6, Leading zero omitted, Abs format (unit mm)*
G04 Created by KiCad (PCBNEW 10.0.5) date 2026-09-18 08:26:41*
%MOMM*%
%LPD*%
G01*
G04 APERTURE LIST*
%ADD10C,0.400000*%
%ADD11C,0.250000*%
%ADD12C,0.320000*%
%ADD13C,0.500000*%
G04 APERTURE END LIST*
D10*
X50700000Y-44900000D02*
X50700000Y-244900000D01*
X50700000Y-44900000D02*
G75*
G02*
X53900000Y-41700000I3209400J-9400D01*
G01*
X53900000Y-41700000D02*
X340900000Y-41700000D01*
X53900000Y-248100000D02*
G75*
G02*
X50700000Y-244900000I9400J3209400D01*
G01*
X340900000Y-41700000D02*
G75*
G02*
X344100000Y-44900000I-9400J-3209400D01*
G01*
X340900000Y-248100000D02*
X53900000Y-248100000D01*
X344100000Y-44900000D02*
X344100000Y-244900000D01*
X344100000Y-244900000D02*
G75*
G02*
X340900000Y-248100000I-3209400J9400D01*
G01*
D11*
X88708569Y-240210928D02*
X87851427Y-240210928D01*
X88279998Y-241710928D02*
X88279998Y-240210928D01*
X87422855Y-241639500D02*
X87208570Y-241710928D01*
X87208570Y-241710928D02*
X86851427Y-241710928D01*
X86851427Y-241710928D02*
X86708570Y-241639500D01*
X86708570Y-241639500D02*
X86637141Y-241568071D01*
X86637141Y-241568071D02*
X86565712Y-241425214D01*
X86565712Y-241425214D02*
X86565712Y-241282357D01*
X86565712Y-241282357D02*
X86637141Y-241139500D01*
X86637141Y-241139500D02*
X86708570Y-241068071D01*
X86708570Y-241068071D02*
X86851427Y-240996642D01*
X86851427Y-240996642D02*
X87137141Y-240925214D01*
X87137141Y-240925214D02*
X87279998Y-240853785D01*
X87279998Y-240853785D02*
X87351427Y-240782357D01*
X87351427Y-240782357D02*
X87422855Y-240639500D01*
X87422855Y-240639500D02*
X87422855Y-240496642D01*
X87422855Y-240496642D02*
X87351427Y-240353785D01*
X87351427Y-240353785D02*
X87279998Y-240282357D01*
X87279998Y-240282357D02*
X87137141Y-240210928D01*
X87137141Y-240210928D02*
X86779998Y-240210928D01*
X86779998Y-240210928D02*
X86565712Y-240282357D01*
X86137141Y-240210928D02*
X85279999Y-240210928D01*
X85708570Y-241710928D02*
X85708570Y-240210928D01*
X84779999Y-241139500D02*
X83637142Y-241139500D01*
X82994284Y-241282357D02*
X82279999Y-241282357D01*
X83137141Y-241710928D02*
X82637141Y-240210928D01*
X82637141Y-240210928D02*
X82137141Y-241710928D01*
X80779999Y-241568071D02*
X80851427Y-241639500D01*
X80851427Y-241639500D02*
X81065713Y-241710928D01*
X81065713Y-241710928D02*
X81208570Y-241710928D01*
X81208570Y-241710928D02*
X81422856Y-241639500D01*
X81422856Y-241639500D02*
X81565713Y-241496642D01*
X81565713Y-241496642D02*
X81637142Y-241353785D01*
X81637142Y-241353785D02*
X81708570Y-241068071D01*
X81708570Y-241068071D02*
X81708570Y-240853785D01*
X81708570Y-240853785D02*
X81637142Y-240568071D01*
X81637142Y-240568071D02*
X81565713Y-240425214D01*
X81565713Y-240425214D02*
X81422856Y-240282357D01*
X81422856Y-240282357D02*
X81208570Y-240210928D01*
X81208570Y-240210928D02*
X81065713Y-240210928D01*
X81065713Y-240210928D02*
X80851427Y-240282357D01*
X80851427Y-240282357D02*
X80779999Y-240353785D01*
X80137142Y-241710928D02*
X80137142Y-240210928D01*
X78565713Y-241710928D02*
X79065713Y-240996642D01*
X79422856Y-241710928D02*
X79422856Y-240210928D01*
X79422856Y-240210928D02*
X78851427Y-240210928D01*
X78851427Y-240210928D02*
X78708570Y-240282357D01*
X78708570Y-240282357D02*
X78637141Y-240353785D01*
X78637141Y-240353785D02*
X78565713Y-240496642D01*
X78565713Y-240496642D02*
X78565713Y-240710928D01*
X78565713Y-240710928D02*
X78637141Y-240853785D01*
X78637141Y-240853785D02*
X78708570Y-240925214D01*
X78708570Y-240925214D02*
X78851427Y-240996642D01*
X78851427Y-240996642D02*
X79422856Y-240996642D01*
X77922856Y-241139500D02*
X76779999Y-241139500D01*
X76279998Y-240210928D02*
X75779998Y-241710928D01*
X75779998Y-241710928D02*
X75279998Y-240210928D01*
X73994284Y-241710928D02*
X74851427Y-241710928D01*
X74422856Y-241710928D02*
X74422856Y-240210928D01*
X74422856Y-240210928D02*
X74565713Y-240425214D01*
X74565713Y-240425214D02*
X74708570Y-240568071D01*
X74708570Y-240568071D02*
X74851427Y-240639500D01*
X73351428Y-241568071D02*
X73279999Y-241639500D01*
X73279999Y-241639500D02*
X73351428Y-241710928D01*
X73351428Y-241710928D02*
X73422856Y-241639500D01*
X73422856Y-241639500D02*
X73351428Y-241568071D01*
X73351428Y-241568071D02*
X73351428Y-241710928D01*
X71851427Y-241710928D02*
X72708570Y-241710928D01*
X72279999Y-241710928D02*
X72279999Y-240210928D01*
X72279999Y-240210928D02*
X72422856Y-240425214D01*
X72422856Y-240425214D02*
X72565713Y-240568071D01*
X72565713Y-240568071D02*
X72708570Y-240639500D01*
X71208571Y-241139500D02*
X70065714Y-241139500D01*
X69422856Y-240353785D02*
X69351428Y-240282357D01*
X69351428Y-240282357D02*
X69208571Y-240210928D01*
X69208571Y-240210928D02*
X68851428Y-240210928D01*
X68851428Y-240210928D02*
X68708571Y-240282357D01*
X68708571Y-240282357D02*
X68637142Y-240353785D01*
X68637142Y-240353785D02*
X68565713Y-240496642D01*
X68565713Y-240496642D02*
X68565713Y-240639500D01*
X68565713Y-240639500D02*
X68637142Y-240853785D01*
X68637142Y-240853785D02*
X69494285Y-241710928D01*
X69494285Y-241710928D02*
X68565713Y-241710928D01*
X67280000Y-240210928D02*
X67565714Y-240210928D01*
X67565714Y-240210928D02*
X67708571Y-240282357D01*
X67708571Y-240282357D02*
X67780000Y-240353785D01*
X67780000Y-240353785D02*
X67922857Y-240568071D01*
X67922857Y-240568071D02*
X67994285Y-240853785D01*
X67994285Y-240853785D02*
X67994285Y-241425214D01*
X67994285Y-241425214D02*
X67922857Y-241568071D01*
X67922857Y-241568071D02*
X67851428Y-241639500D01*
X67851428Y-241639500D02*
X67708571Y-241710928D01*
X67708571Y-241710928D02*
X67422857Y-241710928D01*
X67422857Y-241710928D02*
X67280000Y-241639500D01*
X67280000Y-241639500D02*
X67208571Y-241568071D01*
X67208571Y-241568071D02*
X67137142Y-241425214D01*
X67137142Y-241425214D02*
X67137142Y-241068071D01*
X67137142Y-241068071D02*
X67208571Y-240925214D01*
X67208571Y-240925214D02*
X67280000Y-240853785D01*
X67280000Y-240853785D02*
X67422857Y-240782357D01*
X67422857Y-240782357D02*
X67708571Y-240782357D01*
X67708571Y-240782357D02*
X67851428Y-240853785D01*
X67851428Y-240853785D02*
X67922857Y-240925214D01*
X67922857Y-240925214D02*
X67994285Y-241068071D01*
X66208571Y-240210928D02*
X66065714Y-240210928D01*
X66065714Y-240210928D02*
X65922857Y-240282357D01*
X65922857Y-240282357D02*
X65851429Y-240353785D01*
X65851429Y-240353785D02*
X65780000Y-240496642D01*
X65780000Y-240496642D02*
X65708571Y-240782357D01*
X65708571Y-240782357D02*
X65708571Y-241139500D01*
X65708571Y-241139500D02*
X65780000Y-241425214D01*
X65780000Y-241425214D02*
X65851429Y-241568071D01*
X65851429Y-241568071D02*
X65922857Y-241639500D01*
X65922857Y-241639500D02*
X66065714Y-241710928D01*
X66065714Y-241710928D02*
X66208571Y-241710928D01*
X66208571Y-241710928D02*
X66351429Y-241639500D01*
X66351429Y-241639500D02*
X66422857Y-241568071D01*
X66422857Y-241568071D02*
X66494286Y-241425214D01*
X66494286Y-241425214D02*
X66565714Y-241139500D01*
X66565714Y-241139500D02*
X66565714Y-240782357D01*
X66565714Y-240782357D02*
X66494286Y-240496642D01*
X66494286Y-240496642D02*
X66422857Y-240353785D01*
X66422857Y-240353785D02*
X66351429Y-240282357D01*
X66351429Y-240282357D02*
X66208571Y-240210928D01*
X64851429Y-240853785D02*
X64994286Y-240782357D01*
X64994286Y-240782357D02*
X65065715Y-240710928D01*
X65065715Y-240710928D02*
X65137143Y-240568071D01*
X65137143Y-240568071D02*
X65137143Y-240496642D01*
X65137143Y-240496642D02*
X65065715Y-240353785D01*
X65065715Y-240353785D02*
X64994286Y-240282357D01*
X64994286Y-240282357D02*
X64851429Y-240210928D01*
X64851429Y-240210928D02*
X64565715Y-240210928D01*
X64565715Y-240210928D02*
X64422858Y-240282357D01*
X64422858Y-240282357D02*
X64351429Y-240353785D01*
X64351429Y-240353785D02*
X64280000Y-240496642D01*
X64280000Y-240496642D02*
X64280000Y-240568071D01*
X64280000Y-240568071D02*
X64351429Y-240710928D01*
X64351429Y-240710928D02*
X64422858Y-240782357D01*
X64422858Y-240782357D02*
X64565715Y-240853785D01*
X64565715Y-240853785D02*
X64851429Y-240853785D01*
X64851429Y-240853785D02*
X64994286Y-240925214D01*
X64994286Y-240925214D02*
X65065715Y-240996642D01*
X65065715Y-240996642D02*
X65137143Y-241139500D01*
X65137143Y-241139500D02*
X65137143Y-241425214D01*
X65137143Y-241425214D02*
X65065715Y-241568071D01*
X65065715Y-241568071D02*
X64994286Y-241639500D01*
X64994286Y-241639500D02*
X64851429Y-241710928D01*
X64851429Y-241710928D02*
X64565715Y-241710928D01*
X64565715Y-241710928D02*
X64422858Y-241639500D01*
X64422858Y-241639500D02*
X64351429Y-241568071D01*
X64351429Y-241568071D02*
X64280000Y-241425214D01*
X64280000Y-241425214D02*
X64280000Y-241139500D01*
X64280000Y-241139500D02*
X64351429Y-240996642D01*
X64351429Y-240996642D02*
X64422858Y-240925214D01*
X64422858Y-240925214D02*
X64565715Y-240853785D01*
X63637144Y-241139500D02*
X62494287Y-241139500D01*
X61494286Y-240210928D02*
X61351429Y-240210928D01*
X61351429Y-240210928D02*
X61208572Y-240282357D01*
X61208572Y-240282357D02*
X61137144Y-240353785D01*
X61137144Y-240353785D02*
X61065715Y-240496642D01*
X61065715Y-240496642D02*
X60994286Y-240782357D01*
X60994286Y-240782357D02*
X60994286Y-241139500D01*
X60994286Y-241139500D02*
X61065715Y-241425214D01*
X61065715Y-241425214D02*
X61137144Y-241568071D01*
X61137144Y-241568071D02*
X61208572Y-241639500D01*
X61208572Y-241639500D02*
X61351429Y-241710928D01*
X61351429Y-241710928D02*
X61494286Y-241710928D01*
X61494286Y-241710928D02*
X61637144Y-241639500D01*
X61637144Y-241639500D02*
X61708572Y-241568071D01*
X61708572Y-241568071D02*
X61780001Y-241425214D01*
X61780001Y-241425214D02*
X61851429Y-241139500D01*
X61851429Y-241139500D02*
X61851429Y-240782357D01*
X61851429Y-240782357D02*
X61780001Y-240496642D01*
X61780001Y-240496642D02*
X61708572Y-240353785D01*
X61708572Y-240353785D02*
X61637144Y-240282357D01*
X61637144Y-240282357D02*
X61494286Y-240210928D01*
D12*
G36*
X225760501Y-108646259D02*
G01*
X225913031Y-108650411D01*
X226065438Y-108658838D01*
X226198307Y-108672759D01*
X226198307Y-110633297D01*
X226089252Y-110643066D01*
X225936722Y-110651371D01*
X225782849Y-110658454D01*
X225663903Y-110661263D01*
X225476784Y-110650586D01*
X225320314Y-110620811D01*
X225189706Y-110574556D01*
X225067538Y-110508893D01*
X224965218Y-110432474D01*
X224880494Y-110345212D01*
X224809889Y-110245882D01*
X224754054Y-110137228D01*
X224712699Y-110018049D01*
X224674984Y-109830767D01*
X224662271Y-109634954D01*
X225065142Y-109634954D01*
X225071483Y-109764655D01*
X225090299Y-109889822D01*
X225125494Y-110007895D01*
X225178471Y-110108541D01*
X225251828Y-110193153D01*
X225349074Y-110260338D01*
X225423036Y-110290823D01*
X225512028Y-110310364D01*
X225619085Y-110317369D01*
X225661094Y-110316025D01*
X225719835Y-110313217D01*
X225777232Y-110310408D01*
X225814967Y-110306256D01*
X225814967Y-108999801D01*
X225721300Y-108991496D01*
X225596736Y-108988688D01*
X225491672Y-108995895D01*
X225405110Y-109015946D01*
X225333809Y-109047184D01*
X225240319Y-109114782D01*
X225170166Y-109197637D01*
X225119778Y-109294540D01*
X225087612Y-109405122D01*
X225070717Y-109520835D01*
X225065142Y-109634954D01*
X224662271Y-109634954D01*
X224662263Y-109634832D01*
X224676049Y-109422291D01*
X224715508Y-109235006D01*
X224758510Y-109117713D01*
X224814436Y-109013806D01*
X224883303Y-108921765D01*
X224965774Y-108842058D01*
X225064835Y-108774006D01*
X225182745Y-108717578D01*
X225307933Y-108678619D01*
X225454990Y-108653675D01*
X225627511Y-108644794D01*
X225760501Y-108646259D01*
G37*
G36*
X223949241Y-109204717D02*
G01*
X224081571Y-109240794D01*
X224192774Y-109298058D01*
X224286374Y-109376545D01*
X224359243Y-109473150D01*
X224414125Y-109593919D01*
X224449691Y-109744148D01*
X224462595Y-109930488D01*
X224451426Y-110103777D01*
X224420178Y-110248832D01*
X224371305Y-110370260D01*
X224305913Y-110471852D01*
X224239490Y-110539942D01*
X224159365Y-110593910D01*
X224063342Y-110634164D01*
X223948345Y-110659883D01*
X223810588Y-110669078D01*
X223651521Y-110657432D01*
X223504186Y-110623283D01*
X223370014Y-110569588D01*
X223276185Y-110510565D01*
X223396475Y-110273527D01*
X223450537Y-110307290D01*
X223535083Y-110344968D01*
X223629791Y-110370802D01*
X223740613Y-110379895D01*
X223860308Y-110368156D01*
X223946534Y-110336910D01*
X224007815Y-110289281D01*
X224052228Y-110223972D01*
X224083344Y-110136444D01*
X224098795Y-110020369D01*
X223259454Y-110020369D01*
X223238572Y-109880907D01*
X223233652Y-109793712D01*
X223570009Y-109793712D01*
X224090491Y-109793712D01*
X224074003Y-109701108D01*
X224046109Y-109626344D01*
X224007937Y-109566200D01*
X223956476Y-109520433D01*
X223887909Y-109491612D01*
X223796667Y-109481081D01*
X223718718Y-109490951D01*
X223660166Y-109518147D01*
X223616171Y-109562048D01*
X223587163Y-109618997D01*
X223570803Y-109694356D01*
X223570009Y-109793712D01*
X223233652Y-109793712D01*
X223231489Y-109755366D01*
X223244374Y-109601407D01*
X223279116Y-109484867D01*
X223335598Y-109385520D01*
X223405023Y-109311943D01*
X223488575Y-109256983D01*
X223584053Y-109219863D01*
X223685979Y-109198916D01*
X223791049Y-109191898D01*
X223949241Y-109204717D01*
G37*
G36*
X222395690Y-110244829D02*
G01*
X222407476Y-110194499D01*
X222443317Y-110154947D01*
X222494459Y-110123603D01*
X222560798Y-110093032D01*
X222714671Y-110035512D01*
X222795283Y-110000391D01*
X222868544Y-109954302D01*
X222932467Y-109896050D01*
X222986147Y-109822777D01*
X223020822Y-109735521D01*
X223033652Y-109617124D01*
X223025060Y-109514588D01*
X223000977Y-109429831D01*
X222962844Y-109359479D01*
X222910554Y-109301074D01*
X222822184Y-109243133D01*
X222706385Y-109205666D01*
X222555180Y-109191898D01*
X222400043Y-109200628D01*
X222267096Y-109225237D01*
X222146299Y-109262970D01*
X222065595Y-109300341D01*
X222146684Y-109562292D01*
X222308983Y-109509047D01*
X222407757Y-109488054D01*
X222507675Y-109481081D01*
X222584940Y-109490740D01*
X222632633Y-109515369D01*
X222660100Y-109552952D01*
X222669974Y-109607721D01*
X222658459Y-109652859D01*
X222622469Y-109689420D01*
X222504866Y-109747062D01*
X222350993Y-109804581D01*
X222270157Y-109840122D01*
X222197120Y-109884326D01*
X222133270Y-109940105D01*
X222079639Y-110011699D01*
X222044842Y-110097368D01*
X222032012Y-110213077D01*
X222041206Y-110317614D01*
X222067315Y-110406341D01*
X222109290Y-110482246D01*
X222167689Y-110547445D01*
X222238132Y-110597437D01*
X222326662Y-110635375D01*
X222437264Y-110660088D01*
X222574842Y-110669078D01*
X222720109Y-110659467D01*
X222853279Y-110631465D01*
X222975976Y-110588787D01*
X223064427Y-110543904D01*
X222963676Y-110273527D01*
X222893426Y-110307652D01*
X222793073Y-110344968D01*
X222685304Y-110371163D01*
X222574720Y-110379895D01*
X222498830Y-110371480D01*
X222444660Y-110348998D01*
X222408725Y-110309095D01*
X222395690Y-110244829D01*
G37*
G36*
X221763956Y-109230976D02*
G01*
X221400278Y-109230976D01*
X221400278Y-110630000D01*
X221763956Y-110630000D01*
X221763956Y-109230976D01*
G37*
G36*
X221817078Y-108839089D02*
G01*
X221810384Y-108787990D01*
X221790667Y-108742735D01*
X221756995Y-108701702D01*
X221713629Y-108671053D01*
X221659152Y-108651749D01*
X221590421Y-108644794D01*
X221521679Y-108651622D01*
X221465221Y-108670840D01*
X221418474Y-108701702D01*
X221381307Y-108743149D01*
X221359867Y-108788379D01*
X221352651Y-108839089D01*
X221359926Y-108889685D01*
X221381399Y-108933940D01*
X221418474Y-108973667D01*
X221465016Y-109002910D01*
X221521478Y-109021234D01*
X221590421Y-109027766D01*
X221659372Y-109021108D01*
X221713846Y-109002697D01*
X221756995Y-108973667D01*
X221790571Y-108934359D01*
X221810325Y-108890086D01*
X221817078Y-108839089D01*
G37*
G36*
X220579917Y-109213312D02*
G01*
X220719769Y-109251313D01*
X220835271Y-109311166D01*
X220930599Y-109392665D01*
X221004836Y-109493303D01*
X221060600Y-109617823D01*
X221096610Y-109771318D01*
X221109629Y-109960163D01*
X221099400Y-110144099D01*
X221071698Y-110288280D01*
X221030095Y-110400094D01*
X220976761Y-110485774D01*
X220904460Y-110556979D01*
X220815563Y-110608825D01*
X220706553Y-110641665D01*
X220572417Y-110653447D01*
X220446989Y-110643527D01*
X220351401Y-110616740D01*
X220279153Y-110576024D01*
X220225470Y-110522044D01*
X220214235Y-110522044D01*
X220214235Y-110610338D01*
X220222801Y-110705534D01*
X220246294Y-110779863D01*
X220282867Y-110837850D01*
X220335066Y-110879403D01*
X220417220Y-110907987D01*
X220541642Y-110919183D01*
X220662238Y-110912270D01*
X220752912Y-110893904D01*
X220902511Y-110843590D01*
X220978104Y-111135704D01*
X220911554Y-111164000D01*
X220803226Y-111195422D01*
X220676430Y-111215851D01*
X220485588Y-111223998D01*
X220336712Y-111213747D01*
X220212855Y-111185101D01*
X220109750Y-111140254D01*
X220023969Y-111080017D01*
X219955091Y-111002893D01*
X219903862Y-110905652D01*
X219870843Y-110783774D01*
X219858861Y-110631221D01*
X219858861Y-109540432D01*
X220222661Y-109540432D01*
X220222661Y-110161053D01*
X220261727Y-110245698D01*
X220310833Y-110301737D01*
X220376515Y-110335766D01*
X220474475Y-110348632D01*
X220552719Y-110336714D01*
X220615805Y-110302416D01*
X220667549Y-110243852D01*
X220702381Y-110170577D01*
X220725881Y-110070956D01*
X220734716Y-109937571D01*
X220724132Y-109787837D01*
X220696551Y-109681566D01*
X220656436Y-109607965D01*
X220597674Y-109550741D01*
X220526249Y-109516519D01*
X220438083Y-109504528D01*
X220315452Y-109514259D01*
X220222661Y-109540432D01*
X219858861Y-109540432D01*
X219858861Y-109283611D01*
X219955262Y-109253691D01*
X220089671Y-109224870D01*
X220235740Y-109206377D01*
X220410117Y-109199713D01*
X220579917Y-109213312D01*
G37*
G36*
X218685641Y-110630000D02*
G01*
X218685641Y-109834501D01*
X218692433Y-109720454D01*
X218709882Y-109641245D01*
X218734611Y-109588060D01*
X218773047Y-109547298D01*
X218826738Y-109521756D01*
X218901063Y-109512344D01*
X218967889Y-109519334D01*
X219025526Y-109539453D01*
X219075941Y-109572550D01*
X219137027Y-109639972D01*
X219178034Y-109722393D01*
X219178034Y-110630000D01*
X219541834Y-110630000D01*
X219541834Y-109230976D01*
X219253628Y-109230976D01*
X219211618Y-109415746D01*
X219200383Y-109415746D01*
X219126933Y-109333090D01*
X219029779Y-109259064D01*
X218955941Y-109223152D01*
X218865748Y-109200166D01*
X218755494Y-109191898D01*
X218655462Y-109199224D01*
X218570969Y-109219863D01*
X218496016Y-109256969D01*
X218433826Y-109312187D01*
X218386372Y-109384840D01*
X218349807Y-109487065D01*
X218329502Y-109604175D01*
X218321841Y-109759884D01*
X218321841Y-110630000D01*
X218685641Y-110630000D01*
G37*
G36*
X217569618Y-109204717D02*
G01*
X217701948Y-109240794D01*
X217813150Y-109298058D01*
X217906750Y-109376545D01*
X217979619Y-109473150D01*
X218034502Y-109593919D01*
X218070068Y-109744148D01*
X218082972Y-109930488D01*
X218071803Y-110103777D01*
X218040554Y-110248832D01*
X217991681Y-110370260D01*
X217926290Y-110471852D01*
X217859866Y-110539942D01*
X217779741Y-110593910D01*
X217683719Y-110634164D01*
X217568722Y-110659883D01*
X217430965Y-110669078D01*
X217271898Y-110657432D01*
X217124563Y-110623283D01*
X216990391Y-110569588D01*
X216896562Y-110510565D01*
X217016852Y-110273527D01*
X217070914Y-110307290D01*
X217155459Y-110344968D01*
X217250168Y-110370802D01*
X217360990Y-110379895D01*
X217480685Y-110368156D01*
X217566911Y-110336910D01*
X217628191Y-110289281D01*
X217672605Y-110223972D01*
X217703721Y-110136444D01*
X217719172Y-110020369D01*
X216879831Y-110020369D01*
X216858949Y-109880907D01*
X216854029Y-109793712D01*
X217190386Y-109793712D01*
X217710868Y-109793712D01*
X217694380Y-109701108D01*
X217666485Y-109626344D01*
X217628314Y-109566200D01*
X217576853Y-109520433D01*
X217508286Y-109491612D01*
X217417043Y-109481081D01*
X217339095Y-109490951D01*
X217280543Y-109518147D01*
X217236548Y-109562048D01*
X217207540Y-109618997D01*
X217191180Y-109694356D01*
X217190386Y-109793712D01*
X216854029Y-109793712D01*
X216851866Y-109755366D01*
X216864751Y-109601407D01*
X216899493Y-109484867D01*
X216955974Y-109385520D01*
X217025400Y-109311943D01*
X217108952Y-109256983D01*
X217204430Y-109219863D01*
X217306356Y-109198916D01*
X217411426Y-109191898D01*
X217569618Y-109204717D01*
G37*
G36*
X215769870Y-109241723D02*
G01*
X215881855Y-109209483D01*
X216024493Y-109199713D01*
X216178923Y-109213441D01*
X216306422Y-109251981D01*
X216412271Y-109313298D01*
X216500156Y-109398039D01*
X216567644Y-109500369D01*
X216618269Y-109624147D01*
X216650784Y-109773612D01*
X216662455Y-109953935D01*
X216651346Y-110142844D01*
X216621193Y-110291307D01*
X216575710Y-110406894D01*
X216517009Y-110495910D01*
X216438407Y-110570540D01*
X216346145Y-110624049D01*
X216237498Y-110657334D01*
X216108512Y-110669078D01*
X216014916Y-110662005D01*
X215933010Y-110641750D01*
X215860850Y-110609117D01*
X215767492Y-110538912D01*
X215700016Y-110451214D01*
X215688781Y-110451214D01*
X215638345Y-110630000D01*
X215378104Y-110630000D01*
X215396001Y-110490004D01*
X215403383Y-110369759D01*
X215406070Y-110134675D01*
X215406070Y-109566322D01*
X215769870Y-109566322D01*
X215769870Y-110162030D01*
X215805410Y-110250972D01*
X215856576Y-110312362D01*
X215900384Y-110340184D01*
X215955355Y-110357871D01*
X216024493Y-110364263D01*
X216109603Y-110351459D01*
X216174649Y-110315373D01*
X216224650Y-110254720D01*
X216257935Y-110178973D01*
X216279635Y-110083964D01*
X216287542Y-109965293D01*
X216276744Y-109796704D01*
X216249272Y-109682651D01*
X216210606Y-109608454D01*
X216152308Y-109551767D01*
X216077181Y-109517002D01*
X215979796Y-109504528D01*
X215907868Y-109508843D01*
X215856698Y-109520038D01*
X215811163Y-109539310D01*
X215769870Y-109566322D01*
X215406070Y-109566322D01*
X215406070Y-108668241D01*
X215769870Y-108668241D01*
X215769870Y-109241723D01*
G37*
G36*
X214379517Y-110566130D02*
G01*
X214294173Y-110598241D01*
X214155669Y-110631831D01*
X214003294Y-110653577D01*
X213828261Y-110661263D01*
X213667895Y-110647895D01*
X213532146Y-110610049D01*
X213416508Y-110549537D01*
X213317672Y-110465990D01*
X213240192Y-110363729D01*
X213182266Y-110237888D01*
X213144999Y-110083487D01*
X213132339Y-109905209D01*
X213506471Y-109905209D01*
X213516930Y-110061495D01*
X213544113Y-110172210D01*
X213583408Y-110248614D01*
X213641862Y-110307967D01*
X213715347Y-110343763D01*
X213808722Y-110356448D01*
X213919242Y-110348021D01*
X214015718Y-110317247D01*
X214015718Y-109706273D01*
X213973318Y-109617490D01*
X213919242Y-109556430D01*
X213849000Y-109518215D01*
X213755477Y-109504528D01*
X213683316Y-109514438D01*
X213625619Y-109542605D01*
X213578767Y-109589744D01*
X213541725Y-109660408D01*
X213516234Y-109762243D01*
X213506471Y-109905209D01*
X213132339Y-109905209D01*
X213131558Y-109894218D01*
X213141671Y-109714069D01*
X213169209Y-109571165D01*
X213210838Y-109458797D01*
X213264549Y-109371294D01*
X213337111Y-109297265D01*
X213423352Y-109244326D01*
X213526015Y-109211376D01*
X213649231Y-109199713D01*
X213757585Y-109209748D01*
X213853418Y-109238792D01*
X213938451Y-109285610D01*
X214004482Y-109344794D01*
X214015718Y-109344794D01*
X214015718Y-108668241D01*
X214379517Y-108668241D01*
X214379517Y-110566130D01*
G37*
G36*
X212404814Y-110016095D02*
G01*
X212354500Y-110233960D01*
X212337769Y-110233960D01*
X212301377Y-110013286D01*
X212088642Y-109230976D01*
X211713729Y-109230976D01*
X212138956Y-110490903D01*
X212241049Y-110777278D01*
X212294036Y-110901691D01*
X212348882Y-111002226D01*
X212412746Y-111088616D01*
X212478942Y-111148893D01*
X212555785Y-111187289D01*
X212648202Y-111200551D01*
X212784920Y-111187470D01*
X212880477Y-111153168D01*
X212813310Y-110863374D01*
X212771029Y-110875994D01*
X212729413Y-110880104D01*
X212667999Y-110867267D01*
X212604971Y-110825516D01*
X212571510Y-110784933D01*
X212540742Y-110721807D01*
X212513990Y-110628534D01*
X213098708Y-109230976D01*
X212662246Y-109230976D01*
X212404814Y-110016095D01*
G37*
G36*
X211240752Y-110630000D02*
G01*
X210857413Y-110630000D01*
X210709158Y-110192316D01*
X210107588Y-110192316D01*
X209950906Y-110630000D01*
X209547905Y-110630000D01*
X209813728Y-109887501D01*
X210191485Y-109887501D01*
X210611217Y-109887501D01*
X210468457Y-109456168D01*
X210409716Y-109147323D01*
X210395672Y-109147323D01*
X210336932Y-109453360D01*
X210191485Y-109887501D01*
X209813728Y-109887501D01*
X210253034Y-108660425D01*
X210535623Y-108660425D01*
X211240752Y-110630000D01*
G37*
G36*
X208809926Y-110244829D02*
G01*
X208821711Y-110194499D01*
X208857553Y-110154947D01*
X208908695Y-110123603D01*
X208975034Y-110093032D01*
X209128907Y-110035512D01*
X209209519Y-110000391D01*
X209282780Y-109954302D01*
X209346703Y-109896050D01*
X209400383Y-109822777D01*
X209435058Y-109735521D01*
X209447888Y-109617124D01*
X209439296Y-109514588D01*
X209415213Y-109429831D01*
X209377080Y-109359479D01*
X209324789Y-109301074D01*
X209236420Y-109243133D01*
X209120621Y-109205666D01*
X208969416Y-109191898D01*
X208814279Y-109200628D01*
X208681332Y-109225237D01*
X208560534Y-109262970D01*
X208479831Y-109300341D01*
X208560920Y-109562292D01*
X208723219Y-109509047D01*
X208821993Y-109488054D01*
X208921911Y-109481081D01*
X208999176Y-109490740D01*
X209046869Y-109515369D01*
X209074336Y-109552952D01*
X209084210Y-109607721D01*
X209072695Y-109652859D01*
X209036705Y-109689420D01*
X208919102Y-109747062D01*
X208765229Y-109804581D01*
X208684393Y-109840122D01*
X208611356Y-109884326D01*
X208547506Y-109940105D01*
X208493875Y-110011699D01*
X208459078Y-110097368D01*
X208446248Y-110213077D01*
X208455442Y-110317614D01*
X208481550Y-110406341D01*
X208523526Y-110482246D01*
X208581925Y-110547445D01*
X208652368Y-110597437D01*
X208740898Y-110635375D01*
X208851499Y-110660088D01*
X208989078Y-110669078D01*
X209134345Y-110659467D01*
X209267514Y-110631465D01*
X209390212Y-110588787D01*
X209478662Y-110543904D01*
X209377912Y-110273527D01*
X209307662Y-110307652D01*
X209207309Y-110344968D01*
X209099540Y-110371163D01*
X208988956Y-110379895D01*
X208913066Y-110371480D01*
X208858896Y-110348998D01*
X208822961Y-110309095D01*
X208809926Y-110244829D01*
G37*
G36*
X207352773Y-110630000D02*
G01*
X207352773Y-109834501D01*
X207359393Y-109720343D01*
X207376383Y-109641139D01*
X207400400Y-109588060D01*
X207438222Y-109547790D01*
X207493795Y-109522025D01*
X207573812Y-109512344D01*
X207633176Y-109519232D01*
X207689148Y-109539880D01*
X207743073Y-109575359D01*
X207806950Y-109646956D01*
X207845166Y-109736437D01*
X207845166Y-110630000D01*
X208208966Y-110630000D01*
X208208966Y-108668241D01*
X207845166Y-108668241D01*
X207845166Y-109387780D01*
X207833931Y-109387780D01*
X207759047Y-109307317D01*
X207668945Y-109245143D01*
X207601573Y-109216759D01*
X207519553Y-109198480D01*
X207419817Y-109191898D01*
X207317305Y-109199277D01*
X207232483Y-109219863D01*
X207157780Y-109257028D01*
X207096684Y-109312187D01*
X207050686Y-109384742D01*
X207015595Y-109487065D01*
X206996271Y-109604128D01*
X206988973Y-109759884D01*
X206988973Y-110630000D01*
X207352773Y-110630000D01*
G37*
G36*
X206333181Y-109230976D02*
G01*
X206333181Y-110026475D01*
X206321105Y-110184622D01*
X206292637Y-110273039D01*
X206259102Y-110313437D01*
X206208580Y-110339014D01*
X206134489Y-110348632D01*
X206067899Y-110341450D01*
X206011307Y-110320870D01*
X205962542Y-110287083D01*
X205902903Y-110218760D01*
X205860327Y-110135774D01*
X205860327Y-109230976D01*
X205496527Y-109230976D01*
X205496527Y-110204651D01*
X205485414Y-110429965D01*
X205470987Y-110537686D01*
X205451831Y-110630000D01*
X205725993Y-110630000D01*
X205790351Y-110422882D01*
X205801586Y-110422882D01*
X205877692Y-110519302D01*
X205980739Y-110599225D01*
X206059885Y-110637315D01*
X206149595Y-110660868D01*
X206252092Y-110669078D01*
X206354970Y-110661761D01*
X206442357Y-110641113D01*
X206519601Y-110603846D01*
X206582309Y-110548789D01*
X206630062Y-110476380D01*
X206667672Y-110375376D01*
X206688899Y-110259065D01*
X206696981Y-110101092D01*
X206696981Y-109230976D01*
X206333181Y-109230976D01*
G37*
G36*
X205323847Y-109230976D02*
G01*
X205130896Y-109230976D01*
X205130896Y-108967438D01*
X204767096Y-108863635D01*
X204767096Y-109230976D01*
X204425766Y-109230976D01*
X204425766Y-109535792D01*
X204767096Y-109535792D01*
X204767096Y-110075812D01*
X204758267Y-110211390D01*
X204737787Y-110285373D01*
X204712897Y-110320076D01*
X204677281Y-110341011D01*
X204627145Y-110348632D01*
X204530669Y-110337519D01*
X204439688Y-110303813D01*
X204375330Y-110582739D01*
X204454736Y-110615245D01*
X204551674Y-110643921D01*
X204653143Y-110662795D01*
X204755861Y-110669078D01*
X204880720Y-110656406D01*
X204972746Y-110622283D01*
X205040037Y-110569549D01*
X205086899Y-110497141D01*
X205118715Y-110391997D01*
X205130896Y-110242752D01*
X205130896Y-109535792D01*
X205323847Y-109535792D01*
X205323847Y-109230976D01*
G37*
G36*
X203778625Y-109205078D02*
G01*
X203908449Y-109242282D01*
X204018056Y-109301654D01*
X204110815Y-109383628D01*
X204183181Y-109483483D01*
X204237181Y-109604808D01*
X204271795Y-109751981D01*
X204284228Y-109930488D01*
X204273724Y-110091319D01*
X204243683Y-110232739D01*
X204191738Y-110361321D01*
X204120585Y-110466235D01*
X204028583Y-110551401D01*
X203914933Y-110615956D01*
X203831161Y-110644605D01*
X203734843Y-110662701D01*
X203623917Y-110669078D01*
X203469110Y-110655881D01*
X203339526Y-110618665D01*
X203230418Y-110559333D01*
X203138362Y-110477470D01*
X203066604Y-110377646D01*
X203013012Y-110256311D01*
X202978641Y-110109084D01*
X202966293Y-109930488D01*
X203341328Y-109930488D01*
X203350864Y-110080350D01*
X203375632Y-110186672D01*
X203411304Y-110260094D01*
X203465166Y-110317327D01*
X203534360Y-110351930D01*
X203623917Y-110364263D01*
X203695688Y-110355813D01*
X203754099Y-110331901D01*
X203802961Y-110293250D01*
X203842148Y-110240432D01*
X203871008Y-110177763D01*
X203892584Y-110102313D01*
X203904980Y-110021462D01*
X203909315Y-109930488D01*
X203898953Y-109777138D01*
X203872213Y-109670351D01*
X203833844Y-109598196D01*
X203777069Y-109541921D01*
X203708386Y-109508418D01*
X203623917Y-109496713D01*
X203549656Y-109504883D01*
X203490557Y-109527700D01*
X203443191Y-109564380D01*
X203405686Y-109616514D01*
X203371665Y-109698866D01*
X203349433Y-109801988D01*
X203341328Y-109930488D01*
X202966293Y-109930488D01*
X202976799Y-109769673D01*
X203006838Y-109628360D01*
X203058497Y-109499571D01*
X203128593Y-109394741D01*
X203219430Y-109309679D01*
X203332902Y-109245143D01*
X203416601Y-109216432D01*
X203512914Y-109198293D01*
X203623917Y-109191898D01*
X203778625Y-109205078D01*
G37*
G36*
X202135257Y-110244829D02*
G01*
X202147043Y-110194499D01*
X202182884Y-110154947D01*
X202234027Y-110123603D01*
X202300365Y-110093032D01*
X202454238Y-110035512D01*
X202534851Y-110000391D01*
X202608111Y-109954302D01*
X202672035Y-109896050D01*
X202725714Y-109822777D01*
X202760390Y-109735521D01*
X202773219Y-109617124D01*
X202764628Y-109514588D01*
X202740545Y-109429831D01*
X202702411Y-109359479D01*
X202650121Y-109301074D01*
X202561751Y-109243133D01*
X202445952Y-109205666D01*
X202294748Y-109191898D01*
X202139610Y-109200628D01*
X202006663Y-109225237D01*
X201885866Y-109262970D01*
X201805163Y-109300341D01*
X201886251Y-109562292D01*
X202048551Y-109509047D01*
X202147324Y-109488054D01*
X202247242Y-109481081D01*
X202324507Y-109490740D01*
X202372200Y-109515369D01*
X202399667Y-109552952D01*
X202409542Y-109607721D01*
X202398027Y-109652859D01*
X202362036Y-109689420D01*
X202244434Y-109747062D01*
X202090561Y-109804581D01*
X202009724Y-109840122D01*
X201936688Y-109884326D01*
X201872838Y-109940105D01*
X201819207Y-110011699D01*
X201784410Y-110097368D01*
X201771579Y-110213077D01*
X201780774Y-110317614D01*
X201806882Y-110406341D01*
X201848857Y-110482246D01*
X201907256Y-110547445D01*
X201977700Y-110597437D01*
X202066230Y-110635375D01*
X202176831Y-110660088D01*
X202314409Y-110669078D01*
X202459676Y-110659467D01*
X202592846Y-110631465D01*
X202715543Y-110588787D01*
X202803994Y-110543904D01*
X202703244Y-110273527D01*
X202632993Y-110307652D01*
X202532640Y-110344968D01*
X202424871Y-110371163D01*
X202314287Y-110379895D01*
X202238397Y-110371480D01*
X202184228Y-110348998D01*
X202148292Y-110309095D01*
X202135257Y-110244829D01*
G37*
G36*
X200678104Y-110630000D02*
G01*
X200678104Y-109834501D01*
X200684725Y-109720343D01*
X200701715Y-109641139D01*
X200725732Y-109588060D01*
X200763553Y-109547790D01*
X200819127Y-109522025D01*
X200899144Y-109512344D01*
X200958507Y-109519232D01*
X201014480Y-109539880D01*
X201068404Y-109575359D01*
X201132282Y-109646956D01*
X201170498Y-109736437D01*
X201170498Y-110630000D01*
X201534297Y-110630000D01*
X201534297Y-108668241D01*
X201170498Y-108668241D01*
X201170498Y-109387780D01*
X201159263Y-109387780D01*
X201084379Y-109307317D01*
X200994277Y-109245143D01*
X200926904Y-109216759D01*
X200844885Y-109198480D01*
X200745149Y-109191898D01*
X200642637Y-109199277D01*
X200557815Y-109219863D01*
X200483112Y-109257028D01*
X200422016Y-109312187D01*
X200376018Y-109384742D01*
X200340927Y-109487065D01*
X200321602Y-109604128D01*
X200314304Y-109759884D01*
X200314304Y-110630000D01*
X200678104Y-110630000D01*
G37*
G36*
X198861670Y-108647602D02*
G01*
X199005773Y-108656029D01*
X199154029Y-108671416D01*
X199292514Y-108692299D01*
X199292514Y-110630000D01*
X198909175Y-110630000D01*
X198909175Y-109824975D01*
X198707797Y-109861489D01*
X198262909Y-110630000D01*
X197820829Y-110630000D01*
X198268404Y-109881151D01*
X198405547Y-109794200D01*
X198287756Y-109744232D01*
X198188831Y-109674848D01*
X198106227Y-109585006D01*
X198045924Y-109479184D01*
X198007851Y-109350800D01*
X197999574Y-109255645D01*
X198397120Y-109255645D01*
X198409181Y-109362457D01*
X198441614Y-109439606D01*
X198492253Y-109494759D01*
X198559291Y-109533439D01*
X198642770Y-109558134D01*
X198746876Y-109567055D01*
X198909175Y-109567055D01*
X198909175Y-109002609D01*
X198821126Y-108991496D01*
X198704866Y-108988688D01*
X198606538Y-108997679D01*
X198531899Y-109022058D01*
X198475522Y-109059640D01*
X198432769Y-109111542D01*
X198406474Y-109175658D01*
X198397120Y-109255645D01*
X197999574Y-109255645D01*
X197994242Y-109194340D01*
X198001923Y-109087990D01*
X198023436Y-108999298D01*
X198057256Y-108925184D01*
X198130904Y-108829004D01*
X198225051Y-108756413D01*
X198335410Y-108704655D01*
X198462944Y-108669951D01*
X198596654Y-108651104D01*
X198732954Y-108644794D01*
X198861670Y-108647602D01*
G37*
G36*
X197203178Y-109207320D02*
G01*
X197359210Y-109229633D01*
X197506806Y-109266186D01*
X197625069Y-109310844D01*
X197538362Y-109585739D01*
X197453875Y-109554260D01*
X197338327Y-109526999D01*
X197217868Y-109509968D01*
X197107396Y-109504528D01*
X197013061Y-109513977D01*
X196954367Y-109537676D01*
X196919939Y-109572062D01*
X196900532Y-109619346D01*
X196891518Y-109690245D01*
X196897591Y-109793712D01*
X197077916Y-109792847D01*
X197231960Y-109806413D01*
X197374862Y-109836969D01*
X197489392Y-109882250D01*
X197585914Y-109946629D01*
X197654500Y-110025498D01*
X197685519Y-110086925D01*
X197704926Y-110158747D01*
X197711775Y-110243241D01*
X197703812Y-110332829D01*
X197681000Y-110410425D01*
X197643786Y-110480228D01*
X197594294Y-110539752D01*
X197533224Y-110587833D01*
X197459960Y-110624016D01*
X197378410Y-110645801D01*
X197283739Y-110653447D01*
X197180893Y-110645680D01*
X197096724Y-110624081D01*
X197027773Y-110590310D01*
X196937990Y-110519889D01*
X196872434Y-110439979D01*
X196858390Y-110439979D01*
X196799650Y-110630000D01*
X196503017Y-110630000D01*
X196530138Y-110526985D01*
X196545027Y-110415921D01*
X196551988Y-110182180D01*
X196545223Y-110012554D01*
X196894782Y-110012554D01*
X196894782Y-110194637D01*
X196932521Y-110247267D01*
X196989915Y-110299661D01*
X197062102Y-110335421D01*
X197163327Y-110348632D01*
X197237832Y-110337079D01*
X197290700Y-110305279D01*
X197324670Y-110254762D01*
X197336862Y-110183401D01*
X197327562Y-110131754D01*
X197300470Y-110090956D01*
X197259193Y-110059585D01*
X197202528Y-110035024D01*
X197138382Y-110019255D01*
X197061234Y-110009867D01*
X196894782Y-110012554D01*
X196545223Y-110012554D01*
X196542218Y-109937205D01*
X196533792Y-109689542D01*
X196540039Y-109580724D01*
X196557605Y-109488042D01*
X196590178Y-109404037D01*
X196638816Y-109334047D01*
X196704427Y-109278226D01*
X196794032Y-109234762D01*
X196898509Y-109209265D01*
X197037420Y-109199713D01*
X197203178Y-109207320D01*
G37*
G36*
X196195759Y-109230976D02*
G01*
X195832082Y-109230976D01*
X195832082Y-110686053D01*
X195845067Y-110853053D01*
X195879993Y-110979468D01*
X195932832Y-111074277D01*
X195988039Y-111130852D01*
X196057707Y-111172302D01*
X196145042Y-111198785D01*
X196254622Y-111208367D01*
X196339654Y-111203663D01*
X196433652Y-111188827D01*
X196433652Y-110885111D01*
X196413990Y-110886454D01*
X196397260Y-110887920D01*
X196318204Y-110877463D01*
X196266291Y-110850000D01*
X196233617Y-110806831D01*
X196206432Y-110717335D01*
X196195759Y-110583349D01*
X196195759Y-109230976D01*
G37*
G36*
X196246073Y-108839089D02*
G01*
X196239379Y-108787990D01*
X196219662Y-108742735D01*
X196185990Y-108701702D01*
X196142624Y-108671053D01*
X196088147Y-108651749D01*
X196019416Y-108644794D01*
X195950674Y-108651622D01*
X195894216Y-108670840D01*
X195847469Y-108701702D01*
X195810302Y-108743149D01*
X195788862Y-108788379D01*
X195781646Y-108839089D01*
X195788921Y-108889685D01*
X195810395Y-108933940D01*
X195847469Y-108973667D01*
X195894012Y-109002910D01*
X195950473Y-109021234D01*
X196019416Y-109027766D01*
X196088367Y-109021108D01*
X196142841Y-109002697D01*
X196185990Y-108973667D01*
X196219566Y-108934359D01*
X196239320Y-108890086D01*
X196246073Y-108839089D01*
G37*
G36*
X195521039Y-110453290D02*
G01*
X195513657Y-110392945D01*
X195492687Y-110343652D01*
X195458146Y-110302836D01*
X195388703Y-110261315D01*
X195302685Y-110247027D01*
X195227941Y-110256227D01*
X195167509Y-110282268D01*
X195118038Y-110325062D01*
X195081713Y-110380591D01*
X195058981Y-110448272D01*
X195050871Y-110531325D01*
X195061279Y-110651334D01*
X195090072Y-110747358D01*
X195134883Y-110831924D01*
X195186670Y-110897812D01*
X195246897Y-110952110D01*
X195309769Y-110992578D01*
X195428715Y-111044235D01*
X195534960Y-110895736D01*
X195465062Y-110855576D01*
X195403436Y-110794497D01*
X195359584Y-110720956D01*
X195341886Y-110645631D01*
X195403414Y-110640359D01*
X195463642Y-110606552D01*
X195494096Y-110570914D01*
X195513730Y-110521404D01*
X195521039Y-110453290D01*
G37*
G36*
X193406384Y-110097184D02*
G01*
X193413865Y-110041714D01*
X193435549Y-109994846D01*
X193472207Y-109954424D01*
X193543724Y-109903474D01*
X193637316Y-109854162D01*
X193852738Y-109759884D01*
X193964971Y-109704997D01*
X194068160Y-109639351D01*
X194158847Y-109559398D01*
X194233268Y-109461420D01*
X194268448Y-109387633D01*
X194290911Y-109298175D01*
X194298969Y-109189577D01*
X194286438Y-109052796D01*
X194251464Y-108941671D01*
X194193516Y-108845039D01*
X194115787Y-108766549D01*
X194020906Y-108706238D01*
X193907326Y-108662868D01*
X193782854Y-108637957D01*
X193638659Y-108629162D01*
X193470793Y-108636960D01*
X193316869Y-108659570D01*
X193174156Y-108698487D01*
X193067863Y-108747620D01*
X193188153Y-109076615D01*
X193258418Y-109041803D01*
X193372801Y-109005296D01*
X193498919Y-108981348D01*
X193638659Y-108973056D01*
X193727024Y-108979783D01*
X193794011Y-108997872D01*
X193844311Y-109025202D01*
X193884230Y-109064261D01*
X193907587Y-109110091D01*
X193915630Y-109165031D01*
X193908330Y-109216797D01*
X193886850Y-109261894D01*
X193849929Y-109302173D01*
X193778404Y-109353315D01*
X193684821Y-109403656D01*
X193469399Y-109500621D01*
X193357028Y-109556561D01*
X193253976Y-109622498D01*
X193163123Y-109702229D01*
X193088868Y-109799085D01*
X193053393Y-109871856D01*
X193031001Y-109958192D01*
X193023045Y-110061036D01*
X193036757Y-110211034D01*
X193074824Y-110331413D01*
X193137409Y-110435823D01*
X193220393Y-110520579D01*
X193321970Y-110585433D01*
X193446928Y-110632564D01*
X193583769Y-110659611D01*
X193739287Y-110669078D01*
X193942488Y-110658317D01*
X194108704Y-110628656D01*
X194256760Y-110584774D01*
X194343666Y-110547690D01*
X194220568Y-110213321D01*
X194140822Y-110249713D01*
X194030302Y-110286106D01*
X193900243Y-110314071D01*
X193758949Y-110325184D01*
X193645840Y-110317811D01*
X193560643Y-110298135D01*
X193497364Y-110268886D01*
X193446969Y-110224973D01*
X193416978Y-110169063D01*
X193406384Y-110097184D01*
G37*
G36*
X191920533Y-110630000D02*
G01*
X191920533Y-109834501D01*
X191927153Y-109720343D01*
X191944143Y-109641139D01*
X191968160Y-109588060D01*
X192005982Y-109547790D01*
X192061555Y-109522025D01*
X192141572Y-109512344D01*
X192200936Y-109519232D01*
X192256908Y-109539880D01*
X192310833Y-109575359D01*
X192374710Y-109646956D01*
X192412926Y-109736437D01*
X192412926Y-110630000D01*
X192776726Y-110630000D01*
X192776726Y-108668241D01*
X192412926Y-108668241D01*
X192412926Y-109387780D01*
X192401691Y-109387780D01*
X192326807Y-109307317D01*
X192236705Y-109245143D01*
X192169333Y-109216759D01*
X192087313Y-109198480D01*
X191987577Y-109191898D01*
X191885065Y-109199277D01*
X191800243Y-109219863D01*
X191725540Y-109257028D01*
X191664444Y-109312187D01*
X191618446Y-109384742D01*
X191583355Y-109487065D01*
X191564031Y-109604128D01*
X191556733Y-109759884D01*
X191556733Y-110630000D01*
X191920533Y-110630000D01*
G37*
G36*
X190478401Y-109574382D02*
G01*
X190563797Y-109550758D01*
X190635083Y-109543607D01*
X190726632Y-109557044D01*
X190798847Y-109595265D01*
X190853683Y-109654208D01*
X190886897Y-109727889D01*
X190886897Y-110630000D01*
X191250697Y-110630000D01*
X191250697Y-109230976D01*
X190968108Y-109230976D01*
X190926098Y-109415258D01*
X190914863Y-109415258D01*
X190857789Y-109322159D01*
X190786269Y-109255767D01*
X190699288Y-109214080D01*
X190596004Y-109199713D01*
X190521471Y-109206889D01*
X190430896Y-109230732D01*
X190478401Y-109574382D01*
G37*
G36*
X189821677Y-109204717D02*
G01*
X189954007Y-109240794D01*
X190065209Y-109298058D01*
X190158809Y-109376545D01*
X190231678Y-109473150D01*
X190286560Y-109593919D01*
X190322127Y-109744148D01*
X190335030Y-109930488D01*
X190323862Y-110103777D01*
X190292613Y-110248832D01*
X190243740Y-110370260D01*
X190178348Y-110471852D01*
X190111925Y-110539942D01*
X190031800Y-110593910D01*
X189935778Y-110634164D01*
X189820781Y-110659883D01*
X189683024Y-110669078D01*
X189523957Y-110657432D01*
X189376621Y-110623283D01*
X189242450Y-110569588D01*
X189148621Y-110510565D01*
X189268910Y-110273527D01*
X189322973Y-110307290D01*
X189407518Y-110344968D01*
X189502227Y-110370802D01*
X189613048Y-110379895D01*
X189732743Y-110368156D01*
X189818969Y-110336910D01*
X189880250Y-110289281D01*
X189924664Y-110223972D01*
X189955780Y-110136444D01*
X189971230Y-110020369D01*
X189131890Y-110020369D01*
X189111007Y-109880907D01*
X189106087Y-109793712D01*
X189442445Y-109793712D01*
X189962926Y-109793712D01*
X189946438Y-109701108D01*
X189918544Y-109626344D01*
X189880372Y-109566200D01*
X189828911Y-109520433D01*
X189760344Y-109491612D01*
X189669102Y-109481081D01*
X189591154Y-109490951D01*
X189532602Y-109518147D01*
X189488607Y-109562048D01*
X189459599Y-109618997D01*
X189443238Y-109694356D01*
X189442445Y-109793712D01*
X189106087Y-109793712D01*
X189103924Y-109755366D01*
X189116810Y-109601407D01*
X189151551Y-109484867D01*
X189208033Y-109385520D01*
X189277459Y-109311943D01*
X189361011Y-109256983D01*
X189456489Y-109219863D01*
X189558414Y-109198916D01*
X189663484Y-109191898D01*
X189821677Y-109204717D01*
G37*
G36*
X188377180Y-110016095D02*
G01*
X188326866Y-110233960D01*
X188310135Y-110233960D01*
X188273743Y-110013286D01*
X188061007Y-109230976D01*
X187686094Y-109230976D01*
X188111321Y-110490903D01*
X188213415Y-110777278D01*
X188266402Y-110901691D01*
X188321248Y-111002226D01*
X188385112Y-111088616D01*
X188451307Y-111148893D01*
X188528151Y-111187289D01*
X188620568Y-111200551D01*
X188757285Y-111187470D01*
X188852842Y-111153168D01*
X188785676Y-110863374D01*
X188743394Y-110875994D01*
X188701778Y-110880104D01*
X188640365Y-110867267D01*
X188577337Y-110825516D01*
X188543875Y-110784933D01*
X188513107Y-110721807D01*
X188486356Y-110628534D01*
X189071073Y-109230976D01*
X188634611Y-109230976D01*
X188377180Y-110016095D01*
G37*
G36*
X187134511Y-109207320D02*
G01*
X187290543Y-109229633D01*
X187438139Y-109266186D01*
X187556401Y-109310844D01*
X187469695Y-109585739D01*
X187385208Y-109554260D01*
X187269660Y-109526999D01*
X187149201Y-109509968D01*
X187038729Y-109504528D01*
X186944394Y-109513977D01*
X186885700Y-109537676D01*
X186851272Y-109572062D01*
X186831865Y-109619346D01*
X186822850Y-109690245D01*
X186828924Y-109793712D01*
X187009249Y-109792847D01*
X187163293Y-109806413D01*
X187306195Y-109836969D01*
X187420725Y-109882250D01*
X187517247Y-109946629D01*
X187585833Y-110025498D01*
X187616852Y-110086925D01*
X187636259Y-110158747D01*
X187643108Y-110243241D01*
X187635145Y-110332829D01*
X187612333Y-110410425D01*
X187575119Y-110480228D01*
X187525627Y-110539752D01*
X187464557Y-110587833D01*
X187391293Y-110624016D01*
X187309743Y-110645801D01*
X187215072Y-110653447D01*
X187112226Y-110645680D01*
X187028057Y-110624081D01*
X186959106Y-110590310D01*
X186869323Y-110519889D01*
X186803767Y-110439979D01*
X186789723Y-110439979D01*
X186730983Y-110630000D01*
X186434350Y-110630000D01*
X186461471Y-110526985D01*
X186476360Y-110415921D01*
X186483320Y-110182180D01*
X186476556Y-110012554D01*
X186826115Y-110012554D01*
X186826115Y-110194637D01*
X186863854Y-110247267D01*
X186921248Y-110299661D01*
X186993435Y-110335421D01*
X187094660Y-110348632D01*
X187169164Y-110337079D01*
X187222033Y-110305279D01*
X187256003Y-110254762D01*
X187268195Y-110183401D01*
X187258895Y-110131754D01*
X187231803Y-110090956D01*
X187190526Y-110059585D01*
X187133861Y-110035024D01*
X187069715Y-110019255D01*
X186992567Y-110009867D01*
X186826115Y-110012554D01*
X186476556Y-110012554D01*
X186473551Y-109937205D01*
X186465124Y-109689542D01*
X186471371Y-109580724D01*
X186488938Y-109488042D01*
X186521511Y-109404037D01*
X186570149Y-109334047D01*
X186635760Y-109278226D01*
X186725365Y-109234762D01*
X186829842Y-109209265D01*
X186968753Y-109199713D01*
X187134511Y-109207320D01*
G37*
G36*
X185581454Y-110244829D02*
G01*
X185593240Y-110194499D01*
X185629081Y-110154947D01*
X185680223Y-110123603D01*
X185746562Y-110093032D01*
X185900435Y-110035512D01*
X185981047Y-110000391D01*
X186054308Y-109954302D01*
X186118231Y-109896050D01*
X186171911Y-109822777D01*
X186206586Y-109735521D01*
X186219416Y-109617124D01*
X186210824Y-109514588D01*
X186186741Y-109429831D01*
X186148608Y-109359479D01*
X186096318Y-109301074D01*
X186007948Y-109243133D01*
X185892149Y-109205666D01*
X185740944Y-109191898D01*
X185585807Y-109200628D01*
X185452860Y-109225237D01*
X185332063Y-109262970D01*
X185251360Y-109300341D01*
X185332448Y-109562292D01*
X185494748Y-109509047D01*
X185593521Y-109488054D01*
X185693439Y-109481081D01*
X185770704Y-109490740D01*
X185818397Y-109515369D01*
X185845864Y-109552952D01*
X185855739Y-109607721D01*
X185844223Y-109652859D01*
X185808233Y-109689420D01*
X185690630Y-109747062D01*
X185536757Y-109804581D01*
X185455921Y-109840122D01*
X185382884Y-109884326D01*
X185319034Y-109940105D01*
X185265404Y-110011699D01*
X185230606Y-110097368D01*
X185217776Y-110213077D01*
X185226970Y-110317614D01*
X185253079Y-110406341D01*
X185295054Y-110482246D01*
X185353453Y-110547445D01*
X185423897Y-110597437D01*
X185512427Y-110635375D01*
X185623028Y-110660088D01*
X185760606Y-110669078D01*
X185905873Y-110659467D01*
X186039043Y-110631465D01*
X186161740Y-110588787D01*
X186250191Y-110543904D01*
X186149441Y-110273527D01*
X186079190Y-110307652D01*
X185978837Y-110344968D01*
X185871068Y-110371163D01*
X185760484Y-110379895D01*
X185684594Y-110371480D01*
X185630424Y-110348998D01*
X185594489Y-110309095D01*
X185581454Y-110244829D01*
G37*
G36*
X184005965Y-108657372D02*
G01*
X184264741Y-108692299D01*
X184264741Y-110630000D01*
X183881401Y-110630000D01*
X183881401Y-109954424D01*
X183835240Y-109960041D01*
X183769538Y-109964316D01*
X183705180Y-109965659D01*
X183660362Y-109965659D01*
X183516766Y-109956515D01*
X183379238Y-109929389D01*
X183250076Y-109881488D01*
X183137193Y-109812030D01*
X183041988Y-109720356D01*
X182966468Y-109604057D01*
X182931917Y-109517003D01*
X182909933Y-109414198D01*
X182902110Y-109292648D01*
X182902438Y-109287885D01*
X183304988Y-109287885D01*
X183314627Y-109393925D01*
X183340037Y-109469480D01*
X183381464Y-109531688D01*
X183433704Y-109577557D01*
X183495743Y-109610053D01*
X183566695Y-109630802D01*
X183716293Y-109645212D01*
X183751342Y-109645212D01*
X183800313Y-109643747D01*
X183847818Y-109639473D01*
X183881401Y-109633733D01*
X183881401Y-108979651D01*
X183800313Y-108969637D01*
X183693945Y-108965240D01*
X183551185Y-108979651D01*
X183484499Y-109000077D01*
X183426743Y-109031552D01*
X183377754Y-109074697D01*
X183338572Y-109130959D01*
X183314045Y-109198131D01*
X183304988Y-109287885D01*
X182902438Y-109287885D01*
X182911349Y-109158309D01*
X182936845Y-109049598D01*
X182976237Y-108961821D01*
X183031280Y-108882314D01*
X183095010Y-108816641D01*
X183167968Y-108763496D01*
X183291517Y-108704640D01*
X183432361Y-108668607D01*
X183579308Y-108650714D01*
X183724720Y-108644794D01*
X184005965Y-108657372D01*
G37*
G36*
X181310228Y-108638589D02*
G01*
X181408198Y-108664211D01*
X181493634Y-108705992D01*
X181557919Y-108756657D01*
X181607936Y-108818077D01*
X181641939Y-108885617D01*
X181661951Y-108957427D01*
X181668439Y-109027034D01*
X181657235Y-109130880D01*
X181623743Y-109228900D01*
X181573321Y-109322330D01*
X181508949Y-109416601D01*
X181606384Y-109477003D01*
X181696405Y-109545561D01*
X181777864Y-109621894D01*
X181846126Y-109702487D01*
X181902175Y-109789899D01*
X181944067Y-109883227D01*
X181970186Y-109981856D01*
X181978994Y-110086315D01*
X181964916Y-110218170D01*
X181924406Y-110331535D01*
X181860016Y-110431377D01*
X181776150Y-110515083D01*
X181675352Y-110580872D01*
X181555110Y-110629877D01*
X181424766Y-110659063D01*
X181282291Y-110669078D01*
X181136150Y-110660329D01*
X181013337Y-110635849D01*
X180910187Y-110597637D01*
X180768483Y-110518842D01*
X180658373Y-110433750D01*
X180575894Y-110508501D01*
X180494730Y-110572480D01*
X180411470Y-110627777D01*
X180333774Y-110669078D01*
X180140700Y-110403342D01*
X180277842Y-110316636D01*
X180403956Y-110212344D01*
X180876604Y-110212344D01*
X180935390Y-110264698D01*
X181024859Y-110317002D01*
X181125936Y-110352363D01*
X181234786Y-110364263D01*
X181345945Y-110354325D01*
X181436433Y-110326587D01*
X181510414Y-110282686D01*
X181568426Y-110221731D01*
X181603155Y-110147991D01*
X181615316Y-110057372D01*
X181607457Y-109978942D01*
X181584269Y-109906766D01*
X181545341Y-109839263D01*
X181463976Y-109744978D01*
X181341032Y-109637885D01*
X181249010Y-109770159D01*
X181136845Y-109916688D01*
X181014493Y-110062464D01*
X180876604Y-110212344D01*
X180403956Y-110212344D01*
X180434524Y-110187065D01*
X180367357Y-110093520D01*
X180296039Y-109977627D01*
X180231681Y-109856116D01*
X180185519Y-109745840D01*
X180448446Y-109606133D01*
X180539427Y-109819480D01*
X180595893Y-109917619D01*
X180655564Y-109993747D01*
X180771324Y-109868523D01*
X180873795Y-109744375D01*
X180970169Y-109614153D01*
X181069678Y-109466915D01*
X180943871Y-109383178D01*
X180853841Y-109303500D01*
X180792706Y-109227313D01*
X180745897Y-109141450D01*
X180719793Y-109062231D01*
X180718183Y-109047794D01*
X180996893Y-109047794D01*
X181008066Y-109102390D01*
X181045864Y-109165031D01*
X181104683Y-109224108D01*
X181203889Y-109296067D01*
X181262789Y-109202948D01*
X181294713Y-109120168D01*
X181304639Y-109044986D01*
X181295106Y-108985914D01*
X181268247Y-108941793D01*
X181224640Y-108913404D01*
X181156384Y-108902714D01*
X181080524Y-108913655D01*
X181034751Y-108941793D01*
X181006874Y-108986411D01*
X180996893Y-109047794D01*
X180718183Y-109047794D01*
X180711496Y-108987833D01*
X180717745Y-108921488D01*
X180736653Y-108856186D01*
X180769107Y-108795822D01*
X180817863Y-108741270D01*
X180880283Y-108697015D01*
X180964775Y-108660059D01*
X181060898Y-108637491D01*
X181184350Y-108629162D01*
X181310228Y-108638589D01*
G37*
G36*
X178237926Y-110097184D02*
G01*
X178245407Y-110041714D01*
X178267091Y-109994846D01*
X178303750Y-109954424D01*
X178375266Y-109903474D01*
X178468858Y-109854162D01*
X178684280Y-109759884D01*
X178796513Y-109704997D01*
X178899702Y-109639351D01*
X178990389Y-109559398D01*
X179064810Y-109461420D01*
X179099991Y-109387633D01*
X179122453Y-109298175D01*
X179130512Y-109189577D01*
X179117981Y-109052796D01*
X179083006Y-108941671D01*
X179025058Y-108845039D01*
X178947330Y-108766549D01*
X178852448Y-108706238D01*
X178738868Y-108662868D01*
X178614396Y-108637957D01*
X178470201Y-108629162D01*
X178302335Y-108636960D01*
X178148411Y-108659570D01*
X178005698Y-108698487D01*
X177899406Y-108747620D01*
X178019695Y-109076615D01*
X178089960Y-109041803D01*
X178204343Y-109005296D01*
X178330462Y-108981348D01*
X178470201Y-108973056D01*
X178558566Y-108979783D01*
X178625554Y-108997872D01*
X178675854Y-109025202D01*
X178715773Y-109064261D01*
X178739129Y-109110091D01*
X178747173Y-109165031D01*
X178739872Y-109216797D01*
X178718392Y-109261894D01*
X178681471Y-109302173D01*
X178609946Y-109353315D01*
X178516363Y-109403656D01*
X178300941Y-109500621D01*
X178188570Y-109556561D01*
X178085519Y-109622498D01*
X177994666Y-109702229D01*
X177920411Y-109799085D01*
X177884935Y-109871856D01*
X177862543Y-109958192D01*
X177854587Y-110061036D01*
X177868299Y-110211034D01*
X177906367Y-110331413D01*
X177968951Y-110435823D01*
X178051935Y-110520579D01*
X178153512Y-110585433D01*
X178278471Y-110632564D01*
X178415311Y-110659611D01*
X178570829Y-110669078D01*
X178774030Y-110658317D01*
X178940247Y-110628656D01*
X179088303Y-110584774D01*
X179175208Y-110547690D01*
X179052110Y-110213321D01*
X178972364Y-110249713D01*
X178861845Y-110286106D01*
X178731785Y-110314071D01*
X178590491Y-110325184D01*
X178477382Y-110317811D01*
X178392185Y-110298135D01*
X178328907Y-110268886D01*
X178278511Y-110224973D01*
X178248521Y-110169063D01*
X178237926Y-110097184D01*
G37*
G36*
X177258512Y-109230976D02*
G01*
X177258512Y-110026475D01*
X177246436Y-110184622D01*
X177217968Y-110273039D01*
X177184433Y-110313437D01*
X177133912Y-110339014D01*
X177059821Y-110348632D01*
X176993230Y-110341450D01*
X176936638Y-110320870D01*
X176887874Y-110287083D01*
X176828234Y-110218760D01*
X176785658Y-110135774D01*
X176785658Y-109230976D01*
X176421859Y-109230976D01*
X176421859Y-110204651D01*
X176410745Y-110429965D01*
X176396318Y-110537686D01*
X176377162Y-110630000D01*
X176651325Y-110630000D01*
X176715683Y-110422882D01*
X176726918Y-110422882D01*
X176803024Y-110519302D01*
X176906070Y-110599225D01*
X176985217Y-110637315D01*
X177074926Y-110660868D01*
X177177424Y-110669078D01*
X177280301Y-110661761D01*
X177367689Y-110641113D01*
X177444932Y-110603846D01*
X177507640Y-110548789D01*
X177555393Y-110476380D01*
X177593003Y-110375376D01*
X177614231Y-110259065D01*
X177622312Y-110101092D01*
X177622312Y-109230976D01*
X177258512Y-109230976D01*
G37*
G36*
X175331436Y-109574382D02*
G01*
X175416833Y-109550758D01*
X175488118Y-109543607D01*
X175579667Y-109557044D01*
X175651883Y-109595265D01*
X175706719Y-109654208D01*
X175739933Y-109727889D01*
X175739933Y-110630000D01*
X176103732Y-110630000D01*
X176103732Y-109230976D01*
X175821143Y-109230976D01*
X175779133Y-109415258D01*
X175767898Y-109415258D01*
X175710825Y-109322159D01*
X175639304Y-109255767D01*
X175552324Y-109214080D01*
X175449039Y-109199713D01*
X175374507Y-109206889D01*
X175283931Y-109230732D01*
X175331436Y-109574382D01*
G37*
G36*
X174707435Y-109207320D02*
G01*
X174863467Y-109229633D01*
X175011063Y-109266186D01*
X175129325Y-109310844D01*
X175042619Y-109585739D01*
X174958132Y-109554260D01*
X174842584Y-109526999D01*
X174722125Y-109509968D01*
X174611653Y-109504528D01*
X174517318Y-109513977D01*
X174458624Y-109537676D01*
X174424196Y-109572062D01*
X174404789Y-109619346D01*
X174395774Y-109690245D01*
X174401848Y-109793712D01*
X174582173Y-109792847D01*
X174736217Y-109806413D01*
X174879119Y-109836969D01*
X174993648Y-109882250D01*
X175090171Y-109946629D01*
X175158757Y-110025498D01*
X175189776Y-110086925D01*
X175209183Y-110158747D01*
X175216032Y-110243241D01*
X175208069Y-110332829D01*
X175185257Y-110410425D01*
X175148042Y-110480228D01*
X175098551Y-110539752D01*
X175037481Y-110587833D01*
X174964217Y-110624016D01*
X174882667Y-110645801D01*
X174787996Y-110653447D01*
X174685150Y-110645680D01*
X174600981Y-110624081D01*
X174532030Y-110590310D01*
X174442247Y-110519889D01*
X174376691Y-110439979D01*
X174362647Y-110439979D01*
X174303907Y-110630000D01*
X174007274Y-110630000D01*
X174034395Y-110526985D01*
X174049284Y-110415921D01*
X174056244Y-110182180D01*
X174049480Y-110012554D01*
X174399039Y-110012554D01*
X174399039Y-110194637D01*
X174436777Y-110247267D01*
X174494172Y-110299661D01*
X174566359Y-110335421D01*
X174667584Y-110348632D01*
X174742088Y-110337079D01*
X174794957Y-110305279D01*
X174828927Y-110254762D01*
X174841119Y-110183401D01*
X174831819Y-110131754D01*
X174804727Y-110090956D01*
X174763450Y-110059585D01*
X174706785Y-110035024D01*
X174642639Y-110019255D01*
X174565491Y-110009867D01*
X174399039Y-110012554D01*
X174049480Y-110012554D01*
X174046475Y-109937205D01*
X174038048Y-109689542D01*
X174044295Y-109580724D01*
X174061862Y-109488042D01*
X174094435Y-109404037D01*
X174143073Y-109334047D01*
X174208684Y-109278226D01*
X174298289Y-109234762D01*
X174402766Y-109209265D01*
X174541677Y-109199713D01*
X174707435Y-109207320D01*
G37*
G36*
X173700016Y-109230976D02*
G01*
X173336339Y-109230976D01*
X173336339Y-110686053D01*
X173349324Y-110853053D01*
X173384250Y-110979468D01*
X173437089Y-111074277D01*
X173492295Y-111130852D01*
X173561964Y-111172302D01*
X173649298Y-111198785D01*
X173758879Y-111208367D01*
X173843910Y-111203663D01*
X173937909Y-111188827D01*
X173937909Y-110885111D01*
X173918247Y-110886454D01*
X173901517Y-110887920D01*
X173822461Y-110877463D01*
X173770548Y-110850000D01*
X173737874Y-110806831D01*
X173710689Y-110717335D01*
X173700016Y-110583349D01*
X173700016Y-109230976D01*
G37*
G36*
X173750330Y-108839089D02*
G01*
X173743636Y-108787990D01*
X173723919Y-108742735D01*
X173690247Y-108701702D01*
X173646881Y-108671053D01*
X173592404Y-108651749D01*
X173523673Y-108644794D01*
X173454931Y-108651622D01*
X173398473Y-108670840D01*
X173351726Y-108701702D01*
X173314559Y-108743149D01*
X173293119Y-108788379D01*
X173285902Y-108839089D01*
X173293178Y-108889685D01*
X173314651Y-108933940D01*
X173351726Y-108973667D01*
X173398268Y-109002910D01*
X173454730Y-109021234D01*
X173523673Y-109027766D01*
X173592624Y-109021108D01*
X173647098Y-109002697D01*
X173690247Y-108973667D01*
X173723823Y-108934359D01*
X173743577Y-108890086D01*
X173750330Y-108839089D01*
G37*
G36*
X171422574Y-110097184D02*
G01*
X171430055Y-110041714D01*
X171451738Y-109994846D01*
X171488397Y-109954424D01*
X171559914Y-109903474D01*
X171653505Y-109854162D01*
X171868928Y-109759884D01*
X171981161Y-109704997D01*
X172084350Y-109639351D01*
X172175037Y-109559398D01*
X172249458Y-109461420D01*
X172284638Y-109387633D01*
X172307101Y-109298175D01*
X172315159Y-109189577D01*
X172302628Y-109052796D01*
X172267654Y-108941671D01*
X172209705Y-108845039D01*
X172131977Y-108766549D01*
X172037096Y-108706238D01*
X171923516Y-108662868D01*
X171799043Y-108637957D01*
X171654849Y-108629162D01*
X171486983Y-108636960D01*
X171333059Y-108659570D01*
X171190346Y-108698487D01*
X171084053Y-108747620D01*
X171204343Y-109076615D01*
X171274608Y-109041803D01*
X171388990Y-109005296D01*
X171515109Y-108981348D01*
X171654849Y-108973056D01*
X171743214Y-108979783D01*
X171810201Y-108997872D01*
X171860501Y-109025202D01*
X171900420Y-109064261D01*
X171923777Y-109110091D01*
X171931820Y-109165031D01*
X171924520Y-109216797D01*
X171903040Y-109261894D01*
X171866119Y-109302173D01*
X171794594Y-109353315D01*
X171701011Y-109403656D01*
X171485588Y-109500621D01*
X171373218Y-109556561D01*
X171270166Y-109622498D01*
X171179313Y-109702229D01*
X171105058Y-109799085D01*
X171069583Y-109871856D01*
X171047191Y-109958192D01*
X171039235Y-110061036D01*
X171052947Y-110211034D01*
X171091014Y-110331413D01*
X171153599Y-110435823D01*
X171236583Y-110520579D01*
X171338159Y-110585433D01*
X171463118Y-110632564D01*
X171599958Y-110659611D01*
X171755477Y-110669078D01*
X171958678Y-110658317D01*
X172124894Y-110628656D01*
X172272950Y-110584774D01*
X172359856Y-110547690D01*
X172236757Y-110213321D01*
X172157012Y-110249713D01*
X172046492Y-110286106D01*
X171916433Y-110314071D01*
X171775138Y-110325184D01*
X171662030Y-110317811D01*
X171576833Y-110298135D01*
X171513554Y-110268886D01*
X171463159Y-110224973D01*
X171433168Y-110169063D01*
X171422574Y-110097184D01*
G37*
G36*
X169639357Y-108646259D02*
G01*
X169791886Y-108650411D01*
X169944294Y-108658838D01*
X170077162Y-108672759D01*
X170077162Y-110633297D01*
X169968108Y-110643066D01*
X169815578Y-110651371D01*
X169661705Y-110658454D01*
X169542759Y-110661263D01*
X169355640Y-110650586D01*
X169199170Y-110620811D01*
X169068561Y-110574556D01*
X168946394Y-110508893D01*
X168844073Y-110432474D01*
X168759350Y-110345212D01*
X168688745Y-110245882D01*
X168632909Y-110137228D01*
X168591555Y-110018049D01*
X168553839Y-109830767D01*
X168541127Y-109634954D01*
X168943997Y-109634954D01*
X168950339Y-109764655D01*
X168969154Y-109889822D01*
X169004349Y-110007895D01*
X169057326Y-110108541D01*
X169130684Y-110193153D01*
X169227930Y-110260338D01*
X169301891Y-110290823D01*
X169390883Y-110310364D01*
X169497940Y-110317369D01*
X169539950Y-110316025D01*
X169598690Y-110313217D01*
X169656087Y-110310408D01*
X169693823Y-110306256D01*
X169693823Y-108999801D01*
X169600156Y-108991496D01*
X169475592Y-108988688D01*
X169370528Y-108995895D01*
X169283966Y-109015946D01*
X169212665Y-109047184D01*
X169119175Y-109114782D01*
X169049022Y-109197637D01*
X168998634Y-109294540D01*
X168966468Y-109405122D01*
X168949573Y-109520835D01*
X168943997Y-109634954D01*
X168541127Y-109634954D01*
X168541119Y-109634832D01*
X168554905Y-109422291D01*
X168594364Y-109235006D01*
X168637366Y-109117713D01*
X168693291Y-109013806D01*
X168762159Y-108921765D01*
X168844629Y-108842058D01*
X168943690Y-108774006D01*
X169061600Y-108717578D01*
X169186789Y-108678619D01*
X169333846Y-108653675D01*
X169506367Y-108644794D01*
X169639357Y-108646259D01*
G37*
D13*
G36*
X239337900Y-107623367D02*
G01*
X239485119Y-107703907D01*
X239679901Y-107761669D01*
X239889523Y-107793055D01*
X240105983Y-107803618D01*
X240365112Y-107782889D01*
X240607535Y-107721735D01*
X240758992Y-107655989D01*
X240897736Y-107568115D01*
X241025191Y-107456854D01*
X241134162Y-107327261D01*
X241230154Y-107170318D01*
X241312603Y-106982046D01*
X241369667Y-106784393D01*
X241406434Y-106550253D01*
X241419582Y-106273681D01*
X241404751Y-105986290D01*
X241363548Y-105747061D01*
X241299964Y-105548646D01*
X241209103Y-105360838D01*
X241105471Y-105205259D01*
X240989470Y-105077868D01*
X240855753Y-104968987D01*
X240714117Y-104884051D01*
X240563389Y-104821596D01*
X240326887Y-104762962D01*
X240093343Y-104743743D01*
X239851132Y-104753017D01*
X239667445Y-104777632D01*
X239501485Y-104816502D01*
X239379849Y-104857866D01*
X239493239Y-105347695D01*
X239595401Y-105308829D01*
X239722033Y-105280650D01*
X239861119Y-105265335D01*
X240042968Y-105259584D01*
X240212531Y-105275851D01*
X240359695Y-105322627D01*
X240488956Y-105399098D01*
X240603322Y-105507430D01*
X240689229Y-105635081D01*
X240755463Y-105799634D01*
X240799197Y-106009704D01*
X240815264Y-106275696D01*
X240802163Y-106496660D01*
X240764889Y-106689504D01*
X240700039Y-106865560D01*
X240611749Y-107008607D01*
X240496460Y-107125997D01*
X240355660Y-107214321D01*
X240194215Y-107268619D01*
X240001019Y-107287777D01*
X239819873Y-107277495D01*
X239682099Y-107250041D01*
X239557803Y-107205780D01*
X239455503Y-107153321D01*
X239337900Y-107623367D01*
G37*
G36*
X238979596Y-104802362D02*
G01*
X237237900Y-104802362D01*
X237237900Y-105318203D01*
X238404587Y-105318203D01*
X238404587Y-105998175D01*
X237342863Y-105998175D01*
X237342863Y-106514016D01*
X238404587Y-106514016D01*
X238404587Y-107229159D01*
X237216834Y-107229159D01*
X237216834Y-107745000D01*
X238979596Y-107745000D01*
X238979596Y-104802362D01*
G37*
G36*
X234927973Y-107745000D02*
G01*
X236787272Y-107745000D01*
X236787272Y-104802362D01*
X236212263Y-104802362D01*
X236212263Y-107229159D01*
X234927973Y-107229159D01*
X234927973Y-107745000D01*
G37*
G36*
X232770821Y-107745000D02*
G01*
X234630119Y-107745000D01*
X234630119Y-104802362D01*
X234055110Y-104802362D01*
X234055110Y-107229159D01*
X232770821Y-107229159D01*
X232770821Y-107745000D01*
G37*
G36*
X230480128Y-104755467D02*
G01*
X230068884Y-104940115D01*
X231567314Y-108331182D01*
X231978558Y-108138108D01*
X230480128Y-104755467D01*
G37*
G36*
X228465124Y-104786058D02*
G01*
X228853287Y-104838449D01*
X228853287Y-107745000D01*
X228278279Y-107745000D01*
X228278279Y-106731636D01*
X228209036Y-106740062D01*
X228110484Y-106746474D01*
X228013947Y-106748489D01*
X227946719Y-106748489D01*
X227731326Y-106734773D01*
X227525034Y-106694084D01*
X227331290Y-106622232D01*
X227161967Y-106518046D01*
X227019158Y-106380534D01*
X226905878Y-106206086D01*
X226854052Y-106075505D01*
X226821076Y-105921298D01*
X226809341Y-105738972D01*
X226809832Y-105731828D01*
X227413659Y-105731828D01*
X227428116Y-105890888D01*
X227466232Y-106004220D01*
X227528373Y-106097533D01*
X227606733Y-106166336D01*
X227699791Y-106215080D01*
X227806218Y-106246203D01*
X228030616Y-106267819D01*
X228083190Y-106267819D01*
X228156646Y-106265621D01*
X228227904Y-106259209D01*
X228278279Y-106250600D01*
X228278279Y-105269476D01*
X228156646Y-105254455D01*
X227997094Y-105247861D01*
X227782954Y-105269476D01*
X227682925Y-105300116D01*
X227596292Y-105347329D01*
X227522808Y-105412046D01*
X227464034Y-105496439D01*
X227427244Y-105597197D01*
X227413659Y-105731828D01*
X226809832Y-105731828D01*
X226823199Y-105537464D01*
X226861444Y-105374397D01*
X226920533Y-105242732D01*
X227003096Y-105123471D01*
X227098691Y-105024962D01*
X227208129Y-104945244D01*
X227393451Y-104856960D01*
X227604718Y-104802911D01*
X227825139Y-104776072D01*
X228043256Y-104767191D01*
X228465124Y-104786058D01*
G37*
G36*
X227027145Y-107745000D02*
G01*
X226452136Y-107745000D01*
X226229753Y-107088475D01*
X225327398Y-107088475D01*
X225092375Y-107745000D01*
X224487874Y-107745000D01*
X224886608Y-106631252D01*
X225453244Y-106631252D01*
X226082841Y-106631252D01*
X225868701Y-105984253D01*
X225780590Y-105520985D01*
X225759524Y-105520985D01*
X225671414Y-105980040D01*
X225453244Y-106631252D01*
X224886608Y-106631252D01*
X225545568Y-104790638D01*
X225969451Y-104790638D01*
X227027145Y-107745000D01*
G37*
G36*
X222376700Y-107623367D02*
G01*
X222523919Y-107703907D01*
X222718701Y-107761669D01*
X222928323Y-107793055D01*
X223144782Y-107803618D01*
X223403912Y-107782889D01*
X223646335Y-107721735D01*
X223797792Y-107655989D01*
X223936536Y-107568115D01*
X224063990Y-107456854D01*
X224172962Y-107327261D01*
X224268953Y-107170318D01*
X224351403Y-106982046D01*
X224408467Y-106784393D01*
X224445233Y-106550253D01*
X224458382Y-106273681D01*
X224443551Y-105986290D01*
X224402348Y-105747061D01*
X224338764Y-105548646D01*
X224247903Y-105360838D01*
X224144270Y-105205259D01*
X224028270Y-105077868D01*
X223894553Y-104968987D01*
X223752917Y-104884051D01*
X223602188Y-104821596D01*
X223365686Y-104762962D01*
X223132143Y-104743743D01*
X222889932Y-104753017D01*
X222706244Y-104777632D01*
X222540285Y-104816502D01*
X222418649Y-104857866D01*
X222532038Y-105347695D01*
X222634201Y-105308829D01*
X222760833Y-105280650D01*
X222899919Y-105265335D01*
X223081768Y-105259584D01*
X223251331Y-105275851D01*
X223398495Y-105322627D01*
X223527755Y-105399098D01*
X223642122Y-105507430D01*
X223728029Y-105635081D01*
X223794263Y-105799634D01*
X223837996Y-106009704D01*
X223854064Y-106275696D01*
X223840963Y-106496660D01*
X223803689Y-106689504D01*
X223738839Y-106865560D01*
X223650548Y-107008607D01*
X223535260Y-107125997D01*
X223394460Y-107214321D01*
X223233015Y-107268619D01*
X223039819Y-107287777D01*
X222858673Y-107277495D01*
X222720899Y-107250041D01*
X222596603Y-107205780D01*
X222494303Y-107153321D01*
X222376700Y-107623367D01*
G37*
G36*
X221292262Y-106490568D02*
G01*
X221443387Y-106490568D01*
X221443387Y-107745000D01*
X222018396Y-107745000D01*
X222018396Y-104802362D01*
X221443387Y-104802362D01*
X221443387Y-106108633D01*
X221309114Y-106049649D01*
X220499083Y-104802362D01*
X219844390Y-104802362D01*
X220700583Y-106040856D01*
X220927180Y-106200957D01*
X220692157Y-106364539D01*
X219714331Y-107745000D01*
X220423612Y-107745000D01*
X221292262Y-106490568D01*
G37*
G36*
X218899720Y-107745000D02*
G01*
X218324711Y-107745000D01*
X218102328Y-107088475D01*
X217199973Y-107088475D01*
X216964950Y-107745000D01*
X216360449Y-107745000D01*
X216759183Y-106631252D01*
X217325819Y-106631252D01*
X217955416Y-106631252D01*
X217741276Y-105984253D01*
X217653165Y-105520985D01*
X217632099Y-105520985D01*
X217543989Y-105980040D01*
X217325819Y-106631252D01*
X216759183Y-106631252D01*
X217418143Y-104790638D01*
X217842026Y-104790638D01*
X218899720Y-107745000D01*
G37*
G36*
X214249275Y-107623367D02*
G01*
X214396494Y-107703907D01*
X214591276Y-107761669D01*
X214800898Y-107793055D01*
X215017358Y-107803618D01*
X215276487Y-107782889D01*
X215518910Y-107721735D01*
X215670367Y-107655989D01*
X215809111Y-107568115D01*
X215936565Y-107456854D01*
X216045537Y-107327261D01*
X216141528Y-107170318D01*
X216223978Y-106982046D01*
X216281042Y-106784393D01*
X216317808Y-106550253D01*
X216330957Y-106273681D01*
X216316126Y-105986290D01*
X216274923Y-105747061D01*
X216211339Y-105548646D01*
X216120478Y-105360838D01*
X216016845Y-105205259D01*
X215900845Y-105077868D01*
X215767128Y-104968987D01*
X215625492Y-104884051D01*
X215474763Y-104821596D01*
X215238261Y-104762962D01*
X215004718Y-104743743D01*
X214762507Y-104753017D01*
X214578819Y-104777632D01*
X214412860Y-104816502D01*
X214291224Y-104857866D01*
X214404613Y-105347695D01*
X214506776Y-105308829D01*
X214633408Y-105280650D01*
X214772494Y-105265335D01*
X214954343Y-105259584D01*
X215123906Y-105275851D01*
X215271070Y-105322627D01*
X215400331Y-105399098D01*
X215514697Y-105507430D01*
X215600604Y-105635081D01*
X215666838Y-105799634D01*
X215710571Y-106009704D01*
X215726639Y-106275696D01*
X215713538Y-106496660D01*
X215676264Y-106689504D01*
X215611414Y-106865560D01*
X215523123Y-107008607D01*
X215407835Y-107125997D01*
X215267035Y-107214321D01*
X215105590Y-107268619D01*
X214912394Y-107287777D01*
X214731248Y-107277495D01*
X214593474Y-107250041D01*
X214469178Y-107205780D01*
X214366878Y-107153321D01*
X214249275Y-107623367D01*
G37*
G36*
X213832352Y-104802362D02*
G01*
X213257344Y-104802362D01*
X213257344Y-107745000D01*
X213832352Y-107745000D01*
X213832352Y-104802362D01*
G37*
G36*
X212048891Y-104771404D02*
G01*
X212265046Y-104784043D01*
X212487429Y-104807124D01*
X212695158Y-104838449D01*
X212695158Y-107745000D01*
X212120149Y-107745000D01*
X212120149Y-106537463D01*
X211818082Y-106592234D01*
X211150749Y-107745000D01*
X210487630Y-107745000D01*
X211158992Y-106621727D01*
X211364706Y-106491301D01*
X211188020Y-106416348D01*
X211039633Y-106312273D01*
X210915726Y-106177510D01*
X210825272Y-106018777D01*
X210768162Y-105826201D01*
X210755747Y-105683468D01*
X211352066Y-105683468D01*
X211370158Y-105843686D01*
X211418807Y-105959409D01*
X211494765Y-106042138D01*
X211595322Y-106100159D01*
X211720540Y-106137202D01*
X211876700Y-106150582D01*
X212120149Y-106150582D01*
X212120149Y-105303914D01*
X211988075Y-105287245D01*
X211813685Y-105283032D01*
X211666192Y-105296519D01*
X211554235Y-105333087D01*
X211469669Y-105389460D01*
X211405540Y-105467313D01*
X211366096Y-105563488D01*
X211352066Y-105683468D01*
X210755747Y-105683468D01*
X210747748Y-105591510D01*
X210759270Y-105431985D01*
X210791540Y-105298947D01*
X210842270Y-105187777D01*
X210952742Y-105043506D01*
X211093963Y-104934619D01*
X211259501Y-104856982D01*
X211450801Y-104804926D01*
X211651367Y-104776656D01*
X211855817Y-104767191D01*
X212048891Y-104771404D01*
G37*
G36*
X207171300Y-105318203D02*
G01*
X208027494Y-105318203D01*
X208027494Y-107745000D01*
X208602502Y-107745000D01*
X208602502Y-105318203D01*
X209462909Y-105318203D01*
X209462909Y-104802362D01*
X207171300Y-104802362D01*
X207171300Y-105318203D01*
G37*
G36*
X206874362Y-104802362D02*
G01*
X205132666Y-104802362D01*
X205132666Y-105318203D01*
X206299353Y-105318203D01*
X206299353Y-105998175D01*
X205237630Y-105998175D01*
X205237630Y-106514016D01*
X206299353Y-106514016D01*
X206299353Y-107229159D01*
X205111600Y-107229159D01*
X205111600Y-107745000D01*
X206874362Y-107745000D01*
X206874362Y-104802362D01*
G37*
G36*
X203414601Y-106945776D02*
G01*
X203425823Y-106862572D01*
X203458348Y-106792269D01*
X203513336Y-106731636D01*
X203620611Y-106655212D01*
X203760998Y-106581243D01*
X204084132Y-106439827D01*
X204252481Y-106357496D01*
X204407265Y-106259026D01*
X204543295Y-106139097D01*
X204654927Y-105992130D01*
X204707698Y-105881449D01*
X204741392Y-105747263D01*
X204753479Y-105584366D01*
X204734683Y-105379194D01*
X204682221Y-105212506D01*
X204595298Y-105067558D01*
X204478706Y-104949823D01*
X204336384Y-104859358D01*
X204166014Y-104794302D01*
X203979306Y-104756935D01*
X203763013Y-104743743D01*
X203511215Y-104755440D01*
X203280329Y-104789356D01*
X203066259Y-104847731D01*
X202906820Y-104921430D01*
X203087255Y-105414923D01*
X203192652Y-105362705D01*
X203364226Y-105307944D01*
X203553404Y-105272022D01*
X203763013Y-105259584D01*
X203895561Y-105269674D01*
X203996042Y-105296808D01*
X204071492Y-105337803D01*
X204131371Y-105396392D01*
X204166405Y-105465136D01*
X204178471Y-105547547D01*
X204167520Y-105625195D01*
X204135300Y-105692841D01*
X204079919Y-105753260D01*
X203972631Y-105829973D01*
X203832256Y-105905484D01*
X203509123Y-106050931D01*
X203340567Y-106134841D01*
X203185990Y-106233747D01*
X203049710Y-106353344D01*
X202938327Y-106498628D01*
X202885115Y-106607785D01*
X202851527Y-106737289D01*
X202839592Y-106891554D01*
X202860161Y-107116551D01*
X202917262Y-107297119D01*
X203011139Y-107453734D01*
X203135615Y-107580868D01*
X203287979Y-107678149D01*
X203475418Y-107748846D01*
X203680678Y-107789417D01*
X203913956Y-107803618D01*
X204218757Y-107787476D01*
X204468082Y-107742984D01*
X204690166Y-107677161D01*
X204820524Y-107621535D01*
X204635876Y-107119982D01*
X204516258Y-107174570D01*
X204350479Y-107229159D01*
X204155390Y-107271107D01*
X203943448Y-107287777D01*
X203773785Y-107276717D01*
X203645989Y-107247203D01*
X203551072Y-107203330D01*
X203475478Y-107137460D01*
X203430493Y-107053595D01*
X203414601Y-106945776D01*
G37*
G36*
X200371579Y-105318203D02*
G01*
X201227773Y-105318203D01*
X201227773Y-107745000D01*
X201802781Y-107745000D01*
X201802781Y-105318203D01*
X202663188Y-105318203D01*
X202663188Y-104802362D01*
X200371579Y-104802362D01*
X200371579Y-105318203D01*
G37*
G36*
X200016023Y-104802362D02*
G01*
X199441014Y-104802362D01*
X199441014Y-107745000D01*
X200016023Y-107745000D01*
X200016023Y-104802362D01*
G37*
G36*
X198148481Y-106217260D02*
G01*
X198379291Y-105756008D01*
X198400356Y-105756008D01*
X198333312Y-106216528D01*
X198333312Y-107745000D01*
X198878828Y-107745000D01*
X198878828Y-104790638D01*
X198459158Y-104790638D01*
X197347059Y-106354464D01*
X197124676Y-106803077D01*
X197103610Y-106803077D01*
X197170655Y-106352449D01*
X197170655Y-104802362D01*
X196625138Y-104802362D01*
X196625138Y-107768447D01*
X197044809Y-107768447D01*
X198148481Y-106217260D01*
G37*
G36*
X195084210Y-106209200D02*
G01*
X193988781Y-106209200D01*
X193988781Y-107521700D01*
X194111944Y-107609779D01*
X194251835Y-107681403D01*
X194410650Y-107736390D01*
X194656372Y-107787062D01*
X194895349Y-107803618D01*
X195081195Y-107793497D01*
X195254883Y-107763846D01*
X195417968Y-107715324D01*
X195571853Y-107645338D01*
X195710473Y-107553920D01*
X195835440Y-107440001D01*
X195941708Y-107308000D01*
X196034218Y-107150210D01*
X196112412Y-106962995D01*
X196166378Y-106767141D01*
X196200900Y-106538993D01*
X196213162Y-106273681D01*
X196198532Y-105997769D01*
X196157517Y-105763735D01*
X196093544Y-105565498D01*
X196002568Y-105377865D01*
X195897567Y-105220753D01*
X195778837Y-105090507D01*
X195642148Y-104979016D01*
X195496377Y-104891223D01*
X195340299Y-104825809D01*
X195094153Y-104764162D01*
X194844974Y-104743743D01*
X194600815Y-104753930D01*
X194402223Y-104781845D01*
X194221600Y-104823290D01*
X194097958Y-104862079D01*
X194215561Y-105347695D01*
X194324311Y-105311129D01*
X194450583Y-105282665D01*
X194589505Y-105266002D01*
X194782143Y-105259584D01*
X194957616Y-105273624D01*
X195113703Y-105314173D01*
X195254165Y-105385490D01*
X195376019Y-105492226D01*
X195472479Y-105629140D01*
X195548027Y-105808581D01*
X195592357Y-106012602D01*
X195608844Y-106277894D01*
X195593047Y-106531841D01*
X195550042Y-106732552D01*
X195477585Y-106910609D01*
X195386461Y-107046892D01*
X195271679Y-107154883D01*
X195140997Y-107229159D01*
X194996431Y-107272959D01*
X194840761Y-107287777D01*
X194732572Y-107280985D01*
X194626804Y-107260666D01*
X194528136Y-107225762D01*
X194450400Y-107179150D01*
X194450400Y-106627772D01*
X195084210Y-106560910D01*
X195084210Y-106209200D01*
G37*
G36*
X190644791Y-107745000D02*
G01*
X192504090Y-107745000D01*
X192504090Y-104802362D01*
X191929081Y-104802362D01*
X191929081Y-107229159D01*
X190644791Y-107229159D01*
X190644791Y-107745000D01*
G37*
G36*
X190548987Y-107745000D02*
G01*
X189973978Y-107745000D01*
X189751595Y-107088475D01*
X188849240Y-107088475D01*
X188614217Y-107745000D01*
X188009716Y-107745000D01*
X188408450Y-106631252D01*
X188975086Y-106631252D01*
X189604683Y-106631252D01*
X189390543Y-105984253D01*
X189302433Y-105520985D01*
X189281367Y-105520985D01*
X189193256Y-105980040D01*
X188975086Y-106631252D01*
X188408450Y-106631252D01*
X189067410Y-104790638D01*
X189491293Y-104790638D01*
X190548987Y-107745000D01*
G37*
G36*
X187114688Y-104771404D02*
G01*
X187356122Y-104784043D01*
X187576490Y-104805109D01*
X187758940Y-104830205D01*
X187758940Y-107728879D01*
X187517689Y-107766615D01*
X187257387Y-107785483D01*
X187018151Y-107791894D01*
X186835702Y-107791894D01*
X186619752Y-107779251D01*
X186411818Y-107741702D01*
X186214998Y-107677003D01*
X186044538Y-107586913D01*
X185899138Y-107467063D01*
X185786435Y-107317086D01*
X185733886Y-107203291D01*
X185701284Y-107073977D01*
X185689898Y-106925992D01*
X185691872Y-106900713D01*
X186285789Y-106900713D01*
X186297798Y-107001148D01*
X186331951Y-107083712D01*
X186385378Y-107154169D01*
X186453767Y-107211756D01*
X186533858Y-107255386D01*
X186627973Y-107286861D01*
X186727721Y-107305085D01*
X186831489Y-107311224D01*
X186930224Y-107309209D01*
X187039217Y-107305179D01*
X187137769Y-107299134D01*
X187204997Y-107286861D01*
X187204997Y-106502292D01*
X186898533Y-106502292D01*
X186680363Y-106514565D01*
X186575057Y-106534693D01*
X186483076Y-106569337D01*
X186403049Y-106620924D01*
X186340377Y-106689321D01*
X186300717Y-106775912D01*
X186285789Y-106900713D01*
X185691872Y-106900713D01*
X185702753Y-106761412D01*
X185738258Y-106629054D01*
X185796202Y-106511522D01*
X185870332Y-106415647D01*
X185961362Y-106337322D01*
X186067619Y-106277527D01*
X186183716Y-106234784D01*
X186306855Y-106206453D01*
X186306855Y-106181357D01*
X186171894Y-106137501D01*
X186063406Y-106078042D01*
X185971080Y-106001991D01*
X185899824Y-105917575D01*
X185845862Y-105822270D01*
X185809516Y-105716990D01*
X185790537Y-105615141D01*
X186365473Y-105615141D01*
X186378761Y-105718443D01*
X186416977Y-105804764D01*
X186480878Y-105878190D01*
X186605788Y-105964913D01*
X186755834Y-106028400D01*
X186883879Y-106040856D01*
X187020349Y-106045069D01*
X187204997Y-106045069D01*
X187204997Y-105264530D01*
X187062298Y-105252074D01*
X186860798Y-105247861D01*
X186676150Y-105264530D01*
X186591601Y-105287853D01*
X186518614Y-105322965D01*
X186456333Y-105371917D01*
X186407422Y-105435806D01*
X186376714Y-105512932D01*
X186365473Y-105615141D01*
X185790537Y-105615141D01*
X185788996Y-105606869D01*
X185782221Y-105497538D01*
X185793449Y-105353619D01*
X185824908Y-105234080D01*
X185874545Y-105134471D01*
X185981923Y-105006926D01*
X186120192Y-104910806D01*
X186280931Y-104843640D01*
X186468422Y-104798881D01*
X186665201Y-104775190D01*
X186869224Y-104767191D01*
X187114688Y-104771404D01*
G37*
G36*
X184428322Y-106302990D02*
G01*
X183374842Y-106302990D01*
X183374842Y-106783660D01*
X184428322Y-106783660D01*
X184428322Y-106302990D01*
G37*
G36*
X180307457Y-107745000D02*
G01*
X182166756Y-107745000D01*
X182166756Y-104802362D01*
X181591747Y-104802362D01*
X181591747Y-107229159D01*
X180307457Y-107229159D01*
X180307457Y-107745000D01*
G37*
G36*
X180009603Y-104802362D02*
G01*
X178267907Y-104802362D01*
X178267907Y-105318203D01*
X179434594Y-105318203D01*
X179434594Y-105998175D01*
X178372870Y-105998175D01*
X178372870Y-106514016D01*
X179434594Y-106514016D01*
X179434594Y-107229159D01*
X178246841Y-107229159D01*
X178246841Y-107745000D01*
X180009603Y-107745000D01*
X180009603Y-104802362D01*
G37*
G36*
X178069154Y-107745000D02*
G01*
X177494146Y-107745000D01*
X177271763Y-107088475D01*
X176369407Y-107088475D01*
X176134385Y-107745000D01*
X175529884Y-107745000D01*
X175928618Y-106631252D01*
X176495254Y-106631252D01*
X177124851Y-106631252D01*
X176910711Y-105984253D01*
X176822600Y-105520985D01*
X176801534Y-105520985D01*
X176713423Y-105980040D01*
X176495254Y-106631252D01*
X175928618Y-106631252D01*
X176587577Y-104790638D01*
X177011461Y-104790638D01*
X178069154Y-107745000D01*
G37*
G36*
X174632841Y-104771404D02*
G01*
X174848996Y-104784043D01*
X175071379Y-104807124D01*
X175279107Y-104838449D01*
X175279107Y-107745000D01*
X174704099Y-107745000D01*
X174704099Y-106537463D01*
X174402031Y-106592234D01*
X173734699Y-107745000D01*
X173071579Y-107745000D01*
X173742942Y-106621727D01*
X173948655Y-106491301D01*
X173771970Y-106416348D01*
X173623582Y-106312273D01*
X173499676Y-106177510D01*
X173409222Y-106018777D01*
X173352112Y-105826201D01*
X173339697Y-105683468D01*
X173936016Y-105683468D01*
X173954108Y-105843686D01*
X174002756Y-105959409D01*
X174078715Y-106042138D01*
X174179272Y-106100159D01*
X174304490Y-106137202D01*
X174460650Y-106150582D01*
X174704099Y-106150582D01*
X174704099Y-105303914D01*
X174572024Y-105287245D01*
X174397635Y-105283032D01*
X174250142Y-105296519D01*
X174138185Y-105333087D01*
X174053619Y-105389460D01*
X173989489Y-105467313D01*
X173950046Y-105563488D01*
X173936016Y-105683468D01*
X173339697Y-105683468D01*
X173331698Y-105591510D01*
X173343220Y-105431985D01*
X173375490Y-105298947D01*
X173426220Y-105187777D01*
X173536692Y-105043506D01*
X173677912Y-104934619D01*
X173843451Y-104856982D01*
X174034751Y-104804926D01*
X174235317Y-104776656D01*
X174439767Y-104767191D01*
X174632841Y-104771404D01*
G37*
G36*
X172022312Y-106217260D02*
G01*
X172253122Y-105756008D01*
X172274188Y-105756008D01*
X172207143Y-106216528D01*
X172207143Y-107745000D01*
X172752659Y-107745000D01*
X172752659Y-104790638D01*
X172332989Y-104790638D01*
X171220890Y-106354464D01*
X170998507Y-106803077D01*
X170977441Y-106803077D01*
X171044486Y-106352449D01*
X171044486Y-104802362D01*
X170498970Y-104802362D01*
X170498970Y-107768447D01*
X170918640Y-107768447D01*
X172022312Y-106217260D01*
G37*
G36*
X169936051Y-104802362D02*
G01*
X169361042Y-104802362D01*
X169361042Y-107745000D01*
X169936051Y-107745000D01*
X169936051Y-104802362D01*
G37*
G36*
X168068509Y-106217260D02*
G01*
X168299318Y-105756008D01*
X168320384Y-105756008D01*
X168253340Y-106216528D01*
X168253340Y-107745000D01*
X168798856Y-107745000D01*
X168798856Y-104790638D01*
X168379186Y-104790638D01*
X167267087Y-106354464D01*
X167044704Y-106803077D01*
X167023638Y-106803077D01*
X167090683Y-106352449D01*
X167090683Y-104802362D01*
X166545166Y-104802362D01*
X166545166Y-107768447D01*
X166964837Y-107768447D01*
X168068509Y-106217260D01*
G37*
G36*
X165004238Y-106209200D02*
G01*
X163908809Y-106209200D01*
X163908809Y-107521700D01*
X164031972Y-107609779D01*
X164171863Y-107681403D01*
X164330677Y-107736390D01*
X164576400Y-107787062D01*
X164815377Y-107803618D01*
X165001223Y-107793497D01*
X165174911Y-107763846D01*
X165337996Y-107715324D01*
X165491881Y-107645338D01*
X165630501Y-107553920D01*
X165755468Y-107440001D01*
X165861736Y-107308000D01*
X165954246Y-107150210D01*
X166032440Y-106962995D01*
X166086406Y-106767141D01*
X166120928Y-106538993D01*
X166133190Y-106273681D01*
X166118560Y-105997769D01*
X166077545Y-105763735D01*
X166013572Y-105565498D01*
X165922596Y-105377865D01*
X165817595Y-105220753D01*
X165698865Y-105090507D01*
X165562176Y-104979016D01*
X165416405Y-104891223D01*
X165260327Y-104825809D01*
X165014181Y-104764162D01*
X164765002Y-104743743D01*
X164520842Y-104753930D01*
X164322251Y-104781845D01*
X164141627Y-104823290D01*
X164017986Y-104862079D01*
X164135588Y-105347695D01*
X164244339Y-105311129D01*
X164370611Y-105282665D01*
X164509533Y-105266002D01*
X164702171Y-105259584D01*
X164877643Y-105273624D01*
X165033730Y-105314173D01*
X165174193Y-105385490D01*
X165296047Y-105492226D01*
X165392507Y-105629140D01*
X165468055Y-105808581D01*
X165512385Y-106012602D01*
X165528872Y-106277894D01*
X165513075Y-106531841D01*
X165470070Y-106732552D01*
X165397613Y-106910609D01*
X165306489Y-107046892D01*
X165191707Y-107154883D01*
X165061025Y-107229159D01*
X164916459Y-107272959D01*
X164760789Y-107287777D01*
X164652600Y-107280985D01*
X164546832Y-107260666D01*
X164448164Y-107225762D01*
X164370428Y-107179150D01*
X164370428Y-106627772D01*
X165004238Y-106560910D01*
X165004238Y-106209200D01*
G37*
G36*
X161697984Y-106490568D02*
G01*
X161849109Y-106490568D01*
X161849109Y-107745000D01*
X162424118Y-107745000D01*
X162424118Y-104802362D01*
X161849109Y-104802362D01*
X161849109Y-106108633D01*
X161714837Y-106049649D01*
X160904805Y-104802362D01*
X160250112Y-104802362D01*
X161106306Y-106040856D01*
X161332902Y-106200957D01*
X161097879Y-106364539D01*
X160120053Y-107745000D01*
X160829334Y-107745000D01*
X161697984Y-106490568D01*
G37*
G36*
X159762848Y-104802362D02*
G01*
X159187839Y-104802362D01*
X159187839Y-107745000D01*
X159762848Y-107745000D01*
X159762848Y-104802362D01*
G37*
G36*
X156539758Y-105318203D02*
G01*
X157395951Y-105318203D01*
X157395951Y-107745000D01*
X157970960Y-107745000D01*
X157970960Y-105318203D01*
X158831367Y-105318203D01*
X158831367Y-104802362D01*
X156539758Y-104802362D01*
X156539758Y-105318203D01*
G37*
G36*
X155176883Y-107287777D02*
G01*
X154593448Y-107287777D01*
X154593448Y-105626498D01*
X154530433Y-105340551D01*
X154731934Y-105588946D01*
X155105625Y-105845767D01*
X155336435Y-105529961D01*
X154379491Y-104755467D01*
X154073027Y-104755467D01*
X154073027Y-107287777D01*
X153502232Y-107287777D01*
X153502232Y-107745000D01*
X155176883Y-107745000D01*
X155176883Y-107287777D01*
G37*
M02*
