%TF.GenerationSoftware,KiCad,Pcbnew,10.0.5*%
%TF.CreationDate,2026-09-18T09:54:13+05:30*%
%TF.ProjectId,ACIR-Learning-Kit-1-PCB,41434952-2d4c-4656-9172-6e696e672d4b,v2.0*%
%TF.SameCoordinates,Original*%
%TF.FileFunction,Copper,L1,Top*%
%TF.FilePolarity,Positive*%
%FSLAX46Y46*%
G04 Gerber Fmt 4.6, Leading zero omitted, Abs format (unit mm)*
G04 Created by KiCad (PCBNEW 10.0.5) date 2026-09-18 09:54:13*
%MOMM*%
%LPD*%
G01*
G04 APERTURE LIST*
G04 Aperture macros list*
%AMFreePoly0*
4,1,27,7.405000,-3.675000,-0.365000,-3.675000,-0.365000,-1.710052,-0.562519,-1.657128,-0.774005,-1.569527,-0.972248,-1.455072,-1.153855,-1.315720,-1.315720,-1.153855,-1.455072,-0.972248,-1.569527,-0.774005,-1.657128,-0.562519,-1.716374,-0.341408,-1.746253,-0.114455,-1.746253,0.114455,-1.716374,0.341408,-1.657128,0.562519,-1.569527,0.774005,-1.455072,0.972248,-1.315720,1.153855,-1.153855,1.315720,
-0.972248,1.455072,-0.774005,1.569527,-0.562519,1.657128,-0.365000,1.710052,-0.365000,3.675000,7.405000,3.675000,7.405000,-3.675000,7.405000,-3.675000,$1*%
%AMFreePoly1*
4,1,27,0.365000,1.710052,0.562519,1.657128,0.774005,1.569527,0.972248,1.455072,1.153855,1.315720,1.315720,1.153855,1.455072,0.972248,1.569527,0.774005,1.657128,0.562519,1.716374,0.341408,1.746253,0.114455,1.746253,-0.114455,1.716374,-0.341408,1.657128,-0.562519,1.569527,-0.774005,1.455072,-0.972248,1.315720,-1.153855,1.153855,-1.315720,0.972248,-1.455072,0.774005,-1.569527,
0.562519,-1.657128,0.365000,-1.710052,0.365000,-3.675000,-7.405000,-3.675000,-7.405000,3.675000,0.365000,3.675000,0.365000,1.710052,0.365000,1.710052,$1*%
G04 Aperture macros list end*
%TA.AperFunction,SMDPad,CuDef*%
%ADD10C,6.000000*%
%TD*%
%TA.AperFunction,ComponentPad*%
%ADD11C,2.800000*%
%TD*%
%TA.AperFunction,ComponentPad*%
%ADD12O,4.500000X3.200000*%
%TD*%
%TA.AperFunction,ComponentPad*%
%ADD13FreePoly0,0.000000*%
%TD*%
%TA.AperFunction,ComponentPad*%
%ADD14FreePoly1,0.000000*%
%TD*%
%TA.AperFunction,ComponentPad*%
%ADD15FreePoly0,180.000000*%
%TD*%
%TA.AperFunction,ComponentPad*%
%ADD16FreePoly1,180.000000*%
%TD*%
%TA.AperFunction,ViaPad*%
%ADD17C,0.800000*%
%TD*%
%TA.AperFunction,Conductor*%
%ADD18C,8.000000*%
%TD*%
G04 APERTURE END LIST*
D10*
%TO.P,J7,1,Pin_1_1*%
%TO.N,Net-(BT2--)*%
X216000000Y-139280000D03*
%TD*%
D11*
%TO.P,BT1,1,+_1*%
%TO.N,/1S_B+*%
X218680000Y-84710000D03*
X218680000Y-89790000D03*
D12*
X225750000Y-87250000D03*
D13*
X233510000Y-87250000D03*
D14*
%TO.P,BT1,2,-_2*%
%TO.N,/1S_B-*%
X161290000Y-87250000D03*
D12*
X169050000Y-87250000D03*
D11*
X176120000Y-84710000D03*
X176120000Y-89790000D03*
%TD*%
D10*
%TO.P,J17,1,Pin_1_1*%
%TO.N,/4P_B-*%
X74380000Y-210530000D03*
%TD*%
D11*
%TO.P,BT8,1,+_1*%
%TO.N,/4P_B+*%
X147840000Y-184240000D03*
X147840000Y-189320000D03*
D12*
X154910000Y-186780000D03*
D13*
X162670000Y-186780000D03*
D14*
%TO.P,BT8,2,-_2*%
%TO.N,/4P_B-*%
X90450000Y-186780000D03*
D12*
X98210000Y-186780000D03*
D11*
X105280000Y-184240000D03*
X105280000Y-189320000D03*
%TD*%
D10*
%TO.P,J14,1,Pin_1_1*%
%TO.N,/4P_B+*%
X178740000Y-186780000D03*
%TD*%
%TO.P,J9,1,Pin_1_1*%
%TO.N,Net-(BT4--)*%
X216000000Y-186780000D03*
%TD*%
%TO.P,J19,1,Pin_1_1*%
%TO.N,Net-(BT3--)*%
X320360000Y-186780000D03*
%TD*%
%TO.P,J13,1,Pin_1_1*%
%TO.N,/4P_B-*%
X74380000Y-163030000D03*
%TD*%
D11*
%TO.P,BT4,1,+_1*%
%TO.N,Net-(BT3--)*%
X289460000Y-184240000D03*
X289460000Y-189320000D03*
D12*
X296530000Y-186780000D03*
D13*
X304290000Y-186780000D03*
D14*
%TO.P,BT4,2,-_2*%
%TO.N,Net-(BT4--)*%
X232070000Y-186780000D03*
D12*
X239830000Y-186780000D03*
D11*
X246900000Y-184240000D03*
X246900000Y-189320000D03*
%TD*%
%TO.P,BT7,1,+_1*%
%TO.N,/4P_B+*%
X147840000Y-160490000D03*
X147840000Y-165570000D03*
D12*
X154910000Y-163030000D03*
D13*
X162670000Y-163030000D03*
D14*
%TO.P,BT7,2,-_2*%
%TO.N,/4P_B-*%
X90450000Y-163030000D03*
D12*
X98210000Y-163030000D03*
D11*
X105280000Y-160490000D03*
X105280000Y-165570000D03*
%TD*%
D10*
%TO.P,J5,1,Pin_1_1*%
%TO.N,/4P_B+*%
X184860000Y-222000000D03*
%TD*%
%TO.P,J18,1,Pin_1_1*%
%TO.N,Net-(BT2--)*%
X216000000Y-163030000D03*
%TD*%
%TO.P,J3,1,Pin_1_1*%
%TO.N,/4S_B+*%
X320360000Y-139280000D03*
%TD*%
%TO.P,J1,1,Pin_1_1*%
%TO.N,/1S_B+*%
X249580000Y-87250000D03*
%TD*%
D11*
%TO.P,BT9,1,+_1*%
%TO.N,/4P_B+*%
X147840000Y-207990000D03*
X147840000Y-213070000D03*
D12*
X154910000Y-210530000D03*
D13*
X162670000Y-210530000D03*
D14*
%TO.P,BT9,2,-_2*%
%TO.N,/4P_B-*%
X90450000Y-210530000D03*
D12*
X98210000Y-210530000D03*
D11*
X105280000Y-207990000D03*
X105280000Y-213070000D03*
%TD*%
D10*
%TO.P,J16,1,Pin_1_1*%
%TO.N,/4P_B+*%
X178740000Y-210530000D03*
%TD*%
D11*
%TO.P,BT2,1,+_1*%
%TO.N,/4S_B+*%
X289460000Y-136740000D03*
X289460000Y-141820000D03*
D12*
X296530000Y-139280000D03*
D13*
X304290000Y-139280000D03*
D14*
%TO.P,BT2,2,-_2*%
%TO.N,Net-(BT2--)*%
X232070000Y-139280000D03*
D12*
X239830000Y-139280000D03*
D11*
X246900000Y-136740000D03*
X246900000Y-141820000D03*
%TD*%
D10*
%TO.P,J15,1,Pin_1_1*%
%TO.N,/4P_B-*%
X74380000Y-186780000D03*
%TD*%
D11*
%TO.P,BT5,1,+_1*%
%TO.N,Net-(BT4--)*%
X246900000Y-213070000D03*
X246900000Y-207990000D03*
D12*
X239830000Y-210530000D03*
D15*
X232070000Y-210530000D03*
D16*
%TO.P,BT5,2,-_2*%
%TO.N,/4S_B-*%
X304290000Y-210530000D03*
D12*
X296530000Y-210530000D03*
D11*
X289460000Y-213070000D03*
X289460000Y-207990000D03*
%TD*%
D10*
%TO.P,J2,1,Pin_1_1*%
%TO.N,/1S_B-*%
X145220000Y-87250000D03*
%TD*%
D11*
%TO.P,BT3,1,+_1*%
%TO.N,Net-(BT2--)*%
X246900000Y-165570000D03*
X246900000Y-160490000D03*
D12*
X239830000Y-163030000D03*
D15*
X232070000Y-163030000D03*
D16*
%TO.P,BT3,2,-_2*%
%TO.N,Net-(BT3--)*%
X304290000Y-163030000D03*
D12*
X296530000Y-163030000D03*
D11*
X289460000Y-165570000D03*
X289460000Y-160490000D03*
%TD*%
D10*
%TO.P,J8,1,Pin_1_1*%
%TO.N,Net-(BT3--)*%
X320360000Y-163030000D03*
%TD*%
%TO.P,J20,1,Pin_1_1*%
%TO.N,Net-(BT4--)*%
X216000000Y-210530000D03*
%TD*%
D11*
%TO.P,BT6,1,+_1*%
%TO.N,/4P_B+*%
X147840000Y-136740000D03*
X147840000Y-141820000D03*
D12*
X154910000Y-139280000D03*
D13*
X162670000Y-139280000D03*
D14*
%TO.P,BT6,2,-_2*%
%TO.N,/4P_B-*%
X90450000Y-139280000D03*
D12*
X98210000Y-139280000D03*
D11*
X105280000Y-136740000D03*
X105280000Y-141820000D03*
%TD*%
D10*
%TO.P,J6,1,Pin_1_1*%
%TO.N,/4P_B-*%
X68270000Y-222000000D03*
%TD*%
%TO.P,J10,1,Pin_1_1*%
%TO.N,/4P_B+*%
X178740000Y-139280000D03*
%TD*%
%TO.P,J12,1,Pin_1_1*%
%TO.N,/4P_B+*%
X178740000Y-163030000D03*
%TD*%
%TO.P,J11,1,Pin_1_1*%
%TO.N,/4P_B-*%
X74380000Y-139280000D03*
%TD*%
%TO.P,J4,1,Pin_1_1*%
%TO.N,/4S_B-*%
X320360000Y-210530000D03*
%TD*%
D17*
%TO.N,Net-(BT2--)*%
X222787500Y-142030000D03*
X217650000Y-157797600D03*
X215450000Y-155331200D03*
X218750000Y-145465600D03*
X218750000Y-159030800D03*
X213250000Y-159030800D03*
X215450000Y-149165200D03*
X213250000Y-165196800D03*
X218750000Y-156564400D03*
X220312500Y-138730000D03*
X215450000Y-157797600D03*
X216550000Y-152864800D03*
X221550000Y-161380000D03*
X216550000Y-156564400D03*
X217650000Y-152864800D03*
X215450000Y-135600000D03*
X220312500Y-163580000D03*
X214350000Y-145465600D03*
X216550000Y-142999200D03*
X220312500Y-164680000D03*
X213250000Y-144232400D03*
X215450000Y-151631600D03*
X218750000Y-146698800D03*
X216550000Y-135600000D03*
X215450000Y-145465600D03*
X220312500Y-161380000D03*
X222787500Y-163580000D03*
X218750000Y-142999200D03*
X213250000Y-141766000D03*
X222787500Y-161380000D03*
X217650000Y-151631600D03*
X221550000Y-160280000D03*
X217650000Y-142999200D03*
X217650000Y-156564400D03*
X213250000Y-135600000D03*
X222787500Y-164680000D03*
X218750000Y-157797600D03*
X214350000Y-147932000D03*
X217650000Y-149165200D03*
X216550000Y-145465600D03*
X217650000Y-135600000D03*
X218750000Y-151631600D03*
X221550000Y-138730000D03*
X215450000Y-159030800D03*
X216550000Y-159030800D03*
X221550000Y-139830000D03*
X222787500Y-165780000D03*
X215450000Y-150398400D03*
X219075000Y-160280000D03*
X215450000Y-146698800D03*
X220312500Y-136530000D03*
X216550000Y-157797600D03*
X213250000Y-149165200D03*
X217650000Y-154098000D03*
X213250000Y-145465600D03*
X217650000Y-159030800D03*
X221550000Y-165780000D03*
X213250000Y-157797600D03*
X216550000Y-144232400D03*
X218750000Y-150398400D03*
X215450000Y-154098000D03*
X213250000Y-155331200D03*
X218750000Y-135600000D03*
X218750000Y-144232400D03*
X214350000Y-157797600D03*
X213250000Y-151631600D03*
X215450000Y-144232400D03*
X222787500Y-160280000D03*
X214350000Y-156564400D03*
X220312500Y-140930000D03*
X217650000Y-150398400D03*
X213250000Y-136833200D03*
X221550000Y-164680000D03*
X214350000Y-166430000D03*
X222787500Y-139830000D03*
X218750000Y-154098000D03*
X217650000Y-155331200D03*
X221550000Y-142030000D03*
X222787500Y-138730000D03*
X218750000Y-152864800D03*
X219075000Y-165780000D03*
X214350000Y-152864800D03*
X214350000Y-151631600D03*
X220312500Y-160280000D03*
X213250000Y-154098000D03*
X214350000Y-154098000D03*
X213250000Y-146698800D03*
X216550000Y-150398400D03*
X213250000Y-160264000D03*
X219075000Y-136530000D03*
X217650000Y-145465600D03*
X214350000Y-155331200D03*
X219075000Y-142030000D03*
X213250000Y-166430000D03*
X221550000Y-162480000D03*
X214350000Y-159030800D03*
X217650000Y-146698800D03*
X220312500Y-165780000D03*
X216550000Y-149165200D03*
X214350000Y-142999200D03*
X214350000Y-150398400D03*
X220312500Y-137630000D03*
X217650000Y-144232400D03*
X216550000Y-155331200D03*
X213250000Y-147932000D03*
X218750000Y-149165200D03*
X218750000Y-155331200D03*
X217650000Y-147932000D03*
X221550000Y-136530000D03*
X216550000Y-151631600D03*
X214350000Y-149165200D03*
X213250000Y-150398400D03*
X221550000Y-137630000D03*
X215450000Y-152864800D03*
X222787500Y-140930000D03*
X221550000Y-140930000D03*
X216550000Y-146698800D03*
X214350000Y-146698800D03*
X215450000Y-142999200D03*
X216550000Y-154098000D03*
X213250000Y-156564400D03*
X218750000Y-147932000D03*
X221550000Y-163580000D03*
X222787500Y-162480000D03*
X222787500Y-136530000D03*
X222787500Y-137630000D03*
X220312500Y-139830000D03*
X214350000Y-135600000D03*
X220312500Y-162480000D03*
X213250000Y-142999200D03*
X216550000Y-147932000D03*
X213250000Y-152864800D03*
X220312500Y-142030000D03*
X215450000Y-156564400D03*
X215450000Y-147932000D03*
X214350000Y-144232400D03*
%TO.N,/1S_B+*%
X244030000Y-88900000D03*
X241555000Y-84500000D03*
X241555000Y-86700000D03*
X244030000Y-90000000D03*
X242792500Y-88900000D03*
X245267500Y-90000000D03*
X246505000Y-90000000D03*
X241555000Y-90000000D03*
X241555000Y-85600000D03*
X244030000Y-86700000D03*
X244030000Y-84500000D03*
X242792500Y-90000000D03*
X245267500Y-84500000D03*
X245267500Y-85600000D03*
X246505000Y-84500000D03*
X242792500Y-84500000D03*
X244030000Y-85600000D03*
X242792500Y-85600000D03*
X245267500Y-86700000D03*
X241555000Y-87800000D03*
X242792500Y-86700000D03*
X241555000Y-88900000D03*
X242792500Y-87800000D03*
X245267500Y-87800000D03*
X244030000Y-87800000D03*
X245267500Y-88900000D03*
%TO.N,/1S_B-*%
X150770000Y-88900000D03*
X149532500Y-85600000D03*
X152007500Y-86700000D03*
X149532500Y-86700000D03*
X149532500Y-87800000D03*
X149532500Y-90000000D03*
X148295000Y-84500000D03*
X149532500Y-84500000D03*
X153245000Y-87800000D03*
X148295000Y-90000000D03*
X153245000Y-86700000D03*
X152007500Y-90000000D03*
X150770000Y-85600000D03*
X153245000Y-84500000D03*
X150770000Y-86700000D03*
X152007500Y-88900000D03*
X149532500Y-88900000D03*
X153245000Y-85600000D03*
X153245000Y-90000000D03*
X152007500Y-84500000D03*
X153245000Y-88900000D03*
X150770000Y-84500000D03*
X152007500Y-87800000D03*
X150770000Y-87800000D03*
X152007500Y-85600000D03*
X150770000Y-90000000D03*
%TO.N,/4P_B-*%
X73830000Y-155624200D03*
X77130000Y-174397000D03*
X82405000Y-136530000D03*
X81167500Y-163580000D03*
X73830000Y-159378800D03*
X73830000Y-173145500D03*
X72730000Y-203181800D03*
X76030000Y-176900000D03*
X74930000Y-205684800D03*
X81167500Y-184030000D03*
X72730000Y-171893900D03*
X72466000Y-220350000D03*
X73830000Y-218200000D03*
X77130000Y-143109100D03*
X82405000Y-187330000D03*
X74930000Y-193169700D03*
X76030000Y-151869700D03*
X81167500Y-186230000D03*
X75263000Y-221450000D03*
X77130000Y-175648500D03*
X74930000Y-218200000D03*
X82405000Y-185130000D03*
X73830000Y-145612100D03*
X76030000Y-196924200D03*
X71630000Y-173145500D03*
X72466000Y-222550000D03*
X82405000Y-211080000D03*
X78692500Y-184030000D03*
X72730000Y-149366700D03*
X76030000Y-171893900D03*
X78692500Y-138730000D03*
X71630000Y-166887900D03*
X76030000Y-166887900D03*
X74930000Y-146863600D03*
X71630000Y-190666700D03*
X71630000Y-204433300D03*
X74930000Y-153121200D03*
X82405000Y-209980000D03*
X77130000Y-216948500D03*
X77130000Y-196924200D03*
X74930000Y-183157600D03*
X71630000Y-206936400D03*
X73830000Y-206936400D03*
X77130000Y-204433300D03*
X71630000Y-150618200D03*
X76030000Y-159378800D03*
X74930000Y-176900000D03*
X72466000Y-224750000D03*
X81167500Y-212180000D03*
X77130000Y-159378800D03*
X81167500Y-161380000D03*
X76030000Y-149366700D03*
X73830000Y-198175800D03*
X73830000Y-178151500D03*
X76030000Y-169390900D03*
X79930000Y-137630000D03*
X82405000Y-139830000D03*
X74930000Y-181906100D03*
X74930000Y-169390900D03*
X76030000Y-179403000D03*
X71630000Y-195672700D03*
X71630000Y-168139400D03*
X77130000Y-149366700D03*
X81167500Y-187330000D03*
X74930000Y-203181800D03*
X72730000Y-174397000D03*
X81167500Y-142030000D03*
X72730000Y-204433300D03*
X77130000Y-183157600D03*
X82405000Y-138730000D03*
X76030000Y-146863600D03*
X72730000Y-178151500D03*
X82405000Y-161380000D03*
X74930000Y-196924200D03*
X76030000Y-215697000D03*
X72730000Y-179403000D03*
X79930000Y-136530000D03*
X71630000Y-199427300D03*
X72730000Y-135600000D03*
X77130000Y-135600000D03*
X71630000Y-176900000D03*
X73830000Y-201930300D03*
X71630000Y-158127300D03*
X72730000Y-154372700D03*
X73830000Y-200678800D03*
X74930000Y-200678800D03*
X71630000Y-203181800D03*
X73830000Y-168139400D03*
X74930000Y-175648500D03*
X79930000Y-189530000D03*
X71630000Y-178151500D03*
X77130000Y-194421200D03*
X74930000Y-206936400D03*
X71630000Y-184409100D03*
X82405000Y-207780000D03*
X82405000Y-165780000D03*
X72730000Y-175648500D03*
X76030000Y-218200000D03*
X74930000Y-180654500D03*
X76030000Y-206936400D03*
X71630000Y-214445500D03*
X78692500Y-208880000D03*
X73830000Y-174397000D03*
X72730000Y-146863600D03*
X79930000Y-161380000D03*
X74930000Y-154372700D03*
X82405000Y-137630000D03*
X79930000Y-213280000D03*
X77130000Y-176900000D03*
X71630000Y-149366700D03*
X73864000Y-220350000D03*
X81167500Y-140930000D03*
X82405000Y-163580000D03*
X77130000Y-154372700D03*
X71630000Y-175648500D03*
X73830000Y-170642400D03*
X73830000Y-180654500D03*
X71630000Y-145612100D03*
X81167500Y-138730000D03*
X74930000Y-194421200D03*
X72730000Y-150618200D03*
X77130000Y-156875800D03*
X76030000Y-145612100D03*
X72730000Y-190666700D03*
X73830000Y-203181800D03*
X77455000Y-213280000D03*
X77130000Y-201930300D03*
X73830000Y-158127300D03*
X72730000Y-145612100D03*
X74930000Y-156875800D03*
X71630000Y-159378800D03*
X74930000Y-149366700D03*
X73830000Y-181906100D03*
X75263000Y-224750000D03*
X79930000Y-208880000D03*
X74930000Y-150618200D03*
X76030000Y-158127300D03*
X72730000Y-168139400D03*
X77130000Y-198175800D03*
X76030000Y-175648500D03*
X78692500Y-139830000D03*
X76030000Y-174397000D03*
X72730000Y-158127300D03*
X81167500Y-139830000D03*
X71630000Y-198175800D03*
X81167500Y-189530000D03*
X76030000Y-135600000D03*
X81167500Y-211080000D03*
X73830000Y-153121200D03*
X81167500Y-209980000D03*
X76030000Y-150618200D03*
X72730000Y-206936400D03*
X73830000Y-204433300D03*
X74930000Y-158127300D03*
X72730000Y-194421200D03*
X73830000Y-193169700D03*
X73830000Y-191918200D03*
X72730000Y-166887900D03*
X76030000Y-178151500D03*
X82405000Y-142030000D03*
X76030000Y-203181800D03*
X71630000Y-154372700D03*
X78692500Y-212180000D03*
X72730000Y-181906100D03*
X81167500Y-162480000D03*
X71630000Y-165636400D03*
X74930000Y-204433300D03*
X77130000Y-206936400D03*
X71630000Y-155624200D03*
X73830000Y-175648500D03*
X71630000Y-135600000D03*
X77130000Y-173145500D03*
X77130000Y-148115200D03*
X77455000Y-136530000D03*
X79930000Y-140930000D03*
X81167500Y-165780000D03*
X82405000Y-160280000D03*
X76030000Y-191918200D03*
X81167500Y-213280000D03*
X71630000Y-171893900D03*
X71630000Y-153121200D03*
X72730000Y-155624200D03*
X72730000Y-173145500D03*
X71630000Y-143109100D03*
X71630000Y-148115200D03*
X81167500Y-160280000D03*
X76030000Y-216948500D03*
X73830000Y-215697000D03*
X78692500Y-136530000D03*
X78692500Y-189530000D03*
X73830000Y-156875800D03*
X78692500Y-161380000D03*
X71630000Y-205684800D03*
X76030000Y-168139400D03*
X76030000Y-148115200D03*
X73830000Y-148115200D03*
X73830000Y-166887900D03*
X78692500Y-211080000D03*
X73864000Y-221450000D03*
X72730000Y-156875800D03*
X72730000Y-153121200D03*
X78692500Y-188430000D03*
X76030000Y-183157600D03*
X76030000Y-205684800D03*
X73830000Y-179403000D03*
X72730000Y-195672700D03*
X79930000Y-162480000D03*
X79930000Y-186230000D03*
X72730000Y-218200000D03*
X79930000Y-212180000D03*
X71630000Y-215697000D03*
X76030000Y-153121200D03*
X77130000Y-191918200D03*
X72730000Y-183157600D03*
X74930000Y-145612100D03*
X73830000Y-194421200D03*
X77130000Y-169390900D03*
X76030000Y-144360600D03*
X77130000Y-190666700D03*
X77130000Y-146863600D03*
X74930000Y-174397000D03*
X77130000Y-155624200D03*
X76030000Y-200678800D03*
X72730000Y-180654500D03*
X81167500Y-137630000D03*
X77130000Y-203181800D03*
X78692500Y-142030000D03*
X82405000Y-140930000D03*
X77130000Y-145612100D03*
X74930000Y-190666700D03*
X73864000Y-224750000D03*
X78692500Y-140930000D03*
X71630000Y-201930300D03*
X77130000Y-166887900D03*
X73830000Y-151869700D03*
X76030000Y-201930300D03*
X77130000Y-170642400D03*
X71630000Y-146863600D03*
X79930000Y-187330000D03*
X74930000Y-135600000D03*
X74930000Y-195672700D03*
X79930000Y-160280000D03*
X76030000Y-155624200D03*
X79930000Y-207780000D03*
X77130000Y-151869700D03*
X73830000Y-144360600D03*
X76030000Y-170642400D03*
X78692500Y-165780000D03*
X72730000Y-191918200D03*
X76030000Y-195672700D03*
X71630000Y-181906100D03*
X77455000Y-142030000D03*
X79930000Y-163580000D03*
X78692500Y-207780000D03*
X77130000Y-180654500D03*
X79930000Y-142030000D03*
X78692500Y-187330000D03*
X76030000Y-181906100D03*
X74930000Y-143109100D03*
X77455000Y-207780000D03*
X77455000Y-184030000D03*
X73830000Y-214445500D03*
X73830000Y-154372700D03*
X71630000Y-191918200D03*
X79930000Y-164680000D03*
X71630000Y-208187900D03*
X74930000Y-191918200D03*
X72730000Y-216948500D03*
X77130000Y-218200000D03*
X77130000Y-153121200D03*
X72730000Y-144360600D03*
X72730000Y-148115200D03*
X74930000Y-155624200D03*
X74930000Y-144360600D03*
X73830000Y-143109100D03*
X79930000Y-185130000D03*
X73830000Y-196924200D03*
X71630000Y-194421200D03*
X71630000Y-216948500D03*
X78692500Y-209980000D03*
X71630000Y-169390900D03*
X81167500Y-188430000D03*
X74930000Y-201930300D03*
X72466000Y-219250000D03*
X71630000Y-180654500D03*
X76030000Y-204433300D03*
X73864000Y-222550000D03*
X72730000Y-205684800D03*
X71630000Y-213193900D03*
X78692500Y-164680000D03*
X75263000Y-222550000D03*
X81167500Y-164680000D03*
X71630000Y-183157600D03*
X72730000Y-176900000D03*
X77130000Y-195672700D03*
X73830000Y-149366700D03*
X71630000Y-170642400D03*
X79930000Y-211080000D03*
X76030000Y-154372700D03*
X72466000Y-223650000D03*
X74930000Y-214445500D03*
X77130000Y-158127300D03*
X71630000Y-156875800D03*
X77130000Y-179403000D03*
X79930000Y-165780000D03*
X76030000Y-156875800D03*
X81167500Y-136530000D03*
X71630000Y-144360600D03*
X76030000Y-190666700D03*
X77455000Y-189530000D03*
X78692500Y-163580000D03*
X72730000Y-143109100D03*
X73830000Y-190666700D03*
X73830000Y-171893900D03*
X78692500Y-160280000D03*
X74930000Y-171893900D03*
X77130000Y-144360600D03*
X77130000Y-214445500D03*
X74930000Y-168139400D03*
X73830000Y-176900000D03*
X74930000Y-159378800D03*
X73830000Y-169390900D03*
X72730000Y-200678800D03*
X81167500Y-208880000D03*
X74930000Y-179403000D03*
X73830000Y-195672700D03*
X77130000Y-215697000D03*
X78692500Y-185130000D03*
X76030000Y-194421200D03*
X74930000Y-216948500D03*
X73864000Y-223650000D03*
X76661000Y-221450000D03*
X82405000Y-164680000D03*
X72466000Y-221450000D03*
X78692500Y-213280000D03*
X77130000Y-171893900D03*
X72730000Y-214445500D03*
X77455000Y-160280000D03*
X78692500Y-162480000D03*
X77130000Y-178151500D03*
X73830000Y-135600000D03*
X72730000Y-169390900D03*
X71630000Y-218200000D03*
X74930000Y-170642400D03*
X79930000Y-209980000D03*
X73864000Y-219250000D03*
X82405000Y-162480000D03*
X76030000Y-193169700D03*
X77130000Y-200678800D03*
X82405000Y-208880000D03*
X71630000Y-179403000D03*
X72730000Y-196924200D03*
X72730000Y-198175800D03*
X76030000Y-198175800D03*
X82405000Y-212180000D03*
X72730000Y-199427300D03*
X71630000Y-189415200D03*
X71630000Y-200678800D03*
X77130000Y-205684800D03*
X78692500Y-137630000D03*
X71067000Y-224750000D03*
X82405000Y-186230000D03*
X71630000Y-136851500D03*
X71630000Y-193169700D03*
X77130000Y-181906100D03*
X79930000Y-138730000D03*
X81167500Y-185130000D03*
X82405000Y-184030000D03*
X73830000Y-216948500D03*
X72730000Y-151869700D03*
X78692500Y-186230000D03*
X73830000Y-150618200D03*
X71067000Y-219250000D03*
X76661000Y-224750000D03*
X72730000Y-215697000D03*
X72730000Y-170642400D03*
X72730000Y-201930300D03*
X77455000Y-165780000D03*
X74930000Y-173145500D03*
X74930000Y-166887900D03*
X71630000Y-141857600D03*
X76030000Y-173145500D03*
X74930000Y-198175800D03*
X75263000Y-223650000D03*
X71630000Y-151869700D03*
X73830000Y-199427300D03*
X76661000Y-223650000D03*
X76030000Y-214445500D03*
X81167500Y-207780000D03*
X79930000Y-139830000D03*
X77130000Y-193169700D03*
X79930000Y-188430000D03*
X74930000Y-178151500D03*
X74930000Y-199427300D03*
X73830000Y-183157600D03*
X77130000Y-150618200D03*
X72730000Y-193169700D03*
X76030000Y-143109100D03*
X79930000Y-184030000D03*
X76030000Y-199427300D03*
X82405000Y-213280000D03*
X73830000Y-146863600D03*
X82405000Y-189530000D03*
X72730000Y-159378800D03*
X77130000Y-168139400D03*
X71630000Y-160630300D03*
X71630000Y-196924200D03*
X76661000Y-222550000D03*
X77130000Y-199427300D03*
X74930000Y-151869700D03*
X76030000Y-180654500D03*
X71630000Y-174397000D03*
X73830000Y-205684800D03*
X74930000Y-215697000D03*
X74930000Y-148115200D03*
X82405000Y-188430000D03*
%TO.N,/4P_B+*%
X178190000Y-173145500D03*
X175990000Y-193169700D03*
X180390000Y-196924200D03*
X170715000Y-186230000D03*
X181490000Y-190666700D03*
X177090000Y-191918200D03*
X175990000Y-173145500D03*
X181490000Y-156875800D03*
X170715000Y-161380000D03*
X177090000Y-204433300D03*
X180390000Y-181906100D03*
X173190000Y-209980000D03*
X179290000Y-176900000D03*
X181490000Y-176900000D03*
X177090000Y-168139400D03*
X173190000Y-139830000D03*
X177090000Y-205684800D03*
X179290000Y-154372700D03*
X179290000Y-180654500D03*
X175990000Y-190666700D03*
X179290000Y-203181800D03*
X179290000Y-171893900D03*
X177090000Y-170642400D03*
X179290000Y-193169700D03*
X177090000Y-193169700D03*
X181490000Y-165636400D03*
X178190000Y-154372700D03*
X177090000Y-194421200D03*
X173190000Y-213280000D03*
X175990000Y-204433300D03*
X180390000Y-170642400D03*
X175665000Y-213280000D03*
X181490000Y-136851500D03*
X180390000Y-194421200D03*
X173190000Y-164680000D03*
X177090000Y-154372700D03*
X175990000Y-158127300D03*
X181490000Y-150618200D03*
X175990000Y-216948500D03*
X177090000Y-179403000D03*
X180390000Y-214445500D03*
X175665000Y-136530000D03*
X178190000Y-203181800D03*
X174427500Y-138730000D03*
X175990000Y-148115200D03*
X178190000Y-169390900D03*
X175665000Y-142030000D03*
X174427500Y-162480000D03*
X177090000Y-180654500D03*
X178190000Y-135600000D03*
X178190000Y-200678800D03*
X177860000Y-223650000D03*
X178190000Y-143109100D03*
X174427500Y-187330000D03*
X170715000Y-209980000D03*
X181490000Y-143109100D03*
X181490000Y-145612100D03*
X177090000Y-171893900D03*
X181490000Y-160630300D03*
X170715000Y-160280000D03*
X175990000Y-149366700D03*
X174427500Y-208880000D03*
X178190000Y-218200000D03*
X179290000Y-143109100D03*
X174427500Y-207780000D03*
X173190000Y-138730000D03*
X171952500Y-165780000D03*
X177090000Y-169390900D03*
X177090000Y-156875800D03*
X179290000Y-150618200D03*
X181490000Y-154372700D03*
X176460000Y-224750000D03*
X179260000Y-219250000D03*
X177090000Y-203181800D03*
X175990000Y-196924200D03*
X176460000Y-221450000D03*
X181490000Y-214445500D03*
X177090000Y-218200000D03*
X181490000Y-144360600D03*
X180390000Y-176900000D03*
X175990000Y-171893900D03*
X174427500Y-184030000D03*
X180390000Y-145612100D03*
X178190000Y-214445500D03*
X175990000Y-169390900D03*
X170715000Y-136530000D03*
X171952500Y-188430000D03*
X180390000Y-200678800D03*
X179290000Y-194421200D03*
X177090000Y-135600000D03*
X181490000Y-196924200D03*
X173190000Y-186230000D03*
X175990000Y-206936400D03*
X179290000Y-168139400D03*
X175990000Y-183157600D03*
X180660000Y-224750000D03*
X181490000Y-171893900D03*
X175990000Y-200678800D03*
X177090000Y-195672700D03*
X179260000Y-222550000D03*
X180390000Y-218200000D03*
X181490000Y-151869700D03*
X180390000Y-158127300D03*
X180390000Y-171893900D03*
X177090000Y-216948500D03*
X171952500Y-138730000D03*
X181490000Y-135600000D03*
X179290000Y-166887900D03*
X173190000Y-162480000D03*
X178190000Y-148115200D03*
X180390000Y-195672700D03*
X178190000Y-196924200D03*
X181490000Y-166887900D03*
X178190000Y-166887900D03*
X178190000Y-181906100D03*
X181490000Y-170642400D03*
X181490000Y-141857600D03*
X179290000Y-170642400D03*
X179290000Y-183157600D03*
X171952500Y-164680000D03*
X170715000Y-207780000D03*
X174427500Y-185130000D03*
X177090000Y-178151500D03*
X179290000Y-218200000D03*
X179290000Y-214445500D03*
X177090000Y-176900000D03*
X180390000Y-168139400D03*
X178190000Y-206936400D03*
X175990000Y-180654500D03*
X181490000Y-203181800D03*
X179290000Y-135600000D03*
X179290000Y-156875800D03*
X178190000Y-215697000D03*
X170715000Y-165780000D03*
X174427500Y-165780000D03*
X181490000Y-194421200D03*
X174427500Y-211080000D03*
X173190000Y-188430000D03*
X179290000Y-145612100D03*
X181490000Y-204433300D03*
X177090000Y-200678800D03*
X176460000Y-223650000D03*
X174427500Y-142030000D03*
X180390000Y-180654500D03*
X177860000Y-222550000D03*
X177090000Y-150618200D03*
X173190000Y-165780000D03*
X173190000Y-160280000D03*
X180390000Y-199427300D03*
X179290000Y-151869700D03*
X181490000Y-159378800D03*
X170715000Y-162480000D03*
X179290000Y-158127300D03*
X173190000Y-189530000D03*
X170715000Y-189530000D03*
X180390000Y-166887900D03*
X181490000Y-148115200D03*
X179290000Y-173145500D03*
X178190000Y-216948500D03*
X181490000Y-184409100D03*
X174427500Y-188430000D03*
X180390000Y-143109100D03*
X179290000Y-153121200D03*
X180390000Y-191918200D03*
X181490000Y-216948500D03*
X180390000Y-153121200D03*
X178190000Y-150618200D03*
X175990000Y-194421200D03*
X177090000Y-158127300D03*
X173190000Y-163580000D03*
X177090000Y-198175800D03*
X171952500Y-208880000D03*
X181490000Y-201930300D03*
X180390000Y-204433300D03*
X175990000Y-218200000D03*
X179290000Y-178151500D03*
X174427500Y-161380000D03*
X180660000Y-220350000D03*
X171952500Y-212180000D03*
X180390000Y-149366700D03*
X170715000Y-163580000D03*
X178190000Y-179403000D03*
X179290000Y-216948500D03*
X170715000Y-187330000D03*
X180390000Y-179403000D03*
X175990000Y-191918200D03*
X181490000Y-178151500D03*
X178190000Y-153121200D03*
X171952500Y-160280000D03*
X170715000Y-140930000D03*
X175990000Y-179403000D03*
X179290000Y-149366700D03*
X173190000Y-161380000D03*
X180390000Y-155624200D03*
X178190000Y-176900000D03*
X180390000Y-190666700D03*
X173190000Y-207780000D03*
X180390000Y-193169700D03*
X181490000Y-193169700D03*
X181490000Y-191918200D03*
X171952500Y-162480000D03*
X178190000Y-168139400D03*
X178190000Y-194421200D03*
X181490000Y-153121200D03*
X178190000Y-144360600D03*
X180390000Y-183157600D03*
X179290000Y-146863600D03*
X181490000Y-149366700D03*
X175990000Y-155624200D03*
X175990000Y-175648500D03*
X175990000Y-151869700D03*
X181490000Y-179403000D03*
X179290000Y-175648500D03*
X180390000Y-206936400D03*
X171952500Y-184030000D03*
X178190000Y-159378800D03*
X180660000Y-222550000D03*
X173190000Y-136530000D03*
X175665000Y-184030000D03*
X170715000Y-213280000D03*
X173190000Y-140930000D03*
X170715000Y-164680000D03*
X175990000Y-195672700D03*
X171952500Y-189530000D03*
X181490000Y-199427300D03*
X173190000Y-142030000D03*
X178190000Y-180654500D03*
X181490000Y-205684800D03*
X181490000Y-155624200D03*
X171952500Y-137630000D03*
X171952500Y-161380000D03*
X180390000Y-135600000D03*
X179290000Y-190666700D03*
X180660000Y-221450000D03*
X170715000Y-138730000D03*
X178190000Y-205684800D03*
X170715000Y-208880000D03*
X175665000Y-160280000D03*
X180390000Y-146863600D03*
X175990000Y-159378800D03*
X178190000Y-191918200D03*
X179290000Y-200678800D03*
X175990000Y-205684800D03*
X180390000Y-151869700D03*
X174427500Y-137630000D03*
X175990000Y-146863600D03*
X177090000Y-145612100D03*
X181490000Y-198175800D03*
X174427500Y-140930000D03*
X179290000Y-191918200D03*
X175990000Y-168139400D03*
X178190000Y-193169700D03*
X177090000Y-155624200D03*
X173190000Y-212180000D03*
X175665000Y-165780000D03*
X179290000Y-195672700D03*
X174427500Y-160280000D03*
X181490000Y-189415200D03*
X174427500Y-213280000D03*
X180390000Y-198175800D03*
X175665000Y-189530000D03*
X175990000Y-199427300D03*
X171952500Y-136530000D03*
X181490000Y-146863600D03*
X178190000Y-198175800D03*
X175990000Y-156875800D03*
X177090000Y-143109100D03*
X180390000Y-144360600D03*
X175990000Y-215697000D03*
X177090000Y-149366700D03*
X181490000Y-208187900D03*
X179290000Y-155624200D03*
X181490000Y-200678800D03*
X170715000Y-188430000D03*
X170715000Y-212180000D03*
X178190000Y-145612100D03*
X179260000Y-223650000D03*
X180390000Y-154372700D03*
X171952500Y-207780000D03*
X180390000Y-169390900D03*
X178190000Y-183157600D03*
X177090000Y-215697000D03*
X175990000Y-153121200D03*
X181490000Y-195672700D03*
X175990000Y-144360600D03*
X177090000Y-173145500D03*
X171952500Y-142030000D03*
X177860000Y-221450000D03*
X177090000Y-148115200D03*
X181490000Y-175648500D03*
X170715000Y-142030000D03*
X179290000Y-169390900D03*
X174427500Y-139830000D03*
X177090000Y-159378800D03*
X177090000Y-153121200D03*
X177090000Y-144360600D03*
X174427500Y-186230000D03*
X181490000Y-169390900D03*
X178190000Y-156875800D03*
X173190000Y-185130000D03*
X173190000Y-137630000D03*
X180660000Y-219250000D03*
X177860000Y-224750000D03*
X180390000Y-148115200D03*
X175990000Y-135600000D03*
X179290000Y-179403000D03*
X173190000Y-211080000D03*
X175990000Y-178151500D03*
X177090000Y-190666700D03*
X179290000Y-159378800D03*
X180390000Y-156875800D03*
X179290000Y-144360600D03*
X179290000Y-204433300D03*
X179290000Y-201930300D03*
X182060000Y-224750000D03*
X177090000Y-175648500D03*
X178190000Y-195672700D03*
X179290000Y-205684800D03*
X180390000Y-216948500D03*
X179290000Y-199427300D03*
X171952500Y-163580000D03*
X175990000Y-143109100D03*
X180390000Y-175648500D03*
X182060000Y-219250000D03*
X174427500Y-189530000D03*
X179290000Y-206936400D03*
X177090000Y-214445500D03*
X181490000Y-213193900D03*
X175990000Y-176900000D03*
X181490000Y-180654500D03*
X181490000Y-168139400D03*
X178190000Y-174397000D03*
X180390000Y-203181800D03*
X179290000Y-215697000D03*
X181490000Y-173145500D03*
X178190000Y-190666700D03*
X181490000Y-174397000D03*
X175990000Y-166887900D03*
X180390000Y-201930300D03*
X173190000Y-187330000D03*
X178190000Y-199427300D03*
X177090000Y-201930300D03*
X180660000Y-223650000D03*
X180390000Y-174397000D03*
X177090000Y-174397000D03*
X175990000Y-201930300D03*
X175990000Y-145612100D03*
X173190000Y-208880000D03*
X177090000Y-183157600D03*
X175990000Y-170642400D03*
X175665000Y-207780000D03*
X179290000Y-148115200D03*
X180390000Y-173145500D03*
X175990000Y-150618200D03*
X177090000Y-151869700D03*
X179260000Y-224750000D03*
X171952500Y-213280000D03*
X177090000Y-196924200D03*
X170715000Y-211080000D03*
X171952500Y-140930000D03*
X178190000Y-170642400D03*
X179290000Y-196924200D03*
X181490000Y-158127300D03*
X175990000Y-203181800D03*
X180390000Y-178151500D03*
X170715000Y-185130000D03*
X174427500Y-164680000D03*
X179260000Y-221450000D03*
X175990000Y-174397000D03*
X171952500Y-211080000D03*
X174427500Y-136530000D03*
X173190000Y-184030000D03*
X175990000Y-214445500D03*
X178190000Y-175648500D03*
X171952500Y-139830000D03*
X178190000Y-178151500D03*
X177090000Y-181906100D03*
X178190000Y-155624200D03*
X177090000Y-199427300D03*
X171952500Y-185130000D03*
X181490000Y-183157600D03*
X178190000Y-151869700D03*
X179290000Y-181906100D03*
X170715000Y-139830000D03*
X174427500Y-163580000D03*
X170715000Y-137630000D03*
X175990000Y-181906100D03*
X177090000Y-166887900D03*
X178190000Y-146863600D03*
X175990000Y-154372700D03*
X180390000Y-215697000D03*
X175990000Y-198175800D03*
X171952500Y-187330000D03*
X181490000Y-215697000D03*
X180390000Y-159378800D03*
X178190000Y-204433300D03*
X171952500Y-209980000D03*
X178190000Y-171893900D03*
X178190000Y-201930300D03*
X174427500Y-212180000D03*
X181490000Y-181906100D03*
X179290000Y-174397000D03*
X180390000Y-205684800D03*
X178190000Y-158127300D03*
X178190000Y-149366700D03*
X179290000Y-198175800D03*
X181490000Y-218200000D03*
X170715000Y-184030000D03*
X171952500Y-186230000D03*
X177090000Y-146863600D03*
X176460000Y-222550000D03*
X180390000Y-150618200D03*
X174427500Y-209980000D03*
X181490000Y-206936400D03*
X177090000Y-206936400D03*
X179260000Y-220350000D03*
%TO.N,Net-(BT4--)*%
X221550000Y-189530000D03*
X214350000Y-198173600D03*
X213250000Y-203104800D03*
X221550000Y-184030000D03*
X217650000Y-200639200D03*
X213250000Y-199406400D03*
X213250000Y-184612800D03*
X217650000Y-199406400D03*
X218750000Y-190776800D03*
X213250000Y-194475200D03*
X216550000Y-193242400D03*
X215450000Y-214200000D03*
X216550000Y-194475200D03*
X215450000Y-198173600D03*
X220312500Y-188430000D03*
X216550000Y-205570400D03*
X222787500Y-187330000D03*
X221550000Y-207780000D03*
X218750000Y-192009600D03*
X214350000Y-206803200D03*
X220312500Y-186230000D03*
X218750000Y-204337600D03*
X216550000Y-192009600D03*
X213250000Y-200639200D03*
X213250000Y-190776800D03*
X216550000Y-196940800D03*
X222787500Y-212180000D03*
X217650000Y-205570400D03*
X215450000Y-205570400D03*
X221550000Y-211080000D03*
X218750000Y-193242400D03*
X222787500Y-185130000D03*
X213250000Y-195708000D03*
X214350000Y-194475200D03*
X213250000Y-204337600D03*
X218750000Y-196940800D03*
X216550000Y-204337600D03*
X216550000Y-203104800D03*
X215450000Y-204337600D03*
X221550000Y-186230000D03*
X214350000Y-200639200D03*
X218750000Y-195708000D03*
X214350000Y-199406400D03*
X213250000Y-198173600D03*
X215450000Y-203104800D03*
X214350000Y-190776800D03*
X220312500Y-189530000D03*
X213250000Y-183380000D03*
X220312500Y-212180000D03*
X217650000Y-204337600D03*
X221550000Y-212180000D03*
X218750000Y-206803200D03*
X220312500Y-209980000D03*
X213250000Y-208036000D03*
X215450000Y-200639200D03*
X213250000Y-193242400D03*
X215450000Y-193242400D03*
X216550000Y-206803200D03*
X213250000Y-214200000D03*
X217650000Y-196940800D03*
X222787500Y-213280000D03*
X215450000Y-206803200D03*
X216550000Y-190776800D03*
X214350000Y-203104800D03*
X214350000Y-195708000D03*
X217650000Y-190776800D03*
X221550000Y-188430000D03*
X218750000Y-199406400D03*
X214350000Y-183380000D03*
X219075000Y-207780000D03*
X213250000Y-212967200D03*
X218750000Y-200639200D03*
X215450000Y-195708000D03*
X220312500Y-207780000D03*
X214350000Y-205570400D03*
X222787500Y-188430000D03*
X213250000Y-189544000D03*
X214350000Y-192009600D03*
X218750000Y-203104800D03*
X221550000Y-213280000D03*
X220312500Y-184030000D03*
X217650000Y-194475200D03*
X222787500Y-209980000D03*
X222787500Y-208880000D03*
X214350000Y-204337600D03*
X220312500Y-208880000D03*
X218750000Y-214200000D03*
X213250000Y-206803200D03*
X222787500Y-211080000D03*
X213250000Y-201872000D03*
X216550000Y-214200000D03*
X217650000Y-214200000D03*
X215450000Y-190776800D03*
X222787500Y-186230000D03*
X222787500Y-189530000D03*
X215450000Y-192009600D03*
X220312500Y-187330000D03*
X214350000Y-214200000D03*
X217650000Y-201872000D03*
X215450000Y-199406400D03*
X216550000Y-198173600D03*
X215450000Y-201872000D03*
X215450000Y-196940800D03*
X213250000Y-192009600D03*
X216550000Y-200639200D03*
X217650000Y-195708000D03*
X217650000Y-192009600D03*
X214350000Y-196940800D03*
X216550000Y-201872000D03*
X215450000Y-194475200D03*
X219075000Y-189530000D03*
X213250000Y-205570400D03*
X213250000Y-196940800D03*
X216550000Y-195708000D03*
X220312500Y-211080000D03*
X220312500Y-213280000D03*
X219075000Y-213280000D03*
X214350000Y-193242400D03*
X217650000Y-203104800D03*
X218750000Y-198173600D03*
X221550000Y-208880000D03*
X219075000Y-184030000D03*
X220312500Y-185130000D03*
X222787500Y-207780000D03*
X221550000Y-187330000D03*
X218750000Y-205570400D03*
X221550000Y-209980000D03*
X216550000Y-199406400D03*
X214350000Y-201872000D03*
X218750000Y-194475200D03*
X217650000Y-198173600D03*
X217650000Y-193242400D03*
X218750000Y-201872000D03*
X222787500Y-184030000D03*
X217650000Y-206803200D03*
X221550000Y-185130000D03*
%TO.N,Net-(BT3--)*%
X320910000Y-167267500D03*
X313572500Y-160280000D03*
X316047500Y-184030000D03*
X318710000Y-174905000D03*
X323110000Y-172359200D03*
X319810000Y-178723700D03*
X322010000Y-167267500D03*
X316047500Y-186230000D03*
X312335000Y-165780000D03*
X316047500Y-185130000D03*
X323110000Y-190180000D03*
X319810000Y-173632100D03*
X314810000Y-184030000D03*
X313572500Y-161380000D03*
X317610000Y-173632100D03*
X313572500Y-162480000D03*
X314810000Y-189530000D03*
X319810000Y-176177900D03*
X314810000Y-162480000D03*
X320910000Y-168540400D03*
X318710000Y-167267500D03*
X320910000Y-171086300D03*
X318710000Y-177450800D03*
X323110000Y-183815400D03*
X323110000Y-167267500D03*
X319810000Y-179996700D03*
X316047500Y-160280000D03*
X317610000Y-182542500D03*
X317285000Y-165780000D03*
X323110000Y-177450800D03*
X317610000Y-168540400D03*
X316047500Y-163580000D03*
X317610000Y-176177900D03*
X320910000Y-174905000D03*
X317610000Y-171086300D03*
X313572500Y-185130000D03*
X320910000Y-181269600D03*
X312335000Y-185130000D03*
X316047500Y-165780000D03*
X323110000Y-182542500D03*
X322010000Y-177450800D03*
X320910000Y-173632100D03*
X318710000Y-169813300D03*
X313572500Y-165780000D03*
X318710000Y-178723700D03*
X316047500Y-188430000D03*
X314810000Y-163580000D03*
X323110000Y-171086300D03*
X312335000Y-164680000D03*
X313572500Y-187330000D03*
X312335000Y-188430000D03*
X320910000Y-176177900D03*
X323110000Y-159630000D03*
X314810000Y-161380000D03*
X312335000Y-163580000D03*
X320910000Y-169813300D03*
X317610000Y-178723700D03*
X314810000Y-186230000D03*
X314810000Y-185130000D03*
X314810000Y-160280000D03*
X323110000Y-168540400D03*
X312335000Y-186230000D03*
X322010000Y-169813300D03*
X312335000Y-162480000D03*
X314810000Y-164680000D03*
X319810000Y-174905000D03*
X312335000Y-161380000D03*
X313572500Y-164680000D03*
X317610000Y-179996700D03*
X319810000Y-167267500D03*
X319810000Y-177450800D03*
X323110000Y-173632100D03*
X316047500Y-164680000D03*
X320910000Y-179996700D03*
X319810000Y-169813300D03*
X316047500Y-162480000D03*
X312335000Y-184030000D03*
X323110000Y-181269600D03*
X317610000Y-172359200D03*
X323110000Y-169813300D03*
X317610000Y-181269600D03*
X314810000Y-165780000D03*
X320910000Y-182542500D03*
X318710000Y-182542500D03*
X323110000Y-165994600D03*
X322010000Y-168540400D03*
X314810000Y-188430000D03*
X323110000Y-178723700D03*
X323110000Y-176177900D03*
X323110000Y-174905000D03*
X318710000Y-168540400D03*
X322010000Y-176177900D03*
X319810000Y-171086300D03*
X312335000Y-189530000D03*
X314810000Y-187330000D03*
X313572500Y-186230000D03*
X322010000Y-181269600D03*
X312335000Y-160280000D03*
X318710000Y-171086300D03*
X320910000Y-178723700D03*
X319810000Y-168540400D03*
X322010000Y-174905000D03*
X313572500Y-188430000D03*
X319810000Y-172359200D03*
X322010000Y-179996700D03*
X319810000Y-182542500D03*
X318710000Y-176177900D03*
X317610000Y-174905000D03*
X316047500Y-161380000D03*
X312335000Y-187330000D03*
X313572500Y-163580000D03*
X316047500Y-187330000D03*
X313572500Y-184030000D03*
X320910000Y-177450800D03*
X322010000Y-171086300D03*
X317610000Y-169813300D03*
X316047500Y-189530000D03*
X322010000Y-190180000D03*
X320910000Y-172359200D03*
X318710000Y-173632100D03*
X319810000Y-181269600D03*
X317285000Y-189530000D03*
X317610000Y-177450800D03*
X313572500Y-189530000D03*
X322010000Y-172359200D03*
X322010000Y-182542500D03*
X318710000Y-179996700D03*
X323110000Y-179996700D03*
X318710000Y-172359200D03*
X322010000Y-159630000D03*
X322010000Y-178723700D03*
X317285000Y-160280000D03*
X322010000Y-173632100D03*
X318710000Y-181269600D03*
X317610000Y-167267500D03*
X317285000Y-184030000D03*
%TO.N,/4S_B+*%
X317285000Y-142030000D03*
X316047500Y-138730000D03*
X312335000Y-140930000D03*
X314810000Y-138730000D03*
X316047500Y-137630000D03*
X313572500Y-138730000D03*
X314810000Y-139830000D03*
X312335000Y-136530000D03*
X314810000Y-140930000D03*
X313572500Y-139830000D03*
X313572500Y-137630000D03*
X313572500Y-142030000D03*
X316047500Y-142030000D03*
X314810000Y-142030000D03*
X312335000Y-138730000D03*
X313572500Y-140930000D03*
X312335000Y-139830000D03*
X313572500Y-136530000D03*
X316047500Y-139830000D03*
X312335000Y-142030000D03*
X317285000Y-136530000D03*
X314810000Y-137630000D03*
X312335000Y-137630000D03*
X316047500Y-136530000D03*
X314810000Y-136530000D03*
X316047500Y-140930000D03*
%TO.N,/4S_B-*%
X316047500Y-213280000D03*
X312335000Y-211080000D03*
X312335000Y-207780000D03*
X313572500Y-213280000D03*
X316047500Y-211080000D03*
X314810000Y-207780000D03*
X312335000Y-213280000D03*
X316047500Y-212180000D03*
X316047500Y-208880000D03*
X314810000Y-212180000D03*
X313572500Y-207780000D03*
X314810000Y-211080000D03*
X313572500Y-208880000D03*
X314810000Y-213280000D03*
X314810000Y-208880000D03*
X313572500Y-211080000D03*
X314810000Y-209980000D03*
X312335000Y-208880000D03*
X317285000Y-207780000D03*
X316047500Y-207780000D03*
X317285000Y-213280000D03*
X316047500Y-209980000D03*
X312335000Y-209980000D03*
X313572500Y-212180000D03*
X313572500Y-209980000D03*
X312335000Y-212180000D03*
%TD*%
%TO.N,Net-(BT2--)*%
D18*
X216000000Y-163030000D02*
X246900000Y-163030000D01*
X216000000Y-135000000D02*
X216000000Y-167030000D01*
X216000000Y-139280000D02*
X246900000Y-139280000D01*
X246900000Y-136740000D02*
X246900000Y-141820000D01*
X246900000Y-160490000D02*
X246900000Y-165570000D01*
%TO.N,/1S_B+*%
X218680000Y-84710000D02*
X218680000Y-89790000D01*
X218680000Y-87250000D02*
X249580000Y-87250000D01*
%TO.N,/1S_B-*%
X176120000Y-87250000D02*
X145220000Y-87250000D01*
X176120000Y-84710000D02*
X176120000Y-89790000D01*
%TO.N,/4P_B-*%
X66000000Y-222000000D02*
X74380000Y-222000000D01*
X105280000Y-160490000D02*
X105280000Y-165570000D01*
X105280000Y-184240000D02*
X105280000Y-189320000D01*
X74380000Y-139280000D02*
X105280000Y-139280000D01*
X74380000Y-210530000D02*
X105280000Y-210530000D01*
X105280000Y-136740000D02*
X105280000Y-141820000D01*
X74380000Y-135000000D02*
X74380000Y-222000000D01*
X74380000Y-186780000D02*
X105280000Y-186780000D01*
X74380000Y-163030000D02*
X105280000Y-163030000D01*
X105280000Y-207990000D02*
X105280000Y-213070000D01*
%TO.N,/4P_B+*%
X147840000Y-136740000D02*
X147840000Y-141820000D01*
X147840000Y-139280000D02*
X178740000Y-139280000D01*
X178740000Y-135000000D02*
X178740000Y-222000000D01*
X147840000Y-186780000D02*
X178740000Y-186780000D01*
X178740000Y-222000000D02*
X187120000Y-222000000D01*
X147840000Y-207990000D02*
X147840000Y-213070000D01*
X147840000Y-210530000D02*
X178740000Y-210530000D01*
X147840000Y-160490000D02*
X147840000Y-165570000D01*
X147840000Y-163030000D02*
X178740000Y-163030000D01*
X147840000Y-184240000D02*
X147840000Y-189320000D01*
%TO.N,Net-(BT4--)*%
X216000000Y-186780000D02*
X246900000Y-186780000D01*
X216000000Y-182780000D02*
X216000000Y-214800000D01*
X246900000Y-184240000D02*
X246900000Y-189320000D01*
X246900000Y-207990000D02*
X246900000Y-213070000D01*
X216000000Y-210530000D02*
X246900000Y-210530000D01*
%TO.N,Net-(BT3--)*%
X289460000Y-184240000D02*
X289460000Y-189320000D01*
X289460000Y-160490000D02*
X289460000Y-165570000D01*
X289460000Y-186780000D02*
X320360000Y-186780000D01*
X320360000Y-159030000D02*
X320360000Y-190780000D01*
X289460000Y-163030000D02*
X320360000Y-163030000D01*
%TO.N,/4S_B+*%
X289460000Y-139280000D02*
X320360000Y-139280000D01*
X289460000Y-136740000D02*
X289460000Y-141820000D01*
X320360000Y-135280000D02*
X320360000Y-143280000D01*
%TO.N,/4S_B-*%
X289460000Y-210530000D02*
X320360000Y-210530000D01*
X289460000Y-207990000D02*
X289460000Y-213070000D01*
X320360000Y-206530000D02*
X320360000Y-214530000D01*
%TD*%
M02*
