%TF.GenerationSoftware,KiCad,Pcbnew,10.0.5*%
%TF.CreationDate,2026-09-18T09:32:02+05:30*%
%TF.ProjectId,ACIR-Learning-Kit-1-PCB,41434952-2d4c-4656-9172-6e696e672d4b,v2.0*%
%TF.SameCoordinates,Original*%
%TF.FileFunction,Soldermask,Bot*%
%TF.FilePolarity,Negative*%
%FSLAX46Y46*%
G04 Gerber Fmt 4.6, Leading zero omitted, Abs format (unit mm)*
G04 Created by KiCad (PCBNEW 10.0.5) date 2026-09-18 09:32:02*
%MOMM*%
%LPD*%
G01*
G04 APERTURE LIST*
G04 Aperture macros list*
%AMFreePoly0*
4,1,27,7.405000,-3.675000,-0.365000,-3.675000,-0.365000,-1.710052,-0.562519,-1.657128,-0.774005,-1.569527,-0.972248,-1.455072,-1.153855,-1.315720,-1.315720,-1.153855,-1.455072,-0.972248,-1.569527,-0.774005,-1.657128,-0.562519,-1.716374,-0.341408,-1.746253,-0.114455,-1.746253,0.114455,-1.716374,0.341408,-1.657128,0.562519,-1.569527,0.774005,-1.455072,0.972248,-1.315720,1.153855,-1.153855,1.315720,
-0.972248,1.455072,-0.774005,1.569527,-0.562519,1.657128,-0.365000,1.710052,-0.365000,3.675000,7.405000,3.675000,7.405000,-3.675000,7.405000,-3.675000,$1*%
%AMFreePoly1*
4,1,27,0.365000,1.710052,0.562519,1.657128,0.774005,1.569527,0.972248,1.455072,1.153855,1.315720,1.315720,1.153855,1.455072,0.972248,1.569527,0.774005,1.657128,0.562519,1.716374,0.341408,1.746253,0.114455,1.746253,-0.114455,1.716374,-0.341408,1.657128,-0.562519,1.569527,-0.774005,1.455072,-0.972248,1.315720,-1.153855,1.153855,-1.315720,0.972248,-1.455072,0.774005,-1.569527,
0.562519,-1.657128,0.365000,-1.710052,0.365000,-3.675000,-7.405000,-3.675000,-7.405000,3.675000,0.365000,3.675000,0.365000,1.710052,0.365000,1.710052,$1*%
G04 Aperture macros list end*
%ADD10C,3.450000*%
%ADD11C,2.400000*%
%ADD12C,2.800000*%
%ADD13O,4.500000X3.200000*%
%ADD14FreePoly0,0.000000*%
%ADD15FreePoly1,0.000000*%
%ADD16C,3.200000*%
G04 APERTURE END LIST*
D10*
%TO.C,BT1*%
X169800000Y-95250000D03*
X225000000Y-79250000D03*
D11*
X233240000Y-95250000D03*
D12*
X218680000Y-84710000D03*
X218680000Y-89790000D03*
D13*
X225750000Y-87250000D03*
D14*
X233510000Y-87250000D03*
D15*
X161290000Y-87250000D03*
D13*
X169050000Y-87250000D03*
D12*
X176120000Y-84710000D03*
X176120000Y-89790000D03*
%TD*%
D10*
%TO.C,BT8*%
X98960000Y-194780000D03*
X154160000Y-178780000D03*
D11*
X162400000Y-194780000D03*
D12*
X147840000Y-184240000D03*
X147840000Y-189320000D03*
D13*
X154910000Y-186780000D03*
D14*
X162670000Y-186780000D03*
D15*
X90450000Y-186780000D03*
D13*
X98210000Y-186780000D03*
D12*
X105280000Y-184240000D03*
X105280000Y-189320000D03*
%TD*%
D16*
%TO.C,H5*%
X197400000Y-244900000D03*
%TD*%
%TO.C,H6*%
X197400000Y-44900000D03*
%TD*%
D10*
%TO.C,BT4*%
X240580000Y-194780000D03*
X295780000Y-178780000D03*
D11*
X304020000Y-194780000D03*
D12*
X289460000Y-184240000D03*
X289460000Y-189320000D03*
D13*
X296530000Y-186780000D03*
D14*
X304290000Y-186780000D03*
D15*
X232070000Y-186780000D03*
D13*
X239830000Y-186780000D03*
D12*
X246900000Y-184240000D03*
X246900000Y-189320000D03*
%TD*%
D10*
%TO.C,BT7*%
X98960000Y-171030000D03*
X154160000Y-155030000D03*
D11*
X162400000Y-171030000D03*
D12*
X147840000Y-160490000D03*
X147840000Y-165570000D03*
D13*
X154910000Y-163030000D03*
D14*
X162670000Y-163030000D03*
D15*
X90450000Y-163030000D03*
D13*
X98210000Y-163030000D03*
D12*
X105280000Y-160490000D03*
X105280000Y-165570000D03*
%TD*%
D16*
%TO.C,H8*%
X53900000Y-144900000D03*
%TD*%
D10*
%TO.C,BT9*%
X98960000Y-218530000D03*
X154160000Y-202530000D03*
D11*
X162400000Y-218530000D03*
D12*
X147840000Y-207990000D03*
X147840000Y-213070000D03*
D13*
X154910000Y-210530000D03*
D14*
X162670000Y-210530000D03*
D15*
X90450000Y-210530000D03*
D13*
X98210000Y-210530000D03*
D12*
X105280000Y-207990000D03*
X105280000Y-213070000D03*
%TD*%
D10*
%TO.C,BT2*%
X240580000Y-147280000D03*
X295780000Y-131280000D03*
D11*
X304020000Y-147280000D03*
D12*
X289460000Y-136740000D03*
X289460000Y-141820000D03*
D13*
X296530000Y-139280000D03*
D14*
X304290000Y-139280000D03*
D15*
X232070000Y-139280000D03*
D13*
X239830000Y-139280000D03*
D12*
X246900000Y-136740000D03*
X246900000Y-141820000D03*
%TD*%
D16*
%TO.C,H7*%
X340900000Y-144900000D03*
%TD*%
D10*
%TO.C,BT5*%
X295780000Y-202530000D03*
X240580000Y-218530000D03*
D11*
X232340000Y-202530000D03*
D12*
X246900000Y-213070000D03*
X246900000Y-207990000D03*
D13*
X239830000Y-210530000D03*
X296530000Y-210530000D03*
D12*
X289460000Y-213070000D03*
X289460000Y-207990000D03*
%TD*%
D16*
%TO.C,H2*%
X340900000Y-44900000D03*
%TD*%
D10*
%TO.C,BT3*%
X295780000Y-155030000D03*
X240580000Y-171030000D03*
D11*
X232340000Y-155030000D03*
D12*
X246900000Y-165570000D03*
X246900000Y-160490000D03*
D13*
X239830000Y-163030000D03*
X296530000Y-163030000D03*
D12*
X289460000Y-165570000D03*
X289460000Y-160490000D03*
%TD*%
D16*
%TO.C,H1*%
X53900000Y-44900000D03*
%TD*%
D10*
%TO.C,BT6*%
X98960000Y-147280000D03*
X154160000Y-131280000D03*
D11*
X162400000Y-147280000D03*
D12*
X147840000Y-136740000D03*
X147840000Y-141820000D03*
D13*
X154910000Y-139280000D03*
D14*
X162670000Y-139280000D03*
D15*
X90450000Y-139280000D03*
D13*
X98210000Y-139280000D03*
D12*
X105280000Y-136740000D03*
X105280000Y-141820000D03*
%TD*%
D16*
%TO.C,H4*%
X53900000Y-244900000D03*
%TD*%
%TO.C,H3*%
X340900000Y-244900000D03*
%TD*%
M02*
