M48
; DRILL file KiCad 10.0.5 date 2026-09-17T13:13:45
; FORMAT={-:-/ absolute / metric / decimal}
; #@! TF.CreationDate,2026-09-17T13:13:45+05:30
; #@! TF.GenerationSoftware,Kicad,Pcbnew,10.0.5
; #@! TF.FileFunction,MixedPlating,1,2
FMAT,2
METRIC
; #@! TA.AperFunction,Plated,PTH,ViaDrill
T1C0.400
; #@! TA.AperFunction,Plated,PTH,ComponentDrill
T2C1.830
; #@! TA.AperFunction,Plated,PTH,ComponentDrill
T3C2.500
; #@! TA.AperFunction,NonPlated,NPTH,ComponentDrill
T4C2.400
; #@! TA.AperFunction,NonPlated,NPTH,ComponentDrill
T5C3.200
; #@! TA.AperFunction,NonPlated,NPTH,ComponentDrill
T6C3.450
%
G90
G05
T1
X72.18Y-143.5
X72.18Y-145.5
X72.18Y-147.5
X72.18Y-149.5
X72.18Y-151.5
X72.18Y-153.5
X72.18Y-155.5
X72.18Y-157.5
X72.18Y-159.0
X76.58Y-143.5
X76.58Y-145.5
X76.58Y-147.5
X76.58Y-149.5
X76.58Y-151.5
X76.58Y-153.5
X76.58Y-155.5
X76.58Y-157.5
X76.58Y-159.0
X78.5Y-137.28
X78.5Y-141.28
X78.5Y-161.03
X78.5Y-165.03
X80.5Y-137.28
X80.5Y-141.28
X80.5Y-161.03
X80.5Y-165.03
X82.5Y-137.28
X82.5Y-141.28
X82.5Y-161.03
X82.5Y-165.03
X84.5Y-137.28
X84.5Y-141.28
X84.5Y-161.03
X84.5Y-165.03
X86.5Y-137.28
X86.5Y-141.28
X86.5Y-161.03
X86.5Y-165.03
X88.5Y-137.28
X88.5Y-141.28
X88.5Y-161.03
X88.5Y-165.03
X90.5Y-137.28
X90.5Y-141.28
X90.5Y-161.03
X90.5Y-165.03
X92.5Y-137.28
X92.5Y-141.28
X92.5Y-161.03
X92.5Y-165.03
X94.5Y-137.28
X94.5Y-141.28
X94.5Y-161.03
X94.5Y-165.03
X96.5Y-137.28
X96.5Y-141.28
X96.5Y-161.03
X96.5Y-165.03
X98.5Y-137.28
X98.5Y-141.28
X98.5Y-161.03
X98.5Y-165.03
X100.5Y-137.28
X100.5Y-141.28
X100.5Y-161.03
X100.5Y-165.03
X149.5Y-80.86
X149.5Y-83.86
X151.5Y-80.86
X151.5Y-83.86
X151.5Y-137.48
X151.5Y-141.08
X151.5Y-208.73
X151.5Y-212.33
X153.5Y-80.86
X153.5Y-83.86
X153.5Y-137.48
X153.5Y-141.08
X153.5Y-208.73
X153.5Y-212.33
X155.5Y-80.86
X155.5Y-83.86
X155.5Y-137.48
X155.5Y-141.08
X155.5Y-208.73
X155.5Y-212.33
X157.5Y-80.86
X157.5Y-83.86
X157.5Y-137.48
X157.5Y-141.08
X157.5Y-208.73
X157.5Y-212.33
X159.5Y-80.86
X159.5Y-83.86
X159.5Y-137.48
X159.5Y-141.08
X159.5Y-208.73
X159.5Y-212.33
X161.5Y-80.86
X161.5Y-83.86
X161.5Y-137.48
X161.5Y-141.08
X161.5Y-208.73
X161.5Y-212.33
X163.5Y-80.86
X163.5Y-83.86
X163.5Y-137.48
X163.5Y-141.08
X163.5Y-208.73
X163.5Y-212.33
X165.5Y-80.86
X165.5Y-83.86
X165.5Y-137.48
X165.5Y-141.08
X165.5Y-208.73
X165.5Y-212.33
X167.5Y-80.86
X167.5Y-83.86
X167.5Y-137.48
X167.5Y-141.08
X167.5Y-208.73
X167.5Y-212.33
X169.5Y-80.86
X169.5Y-83.86
X169.5Y-137.48
X169.5Y-141.08
X169.5Y-208.73
X169.5Y-212.33
X171.5Y-80.86
X171.5Y-83.86
X171.5Y-137.48
X171.5Y-141.08
X171.5Y-208.73
X171.5Y-212.33
X173.2Y-91.03
X173.2Y-94.03
X173.5Y-80.86
X173.5Y-83.86
X173.5Y-137.48
X173.5Y-141.08
X173.5Y-208.73
X173.5Y-212.33
X175.2Y-91.03
X175.2Y-94.03
X175.5Y-80.86
X175.5Y-83.86
X177.2Y-91.03
X177.2Y-94.03
X177.5Y-80.86
X177.5Y-83.86
X179.2Y-91.03
X179.2Y-94.03
X179.5Y-80.86
X179.5Y-83.86
X181.2Y-91.03
X181.2Y-94.03
X181.5Y-80.86
X181.5Y-83.86
X183.2Y-91.03
X183.2Y-94.03
X183.5Y-80.86
X183.5Y-83.86
X185.2Y-91.03
X185.2Y-94.03
X185.5Y-80.86
X185.5Y-83.86
X187.2Y-91.03
X187.2Y-94.03
X187.4Y-98.68
X187.4Y-101.68
X187.5Y-80.86
X187.5Y-83.86
X189.2Y-91.03
X189.2Y-94.03
X189.4Y-98.68
X189.4Y-101.68
X189.5Y-80.86
X189.5Y-83.86
X191.2Y-91.03
X191.2Y-94.03
X191.4Y-98.68
X191.4Y-101.68
X191.5Y-80.86
X191.5Y-83.86
X193.2Y-91.03
X193.2Y-94.03
X193.4Y-98.68
X193.4Y-101.68
X193.5Y-80.86
X193.5Y-83.86
X195.2Y-91.03
X195.2Y-94.03
X195.4Y-98.68
X195.4Y-101.68
X195.5Y-80.86
X195.5Y-83.86
X197.2Y-91.03
X197.2Y-94.03
X197.4Y-98.68
X197.4Y-101.68
X197.5Y-80.86
X197.5Y-83.86
X199.2Y-91.03
X199.2Y-94.03
X199.4Y-98.68
X199.4Y-101.68
X199.5Y-80.86
X199.5Y-83.86
X201.2Y-91.03
X201.2Y-94.03
X201.4Y-98.68
X201.4Y-101.68
X201.5Y-80.86
X201.5Y-83.86
X203.2Y-91.03
X203.2Y-94.03
X203.4Y-98.68
X203.4Y-101.68
X203.5Y-80.86
X203.5Y-83.86
X205.2Y-91.03
X205.2Y-94.03
X205.4Y-98.68
X205.4Y-101.68
X205.5Y-80.86
X205.5Y-83.86
X207.2Y-91.03
X207.2Y-94.03
X207.4Y-98.68
X207.4Y-101.68
X207.5Y-80.86
X207.5Y-83.86
X209.2Y-91.03
X209.2Y-94.03
X209.4Y-98.68
X209.4Y-101.68
X209.5Y-80.86
X209.5Y-83.86
X211.2Y-91.03
X211.2Y-94.03
X211.4Y-98.68
X211.4Y-101.68
X211.5Y-80.86
X211.5Y-83.86
X213.2Y-91.03
X213.2Y-94.03
X213.4Y-98.68
X213.4Y-101.68
X213.5Y-80.86
X213.5Y-83.86
X214.5Y-143.5
X214.5Y-145.5
X214.5Y-147.5
X214.5Y-149.5
X214.5Y-151.5
X214.5Y-153.5
X214.5Y-155.5
X214.5Y-157.5
X214.5Y-159.0
X214.5Y-191.0
X214.5Y-193.0
X214.5Y-195.0
X214.5Y-197.0
X214.5Y-199.0
X214.5Y-201.0
X214.5Y-203.0
X214.5Y-205.0
X214.5Y-206.5
X215.2Y-91.03
X215.2Y-94.03
X215.4Y-98.68
X215.4Y-101.68
X215.5Y-80.86
X215.5Y-83.86
X217.2Y-91.03
X217.2Y-94.03
X217.5Y-80.86
X217.5Y-83.86
X217.5Y-143.5
X217.5Y-145.5
X217.5Y-147.5
X217.5Y-149.5
X217.5Y-151.5
X217.5Y-153.5
X217.5Y-155.5
X217.5Y-157.5
X217.5Y-159.0
X217.5Y-191.0
X217.5Y-193.0
X217.5Y-195.0
X217.5Y-197.0
X217.5Y-199.0
X217.5Y-201.0
X217.5Y-203.0
X217.5Y-205.0
X217.5Y-206.5
X219.2Y-91.03
X219.2Y-94.03
X219.5Y-80.86
X219.5Y-83.86
X220.0Y-137.48
X220.0Y-141.08
X220.0Y-161.23
X220.0Y-164.83
X220.0Y-184.98
X220.0Y-188.58
X220.0Y-208.73
X220.0Y-212.33
X221.2Y-91.03
X221.2Y-94.03
X221.5Y-80.86
X221.5Y-83.86
X222.0Y-137.48
X222.0Y-141.08
X222.0Y-161.23
X222.0Y-164.83
X222.0Y-184.98
X222.0Y-188.58
X222.0Y-208.73
X222.0Y-212.33
X223.5Y-80.86
X223.5Y-83.86
X224.0Y-137.48
X224.0Y-141.08
X224.0Y-161.23
X224.0Y-164.83
X224.0Y-184.98
X224.0Y-188.58
X224.0Y-208.73
X224.0Y-212.33
X225.5Y-80.86
X225.5Y-83.86
X226.0Y-137.48
X226.0Y-141.08
X226.0Y-161.23
X226.0Y-164.83
X226.0Y-184.98
X226.0Y-188.58
X226.0Y-208.73
X226.0Y-212.33
X227.5Y-80.86
X227.5Y-83.86
X228.0Y-137.48
X228.0Y-141.08
X228.0Y-161.23
X228.0Y-164.83
X228.0Y-184.98
X228.0Y-188.58
X228.0Y-208.73
X228.0Y-212.33
X229.5Y-80.86
X229.5Y-83.86
X230.0Y-137.48
X230.0Y-141.08
X230.0Y-161.23
X230.0Y-164.83
X230.0Y-184.98
X230.0Y-188.58
X230.0Y-208.73
X230.0Y-212.33
X231.5Y-80.86
X231.5Y-83.86
X232.0Y-137.48
X232.0Y-141.08
X232.0Y-161.23
X232.0Y-164.83
X232.0Y-184.98
X232.0Y-188.58
X232.0Y-208.73
X232.0Y-212.33
X233.5Y-80.86
X233.5Y-83.86
X234.0Y-137.48
X234.0Y-141.08
X234.0Y-161.23
X234.0Y-164.83
X234.0Y-184.98
X234.0Y-188.58
X234.0Y-208.73
X234.0Y-212.33
X235.5Y-80.86
X235.5Y-83.86
X236.0Y-137.48
X236.0Y-141.08
X236.0Y-161.23
X236.0Y-164.83
X236.0Y-184.98
X236.0Y-188.58
X236.0Y-208.73
X236.0Y-212.33
X237.5Y-80.86
X237.5Y-83.86
X238.0Y-137.48
X238.0Y-141.08
X238.0Y-161.23
X238.0Y-164.83
X238.0Y-184.98
X238.0Y-188.58
X238.0Y-208.73
X238.0Y-212.33
X239.5Y-80.86
X239.5Y-83.86
X240.0Y-137.48
X240.0Y-141.08
X240.0Y-161.23
X240.0Y-164.83
X240.0Y-184.98
X240.0Y-188.58
X240.0Y-208.73
X240.0Y-212.33
X241.5Y-80.86
X241.5Y-83.86
X242.0Y-137.48
X242.0Y-141.08
X242.0Y-161.23
X242.0Y-164.83
X242.0Y-184.98
X242.0Y-188.58
X242.0Y-208.73
X242.0Y-212.33
X243.5Y-80.86
X243.5Y-83.86
X245.5Y-80.86
X245.5Y-83.86
X293.4Y-137.48
X293.4Y-141.08
X293.4Y-161.23
X293.4Y-164.83
X293.4Y-184.98
X293.4Y-188.58
X293.4Y-208.73
X293.4Y-212.33
X295.4Y-137.48
X295.4Y-141.08
X295.4Y-161.23
X295.4Y-164.83
X295.4Y-184.98
X295.4Y-188.58
X295.4Y-208.73
X295.4Y-212.33
X297.4Y-137.48
X297.4Y-141.08
X297.4Y-161.23
X297.4Y-164.83
X297.4Y-184.98
X297.4Y-188.58
X297.4Y-208.73
X297.4Y-212.33
X299.4Y-137.48
X299.4Y-141.08
X299.4Y-161.23
X299.4Y-164.83
X299.4Y-184.98
X299.4Y-188.58
X299.4Y-208.73
X299.4Y-212.33
X301.4Y-137.48
X301.4Y-141.08
X301.4Y-161.23
X301.4Y-164.83
X301.4Y-184.98
X301.4Y-188.58
X301.4Y-208.73
X301.4Y-212.33
X303.4Y-137.48
X303.4Y-141.08
X303.4Y-161.23
X303.4Y-164.83
X303.4Y-184.98
X303.4Y-188.58
X303.4Y-208.73
X303.4Y-212.33
X305.4Y-137.48
X305.4Y-141.08
X305.4Y-161.23
X305.4Y-164.83
X305.4Y-184.98
X305.4Y-188.58
X305.4Y-208.73
X305.4Y-212.33
X307.4Y-137.48
X307.4Y-141.08
X307.4Y-161.23
X307.4Y-164.83
X307.4Y-184.98
X307.4Y-188.58
X307.4Y-208.73
X307.4Y-212.33
X309.4Y-137.48
X309.4Y-141.08
X309.4Y-161.23
X309.4Y-164.83
X309.4Y-184.98
X309.4Y-188.58
X309.4Y-208.73
X309.4Y-212.33
X311.4Y-137.48
X311.4Y-141.08
X311.4Y-161.23
X311.4Y-164.83
X311.4Y-184.98
X311.4Y-188.58
X311.4Y-208.73
X311.4Y-212.33
X313.4Y-137.48
X313.4Y-141.08
X313.4Y-161.23
X313.4Y-164.83
X313.4Y-184.98
X313.4Y-188.58
X313.4Y-208.73
X313.4Y-212.33
X315.4Y-137.48
X315.4Y-141.08
X315.4Y-161.23
X315.4Y-164.83
X315.4Y-184.98
X315.4Y-188.58
X315.4Y-208.73
X315.4Y-212.33
X318.86Y-167.2
X318.86Y-169.2
X318.86Y-171.2
X318.86Y-173.2
X318.86Y-175.2
X318.86Y-177.2
X318.86Y-179.2
X318.86Y-181.2
X318.86Y-182.8
X321.86Y-167.2
X321.86Y-169.2
X321.86Y-171.2
X321.86Y-173.2
X321.86Y-175.2
X321.86Y-177.2
X321.86Y-179.2
X321.86Y-181.2
X321.86Y-182.8
T2
X105.28Y-136.74
X105.28Y-141.82
X105.28Y-160.49
X105.28Y-165.57
X105.28Y-184.24
X105.28Y-189.32
X105.28Y-207.99
X105.28Y-213.07
X147.84Y-136.74
X147.84Y-141.82
X147.84Y-160.49
X147.84Y-165.57
X147.84Y-184.24
X147.84Y-189.32
X147.84Y-207.99
X147.84Y-213.07
X246.9Y-136.74
X246.9Y-141.82
X246.9Y-160.49
X246.9Y-165.57
X246.9Y-184.24
X246.9Y-189.32
X246.9Y-207.99
X246.9Y-213.07
X289.46Y-136.74
X289.46Y-141.82
X289.46Y-160.49
X289.46Y-165.57
X289.46Y-184.24
X289.46Y-189.32
X289.46Y-207.99
X289.46Y-213.07
T3
X90.45Y-139.28
X90.45Y-163.03
X90.45Y-186.78
X90.45Y-210.53
X162.67Y-139.28
X162.67Y-163.03
X162.67Y-186.78
X162.67Y-210.53
X232.07Y-139.28
X232.07Y-163.03
X232.07Y-186.78
X232.07Y-210.53
X304.29Y-139.28
X304.29Y-163.03
X304.29Y-186.78
X304.29Y-210.53
T4
X90.72Y-155.03
X90.72Y-202.53
X162.4Y-147.28
X162.4Y-194.78
X232.34Y-155.03
X232.34Y-202.53
X304.02Y-147.28
X304.02Y-194.78
T5
X53.9Y-44.9
X53.9Y-144.9
X53.9Y-244.9
X197.4Y-44.9
X197.4Y-244.9
X340.9Y-44.9
X340.9Y-144.9
X340.9Y-244.9
T6
X98.96Y-147.28
X98.96Y-171.03
X98.96Y-194.78
X98.96Y-218.53
X154.16Y-131.28
X154.16Y-155.03
X154.16Y-178.78
X154.16Y-202.53
X240.58Y-147.28
X240.58Y-171.03
X240.58Y-194.78
X240.58Y-218.53
X295.78Y-131.28
X295.78Y-155.03
X295.78Y-178.78
X295.78Y-202.53
M30
