%TF.GenerationSoftware,KiCad,Pcbnew,10.0.5*%
%TF.CreationDate,2026-09-18T09:32:21+05:30*%
%TF.ProjectId,ACIR-Learning-Kit-2-PCB,41434952-2d4c-4656-9172-6e696e672d4b,v2.0*%
%TF.SameCoordinates,Original*%
%TF.FileFunction,Copper,L1,Top*%
%TF.FilePolarity,Positive*%
%FSLAX46Y46*%
G04 Gerber Fmt 4.6, Leading zero omitted, Abs format (unit mm)*
G04 Created by KiCad (PCBNEW 10.0.5) date 2026-09-18 09:32:21*
%MOMM*%
%LPD*%
G01*
G04 APERTURE LIST*
G04 Aperture macros list*
%AMFreePoly0*
4,1,27,7.405000,-3.675000,-0.365000,-3.675000,-0.365000,-1.710052,-0.562519,-1.657128,-0.774005,-1.569527,-0.972248,-1.455072,-1.153855,-1.315720,-1.315720,-1.153855,-1.455072,-0.972248,-1.569527,-0.774005,-1.657128,-0.562519,-1.716374,-0.341408,-1.746253,-0.114455,-1.746253,0.114455,-1.716374,0.341408,-1.657128,0.562519,-1.569527,0.774005,-1.455072,0.972248,-1.315720,1.153855,-1.153855,1.315720,
-0.972248,1.455072,-0.774005,1.569527,-0.562519,1.657128,-0.365000,1.710052,-0.365000,3.675000,7.405000,3.675000,7.405000,-3.675000,7.405000,-3.675000,$1*%
%AMFreePoly1*
4,1,27,0.365000,1.710052,0.562519,1.657128,0.774005,1.569527,0.972248,1.455072,1.153855,1.315720,1.315720,1.153855,1.455072,0.972248,1.569527,0.774005,1.657128,0.562519,1.716374,0.341408,1.746253,0.114455,1.746253,-0.114455,1.716374,-0.341408,1.657128,-0.562519,1.569527,-0.774005,1.455072,-0.972248,1.315720,-1.153855,1.153855,-1.315720,0.972248,-1.455072,0.774005,-1.569527,
0.562519,-1.657128,0.365000,-1.710052,0.365000,-3.675000,-7.405000,-3.675000,-7.405000,3.675000,0.365000,3.675000,0.365000,1.710052,0.365000,1.710052,$1*%
G04 Aperture macros list end*
%TA.AperFunction,SMDPad,CuDef*%
%ADD10C,6.000000*%
%TD*%
%TA.AperFunction,ComponentPad*%
%ADD11C,2.800000*%
%TD*%
%TA.AperFunction,ComponentPad*%
%ADD12O,4.500000X3.200000*%
%TD*%
%TA.AperFunction,ComponentPad*%
%ADD13FreePoly0,0.000000*%
%TD*%
%TA.AperFunction,ComponentPad*%
%ADD14FreePoly1,0.000000*%
%TD*%
%TA.AperFunction,SMDPad,CuDef*%
%ADD15R,7.770000X7.350000*%
%TD*%
%TA.AperFunction,ViaPad*%
%ADD16C,0.800000*%
%TD*%
%TA.AperFunction,Conductor*%
%ADD17C,6.000000*%
%TD*%
%TA.AperFunction,Conductor*%
%ADD18C,8.000000*%
%TD*%
%TA.AperFunction,Conductor*%
%ADD19C,2.000000*%
%TD*%
%TA.AperFunction,Conductor*%
%ADD20C,0.800000*%
%TD*%
%TA.AperFunction,Conductor*%
%ADD21C,3.000000*%
%TD*%
%TA.AperFunction,Conductor*%
%ADD22C,4.000000*%
%TD*%
G04 APERTURE END LIST*
D10*
%TO.P,P4,1,Pin_1_1*%
%TO.N,Net-(J21-Pin_1)*%
X229400000Y-90000000D03*
%TD*%
%TO.P,J7,1,Pin_1_1*%
%TO.N,Net-(BT2--)*%
X216000000Y-139280000D03*
%TD*%
%TO.P,J17,1,Pin_1_1*%
%TO.N,Net-(BT8--)*%
X74380000Y-210530000D03*
%TD*%
D11*
%TO.P,BT8,1,+_1*%
%TO.N,Net-(BT7--)*%
X147840000Y-184240000D03*
X147840000Y-189320000D03*
D12*
X154910000Y-186780000D03*
D13*
X162670000Y-186780000D03*
D14*
%TO.P,BT8,2,-_2*%
%TO.N,Net-(BT8--)*%
X90450000Y-186780000D03*
D12*
X98210000Y-186780000D03*
D11*
X105280000Y-184240000D03*
X105280000Y-189320000D03*
%TD*%
D10*
%TO.P,J14,1,Pin_1_1*%
%TO.N,Net-(BT7--)*%
X178740000Y-186780000D03*
%TD*%
%TO.P,J9,1,Pin_1_1*%
%TO.N,Net-(BT4--)*%
X216000000Y-186780000D03*
%TD*%
%TO.P,J19,1,Pin_1_1*%
%TO.N,Net-(BT3--)*%
X320360000Y-186780000D03*
%TD*%
%TO.P,J13,1,Pin_1_1*%
%TO.N,Net-(BT6--)*%
X74380000Y-163030000D03*
%TD*%
D11*
%TO.P,BT4,1,+_1*%
%TO.N,Net-(BT3--)*%
X289460000Y-184240000D03*
X289460000Y-189320000D03*
D12*
X296530000Y-186780000D03*
D13*
X304290000Y-186780000D03*
D14*
%TO.P,BT4,2,-_2*%
%TO.N,Net-(BT4--)*%
X232070000Y-186780000D03*
D12*
X239830000Y-186780000D03*
D11*
X246900000Y-184240000D03*
X246900000Y-189320000D03*
%TD*%
%TO.P,BT7,1,+_1*%
%TO.N,Net-(BT6--)*%
X105280000Y-165570000D03*
X105280000Y-160490000D03*
D12*
X98210000Y-163030000D03*
D15*
X86930000Y-163030000D03*
%TO.P,BT7,2,-_2*%
%TO.N,Net-(BT7--)*%
X166190000Y-163030000D03*
D12*
X154910000Y-163030000D03*
D11*
X147840000Y-165570000D03*
X147840000Y-160490000D03*
%TD*%
D10*
%TO.P,P6,1,Pin_1_1*%
%TO.N,Net-(J23-Pin_1)*%
X213400000Y-99000000D03*
%TD*%
%TO.P,J18,1,Pin_1_1*%
%TO.N,Net-(BT2--)*%
X216000000Y-163030000D03*
%TD*%
%TO.P,J3,1,Pin_1_1*%
%TO.N,/4S_B+*%
X320360000Y-139280000D03*
%TD*%
%TO.P,P2,1,Pin_1_1*%
%TO.N,Net-(J1-Pin_1)*%
X249400000Y-81000000D03*
%TD*%
%TO.P,P3,1,Pin_1_1*%
%TO.N,Net-(J21-Pin_1)*%
X165400000Y-90000000D03*
%TD*%
D11*
%TO.P,BT9,1,+_1*%
%TO.N,Net-(BT8--)*%
X105280000Y-213070000D03*
X105280000Y-207990000D03*
D12*
X98210000Y-210530000D03*
D15*
X86930000Y-210530000D03*
%TO.P,BT9,2,-_2*%
%TO.N,Net-(BT9--)*%
X166190000Y-210530000D03*
D12*
X154910000Y-210530000D03*
D11*
X147840000Y-213070000D03*
X147840000Y-207990000D03*
%TD*%
D10*
%TO.P,J16,1,Pin_1_1*%
%TO.N,Net-(BT9--)*%
X178740000Y-210530000D03*
%TD*%
D11*
%TO.P,BT2,1,+_1*%
%TO.N,/4S_B+*%
X289460000Y-136740000D03*
X289460000Y-141820000D03*
D12*
X296530000Y-139280000D03*
D13*
X304290000Y-139280000D03*
D14*
%TO.P,BT2,2,-_2*%
%TO.N,Net-(BT2--)*%
X232070000Y-139280000D03*
D12*
X239830000Y-139280000D03*
D11*
X246900000Y-136740000D03*
X246900000Y-141820000D03*
%TD*%
D10*
%TO.P,J15,1,Pin_1_1*%
%TO.N,Net-(BT8--)*%
X74380000Y-186780000D03*
%TD*%
D11*
%TO.P,BT5,1,+_1*%
%TO.N,Net-(BT4--)*%
X246900000Y-213070000D03*
X246900000Y-207990000D03*
D12*
X239830000Y-210530000D03*
D15*
X228550000Y-210530000D03*
%TO.P,BT5,2,-_2*%
%TO.N,/4S_B-*%
X307810000Y-210530000D03*
D12*
X296530000Y-210530000D03*
D11*
X289460000Y-213070000D03*
X289460000Y-207990000D03*
%TD*%
D10*
%TO.P,P1,1,Pin_1_1*%
%TO.N,Net-(J1-Pin_1)*%
X145400000Y-81000000D03*
%TD*%
D11*
%TO.P,BT3,1,+_1*%
%TO.N,Net-(BT2--)*%
X246900000Y-165570000D03*
X246900000Y-160490000D03*
D12*
X239830000Y-163030000D03*
D15*
X228550000Y-163030000D03*
%TO.P,BT3,2,-_2*%
%TO.N,Net-(BT3--)*%
X307810000Y-163030000D03*
D12*
X296530000Y-163030000D03*
D11*
X289460000Y-165570000D03*
X289460000Y-160490000D03*
%TD*%
D10*
%TO.P,J8,1,Pin_1_1*%
%TO.N,Net-(BT3--)*%
X320360000Y-163030000D03*
%TD*%
%TO.P,J20,1,Pin_1_1*%
%TO.N,Net-(BT4--)*%
X216000000Y-210530000D03*
%TD*%
D11*
%TO.P,BT6,1,+_1*%
%TO.N,Net-(BT6-+)*%
X147840000Y-136740000D03*
X147840000Y-141820000D03*
D12*
X154910000Y-139280000D03*
D13*
X162670000Y-139280000D03*
D14*
%TO.P,BT6,2,-_2*%
%TO.N,Net-(BT6--)*%
X90450000Y-139280000D03*
D12*
X98210000Y-139280000D03*
D11*
X105280000Y-136740000D03*
X105280000Y-141820000D03*
%TD*%
D10*
%TO.P,J10,1,Pin_1_1*%
%TO.N,Net-(BT6-+)*%
X178740000Y-139280000D03*
%TD*%
%TO.P,J12,1,Pin_1_1*%
%TO.N,Net-(BT7--)*%
X178740000Y-163030000D03*
%TD*%
%TO.P,J11,1,Pin_1_1*%
%TO.N,Net-(BT6--)*%
X74380000Y-139280000D03*
%TD*%
%TO.P,J4,1,Pin_1_1*%
%TO.N,/4S_B-*%
X320360000Y-210530000D03*
%TD*%
%TO.P,P5,1,Pin_1_1*%
%TO.N,Net-(J23-Pin_1)*%
X181400000Y-99000000D03*
%TD*%
D16*
%TO.N,Net-(J21-Pin_1)*%
X195400000Y-91500000D03*
X179400000Y-91500000D03*
X177400000Y-88500000D03*
X205400000Y-88500000D03*
X175400000Y-91500000D03*
X181400000Y-88500000D03*
X223400000Y-88500000D03*
X197400000Y-91500000D03*
X191400000Y-88500000D03*
X221400000Y-88500000D03*
X181400000Y-91500000D03*
X201400000Y-88500000D03*
X199400000Y-91500000D03*
X189400000Y-91500000D03*
X173400000Y-91500000D03*
X213400000Y-91500000D03*
X225400000Y-88500000D03*
X169400000Y-88500000D03*
X217400000Y-91500000D03*
X179400000Y-88500000D03*
X197400000Y-88500000D03*
X185400000Y-91500000D03*
X171400000Y-91500000D03*
X215400000Y-91500000D03*
X201400000Y-91500000D03*
X173400000Y-88500000D03*
X217400000Y-88500000D03*
X189400000Y-88500000D03*
X211400000Y-91500000D03*
X203400000Y-88500000D03*
X171400000Y-88500000D03*
X203400000Y-91500000D03*
X209400000Y-91500000D03*
X225400000Y-91500000D03*
X223400000Y-91500000D03*
X169400000Y-91500000D03*
X207400000Y-88500000D03*
X183400000Y-91500000D03*
X191400000Y-91500000D03*
X177400000Y-91500000D03*
X193400000Y-91500000D03*
X213400000Y-88500000D03*
X187400000Y-88500000D03*
X195400000Y-88500000D03*
X193400000Y-88500000D03*
X211400000Y-88500000D03*
X187400000Y-91500000D03*
X219400000Y-91500000D03*
X207400000Y-91500000D03*
X209400000Y-88500000D03*
X221400000Y-91500000D03*
X215400000Y-88500000D03*
X183400000Y-88500000D03*
X175400000Y-88500000D03*
X205400000Y-91500000D03*
X199400000Y-88500000D03*
X219400000Y-88500000D03*
X185400000Y-88500000D03*
%TO.N,Net-(BT2--)*%
X220000000Y-164830000D03*
X222000000Y-141080000D03*
X214500000Y-149500000D03*
X214500000Y-159000000D03*
X217500000Y-155500000D03*
X217500000Y-149500000D03*
X217500000Y-151500000D03*
X214500000Y-153500000D03*
X214500000Y-157500000D03*
X217500000Y-147500000D03*
X220000000Y-141080000D03*
X217500000Y-143500000D03*
X214500000Y-145500000D03*
X220000000Y-137480000D03*
X217500000Y-153500000D03*
X217500000Y-157500000D03*
X214500000Y-147500000D03*
X214500000Y-155500000D03*
X217500000Y-145500000D03*
X217500000Y-159000000D03*
X222000000Y-137480000D03*
X222000000Y-164830000D03*
X220000000Y-161230000D03*
X222000000Y-161230000D03*
X214500000Y-143500000D03*
X214500000Y-151500000D03*
%TO.N,Net-(BT7--)*%
X178740000Y-183000000D03*
X178740000Y-177000000D03*
X172500000Y-186780000D03*
X178740000Y-171000000D03*
X178740000Y-181000000D03*
X178740000Y-167000000D03*
X178740000Y-179000000D03*
X174500000Y-163030000D03*
X178740000Y-175000000D03*
X178740000Y-169000000D03*
X174500000Y-186780000D03*
X178740000Y-173000000D03*
X172500000Y-163030000D03*
%TO.N,Net-(BT4--)*%
X222000000Y-208730000D03*
X214500000Y-205000000D03*
X214500000Y-197000000D03*
X214500000Y-203000000D03*
X214500000Y-195000000D03*
X217500000Y-197000000D03*
X222000000Y-212330000D03*
X220000000Y-208730000D03*
X222000000Y-188580000D03*
X217500000Y-195000000D03*
X214500000Y-206500000D03*
X217500000Y-203000000D03*
X214500000Y-199000000D03*
X214500000Y-201000000D03*
X214500000Y-191000000D03*
X220000000Y-212330000D03*
X217500000Y-206500000D03*
X217500000Y-191000000D03*
X217500000Y-201000000D03*
X220000000Y-188580000D03*
X217500000Y-193000000D03*
X222000000Y-184980000D03*
X220000000Y-184980000D03*
X217500000Y-199000000D03*
X214500000Y-193000000D03*
X217500000Y-205000000D03*
%TO.N,Net-(BT3--)*%
X318860000Y-175200000D03*
X321860000Y-175200000D03*
X313400000Y-161230000D03*
X313400000Y-188580000D03*
X318860000Y-177200000D03*
X315400000Y-161230000D03*
X321860000Y-173200000D03*
X313400000Y-164830000D03*
X318860000Y-169200000D03*
X321860000Y-169200000D03*
X321860000Y-177200000D03*
X321860000Y-181200000D03*
X318860000Y-181200000D03*
X315400000Y-184980000D03*
X318860000Y-173200000D03*
X321860000Y-182800000D03*
X318860000Y-171200000D03*
X315400000Y-164830000D03*
X318860000Y-167200000D03*
X321860000Y-179200000D03*
X321860000Y-167200000D03*
X318860000Y-179200000D03*
X315400000Y-188580000D03*
X321860000Y-171200000D03*
X318860000Y-182800000D03*
X313400000Y-184980000D03*
%TO.N,Net-(BT6--)*%
X78500000Y-165030000D03*
X76580000Y-157500000D03*
X80500000Y-165030000D03*
X76580000Y-153500000D03*
X76580000Y-151500000D03*
X72180000Y-145500000D03*
X78500000Y-141280000D03*
X80500000Y-141280000D03*
X80500000Y-161030000D03*
X76580000Y-155500000D03*
X78500000Y-161030000D03*
X72180000Y-155500000D03*
X76580000Y-145500000D03*
X72180000Y-143500000D03*
X80500000Y-137280000D03*
X72180000Y-149500000D03*
X76580000Y-143500000D03*
X76580000Y-147500000D03*
X72180000Y-151500000D03*
X78500000Y-137280000D03*
X76580000Y-159000000D03*
X72180000Y-153500000D03*
X76580000Y-149500000D03*
X72180000Y-157500000D03*
X72180000Y-159000000D03*
X72180000Y-147500000D03*
%TO.N,Net-(J23-Pin_1)*%
X185400000Y-100500000D03*
X197400000Y-100500000D03*
X197400000Y-97500000D03*
X187400000Y-100500000D03*
X189400000Y-100500000D03*
X209400000Y-100500000D03*
X199400000Y-100500000D03*
X201400000Y-97500000D03*
X187400000Y-97500000D03*
X207400000Y-100500000D03*
X195400000Y-97500000D03*
X203400000Y-100500000D03*
X207400000Y-97500000D03*
X193400000Y-97500000D03*
X191400000Y-100500000D03*
X195400000Y-100500000D03*
X205400000Y-97500000D03*
X193400000Y-100500000D03*
X203400000Y-97500000D03*
X189400000Y-97500000D03*
X199400000Y-97500000D03*
X185400000Y-97500000D03*
X191400000Y-97500000D03*
X201400000Y-100500000D03*
X209400000Y-97500000D03*
X205400000Y-100500000D03*
%TO.N,/4S_B+*%
X313400000Y-141080000D03*
X313400000Y-137480000D03*
X315400000Y-141080000D03*
X315400000Y-137480000D03*
%TO.N,Net-(J1-Pin_1)*%
X169400000Y-82500000D03*
X205400000Y-79500000D03*
X219400000Y-79500000D03*
X151400000Y-82500000D03*
X231400000Y-82500000D03*
X203400000Y-79500000D03*
X227400000Y-82500000D03*
X213400000Y-79500000D03*
X179400000Y-82500000D03*
X181400000Y-79500000D03*
X235400000Y-82500000D03*
X193400000Y-82500000D03*
X237400000Y-79500000D03*
X199400000Y-82500000D03*
X209400000Y-82500000D03*
X201400000Y-82500000D03*
X187400000Y-82500000D03*
X211400000Y-79500000D03*
X241400000Y-82500000D03*
X229400000Y-82500000D03*
X245400000Y-82500000D03*
X149400000Y-82500000D03*
X195400000Y-82500000D03*
X171400000Y-79500000D03*
X171400000Y-82500000D03*
X225400000Y-82500000D03*
X175400000Y-82500000D03*
X191400000Y-82500000D03*
X153400000Y-82500000D03*
X165400000Y-79500000D03*
X245400000Y-79500000D03*
X179400000Y-79500000D03*
X193400000Y-79500000D03*
X161400000Y-82500000D03*
X181400000Y-82500000D03*
X185400000Y-79500000D03*
X217400000Y-82500000D03*
X167400000Y-82500000D03*
X221400000Y-82500000D03*
X163400000Y-82500000D03*
X201400000Y-79500000D03*
X233400000Y-79500000D03*
X241400000Y-79500000D03*
X163400000Y-79500000D03*
X197400000Y-79500000D03*
X195400000Y-79500000D03*
X217400000Y-79500000D03*
X173400000Y-79500000D03*
X189400000Y-82500000D03*
X159400000Y-79500000D03*
X183400000Y-82500000D03*
X221400000Y-79500000D03*
X233400000Y-82500000D03*
X183400000Y-79500000D03*
X185400000Y-82500000D03*
X207400000Y-79500000D03*
X239400000Y-82500000D03*
X209400000Y-79500000D03*
X219400000Y-82500000D03*
X155400000Y-82500000D03*
X187400000Y-79500000D03*
X243400000Y-82500000D03*
X173400000Y-82500000D03*
X223400000Y-79500000D03*
X207400000Y-82500000D03*
X231400000Y-79500000D03*
X211400000Y-82500000D03*
X167400000Y-79500000D03*
X199400000Y-79500000D03*
X189400000Y-79500000D03*
X149400000Y-79500000D03*
X177400000Y-82500000D03*
X227400000Y-79500000D03*
X205400000Y-82500000D03*
X151400000Y-79500000D03*
X237400000Y-82500000D03*
X229400000Y-79500000D03*
X157400000Y-79500000D03*
X197400000Y-82500000D03*
X177400000Y-79500000D03*
X203400000Y-82500000D03*
X161400000Y-79500000D03*
X175400000Y-79500000D03*
X155400000Y-79500000D03*
X223400000Y-82500000D03*
X153400000Y-79500000D03*
X165400000Y-82500000D03*
X159400000Y-82500000D03*
X239400000Y-79500000D03*
X157400000Y-82500000D03*
X215400000Y-79500000D03*
X191400000Y-79500000D03*
X225400000Y-79500000D03*
X215400000Y-82500000D03*
X169400000Y-79500000D03*
X213400000Y-82500000D03*
X235400000Y-79500000D03*
X243400000Y-79500000D03*
%TO.N,Net-(BT9--)*%
X173500000Y-208730000D03*
X173500000Y-212330000D03*
X171500000Y-212330000D03*
X171500000Y-208730000D03*
%TO.N,/4S_B-*%
X313400000Y-212330000D03*
X313400000Y-208730000D03*
X315400000Y-208730000D03*
X315400000Y-212330000D03*
%TO.N,Net-(BT6-+)*%
X173500000Y-137480000D03*
X171500000Y-137480000D03*
X171500000Y-141080000D03*
X173500000Y-141080000D03*
%TD*%
%TO.N,Net-(J21-Pin_1)*%
D17*
X165400000Y-90000000D02*
X229400000Y-90000000D01*
%TO.N,Net-(BT2--)*%
D18*
X216000000Y-163030000D02*
X246900000Y-163030000D01*
X216000000Y-135000000D02*
X216000000Y-167030000D01*
X216000000Y-139280000D02*
X246900000Y-139280000D01*
X246900000Y-136740000D02*
X246900000Y-141820000D01*
X246900000Y-160490000D02*
X246900000Y-165570000D01*
%TO.N,Net-(BT8--)*%
X105280000Y-189320000D02*
X105280000Y-186780000D01*
D19*
X105280000Y-207990000D02*
X105280000Y-210580000D01*
D18*
X90450000Y-210530000D02*
X105230000Y-210530000D01*
D19*
X105280000Y-184240000D02*
X105280000Y-189320000D01*
D18*
X105230000Y-210530000D02*
X105280000Y-210580000D01*
X105280000Y-213070000D02*
X105280000Y-207990000D01*
D19*
X105280000Y-210580000D02*
X105280000Y-213070000D01*
D18*
X105280000Y-186780000D02*
X90450000Y-186780000D01*
D20*
X74380000Y-186780000D02*
X74380000Y-210530000D01*
X74380000Y-186780000D02*
X105280000Y-186780000D01*
X74380000Y-210530000D02*
X105280000Y-210530000D01*
D18*
X105280000Y-186780000D02*
X105280000Y-184240000D01*
%TO.N,Net-(BT7--)*%
X147840000Y-184240000D02*
X147840000Y-186780000D01*
D21*
X147840000Y-186780000D02*
X178740000Y-186780000D01*
D18*
X147840000Y-165570000D02*
X147840000Y-163030000D01*
X147840000Y-186780000D02*
X162670000Y-186780000D01*
D21*
X147840000Y-184240000D02*
X147840000Y-189320000D01*
X147840000Y-160490000D02*
X147840000Y-165570000D01*
X147840000Y-163030000D02*
X178740000Y-163030000D01*
X178740000Y-163030000D02*
X178740000Y-186780000D01*
D18*
X147840000Y-160490000D02*
X147840000Y-163030000D01*
X147840000Y-163030000D02*
X162670000Y-163030000D01*
X147840000Y-189320000D02*
X147840000Y-186780000D01*
%TO.N,Net-(BT4--)*%
X216000000Y-186780000D02*
X246900000Y-186780000D01*
X216000000Y-182780000D02*
X216000000Y-214800000D01*
X246900000Y-184240000D02*
X246900000Y-189320000D01*
X246900000Y-207990000D02*
X246900000Y-213070000D01*
X216000000Y-210530000D02*
X246900000Y-210530000D01*
%TO.N,Net-(BT3--)*%
X289460000Y-184240000D02*
X289460000Y-189320000D01*
X289460000Y-160490000D02*
X289460000Y-165570000D01*
X289460000Y-186780000D02*
X320360000Y-186780000D01*
X320360000Y-159030000D02*
X320360000Y-190780000D01*
X289460000Y-163030000D02*
X320360000Y-163030000D01*
%TO.N,Net-(BT6--)*%
X74380000Y-139280000D02*
X105280000Y-139280000D01*
X105280000Y-136740000D02*
X105280000Y-141820000D01*
D22*
X76380000Y-135280000D02*
X76380000Y-167030000D01*
D18*
X74380000Y-135280000D02*
X74380000Y-167030000D01*
X74380000Y-163030000D02*
X105280000Y-163030000D01*
X105280000Y-160490000D02*
X105280000Y-165570000D01*
%TO.N,Net-(J23-Pin_1)*%
D17*
X181400000Y-99000000D02*
X213400000Y-99000000D01*
%TO.N,/4S_B+*%
D18*
X289460000Y-139280000D02*
X320360000Y-139280000D01*
X289460000Y-136740000D02*
X289460000Y-141820000D01*
X320360000Y-135280000D02*
X320360000Y-143280000D01*
%TO.N,Net-(J1-Pin_1)*%
D17*
X145400000Y-81000000D02*
X249400000Y-81000000D01*
%TO.N,Net-(BT9--)*%
D18*
X147840000Y-207990000D02*
X147840000Y-213070000D01*
X147840000Y-210530000D02*
X178740000Y-210530000D01*
X178740000Y-206530000D02*
X178740000Y-214530000D01*
%TO.N,/4S_B-*%
X289460000Y-210530000D02*
X320360000Y-210530000D01*
X289460000Y-207990000D02*
X289460000Y-213070000D01*
X320360000Y-206530000D02*
X320360000Y-214530000D01*
%TO.N,Net-(BT6-+)*%
X178740000Y-135280000D02*
X178740000Y-143280000D01*
X147840000Y-136740000D02*
X147840000Y-141820000D01*
X147840000Y-139280000D02*
X173500000Y-139280000D01*
X173500000Y-139280000D02*
X178740000Y-139280000D01*
%TD*%
M02*
