%TF.GenerationSoftware,KiCad,Pcbnew,10.0.5*%
%TF.CreationDate,2026-09-18T09:32:21+05:30*%
%TF.ProjectId,ACIR-Learning-Kit-2-PCB,41434952-2d4c-4656-9172-6e696e672d4b,v2.0*%
%TF.SameCoordinates,Original*%
%TF.FileFunction,Other,User*%
%FSLAX46Y46*%
G04 Gerber Fmt 4.6, Leading zero omitted, Abs format (unit mm)*
G04 Created by KiCad (PCBNEW 10.0.5) date 2026-09-18 09:32:21*
%MOMM*%
%LPD*%
G01*
G04 APERTURE LIST*
%ADD10C,0.100000*%
%ADD11C,0.150000*%
G04 APERTURE END LIST*
D10*
X53900000Y-44900000D02*
X340900000Y-244900000D01*
X54000000Y-144900000D02*
X340900000Y-144900000D01*
X197400000Y-44900000D02*
X197400000Y-244900000D01*
X274900000Y-70600000D02*
X334900000Y-103700000D01*
X304900000Y-87150000D02*
X304900000Y-70400000D01*
X304900000Y-87150000D02*
X304900000Y-103800000D01*
X334900000Y-70600000D02*
X274900000Y-103700000D01*
X340900000Y-44900000D02*
X53900000Y-244900000D01*
D11*
X54395238Y-67704819D02*
X54585714Y-67704819D01*
X54585714Y-67704819D02*
X54680952Y-67657200D01*
X54680952Y-67657200D02*
X54728571Y-67609580D01*
X54728571Y-67609580D02*
X54823809Y-67466723D01*
X54823809Y-67466723D02*
X54871428Y-67276247D01*
X54871428Y-67276247D02*
X54871428Y-66895295D01*
X54871428Y-66895295D02*
X54823809Y-66800057D01*
X54823809Y-66800057D02*
X54776190Y-66752438D01*
X54776190Y-66752438D02*
X54680952Y-66704819D01*
X54680952Y-66704819D02*
X54490476Y-66704819D01*
X54490476Y-66704819D02*
X54395238Y-66752438D01*
X54395238Y-66752438D02*
X54347619Y-66800057D01*
X54347619Y-66800057D02*
X54300000Y-66895295D01*
X54300000Y-66895295D02*
X54300000Y-67133390D01*
X54300000Y-67133390D02*
X54347619Y-67228628D01*
X54347619Y-67228628D02*
X54395238Y-67276247D01*
X54395238Y-67276247D02*
X54490476Y-67323866D01*
X54490476Y-67323866D02*
X54680952Y-67323866D01*
X54680952Y-67323866D02*
X54776190Y-67276247D01*
X54776190Y-67276247D02*
X54823809Y-67228628D01*
X54823809Y-67228628D02*
X54871428Y-67133390D01*
X55300000Y-67609580D02*
X55347619Y-67657200D01*
X55347619Y-67657200D02*
X55300000Y-67704819D01*
X55300000Y-67704819D02*
X55252381Y-67657200D01*
X55252381Y-67657200D02*
X55300000Y-67609580D01*
X55300000Y-67609580D02*
X55300000Y-67704819D01*
X55728571Y-66800057D02*
X55776190Y-66752438D01*
X55776190Y-66752438D02*
X55871428Y-66704819D01*
X55871428Y-66704819D02*
X56109523Y-66704819D01*
X56109523Y-66704819D02*
X56204761Y-66752438D01*
X56204761Y-66752438D02*
X56252380Y-66800057D01*
X56252380Y-66800057D02*
X56299999Y-66895295D01*
X56299999Y-66895295D02*
X56299999Y-66990533D01*
X56299999Y-66990533D02*
X56252380Y-67133390D01*
X56252380Y-67133390D02*
X55680952Y-67704819D01*
X55680952Y-67704819D02*
X56299999Y-67704819D01*
D10*
X59900000Y-65500000D02*
X59900000Y-68986420D01*
X50700000Y-68986420D02*
X50700000Y-65500000D01*
X59900000Y-68400000D02*
X50700000Y-68400000D01*
X59900000Y-68400000D02*
X58773496Y-68986421D01*
X59900000Y-68400000D02*
X58773496Y-67813579D01*
X50700000Y-68400000D02*
X51826504Y-67813579D01*
X50700000Y-68400000D02*
X51826504Y-68986421D01*
D11*
X195590476Y-148538152D02*
X195590476Y-149204819D01*
X195352381Y-148157200D02*
X195114286Y-148871485D01*
X195114286Y-148871485D02*
X195733333Y-148871485D01*
D10*
X197400000Y-145400000D02*
X197400000Y-150486420D01*
X193400000Y-150486420D02*
X193400000Y-145400000D01*
X197400000Y-149900000D02*
X193400000Y-149900000D01*
X197400000Y-149900000D02*
X196273496Y-150486421D01*
X197400000Y-149900000D02*
X196273496Y-149313579D01*
X193400000Y-149900000D02*
X194526504Y-149313579D01*
X193400000Y-149900000D02*
X194526504Y-150486421D01*
D11*
X338595238Y-66704819D02*
X338785714Y-66704819D01*
X338785714Y-66704819D02*
X338880952Y-66657200D01*
X338880952Y-66657200D02*
X338928571Y-66609580D01*
X338928571Y-66609580D02*
X339023809Y-66466723D01*
X339023809Y-66466723D02*
X339071428Y-66276247D01*
X339071428Y-66276247D02*
X339071428Y-65895295D01*
X339071428Y-65895295D02*
X339023809Y-65800057D01*
X339023809Y-65800057D02*
X338976190Y-65752438D01*
X338976190Y-65752438D02*
X338880952Y-65704819D01*
X338880952Y-65704819D02*
X338690476Y-65704819D01*
X338690476Y-65704819D02*
X338595238Y-65752438D01*
X338595238Y-65752438D02*
X338547619Y-65800057D01*
X338547619Y-65800057D02*
X338500000Y-65895295D01*
X338500000Y-65895295D02*
X338500000Y-66133390D01*
X338500000Y-66133390D02*
X338547619Y-66228628D01*
X338547619Y-66228628D02*
X338595238Y-66276247D01*
X338595238Y-66276247D02*
X338690476Y-66323866D01*
X338690476Y-66323866D02*
X338880952Y-66323866D01*
X338880952Y-66323866D02*
X338976190Y-66276247D01*
X338976190Y-66276247D02*
X339023809Y-66228628D01*
X339023809Y-66228628D02*
X339071428Y-66133390D01*
X339500000Y-66609580D02*
X339547619Y-66657200D01*
X339547619Y-66657200D02*
X339500000Y-66704819D01*
X339500000Y-66704819D02*
X339452381Y-66657200D01*
X339452381Y-66657200D02*
X339500000Y-66609580D01*
X339500000Y-66609580D02*
X339500000Y-66704819D01*
X339928571Y-65800057D02*
X339976190Y-65752438D01*
X339976190Y-65752438D02*
X340071428Y-65704819D01*
X340071428Y-65704819D02*
X340309523Y-65704819D01*
X340309523Y-65704819D02*
X340404761Y-65752438D01*
X340404761Y-65752438D02*
X340452380Y-65800057D01*
X340452380Y-65800057D02*
X340499999Y-65895295D01*
X340499999Y-65895295D02*
X340499999Y-65990533D01*
X340499999Y-65990533D02*
X340452380Y-66133390D01*
X340452380Y-66133390D02*
X339880952Y-66704819D01*
X339880952Y-66704819D02*
X340499999Y-66704819D01*
D10*
X334900000Y-65500000D02*
X334900000Y-67986420D01*
X344100000Y-67986420D02*
X344100000Y-65500000D01*
X334900000Y-67400000D02*
X344100000Y-67400000D01*
X334900000Y-67400000D02*
X336026504Y-66813579D01*
X334900000Y-67400000D02*
X336026504Y-67986421D01*
X344100000Y-67400000D02*
X342973496Y-67986421D01*
X344100000Y-67400000D02*
X342973496Y-66813579D01*
D11*
X115582358Y-62238152D02*
X115582358Y-62904819D01*
X115344263Y-61857200D02*
X115106168Y-62571485D01*
X115106168Y-62571485D02*
X115725215Y-62571485D01*
X116106168Y-62809580D02*
X116153787Y-62857200D01*
X116153787Y-62857200D02*
X116106168Y-62904819D01*
X116106168Y-62904819D02*
X116058549Y-62857200D01*
X116058549Y-62857200D02*
X116106168Y-62809580D01*
X116106168Y-62809580D02*
X116106168Y-62904819D01*
X116629977Y-62904819D02*
X116820453Y-62904819D01*
X116820453Y-62904819D02*
X116915691Y-62857200D01*
X116915691Y-62857200D02*
X116963310Y-62809580D01*
X116963310Y-62809580D02*
X117058548Y-62666723D01*
X117058548Y-62666723D02*
X117106167Y-62476247D01*
X117106167Y-62476247D02*
X117106167Y-62095295D01*
X117106167Y-62095295D02*
X117058548Y-62000057D01*
X117058548Y-62000057D02*
X117010929Y-61952438D01*
X117010929Y-61952438D02*
X116915691Y-61904819D01*
X116915691Y-61904819D02*
X116725215Y-61904819D01*
X116725215Y-61904819D02*
X116629977Y-61952438D01*
X116629977Y-61952438D02*
X116582358Y-62000057D01*
X116582358Y-62000057D02*
X116534739Y-62095295D01*
X116534739Y-62095295D02*
X116534739Y-62333390D01*
X116534739Y-62333390D02*
X116582358Y-62428628D01*
X116582358Y-62428628D02*
X116629977Y-62476247D01*
X116629977Y-62476247D02*
X116725215Y-62523866D01*
X116725215Y-62523866D02*
X116915691Y-62523866D01*
X116915691Y-62523866D02*
X117010929Y-62476247D01*
X117010929Y-62476247D02*
X117058548Y-62428628D01*
X117058548Y-62428628D02*
X117106167Y-62333390D01*
X117439501Y-61904819D02*
X118058548Y-61904819D01*
X118058548Y-61904819D02*
X117725215Y-62285771D01*
X117725215Y-62285771D02*
X117868072Y-62285771D01*
X117868072Y-62285771D02*
X117963310Y-62333390D01*
X117963310Y-62333390D02*
X118010929Y-62381009D01*
X118010929Y-62381009D02*
X118058548Y-62476247D01*
X118058548Y-62476247D02*
X118058548Y-62714342D01*
X118058548Y-62714342D02*
X118010929Y-62809580D01*
X118010929Y-62809580D02*
X117963310Y-62857200D01*
X117963310Y-62857200D02*
X117868072Y-62904819D01*
X117868072Y-62904819D02*
X117582358Y-62904819D01*
X117582358Y-62904819D02*
X117487120Y-62857200D01*
X117487120Y-62857200D02*
X117439501Y-62809580D01*
X118677596Y-61904819D02*
X118772834Y-61904819D01*
X118772834Y-61904819D02*
X118868072Y-61952438D01*
X118868072Y-61952438D02*
X118915691Y-62000057D01*
X118915691Y-62000057D02*
X118963310Y-62095295D01*
X118963310Y-62095295D02*
X119010929Y-62285771D01*
X119010929Y-62285771D02*
X119010929Y-62523866D01*
X119010929Y-62523866D02*
X118963310Y-62714342D01*
X118963310Y-62714342D02*
X118915691Y-62809580D01*
X118915691Y-62809580D02*
X118868072Y-62857200D01*
X118868072Y-62857200D02*
X118772834Y-62904819D01*
X118772834Y-62904819D02*
X118677596Y-62904819D01*
X118677596Y-62904819D02*
X118582358Y-62857200D01*
X118582358Y-62857200D02*
X118534739Y-62809580D01*
X118534739Y-62809580D02*
X118487120Y-62714342D01*
X118487120Y-62714342D02*
X118439501Y-62523866D01*
X118439501Y-62523866D02*
X118439501Y-62285771D01*
X118439501Y-62285771D02*
X118487120Y-62095295D01*
X118487120Y-62095295D02*
X118534739Y-62000057D01*
X118534739Y-62000057D02*
X118582358Y-61952438D01*
X118582358Y-61952438D02*
X118677596Y-61904819D01*
X119915691Y-61904819D02*
X119439501Y-61904819D01*
X119439501Y-61904819D02*
X119391882Y-62381009D01*
X119391882Y-62381009D02*
X119439501Y-62333390D01*
X119439501Y-62333390D02*
X119534739Y-62285771D01*
X119534739Y-62285771D02*
X119772834Y-62285771D01*
X119772834Y-62285771D02*
X119868072Y-62333390D01*
X119868072Y-62333390D02*
X119915691Y-62381009D01*
X119915691Y-62381009D02*
X119963310Y-62476247D01*
X119963310Y-62476247D02*
X119963310Y-62714342D01*
X119963310Y-62714342D02*
X119915691Y-62809580D01*
X119915691Y-62809580D02*
X119868072Y-62857200D01*
X119868072Y-62857200D02*
X119772834Y-62904819D01*
X119772834Y-62904819D02*
X119534739Y-62904819D01*
X119534739Y-62904819D02*
X119439501Y-62857200D01*
X119439501Y-62857200D02*
X119391882Y-62809580D01*
D10*
X115069477Y-62650688D02*
X115069477Y-64186420D01*
X120000000Y-64186420D02*
X120000000Y-62650688D01*
X115069477Y-63600000D02*
X120000000Y-63600000D01*
X115069477Y-63600000D02*
X116195981Y-63013579D01*
X115069477Y-63600000D02*
X116195981Y-64186421D01*
X120000000Y-63600000D02*
X118873496Y-64186421D01*
X120000000Y-63600000D02*
X118873496Y-63013579D01*
D11*
X89714285Y-66704819D02*
X89523809Y-66704819D01*
X89523809Y-66704819D02*
X89428571Y-66752438D01*
X89428571Y-66752438D02*
X89380952Y-66800057D01*
X89380952Y-66800057D02*
X89285714Y-66942914D01*
X89285714Y-66942914D02*
X89238095Y-67133390D01*
X89238095Y-67133390D02*
X89238095Y-67514342D01*
X89238095Y-67514342D02*
X89285714Y-67609580D01*
X89285714Y-67609580D02*
X89333333Y-67657200D01*
X89333333Y-67657200D02*
X89428571Y-67704819D01*
X89428571Y-67704819D02*
X89619047Y-67704819D01*
X89619047Y-67704819D02*
X89714285Y-67657200D01*
X89714285Y-67657200D02*
X89761904Y-67609580D01*
X89761904Y-67609580D02*
X89809523Y-67514342D01*
X89809523Y-67514342D02*
X89809523Y-67276247D01*
X89809523Y-67276247D02*
X89761904Y-67181009D01*
X89761904Y-67181009D02*
X89714285Y-67133390D01*
X89714285Y-67133390D02*
X89619047Y-67085771D01*
X89619047Y-67085771D02*
X89428571Y-67085771D01*
X89428571Y-67085771D02*
X89333333Y-67133390D01*
X89333333Y-67133390D02*
X89285714Y-67181009D01*
X89285714Y-67181009D02*
X89238095Y-67276247D01*
X90428571Y-66704819D02*
X90523809Y-66704819D01*
X90523809Y-66704819D02*
X90619047Y-66752438D01*
X90619047Y-66752438D02*
X90666666Y-66800057D01*
X90666666Y-66800057D02*
X90714285Y-66895295D01*
X90714285Y-66895295D02*
X90761904Y-67085771D01*
X90761904Y-67085771D02*
X90761904Y-67323866D01*
X90761904Y-67323866D02*
X90714285Y-67514342D01*
X90714285Y-67514342D02*
X90666666Y-67609580D01*
X90666666Y-67609580D02*
X90619047Y-67657200D01*
X90619047Y-67657200D02*
X90523809Y-67704819D01*
X90523809Y-67704819D02*
X90428571Y-67704819D01*
X90428571Y-67704819D02*
X90333333Y-67657200D01*
X90333333Y-67657200D02*
X90285714Y-67609580D01*
X90285714Y-67609580D02*
X90238095Y-67514342D01*
X90238095Y-67514342D02*
X90190476Y-67323866D01*
X90190476Y-67323866D02*
X90190476Y-67085771D01*
X90190476Y-67085771D02*
X90238095Y-66895295D01*
X90238095Y-66895295D02*
X90285714Y-66800057D01*
X90285714Y-66800057D02*
X90333333Y-66752438D01*
X90333333Y-66752438D02*
X90428571Y-66704819D01*
D10*
X60000000Y-65500000D02*
X60000000Y-68986420D01*
X120000000Y-68986420D02*
X120000000Y-65500000D01*
X60000000Y-68400000D02*
X120000000Y-68400000D01*
X60000000Y-68400000D02*
X61126504Y-67813579D01*
X60000000Y-68400000D02*
X61126504Y-68986421D01*
X120000000Y-68400000D02*
X118873496Y-68986421D01*
X120000000Y-68400000D02*
X118873496Y-67813579D01*
D11*
X338695238Y-159504819D02*
X338885714Y-159504819D01*
X338885714Y-159504819D02*
X338980952Y-159457200D01*
X338980952Y-159457200D02*
X339028571Y-159409580D01*
X339028571Y-159409580D02*
X339123809Y-159266723D01*
X339123809Y-159266723D02*
X339171428Y-159076247D01*
X339171428Y-159076247D02*
X339171428Y-158695295D01*
X339171428Y-158695295D02*
X339123809Y-158600057D01*
X339123809Y-158600057D02*
X339076190Y-158552438D01*
X339076190Y-158552438D02*
X338980952Y-158504819D01*
X338980952Y-158504819D02*
X338790476Y-158504819D01*
X338790476Y-158504819D02*
X338695238Y-158552438D01*
X338695238Y-158552438D02*
X338647619Y-158600057D01*
X338647619Y-158600057D02*
X338600000Y-158695295D01*
X338600000Y-158695295D02*
X338600000Y-158933390D01*
X338600000Y-158933390D02*
X338647619Y-159028628D01*
X338647619Y-159028628D02*
X338695238Y-159076247D01*
X338695238Y-159076247D02*
X338790476Y-159123866D01*
X338790476Y-159123866D02*
X338980952Y-159123866D01*
X338980952Y-159123866D02*
X339076190Y-159076247D01*
X339076190Y-159076247D02*
X339123809Y-159028628D01*
X339123809Y-159028628D02*
X339171428Y-158933390D01*
X339600000Y-159409580D02*
X339647619Y-159457200D01*
X339647619Y-159457200D02*
X339600000Y-159504819D01*
X339600000Y-159504819D02*
X339552381Y-159457200D01*
X339552381Y-159457200D02*
X339600000Y-159409580D01*
X339600000Y-159409580D02*
X339600000Y-159504819D01*
X340028571Y-158600057D02*
X340076190Y-158552438D01*
X340076190Y-158552438D02*
X340171428Y-158504819D01*
X340171428Y-158504819D02*
X340409523Y-158504819D01*
X340409523Y-158504819D02*
X340504761Y-158552438D01*
X340504761Y-158552438D02*
X340552380Y-158600057D01*
X340552380Y-158600057D02*
X340599999Y-158695295D01*
X340599999Y-158695295D02*
X340599999Y-158790533D01*
X340599999Y-158790533D02*
X340552380Y-158933390D01*
X340552380Y-158933390D02*
X339980952Y-159504819D01*
X339980952Y-159504819D02*
X340599999Y-159504819D01*
D10*
X335000000Y-159900000D02*
X335000000Y-160786420D01*
X344200000Y-160786420D02*
X344200000Y-160200000D01*
X335000000Y-160200000D02*
X344200000Y-160200000D01*
X335000000Y-160200000D02*
X336126504Y-159613579D01*
X335000000Y-160200000D02*
X336126504Y-160786421D01*
X344200000Y-160200000D02*
X343073496Y-160786421D01*
X344200000Y-160200000D02*
X343073496Y-159613579D01*
D11*
X199590476Y-148538152D02*
X199590476Y-149204819D01*
X199352381Y-148157200D02*
X199114286Y-148871485D01*
X199114286Y-148871485D02*
X199733333Y-148871485D01*
D10*
X197400000Y-145400000D02*
X197400000Y-150486420D01*
X201400000Y-150486420D02*
X201400000Y-145400000D01*
X197400000Y-149900000D02*
X201400000Y-149900000D01*
X197400000Y-149900000D02*
X198526504Y-149313579D01*
X197400000Y-149900000D02*
X198526504Y-150486421D01*
X201400000Y-149900000D02*
X200273496Y-150486421D01*
X201400000Y-149900000D02*
X200273496Y-149313579D01*
D11*
X54395238Y-165604819D02*
X54585714Y-165604819D01*
X54585714Y-165604819D02*
X54680952Y-165557200D01*
X54680952Y-165557200D02*
X54728571Y-165509580D01*
X54728571Y-165509580D02*
X54823809Y-165366723D01*
X54823809Y-165366723D02*
X54871428Y-165176247D01*
X54871428Y-165176247D02*
X54871428Y-164795295D01*
X54871428Y-164795295D02*
X54823809Y-164700057D01*
X54823809Y-164700057D02*
X54776190Y-164652438D01*
X54776190Y-164652438D02*
X54680952Y-164604819D01*
X54680952Y-164604819D02*
X54490476Y-164604819D01*
X54490476Y-164604819D02*
X54395238Y-164652438D01*
X54395238Y-164652438D02*
X54347619Y-164700057D01*
X54347619Y-164700057D02*
X54300000Y-164795295D01*
X54300000Y-164795295D02*
X54300000Y-165033390D01*
X54300000Y-165033390D02*
X54347619Y-165128628D01*
X54347619Y-165128628D02*
X54395238Y-165176247D01*
X54395238Y-165176247D02*
X54490476Y-165223866D01*
X54490476Y-165223866D02*
X54680952Y-165223866D01*
X54680952Y-165223866D02*
X54776190Y-165176247D01*
X54776190Y-165176247D02*
X54823809Y-165128628D01*
X54823809Y-165128628D02*
X54871428Y-165033390D01*
X55300000Y-165509580D02*
X55347619Y-165557200D01*
X55347619Y-165557200D02*
X55300000Y-165604819D01*
X55300000Y-165604819D02*
X55252381Y-165557200D01*
X55252381Y-165557200D02*
X55300000Y-165509580D01*
X55300000Y-165509580D02*
X55300000Y-165604819D01*
X55728571Y-164700057D02*
X55776190Y-164652438D01*
X55776190Y-164652438D02*
X55871428Y-164604819D01*
X55871428Y-164604819D02*
X56109523Y-164604819D01*
X56109523Y-164604819D02*
X56204761Y-164652438D01*
X56204761Y-164652438D02*
X56252380Y-164700057D01*
X56252380Y-164700057D02*
X56299999Y-164795295D01*
X56299999Y-164795295D02*
X56299999Y-164890533D01*
X56299999Y-164890533D02*
X56252380Y-165033390D01*
X56252380Y-165033390D02*
X55680952Y-165604819D01*
X55680952Y-165604819D02*
X56299999Y-165604819D01*
D10*
X50700000Y-163300000D02*
X50700000Y-166886420D01*
X59900000Y-166886420D02*
X59900000Y-163500000D01*
X50700000Y-166300000D02*
X59900000Y-166300000D01*
X50700000Y-166300000D02*
X51826504Y-165713579D01*
X50700000Y-166300000D02*
X51826504Y-166886421D01*
X59900000Y-166300000D02*
X58773496Y-166886421D01*
X59900000Y-166300000D02*
X58773496Y-165713579D01*
D11*
X304614285Y-65704819D02*
X304423809Y-65704819D01*
X304423809Y-65704819D02*
X304328571Y-65752438D01*
X304328571Y-65752438D02*
X304280952Y-65800057D01*
X304280952Y-65800057D02*
X304185714Y-65942914D01*
X304185714Y-65942914D02*
X304138095Y-66133390D01*
X304138095Y-66133390D02*
X304138095Y-66514342D01*
X304138095Y-66514342D02*
X304185714Y-66609580D01*
X304185714Y-66609580D02*
X304233333Y-66657200D01*
X304233333Y-66657200D02*
X304328571Y-66704819D01*
X304328571Y-66704819D02*
X304519047Y-66704819D01*
X304519047Y-66704819D02*
X304614285Y-66657200D01*
X304614285Y-66657200D02*
X304661904Y-66609580D01*
X304661904Y-66609580D02*
X304709523Y-66514342D01*
X304709523Y-66514342D02*
X304709523Y-66276247D01*
X304709523Y-66276247D02*
X304661904Y-66181009D01*
X304661904Y-66181009D02*
X304614285Y-66133390D01*
X304614285Y-66133390D02*
X304519047Y-66085771D01*
X304519047Y-66085771D02*
X304328571Y-66085771D01*
X304328571Y-66085771D02*
X304233333Y-66133390D01*
X304233333Y-66133390D02*
X304185714Y-66181009D01*
X304185714Y-66181009D02*
X304138095Y-66276247D01*
X305328571Y-65704819D02*
X305423809Y-65704819D01*
X305423809Y-65704819D02*
X305519047Y-65752438D01*
X305519047Y-65752438D02*
X305566666Y-65800057D01*
X305566666Y-65800057D02*
X305614285Y-65895295D01*
X305614285Y-65895295D02*
X305661904Y-66085771D01*
X305661904Y-66085771D02*
X305661904Y-66323866D01*
X305661904Y-66323866D02*
X305614285Y-66514342D01*
X305614285Y-66514342D02*
X305566666Y-66609580D01*
X305566666Y-66609580D02*
X305519047Y-66657200D01*
X305519047Y-66657200D02*
X305423809Y-66704819D01*
X305423809Y-66704819D02*
X305328571Y-66704819D01*
X305328571Y-66704819D02*
X305233333Y-66657200D01*
X305233333Y-66657200D02*
X305185714Y-66609580D01*
X305185714Y-66609580D02*
X305138095Y-66514342D01*
X305138095Y-66514342D02*
X305090476Y-66323866D01*
X305090476Y-66323866D02*
X305090476Y-66085771D01*
X305090476Y-66085771D02*
X305138095Y-65895295D01*
X305138095Y-65895295D02*
X305185714Y-65800057D01*
X305185714Y-65800057D02*
X305233333Y-65752438D01*
X305233333Y-65752438D02*
X305328571Y-65704819D01*
D10*
X274900000Y-65500000D02*
X274900000Y-67986420D01*
X334900000Y-67986420D02*
X334900000Y-65500000D01*
X274900000Y-67400000D02*
X334900000Y-67400000D01*
X274900000Y-67400000D02*
X276026504Y-66813579D01*
X274900000Y-67400000D02*
X276026504Y-67986421D01*
X334900000Y-67400000D02*
X333773496Y-67986421D01*
X334900000Y-67400000D02*
X333773496Y-66813579D01*
D11*
X60539151Y-62204819D02*
X60062961Y-62204819D01*
X60062961Y-62204819D02*
X60015342Y-62681009D01*
X60015342Y-62681009D02*
X60062961Y-62633390D01*
X60062961Y-62633390D02*
X60158199Y-62585771D01*
X60158199Y-62585771D02*
X60396294Y-62585771D01*
X60396294Y-62585771D02*
X60491532Y-62633390D01*
X60491532Y-62633390D02*
X60539151Y-62681009D01*
X60539151Y-62681009D02*
X60586770Y-62776247D01*
X60586770Y-62776247D02*
X60586770Y-63014342D01*
X60586770Y-63014342D02*
X60539151Y-63109580D01*
X60539151Y-63109580D02*
X60491532Y-63157200D01*
X60491532Y-63157200D02*
X60396294Y-63204819D01*
X60396294Y-63204819D02*
X60158199Y-63204819D01*
X60158199Y-63204819D02*
X60062961Y-63157200D01*
X60062961Y-63157200D02*
X60015342Y-63109580D01*
X61015342Y-63109580D02*
X61062961Y-63157200D01*
X61062961Y-63157200D02*
X61015342Y-63204819D01*
X61015342Y-63204819D02*
X60967723Y-63157200D01*
X60967723Y-63157200D02*
X61015342Y-63109580D01*
X61015342Y-63109580D02*
X61015342Y-63204819D01*
X61682008Y-62204819D02*
X61777246Y-62204819D01*
X61777246Y-62204819D02*
X61872484Y-62252438D01*
X61872484Y-62252438D02*
X61920103Y-62300057D01*
X61920103Y-62300057D02*
X61967722Y-62395295D01*
X61967722Y-62395295D02*
X62015341Y-62585771D01*
X62015341Y-62585771D02*
X62015341Y-62823866D01*
X62015341Y-62823866D02*
X61967722Y-63014342D01*
X61967722Y-63014342D02*
X61920103Y-63109580D01*
X61920103Y-63109580D02*
X61872484Y-63157200D01*
X61872484Y-63157200D02*
X61777246Y-63204819D01*
X61777246Y-63204819D02*
X61682008Y-63204819D01*
X61682008Y-63204819D02*
X61586770Y-63157200D01*
X61586770Y-63157200D02*
X61539151Y-63109580D01*
X61539151Y-63109580D02*
X61491532Y-63014342D01*
X61491532Y-63014342D02*
X61443913Y-62823866D01*
X61443913Y-62823866D02*
X61443913Y-62585771D01*
X61443913Y-62585771D02*
X61491532Y-62395295D01*
X61491532Y-62395295D02*
X61539151Y-62300057D01*
X61539151Y-62300057D02*
X61586770Y-62252438D01*
X61586770Y-62252438D02*
X61682008Y-62204819D01*
X62586770Y-62633390D02*
X62491532Y-62585771D01*
X62491532Y-62585771D02*
X62443913Y-62538152D01*
X62443913Y-62538152D02*
X62396294Y-62442914D01*
X62396294Y-62442914D02*
X62396294Y-62395295D01*
X62396294Y-62395295D02*
X62443913Y-62300057D01*
X62443913Y-62300057D02*
X62491532Y-62252438D01*
X62491532Y-62252438D02*
X62586770Y-62204819D01*
X62586770Y-62204819D02*
X62777246Y-62204819D01*
X62777246Y-62204819D02*
X62872484Y-62252438D01*
X62872484Y-62252438D02*
X62920103Y-62300057D01*
X62920103Y-62300057D02*
X62967722Y-62395295D01*
X62967722Y-62395295D02*
X62967722Y-62442914D01*
X62967722Y-62442914D02*
X62920103Y-62538152D01*
X62920103Y-62538152D02*
X62872484Y-62585771D01*
X62872484Y-62585771D02*
X62777246Y-62633390D01*
X62777246Y-62633390D02*
X62586770Y-62633390D01*
X62586770Y-62633390D02*
X62491532Y-62681009D01*
X62491532Y-62681009D02*
X62443913Y-62728628D01*
X62443913Y-62728628D02*
X62396294Y-62823866D01*
X62396294Y-62823866D02*
X62396294Y-63014342D01*
X62396294Y-63014342D02*
X62443913Y-63109580D01*
X62443913Y-63109580D02*
X62491532Y-63157200D01*
X62491532Y-63157200D02*
X62586770Y-63204819D01*
X62586770Y-63204819D02*
X62777246Y-63204819D01*
X62777246Y-63204819D02*
X62872484Y-63157200D01*
X62872484Y-63157200D02*
X62920103Y-63109580D01*
X62920103Y-63109580D02*
X62967722Y-63014342D01*
X62967722Y-63014342D02*
X62967722Y-62823866D01*
X62967722Y-62823866D02*
X62920103Y-62728628D01*
X62920103Y-62728628D02*
X62872484Y-62681009D01*
X62872484Y-62681009D02*
X62777246Y-62633390D01*
X63301056Y-62204819D02*
X63967722Y-62204819D01*
X63967722Y-62204819D02*
X63539151Y-63204819D01*
X64491532Y-62633390D02*
X64396294Y-62585771D01*
X64396294Y-62585771D02*
X64348675Y-62538152D01*
X64348675Y-62538152D02*
X64301056Y-62442914D01*
X64301056Y-62442914D02*
X64301056Y-62395295D01*
X64301056Y-62395295D02*
X64348675Y-62300057D01*
X64348675Y-62300057D02*
X64396294Y-62252438D01*
X64396294Y-62252438D02*
X64491532Y-62204819D01*
X64491532Y-62204819D02*
X64682008Y-62204819D01*
X64682008Y-62204819D02*
X64777246Y-62252438D01*
X64777246Y-62252438D02*
X64824865Y-62300057D01*
X64824865Y-62300057D02*
X64872484Y-62395295D01*
X64872484Y-62395295D02*
X64872484Y-62442914D01*
X64872484Y-62442914D02*
X64824865Y-62538152D01*
X64824865Y-62538152D02*
X64777246Y-62585771D01*
X64777246Y-62585771D02*
X64682008Y-62633390D01*
X64682008Y-62633390D02*
X64491532Y-62633390D01*
X64491532Y-62633390D02*
X64396294Y-62681009D01*
X64396294Y-62681009D02*
X64348675Y-62728628D01*
X64348675Y-62728628D02*
X64301056Y-62823866D01*
X64301056Y-62823866D02*
X64301056Y-63014342D01*
X64301056Y-63014342D02*
X64348675Y-63109580D01*
X64348675Y-63109580D02*
X64396294Y-63157200D01*
X64396294Y-63157200D02*
X64491532Y-63204819D01*
X64491532Y-63204819D02*
X64682008Y-63204819D01*
X64682008Y-63204819D02*
X64777246Y-63157200D01*
X64777246Y-63157200D02*
X64824865Y-63109580D01*
X64824865Y-63109580D02*
X64872484Y-63014342D01*
X64872484Y-63014342D02*
X64872484Y-62823866D01*
X64872484Y-62823866D02*
X64824865Y-62728628D01*
X64824865Y-62728628D02*
X64777246Y-62681009D01*
X64777246Y-62681009D02*
X64682008Y-62633390D01*
D10*
X64987827Y-62647680D02*
X64987827Y-64486420D01*
X59900000Y-64486420D02*
X59900000Y-62647680D01*
X64987827Y-63900000D02*
X59900000Y-63900000D01*
X64987827Y-63900000D02*
X63861323Y-64486421D01*
X64987827Y-63900000D02*
X63861323Y-63313579D01*
X59900000Y-63900000D02*
X61026504Y-63313579D01*
X59900000Y-63900000D02*
X61026504Y-64486421D01*
D11*
X62402381Y-208304819D02*
X63069047Y-208304819D01*
X63069047Y-208304819D02*
X62640476Y-209304819D01*
X63450000Y-209209580D02*
X63497619Y-209257200D01*
X63497619Y-209257200D02*
X63450000Y-209304819D01*
X63450000Y-209304819D02*
X63402381Y-209257200D01*
X63402381Y-209257200D02*
X63450000Y-209209580D01*
X63450000Y-209209580D02*
X63450000Y-209304819D01*
X64449999Y-209304819D02*
X63878571Y-209304819D01*
X64164285Y-209304819D02*
X64164285Y-208304819D01*
X64164285Y-208304819D02*
X64069047Y-208447676D01*
X64069047Y-208447676D02*
X63973809Y-208542914D01*
X63973809Y-208542914D02*
X63878571Y-208590533D01*
D10*
X67000000Y-214900000D02*
X67000000Y-209413580D01*
X59900000Y-209413580D02*
X59900000Y-214900000D01*
X67000000Y-210000000D02*
X59900000Y-210000000D01*
X67000000Y-210000000D02*
X65873496Y-210586421D01*
X67000000Y-210000000D02*
X65873496Y-209413579D01*
X59900000Y-210000000D02*
X61026504Y-209413579D01*
X59900000Y-210000000D02*
X61026504Y-210586421D01*
D11*
X188311191Y-208504819D02*
X188977857Y-208504819D01*
X188977857Y-208504819D02*
X188549286Y-209504819D01*
X189358810Y-209409580D02*
X189406429Y-209457200D01*
X189406429Y-209457200D02*
X189358810Y-209504819D01*
X189358810Y-209504819D02*
X189311191Y-209457200D01*
X189311191Y-209457200D02*
X189358810Y-209409580D01*
X189358810Y-209409580D02*
X189358810Y-209504819D01*
X190358809Y-209504819D02*
X189787381Y-209504819D01*
X190073095Y-209504819D02*
X190073095Y-208504819D01*
X190073095Y-208504819D02*
X189977857Y-208647676D01*
X189977857Y-208647676D02*
X189882619Y-208742914D01*
X189882619Y-208742914D02*
X189787381Y-208790533D01*
X190692143Y-208504819D02*
X191311190Y-208504819D01*
X191311190Y-208504819D02*
X190977857Y-208885771D01*
X190977857Y-208885771D02*
X191120714Y-208885771D01*
X191120714Y-208885771D02*
X191215952Y-208933390D01*
X191215952Y-208933390D02*
X191263571Y-208981009D01*
X191263571Y-208981009D02*
X191311190Y-209076247D01*
X191311190Y-209076247D02*
X191311190Y-209314342D01*
X191311190Y-209314342D02*
X191263571Y-209409580D01*
X191263571Y-209409580D02*
X191215952Y-209457200D01*
X191215952Y-209457200D02*
X191120714Y-209504819D01*
X191120714Y-209504819D02*
X190835000Y-209504819D01*
X190835000Y-209504819D02*
X190739762Y-209457200D01*
X190739762Y-209457200D02*
X190692143Y-209409580D01*
D10*
X186270000Y-214900000D02*
X186270000Y-209613580D01*
X193400000Y-209613580D02*
X193400000Y-214900000D01*
X186270000Y-210200000D02*
X193400000Y-210200000D01*
X186270000Y-210200000D02*
X187396504Y-209613579D01*
X186270000Y-210200000D02*
X187396504Y-210786421D01*
X193400000Y-210200000D02*
X192273496Y-210786421D01*
X193400000Y-210200000D02*
X192273496Y-209613579D01*
M02*
