%TF.GenerationSoftware,KiCad,Pcbnew,10.0.5*%
%TF.CreationDate,2026-09-16T12:21:47+05:30*%
%TF.ProjectId,ACIR-Learning-Kit-2-PCB,41434952-2d4c-4656-9172-6e696e672d4b,v2.0*%
%TF.SameCoordinates,Original*%
%TF.FileFunction,AssemblyDrawing,Top*%
%FSLAX46Y46*%
G04 Gerber Fmt 4.6, Leading zero omitted, Abs format (unit mm)*
G04 Created by KiCad (PCBNEW 10.0.5) date 2026-09-16 12:21:47*
%MOMM*%
%LPD*%
G01*
G04 APERTURE LIST*
%ADD10C,0.150000*%
%ADD11C,0.254000*%
%ADD12C,0.100000*%
%ADD13C,0.300000*%
%ADD14C,0.000000*%
G04 APERTURE END LIST*
D10*
X212071428Y-140880057D02*
X212119047Y-140832438D01*
X212119047Y-140832438D02*
X212214285Y-140784819D01*
X212214285Y-140784819D02*
X212452380Y-140784819D01*
X212452380Y-140784819D02*
X212547618Y-140832438D01*
X212547618Y-140832438D02*
X212595237Y-140880057D01*
X212595237Y-140880057D02*
X212642856Y-140975295D01*
X212642856Y-140975295D02*
X212642856Y-141070533D01*
X212642856Y-141070533D02*
X212595237Y-141213390D01*
X212595237Y-141213390D02*
X212023809Y-141784819D01*
X212023809Y-141784819D02*
X212642856Y-141784819D01*
X213023809Y-141737200D02*
X213166666Y-141784819D01*
X213166666Y-141784819D02*
X213404761Y-141784819D01*
X213404761Y-141784819D02*
X213499999Y-141737200D01*
X213499999Y-141737200D02*
X213547618Y-141689580D01*
X213547618Y-141689580D02*
X213595237Y-141594342D01*
X213595237Y-141594342D02*
X213595237Y-141499104D01*
X213595237Y-141499104D02*
X213547618Y-141403866D01*
X213547618Y-141403866D02*
X213499999Y-141356247D01*
X213499999Y-141356247D02*
X213404761Y-141308628D01*
X213404761Y-141308628D02*
X213214285Y-141261009D01*
X213214285Y-141261009D02*
X213119047Y-141213390D01*
X213119047Y-141213390D02*
X213071428Y-141165771D01*
X213071428Y-141165771D02*
X213023809Y-141070533D01*
X213023809Y-141070533D02*
X213023809Y-140975295D01*
X213023809Y-140975295D02*
X213071428Y-140880057D01*
X213071428Y-140880057D02*
X213119047Y-140832438D01*
X213119047Y-140832438D02*
X213214285Y-140784819D01*
X213214285Y-140784819D02*
X213452380Y-140784819D01*
X213452380Y-140784819D02*
X213595237Y-140832438D01*
X215309523Y-141784819D02*
X214738095Y-141784819D01*
X215023809Y-141784819D02*
X215023809Y-140784819D01*
X215023809Y-140784819D02*
X214928571Y-140927676D01*
X214928571Y-140927676D02*
X214833333Y-141022914D01*
X214833333Y-141022914D02*
X214738095Y-141070533D01*
X215738095Y-141784819D02*
X215738095Y-140784819D01*
X215738095Y-140784819D02*
X216119047Y-140784819D01*
X216119047Y-140784819D02*
X216214285Y-140832438D01*
X216214285Y-140832438D02*
X216261904Y-140880057D01*
X216261904Y-140880057D02*
X216309523Y-140975295D01*
X216309523Y-140975295D02*
X216309523Y-141118152D01*
X216309523Y-141118152D02*
X216261904Y-141213390D01*
X216261904Y-141213390D02*
X216214285Y-141261009D01*
X216214285Y-141261009D02*
X216119047Y-141308628D01*
X216119047Y-141308628D02*
X215738095Y-141308628D01*
X217500000Y-141403866D02*
X218261905Y-141403866D01*
X217880952Y-141784819D02*
X217880952Y-141022914D01*
X218642857Y-141118152D02*
X218880952Y-141784819D01*
X218880952Y-141784819D02*
X219119047Y-141118152D01*
X219880952Y-141737200D02*
X219785714Y-141784819D01*
X219785714Y-141784819D02*
X219595238Y-141784819D01*
X219595238Y-141784819D02*
X219500000Y-141737200D01*
X219500000Y-141737200D02*
X219452381Y-141641961D01*
X219452381Y-141641961D02*
X219452381Y-141261009D01*
X219452381Y-141261009D02*
X219500000Y-141165771D01*
X219500000Y-141165771D02*
X219595238Y-141118152D01*
X219595238Y-141118152D02*
X219785714Y-141118152D01*
X219785714Y-141118152D02*
X219880952Y-141165771D01*
X219880952Y-141165771D02*
X219928571Y-141261009D01*
X219928571Y-141261009D02*
X219928571Y-141356247D01*
X219928571Y-141356247D02*
X219452381Y-141451485D01*
X215666666Y-136734819D02*
X215666666Y-137449104D01*
X215666666Y-137449104D02*
X215619047Y-137591961D01*
X215619047Y-137591961D02*
X215523809Y-137687200D01*
X215523809Y-137687200D02*
X215380952Y-137734819D01*
X215380952Y-137734819D02*
X215285714Y-137734819D01*
X216047619Y-136734819D02*
X216714285Y-136734819D01*
X216714285Y-136734819D02*
X216285714Y-137734819D01*
D11*
X196402143Y-87159080D02*
X196583571Y-87219556D01*
X196583571Y-87219556D02*
X196644048Y-87280032D01*
X196644048Y-87280032D02*
X196704524Y-87400984D01*
X196704524Y-87400984D02*
X196704524Y-87582413D01*
X196704524Y-87582413D02*
X196644048Y-87703365D01*
X196644048Y-87703365D02*
X196583571Y-87763842D01*
X196583571Y-87763842D02*
X196462619Y-87824318D01*
X196462619Y-87824318D02*
X195978809Y-87824318D01*
X195978809Y-87824318D02*
X195978809Y-86554318D01*
X195978809Y-86554318D02*
X196402143Y-86554318D01*
X196402143Y-86554318D02*
X196523095Y-86614794D01*
X196523095Y-86614794D02*
X196583571Y-86675270D01*
X196583571Y-86675270D02*
X196644048Y-86796222D01*
X196644048Y-86796222D02*
X196644048Y-86917175D01*
X196644048Y-86917175D02*
X196583571Y-87038127D01*
X196583571Y-87038127D02*
X196523095Y-87098603D01*
X196523095Y-87098603D02*
X196402143Y-87159080D01*
X196402143Y-87159080D02*
X195978809Y-87159080D01*
X197067381Y-86554318D02*
X197793095Y-86554318D01*
X197430238Y-87824318D02*
X197430238Y-86554318D01*
X198881667Y-87824318D02*
X198155952Y-87824318D01*
X198518809Y-87824318D02*
X198518809Y-86554318D01*
X198518809Y-86554318D02*
X198397857Y-86735746D01*
X198397857Y-86735746D02*
X198276905Y-86856699D01*
X198276905Y-86856699D02*
X198155952Y-86917175D01*
D10*
X71022856Y-213034819D02*
X70451428Y-213034819D01*
X70737142Y-213034819D02*
X70737142Y-212034819D01*
X70737142Y-212034819D02*
X70641904Y-212177676D01*
X70641904Y-212177676D02*
X70546666Y-212272914D01*
X70546666Y-212272914D02*
X70451428Y-212320533D01*
X71403809Y-212987200D02*
X71546666Y-213034819D01*
X71546666Y-213034819D02*
X71784761Y-213034819D01*
X71784761Y-213034819D02*
X71879999Y-212987200D01*
X71879999Y-212987200D02*
X71927618Y-212939580D01*
X71927618Y-212939580D02*
X71975237Y-212844342D01*
X71975237Y-212844342D02*
X71975237Y-212749104D01*
X71975237Y-212749104D02*
X71927618Y-212653866D01*
X71927618Y-212653866D02*
X71879999Y-212606247D01*
X71879999Y-212606247D02*
X71784761Y-212558628D01*
X71784761Y-212558628D02*
X71594285Y-212511009D01*
X71594285Y-212511009D02*
X71499047Y-212463390D01*
X71499047Y-212463390D02*
X71451428Y-212415771D01*
X71451428Y-212415771D02*
X71403809Y-212320533D01*
X71403809Y-212320533D02*
X71403809Y-212225295D01*
X71403809Y-212225295D02*
X71451428Y-212130057D01*
X71451428Y-212130057D02*
X71499047Y-212082438D01*
X71499047Y-212082438D02*
X71594285Y-212034819D01*
X71594285Y-212034819D02*
X71832380Y-212034819D01*
X71832380Y-212034819D02*
X71975237Y-212082438D01*
X73118095Y-212130057D02*
X73165714Y-212082438D01*
X73165714Y-212082438D02*
X73260952Y-212034819D01*
X73260952Y-212034819D02*
X73499047Y-212034819D01*
X73499047Y-212034819D02*
X73594285Y-212082438D01*
X73594285Y-212082438D02*
X73641904Y-212130057D01*
X73641904Y-212130057D02*
X73689523Y-212225295D01*
X73689523Y-212225295D02*
X73689523Y-212320533D01*
X73689523Y-212320533D02*
X73641904Y-212463390D01*
X73641904Y-212463390D02*
X73070476Y-213034819D01*
X73070476Y-213034819D02*
X73689523Y-213034819D01*
X74118095Y-213034819D02*
X74118095Y-212034819D01*
X74118095Y-212034819D02*
X74499047Y-212034819D01*
X74499047Y-212034819D02*
X74594285Y-212082438D01*
X74594285Y-212082438D02*
X74641904Y-212130057D01*
X74641904Y-212130057D02*
X74689523Y-212225295D01*
X74689523Y-212225295D02*
X74689523Y-212368152D01*
X74689523Y-212368152D02*
X74641904Y-212463390D01*
X74641904Y-212463390D02*
X74594285Y-212511009D01*
X74594285Y-212511009D02*
X74499047Y-212558628D01*
X74499047Y-212558628D02*
X74118095Y-212558628D01*
X75880000Y-212653866D02*
X76641905Y-212653866D01*
X77022857Y-212368152D02*
X77260952Y-213034819D01*
X77260952Y-213034819D02*
X77499047Y-212368152D01*
X78260952Y-212987200D02*
X78165714Y-213034819D01*
X78165714Y-213034819D02*
X77975238Y-213034819D01*
X77975238Y-213034819D02*
X77880000Y-212987200D01*
X77880000Y-212987200D02*
X77832381Y-212891961D01*
X77832381Y-212891961D02*
X77832381Y-212511009D01*
X77832381Y-212511009D02*
X77880000Y-212415771D01*
X77880000Y-212415771D02*
X77975238Y-212368152D01*
X77975238Y-212368152D02*
X78165714Y-212368152D01*
X78165714Y-212368152D02*
X78260952Y-212415771D01*
X78260952Y-212415771D02*
X78308571Y-212511009D01*
X78308571Y-212511009D02*
X78308571Y-212606247D01*
X78308571Y-212606247D02*
X77832381Y-212701485D01*
X73570476Y-207984819D02*
X73570476Y-208699104D01*
X73570476Y-208699104D02*
X73522857Y-208841961D01*
X73522857Y-208841961D02*
X73427619Y-208937200D01*
X73427619Y-208937200D02*
X73284762Y-208984819D01*
X73284762Y-208984819D02*
X73189524Y-208984819D01*
X74570476Y-208984819D02*
X73999048Y-208984819D01*
X74284762Y-208984819D02*
X74284762Y-207984819D01*
X74284762Y-207984819D02*
X74189524Y-208127676D01*
X74189524Y-208127676D02*
X74094286Y-208222914D01*
X74094286Y-208222914D02*
X73999048Y-208270533D01*
X74903810Y-207984819D02*
X75570476Y-207984819D01*
X75570476Y-207984819D02*
X75141905Y-208984819D01*
D11*
X125562143Y-186689080D02*
X125743571Y-186749556D01*
X125743571Y-186749556D02*
X125804048Y-186810032D01*
X125804048Y-186810032D02*
X125864524Y-186930984D01*
X125864524Y-186930984D02*
X125864524Y-187112413D01*
X125864524Y-187112413D02*
X125804048Y-187233365D01*
X125804048Y-187233365D02*
X125743571Y-187293842D01*
X125743571Y-187293842D02*
X125622619Y-187354318D01*
X125622619Y-187354318D02*
X125138809Y-187354318D01*
X125138809Y-187354318D02*
X125138809Y-186084318D01*
X125138809Y-186084318D02*
X125562143Y-186084318D01*
X125562143Y-186084318D02*
X125683095Y-186144794D01*
X125683095Y-186144794D02*
X125743571Y-186205270D01*
X125743571Y-186205270D02*
X125804048Y-186326222D01*
X125804048Y-186326222D02*
X125804048Y-186447175D01*
X125804048Y-186447175D02*
X125743571Y-186568127D01*
X125743571Y-186568127D02*
X125683095Y-186628603D01*
X125683095Y-186628603D02*
X125562143Y-186689080D01*
X125562143Y-186689080D02*
X125138809Y-186689080D01*
X126227381Y-186084318D02*
X126953095Y-186084318D01*
X126590238Y-187354318D02*
X126590238Y-186084318D01*
X127557857Y-186628603D02*
X127436905Y-186568127D01*
X127436905Y-186568127D02*
X127376428Y-186507651D01*
X127376428Y-186507651D02*
X127315952Y-186386699D01*
X127315952Y-186386699D02*
X127315952Y-186326222D01*
X127315952Y-186326222D02*
X127376428Y-186205270D01*
X127376428Y-186205270D02*
X127436905Y-186144794D01*
X127436905Y-186144794D02*
X127557857Y-186084318D01*
X127557857Y-186084318D02*
X127799762Y-186084318D01*
X127799762Y-186084318D02*
X127920714Y-186144794D01*
X127920714Y-186144794D02*
X127981190Y-186205270D01*
X127981190Y-186205270D02*
X128041667Y-186326222D01*
X128041667Y-186326222D02*
X128041667Y-186386699D01*
X128041667Y-186386699D02*
X127981190Y-186507651D01*
X127981190Y-186507651D02*
X127920714Y-186568127D01*
X127920714Y-186568127D02*
X127799762Y-186628603D01*
X127799762Y-186628603D02*
X127557857Y-186628603D01*
X127557857Y-186628603D02*
X127436905Y-186689080D01*
X127436905Y-186689080D02*
X127376428Y-186749556D01*
X127376428Y-186749556D02*
X127315952Y-186870508D01*
X127315952Y-186870508D02*
X127315952Y-187112413D01*
X127315952Y-187112413D02*
X127376428Y-187233365D01*
X127376428Y-187233365D02*
X127436905Y-187293842D01*
X127436905Y-187293842D02*
X127557857Y-187354318D01*
X127557857Y-187354318D02*
X127799762Y-187354318D01*
X127799762Y-187354318D02*
X127920714Y-187293842D01*
X127920714Y-187293842D02*
X127981190Y-187233365D01*
X127981190Y-187233365D02*
X128041667Y-187112413D01*
X128041667Y-187112413D02*
X128041667Y-186870508D01*
X128041667Y-186870508D02*
X127981190Y-186749556D01*
X127981190Y-186749556D02*
X127920714Y-186689080D01*
X127920714Y-186689080D02*
X127799762Y-186628603D01*
D12*
X196638095Y-245357419D02*
X196638095Y-244357419D01*
X196638095Y-244833609D02*
X197209523Y-244833609D01*
X197209523Y-245357419D02*
X197209523Y-244357419D01*
X198161904Y-244357419D02*
X197685714Y-244357419D01*
X197685714Y-244357419D02*
X197638095Y-244833609D01*
X197638095Y-244833609D02*
X197685714Y-244785990D01*
X197685714Y-244785990D02*
X197780952Y-244738371D01*
X197780952Y-244738371D02*
X198019047Y-244738371D01*
X198019047Y-244738371D02*
X198114285Y-244785990D01*
X198114285Y-244785990D02*
X198161904Y-244833609D01*
X198161904Y-244833609D02*
X198209523Y-244928847D01*
X198209523Y-244928847D02*
X198209523Y-245166942D01*
X198209523Y-245166942D02*
X198161904Y-245262180D01*
X198161904Y-245262180D02*
X198114285Y-245309800D01*
X198114285Y-245309800D02*
X198019047Y-245357419D01*
X198019047Y-245357419D02*
X197780952Y-245357419D01*
X197780952Y-245357419D02*
X197685714Y-245309800D01*
X197685714Y-245309800D02*
X197638095Y-245262180D01*
D10*
X175382856Y-189284819D02*
X174811428Y-189284819D01*
X175097142Y-189284819D02*
X175097142Y-188284819D01*
X175097142Y-188284819D02*
X175001904Y-188427676D01*
X175001904Y-188427676D02*
X174906666Y-188522914D01*
X174906666Y-188522914D02*
X174811428Y-188570533D01*
X175763809Y-189237200D02*
X175906666Y-189284819D01*
X175906666Y-189284819D02*
X176144761Y-189284819D01*
X176144761Y-189284819D02*
X176239999Y-189237200D01*
X176239999Y-189237200D02*
X176287618Y-189189580D01*
X176287618Y-189189580D02*
X176335237Y-189094342D01*
X176335237Y-189094342D02*
X176335237Y-188999104D01*
X176335237Y-188999104D02*
X176287618Y-188903866D01*
X176287618Y-188903866D02*
X176239999Y-188856247D01*
X176239999Y-188856247D02*
X176144761Y-188808628D01*
X176144761Y-188808628D02*
X175954285Y-188761009D01*
X175954285Y-188761009D02*
X175859047Y-188713390D01*
X175859047Y-188713390D02*
X175811428Y-188665771D01*
X175811428Y-188665771D02*
X175763809Y-188570533D01*
X175763809Y-188570533D02*
X175763809Y-188475295D01*
X175763809Y-188475295D02*
X175811428Y-188380057D01*
X175811428Y-188380057D02*
X175859047Y-188332438D01*
X175859047Y-188332438D02*
X175954285Y-188284819D01*
X175954285Y-188284819D02*
X176192380Y-188284819D01*
X176192380Y-188284819D02*
X176335237Y-188332438D01*
X177954285Y-188618152D02*
X177954285Y-189284819D01*
X177716190Y-188237200D02*
X177478095Y-188951485D01*
X177478095Y-188951485D02*
X178097142Y-188951485D01*
X178478095Y-189284819D02*
X178478095Y-188284819D01*
X178478095Y-188284819D02*
X178859047Y-188284819D01*
X178859047Y-188284819D02*
X178954285Y-188332438D01*
X178954285Y-188332438D02*
X179001904Y-188380057D01*
X179001904Y-188380057D02*
X179049523Y-188475295D01*
X179049523Y-188475295D02*
X179049523Y-188618152D01*
X179049523Y-188618152D02*
X179001904Y-188713390D01*
X179001904Y-188713390D02*
X178954285Y-188761009D01*
X178954285Y-188761009D02*
X178859047Y-188808628D01*
X178859047Y-188808628D02*
X178478095Y-188808628D01*
X180240000Y-188903866D02*
X181001905Y-188903866D01*
X180620952Y-189284819D02*
X180620952Y-188522914D01*
X181382857Y-188618152D02*
X181620952Y-189284819D01*
X181620952Y-189284819D02*
X181859047Y-188618152D01*
X182620952Y-189237200D02*
X182525714Y-189284819D01*
X182525714Y-189284819D02*
X182335238Y-189284819D01*
X182335238Y-189284819D02*
X182240000Y-189237200D01*
X182240000Y-189237200D02*
X182192381Y-189141961D01*
X182192381Y-189141961D02*
X182192381Y-188761009D01*
X182192381Y-188761009D02*
X182240000Y-188665771D01*
X182240000Y-188665771D02*
X182335238Y-188618152D01*
X182335238Y-188618152D02*
X182525714Y-188618152D01*
X182525714Y-188618152D02*
X182620952Y-188665771D01*
X182620952Y-188665771D02*
X182668571Y-188761009D01*
X182668571Y-188761009D02*
X182668571Y-188856247D01*
X182668571Y-188856247D02*
X182192381Y-188951485D01*
X177930476Y-184234819D02*
X177930476Y-184949104D01*
X177930476Y-184949104D02*
X177882857Y-185091961D01*
X177882857Y-185091961D02*
X177787619Y-185187200D01*
X177787619Y-185187200D02*
X177644762Y-185234819D01*
X177644762Y-185234819D02*
X177549524Y-185234819D01*
X178930476Y-185234819D02*
X178359048Y-185234819D01*
X178644762Y-185234819D02*
X178644762Y-184234819D01*
X178644762Y-184234819D02*
X178549524Y-184377676D01*
X178549524Y-184377676D02*
X178454286Y-184472914D01*
X178454286Y-184472914D02*
X178359048Y-184520533D01*
X179787619Y-184568152D02*
X179787619Y-185234819D01*
X179549524Y-184187200D02*
X179311429Y-184901485D01*
X179311429Y-184901485D02*
X179930476Y-184901485D01*
X212547618Y-188618152D02*
X212547618Y-189284819D01*
X212309523Y-188237200D02*
X212071428Y-188951485D01*
X212071428Y-188951485D02*
X212690475Y-188951485D01*
X213023809Y-189237200D02*
X213166666Y-189284819D01*
X213166666Y-189284819D02*
X213404761Y-189284819D01*
X213404761Y-189284819D02*
X213499999Y-189237200D01*
X213499999Y-189237200D02*
X213547618Y-189189580D01*
X213547618Y-189189580D02*
X213595237Y-189094342D01*
X213595237Y-189094342D02*
X213595237Y-188999104D01*
X213595237Y-188999104D02*
X213547618Y-188903866D01*
X213547618Y-188903866D02*
X213499999Y-188856247D01*
X213499999Y-188856247D02*
X213404761Y-188808628D01*
X213404761Y-188808628D02*
X213214285Y-188761009D01*
X213214285Y-188761009D02*
X213119047Y-188713390D01*
X213119047Y-188713390D02*
X213071428Y-188665771D01*
X213071428Y-188665771D02*
X213023809Y-188570533D01*
X213023809Y-188570533D02*
X213023809Y-188475295D01*
X213023809Y-188475295D02*
X213071428Y-188380057D01*
X213071428Y-188380057D02*
X213119047Y-188332438D01*
X213119047Y-188332438D02*
X213214285Y-188284819D01*
X213214285Y-188284819D02*
X213452380Y-188284819D01*
X213452380Y-188284819D02*
X213595237Y-188332438D01*
X215309523Y-189284819D02*
X214738095Y-189284819D01*
X215023809Y-189284819D02*
X215023809Y-188284819D01*
X215023809Y-188284819D02*
X214928571Y-188427676D01*
X214928571Y-188427676D02*
X214833333Y-188522914D01*
X214833333Y-188522914D02*
X214738095Y-188570533D01*
X215738095Y-189284819D02*
X215738095Y-188284819D01*
X215738095Y-188284819D02*
X216119047Y-188284819D01*
X216119047Y-188284819D02*
X216214285Y-188332438D01*
X216214285Y-188332438D02*
X216261904Y-188380057D01*
X216261904Y-188380057D02*
X216309523Y-188475295D01*
X216309523Y-188475295D02*
X216309523Y-188618152D01*
X216309523Y-188618152D02*
X216261904Y-188713390D01*
X216261904Y-188713390D02*
X216214285Y-188761009D01*
X216214285Y-188761009D02*
X216119047Y-188808628D01*
X216119047Y-188808628D02*
X215738095Y-188808628D01*
X217500000Y-188903866D02*
X218261905Y-188903866D01*
X217880952Y-189284819D02*
X217880952Y-188522914D01*
X218642857Y-188618152D02*
X218880952Y-189284819D01*
X218880952Y-189284819D02*
X219119047Y-188618152D01*
X219880952Y-189237200D02*
X219785714Y-189284819D01*
X219785714Y-189284819D02*
X219595238Y-189284819D01*
X219595238Y-189284819D02*
X219500000Y-189237200D01*
X219500000Y-189237200D02*
X219452381Y-189141961D01*
X219452381Y-189141961D02*
X219452381Y-188761009D01*
X219452381Y-188761009D02*
X219500000Y-188665771D01*
X219500000Y-188665771D02*
X219595238Y-188618152D01*
X219595238Y-188618152D02*
X219785714Y-188618152D01*
X219785714Y-188618152D02*
X219880952Y-188665771D01*
X219880952Y-188665771D02*
X219928571Y-188761009D01*
X219928571Y-188761009D02*
X219928571Y-188856247D01*
X219928571Y-188856247D02*
X219452381Y-188951485D01*
X215666666Y-184234819D02*
X215666666Y-184949104D01*
X215666666Y-184949104D02*
X215619047Y-185091961D01*
X215619047Y-185091961D02*
X215523809Y-185187200D01*
X215523809Y-185187200D02*
X215380952Y-185234819D01*
X215380952Y-185234819D02*
X215285714Y-185234819D01*
X216190476Y-185234819D02*
X216380952Y-185234819D01*
X216380952Y-185234819D02*
X216476190Y-185187200D01*
X216476190Y-185187200D02*
X216523809Y-185139580D01*
X216523809Y-185139580D02*
X216619047Y-184996723D01*
X216619047Y-184996723D02*
X216666666Y-184806247D01*
X216666666Y-184806247D02*
X216666666Y-184425295D01*
X216666666Y-184425295D02*
X216619047Y-184330057D01*
X216619047Y-184330057D02*
X216571428Y-184282438D01*
X216571428Y-184282438D02*
X216476190Y-184234819D01*
X216476190Y-184234819D02*
X216285714Y-184234819D01*
X216285714Y-184234819D02*
X216190476Y-184282438D01*
X216190476Y-184282438D02*
X216142857Y-184330057D01*
X216142857Y-184330057D02*
X216095238Y-184425295D01*
X216095238Y-184425295D02*
X216095238Y-184663390D01*
X216095238Y-184663390D02*
X216142857Y-184758628D01*
X216142857Y-184758628D02*
X216190476Y-184806247D01*
X216190476Y-184806247D02*
X216285714Y-184853866D01*
X216285714Y-184853866D02*
X216476190Y-184853866D01*
X216476190Y-184853866D02*
X216571428Y-184806247D01*
X216571428Y-184806247D02*
X216619047Y-184758628D01*
X216619047Y-184758628D02*
X216666666Y-184663390D01*
X316431428Y-188380057D02*
X316479047Y-188332438D01*
X316479047Y-188332438D02*
X316574285Y-188284819D01*
X316574285Y-188284819D02*
X316812380Y-188284819D01*
X316812380Y-188284819D02*
X316907618Y-188332438D01*
X316907618Y-188332438D02*
X316955237Y-188380057D01*
X316955237Y-188380057D02*
X317002856Y-188475295D01*
X317002856Y-188475295D02*
X317002856Y-188570533D01*
X317002856Y-188570533D02*
X316955237Y-188713390D01*
X316955237Y-188713390D02*
X316383809Y-189284819D01*
X316383809Y-189284819D02*
X317002856Y-189284819D01*
X317383809Y-189237200D02*
X317526666Y-189284819D01*
X317526666Y-189284819D02*
X317764761Y-189284819D01*
X317764761Y-189284819D02*
X317859999Y-189237200D01*
X317859999Y-189237200D02*
X317907618Y-189189580D01*
X317907618Y-189189580D02*
X317955237Y-189094342D01*
X317955237Y-189094342D02*
X317955237Y-188999104D01*
X317955237Y-188999104D02*
X317907618Y-188903866D01*
X317907618Y-188903866D02*
X317859999Y-188856247D01*
X317859999Y-188856247D02*
X317764761Y-188808628D01*
X317764761Y-188808628D02*
X317574285Y-188761009D01*
X317574285Y-188761009D02*
X317479047Y-188713390D01*
X317479047Y-188713390D02*
X317431428Y-188665771D01*
X317431428Y-188665771D02*
X317383809Y-188570533D01*
X317383809Y-188570533D02*
X317383809Y-188475295D01*
X317383809Y-188475295D02*
X317431428Y-188380057D01*
X317431428Y-188380057D02*
X317479047Y-188332438D01*
X317479047Y-188332438D02*
X317574285Y-188284819D01*
X317574285Y-188284819D02*
X317812380Y-188284819D01*
X317812380Y-188284819D02*
X317955237Y-188332438D01*
X319669523Y-189284819D02*
X319098095Y-189284819D01*
X319383809Y-189284819D02*
X319383809Y-188284819D01*
X319383809Y-188284819D02*
X319288571Y-188427676D01*
X319288571Y-188427676D02*
X319193333Y-188522914D01*
X319193333Y-188522914D02*
X319098095Y-188570533D01*
X320098095Y-189284819D02*
X320098095Y-188284819D01*
X320098095Y-188284819D02*
X320479047Y-188284819D01*
X320479047Y-188284819D02*
X320574285Y-188332438D01*
X320574285Y-188332438D02*
X320621904Y-188380057D01*
X320621904Y-188380057D02*
X320669523Y-188475295D01*
X320669523Y-188475295D02*
X320669523Y-188618152D01*
X320669523Y-188618152D02*
X320621904Y-188713390D01*
X320621904Y-188713390D02*
X320574285Y-188761009D01*
X320574285Y-188761009D02*
X320479047Y-188808628D01*
X320479047Y-188808628D02*
X320098095Y-188808628D01*
X321860000Y-188903866D02*
X322621905Y-188903866D01*
X323002857Y-188618152D02*
X323240952Y-189284819D01*
X323240952Y-189284819D02*
X323479047Y-188618152D01*
X324240952Y-189237200D02*
X324145714Y-189284819D01*
X324145714Y-189284819D02*
X323955238Y-189284819D01*
X323955238Y-189284819D02*
X323860000Y-189237200D01*
X323860000Y-189237200D02*
X323812381Y-189141961D01*
X323812381Y-189141961D02*
X323812381Y-188761009D01*
X323812381Y-188761009D02*
X323860000Y-188665771D01*
X323860000Y-188665771D02*
X323955238Y-188618152D01*
X323955238Y-188618152D02*
X324145714Y-188618152D01*
X324145714Y-188618152D02*
X324240952Y-188665771D01*
X324240952Y-188665771D02*
X324288571Y-188761009D01*
X324288571Y-188761009D02*
X324288571Y-188856247D01*
X324288571Y-188856247D02*
X323812381Y-188951485D01*
X319550476Y-184234819D02*
X319550476Y-184949104D01*
X319550476Y-184949104D02*
X319502857Y-185091961D01*
X319502857Y-185091961D02*
X319407619Y-185187200D01*
X319407619Y-185187200D02*
X319264762Y-185234819D01*
X319264762Y-185234819D02*
X319169524Y-185234819D01*
X320550476Y-185234819D02*
X319979048Y-185234819D01*
X320264762Y-185234819D02*
X320264762Y-184234819D01*
X320264762Y-184234819D02*
X320169524Y-184377676D01*
X320169524Y-184377676D02*
X320074286Y-184472914D01*
X320074286Y-184472914D02*
X319979048Y-184520533D01*
X321026667Y-185234819D02*
X321217143Y-185234819D01*
X321217143Y-185234819D02*
X321312381Y-185187200D01*
X321312381Y-185187200D02*
X321360000Y-185139580D01*
X321360000Y-185139580D02*
X321455238Y-184996723D01*
X321455238Y-184996723D02*
X321502857Y-184806247D01*
X321502857Y-184806247D02*
X321502857Y-184425295D01*
X321502857Y-184425295D02*
X321455238Y-184330057D01*
X321455238Y-184330057D02*
X321407619Y-184282438D01*
X321407619Y-184282438D02*
X321312381Y-184234819D01*
X321312381Y-184234819D02*
X321121905Y-184234819D01*
X321121905Y-184234819D02*
X321026667Y-184282438D01*
X321026667Y-184282438D02*
X320979048Y-184330057D01*
X320979048Y-184330057D02*
X320931429Y-184425295D01*
X320931429Y-184425295D02*
X320931429Y-184663390D01*
X320931429Y-184663390D02*
X320979048Y-184758628D01*
X320979048Y-184758628D02*
X321026667Y-184806247D01*
X321026667Y-184806247D02*
X321121905Y-184853866D01*
X321121905Y-184853866D02*
X321312381Y-184853866D01*
X321312381Y-184853866D02*
X321407619Y-184806247D01*
X321407619Y-184806247D02*
X321455238Y-184758628D01*
X321455238Y-184758628D02*
X321502857Y-184663390D01*
D12*
X196638095Y-45357419D02*
X196638095Y-44357419D01*
X196638095Y-44833609D02*
X197209523Y-44833609D01*
X197209523Y-45357419D02*
X197209523Y-44357419D01*
X198114285Y-44357419D02*
X197923809Y-44357419D01*
X197923809Y-44357419D02*
X197828571Y-44405038D01*
X197828571Y-44405038D02*
X197780952Y-44452657D01*
X197780952Y-44452657D02*
X197685714Y-44595514D01*
X197685714Y-44595514D02*
X197638095Y-44785990D01*
X197638095Y-44785990D02*
X197638095Y-45166942D01*
X197638095Y-45166942D02*
X197685714Y-45262180D01*
X197685714Y-45262180D02*
X197733333Y-45309800D01*
X197733333Y-45309800D02*
X197828571Y-45357419D01*
X197828571Y-45357419D02*
X198019047Y-45357419D01*
X198019047Y-45357419D02*
X198114285Y-45309800D01*
X198114285Y-45309800D02*
X198161904Y-45262180D01*
X198161904Y-45262180D02*
X198209523Y-45166942D01*
X198209523Y-45166942D02*
X198209523Y-44928847D01*
X198209523Y-44928847D02*
X198161904Y-44833609D01*
X198161904Y-44833609D02*
X198114285Y-44785990D01*
X198114285Y-44785990D02*
X198019047Y-44738371D01*
X198019047Y-44738371D02*
X197828571Y-44738371D01*
X197828571Y-44738371D02*
X197733333Y-44785990D01*
X197733333Y-44785990D02*
X197685714Y-44833609D01*
X197685714Y-44833609D02*
X197638095Y-44928847D01*
D10*
X71022856Y-165534819D02*
X70451428Y-165534819D01*
X70737142Y-165534819D02*
X70737142Y-164534819D01*
X70737142Y-164534819D02*
X70641904Y-164677676D01*
X70641904Y-164677676D02*
X70546666Y-164772914D01*
X70546666Y-164772914D02*
X70451428Y-164820533D01*
X71403809Y-165487200D02*
X71546666Y-165534819D01*
X71546666Y-165534819D02*
X71784761Y-165534819D01*
X71784761Y-165534819D02*
X71879999Y-165487200D01*
X71879999Y-165487200D02*
X71927618Y-165439580D01*
X71927618Y-165439580D02*
X71975237Y-165344342D01*
X71975237Y-165344342D02*
X71975237Y-165249104D01*
X71975237Y-165249104D02*
X71927618Y-165153866D01*
X71927618Y-165153866D02*
X71879999Y-165106247D01*
X71879999Y-165106247D02*
X71784761Y-165058628D01*
X71784761Y-165058628D02*
X71594285Y-165011009D01*
X71594285Y-165011009D02*
X71499047Y-164963390D01*
X71499047Y-164963390D02*
X71451428Y-164915771D01*
X71451428Y-164915771D02*
X71403809Y-164820533D01*
X71403809Y-164820533D02*
X71403809Y-164725295D01*
X71403809Y-164725295D02*
X71451428Y-164630057D01*
X71451428Y-164630057D02*
X71499047Y-164582438D01*
X71499047Y-164582438D02*
X71594285Y-164534819D01*
X71594285Y-164534819D02*
X71832380Y-164534819D01*
X71832380Y-164534819D02*
X71975237Y-164582438D01*
X73070476Y-164534819D02*
X73689523Y-164534819D01*
X73689523Y-164534819D02*
X73356190Y-164915771D01*
X73356190Y-164915771D02*
X73499047Y-164915771D01*
X73499047Y-164915771D02*
X73594285Y-164963390D01*
X73594285Y-164963390D02*
X73641904Y-165011009D01*
X73641904Y-165011009D02*
X73689523Y-165106247D01*
X73689523Y-165106247D02*
X73689523Y-165344342D01*
X73689523Y-165344342D02*
X73641904Y-165439580D01*
X73641904Y-165439580D02*
X73594285Y-165487200D01*
X73594285Y-165487200D02*
X73499047Y-165534819D01*
X73499047Y-165534819D02*
X73213333Y-165534819D01*
X73213333Y-165534819D02*
X73118095Y-165487200D01*
X73118095Y-165487200D02*
X73070476Y-165439580D01*
X74118095Y-165534819D02*
X74118095Y-164534819D01*
X74118095Y-164534819D02*
X74499047Y-164534819D01*
X74499047Y-164534819D02*
X74594285Y-164582438D01*
X74594285Y-164582438D02*
X74641904Y-164630057D01*
X74641904Y-164630057D02*
X74689523Y-164725295D01*
X74689523Y-164725295D02*
X74689523Y-164868152D01*
X74689523Y-164868152D02*
X74641904Y-164963390D01*
X74641904Y-164963390D02*
X74594285Y-165011009D01*
X74594285Y-165011009D02*
X74499047Y-165058628D01*
X74499047Y-165058628D02*
X74118095Y-165058628D01*
X75880000Y-165153866D02*
X76641905Y-165153866D01*
X77022857Y-164868152D02*
X77260952Y-165534819D01*
X77260952Y-165534819D02*
X77499047Y-164868152D01*
X78260952Y-165487200D02*
X78165714Y-165534819D01*
X78165714Y-165534819D02*
X77975238Y-165534819D01*
X77975238Y-165534819D02*
X77880000Y-165487200D01*
X77880000Y-165487200D02*
X77832381Y-165391961D01*
X77832381Y-165391961D02*
X77832381Y-165011009D01*
X77832381Y-165011009D02*
X77880000Y-164915771D01*
X77880000Y-164915771D02*
X77975238Y-164868152D01*
X77975238Y-164868152D02*
X78165714Y-164868152D01*
X78165714Y-164868152D02*
X78260952Y-164915771D01*
X78260952Y-164915771D02*
X78308571Y-165011009D01*
X78308571Y-165011009D02*
X78308571Y-165106247D01*
X78308571Y-165106247D02*
X77832381Y-165201485D01*
X73570476Y-160484819D02*
X73570476Y-161199104D01*
X73570476Y-161199104D02*
X73522857Y-161341961D01*
X73522857Y-161341961D02*
X73427619Y-161437200D01*
X73427619Y-161437200D02*
X73284762Y-161484819D01*
X73284762Y-161484819D02*
X73189524Y-161484819D01*
X74570476Y-161484819D02*
X73999048Y-161484819D01*
X74284762Y-161484819D02*
X74284762Y-160484819D01*
X74284762Y-160484819D02*
X74189524Y-160627676D01*
X74189524Y-160627676D02*
X74094286Y-160722914D01*
X74094286Y-160722914D02*
X73999048Y-160770533D01*
X74903810Y-160484819D02*
X75522857Y-160484819D01*
X75522857Y-160484819D02*
X75189524Y-160865771D01*
X75189524Y-160865771D02*
X75332381Y-160865771D01*
X75332381Y-160865771D02*
X75427619Y-160913390D01*
X75427619Y-160913390D02*
X75475238Y-160961009D01*
X75475238Y-160961009D02*
X75522857Y-161056247D01*
X75522857Y-161056247D02*
X75522857Y-161294342D01*
X75522857Y-161294342D02*
X75475238Y-161389580D01*
X75475238Y-161389580D02*
X75427619Y-161437200D01*
X75427619Y-161437200D02*
X75332381Y-161484819D01*
X75332381Y-161484819D02*
X75046667Y-161484819D01*
X75046667Y-161484819D02*
X74951429Y-161437200D01*
X74951429Y-161437200D02*
X74903810Y-161389580D01*
D11*
X267182143Y-186689080D02*
X267363571Y-186749556D01*
X267363571Y-186749556D02*
X267424048Y-186810032D01*
X267424048Y-186810032D02*
X267484524Y-186930984D01*
X267484524Y-186930984D02*
X267484524Y-187112413D01*
X267484524Y-187112413D02*
X267424048Y-187233365D01*
X267424048Y-187233365D02*
X267363571Y-187293842D01*
X267363571Y-187293842D02*
X267242619Y-187354318D01*
X267242619Y-187354318D02*
X266758809Y-187354318D01*
X266758809Y-187354318D02*
X266758809Y-186084318D01*
X266758809Y-186084318D02*
X267182143Y-186084318D01*
X267182143Y-186084318D02*
X267303095Y-186144794D01*
X267303095Y-186144794D02*
X267363571Y-186205270D01*
X267363571Y-186205270D02*
X267424048Y-186326222D01*
X267424048Y-186326222D02*
X267424048Y-186447175D01*
X267424048Y-186447175D02*
X267363571Y-186568127D01*
X267363571Y-186568127D02*
X267303095Y-186628603D01*
X267303095Y-186628603D02*
X267182143Y-186689080D01*
X267182143Y-186689080D02*
X266758809Y-186689080D01*
X267847381Y-186084318D02*
X268573095Y-186084318D01*
X268210238Y-187354318D02*
X268210238Y-186084318D01*
X269540714Y-186507651D02*
X269540714Y-187354318D01*
X269238333Y-186023842D02*
X268935952Y-186930984D01*
X268935952Y-186930984D02*
X269722143Y-186930984D01*
X125562143Y-162939080D02*
X125743571Y-162999556D01*
X125743571Y-162999556D02*
X125804048Y-163060032D01*
X125804048Y-163060032D02*
X125864524Y-163180984D01*
X125864524Y-163180984D02*
X125864524Y-163362413D01*
X125864524Y-163362413D02*
X125804048Y-163483365D01*
X125804048Y-163483365D02*
X125743571Y-163543842D01*
X125743571Y-163543842D02*
X125622619Y-163604318D01*
X125622619Y-163604318D02*
X125138809Y-163604318D01*
X125138809Y-163604318D02*
X125138809Y-162334318D01*
X125138809Y-162334318D02*
X125562143Y-162334318D01*
X125562143Y-162334318D02*
X125683095Y-162394794D01*
X125683095Y-162394794D02*
X125743571Y-162455270D01*
X125743571Y-162455270D02*
X125804048Y-162576222D01*
X125804048Y-162576222D02*
X125804048Y-162697175D01*
X125804048Y-162697175D02*
X125743571Y-162818127D01*
X125743571Y-162818127D02*
X125683095Y-162878603D01*
X125683095Y-162878603D02*
X125562143Y-162939080D01*
X125562143Y-162939080D02*
X125138809Y-162939080D01*
X126227381Y-162334318D02*
X126953095Y-162334318D01*
X126590238Y-163604318D02*
X126590238Y-162334318D01*
X127255476Y-162334318D02*
X128102143Y-162334318D01*
X128102143Y-162334318D02*
X127557857Y-163604318D01*
D10*
X181859999Y-223838152D02*
X181859999Y-224504819D01*
X181621904Y-223457200D02*
X181383809Y-224171485D01*
X181383809Y-224171485D02*
X182002856Y-224171485D01*
X182383809Y-224504819D02*
X182383809Y-223504819D01*
X182383809Y-223504819D02*
X182764761Y-223504819D01*
X182764761Y-223504819D02*
X182859999Y-223552438D01*
X182859999Y-223552438D02*
X182907618Y-223600057D01*
X182907618Y-223600057D02*
X182955237Y-223695295D01*
X182955237Y-223695295D02*
X182955237Y-223838152D01*
X182955237Y-223838152D02*
X182907618Y-223933390D01*
X182907618Y-223933390D02*
X182859999Y-223981009D01*
X182859999Y-223981009D02*
X182764761Y-224028628D01*
X182764761Y-224028628D02*
X182383809Y-224028628D01*
X184479047Y-223981009D02*
X184621904Y-224028628D01*
X184621904Y-224028628D02*
X184669523Y-224076247D01*
X184669523Y-224076247D02*
X184717142Y-224171485D01*
X184717142Y-224171485D02*
X184717142Y-224314342D01*
X184717142Y-224314342D02*
X184669523Y-224409580D01*
X184669523Y-224409580D02*
X184621904Y-224457200D01*
X184621904Y-224457200D02*
X184526666Y-224504819D01*
X184526666Y-224504819D02*
X184145714Y-224504819D01*
X184145714Y-224504819D02*
X184145714Y-223504819D01*
X184145714Y-223504819D02*
X184479047Y-223504819D01*
X184479047Y-223504819D02*
X184574285Y-223552438D01*
X184574285Y-223552438D02*
X184621904Y-223600057D01*
X184621904Y-223600057D02*
X184669523Y-223695295D01*
X184669523Y-223695295D02*
X184669523Y-223790533D01*
X184669523Y-223790533D02*
X184621904Y-223885771D01*
X184621904Y-223885771D02*
X184574285Y-223933390D01*
X184574285Y-223933390D02*
X184479047Y-223981009D01*
X184479047Y-223981009D02*
X184145714Y-223981009D01*
X185907619Y-224123866D02*
X186669524Y-224123866D01*
X186288571Y-224504819D02*
X186288571Y-223742914D01*
X187050476Y-223838152D02*
X187288571Y-224504819D01*
X187288571Y-224504819D02*
X187526666Y-223838152D01*
X188288571Y-224457200D02*
X188193333Y-224504819D01*
X188193333Y-224504819D02*
X188002857Y-224504819D01*
X188002857Y-224504819D02*
X187907619Y-224457200D01*
X187907619Y-224457200D02*
X187860000Y-224361961D01*
X187860000Y-224361961D02*
X187860000Y-223981009D01*
X187860000Y-223981009D02*
X187907619Y-223885771D01*
X187907619Y-223885771D02*
X188002857Y-223838152D01*
X188002857Y-223838152D02*
X188193333Y-223838152D01*
X188193333Y-223838152D02*
X188288571Y-223885771D01*
X188288571Y-223885771D02*
X188336190Y-223981009D01*
X188336190Y-223981009D02*
X188336190Y-224076247D01*
X188336190Y-224076247D02*
X187860000Y-224171485D01*
X184526666Y-219454819D02*
X184526666Y-220169104D01*
X184526666Y-220169104D02*
X184479047Y-220311961D01*
X184479047Y-220311961D02*
X184383809Y-220407200D01*
X184383809Y-220407200D02*
X184240952Y-220454819D01*
X184240952Y-220454819D02*
X184145714Y-220454819D01*
X185479047Y-219454819D02*
X185002857Y-219454819D01*
X185002857Y-219454819D02*
X184955238Y-219931009D01*
X184955238Y-219931009D02*
X185002857Y-219883390D01*
X185002857Y-219883390D02*
X185098095Y-219835771D01*
X185098095Y-219835771D02*
X185336190Y-219835771D01*
X185336190Y-219835771D02*
X185431428Y-219883390D01*
X185431428Y-219883390D02*
X185479047Y-219931009D01*
X185479047Y-219931009D02*
X185526666Y-220026247D01*
X185526666Y-220026247D02*
X185526666Y-220264342D01*
X185526666Y-220264342D02*
X185479047Y-220359580D01*
X185479047Y-220359580D02*
X185431428Y-220407200D01*
X185431428Y-220407200D02*
X185336190Y-220454819D01*
X185336190Y-220454819D02*
X185098095Y-220454819D01*
X185098095Y-220454819D02*
X185002857Y-220407200D01*
X185002857Y-220407200D02*
X184955238Y-220359580D01*
D12*
X53138095Y-145357419D02*
X53138095Y-144357419D01*
X53138095Y-144833609D02*
X53709523Y-144833609D01*
X53709523Y-145357419D02*
X53709523Y-144357419D01*
X54328571Y-144785990D02*
X54233333Y-144738371D01*
X54233333Y-144738371D02*
X54185714Y-144690752D01*
X54185714Y-144690752D02*
X54138095Y-144595514D01*
X54138095Y-144595514D02*
X54138095Y-144547895D01*
X54138095Y-144547895D02*
X54185714Y-144452657D01*
X54185714Y-144452657D02*
X54233333Y-144405038D01*
X54233333Y-144405038D02*
X54328571Y-144357419D01*
X54328571Y-144357419D02*
X54519047Y-144357419D01*
X54519047Y-144357419D02*
X54614285Y-144405038D01*
X54614285Y-144405038D02*
X54661904Y-144452657D01*
X54661904Y-144452657D02*
X54709523Y-144547895D01*
X54709523Y-144547895D02*
X54709523Y-144595514D01*
X54709523Y-144595514D02*
X54661904Y-144690752D01*
X54661904Y-144690752D02*
X54614285Y-144738371D01*
X54614285Y-144738371D02*
X54519047Y-144785990D01*
X54519047Y-144785990D02*
X54328571Y-144785990D01*
X54328571Y-144785990D02*
X54233333Y-144833609D01*
X54233333Y-144833609D02*
X54185714Y-144881228D01*
X54185714Y-144881228D02*
X54138095Y-144976466D01*
X54138095Y-144976466D02*
X54138095Y-145166942D01*
X54138095Y-145166942D02*
X54185714Y-145262180D01*
X54185714Y-145262180D02*
X54233333Y-145309800D01*
X54233333Y-145309800D02*
X54328571Y-145357419D01*
X54328571Y-145357419D02*
X54519047Y-145357419D01*
X54519047Y-145357419D02*
X54614285Y-145309800D01*
X54614285Y-145309800D02*
X54661904Y-145262180D01*
X54661904Y-145262180D02*
X54709523Y-145166942D01*
X54709523Y-145166942D02*
X54709523Y-144976466D01*
X54709523Y-144976466D02*
X54661904Y-144881228D01*
X54661904Y-144881228D02*
X54614285Y-144833609D01*
X54614285Y-144833609D02*
X54519047Y-144785990D01*
D10*
X212642856Y-165534819D02*
X212071428Y-165534819D01*
X212357142Y-165534819D02*
X212357142Y-164534819D01*
X212357142Y-164534819D02*
X212261904Y-164677676D01*
X212261904Y-164677676D02*
X212166666Y-164772914D01*
X212166666Y-164772914D02*
X212071428Y-164820533D01*
X213023809Y-165487200D02*
X213166666Y-165534819D01*
X213166666Y-165534819D02*
X213404761Y-165534819D01*
X213404761Y-165534819D02*
X213499999Y-165487200D01*
X213499999Y-165487200D02*
X213547618Y-165439580D01*
X213547618Y-165439580D02*
X213595237Y-165344342D01*
X213595237Y-165344342D02*
X213595237Y-165249104D01*
X213595237Y-165249104D02*
X213547618Y-165153866D01*
X213547618Y-165153866D02*
X213499999Y-165106247D01*
X213499999Y-165106247D02*
X213404761Y-165058628D01*
X213404761Y-165058628D02*
X213214285Y-165011009D01*
X213214285Y-165011009D02*
X213119047Y-164963390D01*
X213119047Y-164963390D02*
X213071428Y-164915771D01*
X213071428Y-164915771D02*
X213023809Y-164820533D01*
X213023809Y-164820533D02*
X213023809Y-164725295D01*
X213023809Y-164725295D02*
X213071428Y-164630057D01*
X213071428Y-164630057D02*
X213119047Y-164582438D01*
X213119047Y-164582438D02*
X213214285Y-164534819D01*
X213214285Y-164534819D02*
X213452380Y-164534819D01*
X213452380Y-164534819D02*
X213595237Y-164582438D01*
X215309523Y-165534819D02*
X214738095Y-165534819D01*
X215023809Y-165534819D02*
X215023809Y-164534819D01*
X215023809Y-164534819D02*
X214928571Y-164677676D01*
X214928571Y-164677676D02*
X214833333Y-164772914D01*
X214833333Y-164772914D02*
X214738095Y-164820533D01*
X215738095Y-165534819D02*
X215738095Y-164534819D01*
X215738095Y-164534819D02*
X216119047Y-164534819D01*
X216119047Y-164534819D02*
X216214285Y-164582438D01*
X216214285Y-164582438D02*
X216261904Y-164630057D01*
X216261904Y-164630057D02*
X216309523Y-164725295D01*
X216309523Y-164725295D02*
X216309523Y-164868152D01*
X216309523Y-164868152D02*
X216261904Y-164963390D01*
X216261904Y-164963390D02*
X216214285Y-165011009D01*
X216214285Y-165011009D02*
X216119047Y-165058628D01*
X216119047Y-165058628D02*
X215738095Y-165058628D01*
X217500000Y-165153866D02*
X218261905Y-165153866D01*
X218642857Y-164868152D02*
X218880952Y-165534819D01*
X218880952Y-165534819D02*
X219119047Y-164868152D01*
X219880952Y-165487200D02*
X219785714Y-165534819D01*
X219785714Y-165534819D02*
X219595238Y-165534819D01*
X219595238Y-165534819D02*
X219500000Y-165487200D01*
X219500000Y-165487200D02*
X219452381Y-165391961D01*
X219452381Y-165391961D02*
X219452381Y-165011009D01*
X219452381Y-165011009D02*
X219500000Y-164915771D01*
X219500000Y-164915771D02*
X219595238Y-164868152D01*
X219595238Y-164868152D02*
X219785714Y-164868152D01*
X219785714Y-164868152D02*
X219880952Y-164915771D01*
X219880952Y-164915771D02*
X219928571Y-165011009D01*
X219928571Y-165011009D02*
X219928571Y-165106247D01*
X219928571Y-165106247D02*
X219452381Y-165201485D01*
X215190476Y-160484819D02*
X215190476Y-161199104D01*
X215190476Y-161199104D02*
X215142857Y-161341961D01*
X215142857Y-161341961D02*
X215047619Y-161437200D01*
X215047619Y-161437200D02*
X214904762Y-161484819D01*
X214904762Y-161484819D02*
X214809524Y-161484819D01*
X216190476Y-161484819D02*
X215619048Y-161484819D01*
X215904762Y-161484819D02*
X215904762Y-160484819D01*
X215904762Y-160484819D02*
X215809524Y-160627676D01*
X215809524Y-160627676D02*
X215714286Y-160722914D01*
X215714286Y-160722914D02*
X215619048Y-160770533D01*
X216761905Y-160913390D02*
X216666667Y-160865771D01*
X216666667Y-160865771D02*
X216619048Y-160818152D01*
X216619048Y-160818152D02*
X216571429Y-160722914D01*
X216571429Y-160722914D02*
X216571429Y-160675295D01*
X216571429Y-160675295D02*
X216619048Y-160580057D01*
X216619048Y-160580057D02*
X216666667Y-160532438D01*
X216666667Y-160532438D02*
X216761905Y-160484819D01*
X216761905Y-160484819D02*
X216952381Y-160484819D01*
X216952381Y-160484819D02*
X217047619Y-160532438D01*
X217047619Y-160532438D02*
X217095238Y-160580057D01*
X217095238Y-160580057D02*
X217142857Y-160675295D01*
X217142857Y-160675295D02*
X217142857Y-160722914D01*
X217142857Y-160722914D02*
X217095238Y-160818152D01*
X217095238Y-160818152D02*
X217047619Y-160865771D01*
X217047619Y-160865771D02*
X216952381Y-160913390D01*
X216952381Y-160913390D02*
X216761905Y-160913390D01*
X216761905Y-160913390D02*
X216666667Y-160961009D01*
X216666667Y-160961009D02*
X216619048Y-161008628D01*
X216619048Y-161008628D02*
X216571429Y-161103866D01*
X216571429Y-161103866D02*
X216571429Y-161294342D01*
X216571429Y-161294342D02*
X216619048Y-161389580D01*
X216619048Y-161389580D02*
X216666667Y-161437200D01*
X216666667Y-161437200D02*
X216761905Y-161484819D01*
X216761905Y-161484819D02*
X216952381Y-161484819D01*
X216952381Y-161484819D02*
X217047619Y-161437200D01*
X217047619Y-161437200D02*
X217095238Y-161389580D01*
X217095238Y-161389580D02*
X217142857Y-161294342D01*
X217142857Y-161294342D02*
X217142857Y-161103866D01*
X217142857Y-161103866D02*
X217095238Y-161008628D01*
X217095238Y-161008628D02*
X217047619Y-160961009D01*
X217047619Y-160961009D02*
X216952381Y-160913390D01*
X317383809Y-141118152D02*
X317383809Y-141784819D01*
X317145714Y-140737200D02*
X316907619Y-141451485D01*
X316907619Y-141451485D02*
X317526666Y-141451485D01*
X317860000Y-141737200D02*
X318002857Y-141784819D01*
X318002857Y-141784819D02*
X318240952Y-141784819D01*
X318240952Y-141784819D02*
X318336190Y-141737200D01*
X318336190Y-141737200D02*
X318383809Y-141689580D01*
X318383809Y-141689580D02*
X318431428Y-141594342D01*
X318431428Y-141594342D02*
X318431428Y-141499104D01*
X318431428Y-141499104D02*
X318383809Y-141403866D01*
X318383809Y-141403866D02*
X318336190Y-141356247D01*
X318336190Y-141356247D02*
X318240952Y-141308628D01*
X318240952Y-141308628D02*
X318050476Y-141261009D01*
X318050476Y-141261009D02*
X317955238Y-141213390D01*
X317955238Y-141213390D02*
X317907619Y-141165771D01*
X317907619Y-141165771D02*
X317860000Y-141070533D01*
X317860000Y-141070533D02*
X317860000Y-140975295D01*
X317860000Y-140975295D02*
X317907619Y-140880057D01*
X317907619Y-140880057D02*
X317955238Y-140832438D01*
X317955238Y-140832438D02*
X318050476Y-140784819D01*
X318050476Y-140784819D02*
X318288571Y-140784819D01*
X318288571Y-140784819D02*
X318431428Y-140832438D01*
X319955238Y-141261009D02*
X320098095Y-141308628D01*
X320098095Y-141308628D02*
X320145714Y-141356247D01*
X320145714Y-141356247D02*
X320193333Y-141451485D01*
X320193333Y-141451485D02*
X320193333Y-141594342D01*
X320193333Y-141594342D02*
X320145714Y-141689580D01*
X320145714Y-141689580D02*
X320098095Y-141737200D01*
X320098095Y-141737200D02*
X320002857Y-141784819D01*
X320002857Y-141784819D02*
X319621905Y-141784819D01*
X319621905Y-141784819D02*
X319621905Y-140784819D01*
X319621905Y-140784819D02*
X319955238Y-140784819D01*
X319955238Y-140784819D02*
X320050476Y-140832438D01*
X320050476Y-140832438D02*
X320098095Y-140880057D01*
X320098095Y-140880057D02*
X320145714Y-140975295D01*
X320145714Y-140975295D02*
X320145714Y-141070533D01*
X320145714Y-141070533D02*
X320098095Y-141165771D01*
X320098095Y-141165771D02*
X320050476Y-141213390D01*
X320050476Y-141213390D02*
X319955238Y-141261009D01*
X319955238Y-141261009D02*
X319621905Y-141261009D01*
X321383810Y-141403866D02*
X322145715Y-141403866D01*
X321764762Y-141784819D02*
X321764762Y-141022914D01*
X322526667Y-141118152D02*
X322764762Y-141784819D01*
X322764762Y-141784819D02*
X323002857Y-141118152D01*
X323764762Y-141737200D02*
X323669524Y-141784819D01*
X323669524Y-141784819D02*
X323479048Y-141784819D01*
X323479048Y-141784819D02*
X323383810Y-141737200D01*
X323383810Y-141737200D02*
X323336191Y-141641961D01*
X323336191Y-141641961D02*
X323336191Y-141261009D01*
X323336191Y-141261009D02*
X323383810Y-141165771D01*
X323383810Y-141165771D02*
X323479048Y-141118152D01*
X323479048Y-141118152D02*
X323669524Y-141118152D01*
X323669524Y-141118152D02*
X323764762Y-141165771D01*
X323764762Y-141165771D02*
X323812381Y-141261009D01*
X323812381Y-141261009D02*
X323812381Y-141356247D01*
X323812381Y-141356247D02*
X323336191Y-141451485D01*
X320026666Y-136734819D02*
X320026666Y-137449104D01*
X320026666Y-137449104D02*
X319979047Y-137591961D01*
X319979047Y-137591961D02*
X319883809Y-137687200D01*
X319883809Y-137687200D02*
X319740952Y-137734819D01*
X319740952Y-137734819D02*
X319645714Y-137734819D01*
X320407619Y-136734819D02*
X321026666Y-136734819D01*
X321026666Y-136734819D02*
X320693333Y-137115771D01*
X320693333Y-137115771D02*
X320836190Y-137115771D01*
X320836190Y-137115771D02*
X320931428Y-137163390D01*
X320931428Y-137163390D02*
X320979047Y-137211009D01*
X320979047Y-137211009D02*
X321026666Y-137306247D01*
X321026666Y-137306247D02*
X321026666Y-137544342D01*
X321026666Y-137544342D02*
X320979047Y-137639580D01*
X320979047Y-137639580D02*
X320931428Y-137687200D01*
X320931428Y-137687200D02*
X320836190Y-137734819D01*
X320836190Y-137734819D02*
X320550476Y-137734819D01*
X320550476Y-137734819D02*
X320455238Y-137687200D01*
X320455238Y-137687200D02*
X320407619Y-137639580D01*
X246222856Y-89754819D02*
X245651428Y-89754819D01*
X245937142Y-89754819D02*
X245937142Y-88754819D01*
X245937142Y-88754819D02*
X245841904Y-88897676D01*
X245841904Y-88897676D02*
X245746666Y-88992914D01*
X245746666Y-88992914D02*
X245651428Y-89040533D01*
X246603809Y-89707200D02*
X246746666Y-89754819D01*
X246746666Y-89754819D02*
X246984761Y-89754819D01*
X246984761Y-89754819D02*
X247079999Y-89707200D01*
X247079999Y-89707200D02*
X247127618Y-89659580D01*
X247127618Y-89659580D02*
X247175237Y-89564342D01*
X247175237Y-89564342D02*
X247175237Y-89469104D01*
X247175237Y-89469104D02*
X247127618Y-89373866D01*
X247127618Y-89373866D02*
X247079999Y-89326247D01*
X247079999Y-89326247D02*
X246984761Y-89278628D01*
X246984761Y-89278628D02*
X246794285Y-89231009D01*
X246794285Y-89231009D02*
X246699047Y-89183390D01*
X246699047Y-89183390D02*
X246651428Y-89135771D01*
X246651428Y-89135771D02*
X246603809Y-89040533D01*
X246603809Y-89040533D02*
X246603809Y-88945295D01*
X246603809Y-88945295D02*
X246651428Y-88850057D01*
X246651428Y-88850057D02*
X246699047Y-88802438D01*
X246699047Y-88802438D02*
X246794285Y-88754819D01*
X246794285Y-88754819D02*
X247032380Y-88754819D01*
X247032380Y-88754819D02*
X247175237Y-88802438D01*
X248889523Y-89754819D02*
X248318095Y-89754819D01*
X248603809Y-89754819D02*
X248603809Y-88754819D01*
X248603809Y-88754819D02*
X248508571Y-88897676D01*
X248508571Y-88897676D02*
X248413333Y-88992914D01*
X248413333Y-88992914D02*
X248318095Y-89040533D01*
X249318095Y-89754819D02*
X249318095Y-88754819D01*
X249318095Y-88754819D02*
X249699047Y-88754819D01*
X249699047Y-88754819D02*
X249794285Y-88802438D01*
X249794285Y-88802438D02*
X249841904Y-88850057D01*
X249841904Y-88850057D02*
X249889523Y-88945295D01*
X249889523Y-88945295D02*
X249889523Y-89088152D01*
X249889523Y-89088152D02*
X249841904Y-89183390D01*
X249841904Y-89183390D02*
X249794285Y-89231009D01*
X249794285Y-89231009D02*
X249699047Y-89278628D01*
X249699047Y-89278628D02*
X249318095Y-89278628D01*
X251080000Y-89373866D02*
X251841905Y-89373866D01*
X251460952Y-89754819D02*
X251460952Y-88992914D01*
X252222857Y-89088152D02*
X252460952Y-89754819D01*
X252460952Y-89754819D02*
X252699047Y-89088152D01*
X253460952Y-89707200D02*
X253365714Y-89754819D01*
X253365714Y-89754819D02*
X253175238Y-89754819D01*
X253175238Y-89754819D02*
X253080000Y-89707200D01*
X253080000Y-89707200D02*
X253032381Y-89611961D01*
X253032381Y-89611961D02*
X253032381Y-89231009D01*
X253032381Y-89231009D02*
X253080000Y-89135771D01*
X253080000Y-89135771D02*
X253175238Y-89088152D01*
X253175238Y-89088152D02*
X253365714Y-89088152D01*
X253365714Y-89088152D02*
X253460952Y-89135771D01*
X253460952Y-89135771D02*
X253508571Y-89231009D01*
X253508571Y-89231009D02*
X253508571Y-89326247D01*
X253508571Y-89326247D02*
X253032381Y-89421485D01*
X249246666Y-84704819D02*
X249246666Y-85419104D01*
X249246666Y-85419104D02*
X249199047Y-85561961D01*
X249199047Y-85561961D02*
X249103809Y-85657200D01*
X249103809Y-85657200D02*
X248960952Y-85704819D01*
X248960952Y-85704819D02*
X248865714Y-85704819D01*
X250246666Y-85704819D02*
X249675238Y-85704819D01*
X249960952Y-85704819D02*
X249960952Y-84704819D01*
X249960952Y-84704819D02*
X249865714Y-84847676D01*
X249865714Y-84847676D02*
X249770476Y-84942914D01*
X249770476Y-84942914D02*
X249675238Y-84990533D01*
D11*
X125562143Y-210439080D02*
X125743571Y-210499556D01*
X125743571Y-210499556D02*
X125804048Y-210560032D01*
X125804048Y-210560032D02*
X125864524Y-210680984D01*
X125864524Y-210680984D02*
X125864524Y-210862413D01*
X125864524Y-210862413D02*
X125804048Y-210983365D01*
X125804048Y-210983365D02*
X125743571Y-211043842D01*
X125743571Y-211043842D02*
X125622619Y-211104318D01*
X125622619Y-211104318D02*
X125138809Y-211104318D01*
X125138809Y-211104318D02*
X125138809Y-209834318D01*
X125138809Y-209834318D02*
X125562143Y-209834318D01*
X125562143Y-209834318D02*
X125683095Y-209894794D01*
X125683095Y-209894794D02*
X125743571Y-209955270D01*
X125743571Y-209955270D02*
X125804048Y-210076222D01*
X125804048Y-210076222D02*
X125804048Y-210197175D01*
X125804048Y-210197175D02*
X125743571Y-210318127D01*
X125743571Y-210318127D02*
X125683095Y-210378603D01*
X125683095Y-210378603D02*
X125562143Y-210439080D01*
X125562143Y-210439080D02*
X125138809Y-210439080D01*
X126227381Y-209834318D02*
X126953095Y-209834318D01*
X126590238Y-211104318D02*
X126590238Y-209834318D01*
X127436905Y-211104318D02*
X127678809Y-211104318D01*
X127678809Y-211104318D02*
X127799762Y-211043842D01*
X127799762Y-211043842D02*
X127860238Y-210983365D01*
X127860238Y-210983365D02*
X127981190Y-210801937D01*
X127981190Y-210801937D02*
X128041667Y-210560032D01*
X128041667Y-210560032D02*
X128041667Y-210076222D01*
X128041667Y-210076222D02*
X127981190Y-209955270D01*
X127981190Y-209955270D02*
X127920714Y-209894794D01*
X127920714Y-209894794D02*
X127799762Y-209834318D01*
X127799762Y-209834318D02*
X127557857Y-209834318D01*
X127557857Y-209834318D02*
X127436905Y-209894794D01*
X127436905Y-209894794D02*
X127376428Y-209955270D01*
X127376428Y-209955270D02*
X127315952Y-210076222D01*
X127315952Y-210076222D02*
X127315952Y-210378603D01*
X127315952Y-210378603D02*
X127376428Y-210499556D01*
X127376428Y-210499556D02*
X127436905Y-210560032D01*
X127436905Y-210560032D02*
X127557857Y-210620508D01*
X127557857Y-210620508D02*
X127799762Y-210620508D01*
X127799762Y-210620508D02*
X127920714Y-210560032D01*
X127920714Y-210560032D02*
X127981190Y-210499556D01*
X127981190Y-210499556D02*
X128041667Y-210378603D01*
D10*
X175382856Y-213034819D02*
X174811428Y-213034819D01*
X175097142Y-213034819D02*
X175097142Y-212034819D01*
X175097142Y-212034819D02*
X175001904Y-212177676D01*
X175001904Y-212177676D02*
X174906666Y-212272914D01*
X174906666Y-212272914D02*
X174811428Y-212320533D01*
X175763809Y-212987200D02*
X175906666Y-213034819D01*
X175906666Y-213034819D02*
X176144761Y-213034819D01*
X176144761Y-213034819D02*
X176239999Y-212987200D01*
X176239999Y-212987200D02*
X176287618Y-212939580D01*
X176287618Y-212939580D02*
X176335237Y-212844342D01*
X176335237Y-212844342D02*
X176335237Y-212749104D01*
X176335237Y-212749104D02*
X176287618Y-212653866D01*
X176287618Y-212653866D02*
X176239999Y-212606247D01*
X176239999Y-212606247D02*
X176144761Y-212558628D01*
X176144761Y-212558628D02*
X175954285Y-212511009D01*
X175954285Y-212511009D02*
X175859047Y-212463390D01*
X175859047Y-212463390D02*
X175811428Y-212415771D01*
X175811428Y-212415771D02*
X175763809Y-212320533D01*
X175763809Y-212320533D02*
X175763809Y-212225295D01*
X175763809Y-212225295D02*
X175811428Y-212130057D01*
X175811428Y-212130057D02*
X175859047Y-212082438D01*
X175859047Y-212082438D02*
X175954285Y-212034819D01*
X175954285Y-212034819D02*
X176192380Y-212034819D01*
X176192380Y-212034819D02*
X176335237Y-212082438D01*
X177478095Y-212130057D02*
X177525714Y-212082438D01*
X177525714Y-212082438D02*
X177620952Y-212034819D01*
X177620952Y-212034819D02*
X177859047Y-212034819D01*
X177859047Y-212034819D02*
X177954285Y-212082438D01*
X177954285Y-212082438D02*
X178001904Y-212130057D01*
X178001904Y-212130057D02*
X178049523Y-212225295D01*
X178049523Y-212225295D02*
X178049523Y-212320533D01*
X178049523Y-212320533D02*
X178001904Y-212463390D01*
X178001904Y-212463390D02*
X177430476Y-213034819D01*
X177430476Y-213034819D02*
X178049523Y-213034819D01*
X178478095Y-213034819D02*
X178478095Y-212034819D01*
X178478095Y-212034819D02*
X178859047Y-212034819D01*
X178859047Y-212034819D02*
X178954285Y-212082438D01*
X178954285Y-212082438D02*
X179001904Y-212130057D01*
X179001904Y-212130057D02*
X179049523Y-212225295D01*
X179049523Y-212225295D02*
X179049523Y-212368152D01*
X179049523Y-212368152D02*
X179001904Y-212463390D01*
X179001904Y-212463390D02*
X178954285Y-212511009D01*
X178954285Y-212511009D02*
X178859047Y-212558628D01*
X178859047Y-212558628D02*
X178478095Y-212558628D01*
X180240000Y-212653866D02*
X181001905Y-212653866D01*
X180620952Y-213034819D02*
X180620952Y-212272914D01*
X181382857Y-212368152D02*
X181620952Y-213034819D01*
X181620952Y-213034819D02*
X181859047Y-212368152D01*
X182620952Y-212987200D02*
X182525714Y-213034819D01*
X182525714Y-213034819D02*
X182335238Y-213034819D01*
X182335238Y-213034819D02*
X182240000Y-212987200D01*
X182240000Y-212987200D02*
X182192381Y-212891961D01*
X182192381Y-212891961D02*
X182192381Y-212511009D01*
X182192381Y-212511009D02*
X182240000Y-212415771D01*
X182240000Y-212415771D02*
X182335238Y-212368152D01*
X182335238Y-212368152D02*
X182525714Y-212368152D01*
X182525714Y-212368152D02*
X182620952Y-212415771D01*
X182620952Y-212415771D02*
X182668571Y-212511009D01*
X182668571Y-212511009D02*
X182668571Y-212606247D01*
X182668571Y-212606247D02*
X182192381Y-212701485D01*
X177930476Y-207984819D02*
X177930476Y-208699104D01*
X177930476Y-208699104D02*
X177882857Y-208841961D01*
X177882857Y-208841961D02*
X177787619Y-208937200D01*
X177787619Y-208937200D02*
X177644762Y-208984819D01*
X177644762Y-208984819D02*
X177549524Y-208984819D01*
X178930476Y-208984819D02*
X178359048Y-208984819D01*
X178644762Y-208984819D02*
X178644762Y-207984819D01*
X178644762Y-207984819D02*
X178549524Y-208127676D01*
X178549524Y-208127676D02*
X178454286Y-208222914D01*
X178454286Y-208222914D02*
X178359048Y-208270533D01*
X179787619Y-207984819D02*
X179597143Y-207984819D01*
X179597143Y-207984819D02*
X179501905Y-208032438D01*
X179501905Y-208032438D02*
X179454286Y-208080057D01*
X179454286Y-208080057D02*
X179359048Y-208222914D01*
X179359048Y-208222914D02*
X179311429Y-208413390D01*
X179311429Y-208413390D02*
X179311429Y-208794342D01*
X179311429Y-208794342D02*
X179359048Y-208889580D01*
X179359048Y-208889580D02*
X179406667Y-208937200D01*
X179406667Y-208937200D02*
X179501905Y-208984819D01*
X179501905Y-208984819D02*
X179692381Y-208984819D01*
X179692381Y-208984819D02*
X179787619Y-208937200D01*
X179787619Y-208937200D02*
X179835238Y-208889580D01*
X179835238Y-208889580D02*
X179882857Y-208794342D01*
X179882857Y-208794342D02*
X179882857Y-208556247D01*
X179882857Y-208556247D02*
X179835238Y-208461009D01*
X179835238Y-208461009D02*
X179787619Y-208413390D01*
X179787619Y-208413390D02*
X179692381Y-208365771D01*
X179692381Y-208365771D02*
X179501905Y-208365771D01*
X179501905Y-208365771D02*
X179406667Y-208413390D01*
X179406667Y-208413390D02*
X179359048Y-208461009D01*
X179359048Y-208461009D02*
X179311429Y-208556247D01*
D11*
X267182143Y-139189080D02*
X267363571Y-139249556D01*
X267363571Y-139249556D02*
X267424048Y-139310032D01*
X267424048Y-139310032D02*
X267484524Y-139430984D01*
X267484524Y-139430984D02*
X267484524Y-139612413D01*
X267484524Y-139612413D02*
X267424048Y-139733365D01*
X267424048Y-139733365D02*
X267363571Y-139793842D01*
X267363571Y-139793842D02*
X267242619Y-139854318D01*
X267242619Y-139854318D02*
X266758809Y-139854318D01*
X266758809Y-139854318D02*
X266758809Y-138584318D01*
X266758809Y-138584318D02*
X267182143Y-138584318D01*
X267182143Y-138584318D02*
X267303095Y-138644794D01*
X267303095Y-138644794D02*
X267363571Y-138705270D01*
X267363571Y-138705270D02*
X267424048Y-138826222D01*
X267424048Y-138826222D02*
X267424048Y-138947175D01*
X267424048Y-138947175D02*
X267363571Y-139068127D01*
X267363571Y-139068127D02*
X267303095Y-139128603D01*
X267303095Y-139128603D02*
X267182143Y-139189080D01*
X267182143Y-139189080D02*
X266758809Y-139189080D01*
X267847381Y-138584318D02*
X268573095Y-138584318D01*
X268210238Y-139854318D02*
X268210238Y-138584318D01*
X268935952Y-138705270D02*
X268996428Y-138644794D01*
X268996428Y-138644794D02*
X269117381Y-138584318D01*
X269117381Y-138584318D02*
X269419762Y-138584318D01*
X269419762Y-138584318D02*
X269540714Y-138644794D01*
X269540714Y-138644794D02*
X269601190Y-138705270D01*
X269601190Y-138705270D02*
X269661667Y-138826222D01*
X269661667Y-138826222D02*
X269661667Y-138947175D01*
X269661667Y-138947175D02*
X269601190Y-139128603D01*
X269601190Y-139128603D02*
X268875476Y-139854318D01*
X268875476Y-139854318D02*
X269661667Y-139854318D01*
D10*
X71022856Y-189284819D02*
X70451428Y-189284819D01*
X70737142Y-189284819D02*
X70737142Y-188284819D01*
X70737142Y-188284819D02*
X70641904Y-188427676D01*
X70641904Y-188427676D02*
X70546666Y-188522914D01*
X70546666Y-188522914D02*
X70451428Y-188570533D01*
X71403809Y-189237200D02*
X71546666Y-189284819D01*
X71546666Y-189284819D02*
X71784761Y-189284819D01*
X71784761Y-189284819D02*
X71879999Y-189237200D01*
X71879999Y-189237200D02*
X71927618Y-189189580D01*
X71927618Y-189189580D02*
X71975237Y-189094342D01*
X71975237Y-189094342D02*
X71975237Y-188999104D01*
X71975237Y-188999104D02*
X71927618Y-188903866D01*
X71927618Y-188903866D02*
X71879999Y-188856247D01*
X71879999Y-188856247D02*
X71784761Y-188808628D01*
X71784761Y-188808628D02*
X71594285Y-188761009D01*
X71594285Y-188761009D02*
X71499047Y-188713390D01*
X71499047Y-188713390D02*
X71451428Y-188665771D01*
X71451428Y-188665771D02*
X71403809Y-188570533D01*
X71403809Y-188570533D02*
X71403809Y-188475295D01*
X71403809Y-188475295D02*
X71451428Y-188380057D01*
X71451428Y-188380057D02*
X71499047Y-188332438D01*
X71499047Y-188332438D02*
X71594285Y-188284819D01*
X71594285Y-188284819D02*
X71832380Y-188284819D01*
X71832380Y-188284819D02*
X71975237Y-188332438D01*
X73594285Y-188618152D02*
X73594285Y-189284819D01*
X73356190Y-188237200D02*
X73118095Y-188951485D01*
X73118095Y-188951485D02*
X73737142Y-188951485D01*
X74118095Y-189284819D02*
X74118095Y-188284819D01*
X74118095Y-188284819D02*
X74499047Y-188284819D01*
X74499047Y-188284819D02*
X74594285Y-188332438D01*
X74594285Y-188332438D02*
X74641904Y-188380057D01*
X74641904Y-188380057D02*
X74689523Y-188475295D01*
X74689523Y-188475295D02*
X74689523Y-188618152D01*
X74689523Y-188618152D02*
X74641904Y-188713390D01*
X74641904Y-188713390D02*
X74594285Y-188761009D01*
X74594285Y-188761009D02*
X74499047Y-188808628D01*
X74499047Y-188808628D02*
X74118095Y-188808628D01*
X75880000Y-188903866D02*
X76641905Y-188903866D01*
X77022857Y-188618152D02*
X77260952Y-189284819D01*
X77260952Y-189284819D02*
X77499047Y-188618152D01*
X78260952Y-189237200D02*
X78165714Y-189284819D01*
X78165714Y-189284819D02*
X77975238Y-189284819D01*
X77975238Y-189284819D02*
X77880000Y-189237200D01*
X77880000Y-189237200D02*
X77832381Y-189141961D01*
X77832381Y-189141961D02*
X77832381Y-188761009D01*
X77832381Y-188761009D02*
X77880000Y-188665771D01*
X77880000Y-188665771D02*
X77975238Y-188618152D01*
X77975238Y-188618152D02*
X78165714Y-188618152D01*
X78165714Y-188618152D02*
X78260952Y-188665771D01*
X78260952Y-188665771D02*
X78308571Y-188761009D01*
X78308571Y-188761009D02*
X78308571Y-188856247D01*
X78308571Y-188856247D02*
X77832381Y-188951485D01*
X73570476Y-184234819D02*
X73570476Y-184949104D01*
X73570476Y-184949104D02*
X73522857Y-185091961D01*
X73522857Y-185091961D02*
X73427619Y-185187200D01*
X73427619Y-185187200D02*
X73284762Y-185234819D01*
X73284762Y-185234819D02*
X73189524Y-185234819D01*
X74570476Y-185234819D02*
X73999048Y-185234819D01*
X74284762Y-185234819D02*
X74284762Y-184234819D01*
X74284762Y-184234819D02*
X74189524Y-184377676D01*
X74189524Y-184377676D02*
X74094286Y-184472914D01*
X74094286Y-184472914D02*
X73999048Y-184520533D01*
X75475238Y-184234819D02*
X74999048Y-184234819D01*
X74999048Y-184234819D02*
X74951429Y-184711009D01*
X74951429Y-184711009D02*
X74999048Y-184663390D01*
X74999048Y-184663390D02*
X75094286Y-184615771D01*
X75094286Y-184615771D02*
X75332381Y-184615771D01*
X75332381Y-184615771D02*
X75427619Y-184663390D01*
X75427619Y-184663390D02*
X75475238Y-184711009D01*
X75475238Y-184711009D02*
X75522857Y-184806247D01*
X75522857Y-184806247D02*
X75522857Y-185044342D01*
X75522857Y-185044342D02*
X75475238Y-185139580D01*
X75475238Y-185139580D02*
X75427619Y-185187200D01*
X75427619Y-185187200D02*
X75332381Y-185234819D01*
X75332381Y-185234819D02*
X75094286Y-185234819D01*
X75094286Y-185234819D02*
X74999048Y-185187200D01*
X74999048Y-185187200D02*
X74951429Y-185139580D01*
D12*
X340138095Y-145357419D02*
X340138095Y-144357419D01*
X340138095Y-144833609D02*
X340709523Y-144833609D01*
X340709523Y-145357419D02*
X340709523Y-144357419D01*
X341090476Y-144357419D02*
X341757142Y-144357419D01*
X341757142Y-144357419D02*
X341328571Y-145357419D01*
D13*
X303578572Y-88274757D02*
X303435715Y-88203328D01*
X303435715Y-88203328D02*
X303221429Y-88203328D01*
X303221429Y-88203328D02*
X303007143Y-88274757D01*
X303007143Y-88274757D02*
X302864286Y-88417614D01*
X302864286Y-88417614D02*
X302792857Y-88560471D01*
X302792857Y-88560471D02*
X302721429Y-88846185D01*
X302721429Y-88846185D02*
X302721429Y-89060471D01*
X302721429Y-89060471D02*
X302792857Y-89346185D01*
X302792857Y-89346185D02*
X302864286Y-89489042D01*
X302864286Y-89489042D02*
X303007143Y-89631900D01*
X303007143Y-89631900D02*
X303221429Y-89703328D01*
X303221429Y-89703328D02*
X303364286Y-89703328D01*
X303364286Y-89703328D02*
X303578572Y-89631900D01*
X303578572Y-89631900D02*
X303650000Y-89560471D01*
X303650000Y-89560471D02*
X303650000Y-89060471D01*
X303650000Y-89060471D02*
X303364286Y-89060471D01*
X304507143Y-88203328D02*
X304507143Y-88560471D01*
X304150000Y-88417614D02*
X304507143Y-88560471D01*
X304507143Y-88560471D02*
X304864286Y-88417614D01*
X304292857Y-88846185D02*
X304507143Y-88560471D01*
X304507143Y-88560471D02*
X304721429Y-88846185D01*
X305650000Y-88203328D02*
X305650000Y-88560471D01*
X305292857Y-88417614D02*
X305650000Y-88560471D01*
X305650000Y-88560471D02*
X306007143Y-88417614D01*
X305435714Y-88846185D02*
X305650000Y-88560471D01*
X305650000Y-88560471D02*
X305864286Y-88846185D01*
X306792857Y-88203328D02*
X306792857Y-88560471D01*
X306435714Y-88417614D02*
X306792857Y-88560471D01*
X306792857Y-88560471D02*
X307150000Y-88417614D01*
X306578571Y-88846185D02*
X306792857Y-88560471D01*
X306792857Y-88560471D02*
X307007143Y-88846185D01*
D11*
X267182143Y-210439080D02*
X267363571Y-210499556D01*
X267363571Y-210499556D02*
X267424048Y-210560032D01*
X267424048Y-210560032D02*
X267484524Y-210680984D01*
X267484524Y-210680984D02*
X267484524Y-210862413D01*
X267484524Y-210862413D02*
X267424048Y-210983365D01*
X267424048Y-210983365D02*
X267363571Y-211043842D01*
X267363571Y-211043842D02*
X267242619Y-211104318D01*
X267242619Y-211104318D02*
X266758809Y-211104318D01*
X266758809Y-211104318D02*
X266758809Y-209834318D01*
X266758809Y-209834318D02*
X267182143Y-209834318D01*
X267182143Y-209834318D02*
X267303095Y-209894794D01*
X267303095Y-209894794D02*
X267363571Y-209955270D01*
X267363571Y-209955270D02*
X267424048Y-210076222D01*
X267424048Y-210076222D02*
X267424048Y-210197175D01*
X267424048Y-210197175D02*
X267363571Y-210318127D01*
X267363571Y-210318127D02*
X267303095Y-210378603D01*
X267303095Y-210378603D02*
X267182143Y-210439080D01*
X267182143Y-210439080D02*
X266758809Y-210439080D01*
X267847381Y-209834318D02*
X268573095Y-209834318D01*
X268210238Y-211104318D02*
X268210238Y-209834318D01*
X269601190Y-209834318D02*
X268996428Y-209834318D01*
X268996428Y-209834318D02*
X268935952Y-210439080D01*
X268935952Y-210439080D02*
X268996428Y-210378603D01*
X268996428Y-210378603D02*
X269117381Y-210318127D01*
X269117381Y-210318127D02*
X269419762Y-210318127D01*
X269419762Y-210318127D02*
X269540714Y-210378603D01*
X269540714Y-210378603D02*
X269601190Y-210439080D01*
X269601190Y-210439080D02*
X269661667Y-210560032D01*
X269661667Y-210560032D02*
X269661667Y-210862413D01*
X269661667Y-210862413D02*
X269601190Y-210983365D01*
X269601190Y-210983365D02*
X269540714Y-211043842D01*
X269540714Y-211043842D02*
X269419762Y-211104318D01*
X269419762Y-211104318D02*
X269117381Y-211104318D01*
X269117381Y-211104318D02*
X268996428Y-211043842D01*
X268996428Y-211043842D02*
X268935952Y-210983365D01*
D12*
X340138095Y-45357419D02*
X340138095Y-44357419D01*
X340138095Y-44833609D02*
X340709523Y-44833609D01*
X340709523Y-45357419D02*
X340709523Y-44357419D01*
X341138095Y-44452657D02*
X341185714Y-44405038D01*
X341185714Y-44405038D02*
X341280952Y-44357419D01*
X341280952Y-44357419D02*
X341519047Y-44357419D01*
X341519047Y-44357419D02*
X341614285Y-44405038D01*
X341614285Y-44405038D02*
X341661904Y-44452657D01*
X341661904Y-44452657D02*
X341709523Y-44547895D01*
X341709523Y-44547895D02*
X341709523Y-44643133D01*
X341709523Y-44643133D02*
X341661904Y-44785990D01*
X341661904Y-44785990D02*
X341090476Y-45357419D01*
X341090476Y-45357419D02*
X341709523Y-45357419D01*
D10*
X141862856Y-89754819D02*
X141291428Y-89754819D01*
X141577142Y-89754819D02*
X141577142Y-88754819D01*
X141577142Y-88754819D02*
X141481904Y-88897676D01*
X141481904Y-88897676D02*
X141386666Y-88992914D01*
X141386666Y-88992914D02*
X141291428Y-89040533D01*
X142243809Y-89707200D02*
X142386666Y-89754819D01*
X142386666Y-89754819D02*
X142624761Y-89754819D01*
X142624761Y-89754819D02*
X142719999Y-89707200D01*
X142719999Y-89707200D02*
X142767618Y-89659580D01*
X142767618Y-89659580D02*
X142815237Y-89564342D01*
X142815237Y-89564342D02*
X142815237Y-89469104D01*
X142815237Y-89469104D02*
X142767618Y-89373866D01*
X142767618Y-89373866D02*
X142719999Y-89326247D01*
X142719999Y-89326247D02*
X142624761Y-89278628D01*
X142624761Y-89278628D02*
X142434285Y-89231009D01*
X142434285Y-89231009D02*
X142339047Y-89183390D01*
X142339047Y-89183390D02*
X142291428Y-89135771D01*
X142291428Y-89135771D02*
X142243809Y-89040533D01*
X142243809Y-89040533D02*
X142243809Y-88945295D01*
X142243809Y-88945295D02*
X142291428Y-88850057D01*
X142291428Y-88850057D02*
X142339047Y-88802438D01*
X142339047Y-88802438D02*
X142434285Y-88754819D01*
X142434285Y-88754819D02*
X142672380Y-88754819D01*
X142672380Y-88754819D02*
X142815237Y-88802438D01*
X144529523Y-89754819D02*
X143958095Y-89754819D01*
X144243809Y-89754819D02*
X144243809Y-88754819D01*
X144243809Y-88754819D02*
X144148571Y-88897676D01*
X144148571Y-88897676D02*
X144053333Y-88992914D01*
X144053333Y-88992914D02*
X143958095Y-89040533D01*
X144958095Y-89754819D02*
X144958095Y-88754819D01*
X144958095Y-88754819D02*
X145339047Y-88754819D01*
X145339047Y-88754819D02*
X145434285Y-88802438D01*
X145434285Y-88802438D02*
X145481904Y-88850057D01*
X145481904Y-88850057D02*
X145529523Y-88945295D01*
X145529523Y-88945295D02*
X145529523Y-89088152D01*
X145529523Y-89088152D02*
X145481904Y-89183390D01*
X145481904Y-89183390D02*
X145434285Y-89231009D01*
X145434285Y-89231009D02*
X145339047Y-89278628D01*
X145339047Y-89278628D02*
X144958095Y-89278628D01*
X146720000Y-89373866D02*
X147481905Y-89373866D01*
X147862857Y-89088152D02*
X148100952Y-89754819D01*
X148100952Y-89754819D02*
X148339047Y-89088152D01*
X149100952Y-89707200D02*
X149005714Y-89754819D01*
X149005714Y-89754819D02*
X148815238Y-89754819D01*
X148815238Y-89754819D02*
X148720000Y-89707200D01*
X148720000Y-89707200D02*
X148672381Y-89611961D01*
X148672381Y-89611961D02*
X148672381Y-89231009D01*
X148672381Y-89231009D02*
X148720000Y-89135771D01*
X148720000Y-89135771D02*
X148815238Y-89088152D01*
X148815238Y-89088152D02*
X149005714Y-89088152D01*
X149005714Y-89088152D02*
X149100952Y-89135771D01*
X149100952Y-89135771D02*
X149148571Y-89231009D01*
X149148571Y-89231009D02*
X149148571Y-89326247D01*
X149148571Y-89326247D02*
X148672381Y-89421485D01*
X144886666Y-84704819D02*
X144886666Y-85419104D01*
X144886666Y-85419104D02*
X144839047Y-85561961D01*
X144839047Y-85561961D02*
X144743809Y-85657200D01*
X144743809Y-85657200D02*
X144600952Y-85704819D01*
X144600952Y-85704819D02*
X144505714Y-85704819D01*
X145315238Y-84800057D02*
X145362857Y-84752438D01*
X145362857Y-84752438D02*
X145458095Y-84704819D01*
X145458095Y-84704819D02*
X145696190Y-84704819D01*
X145696190Y-84704819D02*
X145791428Y-84752438D01*
X145791428Y-84752438D02*
X145839047Y-84800057D01*
X145839047Y-84800057D02*
X145886666Y-84895295D01*
X145886666Y-84895295D02*
X145886666Y-84990533D01*
X145886666Y-84990533D02*
X145839047Y-85133390D01*
X145839047Y-85133390D02*
X145267619Y-85704819D01*
X145267619Y-85704819D02*
X145886666Y-85704819D01*
D11*
X267182143Y-162939080D02*
X267363571Y-162999556D01*
X267363571Y-162999556D02*
X267424048Y-163060032D01*
X267424048Y-163060032D02*
X267484524Y-163180984D01*
X267484524Y-163180984D02*
X267484524Y-163362413D01*
X267484524Y-163362413D02*
X267424048Y-163483365D01*
X267424048Y-163483365D02*
X267363571Y-163543842D01*
X267363571Y-163543842D02*
X267242619Y-163604318D01*
X267242619Y-163604318D02*
X266758809Y-163604318D01*
X266758809Y-163604318D02*
X266758809Y-162334318D01*
X266758809Y-162334318D02*
X267182143Y-162334318D01*
X267182143Y-162334318D02*
X267303095Y-162394794D01*
X267303095Y-162394794D02*
X267363571Y-162455270D01*
X267363571Y-162455270D02*
X267424048Y-162576222D01*
X267424048Y-162576222D02*
X267424048Y-162697175D01*
X267424048Y-162697175D02*
X267363571Y-162818127D01*
X267363571Y-162818127D02*
X267303095Y-162878603D01*
X267303095Y-162878603D02*
X267182143Y-162939080D01*
X267182143Y-162939080D02*
X266758809Y-162939080D01*
X267847381Y-162334318D02*
X268573095Y-162334318D01*
X268210238Y-163604318D02*
X268210238Y-162334318D01*
X268875476Y-162334318D02*
X269661667Y-162334318D01*
X269661667Y-162334318D02*
X269238333Y-162818127D01*
X269238333Y-162818127D02*
X269419762Y-162818127D01*
X269419762Y-162818127D02*
X269540714Y-162878603D01*
X269540714Y-162878603D02*
X269601190Y-162939080D01*
X269601190Y-162939080D02*
X269661667Y-163060032D01*
X269661667Y-163060032D02*
X269661667Y-163362413D01*
X269661667Y-163362413D02*
X269601190Y-163483365D01*
X269601190Y-163483365D02*
X269540714Y-163543842D01*
X269540714Y-163543842D02*
X269419762Y-163604318D01*
X269419762Y-163604318D02*
X269056905Y-163604318D01*
X269056905Y-163604318D02*
X268935952Y-163543842D01*
X268935952Y-163543842D02*
X268875476Y-163483365D01*
D10*
X316383809Y-164534819D02*
X317002856Y-164534819D01*
X317002856Y-164534819D02*
X316669523Y-164915771D01*
X316669523Y-164915771D02*
X316812380Y-164915771D01*
X316812380Y-164915771D02*
X316907618Y-164963390D01*
X316907618Y-164963390D02*
X316955237Y-165011009D01*
X316955237Y-165011009D02*
X317002856Y-165106247D01*
X317002856Y-165106247D02*
X317002856Y-165344342D01*
X317002856Y-165344342D02*
X316955237Y-165439580D01*
X316955237Y-165439580D02*
X316907618Y-165487200D01*
X316907618Y-165487200D02*
X316812380Y-165534819D01*
X316812380Y-165534819D02*
X316526666Y-165534819D01*
X316526666Y-165534819D02*
X316431428Y-165487200D01*
X316431428Y-165487200D02*
X316383809Y-165439580D01*
X317383809Y-165487200D02*
X317526666Y-165534819D01*
X317526666Y-165534819D02*
X317764761Y-165534819D01*
X317764761Y-165534819D02*
X317859999Y-165487200D01*
X317859999Y-165487200D02*
X317907618Y-165439580D01*
X317907618Y-165439580D02*
X317955237Y-165344342D01*
X317955237Y-165344342D02*
X317955237Y-165249104D01*
X317955237Y-165249104D02*
X317907618Y-165153866D01*
X317907618Y-165153866D02*
X317859999Y-165106247D01*
X317859999Y-165106247D02*
X317764761Y-165058628D01*
X317764761Y-165058628D02*
X317574285Y-165011009D01*
X317574285Y-165011009D02*
X317479047Y-164963390D01*
X317479047Y-164963390D02*
X317431428Y-164915771D01*
X317431428Y-164915771D02*
X317383809Y-164820533D01*
X317383809Y-164820533D02*
X317383809Y-164725295D01*
X317383809Y-164725295D02*
X317431428Y-164630057D01*
X317431428Y-164630057D02*
X317479047Y-164582438D01*
X317479047Y-164582438D02*
X317574285Y-164534819D01*
X317574285Y-164534819D02*
X317812380Y-164534819D01*
X317812380Y-164534819D02*
X317955237Y-164582438D01*
X319669523Y-165534819D02*
X319098095Y-165534819D01*
X319383809Y-165534819D02*
X319383809Y-164534819D01*
X319383809Y-164534819D02*
X319288571Y-164677676D01*
X319288571Y-164677676D02*
X319193333Y-164772914D01*
X319193333Y-164772914D02*
X319098095Y-164820533D01*
X320098095Y-165534819D02*
X320098095Y-164534819D01*
X320098095Y-164534819D02*
X320479047Y-164534819D01*
X320479047Y-164534819D02*
X320574285Y-164582438D01*
X320574285Y-164582438D02*
X320621904Y-164630057D01*
X320621904Y-164630057D02*
X320669523Y-164725295D01*
X320669523Y-164725295D02*
X320669523Y-164868152D01*
X320669523Y-164868152D02*
X320621904Y-164963390D01*
X320621904Y-164963390D02*
X320574285Y-165011009D01*
X320574285Y-165011009D02*
X320479047Y-165058628D01*
X320479047Y-165058628D02*
X320098095Y-165058628D01*
X321860000Y-165153866D02*
X322621905Y-165153866D01*
X322240952Y-165534819D02*
X322240952Y-164772914D01*
X323002857Y-164868152D02*
X323240952Y-165534819D01*
X323240952Y-165534819D02*
X323479047Y-164868152D01*
X324240952Y-165487200D02*
X324145714Y-165534819D01*
X324145714Y-165534819D02*
X323955238Y-165534819D01*
X323955238Y-165534819D02*
X323860000Y-165487200D01*
X323860000Y-165487200D02*
X323812381Y-165391961D01*
X323812381Y-165391961D02*
X323812381Y-165011009D01*
X323812381Y-165011009D02*
X323860000Y-164915771D01*
X323860000Y-164915771D02*
X323955238Y-164868152D01*
X323955238Y-164868152D02*
X324145714Y-164868152D01*
X324145714Y-164868152D02*
X324240952Y-164915771D01*
X324240952Y-164915771D02*
X324288571Y-165011009D01*
X324288571Y-165011009D02*
X324288571Y-165106247D01*
X324288571Y-165106247D02*
X323812381Y-165201485D01*
X320026666Y-160484819D02*
X320026666Y-161199104D01*
X320026666Y-161199104D02*
X319979047Y-161341961D01*
X319979047Y-161341961D02*
X319883809Y-161437200D01*
X319883809Y-161437200D02*
X319740952Y-161484819D01*
X319740952Y-161484819D02*
X319645714Y-161484819D01*
X320645714Y-160913390D02*
X320550476Y-160865771D01*
X320550476Y-160865771D02*
X320502857Y-160818152D01*
X320502857Y-160818152D02*
X320455238Y-160722914D01*
X320455238Y-160722914D02*
X320455238Y-160675295D01*
X320455238Y-160675295D02*
X320502857Y-160580057D01*
X320502857Y-160580057D02*
X320550476Y-160532438D01*
X320550476Y-160532438D02*
X320645714Y-160484819D01*
X320645714Y-160484819D02*
X320836190Y-160484819D01*
X320836190Y-160484819D02*
X320931428Y-160532438D01*
X320931428Y-160532438D02*
X320979047Y-160580057D01*
X320979047Y-160580057D02*
X321026666Y-160675295D01*
X321026666Y-160675295D02*
X321026666Y-160722914D01*
X321026666Y-160722914D02*
X320979047Y-160818152D01*
X320979047Y-160818152D02*
X320931428Y-160865771D01*
X320931428Y-160865771D02*
X320836190Y-160913390D01*
X320836190Y-160913390D02*
X320645714Y-160913390D01*
X320645714Y-160913390D02*
X320550476Y-160961009D01*
X320550476Y-160961009D02*
X320502857Y-161008628D01*
X320502857Y-161008628D02*
X320455238Y-161103866D01*
X320455238Y-161103866D02*
X320455238Y-161294342D01*
X320455238Y-161294342D02*
X320502857Y-161389580D01*
X320502857Y-161389580D02*
X320550476Y-161437200D01*
X320550476Y-161437200D02*
X320645714Y-161484819D01*
X320645714Y-161484819D02*
X320836190Y-161484819D01*
X320836190Y-161484819D02*
X320931428Y-161437200D01*
X320931428Y-161437200D02*
X320979047Y-161389580D01*
X320979047Y-161389580D02*
X321026666Y-161294342D01*
X321026666Y-161294342D02*
X321026666Y-161103866D01*
X321026666Y-161103866D02*
X320979047Y-161008628D01*
X320979047Y-161008628D02*
X320931428Y-160961009D01*
X320931428Y-160961009D02*
X320836190Y-160913390D01*
D12*
X53138095Y-45357419D02*
X53138095Y-44357419D01*
X53138095Y-44833609D02*
X53709523Y-44833609D01*
X53709523Y-45357419D02*
X53709523Y-44357419D01*
X54709523Y-45357419D02*
X54138095Y-45357419D01*
X54423809Y-45357419D02*
X54423809Y-44357419D01*
X54423809Y-44357419D02*
X54328571Y-44500276D01*
X54328571Y-44500276D02*
X54233333Y-44595514D01*
X54233333Y-44595514D02*
X54138095Y-44643133D01*
D10*
X212023809Y-212034819D02*
X212642856Y-212034819D01*
X212642856Y-212034819D02*
X212309523Y-212415771D01*
X212309523Y-212415771D02*
X212452380Y-212415771D01*
X212452380Y-212415771D02*
X212547618Y-212463390D01*
X212547618Y-212463390D02*
X212595237Y-212511009D01*
X212595237Y-212511009D02*
X212642856Y-212606247D01*
X212642856Y-212606247D02*
X212642856Y-212844342D01*
X212642856Y-212844342D02*
X212595237Y-212939580D01*
X212595237Y-212939580D02*
X212547618Y-212987200D01*
X212547618Y-212987200D02*
X212452380Y-213034819D01*
X212452380Y-213034819D02*
X212166666Y-213034819D01*
X212166666Y-213034819D02*
X212071428Y-212987200D01*
X212071428Y-212987200D02*
X212023809Y-212939580D01*
X213023809Y-212987200D02*
X213166666Y-213034819D01*
X213166666Y-213034819D02*
X213404761Y-213034819D01*
X213404761Y-213034819D02*
X213499999Y-212987200D01*
X213499999Y-212987200D02*
X213547618Y-212939580D01*
X213547618Y-212939580D02*
X213595237Y-212844342D01*
X213595237Y-212844342D02*
X213595237Y-212749104D01*
X213595237Y-212749104D02*
X213547618Y-212653866D01*
X213547618Y-212653866D02*
X213499999Y-212606247D01*
X213499999Y-212606247D02*
X213404761Y-212558628D01*
X213404761Y-212558628D02*
X213214285Y-212511009D01*
X213214285Y-212511009D02*
X213119047Y-212463390D01*
X213119047Y-212463390D02*
X213071428Y-212415771D01*
X213071428Y-212415771D02*
X213023809Y-212320533D01*
X213023809Y-212320533D02*
X213023809Y-212225295D01*
X213023809Y-212225295D02*
X213071428Y-212130057D01*
X213071428Y-212130057D02*
X213119047Y-212082438D01*
X213119047Y-212082438D02*
X213214285Y-212034819D01*
X213214285Y-212034819D02*
X213452380Y-212034819D01*
X213452380Y-212034819D02*
X213595237Y-212082438D01*
X215309523Y-213034819D02*
X214738095Y-213034819D01*
X215023809Y-213034819D02*
X215023809Y-212034819D01*
X215023809Y-212034819D02*
X214928571Y-212177676D01*
X214928571Y-212177676D02*
X214833333Y-212272914D01*
X214833333Y-212272914D02*
X214738095Y-212320533D01*
X215738095Y-213034819D02*
X215738095Y-212034819D01*
X215738095Y-212034819D02*
X216119047Y-212034819D01*
X216119047Y-212034819D02*
X216214285Y-212082438D01*
X216214285Y-212082438D02*
X216261904Y-212130057D01*
X216261904Y-212130057D02*
X216309523Y-212225295D01*
X216309523Y-212225295D02*
X216309523Y-212368152D01*
X216309523Y-212368152D02*
X216261904Y-212463390D01*
X216261904Y-212463390D02*
X216214285Y-212511009D01*
X216214285Y-212511009D02*
X216119047Y-212558628D01*
X216119047Y-212558628D02*
X215738095Y-212558628D01*
X217500000Y-212653866D02*
X218261905Y-212653866D01*
X218642857Y-212368152D02*
X218880952Y-213034819D01*
X218880952Y-213034819D02*
X219119047Y-212368152D01*
X219880952Y-212987200D02*
X219785714Y-213034819D01*
X219785714Y-213034819D02*
X219595238Y-213034819D01*
X219595238Y-213034819D02*
X219500000Y-212987200D01*
X219500000Y-212987200D02*
X219452381Y-212891961D01*
X219452381Y-212891961D02*
X219452381Y-212511009D01*
X219452381Y-212511009D02*
X219500000Y-212415771D01*
X219500000Y-212415771D02*
X219595238Y-212368152D01*
X219595238Y-212368152D02*
X219785714Y-212368152D01*
X219785714Y-212368152D02*
X219880952Y-212415771D01*
X219880952Y-212415771D02*
X219928571Y-212511009D01*
X219928571Y-212511009D02*
X219928571Y-212606247D01*
X219928571Y-212606247D02*
X219452381Y-212701485D01*
X215190476Y-207984819D02*
X215190476Y-208699104D01*
X215190476Y-208699104D02*
X215142857Y-208841961D01*
X215142857Y-208841961D02*
X215047619Y-208937200D01*
X215047619Y-208937200D02*
X214904762Y-208984819D01*
X214904762Y-208984819D02*
X214809524Y-208984819D01*
X215619048Y-208080057D02*
X215666667Y-208032438D01*
X215666667Y-208032438D02*
X215761905Y-207984819D01*
X215761905Y-207984819D02*
X216000000Y-207984819D01*
X216000000Y-207984819D02*
X216095238Y-208032438D01*
X216095238Y-208032438D02*
X216142857Y-208080057D01*
X216142857Y-208080057D02*
X216190476Y-208175295D01*
X216190476Y-208175295D02*
X216190476Y-208270533D01*
X216190476Y-208270533D02*
X216142857Y-208413390D01*
X216142857Y-208413390D02*
X215571429Y-208984819D01*
X215571429Y-208984819D02*
X216190476Y-208984819D01*
X216809524Y-207984819D02*
X216904762Y-207984819D01*
X216904762Y-207984819D02*
X217000000Y-208032438D01*
X217000000Y-208032438D02*
X217047619Y-208080057D01*
X217047619Y-208080057D02*
X217095238Y-208175295D01*
X217095238Y-208175295D02*
X217142857Y-208365771D01*
X217142857Y-208365771D02*
X217142857Y-208603866D01*
X217142857Y-208603866D02*
X217095238Y-208794342D01*
X217095238Y-208794342D02*
X217047619Y-208889580D01*
X217047619Y-208889580D02*
X217000000Y-208937200D01*
X217000000Y-208937200D02*
X216904762Y-208984819D01*
X216904762Y-208984819D02*
X216809524Y-208984819D01*
X216809524Y-208984819D02*
X216714286Y-208937200D01*
X216714286Y-208937200D02*
X216666667Y-208889580D01*
X216666667Y-208889580D02*
X216619048Y-208794342D01*
X216619048Y-208794342D02*
X216571429Y-208603866D01*
X216571429Y-208603866D02*
X216571429Y-208365771D01*
X216571429Y-208365771D02*
X216619048Y-208175295D01*
X216619048Y-208175295D02*
X216666667Y-208080057D01*
X216666667Y-208080057D02*
X216714286Y-208032438D01*
X216714286Y-208032438D02*
X216809524Y-207984819D01*
D11*
X125562143Y-139189080D02*
X125743571Y-139249556D01*
X125743571Y-139249556D02*
X125804048Y-139310032D01*
X125804048Y-139310032D02*
X125864524Y-139430984D01*
X125864524Y-139430984D02*
X125864524Y-139612413D01*
X125864524Y-139612413D02*
X125804048Y-139733365D01*
X125804048Y-139733365D02*
X125743571Y-139793842D01*
X125743571Y-139793842D02*
X125622619Y-139854318D01*
X125622619Y-139854318D02*
X125138809Y-139854318D01*
X125138809Y-139854318D02*
X125138809Y-138584318D01*
X125138809Y-138584318D02*
X125562143Y-138584318D01*
X125562143Y-138584318D02*
X125683095Y-138644794D01*
X125683095Y-138644794D02*
X125743571Y-138705270D01*
X125743571Y-138705270D02*
X125804048Y-138826222D01*
X125804048Y-138826222D02*
X125804048Y-138947175D01*
X125804048Y-138947175D02*
X125743571Y-139068127D01*
X125743571Y-139068127D02*
X125683095Y-139128603D01*
X125683095Y-139128603D02*
X125562143Y-139189080D01*
X125562143Y-139189080D02*
X125138809Y-139189080D01*
X126227381Y-138584318D02*
X126953095Y-138584318D01*
X126590238Y-139854318D02*
X126590238Y-138584318D01*
X127920714Y-138584318D02*
X127678809Y-138584318D01*
X127678809Y-138584318D02*
X127557857Y-138644794D01*
X127557857Y-138644794D02*
X127497381Y-138705270D01*
X127497381Y-138705270D02*
X127376428Y-138886699D01*
X127376428Y-138886699D02*
X127315952Y-139128603D01*
X127315952Y-139128603D02*
X127315952Y-139612413D01*
X127315952Y-139612413D02*
X127376428Y-139733365D01*
X127376428Y-139733365D02*
X127436905Y-139793842D01*
X127436905Y-139793842D02*
X127557857Y-139854318D01*
X127557857Y-139854318D02*
X127799762Y-139854318D01*
X127799762Y-139854318D02*
X127920714Y-139793842D01*
X127920714Y-139793842D02*
X127981190Y-139733365D01*
X127981190Y-139733365D02*
X128041667Y-139612413D01*
X128041667Y-139612413D02*
X128041667Y-139310032D01*
X128041667Y-139310032D02*
X127981190Y-139189080D01*
X127981190Y-139189080D02*
X127920714Y-139128603D01*
X127920714Y-139128603D02*
X127799762Y-139068127D01*
X127799762Y-139068127D02*
X127557857Y-139068127D01*
X127557857Y-139068127D02*
X127436905Y-139128603D01*
X127436905Y-139128603D02*
X127376428Y-139189080D01*
X127376428Y-139189080D02*
X127315952Y-139310032D01*
D10*
X65269999Y-223838152D02*
X65269999Y-224504819D01*
X65031904Y-223457200D02*
X64793809Y-224171485D01*
X64793809Y-224171485D02*
X65412856Y-224171485D01*
X65793809Y-224504819D02*
X65793809Y-223504819D01*
X65793809Y-223504819D02*
X66174761Y-223504819D01*
X66174761Y-223504819D02*
X66269999Y-223552438D01*
X66269999Y-223552438D02*
X66317618Y-223600057D01*
X66317618Y-223600057D02*
X66365237Y-223695295D01*
X66365237Y-223695295D02*
X66365237Y-223838152D01*
X66365237Y-223838152D02*
X66317618Y-223933390D01*
X66317618Y-223933390D02*
X66269999Y-223981009D01*
X66269999Y-223981009D02*
X66174761Y-224028628D01*
X66174761Y-224028628D02*
X65793809Y-224028628D01*
X67889047Y-223981009D02*
X68031904Y-224028628D01*
X68031904Y-224028628D02*
X68079523Y-224076247D01*
X68079523Y-224076247D02*
X68127142Y-224171485D01*
X68127142Y-224171485D02*
X68127142Y-224314342D01*
X68127142Y-224314342D02*
X68079523Y-224409580D01*
X68079523Y-224409580D02*
X68031904Y-224457200D01*
X68031904Y-224457200D02*
X67936666Y-224504819D01*
X67936666Y-224504819D02*
X67555714Y-224504819D01*
X67555714Y-224504819D02*
X67555714Y-223504819D01*
X67555714Y-223504819D02*
X67889047Y-223504819D01*
X67889047Y-223504819D02*
X67984285Y-223552438D01*
X67984285Y-223552438D02*
X68031904Y-223600057D01*
X68031904Y-223600057D02*
X68079523Y-223695295D01*
X68079523Y-223695295D02*
X68079523Y-223790533D01*
X68079523Y-223790533D02*
X68031904Y-223885771D01*
X68031904Y-223885771D02*
X67984285Y-223933390D01*
X67984285Y-223933390D02*
X67889047Y-223981009D01*
X67889047Y-223981009D02*
X67555714Y-223981009D01*
X69317619Y-224123866D02*
X70079524Y-224123866D01*
X70460476Y-223838152D02*
X70698571Y-224504819D01*
X70698571Y-224504819D02*
X70936666Y-223838152D01*
X71698571Y-224457200D02*
X71603333Y-224504819D01*
X71603333Y-224504819D02*
X71412857Y-224504819D01*
X71412857Y-224504819D02*
X71317619Y-224457200D01*
X71317619Y-224457200D02*
X71270000Y-224361961D01*
X71270000Y-224361961D02*
X71270000Y-223981009D01*
X71270000Y-223981009D02*
X71317619Y-223885771D01*
X71317619Y-223885771D02*
X71412857Y-223838152D01*
X71412857Y-223838152D02*
X71603333Y-223838152D01*
X71603333Y-223838152D02*
X71698571Y-223885771D01*
X71698571Y-223885771D02*
X71746190Y-223981009D01*
X71746190Y-223981009D02*
X71746190Y-224076247D01*
X71746190Y-224076247D02*
X71270000Y-224171485D01*
X67936666Y-219454819D02*
X67936666Y-220169104D01*
X67936666Y-220169104D02*
X67889047Y-220311961D01*
X67889047Y-220311961D02*
X67793809Y-220407200D01*
X67793809Y-220407200D02*
X67650952Y-220454819D01*
X67650952Y-220454819D02*
X67555714Y-220454819D01*
X68841428Y-219454819D02*
X68650952Y-219454819D01*
X68650952Y-219454819D02*
X68555714Y-219502438D01*
X68555714Y-219502438D02*
X68508095Y-219550057D01*
X68508095Y-219550057D02*
X68412857Y-219692914D01*
X68412857Y-219692914D02*
X68365238Y-219883390D01*
X68365238Y-219883390D02*
X68365238Y-220264342D01*
X68365238Y-220264342D02*
X68412857Y-220359580D01*
X68412857Y-220359580D02*
X68460476Y-220407200D01*
X68460476Y-220407200D02*
X68555714Y-220454819D01*
X68555714Y-220454819D02*
X68746190Y-220454819D01*
X68746190Y-220454819D02*
X68841428Y-220407200D01*
X68841428Y-220407200D02*
X68889047Y-220359580D01*
X68889047Y-220359580D02*
X68936666Y-220264342D01*
X68936666Y-220264342D02*
X68936666Y-220026247D01*
X68936666Y-220026247D02*
X68889047Y-219931009D01*
X68889047Y-219931009D02*
X68841428Y-219883390D01*
X68841428Y-219883390D02*
X68746190Y-219835771D01*
X68746190Y-219835771D02*
X68555714Y-219835771D01*
X68555714Y-219835771D02*
X68460476Y-219883390D01*
X68460476Y-219883390D02*
X68412857Y-219931009D01*
X68412857Y-219931009D02*
X68365238Y-220026247D01*
X175382856Y-141784819D02*
X174811428Y-141784819D01*
X175097142Y-141784819D02*
X175097142Y-140784819D01*
X175097142Y-140784819D02*
X175001904Y-140927676D01*
X175001904Y-140927676D02*
X174906666Y-141022914D01*
X174906666Y-141022914D02*
X174811428Y-141070533D01*
X175763809Y-141737200D02*
X175906666Y-141784819D01*
X175906666Y-141784819D02*
X176144761Y-141784819D01*
X176144761Y-141784819D02*
X176239999Y-141737200D01*
X176239999Y-141737200D02*
X176287618Y-141689580D01*
X176287618Y-141689580D02*
X176335237Y-141594342D01*
X176335237Y-141594342D02*
X176335237Y-141499104D01*
X176335237Y-141499104D02*
X176287618Y-141403866D01*
X176287618Y-141403866D02*
X176239999Y-141356247D01*
X176239999Y-141356247D02*
X176144761Y-141308628D01*
X176144761Y-141308628D02*
X175954285Y-141261009D01*
X175954285Y-141261009D02*
X175859047Y-141213390D01*
X175859047Y-141213390D02*
X175811428Y-141165771D01*
X175811428Y-141165771D02*
X175763809Y-141070533D01*
X175763809Y-141070533D02*
X175763809Y-140975295D01*
X175763809Y-140975295D02*
X175811428Y-140880057D01*
X175811428Y-140880057D02*
X175859047Y-140832438D01*
X175859047Y-140832438D02*
X175954285Y-140784819D01*
X175954285Y-140784819D02*
X176192380Y-140784819D01*
X176192380Y-140784819D02*
X176335237Y-140832438D01*
X178049523Y-141784819D02*
X177478095Y-141784819D01*
X177763809Y-141784819D02*
X177763809Y-140784819D01*
X177763809Y-140784819D02*
X177668571Y-140927676D01*
X177668571Y-140927676D02*
X177573333Y-141022914D01*
X177573333Y-141022914D02*
X177478095Y-141070533D01*
X178478095Y-141784819D02*
X178478095Y-140784819D01*
X178478095Y-140784819D02*
X178859047Y-140784819D01*
X178859047Y-140784819D02*
X178954285Y-140832438D01*
X178954285Y-140832438D02*
X179001904Y-140880057D01*
X179001904Y-140880057D02*
X179049523Y-140975295D01*
X179049523Y-140975295D02*
X179049523Y-141118152D01*
X179049523Y-141118152D02*
X179001904Y-141213390D01*
X179001904Y-141213390D02*
X178954285Y-141261009D01*
X178954285Y-141261009D02*
X178859047Y-141308628D01*
X178859047Y-141308628D02*
X178478095Y-141308628D01*
X180240000Y-141403866D02*
X181001905Y-141403866D01*
X180620952Y-141784819D02*
X180620952Y-141022914D01*
X181382857Y-141118152D02*
X181620952Y-141784819D01*
X181620952Y-141784819D02*
X181859047Y-141118152D01*
X182620952Y-141737200D02*
X182525714Y-141784819D01*
X182525714Y-141784819D02*
X182335238Y-141784819D01*
X182335238Y-141784819D02*
X182240000Y-141737200D01*
X182240000Y-141737200D02*
X182192381Y-141641961D01*
X182192381Y-141641961D02*
X182192381Y-141261009D01*
X182192381Y-141261009D02*
X182240000Y-141165771D01*
X182240000Y-141165771D02*
X182335238Y-141118152D01*
X182335238Y-141118152D02*
X182525714Y-141118152D01*
X182525714Y-141118152D02*
X182620952Y-141165771D01*
X182620952Y-141165771D02*
X182668571Y-141261009D01*
X182668571Y-141261009D02*
X182668571Y-141356247D01*
X182668571Y-141356247D02*
X182192381Y-141451485D01*
X177930476Y-136734819D02*
X177930476Y-137449104D01*
X177930476Y-137449104D02*
X177882857Y-137591961D01*
X177882857Y-137591961D02*
X177787619Y-137687200D01*
X177787619Y-137687200D02*
X177644762Y-137734819D01*
X177644762Y-137734819D02*
X177549524Y-137734819D01*
X178930476Y-137734819D02*
X178359048Y-137734819D01*
X178644762Y-137734819D02*
X178644762Y-136734819D01*
X178644762Y-136734819D02*
X178549524Y-136877676D01*
X178549524Y-136877676D02*
X178454286Y-136972914D01*
X178454286Y-136972914D02*
X178359048Y-137020533D01*
X179549524Y-136734819D02*
X179644762Y-136734819D01*
X179644762Y-136734819D02*
X179740000Y-136782438D01*
X179740000Y-136782438D02*
X179787619Y-136830057D01*
X179787619Y-136830057D02*
X179835238Y-136925295D01*
X179835238Y-136925295D02*
X179882857Y-137115771D01*
X179882857Y-137115771D02*
X179882857Y-137353866D01*
X179882857Y-137353866D02*
X179835238Y-137544342D01*
X179835238Y-137544342D02*
X179787619Y-137639580D01*
X179787619Y-137639580D02*
X179740000Y-137687200D01*
X179740000Y-137687200D02*
X179644762Y-137734819D01*
X179644762Y-137734819D02*
X179549524Y-137734819D01*
X179549524Y-137734819D02*
X179454286Y-137687200D01*
X179454286Y-137687200D02*
X179406667Y-137639580D01*
X179406667Y-137639580D02*
X179359048Y-137544342D01*
X179359048Y-137544342D02*
X179311429Y-137353866D01*
X179311429Y-137353866D02*
X179311429Y-137115771D01*
X179311429Y-137115771D02*
X179359048Y-136925295D01*
X179359048Y-136925295D02*
X179406667Y-136830057D01*
X179406667Y-136830057D02*
X179454286Y-136782438D01*
X179454286Y-136782438D02*
X179549524Y-136734819D01*
D12*
X53138095Y-245357419D02*
X53138095Y-244357419D01*
X53138095Y-244833609D02*
X53709523Y-244833609D01*
X53709523Y-245357419D02*
X53709523Y-244357419D01*
X54614285Y-244690752D02*
X54614285Y-245357419D01*
X54376190Y-244309800D02*
X54138095Y-245024085D01*
X54138095Y-245024085D02*
X54757142Y-245024085D01*
D10*
X175382856Y-165534819D02*
X174811428Y-165534819D01*
X175097142Y-165534819D02*
X175097142Y-164534819D01*
X175097142Y-164534819D02*
X175001904Y-164677676D01*
X175001904Y-164677676D02*
X174906666Y-164772914D01*
X174906666Y-164772914D02*
X174811428Y-164820533D01*
X175763809Y-165487200D02*
X175906666Y-165534819D01*
X175906666Y-165534819D02*
X176144761Y-165534819D01*
X176144761Y-165534819D02*
X176239999Y-165487200D01*
X176239999Y-165487200D02*
X176287618Y-165439580D01*
X176287618Y-165439580D02*
X176335237Y-165344342D01*
X176335237Y-165344342D02*
X176335237Y-165249104D01*
X176335237Y-165249104D02*
X176287618Y-165153866D01*
X176287618Y-165153866D02*
X176239999Y-165106247D01*
X176239999Y-165106247D02*
X176144761Y-165058628D01*
X176144761Y-165058628D02*
X175954285Y-165011009D01*
X175954285Y-165011009D02*
X175859047Y-164963390D01*
X175859047Y-164963390D02*
X175811428Y-164915771D01*
X175811428Y-164915771D02*
X175763809Y-164820533D01*
X175763809Y-164820533D02*
X175763809Y-164725295D01*
X175763809Y-164725295D02*
X175811428Y-164630057D01*
X175811428Y-164630057D02*
X175859047Y-164582438D01*
X175859047Y-164582438D02*
X175954285Y-164534819D01*
X175954285Y-164534819D02*
X176192380Y-164534819D01*
X176192380Y-164534819D02*
X176335237Y-164582438D01*
X177430476Y-164534819D02*
X178049523Y-164534819D01*
X178049523Y-164534819D02*
X177716190Y-164915771D01*
X177716190Y-164915771D02*
X177859047Y-164915771D01*
X177859047Y-164915771D02*
X177954285Y-164963390D01*
X177954285Y-164963390D02*
X178001904Y-165011009D01*
X178001904Y-165011009D02*
X178049523Y-165106247D01*
X178049523Y-165106247D02*
X178049523Y-165344342D01*
X178049523Y-165344342D02*
X178001904Y-165439580D01*
X178001904Y-165439580D02*
X177954285Y-165487200D01*
X177954285Y-165487200D02*
X177859047Y-165534819D01*
X177859047Y-165534819D02*
X177573333Y-165534819D01*
X177573333Y-165534819D02*
X177478095Y-165487200D01*
X177478095Y-165487200D02*
X177430476Y-165439580D01*
X178478095Y-165534819D02*
X178478095Y-164534819D01*
X178478095Y-164534819D02*
X178859047Y-164534819D01*
X178859047Y-164534819D02*
X178954285Y-164582438D01*
X178954285Y-164582438D02*
X179001904Y-164630057D01*
X179001904Y-164630057D02*
X179049523Y-164725295D01*
X179049523Y-164725295D02*
X179049523Y-164868152D01*
X179049523Y-164868152D02*
X179001904Y-164963390D01*
X179001904Y-164963390D02*
X178954285Y-165011009D01*
X178954285Y-165011009D02*
X178859047Y-165058628D01*
X178859047Y-165058628D02*
X178478095Y-165058628D01*
X180240000Y-165153866D02*
X181001905Y-165153866D01*
X180620952Y-165534819D02*
X180620952Y-164772914D01*
X181382857Y-164868152D02*
X181620952Y-165534819D01*
X181620952Y-165534819D02*
X181859047Y-164868152D01*
X182620952Y-165487200D02*
X182525714Y-165534819D01*
X182525714Y-165534819D02*
X182335238Y-165534819D01*
X182335238Y-165534819D02*
X182240000Y-165487200D01*
X182240000Y-165487200D02*
X182192381Y-165391961D01*
X182192381Y-165391961D02*
X182192381Y-165011009D01*
X182192381Y-165011009D02*
X182240000Y-164915771D01*
X182240000Y-164915771D02*
X182335238Y-164868152D01*
X182335238Y-164868152D02*
X182525714Y-164868152D01*
X182525714Y-164868152D02*
X182620952Y-164915771D01*
X182620952Y-164915771D02*
X182668571Y-165011009D01*
X182668571Y-165011009D02*
X182668571Y-165106247D01*
X182668571Y-165106247D02*
X182192381Y-165201485D01*
X177930476Y-160484819D02*
X177930476Y-161199104D01*
X177930476Y-161199104D02*
X177882857Y-161341961D01*
X177882857Y-161341961D02*
X177787619Y-161437200D01*
X177787619Y-161437200D02*
X177644762Y-161484819D01*
X177644762Y-161484819D02*
X177549524Y-161484819D01*
X178930476Y-161484819D02*
X178359048Y-161484819D01*
X178644762Y-161484819D02*
X178644762Y-160484819D01*
X178644762Y-160484819D02*
X178549524Y-160627676D01*
X178549524Y-160627676D02*
X178454286Y-160722914D01*
X178454286Y-160722914D02*
X178359048Y-160770533D01*
X179311429Y-160580057D02*
X179359048Y-160532438D01*
X179359048Y-160532438D02*
X179454286Y-160484819D01*
X179454286Y-160484819D02*
X179692381Y-160484819D01*
X179692381Y-160484819D02*
X179787619Y-160532438D01*
X179787619Y-160532438D02*
X179835238Y-160580057D01*
X179835238Y-160580057D02*
X179882857Y-160675295D01*
X179882857Y-160675295D02*
X179882857Y-160770533D01*
X179882857Y-160770533D02*
X179835238Y-160913390D01*
X179835238Y-160913390D02*
X179263810Y-161484819D01*
X179263810Y-161484819D02*
X179882857Y-161484819D01*
D12*
X340138095Y-245357419D02*
X340138095Y-244357419D01*
X340138095Y-244833609D02*
X340709523Y-244833609D01*
X340709523Y-245357419D02*
X340709523Y-244357419D01*
X341090476Y-244357419D02*
X341709523Y-244357419D01*
X341709523Y-244357419D02*
X341376190Y-244738371D01*
X341376190Y-244738371D02*
X341519047Y-244738371D01*
X341519047Y-244738371D02*
X341614285Y-244785990D01*
X341614285Y-244785990D02*
X341661904Y-244833609D01*
X341661904Y-244833609D02*
X341709523Y-244928847D01*
X341709523Y-244928847D02*
X341709523Y-245166942D01*
X341709523Y-245166942D02*
X341661904Y-245262180D01*
X341661904Y-245262180D02*
X341614285Y-245309800D01*
X341614285Y-245309800D02*
X341519047Y-245357419D01*
X341519047Y-245357419D02*
X341233333Y-245357419D01*
X341233333Y-245357419D02*
X341138095Y-245309800D01*
X341138095Y-245309800D02*
X341090476Y-245262180D01*
D10*
X71022856Y-141784819D02*
X70451428Y-141784819D01*
X70737142Y-141784819D02*
X70737142Y-140784819D01*
X70737142Y-140784819D02*
X70641904Y-140927676D01*
X70641904Y-140927676D02*
X70546666Y-141022914D01*
X70546666Y-141022914D02*
X70451428Y-141070533D01*
X71403809Y-141737200D02*
X71546666Y-141784819D01*
X71546666Y-141784819D02*
X71784761Y-141784819D01*
X71784761Y-141784819D02*
X71879999Y-141737200D01*
X71879999Y-141737200D02*
X71927618Y-141689580D01*
X71927618Y-141689580D02*
X71975237Y-141594342D01*
X71975237Y-141594342D02*
X71975237Y-141499104D01*
X71975237Y-141499104D02*
X71927618Y-141403866D01*
X71927618Y-141403866D02*
X71879999Y-141356247D01*
X71879999Y-141356247D02*
X71784761Y-141308628D01*
X71784761Y-141308628D02*
X71594285Y-141261009D01*
X71594285Y-141261009D02*
X71499047Y-141213390D01*
X71499047Y-141213390D02*
X71451428Y-141165771D01*
X71451428Y-141165771D02*
X71403809Y-141070533D01*
X71403809Y-141070533D02*
X71403809Y-140975295D01*
X71403809Y-140975295D02*
X71451428Y-140880057D01*
X71451428Y-140880057D02*
X71499047Y-140832438D01*
X71499047Y-140832438D02*
X71594285Y-140784819D01*
X71594285Y-140784819D02*
X71832380Y-140784819D01*
X71832380Y-140784819D02*
X71975237Y-140832438D01*
X73689523Y-141784819D02*
X73118095Y-141784819D01*
X73403809Y-141784819D02*
X73403809Y-140784819D01*
X73403809Y-140784819D02*
X73308571Y-140927676D01*
X73308571Y-140927676D02*
X73213333Y-141022914D01*
X73213333Y-141022914D02*
X73118095Y-141070533D01*
X74118095Y-141784819D02*
X74118095Y-140784819D01*
X74118095Y-140784819D02*
X74499047Y-140784819D01*
X74499047Y-140784819D02*
X74594285Y-140832438D01*
X74594285Y-140832438D02*
X74641904Y-140880057D01*
X74641904Y-140880057D02*
X74689523Y-140975295D01*
X74689523Y-140975295D02*
X74689523Y-141118152D01*
X74689523Y-141118152D02*
X74641904Y-141213390D01*
X74641904Y-141213390D02*
X74594285Y-141261009D01*
X74594285Y-141261009D02*
X74499047Y-141308628D01*
X74499047Y-141308628D02*
X74118095Y-141308628D01*
X75880000Y-141403866D02*
X76641905Y-141403866D01*
X77022857Y-141118152D02*
X77260952Y-141784819D01*
X77260952Y-141784819D02*
X77499047Y-141118152D01*
X78260952Y-141737200D02*
X78165714Y-141784819D01*
X78165714Y-141784819D02*
X77975238Y-141784819D01*
X77975238Y-141784819D02*
X77880000Y-141737200D01*
X77880000Y-141737200D02*
X77832381Y-141641961D01*
X77832381Y-141641961D02*
X77832381Y-141261009D01*
X77832381Y-141261009D02*
X77880000Y-141165771D01*
X77880000Y-141165771D02*
X77975238Y-141118152D01*
X77975238Y-141118152D02*
X78165714Y-141118152D01*
X78165714Y-141118152D02*
X78260952Y-141165771D01*
X78260952Y-141165771D02*
X78308571Y-141261009D01*
X78308571Y-141261009D02*
X78308571Y-141356247D01*
X78308571Y-141356247D02*
X77832381Y-141451485D01*
X73570476Y-136734819D02*
X73570476Y-137449104D01*
X73570476Y-137449104D02*
X73522857Y-137591961D01*
X73522857Y-137591961D02*
X73427619Y-137687200D01*
X73427619Y-137687200D02*
X73284762Y-137734819D01*
X73284762Y-137734819D02*
X73189524Y-137734819D01*
X74570476Y-137734819D02*
X73999048Y-137734819D01*
X74284762Y-137734819D02*
X74284762Y-136734819D01*
X74284762Y-136734819D02*
X74189524Y-136877676D01*
X74189524Y-136877676D02*
X74094286Y-136972914D01*
X74094286Y-136972914D02*
X73999048Y-137020533D01*
X75522857Y-137734819D02*
X74951429Y-137734819D01*
X75237143Y-137734819D02*
X75237143Y-136734819D01*
X75237143Y-136734819D02*
X75141905Y-136877676D01*
X75141905Y-136877676D02*
X75046667Y-136972914D01*
X75046667Y-136972914D02*
X74951429Y-137020533D01*
X317383809Y-212368152D02*
X317383809Y-213034819D01*
X317145714Y-211987200D02*
X316907619Y-212701485D01*
X316907619Y-212701485D02*
X317526666Y-212701485D01*
X317860000Y-212987200D02*
X318002857Y-213034819D01*
X318002857Y-213034819D02*
X318240952Y-213034819D01*
X318240952Y-213034819D02*
X318336190Y-212987200D01*
X318336190Y-212987200D02*
X318383809Y-212939580D01*
X318383809Y-212939580D02*
X318431428Y-212844342D01*
X318431428Y-212844342D02*
X318431428Y-212749104D01*
X318431428Y-212749104D02*
X318383809Y-212653866D01*
X318383809Y-212653866D02*
X318336190Y-212606247D01*
X318336190Y-212606247D02*
X318240952Y-212558628D01*
X318240952Y-212558628D02*
X318050476Y-212511009D01*
X318050476Y-212511009D02*
X317955238Y-212463390D01*
X317955238Y-212463390D02*
X317907619Y-212415771D01*
X317907619Y-212415771D02*
X317860000Y-212320533D01*
X317860000Y-212320533D02*
X317860000Y-212225295D01*
X317860000Y-212225295D02*
X317907619Y-212130057D01*
X317907619Y-212130057D02*
X317955238Y-212082438D01*
X317955238Y-212082438D02*
X318050476Y-212034819D01*
X318050476Y-212034819D02*
X318288571Y-212034819D01*
X318288571Y-212034819D02*
X318431428Y-212082438D01*
X319955238Y-212511009D02*
X320098095Y-212558628D01*
X320098095Y-212558628D02*
X320145714Y-212606247D01*
X320145714Y-212606247D02*
X320193333Y-212701485D01*
X320193333Y-212701485D02*
X320193333Y-212844342D01*
X320193333Y-212844342D02*
X320145714Y-212939580D01*
X320145714Y-212939580D02*
X320098095Y-212987200D01*
X320098095Y-212987200D02*
X320002857Y-213034819D01*
X320002857Y-213034819D02*
X319621905Y-213034819D01*
X319621905Y-213034819D02*
X319621905Y-212034819D01*
X319621905Y-212034819D02*
X319955238Y-212034819D01*
X319955238Y-212034819D02*
X320050476Y-212082438D01*
X320050476Y-212082438D02*
X320098095Y-212130057D01*
X320098095Y-212130057D02*
X320145714Y-212225295D01*
X320145714Y-212225295D02*
X320145714Y-212320533D01*
X320145714Y-212320533D02*
X320098095Y-212415771D01*
X320098095Y-212415771D02*
X320050476Y-212463390D01*
X320050476Y-212463390D02*
X319955238Y-212511009D01*
X319955238Y-212511009D02*
X319621905Y-212511009D01*
X321383810Y-212653866D02*
X322145715Y-212653866D01*
X322526667Y-212368152D02*
X322764762Y-213034819D01*
X322764762Y-213034819D02*
X323002857Y-212368152D01*
X323764762Y-212987200D02*
X323669524Y-213034819D01*
X323669524Y-213034819D02*
X323479048Y-213034819D01*
X323479048Y-213034819D02*
X323383810Y-212987200D01*
X323383810Y-212987200D02*
X323336191Y-212891961D01*
X323336191Y-212891961D02*
X323336191Y-212511009D01*
X323336191Y-212511009D02*
X323383810Y-212415771D01*
X323383810Y-212415771D02*
X323479048Y-212368152D01*
X323479048Y-212368152D02*
X323669524Y-212368152D01*
X323669524Y-212368152D02*
X323764762Y-212415771D01*
X323764762Y-212415771D02*
X323812381Y-212511009D01*
X323812381Y-212511009D02*
X323812381Y-212606247D01*
X323812381Y-212606247D02*
X323336191Y-212701485D01*
X320026666Y-207984819D02*
X320026666Y-208699104D01*
X320026666Y-208699104D02*
X319979047Y-208841961D01*
X319979047Y-208841961D02*
X319883809Y-208937200D01*
X319883809Y-208937200D02*
X319740952Y-208984819D01*
X319740952Y-208984819D02*
X319645714Y-208984819D01*
X320931428Y-208318152D02*
X320931428Y-208984819D01*
X320693333Y-207937200D02*
X320455238Y-208651485D01*
X320455238Y-208651485D02*
X321074285Y-208651485D01*
%TO.C,BT1*%
D12*
X158875000Y-76925000D02*
X233240000Y-76925000D01*
X158875000Y-97575000D02*
X158875000Y-76925000D01*
X233240000Y-76925000D02*
X233240000Y-97575000D01*
X233240000Y-97575000D02*
X158875000Y-97575000D01*
%TO.C,BT8*%
X88035000Y-176455000D02*
X162400000Y-176455000D01*
X88035000Y-197105000D02*
X88035000Y-176455000D01*
X162400000Y-176455000D02*
X162400000Y-197105000D01*
X162400000Y-197105000D02*
X88035000Y-197105000D01*
%TO.C,BT4*%
X229655000Y-176455000D02*
X304020000Y-176455000D01*
X229655000Y-197105000D02*
X229655000Y-176455000D01*
X304020000Y-176455000D02*
X304020000Y-197105000D01*
X304020000Y-197105000D02*
X229655000Y-197105000D01*
%TO.C,BT7*%
X88035000Y-152705000D02*
X162400000Y-152705000D01*
X88035000Y-173355000D02*
X88035000Y-152705000D01*
X162400000Y-152705000D02*
X162400000Y-173355000D01*
X162400000Y-173355000D02*
X88035000Y-173355000D01*
%TO.C,BT9*%
X88035000Y-200205000D02*
X162400000Y-200205000D01*
X88035000Y-220855000D02*
X88035000Y-200205000D01*
X162400000Y-200205000D02*
X162400000Y-220855000D01*
X162400000Y-220855000D02*
X88035000Y-220855000D01*
%TO.C,BT2*%
X229655000Y-128955000D02*
X304020000Y-128955000D01*
X229655000Y-149605000D02*
X229655000Y-128955000D01*
X304020000Y-128955000D02*
X304020000Y-149605000D01*
X304020000Y-149605000D02*
X229655000Y-149605000D01*
D14*
%TO.C,G\u002A\u002A\u002A*%
G36*
X293265211Y-94774476D02*
G01*
X293314035Y-94966520D01*
X293209002Y-95214773D01*
X293016959Y-95263596D01*
X292768706Y-95158564D01*
X292719883Y-94966520D01*
X292824915Y-94718267D01*
X293016959Y-94669444D01*
X293265211Y-94774476D01*
G37*
%TO.C,BT5*%
D12*
X232340000Y-200205000D02*
X306705000Y-200205000D01*
X232340000Y-220855000D02*
X232340000Y-200205000D01*
X306705000Y-200205000D02*
X306705000Y-220855000D01*
X306705000Y-220855000D02*
X232340000Y-220855000D01*
%TO.C,BT3*%
X232340000Y-152705000D02*
X306705000Y-152705000D01*
X232340000Y-173355000D02*
X232340000Y-152705000D01*
X306705000Y-152705000D02*
X306705000Y-173355000D01*
X306705000Y-173355000D02*
X232340000Y-173355000D01*
%TO.C,BT6*%
X88035000Y-128955000D02*
X162400000Y-128955000D01*
X88035000Y-149605000D02*
X88035000Y-128955000D01*
X162400000Y-128955000D02*
X162400000Y-149605000D01*
X162400000Y-149605000D02*
X88035000Y-149605000D01*
%TD*%
M02*
