%TF.GenerationSoftware,KiCad,Pcbnew,10.0.5*%
%TF.CreationDate,2026-09-17T15:07:37+05:30*%
%TF.ProjectId,ACIR-Learning-Kit-2-PCB,41434952-2d4c-4656-9172-6e696e672d4b,v2.0*%
%TF.SameCoordinates,Original*%
%TF.FileFunction,Copper,L2,Bot*%
%TF.FilePolarity,Positive*%
%FSLAX46Y46*%
G04 Gerber Fmt 4.6, Leading zero omitted, Abs format (unit mm)*
G04 Created by KiCad (PCBNEW 10.0.5) date 2026-09-17 15:07:37*
%MOMM*%
%LPD*%
G01*
G04 APERTURE LIST*
%TA.AperFunction,ComponentPad*%
%ADD10C,2.800000*%
%TD*%
%TA.AperFunction,ComponentPad*%
%ADD11C,3.500000*%
%TD*%
%TA.AperFunction,ViaPad*%
%ADD12C,0.800000*%
%TD*%
%TA.AperFunction,Conductor*%
%ADD13C,8.000000*%
%TD*%
%TA.AperFunction,Conductor*%
%ADD14C,4.000000*%
%TD*%
%TA.AperFunction,Conductor*%
%ADD15C,6.000000*%
%TD*%
G04 APERTURE END LIST*
D10*
%TO.P,BT8,1,+_1*%
%TO.N,Net-(BT7--)*%
X147840000Y-184240000D03*
X147840000Y-189320000D03*
D11*
X162670000Y-186780000D03*
%TO.P,BT8,2,-_2*%
%TO.N,Net-(BT8--)*%
X90450000Y-186780000D03*
D10*
X105280000Y-184240000D03*
X105280000Y-189320000D03*
%TD*%
%TO.P,BT4,1,+_1*%
%TO.N,Net-(BT3--)*%
X289460000Y-184240000D03*
X289460000Y-189320000D03*
D11*
X304290000Y-186780000D03*
%TO.P,BT4,2,-_2*%
%TO.N,Net-(BT4--)*%
X232070000Y-186780000D03*
D10*
X246900000Y-184240000D03*
X246900000Y-189320000D03*
%TD*%
%TO.P,BT7,1,+_1*%
%TO.N,Net-(BT6--)*%
X105280000Y-165570000D03*
X105280000Y-160490000D03*
D11*
X90450000Y-163030000D03*
%TO.P,BT7,2,-_2*%
%TO.N,Net-(BT7--)*%
X162670000Y-163030000D03*
D10*
X147840000Y-165570000D03*
X147840000Y-160490000D03*
%TD*%
%TO.P,BT9,1,+_1*%
%TO.N,Net-(BT8--)*%
X105280000Y-213070000D03*
X105280000Y-207990000D03*
D11*
X90450000Y-210530000D03*
%TO.P,BT9,2,-_2*%
%TO.N,Net-(BT9--)*%
X162670000Y-210530000D03*
D10*
X147840000Y-213070000D03*
X147840000Y-207990000D03*
%TD*%
%TO.P,BT2,1,+_1*%
%TO.N,/4S_B+*%
X289460000Y-136740000D03*
X289460000Y-141820000D03*
D11*
X304290000Y-139280000D03*
%TO.P,BT2,2,-_2*%
%TO.N,Net-(BT2--)*%
X232070000Y-139280000D03*
D10*
X246900000Y-136740000D03*
X246900000Y-141820000D03*
%TD*%
%TO.P,BT5,1,+_1*%
%TO.N,Net-(BT4--)*%
X246900000Y-213070000D03*
X246900000Y-207990000D03*
D11*
X232070000Y-210530000D03*
%TO.P,BT5,2,-_2*%
%TO.N,/4S_B-*%
X304290000Y-210530000D03*
D10*
X289460000Y-213070000D03*
X289460000Y-207990000D03*
%TD*%
%TO.P,BT3,1,+_1*%
%TO.N,Net-(BT2--)*%
X246900000Y-165570000D03*
X246900000Y-160490000D03*
D11*
X232070000Y-163030000D03*
%TO.P,BT3,2,-_2*%
%TO.N,Net-(BT3--)*%
X304290000Y-163030000D03*
D10*
X289460000Y-165570000D03*
X289460000Y-160490000D03*
%TD*%
%TO.P,BT6,1,+_1*%
%TO.N,Net-(BT6-+)*%
X147840000Y-136740000D03*
X147840000Y-141820000D03*
D11*
X162670000Y-139280000D03*
%TO.P,BT6,2,-_2*%
%TO.N,Net-(BT6--)*%
X90450000Y-139280000D03*
D10*
X105280000Y-136740000D03*
X105280000Y-141820000D03*
%TD*%
D12*
%TO.N,Net-(BT2--)*%
X214500000Y-143500000D03*
X217500000Y-143500000D03*
X214500000Y-145500000D03*
X217500000Y-145500000D03*
X214500000Y-147500000D03*
X217500000Y-147500000D03*
X214500000Y-149500000D03*
X217500000Y-149500000D03*
X214500000Y-151500000D03*
X217500000Y-151500000D03*
X214500000Y-153500000D03*
X217500000Y-153500000D03*
X214500000Y-155500000D03*
X217500000Y-155500000D03*
X214500000Y-157500000D03*
X217500000Y-157500000D03*
X214500000Y-159000000D03*
X217500000Y-159000000D03*
X220000000Y-137480000D03*
X220000000Y-141080000D03*
X222000000Y-137480000D03*
X222000000Y-141080000D03*
X224000000Y-137480000D03*
X224000000Y-141080000D03*
X226000000Y-137480000D03*
X226000000Y-141080000D03*
X228000000Y-137480000D03*
X228000000Y-141080000D03*
X230000000Y-137480000D03*
X230000000Y-141080000D03*
X232000000Y-137480000D03*
X232000000Y-141080000D03*
X234000000Y-137480000D03*
X234000000Y-141080000D03*
X236000000Y-137480000D03*
X236000000Y-141080000D03*
X238000000Y-137480000D03*
X238000000Y-141080000D03*
X240000000Y-137480000D03*
X240000000Y-141080000D03*
X242000000Y-137480000D03*
X242000000Y-141080000D03*
X220000000Y-161230000D03*
X220000000Y-164830000D03*
X222000000Y-161230000D03*
X222000000Y-164830000D03*
X224000000Y-161230000D03*
X224000000Y-164830000D03*
X226000000Y-161230000D03*
X226000000Y-164830000D03*
X228000000Y-161230000D03*
X228000000Y-164830000D03*
X230000000Y-161230000D03*
X230000000Y-164830000D03*
X232000000Y-161230000D03*
X232000000Y-164830000D03*
X234000000Y-161230000D03*
X234000000Y-164830000D03*
X236000000Y-161230000D03*
X236000000Y-164830000D03*
X238000000Y-161230000D03*
X238000000Y-164830000D03*
X240000000Y-161230000D03*
X240000000Y-164830000D03*
X242000000Y-161230000D03*
X242000000Y-164830000D03*
%TO.N,Net-(BT3--)*%
X318860000Y-167200000D03*
X321860000Y-167200000D03*
X318860000Y-169200000D03*
X321860000Y-169200000D03*
X318860000Y-171200000D03*
X321860000Y-171200000D03*
X318860000Y-173200000D03*
X321860000Y-173200000D03*
X318860000Y-175200000D03*
X321860000Y-175200000D03*
X318860000Y-177200000D03*
X321860000Y-177200000D03*
X318860000Y-179200000D03*
X321860000Y-179200000D03*
X318860000Y-181200000D03*
X321860000Y-181200000D03*
X318860000Y-182800000D03*
X321860000Y-182800000D03*
X293400000Y-161230000D03*
X293400000Y-164830000D03*
X295400000Y-161230000D03*
X295400000Y-164830000D03*
X297400000Y-161230000D03*
X297400000Y-164830000D03*
X299400000Y-161230000D03*
X299400000Y-164830000D03*
X301400000Y-161230000D03*
X301400000Y-164830000D03*
X303400000Y-161230000D03*
X303400000Y-164830000D03*
X305400000Y-161230000D03*
X305400000Y-164830000D03*
X307400000Y-161230000D03*
X307400000Y-164830000D03*
X309400000Y-161230000D03*
X309400000Y-164830000D03*
X311400000Y-161230000D03*
X311400000Y-164830000D03*
X313400000Y-161230000D03*
X313400000Y-164830000D03*
X315400000Y-161230000D03*
X315400000Y-164830000D03*
X293400000Y-184980000D03*
X293400000Y-188580000D03*
X295400000Y-184980000D03*
X295400000Y-188580000D03*
X297400000Y-184980000D03*
X297400000Y-188580000D03*
X299400000Y-184980000D03*
X299400000Y-188580000D03*
X301400000Y-184980000D03*
X301400000Y-188580000D03*
X303400000Y-184980000D03*
X303400000Y-188580000D03*
X305400000Y-184980000D03*
X305400000Y-188580000D03*
X307400000Y-184980000D03*
X307400000Y-188580000D03*
X309400000Y-184980000D03*
X309400000Y-188580000D03*
X311400000Y-184980000D03*
X311400000Y-188580000D03*
X313400000Y-184980000D03*
X313400000Y-188580000D03*
X315400000Y-184980000D03*
X315400000Y-188580000D03*
%TO.N,Net-(BT4--)*%
X214500000Y-191000000D03*
X217500000Y-191000000D03*
X214500000Y-193000000D03*
X217500000Y-193000000D03*
X214500000Y-195000000D03*
X217500000Y-195000000D03*
X214500000Y-197000000D03*
X217500000Y-197000000D03*
X214500000Y-199000000D03*
X217500000Y-199000000D03*
X214500000Y-201000000D03*
X217500000Y-201000000D03*
X214500000Y-203000000D03*
X217500000Y-203000000D03*
X214500000Y-205000000D03*
X217500000Y-205000000D03*
X214500000Y-206500000D03*
X217500000Y-206500000D03*
X220000000Y-184980000D03*
X220000000Y-188580000D03*
X222000000Y-184980000D03*
X222000000Y-188580000D03*
X224000000Y-184980000D03*
X224000000Y-188580000D03*
X226000000Y-184980000D03*
X226000000Y-188580000D03*
X228000000Y-184980000D03*
X228000000Y-188580000D03*
X230000000Y-184980000D03*
X230000000Y-188580000D03*
X232000000Y-184980000D03*
X232000000Y-188580000D03*
X234000000Y-184980000D03*
X234000000Y-188580000D03*
X236000000Y-184980000D03*
X236000000Y-188580000D03*
X238000000Y-184980000D03*
X238000000Y-188580000D03*
X240000000Y-184980000D03*
X240000000Y-188580000D03*
X242000000Y-184980000D03*
X242000000Y-188580000D03*
X220000000Y-208730000D03*
X220000000Y-212330000D03*
X222000000Y-208730000D03*
X222000000Y-212330000D03*
X224000000Y-208730000D03*
X224000000Y-212330000D03*
X226000000Y-208730000D03*
X226000000Y-212330000D03*
X228000000Y-208730000D03*
X228000000Y-212330000D03*
X230000000Y-208730000D03*
X230000000Y-212330000D03*
X232000000Y-208730000D03*
X232000000Y-212330000D03*
X234000000Y-208730000D03*
X234000000Y-212330000D03*
X236000000Y-208730000D03*
X236000000Y-212330000D03*
X238000000Y-208730000D03*
X238000000Y-212330000D03*
X240000000Y-208730000D03*
X240000000Y-212330000D03*
X242000000Y-208730000D03*
X242000000Y-212330000D03*
%TO.N,/4S_B+*%
X293400000Y-137480000D03*
X293400000Y-141080000D03*
X295400000Y-137480000D03*
X295400000Y-141080000D03*
X297400000Y-137480000D03*
X297400000Y-141080000D03*
X299400000Y-137480000D03*
X299400000Y-141080000D03*
X301400000Y-137480000D03*
X301400000Y-141080000D03*
X303400000Y-137480000D03*
X303400000Y-141080000D03*
X305400000Y-137480000D03*
X305400000Y-141080000D03*
X307400000Y-137480000D03*
X307400000Y-141080000D03*
X309400000Y-137480000D03*
X309400000Y-141080000D03*
X311400000Y-137480000D03*
X311400000Y-141080000D03*
X313400000Y-137480000D03*
X313400000Y-141080000D03*
X315400000Y-137480000D03*
X315400000Y-141080000D03*
%TO.N,/4S_B-*%
X293400000Y-208730000D03*
X293400000Y-212330000D03*
X295400000Y-208730000D03*
X295400000Y-212330000D03*
X297400000Y-208730000D03*
X297400000Y-212330000D03*
X299400000Y-208730000D03*
X299400000Y-212330000D03*
X301400000Y-208730000D03*
X301400000Y-212330000D03*
X303400000Y-208730000D03*
X303400000Y-212330000D03*
X305400000Y-208730000D03*
X305400000Y-212330000D03*
X307400000Y-208730000D03*
X307400000Y-212330000D03*
X309400000Y-208730000D03*
X309400000Y-212330000D03*
X311400000Y-208730000D03*
X311400000Y-212330000D03*
X313400000Y-208730000D03*
X313400000Y-212330000D03*
X315400000Y-208730000D03*
X315400000Y-212330000D03*
%TO.N,Net-(BT6--)*%
X72180000Y-143500000D03*
X76580000Y-143500000D03*
X72180000Y-145500000D03*
X76580000Y-145500000D03*
X72180000Y-147500000D03*
X76580000Y-147500000D03*
X72180000Y-149500000D03*
X76580000Y-149500000D03*
X72180000Y-151500000D03*
X76580000Y-151500000D03*
X72180000Y-153500000D03*
X76580000Y-153500000D03*
X72180000Y-155500000D03*
X76580000Y-155500000D03*
X72180000Y-157500000D03*
X76580000Y-157500000D03*
X72180000Y-159000000D03*
X76580000Y-159000000D03*
X78500000Y-137280000D03*
X78500000Y-141280000D03*
X80500000Y-137280000D03*
X80500000Y-141280000D03*
X82500000Y-137280000D03*
X82500000Y-141280000D03*
X84500000Y-137280000D03*
X84500000Y-141280000D03*
X86500000Y-137280000D03*
X86500000Y-141280000D03*
X88500000Y-137280000D03*
X88500000Y-141280000D03*
X90500000Y-137280000D03*
X90500000Y-141280000D03*
X92500000Y-137280000D03*
X92500000Y-141280000D03*
X94500000Y-137280000D03*
X94500000Y-141280000D03*
X96500000Y-137280000D03*
X96500000Y-141280000D03*
X98500000Y-137280000D03*
X98500000Y-141280000D03*
X100500000Y-137280000D03*
X100500000Y-141280000D03*
X78500000Y-161030000D03*
X78500000Y-165030000D03*
X80500000Y-161030000D03*
X80500000Y-165030000D03*
X82500000Y-161030000D03*
X82500000Y-165030000D03*
X84500000Y-161030000D03*
X84500000Y-165030000D03*
X86500000Y-161030000D03*
X86500000Y-165030000D03*
X88500000Y-161030000D03*
X88500000Y-165030000D03*
X90500000Y-161030000D03*
X90500000Y-165030000D03*
X92500000Y-161030000D03*
X92500000Y-165030000D03*
X94500000Y-161030000D03*
X94500000Y-165030000D03*
X96500000Y-161030000D03*
X96500000Y-165030000D03*
X98500000Y-161030000D03*
X98500000Y-165030000D03*
X100500000Y-161030000D03*
X100500000Y-165030000D03*
%TO.N,Net-(BT6-+)*%
X151500000Y-137480000D03*
X151500000Y-141080000D03*
X153500000Y-137480000D03*
X153500000Y-141080000D03*
X155500000Y-137480000D03*
X155500000Y-141080000D03*
X157500000Y-137480000D03*
X157500000Y-141080000D03*
X159500000Y-137480000D03*
X159500000Y-141080000D03*
X161500000Y-137480000D03*
X161500000Y-141080000D03*
X163500000Y-137480000D03*
X163500000Y-141080000D03*
X165500000Y-137480000D03*
X165500000Y-141080000D03*
X167500000Y-137480000D03*
X167500000Y-141080000D03*
X169500000Y-137480000D03*
X169500000Y-141080000D03*
X171500000Y-137480000D03*
X171500000Y-141080000D03*
X173500000Y-137480000D03*
X173500000Y-141080000D03*
%TO.N,Net-(BT9--)*%
X151500000Y-208730000D03*
X151500000Y-212330000D03*
X153500000Y-208730000D03*
X153500000Y-212330000D03*
X155500000Y-208730000D03*
X155500000Y-212330000D03*
X157500000Y-208730000D03*
X157500000Y-212330000D03*
X159500000Y-208730000D03*
X159500000Y-212330000D03*
X161500000Y-208730000D03*
X161500000Y-212330000D03*
X163500000Y-208730000D03*
X163500000Y-212330000D03*
X165500000Y-208730000D03*
X165500000Y-212330000D03*
X167500000Y-208730000D03*
X167500000Y-212330000D03*
X169500000Y-208730000D03*
X169500000Y-212330000D03*
X171500000Y-208730000D03*
X171500000Y-212330000D03*
X173500000Y-208730000D03*
X173500000Y-212330000D03*
%TO.N,Net-(J1-Pin_1)*%
X149400000Y-79500000D03*
X149400000Y-82500000D03*
X151400000Y-79500000D03*
X151400000Y-82500000D03*
X153400000Y-79500000D03*
X153400000Y-82500000D03*
X155400000Y-79500000D03*
X155400000Y-82500000D03*
X157400000Y-79500000D03*
X157400000Y-82500000D03*
X159400000Y-79500000D03*
X159400000Y-82500000D03*
X161400000Y-79500000D03*
X161400000Y-82500000D03*
X163400000Y-79500000D03*
X163400000Y-82500000D03*
X165400000Y-79500000D03*
X165400000Y-82500000D03*
X167400000Y-79500000D03*
X167400000Y-82500000D03*
X169400000Y-79500000D03*
X169400000Y-82500000D03*
X171400000Y-79500000D03*
X171400000Y-82500000D03*
X173400000Y-79500000D03*
X173400000Y-82500000D03*
X175400000Y-79500000D03*
X175400000Y-82500000D03*
X177400000Y-79500000D03*
X177400000Y-82500000D03*
X179400000Y-79500000D03*
X179400000Y-82500000D03*
X181400000Y-79500000D03*
X181400000Y-82500000D03*
X183400000Y-79500000D03*
X183400000Y-82500000D03*
X185400000Y-79500000D03*
X185400000Y-82500000D03*
X187400000Y-79500000D03*
X187400000Y-82500000D03*
X189400000Y-79500000D03*
X189400000Y-82500000D03*
X191400000Y-79500000D03*
X191400000Y-82500000D03*
X193400000Y-79500000D03*
X193400000Y-82500000D03*
X195400000Y-79500000D03*
X195400000Y-82500000D03*
X197400000Y-79500000D03*
X197400000Y-82500000D03*
X199400000Y-79500000D03*
X199400000Y-82500000D03*
X201400000Y-79500000D03*
X201400000Y-82500000D03*
X203400000Y-79500000D03*
X203400000Y-82500000D03*
X205400000Y-79500000D03*
X205400000Y-82500000D03*
X207400000Y-79500000D03*
X207400000Y-82500000D03*
X209400000Y-79500000D03*
X209400000Y-82500000D03*
X211400000Y-79500000D03*
X211400000Y-82500000D03*
X213400000Y-79500000D03*
X213400000Y-82500000D03*
X215400000Y-79500000D03*
X215400000Y-82500000D03*
X217400000Y-79500000D03*
X217400000Y-82500000D03*
X219400000Y-79500000D03*
X219400000Y-82500000D03*
X221400000Y-79500000D03*
X221400000Y-82500000D03*
X223400000Y-79500000D03*
X223400000Y-82500000D03*
X225400000Y-79500000D03*
X225400000Y-82500000D03*
X227400000Y-79500000D03*
X227400000Y-82500000D03*
X229400000Y-79500000D03*
X229400000Y-82500000D03*
X231400000Y-79500000D03*
X231400000Y-82500000D03*
X233400000Y-79500000D03*
X233400000Y-82500000D03*
X235400000Y-79500000D03*
X235400000Y-82500000D03*
X237400000Y-79500000D03*
X237400000Y-82500000D03*
X239400000Y-79500000D03*
X239400000Y-82500000D03*
X241400000Y-79500000D03*
X241400000Y-82500000D03*
X243400000Y-79500000D03*
X243400000Y-82500000D03*
X245400000Y-79500000D03*
X245400000Y-82500000D03*
%TO.N,Net-(J21-Pin_1)*%
X169400000Y-88500000D03*
X169400000Y-91500000D03*
X171400000Y-88500000D03*
X171400000Y-91500000D03*
X173400000Y-88500000D03*
X173400000Y-91500000D03*
X175400000Y-88500000D03*
X175400000Y-91500000D03*
X177400000Y-88500000D03*
X177400000Y-91500000D03*
X179400000Y-88500000D03*
X179400000Y-91500000D03*
X181400000Y-88500000D03*
X181400000Y-91500000D03*
X183400000Y-88500000D03*
X183400000Y-91500000D03*
X185400000Y-88500000D03*
X185400000Y-91500000D03*
X187400000Y-88500000D03*
X187400000Y-91500000D03*
X189400000Y-88500000D03*
X189400000Y-91500000D03*
X191400000Y-88500000D03*
X191400000Y-91500000D03*
X193400000Y-88500000D03*
X193400000Y-91500000D03*
X195400000Y-88500000D03*
X195400000Y-91500000D03*
X197400000Y-88500000D03*
X197400000Y-91500000D03*
X199400000Y-88500000D03*
X199400000Y-91500000D03*
X201400000Y-88500000D03*
X201400000Y-91500000D03*
X203400000Y-88500000D03*
X203400000Y-91500000D03*
X205400000Y-88500000D03*
X205400000Y-91500000D03*
X207400000Y-88500000D03*
X207400000Y-91500000D03*
X209400000Y-88500000D03*
X209400000Y-91500000D03*
X211400000Y-88500000D03*
X211400000Y-91500000D03*
X213400000Y-88500000D03*
X213400000Y-91500000D03*
X215400000Y-88500000D03*
X215400000Y-91500000D03*
X217400000Y-88500000D03*
X217400000Y-91500000D03*
X219400000Y-88500000D03*
X219400000Y-91500000D03*
X221400000Y-88500000D03*
X221400000Y-91500000D03*
X223400000Y-88500000D03*
X223400000Y-91500000D03*
X225400000Y-88500000D03*
X225400000Y-91500000D03*
%TO.N,Net-(J23-Pin_1)*%
X185400000Y-97500000D03*
X185400000Y-100500000D03*
X187400000Y-97500000D03*
X187400000Y-100500000D03*
X189400000Y-97500000D03*
X189400000Y-100500000D03*
X191400000Y-97500000D03*
X191400000Y-100500000D03*
X193400000Y-97500000D03*
X193400000Y-100500000D03*
X195400000Y-97500000D03*
X195400000Y-100500000D03*
X197400000Y-97500000D03*
X197400000Y-100500000D03*
X199400000Y-97500000D03*
X199400000Y-100500000D03*
X201400000Y-97500000D03*
X201400000Y-100500000D03*
X203400000Y-97500000D03*
X203400000Y-100500000D03*
X205400000Y-97500000D03*
X205400000Y-100500000D03*
X207400000Y-97500000D03*
X207400000Y-100500000D03*
X209400000Y-97500000D03*
X209400000Y-100500000D03*
%TD*%
%TO.N,Net-(BT2--)*%
D13*
X216000000Y-163030000D02*
X246900000Y-163030000D01*
X246900000Y-136740000D02*
X246900000Y-141820000D01*
X246900000Y-160490000D02*
X246900000Y-165570000D01*
X216000000Y-135000000D02*
X216000000Y-167030000D01*
X216000000Y-139280000D02*
X246900000Y-139280000D01*
%TO.N,Net-(BT4--)*%
X216000000Y-210530000D02*
X246900000Y-210530000D01*
X246900000Y-207990000D02*
X246900000Y-213070000D01*
X216000000Y-186780000D02*
X246900000Y-186780000D01*
X246900000Y-184240000D02*
X246900000Y-189320000D01*
X216000000Y-182780000D02*
X216000000Y-214800000D01*
%TO.N,Net-(BT3--)*%
X289460000Y-186780000D02*
X320360000Y-186780000D01*
X289460000Y-160490000D02*
X289460000Y-165570000D01*
X320360000Y-159030000D02*
X320360000Y-190780000D01*
X289460000Y-184240000D02*
X289460000Y-189320000D01*
X289460000Y-163030000D02*
X320360000Y-163030000D01*
%TO.N,/4S_B+*%
X289460000Y-136740000D02*
X289460000Y-141820000D01*
X289460000Y-139280000D02*
X316400000Y-139280000D01*
%TO.N,/4S_B-*%
X289460000Y-207990000D02*
X289460000Y-213070000D01*
X289460000Y-210530000D02*
X316400000Y-210530000D01*
%TO.N,Net-(BT6-+)*%
X147840000Y-139280000D02*
X174500000Y-139280000D01*
X147840000Y-136740000D02*
X147840000Y-141820000D01*
%TO.N,Net-(BT6--)*%
X74380000Y-139280000D02*
X105280000Y-139280000D01*
X105280000Y-136740000D02*
X105280000Y-141820000D01*
X74380000Y-163030000D02*
X105280000Y-163030000D01*
X105280000Y-160490000D02*
X105280000Y-165570000D01*
X74380000Y-135280000D02*
X74380000Y-167030000D01*
D14*
X76380000Y-135280000D02*
X76380000Y-167030000D01*
%TO.N,Net-(BT9--)*%
D13*
X147840000Y-210530000D02*
X174500000Y-210530000D01*
X147840000Y-207990000D02*
X147840000Y-213070000D01*
%TO.N,Net-(J1-Pin_1)*%
D15*
X149400000Y-81000000D02*
X245400000Y-81000000D01*
%TO.N,Net-(J21-Pin_1)*%
X169400000Y-90000000D02*
X225400000Y-90000000D01*
%TO.N,Net-(J23-Pin_1)*%
X185400000Y-99000000D02*
X209400000Y-99000000D01*
%TD*%
M02*
