%TF.GenerationSoftware,KiCad,Pcbnew,10.0.5*%
%TF.CreationDate,2026-09-17T13:13:43+05:30*%
%TF.ProjectId,ACIR-Learning-Kit-2-PCB,41434952-2d4c-4656-9172-6e696e672d4b,v2.0*%
%TF.SameCoordinates,Original*%
%TF.FileFunction,Copper,L1,Top*%
%TF.FilePolarity,Positive*%
%FSLAX46Y46*%
G04 Gerber Fmt 4.6, Leading zero omitted, Abs format (unit mm)*
G04 Created by KiCad (PCBNEW 10.0.5) date 2026-09-17 13:13:43*
%MOMM*%
%LPD*%
G01*
G04 APERTURE LIST*
%TA.AperFunction,SMDPad,CuDef*%
%ADD10C,6.000000*%
%TD*%
%TA.AperFunction,ComponentPad*%
%ADD11C,2.800000*%
%TD*%
%TA.AperFunction,ComponentPad*%
%ADD12C,3.500000*%
%TD*%
%TA.AperFunction,ViaPad*%
%ADD13C,0.800000*%
%TD*%
%TA.AperFunction,Conductor*%
%ADD14C,8.000000*%
%TD*%
%TA.AperFunction,Conductor*%
%ADD15C,6.000000*%
%TD*%
%TA.AperFunction,Conductor*%
%ADD16C,4.000000*%
%TD*%
%TA.AperFunction,Conductor*%
%ADD17C,3.000000*%
%TD*%
%TA.AperFunction,Conductor*%
%ADD18C,0.800000*%
%TD*%
%TA.AperFunction,Conductor*%
%ADD19C,2.000000*%
%TD*%
G04 APERTURE END LIST*
D10*
%TO.P,P4,1,Pin_1_1*%
%TO.N,Net-(J21-Pin_1)*%
X227050000Y-92530000D03*
%TD*%
%TO.P,J7,1,Pin_1_1*%
%TO.N,Net-(BT2--)*%
X216000000Y-139280000D03*
%TD*%
%TO.P,J17,1,Pin_1_1*%
%TO.N,Net-(BT8--)*%
X74380000Y-210530000D03*
%TD*%
D11*
%TO.P,BT8,1,+_1*%
%TO.N,Net-(BT7--)*%
X147840000Y-184240000D03*
X147840000Y-189320000D03*
D12*
X162670000Y-186780000D03*
%TO.P,BT8,2,-_2*%
%TO.N,Net-(BT8--)*%
X90450000Y-186780000D03*
D11*
X105280000Y-184240000D03*
X105280000Y-189320000D03*
%TD*%
D10*
%TO.P,J14,1,Pin_1_1*%
%TO.N,Net-(BT7--)*%
X178740000Y-186780000D03*
%TD*%
%TO.P,J9,1,Pin_1_1*%
%TO.N,Net-(BT4--)*%
X216000000Y-186780000D03*
%TD*%
%TO.P,J19,1,Pin_1_1*%
%TO.N,Net-(BT3--)*%
X320360000Y-186780000D03*
%TD*%
%TO.P,J13,1,Pin_1_1*%
%TO.N,Net-(BT6--)*%
X74380000Y-163030000D03*
%TD*%
D11*
%TO.P,BT4,1,+_1*%
%TO.N,Net-(BT3--)*%
X289460000Y-184240000D03*
X289460000Y-189320000D03*
D12*
X304290000Y-186780000D03*
%TO.P,BT4,2,-_2*%
%TO.N,Net-(BT4--)*%
X232070000Y-186780000D03*
D11*
X246900000Y-184240000D03*
X246900000Y-189320000D03*
%TD*%
%TO.P,BT7,1,+_1*%
%TO.N,Net-(BT6--)*%
X105280000Y-165570000D03*
X105280000Y-160490000D03*
D12*
X90450000Y-163030000D03*
%TO.P,BT7,2,-_2*%
%TO.N,Net-(BT7--)*%
X162670000Y-163030000D03*
D11*
X147840000Y-165570000D03*
X147840000Y-160490000D03*
%TD*%
D10*
%TO.P,P6,1,Pin_1_1*%
%TO.N,Net-(J23-Pin_1)*%
X219750000Y-100180000D03*
%TD*%
%TO.P,J18,1,Pin_1_1*%
%TO.N,Net-(BT2--)*%
X216000000Y-163030000D03*
%TD*%
%TO.P,J3,1,Pin_1_1*%
%TO.N,/4S_B+*%
X320360000Y-139280000D03*
%TD*%
%TO.P,P2,1,Pin_1_1*%
%TO.N,Net-(J1-Pin_1)*%
X249700000Y-82360000D03*
%TD*%
%TO.P,P3,1,Pin_1_1*%
%TO.N,Net-(J21-Pin_1)*%
X169105000Y-92530000D03*
%TD*%
D11*
%TO.P,BT9,1,+_1*%
%TO.N,Net-(BT8--)*%
X105280000Y-213070000D03*
X105280000Y-207990000D03*
D12*
X90450000Y-210530000D03*
%TO.P,BT9,2,-_2*%
%TO.N,Net-(BT9--)*%
X162670000Y-210530000D03*
D11*
X147840000Y-213070000D03*
X147840000Y-207990000D03*
%TD*%
D10*
%TO.P,J16,1,Pin_1_1*%
%TO.N,Net-(BT9--)*%
X178740000Y-210530000D03*
%TD*%
D11*
%TO.P,BT2,1,+_1*%
%TO.N,/4S_B+*%
X289460000Y-136740000D03*
X289460000Y-141820000D03*
D12*
X304290000Y-139280000D03*
%TO.P,BT2,2,-_2*%
%TO.N,Net-(BT2--)*%
X232070000Y-139280000D03*
D11*
X246900000Y-136740000D03*
X246900000Y-141820000D03*
%TD*%
D10*
%TO.P,J15,1,Pin_1_1*%
%TO.N,Net-(BT8--)*%
X74380000Y-186780000D03*
%TD*%
D11*
%TO.P,BT5,1,+_1*%
%TO.N,Net-(BT4--)*%
X246900000Y-213070000D03*
X246900000Y-207990000D03*
D12*
X232070000Y-210530000D03*
%TO.P,BT5,2,-_2*%
%TO.N,/4S_B-*%
X304290000Y-210530000D03*
D11*
X289460000Y-213070000D03*
X289460000Y-207990000D03*
%TD*%
D10*
%TO.P,P1,1,Pin_1_1*%
%TO.N,Net-(J1-Pin_1)*%
X145340000Y-82360000D03*
%TD*%
D11*
%TO.P,BT3,1,+_1*%
%TO.N,Net-(BT2--)*%
X246900000Y-165570000D03*
X246900000Y-160490000D03*
D12*
X232070000Y-163030000D03*
%TO.P,BT3,2,-_2*%
%TO.N,Net-(BT3--)*%
X304290000Y-163030000D03*
D11*
X289460000Y-165570000D03*
X289460000Y-160490000D03*
%TD*%
D10*
%TO.P,J8,1,Pin_1_1*%
%TO.N,Net-(BT3--)*%
X320360000Y-163030000D03*
%TD*%
%TO.P,J20,1,Pin_1_1*%
%TO.N,Net-(BT4--)*%
X216000000Y-210530000D03*
%TD*%
D11*
%TO.P,BT6,1,+_1*%
%TO.N,Net-(BT6-+)*%
X147840000Y-136740000D03*
X147840000Y-141820000D03*
D12*
X162670000Y-139280000D03*
%TO.P,BT6,2,-_2*%
%TO.N,Net-(BT6--)*%
X90450000Y-139280000D03*
D11*
X105280000Y-136740000D03*
X105280000Y-141820000D03*
%TD*%
D10*
%TO.P,J10,1,Pin_1_1*%
%TO.N,Net-(BT6-+)*%
X178740000Y-139280000D03*
%TD*%
%TO.P,J12,1,Pin_1_1*%
%TO.N,Net-(BT7--)*%
X178740000Y-163030000D03*
%TD*%
%TO.P,J11,1,Pin_1_1*%
%TO.N,Net-(BT6--)*%
X74380000Y-139280000D03*
%TD*%
%TO.P,J4,1,Pin_1_1*%
%TO.N,/4S_B-*%
X320360000Y-210530000D03*
%TD*%
%TO.P,P5,1,Pin_1_1*%
%TO.N,Net-(J23-Pin_1)*%
X183330000Y-100180000D03*
%TD*%
D13*
%TO.N,Net-(J1-Pin_1)*%
X149500000Y-80860000D03*
X149500000Y-83860000D03*
X151500000Y-80860000D03*
X151500000Y-83860000D03*
X153500000Y-80860000D03*
X153500000Y-83860000D03*
X155500000Y-80860000D03*
X155500000Y-83860000D03*
X157500000Y-80860000D03*
X157500000Y-83860000D03*
X159500000Y-80860000D03*
X159500000Y-83860000D03*
X161500000Y-80860000D03*
X161500000Y-83860000D03*
X163500000Y-80860000D03*
X163500000Y-83860000D03*
X165500000Y-80860000D03*
X165500000Y-83860000D03*
X167500000Y-80860000D03*
X167500000Y-83860000D03*
X169500000Y-80860000D03*
X169500000Y-83860000D03*
X171500000Y-80860000D03*
X171500000Y-83860000D03*
X173500000Y-80860000D03*
X173500000Y-83860000D03*
X175500000Y-80860000D03*
X175500000Y-83860000D03*
X177500000Y-80860000D03*
X177500000Y-83860000D03*
X179500000Y-80860000D03*
X179500000Y-83860000D03*
X181500000Y-80860000D03*
X181500000Y-83860000D03*
X183500000Y-80860000D03*
X183500000Y-83860000D03*
X185500000Y-80860000D03*
X185500000Y-83860000D03*
X187500000Y-80860000D03*
X187500000Y-83860000D03*
X189500000Y-80860000D03*
X189500000Y-83860000D03*
X191500000Y-80860000D03*
X191500000Y-83860000D03*
X193500000Y-80860000D03*
X193500000Y-83860000D03*
X195500000Y-80860000D03*
X195500000Y-83860000D03*
X197500000Y-80860000D03*
X197500000Y-83860000D03*
X199500000Y-80860000D03*
X199500000Y-83860000D03*
X201500000Y-80860000D03*
X201500000Y-83860000D03*
X203500000Y-80860000D03*
X203500000Y-83860000D03*
X205500000Y-80860000D03*
X205500000Y-83860000D03*
X207500000Y-80860000D03*
X207500000Y-83860000D03*
X209500000Y-80860000D03*
X209500000Y-83860000D03*
X211500000Y-80860000D03*
X211500000Y-83860000D03*
X213500000Y-80860000D03*
X213500000Y-83860000D03*
X215500000Y-80860000D03*
X215500000Y-83860000D03*
X217500000Y-80860000D03*
X217500000Y-83860000D03*
X219500000Y-80860000D03*
X219500000Y-83860000D03*
X221500000Y-80860000D03*
X221500000Y-83860000D03*
X223500000Y-80860000D03*
X223500000Y-83860000D03*
X225500000Y-80860000D03*
X225500000Y-83860000D03*
X227500000Y-80860000D03*
X227500000Y-83860000D03*
X229500000Y-80860000D03*
X229500000Y-83860000D03*
X231500000Y-80860000D03*
X231500000Y-83860000D03*
X233500000Y-80860000D03*
X233500000Y-83860000D03*
X235500000Y-80860000D03*
X235500000Y-83860000D03*
X237500000Y-80860000D03*
X237500000Y-83860000D03*
X239500000Y-80860000D03*
X239500000Y-83860000D03*
X241500000Y-80860000D03*
X241500000Y-83860000D03*
X243500000Y-80860000D03*
X243500000Y-83860000D03*
X245500000Y-80860000D03*
X245500000Y-83860000D03*
%TO.N,Net-(J21-Pin_1)*%
X173200000Y-91030000D03*
X173200000Y-94030000D03*
X175200000Y-91030000D03*
X175200000Y-94030000D03*
X177200000Y-91030000D03*
X177200000Y-94030000D03*
X179200000Y-91030000D03*
X179200000Y-94030000D03*
X181200000Y-91030000D03*
X181200000Y-94030000D03*
X183200000Y-91030000D03*
X183200000Y-94030000D03*
X185200000Y-91030000D03*
X185200000Y-94030000D03*
X187200000Y-91030000D03*
X187200000Y-94030000D03*
X189200000Y-91030000D03*
X189200000Y-94030000D03*
X191200000Y-91030000D03*
X191200000Y-94030000D03*
X193200000Y-91030000D03*
X193200000Y-94030000D03*
X195200000Y-91030000D03*
X195200000Y-94030000D03*
X197200000Y-91030000D03*
X197200000Y-94030000D03*
X199200000Y-91030000D03*
X199200000Y-94030000D03*
X201200000Y-91030000D03*
X201200000Y-94030000D03*
X203200000Y-91030000D03*
X203200000Y-94030000D03*
X205200000Y-91030000D03*
X205200000Y-94030000D03*
X207200000Y-91030000D03*
X207200000Y-94030000D03*
X209200000Y-91030000D03*
X209200000Y-94030000D03*
X211200000Y-91030000D03*
X211200000Y-94030000D03*
X213200000Y-91030000D03*
X213200000Y-94030000D03*
X215200000Y-91030000D03*
X215200000Y-94030000D03*
X217200000Y-91030000D03*
X217200000Y-94030000D03*
X219200000Y-91030000D03*
X219200000Y-94030000D03*
X221200000Y-91030000D03*
X221200000Y-94030000D03*
%TO.N,Net-(J23-Pin_1)*%
X187400000Y-98680000D03*
X187400000Y-101680000D03*
X189400000Y-98680000D03*
X189400000Y-101680000D03*
X191400000Y-98680000D03*
X191400000Y-101680000D03*
X193400000Y-98680000D03*
X193400000Y-101680000D03*
X195400000Y-98680000D03*
X195400000Y-101680000D03*
X197400000Y-98680000D03*
X197400000Y-101680000D03*
X199400000Y-98680000D03*
X199400000Y-101680000D03*
X201400000Y-98680000D03*
X201400000Y-101680000D03*
X203400000Y-98680000D03*
X203400000Y-101680000D03*
X205400000Y-98680000D03*
X205400000Y-101680000D03*
X207400000Y-98680000D03*
X207400000Y-101680000D03*
X209400000Y-98680000D03*
X209400000Y-101680000D03*
X211400000Y-98680000D03*
X211400000Y-101680000D03*
X213400000Y-98680000D03*
X213400000Y-101680000D03*
X215400000Y-98680000D03*
X215400000Y-101680000D03*
%TO.N,Net-(BT2--)*%
X214500000Y-143500000D03*
X217500000Y-143500000D03*
X214500000Y-145500000D03*
X217500000Y-145500000D03*
X214500000Y-147500000D03*
X217500000Y-147500000D03*
X214500000Y-149500000D03*
X217500000Y-149500000D03*
X214500000Y-151500000D03*
X217500000Y-151500000D03*
X214500000Y-153500000D03*
X217500000Y-153500000D03*
X214500000Y-155500000D03*
X217500000Y-155500000D03*
X214500000Y-157500000D03*
X217500000Y-157500000D03*
X214500000Y-159000000D03*
X217500000Y-159000000D03*
X220000000Y-137480000D03*
X220000000Y-141080000D03*
X222000000Y-137480000D03*
X222000000Y-141080000D03*
X224000000Y-137480000D03*
X224000000Y-141080000D03*
X226000000Y-137480000D03*
X226000000Y-141080000D03*
X228000000Y-137480000D03*
X228000000Y-141080000D03*
X230000000Y-137480000D03*
X230000000Y-141080000D03*
X232000000Y-137480000D03*
X232000000Y-141080000D03*
X234000000Y-137480000D03*
X234000000Y-141080000D03*
X236000000Y-137480000D03*
X236000000Y-141080000D03*
X238000000Y-137480000D03*
X238000000Y-141080000D03*
X240000000Y-137480000D03*
X240000000Y-141080000D03*
X242000000Y-137480000D03*
X242000000Y-141080000D03*
X220000000Y-161230000D03*
X220000000Y-164830000D03*
X222000000Y-161230000D03*
X222000000Y-164830000D03*
X224000000Y-161230000D03*
X224000000Y-164830000D03*
X226000000Y-161230000D03*
X226000000Y-164830000D03*
X228000000Y-161230000D03*
X228000000Y-164830000D03*
X230000000Y-161230000D03*
X230000000Y-164830000D03*
X232000000Y-161230000D03*
X232000000Y-164830000D03*
X234000000Y-161230000D03*
X234000000Y-164830000D03*
X236000000Y-161230000D03*
X236000000Y-164830000D03*
X238000000Y-161230000D03*
X238000000Y-164830000D03*
X240000000Y-161230000D03*
X240000000Y-164830000D03*
X242000000Y-161230000D03*
X242000000Y-164830000D03*
%TO.N,Net-(BT3--)*%
X318860000Y-167200000D03*
X321860000Y-167200000D03*
X318860000Y-169200000D03*
X321860000Y-169200000D03*
X318860000Y-171200000D03*
X321860000Y-171200000D03*
X318860000Y-173200000D03*
X321860000Y-173200000D03*
X318860000Y-175200000D03*
X321860000Y-175200000D03*
X318860000Y-177200000D03*
X321860000Y-177200000D03*
X318860000Y-179200000D03*
X321860000Y-179200000D03*
X318860000Y-181200000D03*
X321860000Y-181200000D03*
X318860000Y-182800000D03*
X321860000Y-182800000D03*
X293400000Y-161230000D03*
X293400000Y-164830000D03*
X295400000Y-161230000D03*
X295400000Y-164830000D03*
X297400000Y-161230000D03*
X297400000Y-164830000D03*
X299400000Y-161230000D03*
X299400000Y-164830000D03*
X301400000Y-161230000D03*
X301400000Y-164830000D03*
X303400000Y-161230000D03*
X303400000Y-164830000D03*
X305400000Y-161230000D03*
X305400000Y-164830000D03*
X307400000Y-161230000D03*
X307400000Y-164830000D03*
X309400000Y-161230000D03*
X309400000Y-164830000D03*
X311400000Y-161230000D03*
X311400000Y-164830000D03*
X313400000Y-161230000D03*
X313400000Y-164830000D03*
X315400000Y-161230000D03*
X315400000Y-164830000D03*
X293400000Y-184980000D03*
X293400000Y-188580000D03*
X295400000Y-184980000D03*
X295400000Y-188580000D03*
X297400000Y-184980000D03*
X297400000Y-188580000D03*
X299400000Y-184980000D03*
X299400000Y-188580000D03*
X301400000Y-184980000D03*
X301400000Y-188580000D03*
X303400000Y-184980000D03*
X303400000Y-188580000D03*
X305400000Y-184980000D03*
X305400000Y-188580000D03*
X307400000Y-184980000D03*
X307400000Y-188580000D03*
X309400000Y-184980000D03*
X309400000Y-188580000D03*
X311400000Y-184980000D03*
X311400000Y-188580000D03*
X313400000Y-184980000D03*
X313400000Y-188580000D03*
X315400000Y-184980000D03*
X315400000Y-188580000D03*
%TO.N,Net-(BT4--)*%
X214500000Y-191000000D03*
X217500000Y-191000000D03*
X214500000Y-193000000D03*
X217500000Y-193000000D03*
X214500000Y-195000000D03*
X217500000Y-195000000D03*
X214500000Y-197000000D03*
X217500000Y-197000000D03*
X214500000Y-199000000D03*
X217500000Y-199000000D03*
X214500000Y-201000000D03*
X217500000Y-201000000D03*
X214500000Y-203000000D03*
X217500000Y-203000000D03*
X214500000Y-205000000D03*
X217500000Y-205000000D03*
X214500000Y-206500000D03*
X217500000Y-206500000D03*
X220000000Y-184980000D03*
X220000000Y-188580000D03*
X222000000Y-184980000D03*
X222000000Y-188580000D03*
X224000000Y-184980000D03*
X224000000Y-188580000D03*
X226000000Y-184980000D03*
X226000000Y-188580000D03*
X228000000Y-184980000D03*
X228000000Y-188580000D03*
X230000000Y-184980000D03*
X230000000Y-188580000D03*
X232000000Y-184980000D03*
X232000000Y-188580000D03*
X234000000Y-184980000D03*
X234000000Y-188580000D03*
X236000000Y-184980000D03*
X236000000Y-188580000D03*
X238000000Y-184980000D03*
X238000000Y-188580000D03*
X240000000Y-184980000D03*
X240000000Y-188580000D03*
X242000000Y-184980000D03*
X242000000Y-188580000D03*
X220000000Y-208730000D03*
X220000000Y-212330000D03*
X222000000Y-208730000D03*
X222000000Y-212330000D03*
X224000000Y-208730000D03*
X224000000Y-212330000D03*
X226000000Y-208730000D03*
X226000000Y-212330000D03*
X228000000Y-208730000D03*
X228000000Y-212330000D03*
X230000000Y-208730000D03*
X230000000Y-212330000D03*
X232000000Y-208730000D03*
X232000000Y-212330000D03*
X234000000Y-208730000D03*
X234000000Y-212330000D03*
X236000000Y-208730000D03*
X236000000Y-212330000D03*
X238000000Y-208730000D03*
X238000000Y-212330000D03*
X240000000Y-208730000D03*
X240000000Y-212330000D03*
X242000000Y-208730000D03*
X242000000Y-212330000D03*
%TO.N,/4S_B+*%
X293400000Y-137480000D03*
X293400000Y-141080000D03*
X295400000Y-137480000D03*
X295400000Y-141080000D03*
X297400000Y-137480000D03*
X297400000Y-141080000D03*
X299400000Y-137480000D03*
X299400000Y-141080000D03*
X301400000Y-137480000D03*
X301400000Y-141080000D03*
X303400000Y-137480000D03*
X303400000Y-141080000D03*
X305400000Y-137480000D03*
X305400000Y-141080000D03*
X307400000Y-137480000D03*
X307400000Y-141080000D03*
X309400000Y-137480000D03*
X309400000Y-141080000D03*
X311400000Y-137480000D03*
X311400000Y-141080000D03*
X313400000Y-137480000D03*
X313400000Y-141080000D03*
X315400000Y-137480000D03*
X315400000Y-141080000D03*
%TO.N,/4S_B-*%
X293400000Y-208730000D03*
X293400000Y-212330000D03*
X295400000Y-208730000D03*
X295400000Y-212330000D03*
X297400000Y-208730000D03*
X297400000Y-212330000D03*
X299400000Y-208730000D03*
X299400000Y-212330000D03*
X301400000Y-208730000D03*
X301400000Y-212330000D03*
X303400000Y-208730000D03*
X303400000Y-212330000D03*
X305400000Y-208730000D03*
X305400000Y-212330000D03*
X307400000Y-208730000D03*
X307400000Y-212330000D03*
X309400000Y-208730000D03*
X309400000Y-212330000D03*
X311400000Y-208730000D03*
X311400000Y-212330000D03*
X313400000Y-208730000D03*
X313400000Y-212330000D03*
X315400000Y-208730000D03*
X315400000Y-212330000D03*
%TO.N,Net-(BT6--)*%
X72180000Y-143500000D03*
X76580000Y-143500000D03*
X72180000Y-145500000D03*
X76580000Y-145500000D03*
X72180000Y-147500000D03*
X76580000Y-147500000D03*
X72180000Y-149500000D03*
X76580000Y-149500000D03*
X72180000Y-151500000D03*
X76580000Y-151500000D03*
X72180000Y-153500000D03*
X76580000Y-153500000D03*
X72180000Y-155500000D03*
X76580000Y-155500000D03*
X72180000Y-157500000D03*
X76580000Y-157500000D03*
X72180000Y-159000000D03*
X76580000Y-159000000D03*
X78500000Y-137280000D03*
X78500000Y-141280000D03*
X80500000Y-137280000D03*
X80500000Y-141280000D03*
X82500000Y-137280000D03*
X82500000Y-141280000D03*
X84500000Y-137280000D03*
X84500000Y-141280000D03*
X86500000Y-137280000D03*
X86500000Y-141280000D03*
X88500000Y-137280000D03*
X88500000Y-141280000D03*
X90500000Y-137280000D03*
X90500000Y-141280000D03*
X92500000Y-137280000D03*
X92500000Y-141280000D03*
X94500000Y-137280000D03*
X94500000Y-141280000D03*
X96500000Y-137280000D03*
X96500000Y-141280000D03*
X98500000Y-137280000D03*
X98500000Y-141280000D03*
X100500000Y-137280000D03*
X100500000Y-141280000D03*
X78500000Y-161030000D03*
X78500000Y-165030000D03*
X80500000Y-161030000D03*
X80500000Y-165030000D03*
X82500000Y-161030000D03*
X82500000Y-165030000D03*
X84500000Y-161030000D03*
X84500000Y-165030000D03*
X86500000Y-161030000D03*
X86500000Y-165030000D03*
X88500000Y-161030000D03*
X88500000Y-165030000D03*
X90500000Y-161030000D03*
X90500000Y-165030000D03*
X92500000Y-161030000D03*
X92500000Y-165030000D03*
X94500000Y-161030000D03*
X94500000Y-165030000D03*
X96500000Y-161030000D03*
X96500000Y-165030000D03*
X98500000Y-161030000D03*
X98500000Y-165030000D03*
X100500000Y-161030000D03*
X100500000Y-165030000D03*
%TO.N,Net-(BT6-+)*%
X151500000Y-137480000D03*
X151500000Y-141080000D03*
X153500000Y-137480000D03*
X153500000Y-141080000D03*
X155500000Y-137480000D03*
X155500000Y-141080000D03*
X157500000Y-137480000D03*
X157500000Y-141080000D03*
X159500000Y-137480000D03*
X159500000Y-141080000D03*
X161500000Y-137480000D03*
X161500000Y-141080000D03*
X163500000Y-137480000D03*
X163500000Y-141080000D03*
X165500000Y-137480000D03*
X165500000Y-141080000D03*
X167500000Y-137480000D03*
X167500000Y-141080000D03*
X169500000Y-137480000D03*
X169500000Y-141080000D03*
X171500000Y-137480000D03*
X171500000Y-141080000D03*
X173500000Y-137480000D03*
X173500000Y-141080000D03*
%TO.N,Net-(BT9--)*%
X151500000Y-208730000D03*
X151500000Y-212330000D03*
X153500000Y-208730000D03*
X153500000Y-212330000D03*
X155500000Y-208730000D03*
X155500000Y-212330000D03*
X157500000Y-208730000D03*
X157500000Y-212330000D03*
X159500000Y-208730000D03*
X159500000Y-212330000D03*
X161500000Y-208730000D03*
X161500000Y-212330000D03*
X163500000Y-208730000D03*
X163500000Y-212330000D03*
X165500000Y-208730000D03*
X165500000Y-212330000D03*
X167500000Y-208730000D03*
X167500000Y-212330000D03*
X169500000Y-208730000D03*
X169500000Y-212330000D03*
X171500000Y-208730000D03*
X171500000Y-212330000D03*
X173500000Y-208730000D03*
X173500000Y-212330000D03*
%TD*%
%TO.N,Net-(BT2--)*%
D14*
X216000000Y-163030000D02*
X246900000Y-163030000D01*
X216000000Y-135000000D02*
X216000000Y-167030000D01*
X216000000Y-139280000D02*
X246900000Y-139280000D01*
X246900000Y-136740000D02*
X246900000Y-141820000D01*
X246900000Y-160490000D02*
X246900000Y-165570000D01*
%TO.N,Net-(BT4--)*%
X216000000Y-186780000D02*
X246900000Y-186780000D01*
X216000000Y-182780000D02*
X216000000Y-214800000D01*
X246900000Y-184240000D02*
X246900000Y-189320000D01*
X246900000Y-207990000D02*
X246900000Y-213070000D01*
X216000000Y-210530000D02*
X246900000Y-210530000D01*
%TO.N,Net-(BT3--)*%
X289460000Y-184240000D02*
X289460000Y-189320000D01*
X289460000Y-160490000D02*
X289460000Y-165570000D01*
X289460000Y-186780000D02*
X320360000Y-186780000D01*
X320360000Y-159030000D02*
X320360000Y-190780000D01*
X289460000Y-163030000D02*
X320360000Y-163030000D01*
%TO.N,/4S_B+*%
X289460000Y-139280000D02*
X320360000Y-139280000D01*
X289460000Y-136740000D02*
X289460000Y-141820000D01*
X320360000Y-135280000D02*
X320360000Y-143280000D01*
%TO.N,/4S_B-*%
X289460000Y-210530000D02*
X320360000Y-210530000D01*
X289460000Y-207990000D02*
X289460000Y-213070000D01*
X320360000Y-206530000D02*
X320360000Y-214530000D01*
%TO.N,Net-(J1-Pin_1)*%
D15*
X145340000Y-82360000D02*
X249700000Y-82360000D01*
%TO.N,Net-(J21-Pin_1)*%
X169105000Y-92530000D02*
X227050000Y-92530000D01*
%TO.N,Net-(J23-Pin_1)*%
X183330000Y-100180000D02*
X219750000Y-100180000D01*
%TO.N,Net-(BT6-+)*%
D14*
X147840000Y-139280000D02*
X178740000Y-139280000D01*
X147840000Y-136740000D02*
X147840000Y-141820000D01*
%TO.N,Net-(BT6--)*%
X74380000Y-139280000D02*
X105280000Y-139280000D01*
X105280000Y-136740000D02*
X105280000Y-141820000D01*
X74380000Y-163030000D02*
X105280000Y-163030000D01*
X105280000Y-160490000D02*
X105280000Y-165570000D01*
X74380000Y-135280000D02*
X74380000Y-167030000D01*
D16*
X76380000Y-135280000D02*
X76380000Y-167030000D01*
%TO.N,Net-(BT7--)*%
D17*
X147840000Y-163030000D02*
X178740000Y-163030000D01*
X147840000Y-160490000D02*
X147840000Y-165570000D01*
X147840000Y-186780000D02*
X178740000Y-186780000D01*
X147840000Y-184240000D02*
X147840000Y-189320000D01*
X178740000Y-163030000D02*
X178740000Y-186780000D01*
%TO.N,Net-(BT8--)*%
D18*
X74380000Y-186780000D02*
X105280000Y-186780000D01*
D19*
X105280000Y-184240000D02*
X105280000Y-189320000D01*
D18*
X74380000Y-210530000D02*
X105280000Y-210530000D01*
D19*
X105280000Y-207990000D02*
X105280000Y-213070000D01*
D18*
X74380000Y-186780000D02*
X74380000Y-210530000D01*
%TO.N,Net-(BT9--)*%
D14*
X147840000Y-210530000D02*
X178740000Y-210530000D01*
X147840000Y-207990000D02*
X147840000Y-213070000D01*
%TD*%
M02*
