%TF.GenerationSoftware,KiCad,Pcbnew,10.0.5*%
%TF.CreationDate,2026-09-18T08:27:19+05:30*%
%TF.ProjectId,ACIR-Learning-Kit-2-PCB,41434952-2d4c-4656-9172-6e696e672d4b,v2.0*%
%TF.SameCoordinates,Original*%
%TF.FileFunction,Other,User*%
%FSLAX46Y46*%
G04 Gerber Fmt 4.6, Leading zero omitted, Abs format (unit mm)*
G04 Created by KiCad (PCBNEW 10.0.5) date 2026-09-18 08:27:19*
%MOMM*%
%LPD*%
G01*
G04 APERTURE LIST*
%ADD10C,0.050000*%
%ADD11C,0.100000*%
G04 APERTURE END LIST*
%TO.C,P4*%
D10*
X230900000Y-90000000D02*
G75*
G02*
X227900000Y-90000000I-1500000J0D01*
G01*
X227900000Y-90000000D02*
G75*
G02*
X230900000Y-90000000I1500000J0D01*
G01*
%TO.C,J7*%
X217500000Y-139280000D02*
G75*
G02*
X214500000Y-139280000I-1500000J0D01*
G01*
X214500000Y-139280000D02*
G75*
G02*
X217500000Y-139280000I1500000J0D01*
G01*
%TO.C,J17*%
X75880000Y-210530000D02*
G75*
G02*
X72880000Y-210530000I-1500000J0D01*
G01*
X72880000Y-210530000D02*
G75*
G02*
X75880000Y-210530000I1500000J0D01*
G01*
%TO.C,BT8*%
D11*
X82045000Y-175455000D02*
X171075000Y-175455000D01*
X82045000Y-198105000D02*
X82045000Y-175455000D01*
X171075000Y-175455000D02*
X171075000Y-198105000D01*
X171075000Y-198105000D02*
X82045000Y-198105000D01*
%TO.C,H5*%
D10*
X200850000Y-244900000D02*
G75*
G02*
X193950000Y-244900000I-3450000J0D01*
G01*
X193950000Y-244900000D02*
G75*
G02*
X200850000Y-244900000I3450000J0D01*
G01*
%TO.C,J14*%
X180240000Y-186780000D02*
G75*
G02*
X177240000Y-186780000I-1500000J0D01*
G01*
X177240000Y-186780000D02*
G75*
G02*
X180240000Y-186780000I1500000J0D01*
G01*
%TO.C,J9*%
X217500000Y-186780000D02*
G75*
G02*
X214500000Y-186780000I-1500000J0D01*
G01*
X214500000Y-186780000D02*
G75*
G02*
X217500000Y-186780000I1500000J0D01*
G01*
%TO.C,J19*%
X321860000Y-186780000D02*
G75*
G02*
X318860000Y-186780000I-1500000J0D01*
G01*
X318860000Y-186780000D02*
G75*
G02*
X321860000Y-186780000I1500000J0D01*
G01*
%TO.C,H6*%
X200850000Y-44900000D02*
G75*
G02*
X193950000Y-44900000I-3450000J0D01*
G01*
X193950000Y-44900000D02*
G75*
G02*
X200850000Y-44900000I3450000J0D01*
G01*
%TO.C,J13*%
X75880000Y-163030000D02*
G75*
G02*
X72880000Y-163030000I-1500000J0D01*
G01*
X72880000Y-163030000D02*
G75*
G02*
X75880000Y-163030000I1500000J0D01*
G01*
%TO.C,BT4*%
D11*
X223665000Y-175455000D02*
X312695000Y-175455000D01*
X223665000Y-198105000D02*
X223665000Y-175455000D01*
X312695000Y-175455000D02*
X312695000Y-198105000D01*
X312695000Y-198105000D02*
X223665000Y-198105000D01*
%TO.C,BT7*%
X82045000Y-151705000D02*
X171075000Y-151705000D01*
X82045000Y-174355000D02*
X82045000Y-151705000D01*
X171075000Y-151705000D02*
X171075000Y-174355000D01*
X171075000Y-174355000D02*
X82045000Y-174355000D01*
%TO.C,H8*%
D10*
X57350000Y-144900000D02*
G75*
G02*
X50450000Y-144900000I-3450000J0D01*
G01*
X50450000Y-144900000D02*
G75*
G02*
X57350000Y-144900000I3450000J0D01*
G01*
%TO.C,P6*%
X214900000Y-99000000D02*
G75*
G02*
X211900000Y-99000000I-1500000J0D01*
G01*
X211900000Y-99000000D02*
G75*
G02*
X214900000Y-99000000I1500000J0D01*
G01*
%TO.C,J18*%
X217500000Y-163030000D02*
G75*
G02*
X214500000Y-163030000I-1500000J0D01*
G01*
X214500000Y-163030000D02*
G75*
G02*
X217500000Y-163030000I1500000J0D01*
G01*
%TO.C,J3*%
X321860000Y-139280000D02*
G75*
G02*
X318860000Y-139280000I-1500000J0D01*
G01*
X318860000Y-139280000D02*
G75*
G02*
X321860000Y-139280000I1500000J0D01*
G01*
%TO.C,P2*%
X250900000Y-81000000D02*
G75*
G02*
X247900000Y-81000000I-1500000J0D01*
G01*
X247900000Y-81000000D02*
G75*
G02*
X250900000Y-81000000I1500000J0D01*
G01*
%TO.C,P3*%
X166900000Y-90000000D02*
G75*
G02*
X163900000Y-90000000I-1500000J0D01*
G01*
X163900000Y-90000000D02*
G75*
G02*
X166900000Y-90000000I1500000J0D01*
G01*
%TO.C,BT9*%
D11*
X82045000Y-199205000D02*
X171075000Y-199205000D01*
X82045000Y-221855000D02*
X82045000Y-199205000D01*
X171075000Y-199205000D02*
X171075000Y-221855000D01*
X171075000Y-221855000D02*
X82045000Y-221855000D01*
%TO.C,J16*%
D10*
X180240000Y-210530000D02*
G75*
G02*
X177240000Y-210530000I-1500000J0D01*
G01*
X177240000Y-210530000D02*
G75*
G02*
X180240000Y-210530000I1500000J0D01*
G01*
%TO.C,BT2*%
D11*
X223665000Y-127955000D02*
X312695000Y-127955000D01*
X223665000Y-150605000D02*
X223665000Y-127955000D01*
X312695000Y-127955000D02*
X312695000Y-150605000D01*
X312695000Y-150605000D02*
X223665000Y-150605000D01*
%TO.C,J15*%
D10*
X75880000Y-186780000D02*
G75*
G02*
X72880000Y-186780000I-1500000J0D01*
G01*
X72880000Y-186780000D02*
G75*
G02*
X75880000Y-186780000I1500000J0D01*
G01*
%TO.C,H7*%
X344350000Y-144900000D02*
G75*
G02*
X337450000Y-144900000I-3450000J0D01*
G01*
X337450000Y-144900000D02*
G75*
G02*
X344350000Y-144900000I3450000J0D01*
G01*
%TO.C,BT5*%
D11*
X223665000Y-199205000D02*
X312695000Y-199205000D01*
X223665000Y-221855000D02*
X223665000Y-199205000D01*
X312695000Y-199205000D02*
X312695000Y-221855000D01*
X312695000Y-221855000D02*
X223665000Y-221855000D01*
%TO.C,H2*%
D10*
X344350000Y-44900000D02*
G75*
G02*
X337450000Y-44900000I-3450000J0D01*
G01*
X337450000Y-44900000D02*
G75*
G02*
X344350000Y-44900000I3450000J0D01*
G01*
%TO.C,P1*%
X146900000Y-81000000D02*
G75*
G02*
X143900000Y-81000000I-1500000J0D01*
G01*
X143900000Y-81000000D02*
G75*
G02*
X146900000Y-81000000I1500000J0D01*
G01*
%TO.C,BT3*%
D11*
X223665000Y-151705000D02*
X312695000Y-151705000D01*
X223665000Y-174355000D02*
X223665000Y-151705000D01*
X312695000Y-151705000D02*
X312695000Y-174355000D01*
X312695000Y-174355000D02*
X223665000Y-174355000D01*
%TO.C,J8*%
D10*
X321860000Y-163030000D02*
G75*
G02*
X318860000Y-163030000I-1500000J0D01*
G01*
X318860000Y-163030000D02*
G75*
G02*
X321860000Y-163030000I1500000J0D01*
G01*
%TO.C,H1*%
X57350000Y-44900000D02*
G75*
G02*
X50450000Y-44900000I-3450000J0D01*
G01*
X50450000Y-44900000D02*
G75*
G02*
X57350000Y-44900000I3450000J0D01*
G01*
%TO.C,J20*%
X217500000Y-210530000D02*
G75*
G02*
X214500000Y-210530000I-1500000J0D01*
G01*
X214500000Y-210530000D02*
G75*
G02*
X217500000Y-210530000I1500000J0D01*
G01*
%TO.C,BT6*%
D11*
X82045000Y-127955000D02*
X171075000Y-127955000D01*
X82045000Y-150605000D02*
X82045000Y-127955000D01*
X171075000Y-127955000D02*
X171075000Y-150605000D01*
X171075000Y-150605000D02*
X82045000Y-150605000D01*
%TO.C,J10*%
D10*
X180240000Y-139280000D02*
G75*
G02*
X177240000Y-139280000I-1500000J0D01*
G01*
X177240000Y-139280000D02*
G75*
G02*
X180240000Y-139280000I1500000J0D01*
G01*
%TO.C,H4*%
X57350000Y-244900000D02*
G75*
G02*
X50450000Y-244900000I-3450000J0D01*
G01*
X50450000Y-244900000D02*
G75*
G02*
X57350000Y-244900000I3450000J0D01*
G01*
%TO.C,J12*%
X180240000Y-163030000D02*
G75*
G02*
X177240000Y-163030000I-1500000J0D01*
G01*
X177240000Y-163030000D02*
G75*
G02*
X180240000Y-163030000I1500000J0D01*
G01*
%TO.C,H3*%
X344350000Y-244900000D02*
G75*
G02*
X337450000Y-244900000I-3450000J0D01*
G01*
X337450000Y-244900000D02*
G75*
G02*
X344350000Y-244900000I3450000J0D01*
G01*
%TO.C,J11*%
X75880000Y-139280000D02*
G75*
G02*
X72880000Y-139280000I-1500000J0D01*
G01*
X72880000Y-139280000D02*
G75*
G02*
X75880000Y-139280000I1500000J0D01*
G01*
%TO.C,J4*%
X321860000Y-210530000D02*
G75*
G02*
X318860000Y-210530000I-1500000J0D01*
G01*
X318860000Y-210530000D02*
G75*
G02*
X321860000Y-210530000I1500000J0D01*
G01*
%TO.C,P5*%
X182900000Y-99000000D02*
G75*
G02*
X179900000Y-99000000I-1500000J0D01*
G01*
X179900000Y-99000000D02*
G75*
G02*
X182900000Y-99000000I1500000J0D01*
G01*
%TD*%
M02*
