%TF.GenerationSoftware,KiCad,Pcbnew,10.0.5*%
%TF.CreationDate,2026-09-17T12:02:23+05:30*%
%TF.ProjectId,ACIR-Learning-Kit-2-PCB,41434952-2d4c-4656-9172-6e696e672d4b,v2.0*%
%TF.SameCoordinates,Original*%
%TF.FileFunction,Copper,L2,Bot*%
%TF.FilePolarity,Positive*%
%FSLAX46Y46*%
G04 Gerber Fmt 4.6, Leading zero omitted, Abs format (unit mm)*
G04 Created by KiCad (PCBNEW 10.0.5) date 2026-09-17 12:02:23*
%MOMM*%
%LPD*%
G01*
G04 APERTURE LIST*
%TA.AperFunction,ComponentPad*%
%ADD10C,2.800000*%
%TD*%
%TA.AperFunction,ComponentPad*%
%ADD11O,4.500000X3.200000*%
%TD*%
%TA.AperFunction,ComponentPad*%
%ADD12C,3.500000*%
%TD*%
%TA.AperFunction,ViaPad*%
%ADD13C,0.800000*%
%TD*%
%TA.AperFunction,Conductor*%
%ADD14C,8.000000*%
%TD*%
%TA.AperFunction,Conductor*%
%ADD15C,6.000000*%
%TD*%
%TA.AperFunction,Conductor*%
%ADD16C,4.000000*%
%TD*%
G04 APERTURE END LIST*
D10*
%TO.P,BT8,1,+_1*%
%TO.N,Net-(BT7--)*%
X147840000Y-184240000D03*
X147840000Y-189320000D03*
D11*
X154910000Y-186780000D03*
D12*
X162670000Y-186780000D03*
%TO.P,BT8,2,-_2*%
%TO.N,Net-(BT8--)*%
X90450000Y-186780000D03*
D11*
X98210000Y-186780000D03*
D10*
X105280000Y-184240000D03*
X105280000Y-189320000D03*
%TD*%
%TO.P,BT4,1,+_1*%
%TO.N,Net-(BT3--)*%
X289460000Y-184240000D03*
X289460000Y-189320000D03*
D11*
X296530000Y-186780000D03*
D12*
X304290000Y-186780000D03*
%TO.P,BT4,2,-_2*%
%TO.N,Net-(BT4--)*%
X232070000Y-186780000D03*
D11*
X239830000Y-186780000D03*
D10*
X246900000Y-184240000D03*
X246900000Y-189320000D03*
%TD*%
%TO.P,BT7,1,+_1*%
%TO.N,Net-(BT6--)*%
X105280000Y-165570000D03*
X105280000Y-160490000D03*
D11*
X98210000Y-163030000D03*
D12*
X90450000Y-163030000D03*
%TO.P,BT7,2,-_2*%
%TO.N,Net-(BT7--)*%
X162670000Y-163030000D03*
D11*
X154910000Y-163030000D03*
D10*
X147840000Y-165570000D03*
X147840000Y-160490000D03*
%TD*%
%TO.P,BT9,1,+_1*%
%TO.N,Net-(BT8--)*%
X105280000Y-213070000D03*
X105280000Y-207990000D03*
D11*
X98210000Y-210530000D03*
D12*
X90450000Y-210530000D03*
%TO.P,BT9,2,-_2*%
%TO.N,Net-(BT9--)*%
X162670000Y-210530000D03*
D11*
X154910000Y-210530000D03*
D10*
X147840000Y-213070000D03*
X147840000Y-207990000D03*
%TD*%
%TO.P,BT2,1,+_1*%
%TO.N,/4S_B+*%
X289460000Y-136740000D03*
X289460000Y-141820000D03*
D11*
X296530000Y-139280000D03*
D12*
X304290000Y-139280000D03*
%TO.P,BT2,2,-_2*%
%TO.N,Net-(BT2--)*%
X232070000Y-139280000D03*
D11*
X239830000Y-139280000D03*
D10*
X246900000Y-136740000D03*
X246900000Y-141820000D03*
%TD*%
%TO.P,BT5,1,+_1*%
%TO.N,Net-(BT4--)*%
X246900000Y-213070000D03*
X246900000Y-207990000D03*
D11*
X239830000Y-210530000D03*
D12*
X232070000Y-210530000D03*
%TO.P,BT5,2,-_2*%
%TO.N,/4S_B-*%
X304290000Y-210530000D03*
D11*
X296530000Y-210530000D03*
D10*
X289460000Y-213070000D03*
X289460000Y-207990000D03*
%TD*%
%TO.P,BT3,1,+_1*%
%TO.N,Net-(BT2--)*%
X246900000Y-165570000D03*
X246900000Y-160490000D03*
D11*
X239830000Y-163030000D03*
D12*
X232070000Y-163030000D03*
%TO.P,BT3,2,-_2*%
%TO.N,Net-(BT3--)*%
X304290000Y-163030000D03*
D11*
X296530000Y-163030000D03*
D10*
X289460000Y-165570000D03*
X289460000Y-160490000D03*
%TD*%
%TO.P,BT6,1,+_1*%
%TO.N,Net-(BT6-+)*%
X147840000Y-136740000D03*
X147840000Y-141820000D03*
D11*
X154910000Y-139280000D03*
D12*
X162670000Y-139280000D03*
%TO.P,BT6,2,-_2*%
%TO.N,Net-(BT6--)*%
X90450000Y-139280000D03*
D11*
X98210000Y-139280000D03*
D10*
X105280000Y-136740000D03*
X105280000Y-141820000D03*
%TD*%
D13*
%TO.N,Net-(BT2--)*%
X222787500Y-142030000D03*
X217650000Y-157797600D03*
X215450000Y-155331200D03*
X237637500Y-165780000D03*
X232687500Y-164680000D03*
X218750000Y-145465600D03*
X241350000Y-161380000D03*
X245062500Y-140930000D03*
X218750000Y-159030800D03*
X230212500Y-160280000D03*
X242587500Y-138730000D03*
X213250000Y-159030800D03*
X215450000Y-149165200D03*
X243825000Y-142030000D03*
X235162500Y-160280000D03*
X235162500Y-142030000D03*
X246300000Y-163580000D03*
X213250000Y-165196800D03*
X232687500Y-140930000D03*
X236400000Y-138730000D03*
X231450000Y-136530000D03*
X218750000Y-156564400D03*
X237637500Y-164680000D03*
X225262500Y-164680000D03*
X242587500Y-165780000D03*
X220312500Y-138730000D03*
X245062500Y-160280000D03*
X215450000Y-157797600D03*
X226500000Y-164680000D03*
X216550000Y-152864800D03*
X235162500Y-164680000D03*
X245062500Y-163580000D03*
X228975000Y-136530000D03*
X227737500Y-139830000D03*
X221550000Y-161380000D03*
X225262500Y-142030000D03*
X225262500Y-137630000D03*
X216550000Y-156564400D03*
X236400000Y-140930000D03*
X217650000Y-152864800D03*
X215450000Y-135600000D03*
X227737500Y-163580000D03*
X220312500Y-163580000D03*
X236400000Y-161380000D03*
X214350000Y-145465600D03*
X216550000Y-142999200D03*
X225262500Y-140930000D03*
X237637500Y-137630000D03*
X214350000Y-160264000D03*
X220312500Y-164680000D03*
X242587500Y-162480000D03*
X219075000Y-137630000D03*
X213250000Y-144232400D03*
X242587500Y-163580000D03*
X228975000Y-164680000D03*
X235162500Y-137630000D03*
X236400000Y-136530000D03*
X236400000Y-137630000D03*
X236400000Y-163580000D03*
X224025000Y-142030000D03*
X245062500Y-142030000D03*
X215450000Y-151631600D03*
X236400000Y-164680000D03*
X238875000Y-165780000D03*
X237637500Y-160280000D03*
X218750000Y-146698800D03*
X238875000Y-136530000D03*
X216550000Y-135600000D03*
X243825000Y-137630000D03*
X215450000Y-145465600D03*
X231450000Y-142030000D03*
X226500000Y-139830000D03*
X220312500Y-161380000D03*
X222787500Y-163580000D03*
X218750000Y-142999200D03*
X213250000Y-141766000D03*
X243825000Y-163580000D03*
X241350000Y-140930000D03*
X219075000Y-164680000D03*
X222787500Y-161380000D03*
X217650000Y-151631600D03*
X224025000Y-165780000D03*
X243825000Y-138730000D03*
X216000000Y-139280000D03*
X221550000Y-160280000D03*
X217650000Y-142999200D03*
X225262500Y-139830000D03*
X236400000Y-160280000D03*
X217650000Y-156564400D03*
X213250000Y-135600000D03*
X243825000Y-162480000D03*
X233925000Y-138730000D03*
X222787500Y-164680000D03*
X218750000Y-157797600D03*
X214350000Y-147932000D03*
X225262500Y-161380000D03*
X227737500Y-161380000D03*
X217837500Y-160280000D03*
X238875000Y-160280000D03*
X226500000Y-165780000D03*
X226500000Y-161380000D03*
X224025000Y-140930000D03*
X245062500Y-138730000D03*
X217650000Y-149165200D03*
X216550000Y-145465600D03*
X217650000Y-135600000D03*
X218750000Y-151631600D03*
X233925000Y-164680000D03*
X221550000Y-138730000D03*
X215450000Y-159030800D03*
X216550000Y-159030800D03*
X242587500Y-136530000D03*
X231450000Y-165780000D03*
X243825000Y-164680000D03*
X228975000Y-162480000D03*
X235162500Y-140930000D03*
X232687500Y-137630000D03*
X236400000Y-139830000D03*
X221550000Y-139830000D03*
X242587500Y-140930000D03*
X225262500Y-138730000D03*
X228975000Y-139830000D03*
X222787500Y-165780000D03*
X224025000Y-138730000D03*
X215450000Y-150398400D03*
X230212500Y-136530000D03*
X219075000Y-160280000D03*
X246300000Y-162480000D03*
X235162500Y-138730000D03*
X215450000Y-146698800D03*
X220312500Y-136530000D03*
X216550000Y-157797600D03*
X230212500Y-164680000D03*
X227737500Y-165780000D03*
X213250000Y-149165200D03*
X217650000Y-154098000D03*
X224025000Y-161380000D03*
X213250000Y-145465600D03*
X217650000Y-159030800D03*
X216000000Y-163030000D03*
X221550000Y-165780000D03*
X219075000Y-140930000D03*
X226500000Y-136530000D03*
X237637500Y-138730000D03*
X237637500Y-161380000D03*
X233925000Y-165780000D03*
X213250000Y-157797600D03*
X216550000Y-144232400D03*
X218750000Y-150398400D03*
X227737500Y-142030000D03*
X225262500Y-162480000D03*
X215450000Y-154098000D03*
X213250000Y-155331200D03*
X218750000Y-135600000D03*
X231450000Y-137630000D03*
X245062500Y-139830000D03*
X233925000Y-160280000D03*
X218750000Y-144232400D03*
X233925000Y-162480000D03*
X236400000Y-162480000D03*
X214350000Y-157797600D03*
X213250000Y-151631600D03*
X227737500Y-162480000D03*
X235162500Y-162480000D03*
X215450000Y-144232400D03*
X237637500Y-136530000D03*
X241350000Y-136530000D03*
X232687500Y-142030000D03*
X222787500Y-160280000D03*
X233925000Y-136530000D03*
X237637500Y-163580000D03*
X214350000Y-156564400D03*
X220312500Y-140930000D03*
X217650000Y-150398400D03*
X224025000Y-136530000D03*
X242587500Y-160280000D03*
X217837500Y-136530000D03*
X224025000Y-164680000D03*
X213250000Y-136833200D03*
X243825000Y-160280000D03*
X243825000Y-139830000D03*
X241350000Y-164680000D03*
X246300000Y-138730000D03*
X221550000Y-164680000D03*
X214350000Y-166430000D03*
X222787500Y-139830000D03*
X218750000Y-154098000D03*
X217650000Y-155331200D03*
X245062500Y-162480000D03*
X230212500Y-139830000D03*
X221550000Y-142030000D03*
X222787500Y-138730000D03*
X218750000Y-152864800D03*
X235162500Y-139830000D03*
X219075000Y-165780000D03*
X214350000Y-152864800D03*
X232687500Y-160280000D03*
X243825000Y-136530000D03*
X217837500Y-142030000D03*
X231450000Y-164680000D03*
X227737500Y-140930000D03*
X240112500Y-142030000D03*
X214350000Y-151631600D03*
X220312500Y-160280000D03*
X213250000Y-154098000D03*
X226500000Y-137630000D03*
X231450000Y-140930000D03*
X217837500Y-165780000D03*
X230212500Y-162480000D03*
X214350000Y-154098000D03*
X213250000Y-146698800D03*
X230212500Y-137630000D03*
X216550000Y-150398400D03*
X242587500Y-139830000D03*
X238875000Y-142030000D03*
X213250000Y-160264000D03*
X245062500Y-137630000D03*
X231450000Y-161380000D03*
X240112500Y-136530000D03*
X241350000Y-137630000D03*
X236400000Y-142030000D03*
X235162500Y-165780000D03*
X219075000Y-136530000D03*
X233925000Y-137630000D03*
X217650000Y-145465600D03*
X214350000Y-155331200D03*
X219075000Y-142030000D03*
X240112500Y-160280000D03*
X213250000Y-166430000D03*
X226500000Y-138730000D03*
X221550000Y-162480000D03*
X224025000Y-163580000D03*
X230212500Y-163580000D03*
X214350000Y-159030800D03*
X217650000Y-146698800D03*
X220312500Y-165780000D03*
X216550000Y-149165200D03*
X226500000Y-163580000D03*
X214350000Y-142999200D03*
X228975000Y-140930000D03*
X230212500Y-161380000D03*
X214350000Y-150398400D03*
X245062500Y-161380000D03*
X233925000Y-161380000D03*
X228975000Y-142030000D03*
X243825000Y-165780000D03*
X220312500Y-137630000D03*
X242587500Y-161380000D03*
X217650000Y-144232400D03*
X216550000Y-155331200D03*
X237637500Y-140930000D03*
X213250000Y-147932000D03*
X218750000Y-149165200D03*
X218750000Y-155331200D03*
X246300000Y-139830000D03*
X217650000Y-147932000D03*
X242587500Y-142030000D03*
X232687500Y-165780000D03*
X221550000Y-136530000D03*
X224025000Y-139830000D03*
X216550000Y-151631600D03*
X214350000Y-149165200D03*
X213250000Y-150398400D03*
X237637500Y-142030000D03*
X228975000Y-160280000D03*
X221550000Y-137630000D03*
X224025000Y-162480000D03*
X230212500Y-140930000D03*
X224025000Y-137630000D03*
X215450000Y-152864800D03*
X225262500Y-163580000D03*
X225262500Y-160280000D03*
X222787500Y-140930000D03*
X245062500Y-136530000D03*
X219075000Y-161380000D03*
X225262500Y-136530000D03*
X225262500Y-165780000D03*
X230212500Y-142030000D03*
X230212500Y-138730000D03*
X228975000Y-165780000D03*
X221550000Y-140930000D03*
X233925000Y-163580000D03*
X243825000Y-140930000D03*
X216550000Y-146698800D03*
X216550000Y-166430000D03*
X243825000Y-161380000D03*
X230212500Y-165780000D03*
X228975000Y-163580000D03*
X233925000Y-139830000D03*
X240112500Y-165780000D03*
X235162500Y-136530000D03*
X241350000Y-142030000D03*
X214350000Y-146698800D03*
X241350000Y-160280000D03*
X215450000Y-166430000D03*
X245062500Y-165780000D03*
X227737500Y-164680000D03*
X237637500Y-162480000D03*
X215450000Y-142999200D03*
X241350000Y-165780000D03*
X216550000Y-154098000D03*
X213250000Y-156564400D03*
X235162500Y-161380000D03*
X227737500Y-136530000D03*
X242587500Y-137630000D03*
X227737500Y-137630000D03*
X227737500Y-160280000D03*
X224025000Y-160280000D03*
X227737500Y-138730000D03*
X236400000Y-165780000D03*
X242587500Y-164680000D03*
X228975000Y-161380000D03*
X218750000Y-147932000D03*
X221550000Y-163580000D03*
X233925000Y-140930000D03*
X237637500Y-139830000D03*
X226500000Y-160280000D03*
X232687500Y-136530000D03*
X235162500Y-163580000D03*
X222787500Y-162480000D03*
X233925000Y-142030000D03*
X228975000Y-137630000D03*
X222787500Y-136530000D03*
X226500000Y-142030000D03*
X222787500Y-137630000D03*
X220312500Y-139830000D03*
X214350000Y-135600000D03*
X232687500Y-161380000D03*
X220312500Y-162480000D03*
X213250000Y-142999200D03*
X216550000Y-147932000D03*
X213250000Y-152864800D03*
X245062500Y-164680000D03*
X220312500Y-142030000D03*
X215450000Y-156564400D03*
X226500000Y-162480000D03*
X215450000Y-147932000D03*
X226500000Y-140930000D03*
X231450000Y-160280000D03*
X228975000Y-138730000D03*
X214350000Y-144232400D03*
%TO.N,Net-(BT4--)*%
X221550000Y-189530000D03*
X231450000Y-185130000D03*
X214350000Y-198173600D03*
X213250000Y-203104800D03*
X236400000Y-187330000D03*
X230212500Y-186230000D03*
X230212500Y-213280000D03*
X235162500Y-207780000D03*
X241350000Y-189530000D03*
X236400000Y-186230000D03*
X232687500Y-185130000D03*
X231450000Y-184030000D03*
X238875000Y-184030000D03*
X226500000Y-213280000D03*
X227737500Y-211080000D03*
X231450000Y-212180000D03*
X217837500Y-207780000D03*
X221550000Y-184030000D03*
X217650000Y-200639200D03*
X238875000Y-213280000D03*
X213250000Y-199406400D03*
X213250000Y-184612800D03*
X217650000Y-199406400D03*
X228975000Y-185130000D03*
X224025000Y-211080000D03*
X237637500Y-189530000D03*
X235162500Y-188430000D03*
X218750000Y-190776800D03*
X226500000Y-185130000D03*
X213250000Y-194475200D03*
X230212500Y-188430000D03*
X225262500Y-185130000D03*
X233925000Y-186230000D03*
X216550000Y-193242400D03*
X215450000Y-214200000D03*
X216550000Y-194475200D03*
X215450000Y-198173600D03*
X227737500Y-209980000D03*
X220312500Y-188430000D03*
X245062500Y-208880000D03*
X236400000Y-209980000D03*
X216550000Y-205570400D03*
X216550000Y-183380000D03*
X222787500Y-187330000D03*
X224025000Y-213280000D03*
X236400000Y-188430000D03*
X221550000Y-207780000D03*
X227737500Y-187330000D03*
X218750000Y-192009600D03*
X214350000Y-206803200D03*
X220312500Y-186230000D03*
X218750000Y-204337600D03*
X233925000Y-209980000D03*
X230212500Y-208880000D03*
X235162500Y-185130000D03*
X216550000Y-192009600D03*
X213250000Y-200639200D03*
X227737500Y-185130000D03*
X224025000Y-212180000D03*
X213250000Y-190776800D03*
X232687500Y-212180000D03*
X217837500Y-189530000D03*
X217837500Y-184030000D03*
X232687500Y-184030000D03*
X225262500Y-213280000D03*
X246300000Y-211080000D03*
X216550000Y-196940800D03*
X237637500Y-212180000D03*
X235162500Y-187330000D03*
X225262500Y-211080000D03*
X222787500Y-212180000D03*
X246300000Y-209980000D03*
X226500000Y-208880000D03*
X233925000Y-208880000D03*
X237637500Y-211080000D03*
X233925000Y-188430000D03*
X242587500Y-212180000D03*
X235162500Y-189530000D03*
X217650000Y-205570400D03*
X215450000Y-205570400D03*
X221550000Y-211080000D03*
X228975000Y-188430000D03*
X218750000Y-193242400D03*
X235162500Y-208880000D03*
X235162500Y-209980000D03*
X227737500Y-207780000D03*
X222787500Y-185130000D03*
X233925000Y-189530000D03*
X213250000Y-195708000D03*
X219075000Y-188430000D03*
X214350000Y-194475200D03*
X245062500Y-211080000D03*
X243825000Y-185130000D03*
X231450000Y-188430000D03*
X235162500Y-213280000D03*
X228975000Y-186230000D03*
X213250000Y-204337600D03*
X218750000Y-196940800D03*
X232687500Y-213280000D03*
X216550000Y-204337600D03*
X240112500Y-184030000D03*
X228975000Y-209980000D03*
X216550000Y-203104800D03*
X215450000Y-204337600D03*
X224025000Y-209980000D03*
X216000000Y-210530000D03*
X243825000Y-188430000D03*
X221550000Y-186230000D03*
X245062500Y-207780000D03*
X214350000Y-200639200D03*
X218750000Y-195708000D03*
X214350000Y-199406400D03*
X213250000Y-198173600D03*
X215450000Y-203104800D03*
X245062500Y-184030000D03*
X242587500Y-187330000D03*
X227737500Y-212180000D03*
X214350000Y-190776800D03*
X240112500Y-189530000D03*
X240112500Y-207780000D03*
X220312500Y-189530000D03*
X230212500Y-185130000D03*
X235162500Y-211080000D03*
X245062500Y-212180000D03*
X242587500Y-213280000D03*
X213250000Y-183380000D03*
X220312500Y-212180000D03*
X243825000Y-209980000D03*
X226500000Y-186230000D03*
X226500000Y-211080000D03*
X245062500Y-188430000D03*
X241350000Y-188430000D03*
X219075000Y-185130000D03*
X236400000Y-212180000D03*
X217650000Y-204337600D03*
X221550000Y-212180000D03*
X238875000Y-207780000D03*
X218750000Y-206803200D03*
X220312500Y-209980000D03*
X213250000Y-208036000D03*
X242587500Y-211080000D03*
X224025000Y-208880000D03*
X215450000Y-200639200D03*
X225262500Y-187330000D03*
X213250000Y-193242400D03*
X231450000Y-189530000D03*
X227737500Y-188430000D03*
X231450000Y-213280000D03*
X232687500Y-207780000D03*
X215450000Y-193242400D03*
X225262500Y-188430000D03*
X216550000Y-206803200D03*
X213250000Y-214200000D03*
X233925000Y-187330000D03*
X217650000Y-196940800D03*
X243825000Y-184030000D03*
X225262500Y-186230000D03*
X222787500Y-213280000D03*
X215450000Y-206803200D03*
X233925000Y-207780000D03*
X224025000Y-187330000D03*
X219075000Y-212180000D03*
X236400000Y-184030000D03*
X232687500Y-189530000D03*
X216550000Y-190776800D03*
X214350000Y-203104800D03*
X214350000Y-195708000D03*
X228975000Y-211080000D03*
X237637500Y-184030000D03*
X217650000Y-190776800D03*
X237637500Y-213280000D03*
X235162500Y-212180000D03*
X224025000Y-189530000D03*
X225262500Y-208880000D03*
X221550000Y-188430000D03*
X243825000Y-207780000D03*
X235162500Y-186230000D03*
X236400000Y-207780000D03*
X218750000Y-199406400D03*
X242587500Y-189530000D03*
X214350000Y-183380000D03*
X225262500Y-209980000D03*
X226500000Y-184030000D03*
X243825000Y-213280000D03*
X243825000Y-211080000D03*
X219075000Y-207780000D03*
X226500000Y-187330000D03*
X242587500Y-209980000D03*
X213250000Y-212967200D03*
X242587500Y-188430000D03*
X237637500Y-188430000D03*
X218750000Y-200639200D03*
X215450000Y-195708000D03*
X215450000Y-183380000D03*
X220312500Y-207780000D03*
X230212500Y-189530000D03*
X245062500Y-185130000D03*
X241350000Y-185130000D03*
X246300000Y-186230000D03*
X226500000Y-189530000D03*
X214350000Y-205570400D03*
X237637500Y-187330000D03*
X242587500Y-207780000D03*
X227737500Y-184030000D03*
X222787500Y-188430000D03*
X226500000Y-207780000D03*
X213250000Y-189544000D03*
X242587500Y-184030000D03*
X245062500Y-189530000D03*
X236400000Y-213280000D03*
X236400000Y-211080000D03*
X214350000Y-192009600D03*
X218750000Y-203104800D03*
X221550000Y-213280000D03*
X220312500Y-184030000D03*
X217650000Y-194475200D03*
X222787500Y-209980000D03*
X217837500Y-213280000D03*
X243825000Y-186230000D03*
X233925000Y-212180000D03*
X245062500Y-213280000D03*
X230212500Y-187330000D03*
X228975000Y-207780000D03*
X226500000Y-212180000D03*
X222787500Y-208880000D03*
X214350000Y-204337600D03*
X225262500Y-184030000D03*
X220312500Y-208880000D03*
X242587500Y-186230000D03*
X235162500Y-184030000D03*
X218750000Y-214200000D03*
X245062500Y-186230000D03*
X213250000Y-206803200D03*
X228975000Y-189530000D03*
X227737500Y-186230000D03*
X222787500Y-211080000D03*
X238875000Y-189530000D03*
X226500000Y-209980000D03*
X237637500Y-207780000D03*
X213250000Y-201872000D03*
X216550000Y-214200000D03*
X230212500Y-209980000D03*
X242587500Y-185130000D03*
X233925000Y-184030000D03*
X217650000Y-214200000D03*
X231450000Y-207780000D03*
X215450000Y-190776800D03*
X225262500Y-212180000D03*
X214350000Y-189544000D03*
X222787500Y-186230000D03*
X224025000Y-186230000D03*
X222787500Y-189530000D03*
X237637500Y-186230000D03*
X215450000Y-192009600D03*
X241350000Y-212180000D03*
X242587500Y-208880000D03*
X230212500Y-184030000D03*
X236400000Y-185130000D03*
X245062500Y-187330000D03*
X220312500Y-187330000D03*
X214350000Y-214200000D03*
X217650000Y-201872000D03*
X215450000Y-199406400D03*
X243825000Y-189530000D03*
X230212500Y-211080000D03*
X216550000Y-198173600D03*
X215450000Y-201872000D03*
X215450000Y-196940800D03*
X241350000Y-184030000D03*
X213250000Y-192009600D03*
X237637500Y-209980000D03*
X227737500Y-189530000D03*
X216550000Y-200639200D03*
X228975000Y-213280000D03*
X246300000Y-187330000D03*
X217650000Y-195708000D03*
X243825000Y-187330000D03*
X245062500Y-209980000D03*
X216000000Y-186780000D03*
X233925000Y-213280000D03*
X217650000Y-192009600D03*
X214350000Y-196940800D03*
X232687500Y-188430000D03*
X237637500Y-208880000D03*
X227737500Y-208880000D03*
X228975000Y-187330000D03*
X240112500Y-213280000D03*
X237637500Y-185130000D03*
X226500000Y-188430000D03*
X225262500Y-207780000D03*
X216550000Y-201872000D03*
X215450000Y-194475200D03*
X241350000Y-213280000D03*
X228975000Y-184030000D03*
X230212500Y-207780000D03*
X219075000Y-189530000D03*
X213250000Y-205570400D03*
X213250000Y-196940800D03*
X216550000Y-195708000D03*
X220312500Y-211080000D03*
X220312500Y-213280000D03*
X219075000Y-213280000D03*
X214350000Y-193242400D03*
X224025000Y-185130000D03*
X225262500Y-189530000D03*
X217650000Y-203104800D03*
X232687500Y-208880000D03*
X218750000Y-198173600D03*
X231450000Y-208880000D03*
X224025000Y-207780000D03*
X221550000Y-208880000D03*
X230212500Y-212180000D03*
X219075000Y-208880000D03*
X236400000Y-208880000D03*
X219075000Y-184030000D03*
X220312500Y-185130000D03*
X222787500Y-207780000D03*
X236400000Y-189530000D03*
X221550000Y-187330000D03*
X218750000Y-205570400D03*
X221550000Y-209980000D03*
X228975000Y-208880000D03*
X216550000Y-199406400D03*
X214350000Y-201872000D03*
X218750000Y-194475200D03*
X243825000Y-212180000D03*
X227737500Y-213280000D03*
X217650000Y-198173600D03*
X228975000Y-212180000D03*
X217650000Y-193242400D03*
X241350000Y-207780000D03*
X218750000Y-201872000D03*
X222787500Y-184030000D03*
X224025000Y-188430000D03*
X233925000Y-211080000D03*
X217650000Y-206803200D03*
X221550000Y-185130000D03*
X233925000Y-185130000D03*
X224025000Y-184030000D03*
X241350000Y-208880000D03*
X243825000Y-208880000D03*
%TO.N,Net-(BT3--)*%
X293772500Y-163580000D03*
X320910000Y-167267500D03*
X291297500Y-162480000D03*
X293772500Y-161380000D03*
X313572500Y-160280000D03*
X301197500Y-186230000D03*
X320910000Y-190180000D03*
X316047500Y-184030000D03*
X318710000Y-174905000D03*
X307385000Y-162480000D03*
X319810000Y-159630000D03*
X299960000Y-164680000D03*
X323110000Y-172359200D03*
X295010000Y-184030000D03*
X306147500Y-187330000D03*
X293772500Y-188430000D03*
X319810000Y-178723700D03*
X322010000Y-167267500D03*
X316047500Y-186230000D03*
X299960000Y-188430000D03*
X312335000Y-165780000D03*
X302435000Y-188430000D03*
X298722500Y-187330000D03*
X316047500Y-185130000D03*
X323110000Y-190180000D03*
X307385000Y-164680000D03*
X304910000Y-188430000D03*
X303672500Y-161380000D03*
X319810000Y-190180000D03*
X292535000Y-164680000D03*
X319810000Y-173632100D03*
X314810000Y-184030000D03*
X313572500Y-161380000D03*
X302435000Y-162480000D03*
X317610000Y-173632100D03*
X317285000Y-188430000D03*
X292535000Y-186230000D03*
X306147500Y-189530000D03*
X308622500Y-186230000D03*
X304910000Y-189530000D03*
X313572500Y-162480000D03*
X299960000Y-184030000D03*
X311097500Y-163580000D03*
X299960000Y-160280000D03*
X314810000Y-189530000D03*
X296247500Y-189530000D03*
X319810000Y-176177900D03*
X311097500Y-165780000D03*
X309860000Y-163580000D03*
X291297500Y-186230000D03*
X308622500Y-189530000D03*
X314810000Y-162480000D03*
X320910000Y-168540400D03*
X318710000Y-167267500D03*
X311097500Y-162480000D03*
X320910000Y-171086300D03*
X293772500Y-164680000D03*
X323110000Y-160902900D03*
X297485000Y-165780000D03*
X320360000Y-163030000D03*
X318710000Y-177450800D03*
X323110000Y-185088300D03*
X308622500Y-160280000D03*
X323110000Y-183815400D03*
X309860000Y-161380000D03*
X303672500Y-164680000D03*
X298722500Y-162480000D03*
X323110000Y-167267500D03*
X319810000Y-179996700D03*
X296247500Y-184030000D03*
X311097500Y-184030000D03*
X302435000Y-187330000D03*
X323110000Y-188907100D03*
X316047500Y-160280000D03*
X306147500Y-184030000D03*
X304910000Y-160280000D03*
X301197500Y-184030000D03*
X291297500Y-160280000D03*
X317610000Y-182542500D03*
X317285000Y-165780000D03*
X299960000Y-162480000D03*
X304910000Y-161380000D03*
X292535000Y-161380000D03*
X307385000Y-187330000D03*
X292535000Y-162480000D03*
X323110000Y-177450800D03*
X317610000Y-168540400D03*
X291297500Y-187330000D03*
X316047500Y-163580000D03*
X317610000Y-176177900D03*
X302435000Y-160280000D03*
X302435000Y-186230000D03*
X320910000Y-174905000D03*
X307385000Y-184030000D03*
X317610000Y-171086300D03*
X313572500Y-185130000D03*
X320910000Y-181269600D03*
X312335000Y-185130000D03*
X316047500Y-165780000D03*
X323110000Y-182542500D03*
X322010000Y-177450800D03*
X303672500Y-165780000D03*
X309860000Y-189530000D03*
X298722500Y-160280000D03*
X304910000Y-185130000D03*
X290060000Y-163580000D03*
X320910000Y-173632100D03*
X298722500Y-189530000D03*
X304910000Y-164680000D03*
X291297500Y-165780000D03*
X318710000Y-169813300D03*
X291297500Y-161380000D03*
X313572500Y-165780000D03*
X318710000Y-178723700D03*
X316047500Y-188430000D03*
X314810000Y-163580000D03*
X298722500Y-164680000D03*
X302435000Y-184030000D03*
X292535000Y-160280000D03*
X323110000Y-171086300D03*
X297485000Y-184030000D03*
X312335000Y-164680000D03*
X313572500Y-187330000D03*
X309860000Y-160280000D03*
X303672500Y-189530000D03*
X312335000Y-188430000D03*
X320910000Y-176177900D03*
X323110000Y-159630000D03*
X314810000Y-161380000D03*
X312335000Y-163580000D03*
X318522500Y-184030000D03*
X320910000Y-169813300D03*
X318522500Y-189530000D03*
X299960000Y-163580000D03*
X309860000Y-186230000D03*
X317610000Y-178723700D03*
X314810000Y-186230000D03*
X314810000Y-185130000D03*
X314810000Y-160280000D03*
X295010000Y-165780000D03*
X293772500Y-184030000D03*
X308622500Y-164680000D03*
X309860000Y-187330000D03*
X322010000Y-165994600D03*
X298722500Y-163580000D03*
X298722500Y-185130000D03*
X299960000Y-186230000D03*
X301197500Y-189530000D03*
X291297500Y-188430000D03*
X311097500Y-187330000D03*
X309860000Y-185130000D03*
X323110000Y-168540400D03*
X302435000Y-185130000D03*
X312335000Y-186230000D03*
X292535000Y-165780000D03*
X322010000Y-169813300D03*
X292535000Y-188430000D03*
X312335000Y-162480000D03*
X314810000Y-164680000D03*
X308622500Y-165780000D03*
X319810000Y-174905000D03*
X311097500Y-164680000D03*
X312335000Y-161380000D03*
X308622500Y-161380000D03*
X306147500Y-165780000D03*
X301197500Y-185130000D03*
X303672500Y-160280000D03*
X313572500Y-164680000D03*
X317610000Y-179996700D03*
X308622500Y-163580000D03*
X319810000Y-167267500D03*
X306147500Y-188430000D03*
X306147500Y-162480000D03*
X319810000Y-177450800D03*
X301197500Y-165780000D03*
X299960000Y-187330000D03*
X296247500Y-160280000D03*
X317285000Y-161380000D03*
X302435000Y-189530000D03*
X292535000Y-187330000D03*
X302435000Y-161380000D03*
X323110000Y-164721700D03*
X307385000Y-163580000D03*
X323110000Y-173632100D03*
X308622500Y-185130000D03*
X316047500Y-164680000D03*
X320910000Y-179996700D03*
X319810000Y-169813300D03*
X307385000Y-160280000D03*
X298722500Y-186230000D03*
X291297500Y-189530000D03*
X316047500Y-162480000D03*
X312335000Y-184030000D03*
X323110000Y-181269600D03*
X291297500Y-184030000D03*
X317610000Y-172359200D03*
X301197500Y-160280000D03*
X320910000Y-159630000D03*
X307385000Y-189530000D03*
X308622500Y-184030000D03*
X309860000Y-165780000D03*
X323110000Y-169813300D03*
X301197500Y-188430000D03*
X292535000Y-163580000D03*
X309860000Y-162480000D03*
X298722500Y-165780000D03*
X317610000Y-181269600D03*
X307385000Y-188430000D03*
X290060000Y-187330000D03*
X290060000Y-186230000D03*
X314810000Y-165780000D03*
X320910000Y-182542500D03*
X293772500Y-187330000D03*
X302435000Y-165780000D03*
X318710000Y-182542500D03*
X307385000Y-185130000D03*
X297485000Y-160280000D03*
X306147500Y-185130000D03*
X323110000Y-165994600D03*
X322010000Y-168540400D03*
X311097500Y-188430000D03*
X295010000Y-164680000D03*
X293772500Y-165780000D03*
X291297500Y-163580000D03*
X314810000Y-188430000D03*
X323110000Y-178723700D03*
X306147500Y-160280000D03*
X295010000Y-185130000D03*
X301197500Y-163580000D03*
X323110000Y-176177900D03*
X291297500Y-164680000D03*
X323110000Y-174905000D03*
X318710000Y-168540400D03*
X308622500Y-188430000D03*
X322010000Y-176177900D03*
X319810000Y-171086300D03*
X320360000Y-186780000D03*
X293772500Y-162480000D03*
X303672500Y-184030000D03*
X308622500Y-187330000D03*
X312335000Y-189530000D03*
X311097500Y-160280000D03*
X306147500Y-164680000D03*
X304910000Y-165780000D03*
X314810000Y-187330000D03*
X313572500Y-186230000D03*
X308622500Y-162480000D03*
X306147500Y-161380000D03*
X322010000Y-181269600D03*
X302435000Y-163580000D03*
X293772500Y-189530000D03*
X306147500Y-186230000D03*
X299960000Y-165780000D03*
X312335000Y-160280000D03*
X306147500Y-163580000D03*
X311097500Y-186230000D03*
X318710000Y-171086300D03*
X320910000Y-178723700D03*
X319810000Y-168540400D03*
X322010000Y-174905000D03*
X293772500Y-186230000D03*
X307385000Y-186230000D03*
X313572500Y-188430000D03*
X319810000Y-172359200D03*
X322010000Y-179996700D03*
X292535000Y-185130000D03*
X319810000Y-182542500D03*
X298722500Y-188430000D03*
X318710000Y-176177900D03*
X317285000Y-164680000D03*
X317610000Y-174905000D03*
X316047500Y-161380000D03*
X292535000Y-189530000D03*
X299960000Y-161380000D03*
X312335000Y-187330000D03*
X318522500Y-165780000D03*
X313572500Y-163580000D03*
X316047500Y-187330000D03*
X307385000Y-165780000D03*
X313572500Y-184030000D03*
X299960000Y-185130000D03*
X301197500Y-162480000D03*
X322010000Y-183815400D03*
X320910000Y-177450800D03*
X297485000Y-189530000D03*
X309860000Y-164680000D03*
X296247500Y-165780000D03*
X299960000Y-189530000D03*
X295010000Y-188430000D03*
X322010000Y-171086300D03*
X307385000Y-161380000D03*
X291297500Y-185130000D03*
X301197500Y-164680000D03*
X293772500Y-160280000D03*
X311097500Y-161380000D03*
X295010000Y-161380000D03*
X309860000Y-188430000D03*
X290060000Y-162480000D03*
X317610000Y-169813300D03*
X316047500Y-189530000D03*
X304910000Y-184030000D03*
X322010000Y-190180000D03*
X298722500Y-184030000D03*
X320910000Y-172359200D03*
X317285000Y-185130000D03*
X303672500Y-188430000D03*
X303672500Y-185130000D03*
X318522500Y-160280000D03*
X318710000Y-173632100D03*
X295010000Y-189530000D03*
X319810000Y-181269600D03*
X293772500Y-185130000D03*
X317285000Y-189530000D03*
X302435000Y-164680000D03*
X298722500Y-161380000D03*
X317610000Y-177450800D03*
X301197500Y-161380000D03*
X309860000Y-184030000D03*
X313572500Y-189530000D03*
X322010000Y-172359200D03*
X295010000Y-160280000D03*
X322010000Y-182542500D03*
X318710000Y-179996700D03*
X323110000Y-179996700D03*
X301197500Y-187330000D03*
X318710000Y-172359200D03*
X322010000Y-159630000D03*
X311097500Y-185130000D03*
X311097500Y-189530000D03*
X322010000Y-178723700D03*
X317285000Y-160280000D03*
X322010000Y-173632100D03*
X318710000Y-181269600D03*
X317610000Y-167267500D03*
X317285000Y-184030000D03*
X292535000Y-184030000D03*
%TO.N,/4S_B+*%
X306147500Y-138730000D03*
X317285000Y-142030000D03*
X309860000Y-138730000D03*
X316047500Y-138730000D03*
X299960000Y-136530000D03*
X307385000Y-139830000D03*
X292535000Y-137630000D03*
X302435000Y-139830000D03*
X312335000Y-140930000D03*
X308622500Y-136530000D03*
X301197500Y-137630000D03*
X307385000Y-140930000D03*
X297485000Y-136530000D03*
X291297500Y-140930000D03*
X314810000Y-138730000D03*
X290060000Y-138730000D03*
X301197500Y-136530000D03*
X293772500Y-140930000D03*
X301197500Y-139830000D03*
X292535000Y-138730000D03*
X303672500Y-140930000D03*
X299960000Y-140930000D03*
X311097500Y-139830000D03*
X303672500Y-137630000D03*
X301197500Y-140930000D03*
X293772500Y-139830000D03*
X293772500Y-137630000D03*
X307385000Y-136530000D03*
X295010000Y-140930000D03*
X309860000Y-137630000D03*
X316047500Y-137630000D03*
X302435000Y-138730000D03*
X313572500Y-138730000D03*
X299960000Y-138730000D03*
X314810000Y-139830000D03*
X302435000Y-136530000D03*
X311097500Y-138730000D03*
X299960000Y-142030000D03*
X307385000Y-142030000D03*
X308622500Y-137630000D03*
X312335000Y-136530000D03*
X304910000Y-137630000D03*
X314810000Y-140930000D03*
X313572500Y-139830000D03*
X298722500Y-137630000D03*
X299960000Y-139830000D03*
X311097500Y-142030000D03*
X311097500Y-136530000D03*
X313572500Y-137630000D03*
X301197500Y-138730000D03*
X307385000Y-137630000D03*
X296247500Y-136530000D03*
X302435000Y-140930000D03*
X313572500Y-142030000D03*
X302435000Y-142030000D03*
X308622500Y-140930000D03*
X306147500Y-142030000D03*
X316047500Y-142030000D03*
X314810000Y-142030000D03*
X312335000Y-138730000D03*
X295010000Y-137630000D03*
X313572500Y-140930000D03*
X312335000Y-139830000D03*
X298722500Y-140930000D03*
X313572500Y-136530000D03*
X316047500Y-139830000D03*
X309860000Y-140930000D03*
X308622500Y-138730000D03*
X299960000Y-137630000D03*
X291297500Y-136530000D03*
X311097500Y-137630000D03*
X301197500Y-142030000D03*
X298722500Y-136530000D03*
X308622500Y-142030000D03*
X307385000Y-138730000D03*
X297485000Y-142030000D03*
X312335000Y-142030000D03*
X311097500Y-140930000D03*
X296247500Y-142030000D03*
X306147500Y-137630000D03*
X318522500Y-142030000D03*
X304910000Y-136530000D03*
X309860000Y-136530000D03*
X317285000Y-136530000D03*
X295010000Y-136530000D03*
X317285000Y-137630000D03*
X302435000Y-137630000D03*
X293772500Y-142030000D03*
X304910000Y-142030000D03*
X293772500Y-138730000D03*
X306147500Y-139830000D03*
X314810000Y-137630000D03*
X318522500Y-136530000D03*
X295010000Y-142030000D03*
X291297500Y-142030000D03*
X298722500Y-138730000D03*
X298722500Y-139830000D03*
X290060000Y-139830000D03*
X312335000Y-137630000D03*
X303672500Y-136530000D03*
X291297500Y-139830000D03*
X291297500Y-137630000D03*
X304910000Y-140930000D03*
X320360000Y-139280000D03*
X292535000Y-136530000D03*
X291297500Y-138730000D03*
X293772500Y-136530000D03*
X303672500Y-142030000D03*
X316047500Y-136530000D03*
X292535000Y-140930000D03*
X309860000Y-139830000D03*
X309860000Y-142030000D03*
X292535000Y-139830000D03*
X306147500Y-136530000D03*
X298722500Y-142030000D03*
X314810000Y-136530000D03*
X317285000Y-140930000D03*
X308622500Y-139830000D03*
X316047500Y-140930000D03*
X306147500Y-140930000D03*
X292535000Y-142030000D03*
%TO.N,/4S_B-*%
X292535000Y-208880000D03*
X299960000Y-212180000D03*
X291297500Y-207780000D03*
X299960000Y-208880000D03*
X302435000Y-212180000D03*
X311097500Y-211080000D03*
X317285000Y-212180000D03*
X306147500Y-211080000D03*
X292535000Y-211080000D03*
X308622500Y-213280000D03*
X316047500Y-213280000D03*
X293772500Y-207780000D03*
X298722500Y-212180000D03*
X312335000Y-211080000D03*
X306147500Y-209980000D03*
X311097500Y-207780000D03*
X312335000Y-207780000D03*
X313572500Y-213280000D03*
X290060000Y-209980000D03*
X316047500Y-211080000D03*
X291297500Y-212180000D03*
X292535000Y-207780000D03*
X314810000Y-207780000D03*
X311097500Y-212180000D03*
X312335000Y-213280000D03*
X298722500Y-208880000D03*
X316047500Y-212180000D03*
X306147500Y-213280000D03*
X302435000Y-208880000D03*
X309860000Y-207780000D03*
X304910000Y-212180000D03*
X308622500Y-211080000D03*
X293772500Y-213280000D03*
X311097500Y-208880000D03*
X298722500Y-213280000D03*
X292535000Y-209980000D03*
X293772500Y-211080000D03*
X299960000Y-211080000D03*
X299960000Y-209980000D03*
X293772500Y-209980000D03*
X307385000Y-209980000D03*
X308622500Y-212180000D03*
X308622500Y-209980000D03*
X304910000Y-213280000D03*
X316047500Y-208880000D03*
X314810000Y-212180000D03*
X292535000Y-212180000D03*
X295010000Y-208880000D03*
X307385000Y-212180000D03*
X313572500Y-207780000D03*
X314810000Y-211080000D03*
X308622500Y-207780000D03*
X313572500Y-208880000D03*
X314810000Y-213280000D03*
X306147500Y-207780000D03*
X302435000Y-209980000D03*
X291297500Y-209980000D03*
X290060000Y-211080000D03*
X301197500Y-207780000D03*
X309860000Y-208880000D03*
X303672500Y-207780000D03*
X314810000Y-208880000D03*
X318522500Y-213280000D03*
X297485000Y-207780000D03*
X309860000Y-212180000D03*
X307385000Y-207780000D03*
X298722500Y-211080000D03*
X313572500Y-211080000D03*
X293772500Y-208880000D03*
X309860000Y-209980000D03*
X307385000Y-208880000D03*
X311097500Y-209980000D03*
X306147500Y-212180000D03*
X302435000Y-207780000D03*
X311097500Y-213280000D03*
X314810000Y-209980000D03*
X291297500Y-208880000D03*
X312335000Y-208880000D03*
X301197500Y-213280000D03*
X297485000Y-213280000D03*
X306147500Y-208880000D03*
X317285000Y-207780000D03*
X298722500Y-207780000D03*
X301197500Y-211080000D03*
X303672500Y-208880000D03*
X302435000Y-213280000D03*
X307385000Y-211080000D03*
X302435000Y-211080000D03*
X296247500Y-213280000D03*
X291297500Y-213280000D03*
X309860000Y-213280000D03*
X293772500Y-212180000D03*
X301197500Y-212180000D03*
X317285000Y-208880000D03*
X316047500Y-207780000D03*
X309860000Y-211080000D03*
X295010000Y-212180000D03*
X295010000Y-207780000D03*
X303672500Y-212180000D03*
X320360000Y-210530000D03*
X317285000Y-213280000D03*
X303672500Y-213280000D03*
X301197500Y-208880000D03*
X307385000Y-213280000D03*
X295010000Y-213280000D03*
X301197500Y-209980000D03*
X299960000Y-207780000D03*
X291297500Y-211080000D03*
X296247500Y-207780000D03*
X299960000Y-213280000D03*
X304910000Y-207780000D03*
X298722500Y-209980000D03*
X316047500Y-209980000D03*
X312335000Y-209980000D03*
X313572500Y-212180000D03*
X308622500Y-208880000D03*
X318522500Y-207780000D03*
X313572500Y-209980000D03*
X292535000Y-213280000D03*
X304910000Y-208880000D03*
X312335000Y-212180000D03*
%TO.N,Net-(J1-Pin_1)*%
X145340000Y-82360000D03*
X249700000Y-82360000D03*
X148000000Y-80560000D03*
X148000000Y-81760000D03*
X148000000Y-82960000D03*
X148000000Y-84160000D03*
X149800000Y-80560000D03*
X149800000Y-81760000D03*
X149800000Y-82960000D03*
X149800000Y-84160000D03*
X151600000Y-80560000D03*
X151600000Y-81760000D03*
X151600000Y-82960000D03*
X151600000Y-84160000D03*
X153400000Y-80560000D03*
X153400000Y-81760000D03*
X153400000Y-82960000D03*
X153400000Y-84160000D03*
X155200000Y-80560000D03*
X155200000Y-81760000D03*
X155200000Y-82960000D03*
X155200000Y-84160000D03*
X157000000Y-80560000D03*
X157000000Y-81760000D03*
X157000000Y-82960000D03*
X157000000Y-84160000D03*
X158800000Y-80560000D03*
X158800000Y-81760000D03*
X158800000Y-82960000D03*
X158800000Y-84160000D03*
X160600000Y-80560000D03*
X160600000Y-81760000D03*
X160600000Y-82960000D03*
X160600000Y-84160000D03*
X162400000Y-80560000D03*
X162400000Y-81760000D03*
X162400000Y-82960000D03*
X162400000Y-84160000D03*
X164200000Y-80560000D03*
X164200000Y-81760000D03*
X164200000Y-82960000D03*
X164200000Y-84160000D03*
X166000000Y-80560000D03*
X166000000Y-81760000D03*
X166000000Y-82960000D03*
X166000000Y-84160000D03*
X167800000Y-80560000D03*
X167800000Y-81760000D03*
X167800000Y-82960000D03*
X167800000Y-84160000D03*
X169600000Y-80560000D03*
X169600000Y-81760000D03*
X169600000Y-82960000D03*
X169600000Y-84160000D03*
X171400000Y-80560000D03*
X171400000Y-81760000D03*
X171400000Y-82960000D03*
X171400000Y-84160000D03*
X173200000Y-80560000D03*
X173200000Y-81760000D03*
X173200000Y-82960000D03*
X173200000Y-84160000D03*
X175000000Y-80560000D03*
X175000000Y-81760000D03*
X175000000Y-82960000D03*
X175000000Y-84160000D03*
X176800000Y-80560000D03*
X176800000Y-81760000D03*
X176800000Y-82960000D03*
X176800000Y-84160000D03*
X178600000Y-80560000D03*
X178600000Y-81760000D03*
X178600000Y-82960000D03*
X178600000Y-84160000D03*
X180400000Y-80560000D03*
X180400000Y-81760000D03*
X180400000Y-82960000D03*
X180400000Y-84160000D03*
X182200000Y-80560000D03*
X182200000Y-81760000D03*
X182200000Y-82960000D03*
X182200000Y-84160000D03*
X184000000Y-80560000D03*
X184000000Y-81760000D03*
X184000000Y-82960000D03*
X184000000Y-84160000D03*
X185800000Y-80560000D03*
X185800000Y-81760000D03*
X185800000Y-82960000D03*
X185800000Y-84160000D03*
X187600000Y-80560000D03*
X187600000Y-81760000D03*
X187600000Y-82960000D03*
X187600000Y-84160000D03*
X189400000Y-80560000D03*
X189400000Y-81760000D03*
X189400000Y-82960000D03*
X189400000Y-84160000D03*
X191200000Y-80560000D03*
X191200000Y-81760000D03*
X191200000Y-82960000D03*
X191200000Y-84160000D03*
X193000000Y-80560000D03*
X193000000Y-81760000D03*
X193000000Y-82960000D03*
X193000000Y-84160000D03*
X194800000Y-80560000D03*
X194800000Y-81760000D03*
X194800000Y-82960000D03*
X194800000Y-84160000D03*
X196600000Y-80560000D03*
X196600000Y-81760000D03*
X196600000Y-82960000D03*
X196600000Y-84160000D03*
X198400000Y-80560000D03*
X198400000Y-81760000D03*
X198400000Y-82960000D03*
X198400000Y-84160000D03*
X200200000Y-80560000D03*
X200200000Y-81760000D03*
X200200000Y-82960000D03*
X200200000Y-84160000D03*
X202000000Y-80560000D03*
X202000000Y-81760000D03*
X202000000Y-82960000D03*
X202000000Y-84160000D03*
X203800000Y-80560000D03*
X203800000Y-81760000D03*
X203800000Y-82960000D03*
X203800000Y-84160000D03*
X205600000Y-80560000D03*
X205600000Y-81760000D03*
X205600000Y-82960000D03*
X205600000Y-84160000D03*
X207400000Y-80560000D03*
X207400000Y-81760000D03*
X207400000Y-82960000D03*
X207400000Y-84160000D03*
X209200000Y-80560000D03*
X209200000Y-81760000D03*
X209200000Y-82960000D03*
X209200000Y-84160000D03*
X211000000Y-80560000D03*
X211000000Y-81760000D03*
X211000000Y-82960000D03*
X211000000Y-84160000D03*
X212800000Y-80560000D03*
X212800000Y-81760000D03*
X212800000Y-82960000D03*
X212800000Y-84160000D03*
X214600000Y-80560000D03*
X214600000Y-81760000D03*
X214600000Y-82960000D03*
X214600000Y-84160000D03*
X216400000Y-80560000D03*
X216400000Y-81760000D03*
X216400000Y-82960000D03*
X216400000Y-84160000D03*
X218200000Y-80560000D03*
X218200000Y-81760000D03*
X218200000Y-82960000D03*
X218200000Y-84160000D03*
X220000000Y-80560000D03*
X220000000Y-81760000D03*
X220000000Y-82960000D03*
X220000000Y-84160000D03*
X221800000Y-80560000D03*
X221800000Y-81760000D03*
X221800000Y-82960000D03*
X221800000Y-84160000D03*
X223600000Y-80560000D03*
X223600000Y-81760000D03*
X223600000Y-82960000D03*
X223600000Y-84160000D03*
X225400000Y-80560000D03*
X225400000Y-81760000D03*
X225400000Y-82960000D03*
X225400000Y-84160000D03*
X227200000Y-80560000D03*
X227200000Y-81760000D03*
X227200000Y-82960000D03*
X227200000Y-84160000D03*
X229000000Y-80560000D03*
X229000000Y-81760000D03*
X229000000Y-82960000D03*
X229000000Y-84160000D03*
X230800000Y-80560000D03*
X230800000Y-81760000D03*
X230800000Y-82960000D03*
X230800000Y-84160000D03*
X232600000Y-80560000D03*
X232600000Y-81760000D03*
X232600000Y-82960000D03*
X232600000Y-84160000D03*
X234400000Y-80560000D03*
X234400000Y-81760000D03*
X234400000Y-82960000D03*
X234400000Y-84160000D03*
X236200000Y-80560000D03*
X236200000Y-81760000D03*
X236200000Y-82960000D03*
X236200000Y-84160000D03*
X238000000Y-80560000D03*
X238000000Y-81760000D03*
X238000000Y-82960000D03*
X238000000Y-84160000D03*
X239800000Y-80560000D03*
X239800000Y-81760000D03*
X239800000Y-82960000D03*
X239800000Y-84160000D03*
X241600000Y-80560000D03*
X241600000Y-81760000D03*
X241600000Y-82960000D03*
X241600000Y-84160000D03*
X243400000Y-80560000D03*
X243400000Y-81760000D03*
X243400000Y-82960000D03*
X243400000Y-84160000D03*
X245200000Y-80560000D03*
X245200000Y-81760000D03*
X245200000Y-82960000D03*
X245200000Y-84160000D03*
X247000000Y-80560000D03*
X247000000Y-81760000D03*
X247000000Y-82960000D03*
X247000000Y-84160000D03*
%TO.N,Net-(J21-Pin_1)*%
X169105000Y-92530000D03*
X227050000Y-92530000D03*
X172000000Y-90730000D03*
X172000000Y-91930000D03*
X172000000Y-93130000D03*
X172000000Y-94330000D03*
X173800000Y-90730000D03*
X173800000Y-91930000D03*
X173800000Y-93130000D03*
X173800000Y-94330000D03*
X175600000Y-90730000D03*
X175600000Y-91930000D03*
X175600000Y-93130000D03*
X175600000Y-94330000D03*
X177400000Y-90730000D03*
X177400000Y-91930000D03*
X177400000Y-93130000D03*
X177400000Y-94330000D03*
X179200000Y-90730000D03*
X179200000Y-91930000D03*
X179200000Y-93130000D03*
X179200000Y-94330000D03*
X181000000Y-90730000D03*
X181000000Y-91930000D03*
X181000000Y-93130000D03*
X181000000Y-94330000D03*
X182800000Y-90730000D03*
X182800000Y-91930000D03*
X182800000Y-93130000D03*
X182800000Y-94330000D03*
X184600000Y-90730000D03*
X184600000Y-91930000D03*
X184600000Y-93130000D03*
X184600000Y-94330000D03*
X186400000Y-90730000D03*
X186400000Y-91930000D03*
X186400000Y-93130000D03*
X186400000Y-94330000D03*
X188200000Y-90730000D03*
X188200000Y-91930000D03*
X188200000Y-93130000D03*
X188200000Y-94330000D03*
X190000000Y-90730000D03*
X190000000Y-91930000D03*
X190000000Y-93130000D03*
X190000000Y-94330000D03*
X191800000Y-90730000D03*
X191800000Y-91930000D03*
X191800000Y-93130000D03*
X191800000Y-94330000D03*
X193600000Y-90730000D03*
X193600000Y-91930000D03*
X193600000Y-93130000D03*
X193600000Y-94330000D03*
X195400000Y-90730000D03*
X195400000Y-91930000D03*
X195400000Y-93130000D03*
X195400000Y-94330000D03*
X197200000Y-90730000D03*
X197200000Y-91930000D03*
X197200000Y-93130000D03*
X197200000Y-94330000D03*
X199000000Y-90730000D03*
X199000000Y-91930000D03*
X199000000Y-93130000D03*
X199000000Y-94330000D03*
X200800000Y-90730000D03*
X200800000Y-91930000D03*
X200800000Y-93130000D03*
X200800000Y-94330000D03*
X202600000Y-90730000D03*
X202600000Y-91930000D03*
X202600000Y-93130000D03*
X202600000Y-94330000D03*
X204400000Y-90730000D03*
X204400000Y-91930000D03*
X204400000Y-93130000D03*
X204400000Y-94330000D03*
X206200000Y-90730000D03*
X206200000Y-91930000D03*
X206200000Y-93130000D03*
X206200000Y-94330000D03*
X208000000Y-90730000D03*
X208000000Y-91930000D03*
X208000000Y-93130000D03*
X208000000Y-94330000D03*
X209800000Y-90730000D03*
X209800000Y-91930000D03*
X209800000Y-93130000D03*
X209800000Y-94330000D03*
X211600000Y-90730000D03*
X211600000Y-91930000D03*
X211600000Y-93130000D03*
X211600000Y-94330000D03*
X213400000Y-90730000D03*
X213400000Y-91930000D03*
X213400000Y-93130000D03*
X213400000Y-94330000D03*
X215200000Y-90730000D03*
X215200000Y-91930000D03*
X215200000Y-93130000D03*
X215200000Y-94330000D03*
X217000000Y-90730000D03*
X217000000Y-91930000D03*
X217000000Y-93130000D03*
X217000000Y-94330000D03*
X218800000Y-90730000D03*
X218800000Y-91930000D03*
X218800000Y-93130000D03*
X218800000Y-94330000D03*
X220600000Y-90730000D03*
X220600000Y-91930000D03*
X220600000Y-93130000D03*
X220600000Y-94330000D03*
X222400000Y-90730000D03*
X222400000Y-91930000D03*
X222400000Y-93130000D03*
X222400000Y-94330000D03*
%TO.N,Net-(J23-Pin_1)*%
X183330000Y-100180000D03*
X219750000Y-100180000D03*
X186000000Y-98380000D03*
X186000000Y-99580000D03*
X186000000Y-100780000D03*
X186000000Y-101980000D03*
X187800000Y-98380000D03*
X187800000Y-99580000D03*
X187800000Y-100780000D03*
X187800000Y-101980000D03*
X189600000Y-98380000D03*
X189600000Y-99580000D03*
X189600000Y-100780000D03*
X189600000Y-101980000D03*
X191400000Y-98380000D03*
X191400000Y-99580000D03*
X191400000Y-100780000D03*
X191400000Y-101980000D03*
X193200000Y-98380000D03*
X193200000Y-99580000D03*
X193200000Y-100780000D03*
X193200000Y-101980000D03*
X195000000Y-98380000D03*
X195000000Y-99580000D03*
X195000000Y-100780000D03*
X195000000Y-101980000D03*
X196800000Y-98380000D03*
X196800000Y-99580000D03*
X196800000Y-100780000D03*
X196800000Y-101980000D03*
X198600000Y-98380000D03*
X198600000Y-99580000D03*
X198600000Y-100780000D03*
X198600000Y-101980000D03*
X200400000Y-98380000D03*
X200400000Y-99580000D03*
X200400000Y-100780000D03*
X200400000Y-101980000D03*
X202200000Y-98380000D03*
X202200000Y-99580000D03*
X202200000Y-100780000D03*
X202200000Y-101980000D03*
X204000000Y-98380000D03*
X204000000Y-99580000D03*
X204000000Y-100780000D03*
X204000000Y-101980000D03*
X205800000Y-98380000D03*
X205800000Y-99580000D03*
X205800000Y-100780000D03*
X205800000Y-101980000D03*
X207600000Y-98380000D03*
X207600000Y-99580000D03*
X207600000Y-100780000D03*
X207600000Y-101980000D03*
X209400000Y-98380000D03*
X209400000Y-99580000D03*
X209400000Y-100780000D03*
X209400000Y-101980000D03*
X211200000Y-98380000D03*
X211200000Y-99580000D03*
X211200000Y-100780000D03*
X211200000Y-101980000D03*
X213000000Y-98380000D03*
X213000000Y-99580000D03*
X213000000Y-100780000D03*
X213000000Y-101980000D03*
X214800000Y-98380000D03*
X214800000Y-99580000D03*
X214800000Y-100780000D03*
X214800000Y-101980000D03*
X216600000Y-98380000D03*
X216600000Y-99580000D03*
X216600000Y-100780000D03*
X216600000Y-101980000D03*
%TO.N,Net-(BT6-+)*%
X147840000Y-139280000D03*
X178740000Y-139280000D03*
X154000000Y-136780000D03*
X154000000Y-141780000D03*
X160000000Y-136780000D03*
X160000000Y-141780000D03*
X166000000Y-136780000D03*
X166000000Y-141780000D03*
X172000000Y-136780000D03*
X172000000Y-141780000D03*
%TO.N,Net-(BT6--)*%
X74380000Y-139280000D03*
X74380000Y-163030000D03*
X105280000Y-139280000D03*
X105280000Y-163030000D03*
X80000000Y-136780000D03*
X80000000Y-141780000D03*
X80000000Y-160530000D03*
X80000000Y-165530000D03*
X86000000Y-136780000D03*
X86000000Y-141780000D03*
X86000000Y-160530000D03*
X86000000Y-165530000D03*
X92000000Y-136780000D03*
X92000000Y-141780000D03*
X92000000Y-160530000D03*
X92000000Y-165530000D03*
X98000000Y-136780000D03*
X98000000Y-141780000D03*
X98000000Y-160530000D03*
X98000000Y-165530000D03*
X74380000Y-143000000D03*
X74380000Y-147000000D03*
X74380000Y-151000000D03*
X74380000Y-155000000D03*
X74380000Y-159000000D03*
%TO.N,Net-(BT9--)*%
X147840000Y-210530000D03*
X178740000Y-210530000D03*
X154000000Y-208030000D03*
X154000000Y-213030000D03*
X160000000Y-208030000D03*
X160000000Y-213030000D03*
X166000000Y-208030000D03*
X166000000Y-213030000D03*
X172000000Y-208030000D03*
X172000000Y-213030000D03*
%TD*%
%TO.N,Net-(BT2--)*%
D14*
X216000000Y-163030000D02*
X246900000Y-163030000D01*
X246900000Y-136740000D02*
X246900000Y-141820000D01*
X246900000Y-160490000D02*
X246900000Y-165570000D01*
X216000000Y-135000000D02*
X216000000Y-167030000D01*
X216000000Y-139280000D02*
X246900000Y-139280000D01*
%TO.N,Net-(BT4--)*%
X216000000Y-210530000D02*
X246900000Y-210530000D01*
X246900000Y-207990000D02*
X246900000Y-213070000D01*
X216000000Y-186780000D02*
X246900000Y-186780000D01*
X246900000Y-184240000D02*
X246900000Y-189320000D01*
X216000000Y-182780000D02*
X216000000Y-214800000D01*
%TO.N,Net-(BT3--)*%
X289460000Y-186780000D02*
X320360000Y-186780000D01*
X289460000Y-160490000D02*
X289460000Y-165570000D01*
X320360000Y-159030000D02*
X320360000Y-190780000D01*
X289460000Y-184240000D02*
X289460000Y-189320000D01*
X289460000Y-163030000D02*
X320360000Y-163030000D01*
%TO.N,/4S_B+*%
X320360000Y-135280000D02*
X320360000Y-143280000D01*
X289460000Y-136740000D02*
X289460000Y-141820000D01*
X289460000Y-139280000D02*
X320360000Y-139280000D01*
%TO.N,/4S_B-*%
X320360000Y-206530000D02*
X320360000Y-214530000D01*
X289460000Y-207990000D02*
X289460000Y-213070000D01*
X289460000Y-210530000D02*
X320360000Y-210530000D01*
%TO.N,Net-(J1-Pin_1)*%
D15*
X145340000Y-82360000D02*
X249700000Y-82360000D01*
%TO.N,Net-(J21-Pin_1)*%
X169105000Y-92530000D02*
X227050000Y-92530000D01*
%TO.N,Net-(J23-Pin_1)*%
X183330000Y-100180000D02*
X219750000Y-100180000D01*
%TO.N,Net-(BT6-+)*%
D14*
X147840000Y-139280000D02*
X178740000Y-139280000D01*
X147840000Y-136740000D02*
X147840000Y-141820000D01*
%TO.N,Net-(BT6--)*%
X74380000Y-139280000D02*
X105280000Y-139280000D01*
X105280000Y-136740000D02*
X105280000Y-141820000D01*
X74380000Y-163030000D02*
X105280000Y-163030000D01*
X105280000Y-160490000D02*
X105280000Y-165570000D01*
X74380000Y-135280000D02*
X74380000Y-167030000D01*
D16*
X76380000Y-135280000D02*
X76380000Y-167030000D01*
%TO.N,Net-(BT9--)*%
D14*
X147840000Y-210530000D02*
X178740000Y-210530000D01*
X147840000Y-207990000D02*
X147840000Y-213070000D01*
%TD*%
M02*
