M48
; DRILL file KiCad 10.0.5 date 2026-09-17T12:02:24
; FORMAT={-:-/ absolute / metric / decimal}
; #@! TF.CreationDate,2026-09-17T12:02:24+05:30
; #@! TF.GenerationSoftware,Kicad,Pcbnew,10.0.5
; #@! TF.FileFunction,MixedPlating,1,2
FMAT,2
METRIC
; #@! TA.AperFunction,Plated,PTH,ViaDrill
T1C0.400
; #@! TA.AperFunction,Plated,PTH,ComponentDrill
T2C1.830
; #@! TA.AperFunction,Plated,PTH,ComponentDrill
T3C2.000
; #@! TA.AperFunction,Plated,PTH,ComponentDrill
T4C2.500
; #@! TA.AperFunction,NonPlated,NPTH,ComponentDrill
T5C2.400
; #@! TA.AperFunction,NonPlated,NPTH,ComponentDrill
T6C3.200
; #@! TA.AperFunction,NonPlated,NPTH,ComponentDrill
T7C3.450
%
G90
G05
T1
X74.38Y-139.28
X74.38Y-143.0
X74.38Y-147.0
X74.38Y-151.0
X74.38Y-155.0
X74.38Y-159.0
X74.38Y-163.03
X80.0Y-136.78
X80.0Y-141.78
X80.0Y-160.53
X80.0Y-165.53
X86.0Y-136.78
X86.0Y-141.78
X86.0Y-160.53
X86.0Y-165.53
X92.0Y-136.78
X92.0Y-141.78
X92.0Y-160.53
X92.0Y-165.53
X98.0Y-136.78
X98.0Y-141.78
X98.0Y-160.53
X98.0Y-165.53
X105.28Y-139.28
X105.28Y-163.03
X145.34Y-82.36
X147.84Y-139.28
X147.84Y-210.53
X148.0Y-80.56
X148.0Y-81.76
X148.0Y-82.96
X148.0Y-84.16
X149.8Y-80.56
X149.8Y-81.76
X149.8Y-82.96
X149.8Y-84.16
X151.6Y-80.56
X151.6Y-81.76
X151.6Y-82.96
X151.6Y-84.16
X153.4Y-80.56
X153.4Y-81.76
X153.4Y-82.96
X153.4Y-84.16
X154.0Y-136.78
X154.0Y-141.78
X154.0Y-208.03
X154.0Y-213.03
X155.2Y-80.56
X155.2Y-81.76
X155.2Y-82.96
X155.2Y-84.16
X157.0Y-80.56
X157.0Y-81.76
X157.0Y-82.96
X157.0Y-84.16
X158.8Y-80.56
X158.8Y-81.76
X158.8Y-82.96
X158.8Y-84.16
X160.0Y-136.78
X160.0Y-141.78
X160.0Y-208.03
X160.0Y-213.03
X160.6Y-80.56
X160.6Y-81.76
X160.6Y-82.96
X160.6Y-84.16
X162.4Y-80.56
X162.4Y-81.76
X162.4Y-82.96
X162.4Y-84.16
X164.2Y-80.56
X164.2Y-81.76
X164.2Y-82.96
X164.2Y-84.16
X166.0Y-80.56
X166.0Y-81.76
X166.0Y-82.96
X166.0Y-84.16
X166.0Y-136.78
X166.0Y-141.78
X166.0Y-208.03
X166.0Y-213.03
X167.8Y-80.56
X167.8Y-81.76
X167.8Y-82.96
X167.8Y-84.16
X169.105Y-92.53
X169.6Y-80.56
X169.6Y-81.76
X169.6Y-82.96
X169.6Y-84.16
X171.4Y-80.56
X171.4Y-81.76
X171.4Y-82.96
X171.4Y-84.16
X172.0Y-90.73
X172.0Y-91.93
X172.0Y-93.13
X172.0Y-94.33
X172.0Y-136.78
X172.0Y-141.78
X172.0Y-208.03
X172.0Y-213.03
X173.2Y-80.56
X173.2Y-81.76
X173.2Y-82.96
X173.2Y-84.16
X173.8Y-90.73
X173.8Y-91.93
X173.8Y-93.13
X173.8Y-94.33
X175.0Y-80.56
X175.0Y-81.76
X175.0Y-82.96
X175.0Y-84.16
X175.6Y-90.73
X175.6Y-91.93
X175.6Y-93.13
X175.6Y-94.33
X176.8Y-80.56
X176.8Y-81.76
X176.8Y-82.96
X176.8Y-84.16
X177.4Y-90.73
X177.4Y-91.93
X177.4Y-93.13
X177.4Y-94.33
X178.6Y-80.56
X178.6Y-81.76
X178.6Y-82.96
X178.6Y-84.16
X178.74Y-139.28
X178.74Y-210.53
X179.2Y-90.73
X179.2Y-91.93
X179.2Y-93.13
X179.2Y-94.33
X180.4Y-80.56
X180.4Y-81.76
X180.4Y-82.96
X180.4Y-84.16
X181.0Y-90.73
X181.0Y-91.93
X181.0Y-93.13
X181.0Y-94.33
X182.2Y-80.56
X182.2Y-81.76
X182.2Y-82.96
X182.2Y-84.16
X182.8Y-90.73
X182.8Y-91.93
X182.8Y-93.13
X182.8Y-94.33
X183.33Y-100.18
X184.0Y-80.56
X184.0Y-81.76
X184.0Y-82.96
X184.0Y-84.16
X184.6Y-90.73
X184.6Y-91.93
X184.6Y-93.13
X184.6Y-94.33
X185.8Y-80.56
X185.8Y-81.76
X185.8Y-82.96
X185.8Y-84.16
X186.0Y-98.38
X186.0Y-99.58
X186.0Y-100.78
X186.0Y-101.98
X186.4Y-90.73
X186.4Y-91.93
X186.4Y-93.13
X186.4Y-94.33
X187.6Y-80.56
X187.6Y-81.76
X187.6Y-82.96
X187.6Y-84.16
X187.8Y-98.38
X187.8Y-99.58
X187.8Y-100.78
X187.8Y-101.98
X188.2Y-90.73
X188.2Y-91.93
X188.2Y-93.13
X188.2Y-94.33
X189.4Y-80.56
X189.4Y-81.76
X189.4Y-82.96
X189.4Y-84.16
X189.6Y-98.38
X189.6Y-99.58
X189.6Y-100.78
X189.6Y-101.98
X190.0Y-90.73
X190.0Y-91.93
X190.0Y-93.13
X190.0Y-94.33
X191.2Y-80.56
X191.2Y-81.76
X191.2Y-82.96
X191.2Y-84.16
X191.4Y-98.38
X191.4Y-99.58
X191.4Y-100.78
X191.4Y-101.98
X191.8Y-90.73
X191.8Y-91.93
X191.8Y-93.13
X191.8Y-94.33
X193.0Y-80.56
X193.0Y-81.76
X193.0Y-82.96
X193.0Y-84.16
X193.2Y-98.38
X193.2Y-99.58
X193.2Y-100.78
X193.2Y-101.98
X193.6Y-90.73
X193.6Y-91.93
X193.6Y-93.13
X193.6Y-94.33
X194.8Y-80.56
X194.8Y-81.76
X194.8Y-82.96
X194.8Y-84.16
X195.0Y-98.38
X195.0Y-99.58
X195.0Y-100.78
X195.0Y-101.98
X195.4Y-90.73
X195.4Y-91.93
X195.4Y-93.13
X195.4Y-94.33
X196.6Y-80.56
X196.6Y-81.76
X196.6Y-82.96
X196.6Y-84.16
X196.8Y-98.38
X196.8Y-99.58
X196.8Y-100.78
X196.8Y-101.98
X197.2Y-90.73
X197.2Y-91.93
X197.2Y-93.13
X197.2Y-94.33
X198.4Y-80.56
X198.4Y-81.76
X198.4Y-82.96
X198.4Y-84.16
X198.6Y-98.38
X198.6Y-99.58
X198.6Y-100.78
X198.6Y-101.98
X199.0Y-90.73
X199.0Y-91.93
X199.0Y-93.13
X199.0Y-94.33
X200.2Y-80.56
X200.2Y-81.76
X200.2Y-82.96
X200.2Y-84.16
X200.4Y-98.38
X200.4Y-99.58
X200.4Y-100.78
X200.4Y-101.98
X200.8Y-90.73
X200.8Y-91.93
X200.8Y-93.13
X200.8Y-94.33
X202.0Y-80.56
X202.0Y-81.76
X202.0Y-82.96
X202.0Y-84.16
X202.2Y-98.38
X202.2Y-99.58
X202.2Y-100.78
X202.2Y-101.98
X202.6Y-90.73
X202.6Y-91.93
X202.6Y-93.13
X202.6Y-94.33
X203.8Y-80.56
X203.8Y-81.76
X203.8Y-82.96
X203.8Y-84.16
X204.0Y-98.38
X204.0Y-99.58
X204.0Y-100.78
X204.0Y-101.98
X204.4Y-90.73
X204.4Y-91.93
X204.4Y-93.13
X204.4Y-94.33
X205.6Y-80.56
X205.6Y-81.76
X205.6Y-82.96
X205.6Y-84.16
X205.8Y-98.38
X205.8Y-99.58
X205.8Y-100.78
X205.8Y-101.98
X206.2Y-90.73
X206.2Y-91.93
X206.2Y-93.13
X206.2Y-94.33
X207.4Y-80.56
X207.4Y-81.76
X207.4Y-82.96
X207.4Y-84.16
X207.6Y-98.38
X207.6Y-99.58
X207.6Y-100.78
X207.6Y-101.98
X208.0Y-90.73
X208.0Y-91.93
X208.0Y-93.13
X208.0Y-94.33
X209.2Y-80.56
X209.2Y-81.76
X209.2Y-82.96
X209.2Y-84.16
X209.4Y-98.38
X209.4Y-99.58
X209.4Y-100.78
X209.4Y-101.98
X209.8Y-90.73
X209.8Y-91.93
X209.8Y-93.13
X209.8Y-94.33
X211.0Y-80.56
X211.0Y-81.76
X211.0Y-82.96
X211.0Y-84.16
X211.2Y-98.38
X211.2Y-99.58
X211.2Y-100.78
X211.2Y-101.98
X211.6Y-90.73
X211.6Y-91.93
X211.6Y-93.13
X211.6Y-94.33
X212.8Y-80.56
X212.8Y-81.76
X212.8Y-82.96
X212.8Y-84.16
X213.0Y-98.38
X213.0Y-99.58
X213.0Y-100.78
X213.0Y-101.98
X213.25Y-135.6
X213.25Y-136.833
X213.25Y-141.766
X213.25Y-142.999
X213.25Y-144.232
X213.25Y-145.466
X213.25Y-146.699
X213.25Y-147.932
X213.25Y-149.165
X213.25Y-150.398
X213.25Y-151.632
X213.25Y-152.865
X213.25Y-154.098
X213.25Y-155.331
X213.25Y-156.564
X213.25Y-157.798
X213.25Y-159.031
X213.25Y-160.264
X213.25Y-165.197
X213.25Y-166.43
X213.25Y-183.38
X213.25Y-184.613
X213.25Y-189.544
X213.25Y-190.777
X213.25Y-192.01
X213.25Y-193.242
X213.25Y-194.475
X213.25Y-195.708
X213.25Y-196.941
X213.25Y-198.174
X213.25Y-199.406
X213.25Y-200.639
X213.25Y-201.872
X213.25Y-203.105
X213.25Y-204.338
X213.25Y-205.57
X213.25Y-206.803
X213.25Y-208.036
X213.25Y-212.967
X213.25Y-214.2
X213.4Y-90.73
X213.4Y-91.93
X213.4Y-93.13
X213.4Y-94.33
X214.35Y-135.6
X214.35Y-142.999
X214.35Y-144.232
X214.35Y-145.466
X214.35Y-146.699
X214.35Y-147.932
X214.35Y-149.165
X214.35Y-150.398
X214.35Y-151.632
X214.35Y-152.865
X214.35Y-154.098
X214.35Y-155.331
X214.35Y-156.564
X214.35Y-157.798
X214.35Y-159.031
X214.35Y-160.264
X214.35Y-166.43
X214.35Y-183.38
X214.35Y-189.544
X214.35Y-190.777
X214.35Y-192.01
X214.35Y-193.242
X214.35Y-194.475
X214.35Y-195.708
X214.35Y-196.941
X214.35Y-198.174
X214.35Y-199.406
X214.35Y-200.639
X214.35Y-201.872
X214.35Y-203.105
X214.35Y-204.338
X214.35Y-205.57
X214.35Y-206.803
X214.35Y-214.2
X214.6Y-80.56
X214.6Y-81.76
X214.6Y-82.96
X214.6Y-84.16
X214.8Y-98.38
X214.8Y-99.58
X214.8Y-100.78
X214.8Y-101.98
X215.2Y-90.73
X215.2Y-91.93
X215.2Y-93.13
X215.2Y-94.33
X215.45Y-135.6
X215.45Y-142.999
X215.45Y-144.232
X215.45Y-145.466
X215.45Y-146.699
X215.45Y-147.932
X215.45Y-149.165
X215.45Y-150.398
X215.45Y-151.632
X215.45Y-152.865
X215.45Y-154.098
X215.45Y-155.331
X215.45Y-156.564
X215.45Y-157.798
X215.45Y-159.031
X215.45Y-166.43
X215.45Y-183.38
X215.45Y-190.777
X215.45Y-192.01
X215.45Y-193.242
X215.45Y-194.475
X215.45Y-195.708
X215.45Y-196.941
X215.45Y-198.174
X215.45Y-199.406
X215.45Y-200.639
X215.45Y-201.872
X215.45Y-203.105
X215.45Y-204.338
X215.45Y-205.57
X215.45Y-206.803
X215.45Y-214.2
X216.0Y-139.28
X216.0Y-163.03
X216.0Y-186.78
X216.0Y-210.53
X216.4Y-80.56
X216.4Y-81.76
X216.4Y-82.96
X216.4Y-84.16
X216.55Y-135.6
X216.55Y-142.999
X216.55Y-144.232
X216.55Y-145.466
X216.55Y-146.699
X216.55Y-147.932
X216.55Y-149.165
X216.55Y-150.398
X216.55Y-151.632
X216.55Y-152.865
X216.55Y-154.098
X216.55Y-155.331
X216.55Y-156.564
X216.55Y-157.798
X216.55Y-159.031
X216.55Y-166.43
X216.55Y-183.38
X216.55Y-190.777
X216.55Y-192.01
X216.55Y-193.242
X216.55Y-194.475
X216.55Y-195.708
X216.55Y-196.941
X216.55Y-198.174
X216.55Y-199.406
X216.55Y-200.639
X216.55Y-201.872
X216.55Y-203.105
X216.55Y-204.338
X216.55Y-205.57
X216.55Y-206.803
X216.55Y-214.2
X216.6Y-98.38
X216.6Y-99.58
X216.6Y-100.78
X216.6Y-101.98
X217.0Y-90.73
X217.0Y-91.93
X217.0Y-93.13
X217.0Y-94.33
X217.65Y-135.6
X217.65Y-142.999
X217.65Y-144.232
X217.65Y-145.466
X217.65Y-146.699
X217.65Y-147.932
X217.65Y-149.165
X217.65Y-150.398
X217.65Y-151.632
X217.65Y-152.865
X217.65Y-154.098
X217.65Y-155.331
X217.65Y-156.564
X217.65Y-157.798
X217.65Y-159.031
X217.65Y-190.777
X217.65Y-192.01
X217.65Y-193.242
X217.65Y-194.475
X217.65Y-195.708
X217.65Y-196.941
X217.65Y-198.174
X217.65Y-199.406
X217.65Y-200.639
X217.65Y-201.872
X217.65Y-203.105
X217.65Y-204.338
X217.65Y-205.57
X217.65Y-206.803
X217.65Y-214.2
X217.837Y-136.53
X217.837Y-142.03
X217.837Y-160.28
X217.837Y-165.78
X217.837Y-184.03
X217.837Y-189.53
X217.837Y-207.78
X217.837Y-213.28
X218.2Y-80.56
X218.2Y-81.76
X218.2Y-82.96
X218.2Y-84.16
X218.75Y-135.6
X218.75Y-142.999
X218.75Y-144.232
X218.75Y-145.466
X218.75Y-146.699
X218.75Y-147.932
X218.75Y-149.165
X218.75Y-150.398
X218.75Y-151.632
X218.75Y-152.865
X218.75Y-154.098
X218.75Y-155.331
X218.75Y-156.564
X218.75Y-157.798
X218.75Y-159.031
X218.75Y-190.777
X218.75Y-192.01
X218.75Y-193.242
X218.75Y-194.475
X218.75Y-195.708
X218.75Y-196.941
X218.75Y-198.174
X218.75Y-199.406
X218.75Y-200.639
X218.75Y-201.872
X218.75Y-203.105
X218.75Y-204.338
X218.75Y-205.57
X218.75Y-206.803
X218.75Y-214.2
X218.8Y-90.73
X218.8Y-91.93
X218.8Y-93.13
X218.8Y-94.33
X219.075Y-136.53
X219.075Y-137.63
X219.075Y-140.93
X219.075Y-142.03
X219.075Y-160.28
X219.075Y-161.38
X219.075Y-164.68
X219.075Y-165.78
X219.075Y-184.03
X219.075Y-185.13
X219.075Y-188.43
X219.075Y-189.53
X219.075Y-207.78
X219.075Y-208.88
X219.075Y-212.18
X219.075Y-213.28
X219.75Y-100.18
X220.0Y-80.56
X220.0Y-81.76
X220.0Y-82.96
X220.0Y-84.16
X220.312Y-136.53
X220.312Y-137.63
X220.312Y-138.73
X220.312Y-139.83
X220.312Y-140.93
X220.312Y-142.03
X220.312Y-160.28
X220.312Y-161.38
X220.312Y-162.48
X220.312Y-163.58
X220.312Y-164.68
X220.312Y-165.78
X220.312Y-184.03
X220.312Y-185.13
X220.312Y-186.23
X220.312Y-187.33
X220.312Y-188.43
X220.312Y-189.53
X220.312Y-207.78
X220.312Y-208.88
X220.312Y-209.98
X220.312Y-211.08
X220.312Y-212.18
X220.312Y-213.28
X220.6Y-90.73
X220.6Y-91.93
X220.6Y-93.13
X220.6Y-94.33
X221.55Y-136.53
X221.55Y-137.63
X221.55Y-138.73
X221.55Y-139.83
X221.55Y-140.93
X221.55Y-142.03
X221.55Y-160.28
X221.55Y-161.38
X221.55Y-162.48
X221.55Y-163.58
X221.55Y-164.68
X221.55Y-165.78
X221.55Y-184.03
X221.55Y-185.13
X221.55Y-186.23
X221.55Y-187.33
X221.55Y-188.43
X221.55Y-189.53
X221.55Y-207.78
X221.55Y-208.88
X221.55Y-209.98
X221.55Y-211.08
X221.55Y-212.18
X221.55Y-213.28
X221.8Y-80.56
X221.8Y-81.76
X221.8Y-82.96
X221.8Y-84.16
X222.4Y-90.73
X222.4Y-91.93
X222.4Y-93.13
X222.4Y-94.33
X222.787Y-136.53
X222.787Y-137.63
X222.787Y-138.73
X222.787Y-139.83
X222.787Y-140.93
X222.787Y-142.03
X222.787Y-160.28
X222.787Y-161.38
X222.787Y-162.48
X222.787Y-163.58
X222.787Y-164.68
X222.787Y-165.78
X222.787Y-184.03
X222.787Y-185.13
X222.787Y-186.23
X222.787Y-187.33
X222.787Y-188.43
X222.787Y-189.53
X222.787Y-207.78
X222.787Y-208.88
X222.787Y-209.98
X222.787Y-211.08
X222.787Y-212.18
X222.787Y-213.28
X223.6Y-80.56
X223.6Y-81.76
X223.6Y-82.96
X223.6Y-84.16
X224.025Y-136.53
X224.025Y-137.63
X224.025Y-138.73
X224.025Y-139.83
X224.025Y-140.93
X224.025Y-142.03
X224.025Y-160.28
X224.025Y-161.38
X224.025Y-162.48
X224.025Y-163.58
X224.025Y-164.68
X224.025Y-165.78
X224.025Y-184.03
X224.025Y-185.13
X224.025Y-186.23
X224.025Y-187.33
X224.025Y-188.43
X224.025Y-189.53
X224.025Y-207.78
X224.025Y-208.88
X224.025Y-209.98
X224.025Y-211.08
X224.025Y-212.18
X224.025Y-213.28
X225.262Y-136.53
X225.262Y-137.63
X225.262Y-138.73
X225.262Y-139.83
X225.262Y-140.93
X225.262Y-142.03
X225.262Y-160.28
X225.262Y-161.38
X225.262Y-162.48
X225.262Y-163.58
X225.262Y-164.68
X225.262Y-165.78
X225.262Y-184.03
X225.262Y-185.13
X225.262Y-186.23
X225.262Y-187.33
X225.262Y-188.43
X225.262Y-189.53
X225.262Y-207.78
X225.262Y-208.88
X225.262Y-209.98
X225.262Y-211.08
X225.262Y-212.18
X225.262Y-213.28
X225.4Y-80.56
X225.4Y-81.76
X225.4Y-82.96
X225.4Y-84.16
X226.5Y-136.53
X226.5Y-137.63
X226.5Y-138.73
X226.5Y-139.83
X226.5Y-140.93
X226.5Y-142.03
X226.5Y-160.28
X226.5Y-161.38
X226.5Y-162.48
X226.5Y-163.58
X226.5Y-164.68
X226.5Y-165.78
X226.5Y-184.03
X226.5Y-185.13
X226.5Y-186.23
X226.5Y-187.33
X226.5Y-188.43
X226.5Y-189.53
X226.5Y-207.78
X226.5Y-208.88
X226.5Y-209.98
X226.5Y-211.08
X226.5Y-212.18
X226.5Y-213.28
X227.05Y-92.53
X227.2Y-80.56
X227.2Y-81.76
X227.2Y-82.96
X227.2Y-84.16
X227.737Y-136.53
X227.737Y-137.63
X227.737Y-138.73
X227.737Y-139.83
X227.737Y-140.93
X227.737Y-142.03
X227.737Y-160.28
X227.737Y-161.38
X227.737Y-162.48
X227.737Y-163.58
X227.737Y-164.68
X227.737Y-165.78
X227.737Y-184.03
X227.737Y-185.13
X227.737Y-186.23
X227.737Y-187.33
X227.737Y-188.43
X227.737Y-189.53
X227.737Y-207.78
X227.737Y-208.88
X227.737Y-209.98
X227.737Y-211.08
X227.737Y-212.18
X227.737Y-213.28
X228.975Y-136.53
X228.975Y-137.63
X228.975Y-138.73
X228.975Y-139.83
X228.975Y-140.93
X228.975Y-142.03
X228.975Y-160.28
X228.975Y-161.38
X228.975Y-162.48
X228.975Y-163.58
X228.975Y-164.68
X228.975Y-165.78
X228.975Y-184.03
X228.975Y-185.13
X228.975Y-186.23
X228.975Y-187.33
X228.975Y-188.43
X228.975Y-189.53
X228.975Y-207.78
X228.975Y-208.88
X228.975Y-209.98
X228.975Y-211.08
X228.975Y-212.18
X228.975Y-213.28
X229.0Y-80.56
X229.0Y-81.76
X229.0Y-82.96
X229.0Y-84.16
X230.212Y-136.53
X230.212Y-137.63
X230.212Y-138.73
X230.212Y-139.83
X230.212Y-140.93
X230.212Y-142.03
X230.212Y-160.28
X230.212Y-161.38
X230.212Y-162.48
X230.212Y-163.58
X230.212Y-164.68
X230.212Y-165.78
X230.212Y-184.03
X230.212Y-185.13
X230.212Y-186.23
X230.212Y-187.33
X230.212Y-188.43
X230.212Y-189.53
X230.212Y-207.78
X230.212Y-208.88
X230.212Y-209.98
X230.212Y-211.08
X230.212Y-212.18
X230.212Y-213.28
X230.8Y-80.56
X230.8Y-81.76
X230.8Y-82.96
X230.8Y-84.16
X231.45Y-136.53
X231.45Y-137.63
X231.45Y-140.93
X231.45Y-142.03
X231.45Y-160.28
X231.45Y-161.38
X231.45Y-164.68
X231.45Y-165.78
X231.45Y-184.03
X231.45Y-185.13
X231.45Y-188.43
X231.45Y-189.53
X231.45Y-207.78
X231.45Y-208.88
X231.45Y-212.18
X231.45Y-213.28
X232.6Y-80.56
X232.6Y-81.76
X232.6Y-82.96
X232.6Y-84.16
X232.688Y-136.53
X232.688Y-137.63
X232.688Y-140.93
X232.688Y-142.03
X232.688Y-160.28
X232.688Y-161.38
X232.688Y-164.68
X232.688Y-165.78
X232.688Y-184.03
X232.688Y-185.13
X232.688Y-188.43
X232.688Y-189.53
X232.688Y-207.78
X232.688Y-208.88
X232.688Y-212.18
X232.688Y-213.28
X233.925Y-136.53
X233.925Y-137.63
X233.925Y-138.73
X233.925Y-139.83
X233.925Y-140.93
X233.925Y-142.03
X233.925Y-160.28
X233.925Y-161.38
X233.925Y-162.48
X233.925Y-163.58
X233.925Y-164.68
X233.925Y-165.78
X233.925Y-184.03
X233.925Y-185.13
X233.925Y-186.23
X233.925Y-187.33
X233.925Y-188.43
X233.925Y-189.53
X233.925Y-207.78
X233.925Y-208.88
X233.925Y-209.98
X233.925Y-211.08
X233.925Y-212.18
X233.925Y-213.28
X234.4Y-80.56
X234.4Y-81.76
X234.4Y-82.96
X234.4Y-84.16
X235.162Y-136.53
X235.162Y-137.63
X235.162Y-138.73
X235.162Y-139.83
X235.162Y-140.93
X235.162Y-142.03
X235.162Y-160.28
X235.162Y-161.38
X235.162Y-162.48
X235.162Y-163.58
X235.162Y-164.68
X235.162Y-165.78
X235.162Y-184.03
X235.162Y-185.13
X235.162Y-186.23
X235.162Y-187.33
X235.162Y-188.43
X235.162Y-189.53
X235.162Y-207.78
X235.162Y-208.88
X235.162Y-209.98
X235.162Y-211.08
X235.162Y-212.18
X235.162Y-213.28
X236.2Y-80.56
X236.2Y-81.76
X236.2Y-82.96
X236.2Y-84.16
X236.4Y-136.53
X236.4Y-137.63
X236.4Y-138.73
X236.4Y-139.83
X236.4Y-140.93
X236.4Y-142.03
X236.4Y-160.28
X236.4Y-161.38
X236.4Y-162.48
X236.4Y-163.58
X236.4Y-164.68
X236.4Y-165.78
X236.4Y-184.03
X236.4Y-185.13
X236.4Y-186.23
X236.4Y-187.33
X236.4Y-188.43
X236.4Y-189.53
X236.4Y-207.78
X236.4Y-208.88
X236.4Y-209.98
X236.4Y-211.08
X236.4Y-212.18
X236.4Y-213.28
X237.637Y-136.53
X237.637Y-137.63
X237.637Y-138.73
X237.637Y-139.83
X237.637Y-140.93
X237.637Y-142.03
X237.637Y-160.28
X237.637Y-161.38
X237.637Y-162.48
X237.637Y-163.58
X237.637Y-164.68
X237.637Y-165.78
X237.637Y-184.03
X237.637Y-185.13
X237.637Y-186.23
X237.637Y-187.33
X237.637Y-188.43
X237.637Y-189.53
X237.637Y-207.78
X237.637Y-208.88
X237.637Y-209.98
X237.637Y-211.08
X237.637Y-212.18
X237.637Y-213.28
X238.0Y-80.56
X238.0Y-81.76
X238.0Y-82.96
X238.0Y-84.16
X238.875Y-136.53
X238.875Y-142.03
X238.875Y-160.28
X238.875Y-165.78
X238.875Y-184.03
X238.875Y-189.53
X238.875Y-207.78
X238.875Y-213.28
X239.8Y-80.56
X239.8Y-81.76
X239.8Y-82.96
X239.8Y-84.16
X240.112Y-136.53
X240.112Y-142.03
X240.112Y-160.28
X240.112Y-165.78
X240.112Y-184.03
X240.112Y-189.53
X240.112Y-207.78
X240.112Y-213.28
X241.35Y-136.53
X241.35Y-137.63
X241.35Y-140.93
X241.35Y-142.03
X241.35Y-160.28
X241.35Y-161.38
X241.35Y-164.68
X241.35Y-165.78
X241.35Y-184.03
X241.35Y-185.13
X241.35Y-188.43
X241.35Y-189.53
X241.35Y-207.78
X241.35Y-208.88
X241.35Y-212.18
X241.35Y-213.28
X241.6Y-80.56
X241.6Y-81.76
X241.6Y-82.96
X241.6Y-84.16
X242.587Y-136.53
X242.587Y-137.63
X242.587Y-138.73
X242.587Y-139.83
X242.587Y-140.93
X242.587Y-142.03
X242.587Y-160.28
X242.587Y-161.38
X242.587Y-162.48
X242.587Y-163.58
X242.587Y-164.68
X242.587Y-165.78
X242.587Y-184.03
X242.587Y-185.13
X242.587Y-186.23
X242.587Y-187.33
X242.587Y-188.43
X242.587Y-189.53
X242.587Y-207.78
X242.587Y-208.88
X242.587Y-209.98
X242.587Y-211.08
X242.587Y-212.18
X242.587Y-213.28
X243.4Y-80.56
X243.4Y-81.76
X243.4Y-82.96
X243.4Y-84.16
X243.825Y-136.53
X243.825Y-137.63
X243.825Y-138.73
X243.825Y-139.83
X243.825Y-140.93
X243.825Y-142.03
X243.825Y-160.28
X243.825Y-161.38
X243.825Y-162.48
X243.825Y-163.58
X243.825Y-164.68
X243.825Y-165.78
X243.825Y-184.03
X243.825Y-185.13
X243.825Y-186.23
X243.825Y-187.33
X243.825Y-188.43
X243.825Y-189.53
X243.825Y-207.78
X243.825Y-208.88
X243.825Y-209.98
X243.825Y-211.08
X243.825Y-212.18
X243.825Y-213.28
X245.062Y-136.53
X245.062Y-137.63
X245.062Y-138.73
X245.062Y-139.83
X245.062Y-140.93
X245.062Y-142.03
X245.062Y-160.28
X245.062Y-161.38
X245.062Y-162.48
X245.062Y-163.58
X245.062Y-164.68
X245.062Y-165.78
X245.062Y-184.03
X245.062Y-185.13
X245.062Y-186.23
X245.062Y-187.33
X245.062Y-188.43
X245.062Y-189.53
X245.062Y-207.78
X245.062Y-208.88
X245.062Y-209.98
X245.062Y-211.08
X245.062Y-212.18
X245.062Y-213.28
X245.2Y-80.56
X245.2Y-81.76
X245.2Y-82.96
X245.2Y-84.16
X246.3Y-138.73
X246.3Y-139.83
X246.3Y-162.48
X246.3Y-163.58
X246.3Y-186.23
X246.3Y-187.33
X246.3Y-209.98
X246.3Y-211.08
X247.0Y-80.56
X247.0Y-81.76
X247.0Y-82.96
X247.0Y-84.16
X249.7Y-82.36
X290.06Y-138.73
X290.06Y-139.83
X290.06Y-162.48
X290.06Y-163.58
X290.06Y-186.23
X290.06Y-187.33
X290.06Y-209.98
X290.06Y-211.08
X291.298Y-136.53
X291.298Y-137.63
X291.298Y-138.73
X291.298Y-139.83
X291.298Y-140.93
X291.298Y-142.03
X291.298Y-160.28
X291.298Y-161.38
X291.298Y-162.48
X291.298Y-163.58
X291.298Y-164.68
X291.298Y-165.78
X291.298Y-184.03
X291.298Y-185.13
X291.298Y-186.23
X291.298Y-187.33
X291.298Y-188.43
X291.298Y-189.53
X291.298Y-207.78
X291.298Y-208.88
X291.298Y-209.98
X291.298Y-211.08
X291.298Y-212.18
X291.298Y-213.28
X292.535Y-136.53
X292.535Y-137.63
X292.535Y-138.73
X292.535Y-139.83
X292.535Y-140.93
X292.535Y-142.03
X292.535Y-160.28
X292.535Y-161.38
X292.535Y-162.48
X292.535Y-163.58
X292.535Y-164.68
X292.535Y-165.78
X292.535Y-184.03
X292.535Y-185.13
X292.535Y-186.23
X292.535Y-187.33
X292.535Y-188.43
X292.535Y-189.53
X292.535Y-207.78
X292.535Y-208.88
X292.535Y-209.98
X292.535Y-211.08
X292.535Y-212.18
X292.535Y-213.28
X293.772Y-136.53
X293.772Y-137.63
X293.772Y-138.73
X293.772Y-139.83
X293.772Y-140.93
X293.772Y-142.03
X293.772Y-160.28
X293.772Y-161.38
X293.772Y-162.48
X293.772Y-163.58
X293.772Y-164.68
X293.772Y-165.78
X293.772Y-184.03
X293.772Y-185.13
X293.772Y-186.23
X293.772Y-187.33
X293.772Y-188.43
X293.772Y-189.53
X293.772Y-207.78
X293.772Y-208.88
X293.772Y-209.98
X293.772Y-211.08
X293.772Y-212.18
X293.772Y-213.28
X295.01Y-136.53
X295.01Y-137.63
X295.01Y-140.93
X295.01Y-142.03
X295.01Y-160.28
X295.01Y-161.38
X295.01Y-164.68
X295.01Y-165.78
X295.01Y-184.03
X295.01Y-185.13
X295.01Y-188.43
X295.01Y-189.53
X295.01Y-207.78
X295.01Y-208.88
X295.01Y-212.18
X295.01Y-213.28
X296.248Y-136.53
X296.248Y-142.03
X296.248Y-160.28
X296.248Y-165.78
X296.248Y-184.03
X296.248Y-189.53
X296.248Y-207.78
X296.248Y-213.28
X297.485Y-136.53
X297.485Y-142.03
X297.485Y-160.28
X297.485Y-165.78
X297.485Y-184.03
X297.485Y-189.53
X297.485Y-207.78
X297.485Y-213.28
X298.722Y-136.53
X298.722Y-137.63
X298.722Y-138.73
X298.722Y-139.83
X298.722Y-140.93
X298.722Y-142.03
X298.722Y-160.28
X298.722Y-161.38
X298.722Y-162.48
X298.722Y-163.58
X298.722Y-164.68
X298.722Y-165.78
X298.722Y-184.03
X298.722Y-185.13
X298.722Y-186.23
X298.722Y-187.33
X298.722Y-188.43
X298.722Y-189.53
X298.722Y-207.78
X298.722Y-208.88
X298.722Y-209.98
X298.722Y-211.08
X298.722Y-212.18
X298.722Y-213.28
X299.96Y-136.53
X299.96Y-137.63
X299.96Y-138.73
X299.96Y-139.83
X299.96Y-140.93
X299.96Y-142.03
X299.96Y-160.28
X299.96Y-161.38
X299.96Y-162.48
X299.96Y-163.58
X299.96Y-164.68
X299.96Y-165.78
X299.96Y-184.03
X299.96Y-185.13
X299.96Y-186.23
X299.96Y-187.33
X299.96Y-188.43
X299.96Y-189.53
X299.96Y-207.78
X299.96Y-208.88
X299.96Y-209.98
X299.96Y-211.08
X299.96Y-212.18
X299.96Y-213.28
X301.197Y-136.53
X301.197Y-137.63
X301.197Y-138.73
X301.197Y-139.83
X301.197Y-140.93
X301.197Y-142.03
X301.197Y-160.28
X301.197Y-161.38
X301.197Y-162.48
X301.197Y-163.58
X301.197Y-164.68
X301.197Y-165.78
X301.197Y-184.03
X301.197Y-185.13
X301.197Y-186.23
X301.197Y-187.33
X301.197Y-188.43
X301.197Y-189.53
X301.197Y-207.78
X301.197Y-208.88
X301.197Y-209.98
X301.197Y-211.08
X301.197Y-212.18
X301.197Y-213.28
X302.435Y-136.53
X302.435Y-137.63
X302.435Y-138.73
X302.435Y-139.83
X302.435Y-140.93
X302.435Y-142.03
X302.435Y-160.28
X302.435Y-161.38
X302.435Y-162.48
X302.435Y-163.58
X302.435Y-164.68
X302.435Y-165.78
X302.435Y-184.03
X302.435Y-185.13
X302.435Y-186.23
X302.435Y-187.33
X302.435Y-188.43
X302.435Y-189.53
X302.435Y-207.78
X302.435Y-208.88
X302.435Y-209.98
X302.435Y-211.08
X302.435Y-212.18
X302.435Y-213.28
X303.673Y-136.53
X303.673Y-137.63
X303.673Y-140.93
X303.673Y-142.03
X303.673Y-160.28
X303.673Y-161.38
X303.673Y-164.68
X303.673Y-165.78
X303.673Y-184.03
X303.673Y-185.13
X303.673Y-188.43
X303.673Y-189.53
X303.673Y-207.78
X303.673Y-208.88
X303.673Y-212.18
X303.673Y-213.28
X304.91Y-136.53
X304.91Y-137.63
X304.91Y-140.93
X304.91Y-142.03
X304.91Y-160.28
X304.91Y-161.38
X304.91Y-164.68
X304.91Y-165.78
X304.91Y-184.03
X304.91Y-185.13
X304.91Y-188.43
X304.91Y-189.53
X304.91Y-207.78
X304.91Y-208.88
X304.91Y-212.18
X304.91Y-213.28
X306.147Y-136.53
X306.147Y-137.63
X306.147Y-138.73
X306.147Y-139.83
X306.147Y-140.93
X306.147Y-142.03
X306.147Y-160.28
X306.147Y-161.38
X306.147Y-162.48
X306.147Y-163.58
X306.147Y-164.68
X306.147Y-165.78
X306.147Y-184.03
X306.147Y-185.13
X306.147Y-186.23
X306.147Y-187.33
X306.147Y-188.43
X306.147Y-189.53
X306.147Y-207.78
X306.147Y-208.88
X306.147Y-209.98
X306.147Y-211.08
X306.147Y-212.18
X306.147Y-213.28
X307.385Y-136.53
X307.385Y-137.63
X307.385Y-138.73
X307.385Y-139.83
X307.385Y-140.93
X307.385Y-142.03
X307.385Y-160.28
X307.385Y-161.38
X307.385Y-162.48
X307.385Y-163.58
X307.385Y-164.68
X307.385Y-165.78
X307.385Y-184.03
X307.385Y-185.13
X307.385Y-186.23
X307.385Y-187.33
X307.385Y-188.43
X307.385Y-189.53
X307.385Y-207.78
X307.385Y-208.88
X307.385Y-209.98
X307.385Y-211.08
X307.385Y-212.18
X307.385Y-213.28
X308.623Y-136.53
X308.623Y-137.63
X308.623Y-138.73
X308.623Y-139.83
X308.623Y-140.93
X308.623Y-142.03
X308.623Y-160.28
X308.623Y-161.38
X308.623Y-162.48
X308.623Y-163.58
X308.623Y-164.68
X308.623Y-165.78
X308.623Y-184.03
X308.623Y-185.13
X308.623Y-186.23
X308.623Y-187.33
X308.623Y-188.43
X308.623Y-189.53
X308.623Y-207.78
X308.623Y-208.88
X308.623Y-209.98
X308.623Y-211.08
X308.623Y-212.18
X308.623Y-213.28
X309.86Y-136.53
X309.86Y-137.63
X309.86Y-138.73
X309.86Y-139.83
X309.86Y-140.93
X309.86Y-142.03
X309.86Y-160.28
X309.86Y-161.38
X309.86Y-162.48
X309.86Y-163.58
X309.86Y-164.68
X309.86Y-165.78
X309.86Y-184.03
X309.86Y-185.13
X309.86Y-186.23
X309.86Y-187.33
X309.86Y-188.43
X309.86Y-189.53
X309.86Y-207.78
X309.86Y-208.88
X309.86Y-209.98
X309.86Y-211.08
X309.86Y-212.18
X309.86Y-213.28
X311.097Y-136.53
X311.097Y-137.63
X311.097Y-138.73
X311.097Y-139.83
X311.097Y-140.93
X311.097Y-142.03
X311.097Y-160.28
X311.097Y-161.38
X311.097Y-162.48
X311.097Y-163.58
X311.097Y-164.68
X311.097Y-165.78
X311.097Y-184.03
X311.097Y-185.13
X311.097Y-186.23
X311.097Y-187.33
X311.097Y-188.43
X311.097Y-189.53
X311.097Y-207.78
X311.097Y-208.88
X311.097Y-209.98
X311.097Y-211.08
X311.097Y-212.18
X311.097Y-213.28
X312.335Y-136.53
X312.335Y-137.63
X312.335Y-138.73
X312.335Y-139.83
X312.335Y-140.93
X312.335Y-142.03
X312.335Y-160.28
X312.335Y-161.38
X312.335Y-162.48
X312.335Y-163.58
X312.335Y-164.68
X312.335Y-165.78
X312.335Y-184.03
X312.335Y-185.13
X312.335Y-186.23
X312.335Y-187.33
X312.335Y-188.43
X312.335Y-189.53
X312.335Y-207.78
X312.335Y-208.88
X312.335Y-209.98
X312.335Y-211.08
X312.335Y-212.18
X312.335Y-213.28
X313.572Y-136.53
X313.572Y-137.63
X313.572Y-138.73
X313.572Y-139.83
X313.572Y-140.93
X313.572Y-142.03
X313.572Y-160.28
X313.572Y-161.38
X313.572Y-162.48
X313.572Y-163.58
X313.572Y-164.68
X313.572Y-165.78
X313.572Y-184.03
X313.572Y-185.13
X313.572Y-186.23
X313.572Y-187.33
X313.572Y-188.43
X313.572Y-189.53
X313.572Y-207.78
X313.572Y-208.88
X313.572Y-209.98
X313.572Y-211.08
X313.572Y-212.18
X313.572Y-213.28
X314.81Y-136.53
X314.81Y-137.63
X314.81Y-138.73
X314.81Y-139.83
X314.81Y-140.93
X314.81Y-142.03
X314.81Y-160.28
X314.81Y-161.38
X314.81Y-162.48
X314.81Y-163.58
X314.81Y-164.68
X314.81Y-165.78
X314.81Y-184.03
X314.81Y-185.13
X314.81Y-186.23
X314.81Y-187.33
X314.81Y-188.43
X314.81Y-189.53
X314.81Y-207.78
X314.81Y-208.88
X314.81Y-209.98
X314.81Y-211.08
X314.81Y-212.18
X314.81Y-213.28
X316.048Y-136.53
X316.048Y-137.63
X316.048Y-138.73
X316.048Y-139.83
X316.048Y-140.93
X316.048Y-142.03
X316.048Y-160.28
X316.048Y-161.38
X316.048Y-162.48
X316.048Y-163.58
X316.048Y-164.68
X316.048Y-165.78
X316.048Y-184.03
X316.048Y-185.13
X316.048Y-186.23
X316.048Y-187.33
X316.048Y-188.43
X316.048Y-189.53
X316.048Y-207.78
X316.048Y-208.88
X316.048Y-209.98
X316.048Y-211.08
X316.048Y-212.18
X316.048Y-213.28
X317.285Y-136.53
X317.285Y-137.63
X317.285Y-140.93
X317.285Y-142.03
X317.285Y-160.28
X317.285Y-161.38
X317.285Y-164.68
X317.285Y-165.78
X317.285Y-184.03
X317.285Y-185.13
X317.285Y-188.43
X317.285Y-189.53
X317.285Y-207.78
X317.285Y-208.88
X317.285Y-212.18
X317.285Y-213.28
X317.61Y-167.267
X317.61Y-168.54
X317.61Y-169.813
X317.61Y-171.086
X317.61Y-172.359
X317.61Y-173.632
X317.61Y-174.905
X317.61Y-176.178
X317.61Y-177.451
X317.61Y-178.724
X317.61Y-179.997
X317.61Y-181.27
X317.61Y-182.542
X318.522Y-136.53
X318.522Y-142.03
X318.522Y-160.28
X318.522Y-165.78
X318.522Y-184.03
X318.522Y-189.53
X318.522Y-207.78
X318.522Y-213.28
X318.71Y-167.267
X318.71Y-168.54
X318.71Y-169.813
X318.71Y-171.086
X318.71Y-172.359
X318.71Y-173.632
X318.71Y-174.905
X318.71Y-176.178
X318.71Y-177.451
X318.71Y-178.724
X318.71Y-179.997
X318.71Y-181.27
X318.71Y-182.542
X319.81Y-159.63
X319.81Y-167.267
X319.81Y-168.54
X319.81Y-169.813
X319.81Y-171.086
X319.81Y-172.359
X319.81Y-173.632
X319.81Y-174.905
X319.81Y-176.178
X319.81Y-177.451
X319.81Y-178.724
X319.81Y-179.997
X319.81Y-181.27
X319.81Y-182.542
X319.81Y-190.18
X320.36Y-139.28
X320.36Y-163.03
X320.36Y-186.78
X320.36Y-210.53
X320.91Y-159.63
X320.91Y-167.267
X320.91Y-168.54
X320.91Y-169.813
X320.91Y-171.086
X320.91Y-172.359
X320.91Y-173.632
X320.91Y-174.905
X320.91Y-176.178
X320.91Y-177.451
X320.91Y-178.724
X320.91Y-179.997
X320.91Y-181.27
X320.91Y-182.542
X320.91Y-190.18
X322.01Y-159.63
X322.01Y-165.995
X322.01Y-167.267
X322.01Y-168.54
X322.01Y-169.813
X322.01Y-171.086
X322.01Y-172.359
X322.01Y-173.632
X322.01Y-174.905
X322.01Y-176.178
X322.01Y-177.451
X322.01Y-178.724
X322.01Y-179.997
X322.01Y-181.27
X322.01Y-182.542
X322.01Y-183.815
X322.01Y-190.18
X323.11Y-159.63
X323.11Y-160.903
X323.11Y-164.722
X323.11Y-165.995
X323.11Y-167.267
X323.11Y-168.54
X323.11Y-169.813
X323.11Y-171.086
X323.11Y-172.359
X323.11Y-173.632
X323.11Y-174.905
X323.11Y-176.178
X323.11Y-177.451
X323.11Y-178.724
X323.11Y-179.997
X323.11Y-181.27
X323.11Y-182.542
X323.11Y-183.815
X323.11Y-185.088
X323.11Y-188.907
X323.11Y-190.18
T2
X105.28Y-136.74
X105.28Y-141.82
X105.28Y-160.49
X105.28Y-165.57
X105.28Y-184.24
X105.28Y-189.32
X105.28Y-207.99
X105.28Y-213.07
X147.84Y-136.74
X147.84Y-141.82
X147.84Y-160.49
X147.84Y-165.57
X147.84Y-184.24
X147.84Y-189.32
X147.84Y-207.99
X147.84Y-213.07
X246.9Y-136.74
X246.9Y-141.82
X246.9Y-160.49
X246.9Y-165.57
X246.9Y-184.24
X246.9Y-189.32
X246.9Y-207.99
X246.9Y-213.07
X289.46Y-136.74
X289.46Y-141.82
X289.46Y-160.49
X289.46Y-165.57
X289.46Y-184.24
X289.46Y-189.32
X289.46Y-207.99
X289.46Y-213.07
T4
X90.45Y-139.28
X90.45Y-163.03
X90.45Y-186.78
X90.45Y-210.53
X162.67Y-139.28
X162.67Y-163.03
X162.67Y-186.78
X162.67Y-210.53
X232.07Y-139.28
X232.07Y-163.03
X232.07Y-186.78
X232.07Y-210.53
X304.29Y-139.28
X304.29Y-163.03
X304.29Y-186.78
X304.29Y-210.53
T5
X90.72Y-155.03
X90.72Y-202.53
X162.4Y-147.28
X162.4Y-194.78
X232.34Y-155.03
X232.34Y-202.53
X304.02Y-147.28
X304.02Y-194.78
T6
X53.9Y-44.9
X53.9Y-144.9
X53.9Y-244.9
X197.4Y-44.9
X197.4Y-244.9
X340.9Y-44.9
X340.9Y-144.9
X340.9Y-244.9
T7
X98.96Y-147.28
X98.96Y-171.03
X98.96Y-194.78
X98.96Y-218.53
X154.16Y-131.28
X154.16Y-155.03
X154.16Y-178.78
X154.16Y-202.53
X240.58Y-147.28
X240.58Y-171.03
X240.58Y-194.78
X240.58Y-218.53
X295.78Y-131.28
X295.78Y-155.03
X295.78Y-178.78
X295.78Y-202.53
T3
X97.66Y-139.28G85X98.76Y-139.28
G05
X98.76Y-163.03G85X97.66Y-163.03
G05
X97.66Y-186.78G85X98.76Y-186.78
G05
X98.76Y-210.53G85X97.66Y-210.53
G05
X154.36Y-139.28G85X155.46Y-139.28
G05
X155.46Y-163.03G85X154.36Y-163.03
G05
X154.36Y-186.78G85X155.46Y-186.78
G05
X155.46Y-210.53G85X154.36Y-210.53
G05
X239.28Y-139.28G85X240.38Y-139.28
G05
X240.38Y-163.03G85X239.28Y-163.03
G05
X239.28Y-186.78G85X240.38Y-186.78
G05
X240.38Y-210.53G85X239.28Y-210.53
G05
X295.98Y-139.28G85X297.08Y-139.28
G05
X297.08Y-163.03G85X295.98Y-163.03
G05
X295.98Y-186.78G85X297.08Y-186.78
G05
X297.08Y-210.53G85X295.98Y-210.53
G05
M30
