M48
; DRILL file KiCad 10.0.5 date 2026-09-17T17:21:47
; FORMAT={-:-/ absolute / metric / decimal}
; #@! TF.CreationDate,2026-09-17T17:21:47+05:30
; #@! TF.GenerationSoftware,Kicad,Pcbnew,10.0.5
; #@! TF.FileFunction,MixedPlating,1,2
FMAT,2
METRIC
; #@! TA.AperFunction,Plated,PTH,ViaDrill
T1C0.400
; #@! TA.AperFunction,Plated,PTH,ComponentDrill
T2C1.830
; #@! TA.AperFunction,Plated,PTH,ComponentDrill
T3C2.000
; #@! TA.AperFunction,Plated,PTH,ComponentDrill
T4C2.500
; #@! TA.AperFunction,NonPlated,NPTH,ComponentDrill
T5C2.400
; #@! TA.AperFunction,NonPlated,NPTH,ComponentDrill
T6C3.200
; #@! TA.AperFunction,NonPlated,NPTH,ComponentDrill
T7C3.450
%
G90
G05
T1
X72.18Y-143.5
X72.18Y-145.5
X72.18Y-147.5
X72.18Y-149.5
X72.18Y-151.5
X72.18Y-153.5
X72.18Y-155.5
X72.18Y-157.5
X72.18Y-159.0
X76.58Y-143.5
X76.58Y-145.5
X76.58Y-147.5
X76.58Y-149.5
X76.58Y-151.5
X76.58Y-153.5
X76.58Y-155.5
X76.58Y-157.5
X76.58Y-159.0
X78.5Y-137.28
X78.5Y-141.28
X78.5Y-161.03
X78.5Y-165.03
X80.5Y-137.28
X80.5Y-141.28
X80.5Y-161.03
X80.5Y-165.03
X82.5Y-137.28
X82.5Y-141.28
X82.5Y-161.03
X82.5Y-165.03
X84.5Y-137.28
X84.5Y-141.28
X84.5Y-161.03
X84.5Y-165.03
X86.5Y-137.28
X86.5Y-141.28
X86.5Y-161.03
X86.5Y-165.03
X88.5Y-137.28
X88.5Y-141.28
X88.5Y-161.03
X88.5Y-165.03
X90.5Y-137.28
X90.5Y-141.28
X90.5Y-161.03
X90.5Y-165.03
X92.5Y-137.28
X92.5Y-141.28
X92.5Y-161.03
X92.5Y-165.03
X92.5Y-184.98
X92.5Y-188.58
X92.5Y-208.73
X92.5Y-212.33
X94.5Y-137.28
X94.5Y-141.28
X94.5Y-161.03
X94.5Y-165.03
X94.5Y-184.98
X94.5Y-188.58
X94.5Y-208.73
X94.5Y-212.33
X96.5Y-137.28
X96.5Y-141.28
X96.5Y-161.03
X96.5Y-165.03
X96.5Y-184.98
X96.5Y-188.58
X96.5Y-208.73
X96.5Y-212.33
X98.5Y-137.28
X98.5Y-141.28
X98.5Y-161.03
X98.5Y-165.03
X98.5Y-184.98
X98.5Y-188.58
X98.5Y-208.73
X98.5Y-212.33
X100.5Y-137.28
X100.5Y-141.28
X100.5Y-161.03
X100.5Y-165.03
X100.5Y-184.98
X100.5Y-188.58
X100.5Y-208.73
X100.5Y-212.33
X149.4Y-79.5
X149.4Y-82.5
X151.4Y-79.5
X151.4Y-82.5
X151.5Y-137.48
X151.5Y-141.08
X151.5Y-208.73
X151.5Y-212.33
X152.0Y-161.23
X152.0Y-164.83
X152.0Y-184.98
X152.0Y-188.58
X153.4Y-79.5
X153.4Y-82.5
X153.5Y-137.48
X153.5Y-141.08
X153.5Y-208.73
X153.5Y-212.33
X154.0Y-161.23
X154.0Y-164.83
X154.0Y-184.98
X154.0Y-188.58
X155.4Y-79.5
X155.4Y-82.5
X155.5Y-137.48
X155.5Y-141.08
X155.5Y-208.73
X155.5Y-212.33
X156.0Y-161.23
X156.0Y-164.83
X156.0Y-184.98
X156.0Y-188.58
X157.4Y-79.5
X157.4Y-82.5
X157.5Y-137.48
X157.5Y-141.08
X157.5Y-208.73
X157.5Y-212.33
X158.0Y-161.23
X158.0Y-164.83
X158.0Y-184.98
X158.0Y-188.58
X159.4Y-79.5
X159.4Y-82.5
X159.5Y-137.48
X159.5Y-141.08
X159.5Y-208.73
X159.5Y-212.33
X160.0Y-161.23
X160.0Y-164.83
X160.0Y-184.98
X160.0Y-188.58
X161.4Y-79.5
X161.4Y-82.5
X161.5Y-137.48
X161.5Y-141.08
X161.5Y-208.73
X161.5Y-212.33
X162.0Y-161.23
X162.0Y-164.83
X162.0Y-184.98
X162.0Y-188.58
X163.4Y-79.5
X163.4Y-82.5
X163.5Y-137.48
X163.5Y-141.08
X163.5Y-208.73
X163.5Y-212.33
X164.5Y-163.03
X164.5Y-186.78
X165.4Y-79.5
X165.4Y-82.5
X165.5Y-137.48
X165.5Y-141.08
X165.5Y-208.73
X165.5Y-212.33
X166.5Y-163.03
X166.5Y-186.78
X167.4Y-79.5
X167.4Y-82.5
X167.5Y-137.48
X167.5Y-141.08
X167.5Y-208.73
X167.5Y-212.33
X168.5Y-163.03
X168.5Y-186.78
X169.4Y-79.5
X169.4Y-82.5
X169.4Y-88.5
X169.4Y-91.5
X169.5Y-137.48
X169.5Y-141.08
X169.5Y-208.73
X169.5Y-212.33
X170.5Y-163.03
X170.5Y-186.78
X171.4Y-79.5
X171.4Y-82.5
X171.4Y-88.5
X171.4Y-91.5
X171.5Y-137.48
X171.5Y-141.08
X171.5Y-208.73
X171.5Y-212.33
X172.5Y-163.03
X172.5Y-186.78
X173.4Y-79.5
X173.4Y-82.5
X173.4Y-88.5
X173.4Y-91.5
X173.5Y-137.48
X173.5Y-141.08
X173.5Y-208.73
X173.5Y-212.33
X174.5Y-163.03
X174.5Y-186.78
X175.4Y-79.5
X175.4Y-82.5
X175.4Y-88.5
X175.4Y-91.5
X177.4Y-79.5
X177.4Y-82.5
X177.4Y-88.5
X177.4Y-91.5
X178.74Y-167.0
X178.74Y-169.0
X178.74Y-171.0
X178.74Y-173.0
X178.74Y-175.0
X178.74Y-177.0
X178.74Y-179.0
X178.74Y-181.0
X178.74Y-183.0
X179.4Y-79.5
X179.4Y-82.5
X179.4Y-88.5
X179.4Y-91.5
X181.4Y-79.5
X181.4Y-82.5
X181.4Y-88.5
X181.4Y-91.5
X183.4Y-79.5
X183.4Y-82.5
X183.4Y-88.5
X183.4Y-91.5
X185.4Y-79.5
X185.4Y-82.5
X185.4Y-88.5
X185.4Y-91.5
X185.4Y-97.5
X185.4Y-100.5
X187.4Y-79.5
X187.4Y-82.5
X187.4Y-88.5
X187.4Y-91.5
X187.4Y-97.5
X187.4Y-100.5
X189.4Y-79.5
X189.4Y-82.5
X189.4Y-88.5
X189.4Y-91.5
X189.4Y-97.5
X189.4Y-100.5
X191.4Y-79.5
X191.4Y-82.5
X191.4Y-88.5
X191.4Y-91.5
X191.4Y-97.5
X191.4Y-100.5
X193.4Y-79.5
X193.4Y-82.5
X193.4Y-88.5
X193.4Y-91.5
X193.4Y-97.5
X193.4Y-100.5
X195.4Y-79.5
X195.4Y-82.5
X195.4Y-88.5
X195.4Y-91.5
X195.4Y-97.5
X195.4Y-100.5
X197.4Y-79.5
X197.4Y-82.5
X197.4Y-88.5
X197.4Y-91.5
X197.4Y-97.5
X197.4Y-100.5
X199.4Y-79.5
X199.4Y-82.5
X199.4Y-88.5
X199.4Y-91.5
X199.4Y-97.5
X199.4Y-100.5
X201.4Y-79.5
X201.4Y-82.5
X201.4Y-88.5
X201.4Y-91.5
X201.4Y-97.5
X201.4Y-100.5
X203.4Y-79.5
X203.4Y-82.5
X203.4Y-88.5
X203.4Y-91.5
X203.4Y-97.5
X203.4Y-100.5
X205.4Y-79.5
X205.4Y-82.5
X205.4Y-88.5
X205.4Y-91.5
X205.4Y-97.5
X205.4Y-100.5
X207.4Y-79.5
X207.4Y-82.5
X207.4Y-88.5
X207.4Y-91.5
X207.4Y-97.5
X207.4Y-100.5
X209.4Y-79.5
X209.4Y-82.5
X209.4Y-88.5
X209.4Y-91.5
X209.4Y-97.5
X209.4Y-100.5
X211.4Y-79.5
X211.4Y-82.5
X211.4Y-88.5
X211.4Y-91.5
X213.4Y-79.5
X213.4Y-82.5
X213.4Y-88.5
X213.4Y-91.5
X214.5Y-143.5
X214.5Y-145.5
X214.5Y-147.5
X214.5Y-149.5
X214.5Y-151.5
X214.5Y-153.5
X214.5Y-155.5
X214.5Y-157.5
X214.5Y-159.0
X214.5Y-191.0
X214.5Y-193.0
X214.5Y-195.0
X214.5Y-197.0
X214.5Y-199.0
X214.5Y-201.0
X214.5Y-203.0
X214.5Y-205.0
X214.5Y-206.5
X215.4Y-79.5
X215.4Y-82.5
X215.4Y-88.5
X215.4Y-91.5
X217.4Y-79.5
X217.4Y-82.5
X217.4Y-88.5
X217.4Y-91.5
X217.5Y-143.5
X217.5Y-145.5
X217.5Y-147.5
X217.5Y-149.5
X217.5Y-151.5
X217.5Y-153.5
X217.5Y-155.5
X217.5Y-157.5
X217.5Y-159.0
X217.5Y-191.0
X217.5Y-193.0
X217.5Y-195.0
X217.5Y-197.0
X217.5Y-199.0
X217.5Y-201.0
X217.5Y-203.0
X217.5Y-205.0
X217.5Y-206.5
X219.4Y-79.5
X219.4Y-82.5
X219.4Y-88.5
X219.4Y-91.5
X220.0Y-137.48
X220.0Y-141.08
X220.0Y-161.23
X220.0Y-164.83
X220.0Y-184.98
X220.0Y-188.58
X220.0Y-208.73
X220.0Y-212.33
X221.4Y-79.5
X221.4Y-82.5
X221.4Y-88.5
X221.4Y-91.5
X222.0Y-137.48
X222.0Y-141.08
X222.0Y-161.23
X222.0Y-164.83
X222.0Y-184.98
X222.0Y-188.58
X222.0Y-208.73
X222.0Y-212.33
X223.4Y-79.5
X223.4Y-82.5
X223.4Y-88.5
X223.4Y-91.5
X224.0Y-137.48
X224.0Y-141.08
X224.0Y-161.23
X224.0Y-164.83
X224.0Y-184.98
X224.0Y-188.58
X224.0Y-208.73
X224.0Y-212.33
X225.4Y-79.5
X225.4Y-82.5
X225.4Y-88.5
X225.4Y-91.5
X226.0Y-137.48
X226.0Y-141.08
X226.0Y-161.23
X226.0Y-164.83
X226.0Y-184.98
X226.0Y-188.58
X226.0Y-208.73
X226.0Y-212.33
X227.4Y-79.5
X227.4Y-82.5
X228.0Y-137.48
X228.0Y-141.08
X228.0Y-161.23
X228.0Y-164.83
X228.0Y-184.98
X228.0Y-188.58
X228.0Y-208.73
X228.0Y-212.33
X229.4Y-79.5
X229.4Y-82.5
X230.0Y-137.48
X230.0Y-141.08
X230.0Y-161.23
X230.0Y-164.83
X230.0Y-184.98
X230.0Y-188.58
X230.0Y-208.73
X230.0Y-212.33
X231.4Y-79.5
X231.4Y-82.5
X232.0Y-137.48
X232.0Y-141.08
X232.0Y-161.23
X232.0Y-164.83
X232.0Y-184.98
X232.0Y-188.58
X232.0Y-208.73
X232.0Y-212.33
X233.4Y-79.5
X233.4Y-82.5
X234.0Y-137.48
X234.0Y-141.08
X234.0Y-161.23
X234.0Y-164.83
X234.0Y-184.98
X234.0Y-188.58
X234.0Y-208.73
X234.0Y-212.33
X235.4Y-79.5
X235.4Y-82.5
X236.0Y-137.48
X236.0Y-141.08
X236.0Y-161.23
X236.0Y-164.83
X236.0Y-184.98
X236.0Y-188.58
X236.0Y-208.73
X236.0Y-212.33
X237.4Y-79.5
X237.4Y-82.5
X238.0Y-137.48
X238.0Y-141.08
X238.0Y-161.23
X238.0Y-164.83
X238.0Y-184.98
X238.0Y-188.58
X238.0Y-208.73
X238.0Y-212.33
X239.4Y-79.5
X239.4Y-82.5
X240.0Y-137.48
X240.0Y-141.08
X240.0Y-161.23
X240.0Y-164.83
X240.0Y-184.98
X240.0Y-188.58
X240.0Y-208.73
X240.0Y-212.33
X241.4Y-79.5
X241.4Y-82.5
X242.0Y-137.48
X242.0Y-141.08
X242.0Y-161.23
X242.0Y-164.83
X242.0Y-184.98
X242.0Y-188.58
X242.0Y-208.73
X242.0Y-212.33
X243.4Y-79.5
X243.4Y-82.5
X245.4Y-79.5
X245.4Y-82.5
X293.4Y-137.48
X293.4Y-141.08
X293.4Y-161.23
X293.4Y-164.83
X293.4Y-184.98
X293.4Y-188.58
X293.4Y-208.73
X293.4Y-212.33
X295.4Y-137.48
X295.4Y-141.08
X295.4Y-161.23
X295.4Y-164.83
X295.4Y-184.98
X295.4Y-188.58
X295.4Y-208.73
X295.4Y-212.33
X297.4Y-137.48
X297.4Y-141.08
X297.4Y-161.23
X297.4Y-164.83
X297.4Y-184.98
X297.4Y-188.58
X297.4Y-208.73
X297.4Y-212.33
X299.4Y-137.48
X299.4Y-141.08
X299.4Y-161.23
X299.4Y-164.83
X299.4Y-184.98
X299.4Y-188.58
X299.4Y-208.73
X299.4Y-212.33
X301.4Y-137.48
X301.4Y-141.08
X301.4Y-161.23
X301.4Y-164.83
X301.4Y-184.98
X301.4Y-188.58
X301.4Y-208.73
X301.4Y-212.33
X303.4Y-137.48
X303.4Y-141.08
X303.4Y-161.23
X303.4Y-164.83
X303.4Y-184.98
X303.4Y-188.58
X303.4Y-208.73
X303.4Y-212.33
X305.4Y-137.48
X305.4Y-141.08
X305.4Y-161.23
X305.4Y-164.83
X305.4Y-184.98
X305.4Y-188.58
X305.4Y-208.73
X305.4Y-212.33
X307.4Y-137.48
X307.4Y-141.08
X307.4Y-161.23
X307.4Y-164.83
X307.4Y-184.98
X307.4Y-188.58
X307.4Y-208.73
X307.4Y-212.33
X309.4Y-137.48
X309.4Y-141.08
X309.4Y-161.23
X309.4Y-164.83
X309.4Y-184.98
X309.4Y-188.58
X309.4Y-208.73
X309.4Y-212.33
X311.4Y-137.48
X311.4Y-141.08
X311.4Y-161.23
X311.4Y-164.83
X311.4Y-184.98
X311.4Y-188.58
X311.4Y-208.73
X311.4Y-212.33
X313.4Y-137.48
X313.4Y-141.08
X313.4Y-161.23
X313.4Y-164.83
X313.4Y-184.98
X313.4Y-188.58
X313.4Y-208.73
X313.4Y-212.33
X315.4Y-137.48
X315.4Y-141.08
X315.4Y-161.23
X315.4Y-164.83
X315.4Y-184.98
X315.4Y-188.58
X315.4Y-208.73
X315.4Y-212.33
X318.86Y-167.2
X318.86Y-169.2
X318.86Y-171.2
X318.86Y-173.2
X318.86Y-175.2
X318.86Y-177.2
X318.86Y-179.2
X318.86Y-181.2
X318.86Y-182.8
X321.86Y-167.2
X321.86Y-169.2
X321.86Y-171.2
X321.86Y-173.2
X321.86Y-175.2
X321.86Y-177.2
X321.86Y-179.2
X321.86Y-181.2
X321.86Y-182.8
T2
X105.28Y-136.74
X105.28Y-141.82
X105.28Y-160.49
X105.28Y-165.57
X105.28Y-184.24
X105.28Y-189.32
X105.28Y-207.99
X105.28Y-213.07
X147.84Y-136.74
X147.84Y-141.82
X147.84Y-160.49
X147.84Y-165.57
X147.84Y-184.24
X147.84Y-189.32
X147.84Y-207.99
X147.84Y-213.07
X246.9Y-136.74
X246.9Y-141.82
X246.9Y-160.49
X246.9Y-165.57
X246.9Y-184.24
X246.9Y-189.32
X246.9Y-207.99
X246.9Y-213.07
X289.46Y-136.74
X289.46Y-141.82
X289.46Y-160.49
X289.46Y-165.57
X289.46Y-184.24
X289.46Y-189.32
X289.46Y-207.99
X289.46Y-213.07
T4
X90.45Y-139.28
X90.45Y-163.03
X90.45Y-186.78
X90.45Y-210.53
X162.67Y-139.28
X162.67Y-163.03
X162.67Y-186.78
X162.67Y-210.53
X232.07Y-139.28
X232.07Y-163.03
X232.07Y-186.78
X232.07Y-210.53
X304.29Y-139.28
X304.29Y-163.03
X304.29Y-186.78
X304.29Y-210.53
T5
X90.72Y-155.03
X90.72Y-202.53
X162.4Y-147.28
X162.4Y-194.78
X232.34Y-155.03
X232.34Y-202.53
X304.02Y-147.28
X304.02Y-194.78
T6
X53.9Y-44.9
X53.9Y-144.9
X53.9Y-244.9
X197.4Y-44.9
X197.4Y-244.9
X340.9Y-44.9
X340.9Y-144.9
X340.9Y-244.9
T7
X98.96Y-147.28
X98.96Y-171.03
X98.96Y-194.78
X98.96Y-218.53
X154.16Y-131.28
X154.16Y-155.03
X154.16Y-178.78
X154.16Y-202.53
X240.58Y-147.28
X240.58Y-171.03
X240.58Y-194.78
X240.58Y-218.53
X295.78Y-131.28
X295.78Y-155.03
X295.78Y-178.78
X295.78Y-202.53
T3
X97.66Y-139.28G85X98.76Y-139.28
G05
X98.76Y-163.03G85X97.66Y-163.03
G05
X97.66Y-186.78G85X98.76Y-186.78
G05
X98.76Y-210.53G85X97.66Y-210.53
G05
X154.36Y-139.28G85X155.46Y-139.28
G05
X155.46Y-163.03G85X154.36Y-163.03
G05
X154.36Y-186.78G85X155.46Y-186.78
G05
X155.46Y-210.53G85X154.36Y-210.53
G05
X239.28Y-139.28G85X240.38Y-139.28
G05
X240.38Y-163.03G85X239.28Y-163.03
G05
X239.28Y-186.78G85X240.38Y-186.78
G05
X240.38Y-210.53G85X239.28Y-210.53
G05
X295.98Y-139.28G85X297.08Y-139.28
G05
X297.08Y-163.03G85X295.98Y-163.03
G05
X295.98Y-186.78G85X297.08Y-186.78
G05
X297.08Y-210.53G85X295.98Y-210.53
G05
M30
