%TF.GenerationSoftware,KiCad,Pcbnew,10.0.5*%
%TF.CreationDate,2026-09-17T13:13:44+05:30*%
%TF.ProjectId,ACIR-Learning-Kit-2-PCB,41434952-2d4c-4656-9172-6e696e672d4b,v2.0*%
%TF.SameCoordinates,Original*%
%TF.FileFunction,Soldermask,Top*%
%TF.FilePolarity,Negative*%
%FSLAX46Y46*%
G04 Gerber Fmt 4.6, Leading zero omitted, Abs format (unit mm)*
G04 Created by KiCad (PCBNEW 10.0.5) date 2026-09-17 13:13:44*
%MOMM*%
%LPD*%
G01*
G04 APERTURE LIST*
%ADD10C,6.000000*%
%ADD11C,3.450000*%
%ADD12C,2.400000*%
%ADD13C,2.800000*%
%ADD14C,3.500000*%
%ADD15C,3.200000*%
G04 APERTURE END LIST*
D10*
%TO.C,P4*%
X227050000Y-92530000D03*
%TD*%
%TO.C,J7*%
X216000000Y-139280000D03*
%TD*%
%TO.C,J17*%
X74380000Y-210530000D03*
%TD*%
D11*
%TO.C,BT8*%
X98960000Y-194780000D03*
X154160000Y-178780000D03*
D12*
X162400000Y-194780000D03*
D13*
X147840000Y-184240000D03*
X147840000Y-189320000D03*
D14*
X162670000Y-186780000D03*
X90450000Y-186780000D03*
D13*
X105280000Y-184240000D03*
X105280000Y-189320000D03*
%TD*%
D15*
%TO.C,H5*%
X197400000Y-244900000D03*
%TD*%
D10*
%TO.C,J14*%
X178740000Y-186780000D03*
%TD*%
%TO.C,J9*%
X216000000Y-186780000D03*
%TD*%
%TO.C,J19*%
X320360000Y-186780000D03*
%TD*%
D15*
%TO.C,H6*%
X197400000Y-44900000D03*
%TD*%
D10*
%TO.C,J13*%
X74380000Y-163030000D03*
%TD*%
D11*
%TO.C,BT4*%
X240580000Y-194780000D03*
X295780000Y-178780000D03*
D12*
X304020000Y-194780000D03*
D13*
X289460000Y-184240000D03*
X289460000Y-189320000D03*
D14*
X304290000Y-186780000D03*
X232070000Y-186780000D03*
D13*
X246900000Y-184240000D03*
X246900000Y-189320000D03*
%TD*%
D11*
%TO.C,BT7*%
X154160000Y-155030000D03*
X98960000Y-171030000D03*
D12*
X90720000Y-155030000D03*
D13*
X105280000Y-165570000D03*
X105280000Y-160490000D03*
D14*
X90450000Y-163030000D03*
X162670000Y-163030000D03*
D13*
X147840000Y-165570000D03*
X147840000Y-160490000D03*
%TD*%
D15*
%TO.C,H8*%
X53900000Y-144900000D03*
%TD*%
D10*
%TO.C,P6*%
X219750000Y-100180000D03*
%TD*%
%TO.C,J18*%
X216000000Y-163030000D03*
%TD*%
%TO.C,J3*%
X320360000Y-139280000D03*
%TD*%
%TO.C,P2*%
X249700000Y-82360000D03*
%TD*%
%TO.C,P3*%
X169105000Y-92530000D03*
%TD*%
D11*
%TO.C,BT9*%
X154160000Y-202530000D03*
X98960000Y-218530000D03*
D12*
X90720000Y-202530000D03*
D13*
X105280000Y-213070000D03*
X105280000Y-207990000D03*
D14*
X90450000Y-210530000D03*
X162670000Y-210530000D03*
D13*
X147840000Y-213070000D03*
X147840000Y-207990000D03*
%TD*%
D10*
%TO.C,J16*%
X178740000Y-210530000D03*
%TD*%
D11*
%TO.C,BT2*%
X240580000Y-147280000D03*
X295780000Y-131280000D03*
D12*
X304020000Y-147280000D03*
D13*
X289460000Y-136740000D03*
X289460000Y-141820000D03*
D14*
X304290000Y-139280000D03*
X232070000Y-139280000D03*
D13*
X246900000Y-136740000D03*
X246900000Y-141820000D03*
%TD*%
D10*
%TO.C,J15*%
X74380000Y-186780000D03*
%TD*%
D15*
%TO.C,H7*%
X340900000Y-144900000D03*
%TD*%
D11*
%TO.C,BT5*%
X295780000Y-202530000D03*
X240580000Y-218530000D03*
D12*
X232340000Y-202530000D03*
D13*
X246900000Y-213070000D03*
X246900000Y-207990000D03*
D14*
X232070000Y-210530000D03*
X304290000Y-210530000D03*
D13*
X289460000Y-213070000D03*
X289460000Y-207990000D03*
%TD*%
D15*
%TO.C,H2*%
X340900000Y-44900000D03*
%TD*%
D10*
%TO.C,P1*%
X145340000Y-82360000D03*
%TD*%
D11*
%TO.C,BT3*%
X295780000Y-155030000D03*
X240580000Y-171030000D03*
D12*
X232340000Y-155030000D03*
D13*
X246900000Y-165570000D03*
X246900000Y-160490000D03*
D14*
X232070000Y-163030000D03*
X304290000Y-163030000D03*
D13*
X289460000Y-165570000D03*
X289460000Y-160490000D03*
%TD*%
D10*
%TO.C,J8*%
X320360000Y-163030000D03*
%TD*%
D15*
%TO.C,H1*%
X53900000Y-44900000D03*
%TD*%
D10*
%TO.C,J20*%
X216000000Y-210530000D03*
%TD*%
D11*
%TO.C,BT6*%
X98960000Y-147280000D03*
X154160000Y-131280000D03*
D12*
X162400000Y-147280000D03*
D13*
X147840000Y-136740000D03*
X147840000Y-141820000D03*
D14*
X162670000Y-139280000D03*
X90450000Y-139280000D03*
D13*
X105280000Y-136740000D03*
X105280000Y-141820000D03*
%TD*%
D10*
%TO.C,J10*%
X178740000Y-139280000D03*
%TD*%
D15*
%TO.C,H4*%
X53900000Y-244900000D03*
%TD*%
D10*
%TO.C,J12*%
X178740000Y-163030000D03*
%TD*%
D15*
%TO.C,H3*%
X340900000Y-244900000D03*
%TD*%
D10*
%TO.C,J11*%
X74380000Y-139280000D03*
%TD*%
%TO.C,J4*%
X320360000Y-210530000D03*
%TD*%
%TO.C,P5*%
X183330000Y-100180000D03*
%TD*%
M02*
